<svg width="107" height="23" viewBox="0 0 107 23" fill="none" xmlns="http://www.w3.org/2000/svg">
<path d="M89.0465 2.80247C89.0979 2.77967 89.1478 2.75367 89.1959 2.72462C89.5276 2.5537 89.8706 2.40596 90.2227 2.28246C90.7389 2.10513 91.2691 1.97154 91.8076 1.88311C92.0412 1.84263 92.2747 1.80915 92.5082 1.7858C92.7153 1.76478 92.9232 1.74299 93.131 1.72586C93.2509 1.71574 93.3723 1.71496 93.4922 1.70718C93.9593 1.67526 94.4264 1.68227 94.8934 1.68149C95.1324 1.68149 95.3714 1.69394 95.6104 1.70951C95.9218 1.72897 96.2332 1.76089 96.5445 1.80293C97.2129 1.89403 97.8737 2.03348 98.5218 2.22018C99.1538 2.40235 99.7711 2.63214 100.368 2.90756C100.878 3.1427 101.371 3.41322 101.844 3.71715C102.313 4.01939 102.76 4.35609 103.18 4.72448C103.31 4.83735 103.436 4.95801 103.56 5.07556C103.649 5.16275 103.738 5.25123 103.825 5.34101C103.838 5.3584 103.855 5.37275 103.874 5.38305L103.916 5.47102C103.922 5.50722 103.933 5.54236 103.949 5.57533C104.105 6.0424 104.261 6.50948 104.416 6.97655C104.489 7.19763 104.563 7.41872 104.633 7.64058C104.78 8.09831 104.935 8.55293 105.087 9.0091C105.13 9.14066 105.192 9.26366 105.248 9.38977C105.403 9.7463 105.555 10.1067 105.688 10.4742C105.85 10.9198 105.985 11.3747 106.092 11.8365C106.148 12.0754 106.194 12.316 106.232 12.5589C106.261 12.7519 106.285 12.9481 106.303 13.1412C106.313 13.2455 106.317 13.3513 106.324 13.4564C106.333 13.6051 106.331 13.7538 106.334 13.9025C106.338 14.0512 106.329 14.2217 106.317 14.3805C106.298 14.6314 106.266 14.8811 106.22 15.1286C106.15 15.5195 106.042 15.9027 105.898 16.2729C105.77 16.592 105.614 16.899 105.431 17.1899C105.252 17.4754 105.052 17.7463 104.831 18.0003C104.684 18.1711 104.528 18.3342 104.364 18.4892C104.015 18.8138 103.638 19.1066 103.237 19.3641C103.002 19.5152 102.763 19.6563 102.518 19.7876C102.362 19.8725 102.199 19.9519 102.039 20.0305L102.009 20.043C101.997 20.0468 101.991 20.043 101.988 20.0305C101.988 20.0001 102.01 19.9846 102.027 19.9667C102.183 19.811 102.339 19.6646 102.477 19.4996C102.616 19.3346 102.77 19.1672 102.906 18.992C103.174 18.6594 103.421 18.3099 103.644 17.9458C103.753 17.7683 103.857 17.5877 103.955 17.4009C104.022 17.2716 104.086 17.1419 104.149 17.0116C104.202 16.9073 104.248 16.7991 104.292 16.6909C104.337 16.5947 104.378 16.4962 104.413 16.3959C104.415 16.39 104.418 16.3842 104.421 16.3788C104.427 16.3655 104.432 16.3507 104.437 16.3367C104.452 16.3038 104.464 16.27 104.475 16.2355C104.494 16.1912 104.51 16.1457 104.524 16.0993C104.529 16.0861 104.534 16.072 104.539 16.058L104.553 16.0183C104.557 16.0051 104.561 15.9919 104.566 15.9794C104.57 15.967 104.574 15.9529 104.578 15.9405L104.591 15.9016C104.596 15.8891 104.6 15.8759 104.605 15.8634C104.609 15.851 104.612 15.8432 104.615 15.8323C104.618 15.8214 104.622 15.8113 104.625 15.8004C104.636 15.7701 104.645 15.7392 104.652 15.7077C104.654 15.7022 104.655 15.6967 104.658 15.6914C104.662 15.6813 104.667 15.6711 104.671 15.661C104.678 15.6432 104.684 15.6247 104.688 15.6057C104.688 15.5948 104.688 15.5847 104.693 15.5738C104.694 15.5688 104.696 15.5638 104.697 15.559C104.7 15.5465 104.7 15.5335 104.697 15.5209C104.697 15.5156 104.698 15.5101 104.701 15.5056C104.703 15.501 104.708 15.4976 104.713 15.496C104.718 15.496 104.721 15.496 104.723 15.5038C104.725 15.5116 104.723 15.4882 104.723 15.4804C104.728 15.4578 104.735 15.4353 104.739 15.4119C104.74 15.4016 104.74 15.3911 104.739 15.3808C104.738 15.3758 104.738 15.3706 104.74 15.3659C104.742 15.3612 104.745 15.3572 104.749 15.3543C104.763 15.3473 104.749 15.338 104.749 15.3294C104.748 15.3243 104.749 15.3189 104.751 15.3141C104.753 15.3092 104.756 15.305 104.76 15.3022C104.774 15.2951 104.76 15.2858 104.76 15.2772C104.759 15.2722 104.76 15.2669 104.761 15.2621C104.763 15.2573 104.766 15.2531 104.771 15.25C104.785 15.2438 104.771 15.2344 104.771 15.2259C104.769 15.2208 104.77 15.2155 104.771 15.2107C104.773 15.2058 104.776 15.2016 104.781 15.1986C104.794 15.1916 104.781 15.1823 104.781 15.1737C104.779 15.1686 104.78 15.1632 104.782 15.1584C104.784 15.1535 104.787 15.1493 104.792 15.1465C104.805 15.1402 104.792 15.1301 104.792 15.1215C104.79 15.1164 104.791 15.111 104.793 15.1061C104.794 15.1013 104.798 15.0971 104.802 15.0943C104.818 15.0834 104.802 15.0709 104.802 15.0593C104.801 15.054 104.801 15.0485 104.803 15.0433C104.805 15.0382 104.808 15.0337 104.813 15.0305C104.826 15.0235 104.813 15.0133 104.813 15.0048C104.811 14.9995 104.812 14.9939 104.814 14.9889C104.816 14.9839 104.82 14.9799 104.825 14.9775C104.848 14.9775 104.825 14.9557 104.836 14.948C104.837 14.9424 104.838 14.937 104.84 14.9316C104.845 14.9129 104.845 14.8935 104.85 14.8748C104.855 14.8561 104.856 14.8359 104.861 14.8164C104.867 14.7956 104.867 14.7733 104.861 14.7526C104.859 14.7473 104.859 14.7416 104.86 14.7362C104.861 14.7307 104.863 14.7257 104.867 14.7214C104.869 14.7203 104.872 14.7197 104.875 14.7197C104.878 14.7197 104.88 14.7203 104.883 14.7214C104.883 14.7292 104.876 14.7308 104.883 14.7269C104.889 14.723 104.883 14.7175 104.883 14.7129C104.883 14.6957 104.889 14.6794 104.89 14.6623C104.89 14.6471 104.892 14.632 104.895 14.6171C104.903 14.593 104.901 14.5665 104.908 14.5393C104.915 14.512 104.914 14.4879 104.92 14.4614C104.926 14.435 104.926 14.4108 104.932 14.3836C104.937 14.3687 104.94 14.3533 104.941 14.3376C104.948 14.326 104.955 14.3148 104.964 14.3042C104.97 14.2747 104.974 14.2447 104.975 14.2146C104.981 14.1989 104.983 14.1822 104.981 14.1656C104.981 14.1602 104.981 14.1547 104.981 14.1493C104.984 14.1335 104.982 14.1175 104.977 14.1025C104.975 14.0948 104.974 14.0866 104.976 14.0787C104.979 14.0709 104.983 14.0638 104.988 14.0582C104.988 14.0582 104.999 14.0636 104.995 14.0527C104.995 14.0486 104.995 14.0444 104.995 14.0403C104.998 14.0259 105 14.0113 105.002 13.9967C105.001 13.9915 105.001 13.9863 105.002 13.9811C105.005 13.9681 105.005 13.9545 105.002 13.9414C105.001 13.936 105.001 13.9305 105.002 13.9251C105.004 13.9056 105.002 13.8859 104.995 13.8675C104.995 13.8464 104.99 13.8254 105.011 13.8114C105.022 13.8114 105.022 13.8215 105.029 13.8246C105.036 13.8278 105.024 13.8145 105.018 13.8106C105.015 13.8073 105.013 13.8034 105.012 13.7992C105.011 13.795 105.012 13.7907 105.013 13.7865C105.016 13.7698 105.018 13.7529 105.019 13.7359C105.02 13.7272 105.021 13.7186 105.024 13.7102C105.03 13.6918 105.03 13.6717 105.024 13.6534C105.021 13.6418 105.021 13.6299 105.024 13.6183C105.028 13.6014 105.031 13.5838 105.031 13.5662C105.031 13.5541 105.033 13.5421 105.036 13.5304C105.043 13.5106 105.043 13.4887 105.036 13.4689C105.032 13.4499 105.032 13.4303 105.036 13.4113C105.042 13.3888 105.044 13.3653 105.042 13.342C105.041 13.3116 105.043 13.2811 105.047 13.2509C105.057 13.2259 105.057 13.1981 105.047 13.1731C105.036 12.9847 105.047 12.7971 105.042 12.6095C105.038 12.3572 105.016 12.1058 104.992 11.8544C104.954 11.4548 104.893 11.0577 104.809 10.6649C104.677 10.0262 104.495 9.39916 104.263 8.78958C104.121 8.42059 103.964 8.05783 103.787 7.70441C103.412 6.94183 102.949 6.22614 102.406 5.57221C102.122 5.24404 101.817 4.93461 101.493 4.64585C101.173 4.34951 100.838 4.07043 100.488 3.80979C100.055 3.48633 99.59 3.20801 99.1002 2.97917C98.4883 2.69376 97.8366 2.50319 97.1673 2.41402C96.968 2.38755 96.7687 2.37354 96.5679 2.35952C96.3697 2.34668 96.1709 2.34434 95.9724 2.35252C95.5064 2.37101 95.0427 2.42751 94.586 2.52144C93.9137 2.66442 93.2535 2.85883 92.611 3.10295C92.2843 3.22468 91.9642 3.36344 91.6519 3.51865C91.0903 3.79642 90.5613 4.13584 90.0748 4.53064C89.9113 4.66454 89.7541 4.80544 89.5999 4.95101C88.9756 5.55757 88.4317 6.24171 87.9815 6.98667C87.7223 7.40081 87.4833 7.82663 87.2599 8.26101C86.9485 8.85964 86.6317 9.45282 86.3063 10.0421C86.2284 10.19 86.1506 10.3395 86.0642 10.4851C86.0408 10.5248 86.058 10.5769 86.0175 10.6081C85.9832 10.587 85.9832 10.552 85.9809 10.5185C85.9828 10.4802 85.9805 10.4419 85.9739 10.4041C85.9614 10.2858 85.9739 10.1667 85.9684 10.0476C85.963 9.81403 85.9684 9.58049 85.9832 9.34228C86.0102 8.90297 86.0622 8.46554 86.1389 8.03214C86.2255 7.5516 86.3473 7.07807 86.5032 6.61535C86.794 5.7497 87.2139 4.93296 87.7488 4.19279C88.0636 3.75918 88.4172 3.35506 88.8051 2.9854C88.8347 2.9566 88.8682 2.93325 88.9001 2.90756C88.9459 2.86857 88.9949 2.83342 89.0465 2.80247Z" fill="white"/>
<path d="M84.74 13.3365C84.7555 13.3158 84.7658 13.2919 84.7704 13.2665C84.8755 12.959 84.9899 12.6554 85.1199 12.3572C85.2048 12.1618 85.2935 11.968 85.3838 11.7749C85.4928 11.5414 85.6103 11.3141 85.7255 11.0844C85.8034 10.9288 85.889 10.7731 85.9731 10.6174C85.9844 10.5973 85.9891 10.5741 85.9863 10.5512C85.9824 10.4998 85.9863 10.4477 85.9863 10.3955C86.0105 10.4266 85.9972 10.4617 85.998 10.4944C85.9958 10.5327 86.0047 10.5708 86.0237 10.6041C86.0474 10.6571 86.0576 10.7152 86.0533 10.7731C86.0665 11.0292 86.0922 11.2845 86.1233 11.5391C86.1724 11.9376 86.2401 12.3331 86.3234 12.7262C86.4106 13.1341 86.518 13.5366 86.6418 13.9352C86.787 14.4033 86.9606 14.8622 87.1618 15.3091C87.3531 15.7402 87.576 16.1566 87.8289 16.5547C88.0021 16.8283 88.1957 17.0886 88.4081 17.3331C88.5685 17.5168 88.739 17.6912 88.8962 17.878C89.0293 18.0337 89.1648 18.1894 89.301 18.3412C89.357 18.4043 89.4139 18.4666 89.4707 18.5288C89.9432 19.0426 90.4685 19.5052 91.0377 19.909C91.3126 20.1018 91.5985 20.2783 91.894 20.4376C92.271 20.6397 92.6638 20.8105 93.0687 20.9483C93.5412 21.1097 94.0274 21.2275 94.5213 21.3001C94.7883 21.3391 95.0561 21.3694 95.3255 21.3865C95.6507 21.4073 95.9768 21.4117 96.3024 21.3998C96.6216 21.3889 96.9392 21.3601 97.2568 21.3219C97.2654 21.3208 97.274 21.3208 97.2825 21.3219C97.2919 21.3266 97.302 21.3313 97.3121 21.3219C97.3386 21.3087 97.3688 21.3048 97.3977 21.311C97.4071 21.3196 97.4141 21.318 97.4203 21.311C97.4709 21.2963 97.5233 21.2887 97.576 21.2885C97.5866 21.29 97.5975 21.2884 97.6071 21.2838C97.6166 21.2783 97.627 21.2748 97.6379 21.2736C97.6488 21.2724 97.6598 21.2735 97.6702 21.2768C97.6772 21.2853 97.6834 21.2853 97.6881 21.2768C97.6967 21.2704 97.7067 21.2662 97.7172 21.2644C97.7278 21.2627 97.7386 21.2634 97.7488 21.2667C97.7592 21.2672 97.7696 21.2645 97.7784 21.2589C97.7855 21.2548 97.7934 21.2522 97.8016 21.2512C97.8097 21.2503 97.818 21.251 97.8259 21.2534C97.836 21.2543 97.8461 21.2518 97.8547 21.2464C97.8682 21.2374 97.8846 21.2338 97.9006 21.2363C97.9108 21.2394 97.9216 21.2394 97.9318 21.2363C97.9457 21.2276 97.9622 21.224 97.9785 21.2262C97.9881 21.2293 97.9984 21.2293 98.008 21.2262C98.0193 21.2196 98.0323 21.2163 98.0454 21.2168C98.0555 21.2184 98.0659 21.2168 98.075 21.2122C98.0885 21.2038 98.1044 21.2003 98.1201 21.202C98.1297 21.2037 98.1396 21.202 98.1482 21.1974C98.1594 21.1906 98.1726 21.1879 98.1855 21.1896C98.1951 21.1927 98.2055 21.1927 98.2151 21.1896C98.2262 21.1831 98.2389 21.1798 98.2517 21.1803C98.2611 21.183 98.2711 21.183 98.2805 21.1803C98.2914 21.1734 98.3042 21.1701 98.3171 21.1709C98.3262 21.1736 98.336 21.1736 98.3451 21.1709C98.3559 21.1644 98.3683 21.1611 98.3809 21.1616C98.3905 21.1624 98.4002 21.16 98.4082 21.1546C98.4188 21.1478 98.4315 21.145 98.444 21.1468C98.4531 21.1498 98.4629 21.1498 98.472 21.1468C98.4803 21.1414 98.4902 21.1389 98.5 21.1398C98.5112 21.1444 98.5238 21.1444 98.5351 21.1398C98.5416 21.135 98.5496 21.1328 98.5576 21.1335C98.5685 21.1335 98.5818 21.146 98.5911 21.1289C98.5944 21.1245 98.5988 21.1212 98.6039 21.1193C98.609 21.1173 98.6146 21.1169 98.6199 21.118C98.6316 21.118 98.644 21.132 98.6549 21.118C98.658 21.1135 98.6622 21.1101 98.6673 21.1082C98.6723 21.1062 98.6777 21.1058 98.683 21.1071C98.6915 21.1071 98.7009 21.118 98.7071 21.1071C98.7099 21.103 98.7138 21.0998 98.7183 21.0978C98.7229 21.0959 98.7279 21.0953 98.7328 21.0962C98.7423 21.0984 98.7519 21.1 98.7616 21.1009C98.7717 21.1 98.7816 21.0979 98.7912 21.0946C98.7985 21.0922 98.8061 21.0907 98.8137 21.09C98.827 21.0893 98.8402 21.0867 98.8527 21.0822L98.876 21.0767C98.8869 21.0744 98.8976 21.0713 98.9079 21.0674H98.9251C98.9567 21.0631 98.988 21.056 99.0185 21.0464L99.0527 21.0386C99.0667 21.0386 99.0808 21.0316 99.0948 21.0285L99.1275 21.0199L99.1781 21.0074C99.1952 21.0028 99.2123 20.9997 99.2294 20.9942C99.2409 20.9912 99.2527 20.9892 99.2645 20.988C99.2816 20.988 99.2987 20.9794 99.3158 20.9763C99.333 20.9732 99.3493 20.967 99.3664 20.9638L99.4007 20.9545C99.4326 20.9467 99.4638 20.9397 99.4949 20.9304L99.512 20.9249C99.5315 20.9195 99.5517 20.9132 99.572 20.9093L99.5976 20.9016C99.6426 20.8917 99.6871 20.8795 99.7308 20.865C99.7395 20.8622 99.7483 20.8598 99.7572 20.858C99.7811 20.8531 99.8045 20.8464 99.8273 20.8377C99.8732 20.8276 99.9168 20.8113 99.962 20.7996L99.9791 20.7941C100.006 20.7864 100.034 20.7809 100.057 20.7716C100.124 20.749 100.192 20.7311 100.258 20.7085L100.276 20.7023C100.45 20.647 100.623 20.5871 100.796 20.5302L100.813 20.524C100.833 20.5195 100.853 20.5124 100.871 20.503C100.895 20.4944 100.92 20.4866 100.944 20.4773L100.961 20.4719C100.98 20.4662 100.998 20.4589 101.016 20.4501C101.04 20.4415 101.066 20.4345 101.089 20.4236L101.13 20.4065C101.176 20.3901 101.22 20.3707 101.264 20.3535C101.288 20.3465 101.308 20.3348 101.33 20.3271C101.353 20.3193 101.384 20.3053 101.408 20.2951C101.422 20.2897 101.434 20.2842 101.448 20.2796L101.479 20.2671C101.507 20.2535 101.536 20.2413 101.565 20.2305C101.585 20.2212 101.607 20.2142 101.627 20.2056L101.643 20.1986C101.666 20.1893 101.688 20.1768 101.71 20.1659C101.726 20.161 101.741 20.1553 101.756 20.1488C101.779 20.1387 101.801 20.127 101.823 20.1161L101.846 20.1083L101.875 20.0974C101.889 20.0904 101.903 20.0834 101.917 20.0756C101.933 20.067 101.95 20.0594 101.968 20.053C101.971 20.0525 101.973 20.0526 101.976 20.0532C101.978 20.0539 101.981 20.0552 101.983 20.0569L101.998 20.0733C101.958 20.0954 101.923 20.1232 101.892 20.1558C101.666 20.3798 101.423 20.5862 101.166 20.7731C100.928 20.9459 100.681 21.1079 100.427 21.2565C100.418 21.262 100.407 21.2651 100.402 21.2752C100.398 21.2803 100.393 21.285 100.388 21.2892C100.376 21.2962 100.367 21.3095 100.35 21.3032L100.336 21.3134C100.324 21.3243 100.311 21.3337 100.297 21.3414C100.285 21.3492 100.275 21.3616 100.259 21.3562L100.245 21.3655C100.232 21.3764 100.219 21.3861 100.205 21.3943C100.197 21.4013 100.187 21.4037 100.18 21.4115C100.173 21.4192 100.16 21.4115 100.152 21.4208C100.132 21.4379 100.107 21.4449 100.087 21.4605C100.08 21.4691 100.067 21.4667 100.059 21.4737C100.051 21.4801 100.042 21.4861 100.033 21.4916C100.02 21.4916 100.01 21.5072 99.9954 21.501L99.9814 21.5111C99.925 21.545 99.8668 21.576 99.8071 21.6037C99.781 21.61 99.7566 21.6217 99.7354 21.638C99.6654 21.6761 99.5922 21.7088 99.5214 21.7462C99.512 21.7548 99.4972 21.7462 99.4887 21.7594C99.4817 21.768 99.4692 21.7657 99.4614 21.7734C99.4217 21.789 99.3836 21.8108 99.3447 21.8256C99.3376 21.8342 99.326 21.8318 99.3182 21.8396C99.2917 21.8466 99.2699 21.8684 99.2403 21.8669L99.2279 21.8754C99.2224 21.8871 99.2084 21.8848 99.2006 21.8918L99.1096 21.9307C99.0939 21.9403 99.0758 21.9452 99.0574 21.9447L99.0442 21.9525C99.0152 21.9695 98.9847 21.9839 98.9531 21.9953C98.9328 22.007 98.9087 22.0101 98.8877 22.0218C98.8667 22.0334 98.8425 22.0373 98.8215 22.0482C98.8013 22.0607 98.7772 22.0638 98.7561 22.0747C98.7281 22.0893 98.6974 22.0983 98.6658 22.1012L98.6526 22.1097C98.6347 22.1284 98.6075 22.1269 98.5872 22.1401C98.5855 22.1418 98.5835 22.1432 98.5813 22.1441C98.5791 22.145 98.5768 22.1455 98.5744 22.1455C98.572 22.1455 98.5696 22.145 98.5674 22.1441C98.5652 22.1432 98.5632 22.1418 98.5615 22.1401C98.5588 22.1395 98.5561 22.1399 98.5536 22.1412C98.5512 22.1425 98.5493 22.1446 98.5483 22.1471C98.5216 22.1661 98.4899 22.1769 98.4572 22.1782C98.4544 22.1781 98.4516 22.179 98.4493 22.1807C98.4471 22.1824 98.4455 22.1848 98.4448 22.1876C98.4377 22.1985 98.4292 22.1985 98.4191 22.1922C98.4163 22.1918 98.4134 22.1922 98.4109 22.1935C98.4084 22.1947 98.4063 22.1967 98.4051 22.1993C98.3588 22.2215 98.3109 22.2402 98.2618 22.2553C98.2583 22.2586 98.2538 22.2604 98.249 22.2604C98.2442 22.2604 98.2396 22.2586 98.2361 22.2553C98.2347 22.255 98.2332 22.2549 98.2318 22.2552C98.2303 22.2554 98.2289 22.256 98.2277 22.2568C98.2264 22.2576 98.2254 22.2586 98.2246 22.2598C98.2237 22.261 98.2232 22.2624 98.2229 22.2639C98.2215 22.266 98.2195 22.2677 98.2173 22.2688C98.2151 22.27 98.2126 22.2706 98.21 22.2706C98.2075 22.2706 98.205 22.27 98.2028 22.2688C98.2006 22.2677 98.1986 22.266 98.1972 22.2639C98.1942 22.2636 98.1913 22.2644 98.1889 22.2661C98.1864 22.2678 98.1847 22.2703 98.184 22.2732C98.1828 22.2754 98.1811 22.2773 98.179 22.2787C98.1769 22.2802 98.1746 22.2811 98.1721 22.2815C98.1696 22.2819 98.1671 22.2817 98.1647 22.2809C98.1623 22.2802 98.1601 22.2788 98.1583 22.2771C98.1513 22.2771 98.1466 22.2771 98.145 22.2864C98.1435 22.2958 98.1295 22.2966 98.1194 22.2864C98.1165 22.286 98.1135 22.2866 98.1111 22.2882C98.1086 22.2897 98.1069 22.2922 98.1061 22.295C98.0991 22.3059 98.0906 22.3059 98.0804 22.295C98.0775 22.2947 98.0745 22.2955 98.0721 22.2972C98.0697 22.2989 98.0679 22.3015 98.0672 22.3043C98.0602 22.3152 98.0516 22.3145 98.0415 22.3082C98.0386 22.308 98.0356 22.3087 98.0332 22.3105C98.0307 22.3122 98.029 22.3147 98.0283 22.3176C98.0213 22.3277 98.0127 22.3277 98.0026 22.3176C97.9998 22.3171 97.9969 22.3176 97.9945 22.319C97.9921 22.3204 97.9902 22.3227 97.9894 22.3254C97.9403 22.3487 97.8877 22.3634 97.8337 22.369C97.8307 22.3688 97.8278 22.3697 97.8255 22.3714C97.8231 22.3731 97.8213 22.3755 97.8204 22.3783C97.8193 22.3805 97.8177 22.3824 97.8157 22.3838C97.8137 22.3853 97.8114 22.3862 97.809 22.3866C97.8065 22.387 97.8041 22.3868 97.8017 22.386C97.7994 22.3852 97.7973 22.3839 97.7955 22.3822C97.7926 22.3816 97.7897 22.3821 97.7871 22.3835C97.7845 22.385 97.7826 22.3872 97.7815 22.39C97.7543 22.4094 97.7192 22.4063 97.6904 22.4203C97.687 22.4236 97.6824 22.4255 97.6776 22.4255C97.6728 22.4255 97.6682 22.4236 97.6647 22.4203C97.6596 22.4192 97.6542 22.4196 97.6493 22.4214C97.6443 22.4232 97.64 22.4263 97.6367 22.4305C97.6173 22.4406 97.5986 22.4561 97.5737 22.446C97.5709 22.4458 97.5682 22.4464 97.5658 22.4478C97.5634 22.4492 97.5616 22.4513 97.5604 22.4538C97.5377 22.4693 97.5099 22.4757 97.4826 22.4717C97.4776 22.4707 97.4723 22.4712 97.4675 22.473C97.4627 22.4748 97.4585 22.4778 97.4553 22.4818C97.4491 22.4927 97.4405 22.4912 97.432 22.4818C97.429 22.4811 97.4258 22.4816 97.4232 22.4832C97.4206 22.4848 97.4187 22.4874 97.418 22.4904C97.4169 22.4926 97.4152 22.4945 97.4132 22.4959C97.4112 22.4974 97.4089 22.4983 97.4065 22.4987C97.4041 22.4991 97.4016 22.4989 97.3993 22.4981C97.3969 22.4973 97.3948 22.496 97.3931 22.4943C97.3879 22.4929 97.3825 22.4931 97.3774 22.4949C97.3724 22.4967 97.3681 22.5 97.365 22.5044C97.358 22.5145 97.3495 22.5138 97.3409 22.5044C97.3358 22.5035 97.3304 22.5039 97.3255 22.5057C97.3206 22.5075 97.3162 22.5105 97.3129 22.5145C97.3066 22.5254 97.2981 22.5239 97.2895 22.5145C97.2867 22.5139 97.2838 22.5143 97.2813 22.5156C97.2787 22.5168 97.2767 22.5189 97.2755 22.5215C97.2646 22.5379 97.2514 22.5324 97.2374 22.527C97.2234 22.5215 97.2257 22.527 97.2241 22.5363C97.2226 22.5457 97.2039 22.5441 97.193 22.5457C97.1849 22.5481 97.1773 22.5517 97.1704 22.5566C97.1664 22.5579 97.1621 22.5583 97.1579 22.5576C97.1537 22.5569 97.1497 22.5552 97.1463 22.5527C97.1412 22.5514 97.1358 22.5517 97.1309 22.5537C97.126 22.5556 97.1218 22.5591 97.119 22.5636C97.1113 22.5729 97.1035 22.5721 97.0941 22.5636C97.089 22.5626 97.0837 22.5631 97.0789 22.565C97.0741 22.567 97.0699 22.5702 97.0669 22.5745C97.0655 22.5764 97.0637 22.578 97.0616 22.5791C97.0595 22.5801 97.0572 22.5807 97.0548 22.5807C97.0525 22.5807 97.0501 22.5801 97.048 22.5791C97.0459 22.578 97.0441 22.5764 97.0428 22.5745C97.0378 22.5731 97.0325 22.5731 97.0275 22.5747C97.0225 22.5762 97.0181 22.5791 97.0147 22.583C96.9889 22.6004 96.9573 22.6068 96.9268 22.6009C96.9237 22.6005 96.9205 22.6012 96.9179 22.6029C96.9153 22.6046 96.9135 22.6073 96.9128 22.6103C96.9011 22.6235 96.8878 22.6204 96.8738 22.6103C96.8687 22.6093 96.8634 22.6098 96.8586 22.6117C96.8538 22.6137 96.8496 22.617 96.8466 22.6212C96.8451 22.623 96.8433 22.6244 96.8412 22.6254C96.8391 22.6264 96.8368 22.6269 96.8345 22.6269C96.8322 22.6269 96.8299 22.6264 96.8278 22.6254C96.8257 22.6244 96.8239 22.623 96.8224 22.6212C96.8174 22.6197 96.812 22.6197 96.807 22.6214C96.8019 22.6231 96.7976 22.6263 96.7944 22.6305C96.7843 22.6453 96.7718 22.6391 96.7594 22.6352C96.7541 22.6333 96.7484 22.6332 96.743 22.6349C96.7377 22.6366 96.7331 22.64 96.7298 22.6445C96.7284 22.6463 96.7265 22.6478 96.7244 22.6488C96.7223 22.6497 96.7201 22.6503 96.7177 22.6503C96.7154 22.6503 96.7132 22.6497 96.7111 22.6488C96.709 22.6478 96.7071 22.6463 96.7057 22.6445C96.7006 22.6432 96.6953 22.6434 96.6903 22.6451C96.6853 22.6467 96.6809 22.6498 96.6777 22.6539C96.6683 22.6687 96.6551 22.6624 96.6426 22.6593C96.6375 22.6572 96.6318 22.657 96.6265 22.6587C96.6212 22.6604 96.6167 22.6639 96.6138 22.6687C96.6053 22.6803 96.592 22.6741 96.5811 22.6764L96.5484 22.6873C96.5447 22.6893 96.5406 22.6903 96.5364 22.6903C96.5322 22.6903 96.528 22.6893 96.5243 22.6873C96.5192 22.6858 96.5138 22.6859 96.5088 22.6876C96.5038 22.6893 96.4994 22.6924 96.4963 22.6967C96.4854 22.7115 96.4721 22.7068 96.4589 22.6967C96.4539 22.6956 96.4486 22.696 96.4438 22.6978C96.439 22.6996 96.4348 22.7027 96.4317 22.7068C96.4208 22.7216 96.4075 22.7169 96.3943 22.7068C96.3811 22.6967 96.3733 22.7068 96.3671 22.7161C96.3608 22.7255 96.3375 22.7224 96.3235 22.7263L96.2876 22.7372C96.2783 22.7379 96.269 22.7379 96.2596 22.7372C96.2355 22.7372 96.2129 22.759 96.1872 22.7442C96.1724 22.7442 96.1576 22.7403 96.1467 22.7551C96.1358 22.7699 96.1296 22.7629 96.1195 22.7629C96.0917 22.7725 96.0625 22.7773 96.0331 22.7769C96.0113 22.7823 95.9903 22.7956 95.9661 22.7839H95.9132L95.5575 22.7286C95.5468 22.7278 95.5362 22.7278 95.5255 22.7286C95.4443 22.7285 95.3634 22.7178 95.285 22.6967C94.9327 22.6343 94.5838 22.5543 94.2395 22.4569C94.0161 22.3939 93.7958 22.3199 93.5763 22.246C93.1861 22.1027 92.8057 21.9342 92.4374 21.7415C92.249 21.6419 92.0598 21.5438 91.8738 21.4395C91.8357 21.4138 91.7913 21.399 91.7531 21.3733C91.715 21.3476 91.6753 21.3328 91.6364 21.3079C91.5974 21.283 91.5694 21.2807 91.5476 21.2488C91.524 21.2295 91.4978 21.2135 91.4698 21.2013C91.4643 21.2052 91.4612 21.2013 91.4597 21.2013C91.4363 21.1816 91.41 21.1655 91.3818 21.1538C91.3764 21.1538 91.3725 21.1538 91.3717 21.1538C91.3667 21.1462 91.3599 21.1399 91.3519 21.1356C91.3438 21.1312 91.3349 21.1289 91.3258 21.1289C91.2962 21.1125 91.2619 21.1055 91.2409 21.0767C91.2174 21.0567 91.1912 21.0402 91.1631 21.0277C91.143 21.0268 91.124 21.0181 91.1101 21.0035C91.0922 20.9841 91.0595 20.9872 91.0479 20.9599C91.0243 20.9401 90.9981 20.9235 90.97 20.9109C90.963 20.9112 90.9559 20.9099 90.9495 20.907C90.943 20.9042 90.9372 20.8999 90.9326 20.8946C90.9116 20.8774 90.882 20.8743 90.8673 20.8494C90.8642 20.8447 90.8602 20.8407 90.8555 20.8376C90.8508 20.8345 90.8455 20.8324 90.84 20.8315C90.8338 20.8315 90.8299 20.8315 90.8283 20.8237C90.8213 20.8149 90.8114 20.8088 90.8003 20.8066C90.7956 20.8066 90.7917 20.8066 90.7902 20.8066C90.7302 20.761 90.6673 20.7194 90.6018 20.682C90.1679 20.407 89.7465 20.1143 89.3376 19.8039C89.0091 19.5556 88.6899 19.2964 88.3824 19.0255C88.2516 18.9095 88.1209 18.7919 87.9932 18.6721C87.8562 18.5382 87.7192 18.4035 87.5837 18.2673C87.3198 18.0018 87.0731 17.7223 86.8356 17.4312C86.5689 17.1073 86.3194 16.7695 86.0883 16.4192C85.9243 16.1685 85.7707 15.9114 85.6275 15.6478C85.5102 15.4298 85.3994 15.2082 85.2951 14.983C85.2904 14.9728 85.2834 14.9651 85.2779 14.9557C85.2228 14.8479 85.1734 14.7372 85.13 14.6241C85.1172 14.602 85.1077 14.5781 85.102 14.5532C85.0997 14.5443 85.0958 14.5358 85.0903 14.5283C85.0739 14.4929 85.0603 14.4562 85.0498 14.4186C85.0343 14.3929 85.0304 14.3617 85.014 14.3407C85.0119 14.332 85.0093 14.3235 85.0063 14.315C84.9975 14.2859 84.9863 14.2575 84.9728 14.2302C84.9523 14.1775 84.9366 14.123 84.9261 14.0675C84.9261 14.0605 84.9261 14.0558 84.9191 14.0535C84.9121 14.0511 84.9066 14.0395 84.9121 14.0293C84.9128 14.028 84.9133 14.0265 84.9134 14.0249C84.9135 14.0234 84.9132 14.0218 84.9126 14.0204C84.912 14.019 84.9111 14.0177 84.9099 14.0167C84.9087 14.0157 84.9073 14.015 84.9058 14.0146C84.8934 14.0091 84.8942 14.0005 84.8988 13.9904C84.8996 13.9891 84.9 13.9876 84.9001 13.986C84.9002 13.9845 84.9 13.9829 84.8994 13.9815C84.8987 13.9801 84.8978 13.9788 84.8967 13.9778C84.8955 13.9768 84.8941 13.976 84.8926 13.9756C84.8801 13.9702 84.8809 13.9616 84.8864 13.9515C84.8874 13.9487 84.8874 13.9456 84.8862 13.9429C84.885 13.9401 84.8829 13.9379 84.8801 13.9367C84.8677 13.9313 84.8677 13.9227 84.8731 13.9126C84.8786 13.9025 84.8731 13.9009 84.8661 13.8986C84.8623 13.8964 84.8593 13.8932 84.8574 13.8893C84.8554 13.8854 84.8547 13.8811 84.8552 13.8768C84.8538 13.8712 84.8519 13.8657 84.8498 13.8604C84.8462 13.8524 84.8434 13.844 84.8412 13.8355C84.8132 13.7577 84.7968 13.6798 84.768 13.602C84.7642 13.5911 84.768 13.5786 84.761 13.5669C84.754 13.5553 84.7556 13.5506 84.7525 13.5428C84.7525 13.5195 84.7369 13.5008 84.7354 13.4774C84.7354 13.4696 84.7307 13.4619 84.7276 13.4541C84.7258 13.4503 84.7249 13.4462 84.7249 13.442C84.7249 13.4378 84.7258 13.4337 84.7276 13.4299C84.7288 13.4247 84.7286 13.4193 84.727 13.4142C84.7253 13.4091 84.7223 13.4046 84.7182 13.4011C84.7136 13.4011 84.7112 13.4011 84.712 13.3949C84.7128 13.3887 84.712 13.3902 84.7159 13.3902L84.74 13.3365Z" fill="white"/>
<path d="M103.916 5.4671C104.011 5.55441 104.1 5.64832 104.182 5.74812C104.37 5.95909 104.547 6.17939 104.716 6.40592C104.967 6.74372 105.196 7.09678 105.403 7.46306C105.501 7.63355 105.594 7.80637 105.681 7.9823C105.887 8.40248 106.069 8.8345 106.225 9.27609C106.375 9.7053 106.503 10.1421 106.607 10.5847C106.697 10.9677 106.773 11.3541 106.833 11.7438C106.875 12.0116 106.911 12.2802 106.939 12.5495C106.953 12.6997 106.966 12.8492 106.977 12.9995C106.984 13.0859 106.984 13.1715 106.989 13.2579C107.003 13.3093 106.982 13.363 107 13.4136V14.3073C106.983 14.354 107 14.4038 106.989 14.4513C106.989 14.5501 106.984 14.649 106.974 14.7479C106.958 14.9386 106.939 15.1285 106.913 15.3185C106.887 15.5084 106.856 15.7015 106.819 15.8914C106.74 16.3015 106.631 16.7055 106.495 17.1004C106.375 17.4468 106.232 17.7849 106.067 18.1124C105.844 18.5505 105.582 18.9673 105.284 19.3579C105.027 19.6909 104.745 20.0032 104.44 20.292C104.021 20.6881 103.563 21.0405 103.073 21.3437C102.756 21.5409 102.428 21.719 102.089 21.877C101.573 22.1178 101.038 22.3157 100.49 22.4686C100.126 22.5724 99.7591 22.6554 99.3875 22.7177C99.128 22.7623 98.8703 22.7989 98.6145 22.8275C98.4518 22.8462 98.2883 22.8571 98.1248 22.868C97.9964 22.8765 97.8664 22.8788 97.7356 22.8866C97.5262 22.8983 97.3168 22.8944 97.1082 22.8913C96.9618 22.8913 96.8155 22.8851 96.6691 22.8734L96.3982 22.8563C96.2635 22.8462 96.1289 22.8306 95.9934 22.8174C95.97 22.8057 95.9747 22.794 95.9934 22.7831C96.0121 22.7722 96.037 22.7769 96.058 22.7691C96.079 22.7613 96.1133 22.7644 96.1359 22.7559C96.1439 22.7551 96.152 22.7551 96.16 22.7559C96.1654 22.7559 96.1693 22.7668 96.1756 22.7559C96.1818 22.745 96.1654 22.7512 96.167 22.7442C96.1686 22.7372 96.1903 22.7278 96.2051 22.7286C96.2305 22.7366 96.2577 22.7366 96.283 22.7286C96.3001 22.7286 96.3172 22.7239 96.3344 22.7185C96.3515 22.713 96.3717 22.7224 96.3865 22.7053C96.3893 22.7008 96.3935 22.6973 96.3984 22.6954C96.4033 22.6934 96.4087 22.6931 96.4138 22.6944C96.4262 22.6944 96.4402 22.7123 96.4519 22.6944C96.4553 22.6901 96.4598 22.687 96.4649 22.6852C96.47 22.6834 96.4754 22.6831 96.4807 22.6842C96.4924 22.6842 96.5048 22.6982 96.5157 22.6842C96.519 22.6801 96.5233 22.6769 96.5283 22.675C96.5332 22.673 96.5386 22.6725 96.5438 22.6733C96.5615 22.6788 96.5805 22.6788 96.5983 22.6733C96.6092 22.6679 96.6263 22.678 96.6325 22.6601C96.6356 22.6555 96.64 22.652 96.6451 22.6499C96.6503 22.6478 96.6559 22.6473 96.6613 22.6484C96.673 22.6484 96.6862 22.6624 96.6971 22.6484C96.7001 22.644 96.7044 22.6406 96.7094 22.6386C96.7144 22.6367 96.7199 22.6363 96.7251 22.6375C96.7337 22.6375 96.7431 22.6476 96.7501 22.6375C96.7535 22.6334 96.758 22.6303 96.7631 22.6286C96.7682 22.627 96.7737 22.6268 96.7789 22.6282C96.7905 22.6282 96.803 22.6422 96.8139 22.6282C96.8171 22.624 96.8214 22.6208 96.8264 22.619C96.8314 22.6172 96.8368 22.6168 96.8419 22.6181C96.8497 22.6181 96.859 22.6282 96.866 22.6181C96.8689 22.614 96.8728 22.6109 96.8773 22.609C96.8819 22.607 96.8869 22.6064 96.8917 22.6072C96.9038 22.6104 96.9167 22.6087 96.9275 22.6025C96.9348 22.5982 96.9432 22.596 96.9517 22.5963C96.9786 22.5994 97.0059 22.594 97.0295 22.5807C97.0326 22.5761 97.037 22.5726 97.0422 22.5705C97.0473 22.5684 97.0529 22.5679 97.0583 22.569C97.0669 22.569 97.0762 22.5791 97.0832 22.569C97.0865 22.5649 97.0909 22.5619 97.0959 22.5602C97.1008 22.5586 97.1062 22.5584 97.1113 22.5597C97.119 22.5597 97.1292 22.569 97.1354 22.5558C97.1386 22.5518 97.1428 22.5487 97.1476 22.5469C97.1524 22.5451 97.1576 22.5447 97.1626 22.5457C97.1749 22.5487 97.1877 22.5487 97.2 22.5457C97.212 22.5426 97.2234 22.5373 97.2335 22.5301C97.2399 22.5255 97.2474 22.5225 97.2553 22.5215C97.2652 22.5229 97.2753 22.521 97.2841 22.5161C97.2911 22.5118 97.2992 22.5096 97.3074 22.5099C97.3152 22.5099 97.3253 22.5192 97.33 22.5044C97.3329 22.5003 97.337 22.4972 97.3417 22.4954C97.3464 22.4936 97.3516 22.4932 97.3565 22.4943C97.365 22.4943 97.3736 22.5029 97.3806 22.4943C97.3831 22.4904 97.3866 22.4873 97.3907 22.4853C97.3948 22.4832 97.3994 22.4823 97.404 22.4826C97.4133 22.4838 97.4228 22.4822 97.4312 22.4779C97.4374 22.4745 97.4444 22.4729 97.4514 22.4733C97.46 22.4733 97.4686 22.4733 97.4732 22.4655C97.477 22.4619 97.4816 22.4592 97.4866 22.4577C97.4916 22.4562 97.4969 22.4559 97.5021 22.4569C97.5136 22.4591 97.5254 22.4588 97.5368 22.4561C97.5482 22.4534 97.5589 22.4484 97.5682 22.4414C97.5752 22.4366 97.5832 22.4336 97.5916 22.4328C97.6126 22.4328 97.6344 22.4328 97.6515 22.4188C97.654 22.4144 97.6576 22.4107 97.662 22.4082C97.6664 22.4058 97.6714 22.4046 97.6764 22.4048C97.6867 22.4063 97.6972 22.4063 97.7076 22.4048L97.7231 22.4009C97.7445 22.3978 97.7651 22.3906 97.7839 22.3799C97.7906 22.3756 97.7979 22.3725 97.8056 22.3705C97.8158 22.3693 97.8256 22.3661 97.8344 22.3612C97.8416 22.3574 97.8497 22.3555 97.8578 22.3557C97.9036 22.3501 97.9481 22.3367 97.9894 22.316C97.9959 22.3117 98.0029 22.3083 98.0104 22.3059C98.0198 22.3051 98.029 22.3028 98.0376 22.2989C98.0435 22.2951 98.0501 22.2927 98.0571 22.2919C98.0638 22.2905 98.0703 22.2884 98.0766 22.2857C98.0823 22.2822 98.0886 22.2798 98.0952 22.2787C98.1022 22.278 98.1091 22.2762 98.1155 22.2732C98.1209 22.269 98.1274 22.2664 98.1342 22.2654C98.1412 22.2648 98.148 22.263 98.1544 22.26C98.1599 22.2561 98.1663 22.2536 98.1731 22.253C98.1799 22.2525 98.1865 22.2506 98.1925 22.2475C98.1984 22.2435 98.205 22.2408 98.212 22.2397C98.2188 22.2391 98.2254 22.2373 98.2315 22.2343C98.2375 22.2308 98.2441 22.2284 98.2509 22.2273C98.2602 22.2288 98.2697 22.2288 98.2789 22.2273L98.2945 22.2218C98.3332 22.2116 98.3705 22.197 98.4058 22.1782C98.4122 22.1734 98.4193 22.1697 98.4269 22.1673C98.4369 22.1664 98.4467 22.1635 98.4557 22.1588C98.4623 22.1542 98.4702 22.1517 98.4782 22.1518C98.5035 22.1502 98.5278 22.1416 98.5483 22.1269C98.5546 22.1218 98.5617 22.1178 98.5693 22.1152C98.5797 22.1159 98.5901 22.1159 98.6005 22.1152L98.6152 22.1105C98.6306 22.1061 98.6448 22.0987 98.6573 22.0887C98.6636 22.0832 98.6715 22.0797 98.6799 22.0786C98.7071 22.0762 98.7336 22.0683 98.7577 22.0552L98.7725 22.049C98.7906 22.0444 98.8081 22.0376 98.8246 22.0288L98.8394 22.0225C98.8574 22.0181 98.8747 22.0113 98.8908 22.0023L98.9056 21.9961C98.9234 21.9913 98.9407 21.9845 98.957 21.9758L98.9726 21.9688C98.9983 21.9624 99.0224 21.9507 99.0434 21.9346C99.0499 21.9291 99.0576 21.9254 99.066 21.9237C99.082 21.923 99.0977 21.9188 99.1119 21.9112L99.1267 21.905C99.1498 21.8976 99.1722 21.8882 99.1936 21.877L99.2069 21.87C99.2159 21.8654 99.2243 21.8597 99.2318 21.8528C99.2384 21.8481 99.2462 21.8451 99.2544 21.8443C99.2748 21.8418 99.2945 21.8349 99.312 21.824L99.3268 21.8163L99.3501 21.8061C99.3551 21.8033 99.3603 21.801 99.3657 21.7991C99.3952 21.7884 99.4238 21.7754 99.4513 21.7602L99.4669 21.7532L99.4887 21.7431L99.5035 21.7369L99.5276 21.7275C99.5987 21.6958 99.6676 21.6594 99.7339 21.6185C99.7564 21.5993 99.783 21.5855 99.8117 21.578C99.8677 21.5613 99.9204 21.5349 99.9674 21.5002C99.9735 21.4945 99.9806 21.49 99.9884 21.487C100.001 21.4868 100.013 21.4847 100.025 21.4807C100.034 21.4766 100.042 21.4716 100.049 21.4659C100.053 21.4627 100.057 21.4598 100.062 21.4574L100.082 21.4465L100.096 21.4387C100.111 21.4314 100.125 21.4228 100.139 21.413L100.153 21.4052C100.163 21.402 100.172 21.3981 100.181 21.3936L100.193 21.3858L100.206 21.3772C100.216 21.3712 100.226 21.3633 100.234 21.3539C100.239 21.3483 100.246 21.3445 100.254 21.343C100.264 21.3425 100.273 21.3395 100.282 21.3344C100.286 21.3314 100.29 21.3288 100.295 21.3266C100.306 21.3201 100.316 21.312 100.324 21.3025C100.329 21.2968 100.336 21.2929 100.344 21.2916C100.355 21.2904 100.365 21.2863 100.373 21.2799L100.384 21.2674L100.396 21.2542C100.54 21.16 100.688 21.0713 100.833 20.9763C101.215 20.7272 101.571 20.4403 101.895 20.12C101.925 20.0921 101.959 20.0688 101.995 20.0507C102.497 19.8124 102.98 19.5355 103.439 19.2224C103.733 19.018 104.014 18.7943 104.279 18.553C104.677 18.1912 105.028 17.7805 105.324 17.3308C105.715 16.7328 105.994 16.0686 106.148 15.3706C106.218 15.0504 106.265 14.7254 106.289 14.3983C106.311 14.1228 106.315 13.8461 106.302 13.5701C106.262 12.7801 106.127 11.9978 105.9 11.2401C105.722 10.612 105.501 9.99711 105.238 9.39987C105.155 9.22222 105.083 9.04032 105.02 8.85495C104.823 8.26643 104.629 7.67792 104.437 7.08941C104.268 6.5694 104.096 6.05094 103.915 5.53249C103.908 5.51225 103.893 5.4889 103.916 5.4671Z" fill="white"/>
<path d="M84.378 15.099C84.3816 15.0964 84.3845 15.0932 84.3866 15.0894C84.3888 15.0856 84.3901 15.0815 84.3905 15.0772C84.3991 14.9635 84.4053 14.8498 84.4185 14.737C84.4357 14.5813 84.4574 14.4256 84.487 14.2699C84.5306 14.0364 84.5859 13.8122 84.6497 13.5864C84.6714 13.5011 84.6974 13.4169 84.7276 13.3342C84.7298 13.3325 84.7326 13.3317 84.7354 13.3317C84.7382 13.3317 84.7409 13.3325 84.7431 13.3342C84.7463 13.3386 84.7485 13.3438 84.7494 13.3491C84.7503 13.3545 84.7501 13.3601 84.7486 13.3653C84.754 13.3708 84.7229 13.3809 84.7486 13.384C84.7525 13.3876 84.7555 13.3921 84.7571 13.3972C84.7587 13.4022 84.759 13.4076 84.7579 13.4128C84.7552 13.4262 84.7552 13.4399 84.7579 13.4533C84.7719 13.4946 84.7821 13.5358 84.793 13.5779C84.8194 13.6643 84.8436 13.7514 84.8708 13.8371C84.8744 13.8477 84.8797 13.8577 84.8864 13.8667C84.8913 13.8728 84.8947 13.88 84.8965 13.8877C84.8976 13.8949 84.8994 13.9019 84.9019 13.9087C84.906 13.9145 84.9086 13.9212 84.9097 13.9282C84.9103 13.9352 84.9122 13.942 84.9152 13.9484C84.9192 13.9542 84.9219 13.9609 84.923 13.9679C84.9235 13.975 84.9256 13.9819 84.9292 13.9881C84.9328 13.9943 84.9352 14.0012 84.9362 14.0083C84.9381 14.0158 84.9407 14.0231 84.944 14.0301C84.9478 14.0373 84.9497 14.0454 84.9494 14.0535C84.958 14.1074 84.9742 14.1599 84.9977 14.2092C85.0078 14.2395 85.0172 14.2707 85.0296 14.3003L85.0366 14.3166C85.0462 14.3447 85.0573 14.3723 85.0701 14.3991C85.0836 14.443 85.1008 14.4857 85.1215 14.5268C85.1731 14.6676 85.2335 14.8052 85.3021 14.9386C85.334 14.9588 85.3379 14.9962 85.3527 15.0273C85.6023 15.5543 85.8911 16.0617 86.2168 16.5453C86.4508 16.8878 86.7012 17.2179 86.968 17.5355C87.1501 17.7543 87.3393 17.9676 87.537 18.1723C87.6483 18.2883 87.7706 18.3988 87.8819 18.5133C88.2081 18.8387 88.5552 19.136 88.911 19.4303C89.4196 19.8418 89.9494 20.2264 90.4983 20.5824C90.5995 20.6494 90.7061 20.707 90.8011 20.7817C90.8058 20.7871 90.8011 20.8089 90.819 20.7949C90.8255 20.7955 90.8316 20.7979 90.8368 20.8019C90.8419 20.8059 90.8457 20.8113 90.8478 20.8175C90.8478 20.8346 90.8548 20.8229 90.8603 20.8175C90.8737 20.8209 90.8854 20.8292 90.893 20.8409C90.9055 20.8552 90.9212 20.8664 90.9389 20.8736L90.9529 20.8821C90.964 20.8894 90.977 20.8935 90.9903 20.8938C91.0208 20.9018 91.048 20.9192 91.0681 20.9436C91.0767 20.9662 91.1 20.9709 91.1179 20.9825C91.1366 20.9988 91.1601 21.0084 91.1849 21.0098C91.2153 21.0181 91.2424 21.0355 91.2627 21.0596C91.2791 21.0907 91.3102 21.0962 91.3406 21.1055C91.3601 21.1082 91.3779 21.1182 91.3904 21.1336C91.3904 21.1616 91.4052 21.1336 91.4098 21.1413C91.4374 21.149 91.4623 21.1644 91.4815 21.1857C91.4768 21.213 91.4947 21.1857 91.4994 21.1927C91.5298 21.2006 91.557 21.2177 91.5772 21.2418C91.5928 21.2737 91.6286 21.2768 91.6551 21.2939C91.692 21.3185 91.7308 21.3401 91.7711 21.3585C91.8095 21.3831 91.8496 21.4052 91.8909 21.4247C91.9882 21.4846 92.091 21.536 92.1914 21.5897C92.6411 21.8409 93.1095 22.0566 93.5926 22.2351C94.1213 22.4257 94.6646 22.5725 95.2173 22.6741C95.3247 22.6944 95.4329 22.7123 95.5419 22.7278C95.6517 22.7465 95.7622 22.7582 95.872 22.7745C95.893 22.7745 95.9218 22.7691 95.9265 22.8041C95.8513 22.8218 95.7751 22.8348 95.6984 22.843C95.5816 22.8602 95.4648 22.8765 95.3473 22.8913C95.2515 22.903 95.155 22.9116 95.0585 22.9217C94.937 22.9333 94.8148 22.9474 94.6934 22.9567C94.6202 22.9622 94.547 22.9676 94.4739 22.9707L93.9507 22.9894C93.7865 22.9964 93.623 22.9995 93.4595 22.9956C93.3085 22.9956 93.1575 22.9902 93.0072 22.9832C92.8718 22.9769 92.7371 22.9668 92.6017 22.9575C92.4218 22.945 92.242 22.9287 92.063 22.9053C91.2432 22.8057 90.4421 22.5878 89.6848 22.2584C89.4629 22.1627 89.2465 22.0552 89.0332 21.9424C88.8199 21.8295 88.6128 21.7042 88.4105 21.571C88.2283 21.4519 88.0492 21.3282 87.8764 21.1958C87.7441 21.0954 87.6149 20.9919 87.4872 20.8845C87.337 20.7552 87.1929 20.6182 87.0466 20.4851C86.9002 20.352 86.7804 20.2204 86.6574 20.0834C86.3724 19.7747 86.1074 19.4481 85.8641 19.1057C85.647 18.7998 85.4457 18.4831 85.2608 18.1567C85.1402 17.945 85.0273 17.7301 84.9199 17.5106C84.8059 17.2784 84.7069 17.0392 84.6233 16.7944C84.5463 16.5591 84.487 16.3185 84.4458 16.0744C84.4263 15.956 84.417 15.8362 84.4037 15.7163C84.3889 15.6478 84.3882 15.5777 84.378 15.5092V15.099Z" fill="white"/>
<path d="M89.0465 2.80245C89.0831 2.75202 89.1284 2.70852 89.1803 2.674C89.294 2.57514 89.4139 2.47939 89.5275 2.38519C89.7782 2.18435 90.0405 1.99596 90.306 1.82315C90.5621 1.65578 90.8268 1.50242 91.0969 1.35607C91.2661 1.26473 91.4374 1.17781 91.6107 1.09529C91.9049 0.956724 92.2039 0.828278 92.5075 0.712288C92.7169 0.634442 92.9278 0.556596 93.1404 0.485756C93.4416 0.387671 93.7444 0.298148 94.0512 0.217967C94.203 0.178266 94.3548 0.140122 94.5097 0.111319C94.6233 0.0903004 94.7385 0.075511 94.8537 0.0614988C94.9814 0.0451512 95.1099 0.0326941 95.2383 0.025688C95.3197 0.0167307 95.4016 0.0120541 95.4835 0.0116764C95.5555 0.00597079 95.6277 0.00415118 95.6999 0.00622661C95.7232 0.0100413 95.747 0.00789965 95.7692 0H95.9249C95.9965 0.00751694 96.0686 0.00959774 96.1405 0.00622661C96.164 0.00412794 96.1877 0.00597027 96.2106 0.0116764C96.3227 0.0116764 96.434 0.0217964 96.5461 0.0288025C96.6582 0.0358086 96.7851 0.0482642 96.905 0.0607195C97.0249 0.0731749 97.1572 0.0879661 97.2825 0.105092C97.4953 0.134155 97.707 0.169704 97.9177 0.21174C98.1684 0.26234 98.4175 0.319947 98.6643 0.390008C98.9352 0.467853 99.2038 0.555039 99.4677 0.656239C99.7864 0.780679 100.098 0.922041 100.402 1.07972C100.619 1.19104 100.829 1.31326 101.036 1.4417C101.252 1.57788 101.46 1.72656 101.659 1.88698C101.737 1.95081 101.815 2.02321 101.893 2.08938C101.97 2.15555 102.059 2.24507 102.139 2.32292C102.357 2.54393 102.555 2.78357 102.73 3.0391C102.908 3.29638 103.068 3.56501 103.21 3.84324C103.361 4.13672 103.495 4.43721 103.622 4.74236C103.704 4.94061 103.782 5.14119 103.855 5.34411C103.858 5.354 103.861 5.36415 103.863 5.37447C103.826 5.37992 103.809 5.35034 103.785 5.3301C103.648 5.19931 103.516 5.06308 103.377 4.93308C103.042 4.62009 102.688 4.32814 102.317 4.05888C101.854 3.72599 101.367 3.4278 100.86 3.16676C100.066 2.75674 99.2313 2.43137 98.3693 2.19603C97.7071 2.01266 97.0321 1.87943 96.3499 1.79746C96.0915 1.76632 95.8315 1.7453 95.5715 1.72662C95.0211 1.68692 94.4707 1.70171 93.9212 1.70638C93.6323 1.70638 93.3435 1.72895 93.0555 1.75231C92.6492 1.785 92.2436 1.83015 91.8411 1.89554C91.0674 2.01578 90.3126 2.23557 89.5953 2.54945C89.4481 2.61206 89.3044 2.68248 89.1648 2.76041C89.1297 2.78298 89.0947 2.81646 89.0465 2.80245Z" fill="white"/>
<path d="M86.6815 4.77505C86.7407 4.70733 86.8092 4.63026 86.8925 4.54151C87.0567 4.36403 87.1883 4.2348 87.2506 4.17408C87.7386 3.69119 88.283 3.26882 88.8721 2.9161C88.8807 2.90964 88.8909 2.90561 88.9017 2.90442C88.8098 2.99783 88.7179 3.09281 88.6245 3.18466C88.3742 3.43706 88.1402 3.70513 87.9239 3.98725C87.4471 4.60376 87.0544 5.281 86.7562 6.00112C86.6628 6.22609 86.5772 6.4534 86.5009 6.68539C86.387 7.03305 86.2924 7.38675 86.2175 7.74486C86.1623 8.00565 86.1171 8.26876 86.0813 8.53266C86.0618 8.66889 86.0486 8.8059 86.0354 8.94291C86.0206 9.0986 86.0097 9.25429 85.9996 9.40531C85.9786 9.73538 85.9863 10.0654 85.9871 10.3947C86.0106 10.5296 85.9828 10.6684 85.9093 10.784C85.7287 11.1031 85.5667 11.4324 85.4095 11.7633C85.2523 12.0941 85.1129 12.4055 84.9837 12.7348C84.9136 12.913 84.8475 13.0936 84.786 13.275C84.7782 13.2992 84.7805 13.3334 84.7416 13.3365H84.7307C84.635 12.9721 84.5601 12.6025 84.5065 12.2296C84.48 12.0417 84.4585 11.8538 84.4419 11.666C84.4302 11.5305 84.424 11.3951 84.4154 11.2604C84.3967 10.9778 84.3998 10.6952 84.4092 10.4126C84.4177 10.1659 84.4388 9.91988 84.466 9.67388C84.506 9.31664 84.5644 8.9617 84.6412 8.61051C84.7066 8.31054 84.786 8.01447 84.8794 7.72229C84.9284 7.5666 84.9712 7.44827 84.993 7.38833C85.039 7.25911 85.1145 7.0497 85.2102 6.83796C85.3094 6.62249 85.4239 6.41438 85.5527 6.2152C85.868 5.70842 86.1794 5.35189 86.6815 4.77505Z" fill="white"/>
<path d="M101.2 16.2137C101.155 16.2197 101.114 16.2422 101.085 16.2768C100.918 16.4566 100.736 16.6208 100.54 16.7672C100.518 16.7835 100.505 16.8092 100.486 16.8201C100.466 16.831 100.439 16.7991 100.408 16.7913C100.281 16.7529 100.151 16.7289 100.019 16.7197C99.9993 16.7197 99.9791 16.7197 99.9651 16.7018C99.9331 16.6631 99.8873 16.6385 99.8374 16.6333C99.8159 16.6303 99.7955 16.6217 99.7783 16.6084C99.7456 16.5816 99.7062 16.5642 99.6644 16.558C99.6226 16.5519 99.5799 16.5572 99.5408 16.5734C99.4988 16.5843 99.463 16.5967 99.4155 16.6045C99.3528 16.6079 99.2908 16.5906 99.2389 16.5553C99.187 16.52 99.1481 16.4686 99.1282 16.4091C99.1111 16.3492 99.1135 16.3453 99.1703 16.3235C99.1999 16.3126 99.2326 16.304 99.2629 16.2962C99.3074 16.2888 99.3514 16.2784 99.3945 16.2651C99.5288 16.2096 99.649 16.1247 99.7463 16.0168C99.7716 15.9924 99.7892 15.9612 99.7971 15.927C99.8049 15.8928 99.8027 15.8571 99.7907 15.8241C99.7787 15.7912 99.7573 15.7624 99.7293 15.7414C99.7012 15.7203 99.6677 15.7078 99.6327 15.7054C99.6157 15.7022 99.5985 15.7007 99.5813 15.7007C99.4894 15.696 99.3968 15.6945 99.3042 15.6883C99.2932 15.6873 99.2826 15.684 99.273 15.6786C99.2635 15.6733 99.2551 15.6659 99.2486 15.6571C99.242 15.6483 99.2374 15.6382 99.2351 15.6274C99.2327 15.6167 99.2327 15.6056 99.2349 15.5948C99.2415 15.5679 99.2512 15.5418 99.2637 15.517C99.31 15.4294 99.3642 15.3463 99.4256 15.2687C99.5064 15.1738 99.5713 15.0666 99.6179 14.9511C99.6645 14.8316 99.6694 14.7 99.6319 14.5774C99.6111 14.5248 99.585 14.4745 99.5541 14.4272C99.5286 14.3856 99.4922 14.3519 99.4488 14.3298C99.4053 14.3076 99.3566 14.298 99.3081 14.3018C99.2427 14.3018 99.2248 14.2777 99.2302 14.2123C99.2354 14.1693 99.2469 14.1273 99.2645 14.0877C99.2926 14.0204 99.3273 13.956 99.368 13.8955C99.3854 13.8737 99.3958 13.8471 99.3976 13.8192C99.3994 13.7914 99.3926 13.7636 99.3781 13.7398C99.3556 13.6954 99.3314 13.6518 99.3065 13.6098C99.1835 13.4035 99.0309 13.2205 98.9002 13.0189C98.8579 12.9558 98.7996 12.905 98.7312 12.8718C98.6784 12.8527 98.6283 12.8266 98.5826 12.7939C98.5662 12.7776 98.539 12.7784 98.5148 12.7745C98.451 12.7651 98.3872 12.762 98.3233 12.7496C98.2852 12.7453 98.2502 12.7264 98.2256 12.697C98.2009 12.6676 98.1885 12.6298 98.191 12.5916C98.1765 12.3658 98.1447 12.1414 98.096 11.9205C98.0776 11.8171 98.0223 11.7239 97.9403 11.6582C97.8415 11.5749 97.7356 11.5025 97.6383 11.4153C97.61 11.3919 97.5763 11.3759 97.5403 11.3689C97.5042 11.3618 97.467 11.3638 97.432 11.3748C97.4171 11.3763 97.4032 11.3831 97.3929 11.394C97.3827 11.4048 97.3766 11.419 97.3759 11.434C97.3666 11.4978 97.3596 11.5617 97.3471 11.6247C97.3329 11.6952 97.3469 11.7684 97.3861 11.8287C97.3953 11.8408 97.4036 11.8535 97.411 11.8668C97.4437 11.9322 97.481 11.9953 97.439 12.0715C97.4289 12.0934 97.4248 12.1176 97.4273 12.1416C97.4301 12.1847 97.4189 12.2276 97.3954 12.2638C97.2997 12.4345 97.1879 12.5956 97.0614 12.7449C97.0505 12.7597 97.0365 12.772 97.0204 12.7809C97.0043 12.7898 96.9864 12.795 96.968 12.7963C96.929 12.8003 96.892 12.8154 96.8614 12.8399C96.7637 12.914 96.6783 13.003 96.6084 13.1038C96.5332 13.2118 96.4358 13.3026 96.3227 13.37C96.2428 13.4121 96.1592 13.4465 96.0728 13.4728C95.9545 13.514 95.8346 13.5506 95.7139 13.5802C95.7018 13.5852 95.6886 13.5873 95.6755 13.5865C95.6624 13.5856 95.6496 13.5818 95.6382 13.5752C95.6268 13.5687 95.617 13.5597 95.6097 13.5488C95.6023 13.5379 95.5975 13.5255 95.5956 13.5125C95.5912 13.4959 95.5847 13.4799 95.5761 13.465C95.5223 13.3955 95.4947 13.3092 95.4983 13.2213C95.4773 13.2081 95.4563 13.2299 95.4352 13.2128C95.3625 13.1623 95.2754 13.1369 95.1869 13.1404C95.1655 13.1363 95.1436 13.1368 95.1224 13.1417C95.1012 13.1467 95.0813 13.156 95.0639 13.1692C95.0519 13.1784 95.037 13.1831 95.0219 13.1824C94.9542 13.1871 94.8849 13.1964 94.8172 13.2019C94.7061 13.2187 94.5939 13.2257 94.4816 13.2229C94.4854 13.247 94.4802 13.2717 94.4668 13.2922C94.4467 13.3224 94.4324 13.3562 94.4248 13.3918C94.4095 13.4615 94.3756 13.5258 94.3267 13.5779C94.3151 13.5923 94.2989 13.6023 94.2808 13.6064C94.2627 13.6105 94.2438 13.6084 94.2271 13.6004C94.2069 13.5928 94.1878 13.5826 94.1703 13.5701C94.1599 13.5602 94.1477 13.5526 94.1343 13.5475C94.1209 13.5424 94.1067 13.54 94.0924 13.5405C94.0704 13.5423 94.0486 13.5356 94.0314 13.5219C94.0142 13.5082 94.0029 13.4883 93.9998 13.4665C94.0235 13.4567 94.0449 13.442 94.0627 13.4236C94.0805 13.4051 94.0943 13.3831 94.1033 13.3591C94.1103 13.3443 94.1235 13.3381 94.136 13.3287C94.1682 13.304 94.1923 13.2701 94.2049 13.2315C94.2175 13.1929 94.2182 13.1513 94.2068 13.1123C94.1875 13.0574 94.1613 13.0051 94.129 12.9566C94.1188 12.9383 94.1048 12.9223 94.0879 12.9099C94.0709 12.8975 94.0515 12.8889 94.0309 12.8848C94.0103 12.8806 93.989 12.881 93.9686 12.8859C93.9482 12.8908 93.9291 12.9 93.9126 12.9131C93.8853 12.931 93.8604 12.9512 93.8347 12.9691C93.809 12.987 93.7927 12.9792 93.7865 12.9971C93.7802 13.015 93.7904 13.0384 93.7989 13.0578C93.7989 13.0641 93.7989 13.0703 93.8044 13.0773C93.8124 13.0927 93.8143 13.1104 93.8098 13.1271C93.8054 13.1438 93.7948 13.1583 93.7802 13.1676C93.7558 13.1867 93.7399 13.2147 93.7359 13.2455C93.7156 13.3467 93.6401 13.3848 93.5747 13.479C93.697 13.5397 93.6331 13.8332 93.7499 13.9297C93.7745 13.9491 93.7935 13.9746 93.8052 14.0037C93.8141 14.032 93.8141 14.0625 93.8052 14.0909C93.7756 14.2061 93.8052 14.3182 93.8106 14.4303C93.8117 14.4462 93.8167 14.4616 93.8251 14.4752C93.8335 14.4887 93.8451 14.5 93.8589 14.5081C93.8715 14.5185 93.8872 14.5246 93.9035 14.5256C93.9199 14.5266 93.9361 14.5224 93.95 14.5136C93.9642 14.5068 93.9757 14.4954 93.9828 14.4813C93.9898 14.4672 93.992 14.4512 93.9889 14.4357C93.9826 14.3565 93.9811 14.2769 93.9842 14.1975C93.9826 14.1739 93.9886 14.1505 94.0013 14.1306C94.0033 14.1254 94.0066 14.1209 94.011 14.1176C94.0154 14.1143 94.0207 14.1123 94.0262 14.1119C94.0317 14.1115 94.0371 14.1127 94.042 14.1153C94.0468 14.1179 94.0508 14.1219 94.0535 14.1267C94.061 14.1357 94.0665 14.1464 94.0693 14.1579C94.0721 14.1693 94.0723 14.1813 94.0698 14.1928C94.0474 14.2915 94.0448 14.3936 94.0621 14.4933C94.0673 14.5133 94.0683 14.5343 94.0648 14.5547C94.0613 14.5751 94.0534 14.5945 94.0418 14.6116C94.0335 14.6236 94.0287 14.6376 94.028 14.6521C94.0272 14.6667 94.0306 14.6811 94.0376 14.6938C94.0447 14.7066 94.0551 14.7171 94.0679 14.7241C94.0806 14.7312 94.095 14.7346 94.1095 14.7339C94.1251 14.7335 94.1405 14.7363 94.155 14.7421C94.1694 14.7478 94.1826 14.7564 94.1936 14.7673C94.2237 14.7987 94.2424 14.8393 94.2465 14.8825C94.2504 14.9103 94.2474 14.9386 94.238 14.9651C94.2246 14.99 94.2216 15.0191 94.2297 15.0463C94.2377 15.0734 94.256 15.0962 94.2808 15.1099C94.3407 15.155 94.3983 15.2041 94.4614 15.2453C94.4839 15.26 94.5026 15.2798 94.5162 15.3031C94.5297 15.3263 94.5376 15.3524 94.5392 15.3792C94.5392 15.3885 94.5455 15.4072 94.5322 15.4057C94.491 15.3994 94.4949 15.4337 94.4855 15.4539C94.4761 15.4778 94.4608 15.499 94.4412 15.5155C94.4216 15.5321 94.3982 15.5435 94.373 15.5489C94.3479 15.5542 94.3219 15.5532 94.2972 15.546C94.2726 15.5388 94.2501 15.5256 94.2318 15.5077C94.2105 15.4896 94.1904 15.4701 94.1718 15.4493C94.1477 15.422 94.1282 15.4057 94.0877 15.4298C94.0473 15.4539 93.9702 15.3979 93.9686 15.3434C93.9685 15.3258 93.9625 15.3088 93.9515 15.2951C93.8958 15.225 93.8438 15.152 93.7958 15.0764C93.7619 15.0312 93.7176 14.9948 93.6666 14.9705C93.6082 14.9363 93.5475 14.902 93.4868 14.8701C93.4672 14.86 93.45 14.8457 93.4366 14.8282C93.4231 14.8107 93.4137 14.7904 93.4089 14.7689C93.3918 14.7027 93.3684 14.6373 93.356 14.5704C93.3468 14.5324 93.3501 14.4924 93.3656 14.4565C93.381 14.4205 93.4077 14.3906 93.4416 14.3711C93.4525 14.3657 93.4619 14.3578 93.4692 14.348C93.4764 14.3383 93.4813 14.327 93.4834 14.3151C93.4855 14.3031 93.4848 14.2909 93.4814 14.2792C93.4779 14.2676 93.4717 14.2569 93.4634 14.2481L93.24 13.9718C93.2106 13.9425 93.1931 13.9034 93.191 13.862C93.1914 13.8384 93.1981 13.8153 93.2104 13.795C93.3155 13.6012 93.3661 13.5016 93.4665 13.4751C93.4677 13.4713 93.4677 13.4672 93.4665 13.4634C93.4665 13.4105 93.4245 13.3684 93.4066 13.3202C93.4007 13.2974 93.3896 13.2762 93.3743 13.2583C93.3591 13.2404 93.3399 13.2262 93.3183 13.2167C93.2967 13.2073 93.2733 13.2028 93.2497 13.2038C93.2262 13.2047 93.2032 13.211 93.1824 13.2221C93.1026 13.2555 93.0246 13.2932 92.9489 13.335C92.9035 13.3591 92.857 13.3809 92.8095 13.4004C92.7968 13.4067 92.7828 13.41 92.7686 13.41C92.7545 13.41 92.7405 13.4067 92.7278 13.4004C92.6458 13.3623 92.5587 13.3361 92.4693 13.3225C92.4398 13.3208 92.4115 13.3108 92.3875 13.2935C92.3635 13.2763 92.3449 13.2526 92.3339 13.2252C92.3325 13.2202 92.3299 13.2155 92.3264 13.2116C92.3229 13.2077 92.3185 13.2046 92.3136 13.2026C92.2661 13.1808 92.2202 13.1567 92.1727 13.1373C92.0949 13.1038 92.024 13.0703 91.9524 13.0298C91.9164 13.0051 91.8734 12.9926 91.8297 12.994C91.786 12.9954 91.7439 13.0107 91.7096 13.0376C91.671 13.0659 91.6256 13.0834 91.578 13.0882C91.5289 13.099 91.4776 13.0904 91.4348 13.0641C91.4225 13.0526 91.4064 13.0463 91.3896 13.0463C91.3728 13.0463 91.3567 13.0526 91.3445 13.0641C91.3253 13.0773 91.3074 13.0922 91.2907 13.1084C91.1892 13.2155 91.104 13.337 91.0377 13.4689C91.0109 13.5134 90.9934 13.5629 90.9864 13.6144C90.9801 13.6985 90.9731 13.7818 90.9685 13.8651C90.9609 13.9773 90.9855 14.0894 91.0393 14.1882C91.1226 14.3439 91.2043 14.4996 91.2876 14.6552C91.3009 14.6794 91.3079 14.6949 91.283 14.7152C91.258 14.7354 91.2651 14.7432 91.2884 14.7588C91.3611 14.8055 91.4171 14.8741 91.4483 14.9547C91.4795 15.0353 91.4843 15.1237 91.462 15.2072C91.4569 15.2205 91.4559 15.235 91.4591 15.2488C91.4623 15.2627 91.4695 15.2753 91.4799 15.285L91.5406 15.3512C91.5667 15.38 91.5899 15.4113 91.6099 15.4446C91.6193 15.4646 91.6243 15.4863 91.6246 15.5083C91.6249 15.5304 91.6206 15.5523 91.6118 15.5725C91.6031 15.5927 91.5901 15.6109 91.5738 15.6257C91.5575 15.6406 91.5382 15.6518 91.5173 15.6587C91.4861 15.6665 91.4566 15.6812 91.4262 15.6906C91.3936 15.6995 91.365 15.7193 91.3451 15.7465C91.3251 15.7738 91.315 15.8071 91.3164 15.8408C91.3164 15.9335 91.3071 16.0253 91.3086 16.118C91.3101 16.1738 91.2932 16.2285 91.2604 16.2737C91.2297 16.3176 91.2036 16.3645 91.1825 16.4138C91.1265 16.543 91.1047 16.5593 90.9599 16.564C90.9537 16.5644 90.9474 16.5644 90.9412 16.564C90.8766 16.5653 90.8123 16.5742 90.7497 16.5905C90.6617 16.6185 90.6376 16.6504 90.6197 16.7462C90.6127 16.7851 90.6197 16.824 90.6135 16.8676C90.613 16.971 90.5862 17.0725 90.5356 17.1626C90.5067 17.2047 90.4868 17.2523 90.4772 17.3024C90.4675 17.3525 90.4683 17.404 90.4796 17.4538C90.4875 17.4959 90.4911 17.5386 90.4905 17.5815C90.4898 17.6956 90.4757 17.8093 90.4484 17.9201C90.4397 17.9623 90.4464 18.0062 90.4671 18.0439C90.5178 18.1297 90.59 18.2008 90.6765 18.2502C90.8128 18.3412 90.9482 18.4323 91.079 18.5304C91.243 18.6639 91.4327 18.7623 91.6364 18.8192C91.7876 18.8662 91.948 18.875 92.1034 18.8449C92.3187 18.7936 92.5276 18.7184 92.7262 18.6207C92.8094 18.5746 92.9037 18.5525 92.9987 18.5569C93.1318 18.567 93.2641 18.5849 93.398 18.5888C93.4283 18.5902 93.4586 18.5852 93.4868 18.574C93.6028 18.5257 93.7203 18.3405 93.6331 18.2128C93.6132 18.1827 93.6036 18.147 93.6055 18.111C93.6075 18.0749 93.621 18.0405 93.644 18.0127C93.6637 17.9869 93.6799 17.9586 93.6923 17.9287C93.7081 17.887 93.736 17.851 93.7726 17.8255C93.8091 17.7999 93.8525 17.786 93.897 17.7854C93.9678 17.7781 94.038 17.7661 94.1072 17.7496C94.319 17.7121 94.5273 17.6572 94.73 17.5854C94.8298 17.5495 94.9192 17.4893 94.99 17.4102C95.0191 17.3781 95.0362 17.3368 95.0382 17.2934C95.0382 17.2475 95.0312 17.2366 94.9884 17.2241L94.5789 17.1105C94.4886 17.0848 94.4723 17.0685 94.4622 16.9735C94.4583 16.926 94.441 16.8807 94.4124 16.8427C94.3874 16.81 94.3641 16.7765 94.3345 16.7446C94.3068 16.7122 94.289 16.6725 94.2831 16.6302C94.2356 16.3383 94.2154 16.0448 94.1913 15.7505C94.1913 15.7404 94.185 15.7287 94.2014 15.7248C94.2177 15.7209 94.2263 15.7194 94.2349 15.735C94.2729 15.7897 94.3047 15.8484 94.3298 15.9101C94.3719 16.0658 94.4077 16.2215 94.4373 16.3819C94.4591 16.4698 94.4716 16.5598 94.4746 16.6504C94.474 16.7041 94.4782 16.7578 94.4871 16.8108C94.4861 16.8365 94.4909 16.8622 94.5009 16.8859C94.511 16.9096 94.5261 16.9308 94.5453 16.9481C94.5644 16.9653 94.5871 16.9781 94.6118 16.9856C94.6364 16.9931 94.6624 16.9951 94.6879 16.9914C94.7954 16.9914 94.9036 16.9828 95.0102 16.9758C95.2056 16.9588 95.3985 16.9205 95.5855 16.8614C95.7918 16.803 95.7918 16.8038 95.9553 16.6644L96.1693 16.4877C96.212 16.4509 96.2645 16.4273 96.3204 16.42C96.359 16.4158 96.3982 16.4193 96.4355 16.4304C96.4727 16.4415 96.5075 16.46 96.5375 16.4846C96.6464 16.5733 96.7504 16.6679 96.8489 16.768C96.9266 16.8414 96.9984 16.9208 97.0638 17.0054C97.1626 17.1264 97.2701 17.2401 97.3853 17.3456C97.3929 17.3532 97.4016 17.3598 97.411 17.365C97.4616 17.3977 97.4834 17.3985 97.527 17.358C97.5849 17.3145 97.6303 17.2564 97.6588 17.1898C97.6872 17.1231 97.6976 17.0501 97.6889 16.9782C97.6823 16.9382 97.6849 16.8972 97.6965 16.8583C97.7081 16.8195 97.7284 16.7838 97.7558 16.754C97.8639 16.6368 97.952 16.5027 98.0166 16.3569C98.0205 16.3423 98.0296 16.3296 98.0422 16.3213C98.0549 16.3129 98.0701 16.3096 98.0851 16.3118C98.1116 16.3118 98.1342 16.2884 98.1466 16.262C98.1707 16.2114 98.1879 16.1989 98.2385 16.2106C98.3126 16.2257 98.384 16.2519 98.4502 16.2884C98.5031 16.3204 98.5569 16.3531 98.6114 16.3826C98.7961 16.4925 98.9863 16.5931 99.1812 16.6839C99.2161 16.6981 99.2528 16.7078 99.2902 16.7127C99.396 16.7259 99.5003 16.7477 99.6054 16.7656C99.4546 16.7845 99.3063 16.82 99.1633 16.8715C99.1633 16.8995 99.1633 16.9252 99.2061 16.9167C99.234 16.9148 99.2621 16.9172 99.2894 16.9237C99.3461 16.9366 99.4049 16.938 99.4622 16.9276C99.5195 16.9176 99.5784 16.9221 99.6335 16.9408C99.7116 16.965 99.793 16.9771 99.8748 16.9766C99.8943 16.9745 99.9141 16.9771 99.9324 16.9844C99.9712 17.0006 100.013 17.0089 100.055 17.0089C100.097 17.0089 100.139 17.0006 100.178 16.9844C100.268 16.9548 100.355 16.9195 100.441 16.8785C100.446 16.8785 100.456 16.8715 100.457 16.8731C100.492 16.9081 100.517 16.8731 100.541 16.8598C100.756 16.7356 100.957 16.5895 101.142 16.4239C101.204 16.3707 101.26 16.3109 101.309 16.2456C101.33 16.2232 101.342 16.1937 101.341 16.1631C101.296 16.185 101.249 16.2019 101.2 16.2137ZM94.8607 15.1153C94.8161 15.0783 94.7756 15.0366 94.7401 14.9908C94.715 14.9582 94.6833 14.9313 94.6471 14.9118C94.6109 14.8923 94.5709 14.8808 94.5299 14.8779C94.5204 14.8786 94.5109 14.8762 94.5028 14.8712C94.4947 14.8662 94.4883 14.8587 94.4848 14.8499C94.4762 14.8323 94.463 14.8175 94.4466 14.807C94.4378 14.8028 94.431 14.7953 94.4277 14.7862C94.4243 14.777 94.4247 14.7669 94.4287 14.758C94.4373 14.737 94.4458 14.7191 94.4715 14.7144C94.4972 14.7097 94.526 14.7051 94.5494 14.7004C94.5749 14.6981 94.5994 14.6889 94.6202 14.6739C94.649 14.6558 94.6829 14.6476 94.7167 14.6506C94.7148 14.689 94.7148 14.7274 94.7167 14.7658C94.7167 14.7788 94.7219 14.7913 94.7311 14.8005C94.7403 14.8097 94.7528 14.8148 94.7658 14.8148C94.7922 14.8148 94.8195 14.8242 94.8436 14.8288C94.8569 14.8078 94.8382 14.7891 94.8436 14.7697C94.8802 14.7703 94.9162 14.7785 94.9495 14.7938C94.9292 14.8186 94.9021 14.8369 94.8716 14.8467C94.9379 14.9328 94.9856 15.0317 95.0118 15.1371C94.9873 15.1491 94.9598 15.1534 94.9329 15.1495C94.906 15.1456 94.8808 15.1337 94.8607 15.1153Z" fill="white"/>
<path d="M94.2987 7.94027C94.1368 7.99554 94.0543 8.22519 93.883 8.20573C93.8475 8.19812 93.8127 8.18797 93.7787 8.17537C93.6931 8.14656 93.6098 8.11153 93.5241 8.08273C93.4901 8.07193 93.459 8.05347 93.4332 8.02877C93.4075 8.00408 93.3877 7.9738 93.3754 7.94027C93.3599 7.90446 93.342 7.87021 93.3264 7.83518C93.3231 7.82611 93.3173 7.81812 93.3098 7.81208C93.3022 7.80604 93.2932 7.80218 93.2836 7.80093C93.2376 7.78709 93.1886 7.7871 93.1426 7.80094C93.0967 7.81479 93.0558 7.84186 93.0251 7.87877C92.9862 7.93044 92.9347 7.97142 92.8757 7.99788C92.8617 8.00299 92.8501 8.01298 92.8429 8.02601C92.8358 8.03903 92.8336 8.0542 92.8368 8.06872C92.8368 8.10531 92.8368 8.14189 92.843 8.17848C92.8562 8.28433 92.8299 8.39134 92.769 8.47897C92.6959 8.5984 92.6057 8.70645 92.5012 8.79969C92.2781 9.00003 92.0338 9.17544 91.7726 9.32281C91.715 9.35629 91.6551 9.38587 91.5967 9.41778C91.5374 9.44857 91.4902 9.4985 91.4628 9.55946C91.4296 9.63821 91.3789 9.70837 91.3146 9.76461C91.2502 9.82085 91.1739 9.86171 91.0915 9.88408C90.9767 9.91343 90.8672 9.96044 90.7668 10.0234C90.736 10.0439 90.7095 10.0704 90.689 10.1013C90.5785 10.257 90.4882 10.4313 90.3893 10.5971C90.3587 10.6444 90.3326 10.6944 90.3114 10.7466C90.2543 10.8789 90.1888 11.0073 90.1153 11.1312C90.1015 11.1557 90.0908 11.1819 90.0834 11.209C90.0822 11.2257 90.0769 11.2419 90.0677 11.256C90.0586 11.27 90.046 11.2815 90.0312 11.2893C90.0163 11.2971 89.9997 11.301 89.983 11.3006C89.9662 11.3001 89.9499 11.2954 89.9354 11.2869C89.9238 11.2815 89.9118 11.2768 89.8996 11.2728C89.8588 11.2627 89.8215 11.2419 89.7912 11.2127C89.761 11.1834 89.7391 11.1467 89.7276 11.1063C89.6982 11.0274 89.6628 10.9509 89.6217 10.8774C89.6033 10.8358 89.5745 10.7997 89.5381 10.7724C89.5017 10.7451 89.459 10.7277 89.4139 10.7217C89.3944 10.7203 89.376 10.7124 89.3617 10.6991C89.2874 10.6373 89.2238 10.5636 89.1733 10.4812C89.1186 10.3818 89.1007 10.2663 89.1227 10.155C89.1559 9.93381 89.1744 9.71068 89.178 9.48707C89.182 9.46134 89.1775 9.43499 89.1651 9.41208C89.1528 9.38916 89.1332 9.37093 89.1095 9.36018C89.0812 9.34413 89.058 9.32042 89.0426 9.29178C89.0272 9.26314 89.0201 9.23072 89.0223 9.19826C89.0075 9.08524 89.0168 8.97037 89.0496 8.86119C89.0596 8.83144 89.0631 8.79984 89.0596 8.76863C89.0561 8.73742 89.0457 8.70736 89.0293 8.68059C89.0076 8.6385 88.9967 8.5917 88.9974 8.54436C88.9945 8.40655 89.001 8.2687 89.0169 8.13177C89.0309 7.99843 89.0625 7.86754 89.1111 7.74254C89.2379 7.43116 89.2535 7.44829 89.2668 7.28637C89.2792 7.1696 89.2668 7.08008 89.322 6.9493C89.3411 6.8991 89.3693 6.8529 89.4053 6.81307C89.5283 6.68151 89.649 6.75079 89.7525 6.64103C89.7836 6.60755 89.7681 6.606 89.8739 6.34132C89.9323 6.19575 89.93 6.21443 89.9386 6.18563C89.9728 6.06964 89.9526 5.97155 89.8428 5.57298C89.7899 5.38148 89.7743 5.32855 89.7953 5.24915C89.8265 5.13082 89.923 5.0195 89.986 5.03351C90.0312 5.04363 90.032 5.11136 90.1044 5.31065C90.134 5.40815 90.1737 5.50232 90.2227 5.59167C90.3006 5.69133 90.3702 5.79731 90.4305 5.9085C90.4379 5.92185 90.4444 5.93563 90.45 5.94976C90.4679 6.00036 90.4671 6.05251 90.5068 6.23701C90.5158 6.2962 90.5307 6.35435 90.5512 6.41061C90.6119 6.5554 90.6906 6.54061 90.8462 6.73211C90.9188 6.81151 90.9815 6.89932 91.0331 6.99367C91.0513 7.03401 91.0779 7.07008 91.1109 7.09954C91.1452 7.13591 91.1919 7.15812 91.2417 7.16182C91.2845 7.15685 91.3242 7.13701 91.3538 7.10577C91.4659 7.02091 91.6107 7.02792 91.8847 7.02792C91.9368 7.02856 91.9887 7.0322 92.0404 7.03882C92.1299 7.05205 92.2187 7.07074 92.3074 7.08631C92.365 7.09383 92.4232 7.09514 92.481 7.0902C92.524 7.08786 92.5672 7.08786 92.6102 7.0902C92.6425 7.09016 92.6741 7.10019 92.7004 7.11888C92.7268 7.13757 92.7467 7.16401 92.7574 7.19451C92.7745 7.24511 92.7963 7.29493 92.815 7.34553C92.8338 7.38821 92.8419 7.43483 92.8386 7.48135C92.8354 7.52787 92.8208 7.5729 92.7963 7.61254C92.7678 7.65075 92.7535 7.69771 92.7559 7.74532C92.7583 7.79292 92.7773 7.8382 92.8095 7.87333C92.8189 7.88578 92.8259 7.89901 92.8344 7.91147C92.8376 7.91488 92.8413 7.91777 92.8453 7.92003C92.8651 7.91407 92.8824 7.90177 92.8944 7.88503C92.9065 7.86829 92.9128 7.84804 92.9123 7.8274C92.9118 7.80228 92.921 7.77795 92.9379 7.75941C92.9549 7.74088 92.9783 7.72954 93.0033 7.72775C93.1424 7.69769 93.2839 7.68075 93.426 7.67715C93.4497 7.67706 93.4732 7.68128 93.4953 7.68961C93.5791 7.71895 93.6695 7.72407 93.7561 7.7044C93.7963 7.697 93.8374 7.697 93.8776 7.7044C94.0107 7.72931 94.1477 7.72542 94.2816 7.74799C94.2988 7.75008 94.3163 7.74739 94.3322 7.74021C94.3999 7.71925 94.466 7.69323 94.5299 7.66236C94.5547 7.65194 94.581 7.64563 94.6077 7.64368C94.7637 7.60945 94.9249 7.60707 95.0818 7.63667C95.1328 7.64546 95.1827 7.65981 95.2305 7.67949C95.2495 7.68695 95.2662 7.6993 95.279 7.7153C95.2917 7.73129 95.2999 7.75036 95.3029 7.77057C95.3101 7.80856 95.3284 7.84358 95.3554 7.87126C95.3824 7.89895 95.4169 7.91808 95.4547 7.92626C95.5611 7.95322 95.669 7.97402 95.7778 7.98854C95.816 7.99364 95.8519 8.00958 95.8813 8.03447C95.9179 8.06638 95.9724 8.0804 95.9934 8.12788C96.0294 8.19409 96.0768 8.25339 96.1335 8.30303C96.1575 8.3363 96.1757 8.37342 96.1872 8.4128C96.2007 8.44673 96.2199 8.47807 96.2441 8.50543C96.2674 8.52957 96.2884 8.55136 96.3266 8.54202C96.3507 8.53579 96.3671 8.55058 96.3795 8.57004C96.4247 8.64322 96.4768 8.7125 96.5251 8.78334C96.5913 8.89106 96.6133 9.02019 96.5866 9.14377C96.5812 9.18007 96.5715 9.2156 96.5578 9.24964C96.5354 9.31461 96.5279 9.38379 96.536 9.45203C96.5374 9.47278 96.5439 9.49286 96.5549 9.5105C96.5659 9.52815 96.581 9.54282 96.599 9.55323C96.6319 9.57224 96.6566 9.60259 96.6687 9.63857C96.6807 9.67455 96.6792 9.71368 96.6644 9.74863C96.6511 9.79258 96.6514 9.83954 96.6653 9.88331C96.6792 9.92708 96.706 9.96562 96.7423 9.99384C96.7798 10.0264 96.8034 10.0721 96.8084 10.1215C96.821 10.2014 96.8513 10.2775 96.8973 10.3441C96.9433 10.4106 97.0036 10.466 97.0739 10.5061C97.1074 10.5214 97.1437 10.5299 97.1805 10.531C97.1923 10.5304 97.204 10.5326 97.2147 10.5375C97.2254 10.5423 97.2348 10.5497 97.242 10.559C97.2488 10.5689 97.2592 10.5758 97.271 10.5781C97.2828 10.5804 97.295 10.578 97.3051 10.5715C97.3285 10.5606 97.3526 10.5512 97.3767 10.5411C97.4103 10.5263 97.4461 10.5169 97.4826 10.5131C97.5098 10.5131 97.541 10.5053 97.5604 10.5349C97.5676 10.5477 97.5698 10.5627 97.5667 10.5771C97.5635 10.5914 97.5552 10.6041 97.5433 10.6127C97.535 10.6211 97.5298 10.6321 97.5287 10.6439C97.5276 10.6557 97.5305 10.6675 97.5371 10.6773C97.5464 10.6968 97.5573 10.7155 97.5659 10.7349C97.5726 10.7474 97.5766 10.7611 97.5775 10.7752C97.5785 10.7893 97.5764 10.8035 97.5713 10.8167C97.5613 10.8345 97.5575 10.8551 97.5606 10.8753C97.5637 10.8955 97.5735 10.914 97.5885 10.928C97.6103 10.9513 97.6048 10.9755 97.5783 10.9942C97.5583 11.0107 97.5349 11.0228 97.5098 11.0293C97.4846 11.0359 97.4583 11.0369 97.4328 11.0323L97.3954 11.0222C97.3759 11.0167 97.358 11.0128 97.3432 11.0331C97.3385 11.0412 97.3359 11.0505 97.3359 11.0599C97.3359 11.0694 97.3385 11.0787 97.3432 11.0868C97.3549 11.1148 97.3643 11.1436 97.3744 11.1716C97.3788 11.1815 97.3817 11.192 97.3829 11.2028C97.3876 11.2503 97.3604 11.2705 97.3168 11.2549L97.2981 11.2479C97.228 11.2199 97.228 11.2199 97.193 11.2884C97.1895 11.2987 97.1827 11.3075 97.1737 11.3135C97.1647 11.3195 97.154 11.3225 97.1432 11.3219H97.0077C96.9753 11.3217 96.9436 11.3124 96.9161 11.2953C96.8886 11.2781 96.8664 11.2536 96.852 11.2246C96.8396 11.202 96.8295 11.1849 96.8007 11.1833C96.7719 11.1818 96.768 11.1646 96.754 11.1506C96.7065 11.1039 96.659 11.0572 96.6107 11.0113C96.5772 10.9801 96.5765 10.9794 96.5329 11.0113C96.514 11.0256 96.4915 11.0345 96.4679 11.037C96.4443 11.0394 96.4204 11.0354 96.399 11.0253C96.3716 11.0121 96.3425 11.0027 96.3126 10.9973C96.2947 10.9973 96.2853 10.9973 96.2845 11.0198C96.2815 11.0799 96.2689 11.139 96.2472 11.195C96.236 11.2411 96.2318 11.2886 96.2347 11.3359C96.2334 11.3745 96.2198 11.4116 96.1958 11.4418C96.132 11.5305 96.072 11.6224 96.0082 11.7119C95.9693 11.7684 95.9264 11.822 95.8797 11.8723C95.8464 11.9121 95.805 11.9445 95.7583 11.9672C95.7522 11.9692 95.7465 11.9725 95.7416 11.9767C95.7367 11.981 95.7328 11.9861 95.7299 11.9919C95.7271 11.9978 95.7255 12.0041 95.7251 12.0105C95.7248 12.017 95.7257 12.0234 95.7279 12.0295C95.7334 12.063 95.7373 12.0972 95.7427 12.1315C95.7495 12.158 95.7461 12.1861 95.7331 12.2102C95.7201 12.2342 95.6985 12.2526 95.6727 12.2615C95.6617 12.2656 95.6518 12.2722 95.6437 12.2807C95.6356 12.2892 95.6296 12.2994 95.626 12.3105C95.6223 12.3233 95.6139 12.3341 95.6024 12.3408C95.591 12.3475 95.5774 12.3495 95.5645 12.3463C95.5435 12.3463 95.5217 12.3463 95.5006 12.3424C95.4166 12.3336 95.3317 12.3481 95.2554 12.3845C95.2436 12.3913 95.2302 12.3949 95.2165 12.3949C95.2028 12.3949 95.1894 12.3913 95.1776 12.3845C95.1511 12.3697 95.1207 12.3619 95.0943 12.3487C95.0537 12.328 95.0078 12.3204 94.9627 12.3269C94.9218 12.3337 94.8797 12.3267 94.8431 12.3072C94.8065 12.2876 94.7774 12.2565 94.7603 12.2187C94.7157 12.1305 94.6637 12.0464 94.6046 11.9672C94.524 11.8661 94.4256 11.7807 94.3143 11.715C94.2886 11.6987 94.2512 11.6847 94.2652 11.6496C94.2792 11.6146 94.287 11.5718 94.3322 11.5624C94.4007 11.5438 94.4676 11.5204 94.5369 11.5056C94.6149 11.4946 94.6942 11.4991 94.7704 11.5188C94.7828 11.5221 94.7943 11.5283 94.8039 11.5367C94.8361 11.5622 94.8725 11.5819 94.9113 11.5951C94.9594 11.607 95.0049 11.6279 95.0452 11.6566C95.0569 11.6675 95.074 11.6621 95.0888 11.6636C95.2014 11.6813 95.3159 11.6834 95.429 11.6699C95.4675 11.6648 95.5065 11.6648 95.545 11.6699C95.6081 11.6753 95.619 11.6605 95.5987 11.6029C95.5855 11.5633 95.5641 11.5269 95.536 11.4961C95.5078 11.4652 95.4735 11.4406 95.4352 11.4239C95.3669 11.3916 95.2904 11.3807 95.2157 11.3927C95.1583 11.4042 95.0986 11.3974 95.0452 11.3733C95.0388 11.3692 95.0317 11.3664 95.0242 11.365C95.0167 11.3637 95.0091 11.3638 95.0016 11.3655C94.9722 11.3731 94.9413 11.3725 94.9121 11.3637C94.883 11.3549 94.8569 11.3383 94.8366 11.3157C94.8054 11.2911 94.7796 11.2604 94.7607 11.2254C94.7419 11.1905 94.7303 11.152 94.7268 11.1125C94.7254 11.1056 94.7253 11.0985 94.7267 11.0917C94.728 11.0848 94.7307 11.0782 94.7346 11.0724C94.7386 11.0666 94.7436 11.0616 94.7495 11.0578C94.7554 11.054 94.762 11.0514 94.7689 11.0502C94.8646 11.0261 94.9612 11.0004 95.0577 10.9786C95.1005 10.9685 95.1262 11.0004 95.1161 11.044C95.1161 11.0541 95.1075 11.0634 95.1052 11.0743C95.1042 11.0818 95.1055 11.0894 95.109 11.0961C95.1125 11.1028 95.1179 11.1082 95.1246 11.1117C95.1305 11.115 95.1373 11.1161 95.1438 11.1148C95.1504 11.1135 95.1563 11.11 95.1605 11.1047C95.2061 11.0566 95.2472 11.0045 95.2834 10.949C95.287 10.9435 95.2885 10.9369 95.2875 10.9304C95.2864 10.924 95.2831 10.9181 95.278 10.914C95.262 10.8933 95.2395 10.8785 95.2142 10.8719C95.1483 10.8612 95.0839 10.8424 95.0227 10.8159C94.9816 10.803 94.9376 10.803 94.8966 10.8159C94.8857 10.8159 94.8755 10.8213 94.8654 10.8252C94.7964 10.8488 94.7242 10.8616 94.6513 10.8634C94.5291 10.8753 94.408 10.8975 94.2894 10.9295C94.2473 10.9389 94.2053 10.9482 94.164 10.9615C94.0551 10.9903 93.9406 10.9903 93.8316 10.9615C93.7599 10.9491 93.6872 10.9436 93.6144 10.9451C93.6036 10.9459 93.5926 10.9459 93.5817 10.9451C93.5335 10.9373 93.5179 10.9015 93.5467 10.8618C93.5598 10.8418 93.5767 10.8246 93.5965 10.8112C93.6137 10.8019 93.6274 10.7874 93.6357 10.7697C93.6439 10.7521 93.6463 10.7322 93.6425 10.7131C93.6425 10.6874 93.6425 10.661 93.6378 10.6353C93.6318 10.5925 93.6386 10.5489 93.6573 10.51C93.6725 10.4695 93.6781 10.4261 93.6736 10.3831C93.671 10.3466 93.6747 10.31 93.6845 10.2749C93.7001 10.2367 93.7063 10.2344 93.7444 10.2492C93.7826 10.264 93.8223 10.2562 93.8301 10.2064C93.8301 10.1916 93.8379 10.1776 93.8417 10.1628C93.8534 10.1322 93.8552 10.0988 93.8468 10.0673C93.8384 10.0357 93.8203 10.0076 93.795 9.98683C93.7903 9.98426 93.786 9.98073 93.7827 9.97646C93.7793 9.97219 93.7769 9.96727 93.7755 9.96202C93.7741 9.95676 93.7738 9.95128 93.7746 9.94591C93.7754 9.94054 93.7774 9.93539 93.7802 9.93079C93.8581 9.78677 93.8293 9.64665 93.7623 9.51042C93.7522 9.48959 93.7464 9.46693 93.7452 9.4438C93.744 9.42066 93.7474 9.39752 93.7553 9.37575C93.7904 9.2582 93.8332 9.14221 93.8612 9.02466C93.8899 8.93412 93.9404 8.85203 94.0083 8.78568C94.0428 8.75575 94.0859 8.7375 94.1313 8.73352C94.1606 8.72654 94.1892 8.71716 94.217 8.70549C94.217 8.70549 94.2395 8.69771 94.2808 8.68837C94.3429 8.68064 94.406 8.68568 94.4661 8.70316C94.6015 8.74286 94.9425 8.61675 94.9806 8.45094C95.0312 8.22752 94.5634 7.84919 94.2987 7.94027Z" fill="white"/>
<path d="M102.262 15.6563C102.262 15.6563 102.262 15.6563 102.256 15.6563C102.254 15.6574 102.251 15.658 102.249 15.658C102.246 15.658 102.244 15.6574 102.241 15.6563C102.236 15.6527 102.231 15.6476 102.228 15.6417C102.225 15.6358 102.223 15.6292 102.223 15.6225C102.223 15.6158 102.225 15.6091 102.228 15.6032C102.231 15.5973 102.236 15.5923 102.241 15.5886C102.257 15.5767 102.267 15.5593 102.271 15.54C102.274 15.5206 102.27 15.5007 102.259 15.4843C102.237 15.4396 102.225 15.3908 102.223 15.3411C102.217 15.3015 102.223 15.2612 102.237 15.2241C102.252 15.1871 102.276 15.1544 102.307 15.1293C102.363 15.0862 102.413 15.0357 102.455 14.9791C102.468 14.9612 102.472 14.9495 102.455 14.93C102.423 14.8964 102.4 14.8549 102.389 14.8097C102.378 14.7645 102.379 14.7171 102.392 14.6724C102.398 14.6381 102.407 14.6046 102.416 14.5696C102.416 14.5677 102.416 14.5658 102.415 14.5639C102.415 14.5621 102.413 14.5606 102.412 14.5594C102.41 14.5583 102.408 14.5576 102.406 14.5575C102.404 14.5574 102.403 14.5578 102.401 14.5587C102.396 14.5619 102.391 14.5648 102.385 14.5673C102.383 14.5677 102.382 14.5677 102.38 14.5671C102.378 14.5665 102.376 14.5654 102.375 14.5639C102.374 14.5625 102.373 14.5607 102.373 14.5588C102.373 14.5569 102.373 14.555 102.374 14.5533C102.413 14.4754 102.451 14.3976 102.483 14.3143C102.515 14.231 102.561 14.1586 102.592 14.0714C102.592 14.0697 102.593 14.0682 102.594 14.0669C102.596 14.0657 102.597 14.0649 102.599 14.0645C102.601 14.0641 102.603 14.0642 102.604 14.0647C102.606 14.0652 102.608 14.0662 102.609 14.0675C102.65 14.1127 102.673 14.1671 102.717 14.2076C102.718 14.2088 102.719 14.2097 102.72 14.2103C102.722 14.211 102.723 14.2113 102.725 14.2113C102.726 14.2113 102.728 14.211 102.729 14.2103C102.73 14.2097 102.732 14.2088 102.733 14.2076C102.835 14.0582 102.94 13.9134 103.037 13.7639C103.045 13.7537 103.048 13.7409 103.047 13.7281C103.046 13.7152 103.04 13.7033 103.031 13.6946C102.984 13.6377 102.923 13.5951 102.853 13.5716C102.761 13.5413 102.752 13.4938 102.704 13.4105C102.701 13.4069 102.698 13.4024 102.696 13.3974C102.694 13.3923 102.693 13.387 102.694 13.3817C102.695 13.3764 102.697 13.3715 102.701 13.3672C102.704 13.363 102.708 13.3597 102.713 13.3576C102.834 13.2743 102.898 13.2019 103.04 13.1575C103.077 13.1466 103.118 13.1388 103.153 13.1287C103.202 13.118 103.245 13.0904 103.276 13.0508C103.318 13.0019 103.348 12.9438 103.363 12.8811C103.365 12.8707 103.37 12.8609 103.376 12.8523C103.477 12.6966 103.565 12.5363 103.669 12.3853C103.692 12.3539 103.711 12.3199 103.725 12.2841C103.776 12.1424 104.022 12.0965 104.143 12.193C104.183 12.2222 104.216 12.2607 104.238 12.3051C104.278 12.3843 104.337 12.4524 104.41 12.5036C104.454 12.5378 104.494 12.5814 104.536 12.6141C104.553 12.6275 104.566 12.6453 104.573 12.6655C104.58 12.6857 104.582 12.7075 104.577 12.7286C104.573 12.7605 104.57 12.7924 104.563 12.8235C104.546 12.9296 104.543 13.0374 104.553 13.1443C104.56 13.2345 104.552 13.3252 104.529 13.4128C104.521 13.4484 104.521 13.4854 104.529 13.521C104.543 13.611 104.531 13.7032 104.494 13.7865C104.46 13.8643 104.426 13.9422 104.393 14.0247C104.383 14.0485 104.368 14.0698 104.349 14.087C104.267 14.1765 104.171 14.2503 104.063 14.3049C104.05 14.3096 104.038 14.3158 104.036 14.3306C104.028 14.3929 103.994 14.4474 103.984 14.5097C103.98 14.5377 103.978 14.5649 103.976 14.593C103.976 14.6142 103.971 14.6352 103.959 14.6531C103.948 14.671 103.931 14.6851 103.912 14.6934C103.795 14.7459 103.701 14.8399 103.649 14.9573C103.593 15.067 103.555 15.1846 103.497 15.292C103.438 15.4178 103.389 15.5479 103.35 15.6812C103.306 15.8047 103.271 15.9311 103.246 16.0596C103.221 16.1624 103.182 16.261 103.129 16.3523C103.087 16.4301 103.045 16.5017 103.002 16.5757C102.931 16.6867 102.842 16.7844 102.737 16.8645C102.674 16.9164 102.606 16.9632 102.536 17.0046C102.442 17.0615 102.333 17.0859 102.224 17.0739C102.142 17.0704 102.061 17.0557 101.984 17.0303C101.958 17.0193 101.935 17.0032 101.916 16.9831C101.896 16.963 101.881 16.9393 101.871 16.9132C101.861 16.8872 101.856 16.8595 101.857 16.8316C101.858 16.8037 101.864 16.7763 101.875 16.7508C101.918 16.673 101.945 16.5889 101.984 16.5095C102.051 16.3749 102.114 16.2378 102.177 16.1016C102.204 16.0432 102.227 15.9833 102.255 15.9249C102.266 15.9067 102.269 15.8852 102.264 15.8648C102.259 15.8444 102.246 15.8266 102.229 15.8151C102.183 15.784 102.201 15.7373 102.197 15.6976C102.196 15.6948 102.196 15.6918 102.197 15.689C102.203 15.6766 102.226 15.6758 102.237 15.6758C102.239 15.6657 102.26 15.6618 102.262 15.6563Z" fill="white"/>
<path d="M102.615 13.4214C102.607 13.4572 102.6 13.493 102.589 13.528C102.574 13.5681 102.555 13.6065 102.532 13.6425C102.437 13.7981 102.298 13.9227 102.181 14.062C102.132 14.1168 102.088 14.1754 102.049 14.2372C102.039 14.2516 102.032 14.2674 102.026 14.2839C102.026 14.2912 102.024 14.2983 102.021 14.3049C102.018 14.3114 102.013 14.3173 102.008 14.3219C102.002 14.3266 101.996 14.3301 101.989 14.3321C101.982 14.3342 101.975 14.3347 101.967 14.3337C101.937 14.3383 101.91 14.3532 101.889 14.3758C101.859 14.4033 101.824 14.4255 101.786 14.4412C101.745 14.4559 101.735 14.4489 101.738 14.4069C101.739 14.3749 101.745 14.3433 101.754 14.3127C101.795 14.1737 101.847 14.0383 101.91 13.9079C101.966 13.7958 102.004 13.6744 102.061 13.5654C102.128 13.4338 102.181 13.2937 102.252 13.1645C102.354 12.9755 102.478 12.799 102.62 12.6382C102.662 12.5887 102.706 12.5416 102.754 12.4973C102.763 12.4884 102.772 12.4801 102.782 12.4724C102.802 12.46 102.819 12.4678 102.817 12.4896C102.814 12.6715 102.752 12.8476 102.64 12.9909C102.596 13.0345 102.569 13.0922 102.564 13.1538C102.559 13.2153 102.575 13.2768 102.611 13.3272C102.615 13.3349 102.618 13.343 102.621 13.3513C102.634 13.3754 102.616 13.398 102.615 13.4214Z" fill="white"/>
<path d="M101.092 15.9708C101.083 15.9987 101.067 16.0235 101.045 16.0424C100.979 16.1055 100.915 16.1685 100.849 16.2293C100.797 16.2724 100.737 16.3035 100.672 16.3203C100.611 16.3349 100.549 16.344 100.487 16.3476C100.454 16.3499 100.422 16.3402 100.396 16.3203C100.386 16.3141 100.376 16.3056 100.369 16.2954C100.362 16.2852 100.357 16.2736 100.354 16.2614C100.352 16.2491 100.352 16.2365 100.355 16.2244C100.358 16.2123 100.364 16.2009 100.371 16.1911C100.403 16.1428 100.449 16.1039 100.475 16.0518C100.485 16.0333 100.493 16.0133 100.497 15.9926C100.517 15.8766 100.539 15.7591 100.56 15.6439C100.56 15.6226 100.565 15.6018 100.574 15.5825C100.583 15.5633 100.596 15.546 100.612 15.5319C100.628 15.5177 100.646 15.507 100.666 15.5003C100.686 15.4935 100.708 15.491 100.729 15.4928C100.817 15.4928 100.905 15.4866 100.993 15.485C101.043 15.485 101.047 15.485 101.043 15.5349C101.042 15.6297 101.059 15.7239 101.095 15.812C101.108 15.8363 101.115 15.8639 101.115 15.8918C101.114 15.9198 101.106 15.947 101.092 15.9708Z" fill="white"/>
<path d="M93.5747 13.4704L93.5708 13.4743C93.5548 13.4853 93.5372 13.494 93.5187 13.5C93.493 13.5093 93.4525 13.5078 93.4619 13.4798C93.4622 13.4772 93.4622 13.4746 93.4619 13.472H93.4681C93.5022 13.4584 93.5402 13.4579 93.5747 13.4704Z" fill="white"/>
<path d="M11.9509 16.3965V6.79542H10.2913V5.44365H11.9509V3.82671C11.9509 1.66571 13.0558 0.609589 15.2686 0.609589C15.6552 0.622445 16.0408 0.656021 16.4238 0.710172V2.01774C15.9209 1.96745 15.5185 1.91716 15.2686 1.91716C14.1119 1.91716 13.5587 2.52675 13.5587 3.67584V5.44365H16.4238V6.75122H13.5587V16.3523H11.9509V16.3965Z" fill="white"/>
<path d="M17.0852 5.44366H18.6854L18.533 6.70094L18.5833 6.75123C19.237 5.69511 20.2429 5.1922 21.6998 5.1922C23.7115 5.1922 24.7158 6.24831 24.7158 8.30874V9.07072H23.1598L23.2101 8.81927C23.2101 8.51448 23.2604 8.31636 23.2604 8.20968C23.2604 7.1048 22.6508 6.5013 21.4514 6.5013C19.6409 6.5013 18.786 7.60771 18.786 9.819V16.4056H17.1782V5.44366H17.0852Z" fill="white"/>
<path d="M34.6201 5.44365V17.1082C34.6201 18.716 34.2681 19.7721 33.5655 20.3756C32.863 20.9791 31.6042 21.2808 29.7952 21.2808C28.1356 21.2808 27.0307 21.0294 26.4272 20.5189C25.8237 20.0083 25.522 19.0604 25.522 17.7025H27.081C27.081 18.6581 27.2334 19.2616 27.5824 19.513C27.9344 19.8178 28.6888 19.9154 29.8455 19.9154C31.051 19.9154 31.9059 19.7142 32.3082 19.3622C32.7106 19.0101 32.962 18.2557 32.962 17.2012V14.9883H32.9117C32.5094 15.9942 31.3024 16.4971 29.3426 16.4971C27.7332 16.4971 26.6284 16.0947 25.9746 15.2901C25.3711 14.4854 25.0693 13.0275 25.0693 10.9163C25.0693 8.70344 25.3741 7.24651 26.0249 6.44185C26.6284 5.63719 27.7846 5.23486 29.4934 5.23486C31.3024 5.23486 32.4591 5.78807 33.0123 6.89447H33.0626L32.962 5.43603L34.6201 5.44365ZM29.8455 6.65064C28.5882 6.65064 27.7835 6.9021 27.3827 7.4553C27.0307 8.00698 26.8295 9.16369 26.8295 10.9239C26.8295 12.7328 27.0307 13.8895 27.3827 14.4427C27.7348 14.9959 28.5882 15.2474 29.8455 15.2474C31.1028 15.2474 31.9562 14.9426 32.3585 14.3422C32.7609 13.7417 32.9681 12.5332 32.9681 10.6221C32.9681 8.96251 32.767 7.90792 32.3585 7.35471C31.9562 6.89447 31.1058 6.64302 29.8455 6.64302V6.65064Z" fill="white"/>
<path d="M45.1264 8.30111H43.5171C43.5171 7.54826 43.3647 7.04535 43.0599 6.89447C42.7551 6.69331 41.955 6.64302 40.6474 6.64302C39.4425 6.64302 38.6886 6.74461 38.3859 6.94781C38.0811 7.14898 37.883 7.6016 37.883 8.35444C37.883 9.46085 38.4362 10.0644 39.4923 10.1146L40.7983 10.1649L42.4579 10.2655C44.4681 10.3661 45.4236 11.4222 45.4236 13.3821C45.4236 14.5891 45.0716 15.444 44.4178 15.8966C43.764 16.3492 42.5585 16.6007 40.7983 16.6007C38.9894 16.6007 37.7824 16.3995 37.0783 15.9469C36.426 15.4897 36.074 14.6896 36.074 13.5329V12.9233H37.7321V13.4263C37.7321 14.1303 37.9332 14.6332 38.2853 14.8847C38.6373 15.1362 39.3917 15.2367 40.4463 15.2367C41.7539 15.2367 42.6591 15.0843 43.0599 14.8344C43.4607 14.5845 43.6695 14.08 43.6695 13.2754C43.6695 12.1202 43.1666 11.567 42.112 11.567C39.7 11.567 38.0912 11.3638 37.2856 10.9574C36.5312 10.5642 36.1349 9.71078 36.1349 8.40168C36.1349 7.19622 36.4397 6.34127 37.0387 5.93894C37.6376 5.53661 38.8492 5.32935 40.6581 5.32935C43.5735 5.32935 45.0319 6.18429 45.0319 7.94449V8.29501L45.1264 8.30111Z" fill="white"/>
<path d="M9.3129 5.24097C8.31012 5.62044 7.86664 6.47081 7.69444 7.42178C7.40183 9.03872 7.63652 10.6846 7.56947 12.3168C7.56 12.72 7.51667 13.1217 7.43993 13.5177C7.38186 13.85 7.2142 14.1533 6.96368 14.3793C6.71316 14.6052 6.39421 14.7408 6.05768 14.7643C5.60049 14.8085 5.125 14.8359 4.65714 14.8405C4.18928 14.8451 3.71837 14.8085 3.2566 14.7643C2.91981 14.7411 2.6005 14.6057 2.34968 14.3797C2.09885 14.1537 1.93097 13.8503 1.87283 13.5177C1.7961 13.1217 1.75277 12.72 1.74329 12.3168C1.67624 10.6846 1.91246 9.03872 1.61985 7.42178C1.44764 6.47081 1.01026 5.62044 0.00138549 5.24097V13.3592C0.00138549 13.4979 0.00138549 13.5451 0.00138549 13.629C-0.0290941 14.5281 0.446387 15.1453 1.12456 15.6985C1.70672 16.1709 2.38641 16.2365 3.07068 16.3401H6.24208C6.92635 16.2365 7.61366 16.1709 8.1882 15.6985C8.86637 15.1453 9.34186 14.5281 9.3129 13.629C9.3129 13.5451 9.3129 13.4979 9.3129 13.3592V5.24097Z" fill="white"/>
<path d="M63.1094 15.3891C62.7543 14.7796 62.7665 14.6363 62.4023 14.0298C62.0469 13.4684 61.8685 12.8132 61.8902 12.1492C61.9283 10.8492 61.9039 9.54316 61.8216 8.24625C61.7668 7.38216 61.4787 6.79999 60.575 6.58054C59.5341 6.32908 58.4673 6.29708 57.4859 6.71008C57.2247 6.81447 56.9875 6.97121 56.7891 7.17065C56.5907 7.3701 56.4352 7.60804 56.3322 7.86983C56.0945 8.41846 56.0488 9.04482 56.0274 9.63765C55.9802 10.9071 56.0107 12.1781 56.0137 13.4476C56.0137 14.4824 56.0244 15.5156 56.0305 16.5504H54.3313C54.3313 15.4455 54.3541 14.3406 54.3465 13.2358C54.3333 11.5706 54.3099 9.90535 54.2764 8.24015C54.2627 7.49493 53.6394 6.76647 52.914 6.57597C52.2705 6.40846 51.5977 6.38711 50.945 6.51348C49.9117 6.70246 49.1741 7.26176 48.7824 8.25996C48.5036 8.96709 48.4959 9.71079 48.4594 10.4499C48.4304 11.0367 48.4517 11.6249 48.4594 12.2132C48.4594 13.6599 48.465 15.1057 48.4761 16.5504H46.7784V5.19524L47.7614 5.21201C48.2003 5.21201 48.4487 5.46499 48.4533 5.90389C48.4533 6.17669 48.4533 6.44796 48.4533 6.72075C48.7774 6.25454 49.1991 5.86451 49.6892 5.57776C50.107 5.34365 50.5615 5.18234 51.0334 5.10076C51.6864 4.97064 52.3575 4.95928 53.0145 5.06723C53.5982 5.16172 54.6437 5.33088 55.0186 5.86579C55.2683 6.10712 55.4659 6.39705 55.5992 6.7177C55.6274 6.76691 55.6595 6.8138 55.6952 6.85791C55.9138 6.49753 56.1921 6.17698 56.5182 5.90999C57.0597 5.48896 57.6986 5.21118 58.3759 5.10228C59.0393 4.96409 59.7229 4.95272 60.3906 5.06875C60.7838 5.09314 61.8033 5.21201 62.5242 5.98314C62.9996 6.49063 62.829 7.10021 62.9189 7.49645C62.992 7.80124 63.0713 8.10604 63.1429 8.41084L63.1094 15.3891Z" fill="white"/>
<path d="M76.2888 5.07028C76.8984 5.19525 77.5003 5.31869 77.9819 5.83227C78.494 6.37329 78.6433 7.08194 78.7012 7.55133C78.7408 7.87441 78.686 8.17616 78.7012 8.5343C78.7012 11.1144 78.7012 13.6945 78.7088 16.2761C78.7088 16.5291 78.6418 16.5657 78.4132 16.5565C77.9225 16.5352 77.4988 16.5367 77.0081 16.5367V8.38341C77.0055 7.98267 76.9106 7.58791 76.7307 7.22977C76.4884 6.72838 76.0053 6.56684 75.5115 6.49369C74.5575 6.35043 73.6066 6.33367 72.6769 6.68875C71.7001 7.06213 71.1834 7.79516 71.0249 8.78422C70.8436 9.90739 70.9686 11.0443 70.9548 12.1766C70.9548 12.6688 70.9167 13.1138 70.6028 13.5482C70.1456 14.173 69.9612 14.8161 69.536 15.4699C69.5192 15.4958 69.4796 15.5065 69.4507 15.5248V7.07737C69.4798 6.90235 69.552 6.73735 69.661 6.59731C69.9582 6.2087 70.1959 5.77741 70.49 5.38575C70.5799 5.2684 70.6836 5.10076 70.8466 5.15563C71.0097 5.21049 70.9548 5.39642 70.9579 5.53205C70.9676 5.7937 70.9635 6.05568 70.9457 6.3169C71.0809 6.05905 71.2817 5.84142 71.5279 5.68597C71.796 5.48654 72.093 5.32927 72.4087 5.21964C72.7356 5.11705 73.074 5.05562 73.4161 5.03676C73.7209 5.00628 73.9601 5.00323 74.0714 5.00171C75.2616 4.98647 75.8514 4.98647 76.2888 5.07028Z" fill="white"/>
<path d="M71.0341 4.20618C70.0404 4.62832 69.6015 5.57776 69.4309 6.63235C69.1398 8.43065 69.3729 10.2625 69.3074 12.0775C69.2978 12.5261 69.255 12.9733 69.1794 13.4156C69.027 14.237 68.4906 14.7277 67.8078 14.8009C67.3506 14.8497 66.8843 14.8817 66.421 14.8862C65.9577 14.8908 65.4914 14.8497 65.0327 14.8009C64.3514 14.7277 63.8135 14.237 63.6611 13.4156C63.5867 12.9732 63.5445 12.526 63.5346 12.0775C63.4675 10.2625 63.7007 8.43065 63.4111 6.63235C63.2404 5.57471 62.8015 4.62832 61.8064 4.20618V13.2388C61.8064 13.3912 61.8064 13.4445 61.8064 13.5436C61.7774 14.5449 62.2483 15.2322 62.9204 15.8463C63.4965 16.3721 64.1701 16.4453 64.8482 16.5611H67.9861C68.6643 16.4453 69.3379 16.3721 69.914 15.8463C70.586 15.2367 71.0569 14.5449 71.028 13.5436C71.028 13.4506 71.028 13.3912 71.028 13.2388L71.0341 4.20618Z" fill="white"/>
<path d="M64.8376 20.339C64.1594 20.8206 63.3319 21.2123 63.3319 21.7106H65.7002C65.8214 21.7106 65.9377 21.7588 66.0234 21.8445C66.1092 21.9303 66.1573 22.0466 66.1573 22.1678V22.3949H62.6095V22.1602C62.6095 21.3037 62.8656 20.9867 63.2648 20.6637C64.1442 19.955 65.2963 19.4734 65.2963 18.8349C65.2963 18.367 64.8604 18.0729 64.3408 18.0729C63.9851 18.083 63.6368 18.177 63.3243 18.3472C63.273 18.373 63.2159 18.3851 63.1586 18.3823C63.1013 18.3795 63.0456 18.3619 62.9971 18.3312C62.9486 18.3005 62.9089 18.2578 62.8819 18.2072C62.8548 18.1566 62.8413 18.0998 62.8427 18.0424C62.842 17.9791 62.8592 17.9169 62.8924 17.8629C62.9255 17.809 62.9733 17.7655 63.0301 17.7376C63.4481 17.5176 63.9127 17.4011 64.385 17.3978C65.3496 17.3978 66.0415 17.9174 66.0415 18.7373C66.0415 19.4216 65.56 19.827 64.8376 20.339Z" fill="white"/>
<path d="M68.6292 22.4695C67.3872 22.4695 66.485 21.4378 66.485 19.9413C66.485 18.4051 67.4177 17.4038 68.6186 17.4038C69.725 17.4038 70.6881 18.4051 70.6881 19.926C70.6912 21.4835 69.6899 22.4695 68.6292 22.4695ZM69.946 19.9215C69.946 18.9354 69.405 18.0698 68.6064 18.0698C67.8078 18.0698 67.2348 18.9354 67.2348 19.9504C67.2348 20.9654 67.8292 21.8097 68.5744 21.8097C69.3745 21.8066 69.946 20.9562 69.946 19.9215Z" fill="white"/>
<path d="M73.2499 20.339C72.5718 20.8206 71.7443 21.2123 71.7443 21.7106H74.1643C74.2712 21.711 74.3735 21.7538 74.4489 21.8294C74.5243 21.9051 74.5667 22.0076 74.5667 22.1145V22.3888H71.0219V22.1541C71.0219 21.2976 71.2779 20.9806 71.6772 20.6576C72.5565 19.9489 73.7087 19.4673 73.7087 18.8288C73.7087 18.3609 73.2728 18.0668 72.7531 18.0668C72.3974 18.0767 72.0491 18.1707 71.7366 18.3411C71.6854 18.3669 71.6283 18.379 71.571 18.3762C71.5136 18.3734 71.458 18.3558 71.4095 18.3251C71.361 18.2944 71.3213 18.2517 71.2942 18.2011C71.2672 18.1504 71.2537 18.0937 71.2551 18.0363C71.2543 17.973 71.2715 17.9108 71.3047 17.8568C71.3379 17.8029 71.3857 17.7594 71.4425 17.7315C71.8604 17.5115 72.325 17.395 72.7973 17.3917C73.762 17.3917 74.4539 17.9113 74.4539 18.7312C74.4539 19.4216 73.9723 19.827 73.2499 20.339Z" fill="white"/>
<path d="M77.5872 19.7599V19.7752C78.2791 19.8651 78.7241 20.272 78.7241 20.9258C78.7241 21.7548 77.9789 22.4696 76.8191 22.4696C76.3549 22.4618 75.8987 22.3477 75.4856 22.1358C75.428 22.1083 75.3793 22.0651 75.345 22.0112C75.3108 21.9573 75.2925 21.8949 75.2921 21.831C75.2916 21.773 75.3061 21.7159 75.3341 21.6651C75.362 21.6142 75.4026 21.5715 75.4519 21.5409C75.5012 21.5103 75.5575 21.4928 75.6154 21.4903C75.6734 21.4877 75.731 21.5001 75.7828 21.5262C76.098 21.7015 76.4509 21.7982 76.8115 21.8082C77.4668 21.8082 77.9789 21.4104 77.9789 20.9136C77.9789 20.4168 77.5217 20.1303 76.8801 20.1303H75.7584V19.513H76.5936C77.2108 19.513 77.7381 19.2342 77.7381 18.7831C77.7381 18.3685 77.354 18.0759 76.7521 18.0759C76.4086 18.077 76.0712 18.1662 75.7721 18.335C75.7234 18.3626 75.6683 18.377 75.6123 18.3768C75.5563 18.3765 75.5013 18.3617 75.4528 18.3337C75.4043 18.3056 75.3639 18.2654 75.3357 18.217C75.3076 18.1686 75.2925 18.1137 75.2921 18.0576C75.2924 17.9973 75.3096 17.9382 75.3416 17.8871C75.3736 17.8359 75.4193 17.7947 75.4734 17.7681C75.9001 17.5418 76.3743 17.4201 76.8572 17.413C77.8051 17.413 78.4833 17.9174 78.4833 18.6398C78.4757 19.1595 78.1816 19.542 77.5872 19.7599Z" fill="white"/>
</svg>
