<svg width="14" height="15" viewBox="0 0 14 15" fill="none" xmlns="http://www.w3.org/2000/svg">
<path d="M1.16667 15C0.845833 15 0.571181 14.8898 0.342708 14.6695C0.114236 14.4492 0 14.1844 0 13.875V2.625C0 2.31563 0.114236 2.05078 0.342708 1.83047C0.571181 1.61016 0.845833 1.5 1.16667 1.5H5.15278C5.21759 1.0625 5.425 0.703125 5.775 0.421875C6.125 0.140625 6.53333 0 7 0C7.46667 0 7.875 0.140625 8.225 0.421875C8.575 0.703125 8.78241 1.0625 8.84722 1.5H12.8333C13.1542 1.5 13.4288 1.61016 13.6573 1.83047C13.8858 2.05078 14 2.31563 14 2.625V13.875C14 14.1844 13.8858 14.4492 13.6573 14.6695C13.4288 14.8898 13.1542 15 12.8333 15H1.16667ZM1.16667 13.875H12.8333V2.625H1.16667V13.875ZM3.11111 12H8.41945V10.875H3.11111V12ZM3.11111 8.8125H10.8889V7.6875H3.11111V8.8125ZM3.11111 5.625H10.8889V4.5H3.11111V5.625ZM7 2.30625C7.18148 2.30625 7.34028 2.24063 7.47639 2.10938C7.6125 1.97813 7.68056 1.825 7.68056 1.65C7.68056 1.475 7.6125 1.32188 7.47639 1.19063C7.34028 1.05938 7.18148 0.99375 7 0.99375C6.81852 0.99375 6.65972 1.05938 6.52361 1.19063C6.3875 1.32188 6.31944 1.475 6.31944 1.65C6.31944 1.825 6.3875 1.97813 6.52361 2.10938C6.65972 2.24063 6.81852 2.30625 7 2.30625Z" fill="#1E2F23"/>
</svg>
