<svg width="13" height="13" viewBox="0 0 13 13" fill="none" xmlns="http://www.w3.org/2000/svg">
<path d="M2.83472 10.1292H7.8V9.04583H2.83472V10.1292ZM2.83472 7.04167H10.1653V5.95833H2.83472V7.04167ZM2.83472 3.95417H10.1653V2.87083H2.83472V3.95417ZM1.08333 13C0.794445 13 0.541667 12.8917 0.325 12.675C0.108333 12.4583 0 12.2056 0 11.9167V1.08333C0 0.794445 0.108333 0.541667 0.325 0.325C0.541667 0.108333 0.794445 0 1.08333 0H11.9167C12.2056 0 12.4583 0.108333 12.675 0.325C12.8917 0.541667 13 0.794445 13 1.08333V11.9167C13 12.2056 12.8917 12.4583 12.675 12.675C12.4583 12.8917 12.2056 13 11.9167 13H1.08333ZM1.08333 11.9167H11.9167V1.08333H1.08333V11.9167Z" fill="#1E2F23"/>
</svg>
