<svg width="360" height="1066" viewBox="0 0 360 1066" fill="none" xmlns="http://www.w3.org/2000/svg">
<g style="mix-blend-mode:soft-light">
<path d="M523.682 680.602C530.436 732.959 528.228 782.69 515.808 825.202C506.154 858.125 490.633 887.309 466.113 903.887C441.593 920.466 407.269 923.264 372.442 905.379C305.208 870.828 260.192 777.06 233.985 696.394C200.489 593.339 179.405 487.212 191.943 398.28C204.48 309.348 255.219 240.369 333.954 237.27C404.699 234.477 485.982 282.669 562.423 304.348C631.234 323.857 695.957 321.786 762.987 331.117C830.017 340.449 903.817 363.997 967.551 423.553C1031.29 483.108 1078.59 586.878 1056.17 650.028" stroke="#6C7983" stroke-miterlimit="10"/>
<path d="M521.115 682.331C524.249 710.881 524.584 738.483 522.111 764.601C520.163 785.096 516.335 804.485 510.683 822.49C500.443 854.972 484.163 883.264 459.289 899.179C434.804 914.834 401.063 917.376 366.743 899.594C302.154 866.153 258.082 777.898 232.015 699.753C231.352 697.761 230.689 695.768 230.047 693.778C197.115 592.219 177.206 487.811 190.816 401.237C199.682 344.81 224.707 297.396 262.206 269.796C282.811 254.626 307.296 245.463 335.056 244.207C358.499 243.119 382.983 247.407 407.971 254.221C458.126 267.894 510.105 291.749 560.147 304.389C583.489 310.292 606.39 313.737 629.15 316.105C672.227 320.599 714.84 321.329 758.547 327.231C803.038 333.248 850.563 345.786 896.175 370.966C919.083 383.438 941.53 399.744 962.673 419.273C1026.33 478.569 1073.76 581.31 1053.18 644.983" stroke="#6F7C85" stroke-miterlimit="10"/>
<path d="M518.454 684.151C520.854 711.383 520.675 737.67 517.921 762.546C515.671 782.881 511.525 802.064 505.544 819.818C494.702 851.837 477.692 879.266 452.449 894.495C428.015 909.233 394.843 911.497 361.057 893.877C297.423 860.678 253.691 774.106 228.049 697.109C227.393 695.138 226.75 693.179 226.122 691.231C193.754 591.168 175.021 488.463 189.646 404.299C199.284 348.803 225.335 303.045 263.178 276.302C283.943 261.341 308.702 252.821 336.114 251.202C359.423 249.981 383.721 253.826 408.405 259.945C457.916 272.188 508.752 293.667 557.827 304.489C580.724 309.552 603.207 312.264 625.661 314.078C668.14 317.471 710.503 317.705 754.091 323.355C798.429 329.126 845.848 341.606 891.366 366.814C914.212 379.299 936.599 395.568 957.702 415.02C1021.24 474.107 1068.85 575.792 1050.1 639.903" stroke="#738189" stroke-miterlimit="10"/>
<path d="M515.672 685.907C517.398 711.82 516.765 736.806 513.782 760.46C511.221 780.632 506.754 799.612 500.448 817.118C489.027 848.677 471.272 875.236 445.653 889.784C421.282 903.628 388.666 905.607 355.407 888.123C292.728 855.165 249.349 770.266 224.119 694.425C223.472 692.49 222.836 690.558 222.213 688.629C190.415 590.057 172.886 489.068 188.526 407.282C198.958 352.734 226.022 308.642 264.217 282.735C285.199 268.283 309.928 259.975 337.186 258.22C360.383 256.851 384.48 260.263 408.846 265.68C457.749 276.533 507.44 295.652 555.535 304.618C577.967 308.822 600.046 310.825 622.179 312.063C664.074 314.376 706.172 314.108 749.564 319.539C793.755 325.075 841.06 337.534 886.534 362.785C909.342 375.245 931.695 391.462 952.779 410.846C1016.21 469.691 1063.98 570.324 1047.07 635.042" stroke="#76838B" stroke-miterlimit="10"/>
<path d="M512.755 687.638C513.864 712.244 512.815 735.943 509.621 758.387C506.751 778.394 501.966 797.168 495.338 814.428C483.294 845.538 464.837 871.215 438.835 885.086C414.543 898.043 382.475 899.725 349.7 882.389C288.012 849.65 244.93 766.414 220.161 691.745C219.518 689.833 218.875 687.889 218.289 686.035C187.062 588.954 170.751 489.704 187.378 410.267C198.604 356.652 226.686 314.237 265.219 289.175C286.433 275.193 311.168 267.081 338.316 265.201C361.387 263.678 385.29 266.652 409.337 271.384C457.625 280.819 506.102 297.53 553.28 304.692C575.245 308.039 596.935 309.338 618.748 309.999C660.044 311.228 701.885 310.468 745.13 315.664C789.168 320.94 836.365 333.403 881.734 358.596C904.483 371.051 926.778 387.232 947.815 406.557C1011.13 465.165 1059.08 564.754 1044 629.977" stroke="#7A878E" stroke-miterlimit="10"/>
<path d="M509.716 689.337C510.268 712.648 508.841 735.077 505.453 756.319C502.293 776.182 497.198 794.767 490.249 811.787C477.611 842.445 458.444 867.261 432.045 880.433C407.817 892.48 376.304 893.893 344.079 876.664C283.289 844.139 240.559 762.64 216.202 689.064C215.58 687.185 214.958 685.307 214.365 683.442C183.73 587.854 168.631 490.332 186.244 413.275C198.285 360.61 227.336 319.873 266.235 295.621C287.668 282.129 312.388 274.204 339.396 272.167C362.355 270.497 386.057 273.037 409.807 277.069C457.466 285.112 504.827 299.445 550.975 304.752C572.509 307.281 593.774 307.836 615.274 307.917C655.985 308.066 697.563 306.803 740.682 311.799C784.566 316.844 831.649 329.286 876.932 354.47C899.627 366.925 921.87 383.065 942.872 402.318C1006.05 460.656 1054.2 559.233 1040.93 624.997" stroke="#7E8A8F" stroke-miterlimit="10"/>
<path d="M506.563 690.998C506.584 713.01 504.819 734.179 501.292 754.247C497.811 773.934 492.386 792.299 485.103 809.056C471.835 839.27 452.003 863.214 425.199 875.691C401.069 886.931 370.078 887.955 338.372 870.867C278.538 838.584 236.196 758.799 212.244 686.383C211.629 684.531 211.028 682.686 210.441 680.848C180.348 586.77 166.539 490.972 185.103 416.272C197.981 364.543 228.023 325.454 267.245 302.072C288.894 289.064 313.605 281.328 340.483 279.144C363.308 277.294 386.823 279.438 410.248 282.773C457.313 289.417 503.481 301.312 548.719 304.889C569.794 306.572 590.647 306.405 611.827 305.925C651.933 304.978 693.226 303.164 736.198 307.94C779.936 312.735 826.904 325.171 872.095 350.304C894.74 362.746 916.935 378.844 937.901 398.034C1000.98 456.184 1049.31 553.658 1037.88 619.935" stroke="#828D91" stroke-miterlimit="10"/>
<path d="M503.312 692.581C502.874 713.318 500.818 733.248 497.167 752.151C493.377 771.678 487.637 789.841 480.036 806.354C466.189 836.091 445.646 859.222 418.424 870.982C394.408 881.343 363.93 882.063 332.737 865.119C273.843 833.118 231.819 754.982 208.286 683.718C207.684 681.904 207.09 680.086 206.517 678.27C176.995 585.699 164.468 491.631 183.969 419.296C197.655 368.506 228.687 331.08 268.261 308.535C290.121 296.007 314.823 288.455 341.57 286.122C364.311 284.168 387.619 285.821 410.718 288.474C457.154 293.71 502.164 303.223 546.422 304.928C567.045 305.76 587.494 304.883 608.361 303.822C647.89 301.791 688.931 299.544 731.708 304.023C775.292 308.589 822.146 321.002 867.286 346.152C889.878 358.601 912.02 374.662 932.951 393.784C995.923 451.704 1044.38 548.133 1034.82 614.919" stroke="#859094" stroke-miterlimit="10"/>
<path d="M499.867 694.145C499.018 713.627 496.709 732.343 492.963 750.106C488.867 769.471 482.805 787.425 474.875 803.68C460.406 832.921 439.217 855.259 411.563 866.296C387.681 875.843 357.688 876.197 327.016 859.378C269.127 827.602 227.435 751.154 204.334 681.033C203.732 679.235 203.159 677.45 202.585 675.665C173.641 584.581 162.418 492.276 182.82 422.282C197.351 372.439 229.351 336.675 269.263 314.975C291.334 302.943 316.028 295.584 342.642 293.108C365.271 291.007 388.342 292.249 411.166 294.189C456.987 298.023 500.832 305.143 544.123 305.03C564.294 305.01 584.318 303.405 604.879 301.775C643.795 298.667 684.63 295.897 727.238 300.156C770.676 304.471 817.409 316.867 862.477 342.015C885.021 354.463 907.117 370.492 928.014 389.555C990.876 447.25 1039.51 542.623 1031.78 609.926" stroke="#899496" stroke-miterlimit="10"/>
<path d="M496.353 695.629C495.128 713.865 492.604 731.385 488.802 748.033C484.403 767.244 478.02 784.994 469.758 800.994C454.716 829.817 432.853 851.271 404.752 861.609C380.998 870.331 351.497 870.316 321.352 853.617C264.433 822.074 223.079 747.34 200.39 678.343C199.81 676.578 199.207 674.843 198.683 673.074C170.296 583.474 160.398 492.934 181.708 425.26C197.09 376.376 230.024 342.234 270.301 321.408C292.579 309.864 317.269 302.696 343.758 300.083C366.268 297.824 389.16 298.618 411.644 299.886C456.856 302.314 499.543 307.036 541.854 305.098C561.58 304.238 581.2 301.907 601.434 299.705C639.758 295.508 680.335 292.293 722.791 296.259C766.033 300.277 812.7 312.73 857.683 337.853C880.169 350.286 902.21 366.267 923.065 385.258C985.809 442.715 1034.62 537.044 1028.72 604.864" stroke="#8D989A" stroke-miterlimit="10"/>
<path d="M492.71 697.037C491.171 714.059 488.471 730.411 484.634 745.965C479.927 765.011 473.226 782.55 464.641 798.292C449.018 826.702 426.453 847.338 397.934 856.912C374.321 864.831 345.327 864.405 315.666 847.885C259.681 816.581 218.673 743.51 196.39 675.626C195.816 673.889 195.241 672.182 194.724 670.456C166.907 582.363 158.363 493.585 180.532 428.233C196.793 380.305 230.667 347.843 271.268 327.823C293.757 316.779 318.448 309.8 344.81 307.035C367.2 304.634 389.891 304.995 412.064 305.556C456.662 306.583 498.176 308.917 539.535 305.151C558.802 303.444 578.018 300.403 597.938 297.636C635.671 292.348 675.964 288.597 718.279 292.371C761.437 296.224 807.976 308.648 852.86 333.725C875.294 346.157 897.285 362.094 918.108 381.012C980.733 438.233 1029.71 531.509 1025.65 599.857" stroke="#919B9C" stroke-miterlimit="10"/>
<path d="M488.955 698.361C487.15 714.194 484.316 729.407 480.473 743.893C475.462 762.778 468.444 780.11 459.538 795.598C443.3 823.522 420.081 843.402 391.131 852.205C367.666 859.333 339.114 858.537 310.003 842.124C254.958 811.07 214.296 739.693 192.459 672.99C191.899 671.291 191.339 669.591 190.821 667.896C163.533 581.243 156.405 494.313 179.412 431.263C196.552 384.308 231.36 353.483 272.32 334.326C295.011 323.75 319.707 316.94 345.954 314.023C368.232 311.474 390.729 311.413 412.584 311.273C456.573 310.894 496.909 310.827 537.308 305.254C556.123 302.697 574.928 298.934 594.528 295.591C631.663 289.217 671.705 284.97 713.867 288.499C756.85 292.088 803.254 304.457 848.095 329.546C870.475 341.973 892.415 357.869 913.201 376.719C975.723 433.725 1024.84 525.89 1022.65 594.81" stroke="#949E9D" stroke-miterlimit="10"/>
<path d="M485.093 699.596C483.063 714.262 480.13 728.361 476.312 741.805C471 760.548 463.659 777.684 454.413 792.916C437.574 820.378 413.752 839.47 384.306 847.512C360.961 853.819 332.936 852.709 304.338 836.426C250.234 805.56 209.912 735.866 188.501 670.31C187.947 668.637 187.415 666.966 186.897 665.302C160.207 580.201 154.448 495.024 178.277 434.271C196.34 388.323 232.017 359.082 273.315 340.755C296.209 330.7 320.907 324.1 347.026 321.057C369.192 318.361 391.488 317.866 413.038 317.046C456.398 315.274 495.583 312.806 535.009 305.403C553.379 302.006 571.773 297.522 591.074 293.635C627.624 286.183 667.395 281.438 709.417 284.727C752.247 288.071 798.537 300.434 843.285 325.518C865.597 337.908 887.475 353.735 908.215 372.491C970.619 429.26 1019.94 520.429 1019.55 589.806" stroke="#98A1A0" stroke-miterlimit="10"/>
<path d="M481.119 700.746C478.912 714.287 475.912 727.309 472.137 739.741C466.515 758.324 458.854 775.254 449.289 790.235C431.856 817.245 407.402 835.568 377.481 842.819C354.347 848.419 326.688 846.785 298.639 830.64C245.511 800.049 205.514 732.015 184.543 667.629C184.01 665.989 183.492 664.341 182.973 662.708C156.832 579.128 152.505 495.742 177.136 437.268C196.086 392.256 232.689 364.688 274.331 347.201C297.413 337.63 322.108 331.206 348.099 328.011C370.153 325.168 392.241 324.229 413.466 322.696C456.211 319.523 494.238 314.672 532.704 305.447C550.608 301.207 568.591 295.986 587.558 291.501C623.523 282.985 663.03 277.722 704.892 280.77C747.575 283.88 793.751 296.221 838.42 321.292C860.696 333.709 882.536 349.528 903.25 368.249C965.536 424.782 1015.06 514.877 1016.46 584.777" stroke="#9CA4A2" stroke-miterlimit="10"/>
<path d="M477.045 701.787C474.701 714.231 471.673 726.211 467.976 737.668C462.046 756.094 454.067 772.818 444.178 787.545C426.137 814.096 401.072 831.683 370.691 838.166C347.705 842.991 320.511 840.895 292.967 824.9C240.81 794.54 201.164 728.228 180.598 664.97C180.065 663.347 179.575 661.727 179.049 660.131C153.508 578.023 150.604 496.496 176.002 440.276C195.888 396.263 233.326 370.254 275.341 353.652C298.618 344.578 323.321 338.338 349.193 335C371.127 332.014 393.015 330.641 413.929 328.417C454.158 324.201 493.066 316.556 530.413 305.528C547.865 300.438 565.437 294.495 584.098 289.456C619.43 279.783 658.715 274.084 700.429 276.898C742.98 279.795 789.013 292.086 833.611 317.155C855.834 329.561 877.623 345.334 898.301 363.983C960.475 420.29 1010.14 509.363 1013.42 579.784" stroke="#9FA8A5" stroke-miterlimit="10"/>
<path d="M472.881 702.73C470.442 714.118 467.413 725.09 463.808 735.6C457.558 753.851 449.248 770.351 439.026 784.803C420.391 810.903 394.715 827.754 363.86 833.368C341.092 837.512 314.328 834.962 287.318 819.114C236.116 789.012 196.817 724.377 176.669 662.256C176.15 660.67 175.681 659.069 175.154 657.503C150.149 576.847 148.747 497.223 174.89 443.239C195.719 400.236 234.062 375.882 276.387 360.065C299.432 351.398 324.522 345.647 350.309 341.943C372.131 338.81 393.818 337.003 414.421 334.089C455.914 328.112 491.611 318.428 528.158 305.587C545.144 299.623 562.334 293.004 580.667 287.378C615.428 276.664 654.435 270.424 695.989 272.997C738.329 275.637 784.283 287.962 828.795 313.007C850.967 325.411 872.708 341.147 893.351 359.733C955.414 415.814 1005.25 503.819 1010.36 574.769" stroke="#A3ABA7" stroke-miterlimit="10"/>
<path d="M468.618 703.548C466.118 713.902 463.151 723.927 459.647 733.528C453.112 751.655 444.499 767.981 433.965 782.207C414.728 807.843 388.455 823.996 357.048 828.76C334.47 832.196 308.142 829.17 281.625 813.418C231.37 783.546 192.417 720.606 172.696 659.631C172.183 658.072 171.699 656.527 171.222 654.977C146.823 575.805 146.846 498.024 173.713 446.258C195.513 404.279 234.719 381.482 277.36 366.539C300.584 358.335 325.713 352.823 351.36 348.943C373.07 345.662 394.556 343.422 414.84 339.806C455.74 332.429 490.271 320.384 525.846 305.698C542.393 298.921 559.151 291.547 577.171 285.339C611.334 273.54 650.084 266.808 691.491 269.147C733.713 271.52 779.546 283.827 823.994 308.866C846.111 321.263 867.798 336.96 888.401 355.482C950.346 411.327 1000.34 498.253 1007.33 569.74" stroke="#A6AEAA" stroke-miterlimit="10"/>
<path d="M464.278 704.243C461.753 713.629 458.827 722.708 455.5 731.477C448.647 749.436 439.707 765.544 428.847 779.505C409.01 804.695 382.146 820.161 350.209 824.029C327.799 826.769 301.881 823.192 275.919 807.637C226.619 777.991 188.012 716.744 168.709 656.906C168.218 655.38 167.733 653.851 167.27 652.339C143.42 574.718 144.995 498.809 172.572 449.255C195.351 408.31 235.348 387.099 278.369 372.975C301.758 365.227 326.94 359.961 352.447 355.92C374.031 352.486 395.323 349.808 415.289 345.506C455.573 336.727 488.932 322.293 523.533 305.762C539.629 298.134 556.017 290.105 573.682 283.266C607.261 270.387 645.747 263.153 686.972 265.217C729.09 267.406 774.794 279.701 819.192 304.74C841.253 317.129 862.887 332.782 883.45 351.232C945.278 406.839 995.461 492.701 1004.24 564.727" stroke="#ABB2AC" stroke-miterlimit="10"/>
<path d="M459.847 704.824C457.355 713.279 454.512 721.466 451.317 729.387C444.147 747.197 434.879 763.105 423.687 776.815C403.248 801.542 375.801 816.348 343.369 819.361C321.184 821.416 295.695 817.385 270.218 801.914C221.903 772.491 183.634 712.928 164.729 654.254C164.244 652.756 163.773 651.264 163.324 649.774C140.045 573.645 143.149 499.668 171.409 452.281C195.194 412.399 235.997 392.734 279.356 379.455C302.939 372.161 328.146 367.143 353.512 362.927C374.983 359.345 396.068 356.238 415.737 351.236C455.399 341.045 487.593 324.218 521.242 305.891C536.885 297.411 552.821 288.594 570.178 281.279C603.151 267.304 641.387 259.574 682.48 261.441C724.402 263.318 770.013 275.608 814.304 300.621C836.316 313.009 857.903 328.623 878.435 347.007C940.152 402.388 990.501 487.245 1001.12 559.752" stroke="#AFB6AF" stroke-miterlimit="10"/>
<path d="M455.354 705.274C452.904 712.848 450.193 720.212 447.157 727.314C439.69 744.963 430.11 760.656 418.599 774.095C397.588 798.357 369.541 812.544 336.587 814.641C314.599 816.03 289.547 811.507 264.505 796.106C217.116 766.943 179.194 709.073 160.736 651.517C160.265 650.057 159.808 648.588 159.365 647.125C136.657 572.503 141.313 500.459 170.233 455.222C195.032 416.414 236.62 398.278 280.331 385.834C304.078 379.028 329.36 374.227 354.564 369.848C375.923 366.119 396.807 362.578 416.157 356.891C455.211 345.294 486.241 326.073 518.952 305.894C534.144 296.579 549.668 287.04 566.734 279.115C599.123 264.061 637.095 255.828 678.034 257.45C719.803 259.097 765.299 271.366 809.512 296.365C831.481 308.776 853.025 324.382 873.521 342.734C935.149 397.876 985.65 481.691 998.072 554.732" stroke="#B3B8B0" stroke-miterlimit="10"/>
<path d="M450.784 705.6C448.423 712.337 445.82 718.888 442.974 725.255C435.197 742.751 425.295 758.24 413.46 771.423C391.826 795.251 363.231 808.818 329.741 809.961C307.992 810.688 283.334 805.608 258.92 790.389C212.485 761.467 174.895 705.27 156.87 648.872C156.399 647.427 155.956 645.996 155.52 644.56C133.382 571.429 139.625 501.36 169.185 458.239C195.026 420.55 237.378 403.909 281.426 392.31C305.351 385.966 330.659 381.414 355.758 376.883C376.998 373.011 397.688 369.032 416.72 362.643C455.158 349.66 485.03 328.042 516.739 306.051C531.486 295.88 546.599 285.636 563.352 277.146C595.989 260.477 633.322 252.53 673.649 253.67C715.271 255.066 760.654 267.328 804.788 292.315C826.693 304.692 848.178 320.225 868.636 338.474C930.131 393.404 980.863 476.126 995.116 549.7" stroke="#B6BCB3" stroke-miterlimit="10"/>
<path d="M446.158 705.791C443.906 711.735 441.46 717.526 438.82 723.163C430.733 740.501 420.512 755.784 408.357 768.712C386.122 792.078 356.978 805.072 322.937 805.239C301.384 805.346 277.136 799.715 253.213 784.64C207.748 755.966 170.496 701.467 152.89 646.205C152.439 644.794 152.003 643.389 151.574 641.98C130.007 570.356 137.836 502.277 168.021 461.249C194.925 424.697 238.02 409.533 282.421 398.77C306.511 392.882 331.864 388.581 356.809 383.852C377.936 379.832 398.419 375.409 417.09 368.298C454.934 353.947 483.613 329.891 514.362 306.093C528.643 295.08 543.359 284.105 559.799 275.05C591.797 257.352 628.848 248.77 669.087 249.735C710.555 250.902 755.86 263.12 799.886 288.128C821.741 300.494 843.178 315.985 863.6 334.168C924.955 388.875 975.833 470.543 991.96 544.623" stroke="#B9BFB5" stroke-miterlimit="10"/>
<path d="M441.492 705.883C439.379 711.076 437.104 716.149 434.666 721.101C426.267 738.286 415.724 753.364 403.246 766.038C380.396 788.965 350.702 801.386 316.126 800.552C294.783 800.032 270.937 793.838 247.541 778.899C203.024 750.455 166.125 697.661 148.96 643.506C148.517 642.122 148.094 640.755 147.686 639.379C126.646 569.258 136.09 503.198 166.866 464.224C194.847 428.831 238.671 415.105 283.416 405.199C307.685 399.774 333.092 395.719 357.853 390.825C378.876 386.654 399.157 381.797 417.566 374.026C454.768 358.229 482.309 331.825 512.092 306.192C525.921 294.344 540.226 282.648 556.346 273.016C587.701 254.308 624.474 245.096 664.632 245.89C705.982 246.82 751.143 259.05 795.148 284.055C816.951 296.423 838.339 311.876 858.728 329.993C919.986 384.45 971.03 465.098 988.981 539.683" stroke="#BDC2B8" stroke-miterlimit="10"/>
<path d="M436.777 705.818C434.8 710.316 432.711 714.729 430.512 719.055C421.809 736.092 410.947 750.965 398.143 763.374C374.699 785.803 344.455 797.745 309.322 795.877C288.196 794.755 264.781 788.013 241.856 773.183C198.323 744.931 161.742 693.818 144.973 640.843C144.571 639.542 144.128 638.141 143.733 636.804C123.293 568.156 134.358 504.157 165.746 467.254C194.825 433.054 239.357 420.734 284.44 411.657C308.887 406.71 334.333 402.894 358.976 397.81C379.886 393.492 399.96 388.206 418.036 379.743C454.623 362.545 480.999 333.747 509.815 306.312C523.192 293.613 537.094 281.19 552.886 270.987C583.591 251.271 620.087 241.421 660.169 242.033C701.323 242.698 746.363 254.91 790.282 279.892C812.02 292.234 833.345 307.629 853.686 325.66C914.841 379.902 966.051 459.499 985.84 534.596" stroke="#C0C5BB" stroke-miterlimit="10"/>
<path d="M432.051 705.606C430.246 709.468 428.346 713.245 426.352 716.936C417.334 733.812 406.152 748.478 393.034 760.637C368.995 782.63 338.186 794.071 302.534 791.115C281.617 789.395 258.591 782.021 236.229 767.352C193.608 739.384 157.401 689.947 141.051 638.108C140.628 636.789 140.233 635.483 139.867 634.19C119.99 567.053 132.69 505.107 164.663 470.23C194.86 437.257 240.079 426.324 285.507 418.087C310.105 413.575 335.625 410.039 360.121 404.767C380.911 400.306 400.792 394.582 418.571 385.419C454.542 366.82 479.761 335.624 507.611 306.355C520.535 292.804 534.026 279.661 549.512 268.888C579.565 248.182 615.788 237.701 655.801 238.134C696.744 238.573 741.612 250.753 785.496 275.725C807.193 288.077 828.48 303.45 848.793 321.436C909.83 375.442 961.214 453.982 982.834 529.596" stroke="#C5C9BC" stroke-miterlimit="10"/>
<path d="M427.247 705.302C425.623 708.554 423.935 711.748 422.184 714.883C412.855 731.609 401.351 746.07 387.909 757.971C363.276 779.512 331.909 790.479 295.687 786.466C274.972 784.155 252.356 776.183 230.521 761.649C188.855 733.923 152.98 686.173 137.063 635.493C136.654 634.196 136.252 632.894 135.857 631.588C116.587 565.982 130.921 506.135 163.45 473.21C194.78 441.5 240.68 431.913 286.452 424.516C311.236 420.494 336.782 417.159 361.143 411.738C381.815 407.119 401.494 400.961 418.962 391.107C454.318 371.107 478.365 337.507 505.256 306.415C517.728 292.029 530.808 278.163 545.973 266.83C575.35 245.123 611.29 233.993 651.231 234.235C692.092 234.431 736.91 246.627 780.666 271.555C802.309 283.907 823.544 299.239 843.822 317.153C904.74 370.921 956.291 448.41 979.749 524.552" stroke="#C8CDBF" stroke-miterlimit="10"/>
<path d="M422.446 704.857C421.016 707.553 419.535 710.203 418.001 712.809C408.369 729.389 396.548 743.649 382.784 755.29C357.55 776.368 325.632 786.919 288.862 781.773C268.018 778.949 246.084 770.086 224.836 755.902C184.132 728.412 148.638 682.412 133.105 632.812C132.689 631.519 132.328 630.285 131.954 629.028C113.219 564.873 129.244 507.215 162.323 476.245C194.806 445.833 241.351 437.55 287.475 431.006C312.438 427.445 338.023 424.35 362.237 418.758C382.796 413.991 402.275 407.4 419.425 396.844C454.165 375.442 477.025 339.479 502.978 306.55C514.978 291.279 527.667 276.726 542.485 264.756C570.706 242.089 606.885 230.396 646.748 230.345C687.462 230.291 732.159 242.469 775.836 267.385C797.442 279.743 818.641 295.051 838.893 312.92C899.728 366.507 951.425 442.896 976.721 519.565" stroke="#CCCFC1" stroke-miterlimit="10"/>
<path d="M417.632 704.28C416.396 706.466 415.139 708.619 413.84 710.736C403.902 727.155 391.769 741.203 377.695 752.586C351.861 773.217 319.39 783.368 282.066 777.062C261.464 773.553 239.959 764.35 219.179 750.152C179.438 722.883 144.226 678.524 129.168 630.118C128.745 628.83 128.412 627.655 128.052 626.42C109.888 563.773 127.553 508.304 161.204 479.228C194.854 450.152 242.022 443.156 288.47 437.466C313.604 434.373 339.228 431.517 363.309 425.744C383.749 420.835 403.027 413.81 419.873 402.559C453.999 379.756 475.714 341.385 500.673 306.641C512.241 290.552 524.506 275.255 539.038 262.765C566.667 239.024 602.59 226.823 642.292 226.531C682.853 226.231 727.449 238.41 771.048 263.313C792.584 275.653 813.718 290.904 833.921 308.683C894.618 362 946.516 437.377 973.65 514.559" stroke="#CFD2C4" stroke-miterlimit="10"/>
<path d="M412.813 703.582C411.785 705.296 410.743 706.989 409.665 708.657C380.783 754.196 333.791 783.99 275.198 772.334C216.605 760.677 147.502 699.416 125.188 627.45C105.758 564.787 125.21 509.941 160.026 482.263C194.842 454.585 242.687 448.767 289.479 443.901C336.271 439.036 384.35 434.266 420.336 408.265C469.368 372.846 490.656 301.971 535.578 260.704C590.234 210.507 680.121 209.907 766.239 259.16C852.357 308.413 931.989 405.987 970.6 509.539" stroke="#D3D6C7" stroke-miterlimit="10"/>
</g>
</svg>
