<svg width="14" height="15" viewBox="0 0 14 15" fill="none" xmlns="http://www.w3.org/2000/svg">
<path d="M1.16667 15C0.855556 15 0.583333 14.8875 0.35 14.6625C0.116667 14.4375 0 14.175 0 13.875V2.25C0 1.95 0.116667 1.6875 0.35 1.4625C0.583333 1.2375 0.855556 1.125 1.16667 1.125H2.43056V0H3.69444V1.125H10.3056V0H11.5694V1.125H12.8333C13.1444 1.125 13.4167 1.2375 13.65 1.4625C13.8833 1.6875 14 1.95 14 2.25V13.875C14 14.175 13.8833 14.4375 13.65 14.6625C13.4167 14.8875 13.1444 15 12.8333 15H1.16667ZM1.16667 13.875H12.8333V5.8125H1.16667V13.875ZM1.16667 4.6875H12.8333V2.25H1.16667V4.6875ZM7 9C6.77963 9 6.59491 8.92813 6.44583 8.78438C6.29676 8.64062 6.22222 8.4625 6.22222 8.25C6.22222 8.0375 6.29676 7.85938 6.44583 7.71563C6.59491 7.57188 6.77963 7.5 7 7.5C7.22037 7.5 7.40509 7.57188 7.55417 7.71563C7.70324 7.85938 7.77778 8.0375 7.77778 8.25C7.77778 8.4625 7.70324 8.64062 7.55417 8.78438C7.40509 8.92813 7.22037 9 7 9ZM3.88889 9C3.66852 9 3.4838 8.92813 3.33472 8.78438C3.18565 8.64062 3.11111 8.4625 3.11111 8.25C3.11111 8.0375 3.18565 7.85938 3.33472 7.71563C3.4838 7.57188 3.66852 7.5 3.88889 7.5C4.10926 7.5 4.29398 7.57188 4.44306 7.71563C4.59213 7.85938 4.66667 8.0375 4.66667 8.25C4.66667 8.4625 4.59213 8.64062 4.44306 8.78438C4.29398 8.92813 4.10926 9 3.88889 9ZM10.1111 9C9.89074 9 9.70602 8.92813 9.55694 8.78438C9.40787 8.64062 9.33333 8.4625 9.33333 8.25C9.33333 8.0375 9.40787 7.85938 9.55694 7.71563C9.70602 7.57188 9.89074 7.5 10.1111 7.5C10.3315 7.5 10.5162 7.57188 10.6653 7.71563C10.8144 7.85938 10.8889 8.0375 10.8889 8.25C10.8889 8.4625 10.8144 8.64062 10.6653 8.78438C10.5162 8.92813 10.3315 9 10.1111 9ZM7 12C6.77963 12 6.59491 11.9281 6.44583 11.7844C6.29676 11.6406 6.22222 11.4625 6.22222 11.25C6.22222 11.0375 6.29676 10.8594 6.44583 10.7156C6.59491 10.5719 6.77963 10.5 7 10.5C7.22037 10.5 7.40509 10.5719 7.55417 10.7156C7.70324 10.8594 7.77778 11.0375 7.77778 11.25C7.77778 11.4625 7.70324 11.6406 7.55417 11.7844C7.40509 11.9281 7.22037 12 7 12ZM3.88889 12C3.66852 12 3.4838 11.9281 3.33472 11.7844C3.18565 11.6406 3.11111 11.4625 3.11111 11.25C3.11111 11.0375 3.18565 10.8594 3.33472 10.7156C3.4838 10.5719 3.66852 10.5 3.88889 10.5C4.10926 10.5 4.29398 10.5719 4.44306 10.7156C4.59213 10.8594 4.66667 11.0375 4.66667 11.25C4.66667 11.4625 4.59213 11.6406 4.44306 11.7844C4.29398 11.9281 4.10926 12 3.88889 12ZM10.1111 12C9.89074 12 9.70602 11.9281 9.55694 11.7844C9.40787 11.6406 9.33333 11.4625 9.33333 11.25C9.33333 11.0375 9.40787 10.8594 9.55694 10.7156C9.70602 10.5719 9.89074 10.5 10.1111 10.5C10.3315 10.5 10.5162 10.5719 10.6653 10.7156C10.8144 10.8594 10.8889 11.0375 10.8889 11.25C10.8889 11.4625 10.8144 11.6406 10.6653 11.7844C10.5162 11.9281 10.3315 12 10.1111 12Z" fill="#F8F9FA"/>
</svg>
