<svg width="472" height="480" viewBox="0 0 472 480" fill="none" xmlns="http://www.w3.org/2000/svg">
<path d="M471.794 298.511C471.439 299.489 471.839 300.522 471.567 301.506C471.533 303.572 471.444 305.633 471.261 307.694C470.911 311.667 470.511 315.633 469.978 319.583C469.444 323.533 468.794 327.567 468.022 331.528C466.364 340.08 464.102 348.505 461.256 356.739C455.427 373.694 446.899 389.597 436 403.833C430.658 410.786 424.775 417.307 418.406 423.333C409.673 431.601 400.118 438.955 389.889 445.278C383.281 449.386 376.433 453.096 369.383 456.389C358.63 461.406 347.481 465.528 336.05 468.711C328.476 470.822 320.815 472.552 313.067 473.9C307.719 474.833 302.348 475.6 296.956 476.2C293.572 476.583 290.167 476.817 286.761 477.039C284.072 477.222 281.372 477.272 278.683 477.428C274.322 477.678 269.961 477.594 265.6 477.533C262.556 477.494 259.489 477.389 256.456 477.161C254.578 477.017 252.689 476.928 250.811 476.789C247.994 476.589 245.183 476.233 242.372 475.983C241.889 475.739 241.972 475.505 242.372 475.267H242.333L241.222 475.317L240.544 475.211C240.665 475.245 240.77 475.318 240.844 475.419C240.917 475.519 240.955 475.642 240.95 475.767C239.383 476.137 237.795 476.408 236.194 476.578C233.761 476.948 231.322 477.283 228.878 477.583C226.878 477.833 224.867 478.011 222.861 478.211C220.322 478.467 217.783 478.767 215.239 478.95C213.722 479.067 212.194 479.183 210.678 479.239C207.039 479.367 203.4 479.483 199.767 479.639C196.344 479.783 192.933 479.839 189.522 479.767C186.378 479.694 183.233 479.639 180.078 479.5C177.256 479.378 174.439 479.161 171.622 478.944C167.872 478.683 164.117 478.344 160.389 477.833C143.298 475.755 126.599 471.211 110.811 464.344C106.183 462.35 101.667 460.111 97.2222 457.75C92.7778 455.389 88.4667 452.783 84.25 450.017C80.4556 447.528 76.7222 444.95 73.1389 442.194C70.3945 440.1 67.6945 437.939 65.0778 435.678C61.9445 432.978 58.9667 430.122 55.8889 427.344C52.9778 424.711 50.3334 421.822 47.6945 418.961C41.7529 412.531 36.2322 405.724 31.1667 398.583C26.6369 392.21 22.4369 385.609 18.5834 378.806C16.0722 374.361 13.6834 369.917 11.4778 365.322C9.09667 360.485 7.03124 355.499 5.29447 350.394C3.68378 345.495 2.4469 340.481 1.59447 335.394C1.18336 332.928 0.994469 330.394 0.70558 327.928C0.400024 326.5 0.388913 325.039 0.150024 323.606V315C0.221922 314.948 0.281537 314.88 0.324716 314.803C0.367895 314.725 0.393596 314.639 0.400023 314.55C0.588912 312.183 0.722248 309.811 0.988914 307.456C1.35003 304.206 1.80558 300.967 2.41114 297.756C3.3278 292.95 4.48336 288.206 5.80558 283.494C6.30002 281.728 6.80558 279.961 7.47224 278.239C5.47986 270.643 3.91995 262.94 2.80002 255.167C2.24447 251.278 1.78891 247.344 1.45002 243.411C1.21113 240.594 1.08336 237.772 0.894467 234.956C0.556581 229.072 0.515787 223.176 0.772244 217.289C0.950022 212.144 1.38336 207.006 1.95558 201.878C2.78522 194.434 4.00168 187.039 5.60002 179.722C6.97039 173.463 8.62595 167.287 10.5667 161.194C11.5834 158.011 12.4834 155.472 12.9278 154.228C13.9 151.533 15.4667 147.178 17.4667 142.761C19.5316 138.267 21.9154 133.926 24.6 129.772C31.2056 119.217 37.7111 111.761 48.1778 99.7722C49.4056 98.3611 50.8334 96.7556 52.5722 94.8833C55.9945 91.1889 58.7389 88.4944 60.0334 87.2278C70.3111 77.2278 81.4611 68.3056 93.8445 61C94.0225 60.8623 94.2368 60.7793 94.4611 60.7611C95.3445 59.8722 96.4834 59.3556 97.4834 58.6389C98.15 57.4778 99.3056 56.8 100.261 55.9667C102.632 53.9111 105.039 51.9019 107.483 49.9389C112.711 45.75 118.172 41.8944 123.778 38.2278C129.122 34.7333 134.639 31.5611 140.261 28.5056C143.783 26.6019 147.354 24.7926 150.972 23.0778C157.106 20.1778 163.341 17.513 169.678 15.0833C174.044 13.4167 178.433 11.8167 182.872 10.3667C189.146 8.32223 195.472 6.45741 201.85 4.77222C205.022 3.94445 208.194 3.14445 211.411 2.55C213.789 2.11111 216.189 1.81667 218.589 1.51112C221.261 1.17778 223.933 0.911115 226.611 0.777782C228.317 0.688893 230.006 0.383336 231.717 0.472225C233.217 0.238891 234.728 0.438893 236.239 0.361115C236.717 0.361115 237.217 0.49445 237.672 0.227783H241C242.494 0.54445 244.006 0.283336 245.506 0.372225C245.993 0.319223 246.486 0.353081 246.961 0.472225C249.294 0.422225 251.622 0.683336 253.95 0.82778C256.439 0.988891 258.95 1.23889 261.433 1.49445C264.061 1.76667 266.689 2.05 269.306 2.41667C273.75 3.01667 278.165 3.75741 282.55 4.63889C287.783 5.69445 292.978 6.9 298.106 8.35556C303.768 9.96297 309.352 11.8148 314.856 13.9111C321.516 16.503 328.031 19.4536 334.372 22.75C338.889 25.0667 343.261 27.6111 347.6 30.2889C352.127 33.1307 356.487 36.2283 360.661 39.5667C362.328 40.9056 363.906 42.4056 365.556 43.7944C367.383 45.3278 369.033 47.05 370.711 48.7389C375.245 53.3513 379.367 58.3498 383.033 63.6778C386.733 69.0397 390.074 74.6409 393.033 80.4444C396.183 86.5556 398.972 92.8278 401.606 99.1778C403.328 103.33 404.959 107.511 406.5 111.722C406.562 111.936 406.612 112.153 406.65 112.372L407.533 114.2C409.6 115.95 411.3 118.05 413.089 120.061C417.006 124.456 420.694 129.044 424.2 133.767C429.428 140.811 434.216 148.172 438.539 155.806C440.561 159.361 442.5 162.967 444.3 166.639C448.6 175.397 452.379 184.402 455.617 193.606C458.749 202.551 461.404 211.657 463.572 220.883C465.45 228.883 467.026 236.943 468.3 245.061C469.172 250.617 469.922 256.239 470.483 261.867C470.789 264.989 471.039 268.111 471.306 271.239C471.45 273.033 471.428 274.828 471.539 276.622C471.839 277.694 471.4 278.844 471.772 279.883L471.794 298.511Z" fill="#1E2F23"/>
<path d="M471.794 298.511C471.439 299.489 471.839 300.522 471.567 301.506C471.533 303.572 471.444 305.633 471.261 307.694C470.911 311.667 470.511 315.633 469.978 319.583C469.444 323.533 468.794 327.567 468.022 331.528C466.364 340.08 464.102 348.505 461.256 356.739C455.427 373.694 446.899 389.597 436 403.833C430.658 410.786 424.775 417.307 418.406 423.333C409.673 431.601 400.118 438.955 389.889 445.278C383.281 449.386 376.433 453.096 369.383 456.389C358.63 461.406 347.481 465.528 336.05 468.711C328.476 470.822 320.815 472.552 313.067 473.9C307.719 474.833 302.348 475.6 296.956 476.2C293.572 476.583 290.167 476.817 286.761 477.039C284.072 477.222 281.372 477.272 278.683 477.428C274.322 477.678 269.961 477.594 265.6 477.533C262.556 477.494 259.489 477.389 256.456 477.161C254.578 477.017 252.689 476.928 250.811 476.789C247.994 476.589 245.183 476.233 242.372 475.983C241.889 475.739 241.972 475.505 242.372 475.267H242.333L241.222 475.317L240.544 475.211C240.665 475.245 240.77 475.318 240.844 475.419C240.917 475.519 240.955 475.642 240.95 475.767C239.383 476.137 237.795 476.408 236.194 476.578C233.761 476.948 231.322 477.283 228.878 477.583C226.878 477.833 224.867 478.011 222.861 478.211C220.322 478.467 217.783 478.767 215.239 478.95C213.722 479.067 212.194 479.183 210.678 479.239C207.039 479.367 203.4 479.483 199.767 479.639C196.344 479.783 192.933 479.839 189.522 479.767C186.378 479.694 183.233 479.639 180.078 479.5C177.256 479.378 174.439 479.161 171.622 478.944C167.872 478.683 164.117 478.344 160.389 477.833C143.298 475.755 126.599 471.211 110.811 464.344C106.183 462.35 101.667 460.111 97.2222 457.75C92.7778 455.389 88.4667 452.783 84.25 450.017C80.4556 447.528 76.7222 444.95 73.1389 442.194C70.3945 440.1 67.6945 437.939 65.0778 435.678C61.9445 432.978 58.9667 430.122 55.8889 427.344C52.9778 424.711 50.3334 421.822 47.6945 418.961C41.7529 412.531 36.2322 405.724 31.1667 398.583C26.6369 392.21 22.4369 385.609 18.5834 378.806C16.0722 374.361 13.6834 369.917 11.4778 365.322C9.09667 360.485 7.03124 355.499 5.29447 350.394C3.68378 345.495 2.4469 340.481 1.59447 335.394C1.18336 332.928 0.994469 330.394 0.70558 327.928C0.400024 326.5 0.388913 325.039 0.150024 323.606V315C0.221922 314.948 0.281537 314.88 0.324716 314.803C0.367895 314.725 0.393596 314.639 0.400023 314.55C0.588912 312.183 0.722248 309.811 0.988914 307.456C1.35003 304.206 1.80558 300.967 2.41114 297.756C3.3278 292.95 4.48336 288.206 5.80558 283.494C6.30002 281.728 6.80558 279.961 7.47224 278.239C5.47986 270.643 3.91995 262.94 2.80002 255.167C2.24447 251.278 1.78891 247.344 1.45002 243.411C1.21113 240.594 1.08336 237.772 0.894467 234.956C0.556581 229.072 0.515787 223.176 0.772244 217.289C0.950022 212.144 1.38336 207.006 1.95558 201.878C2.78522 194.434 4.00168 187.039 5.60002 179.722C6.97039 173.463 8.62595 167.287 10.5667 161.194C11.5834 158.011 12.4834 155.472 12.9278 154.228C13.9 151.533 15.4667 147.178 17.4667 142.761C19.5316 138.267 21.9154 133.926 24.6 129.772C31.2056 119.217 37.7111 111.761 48.1778 99.7722C49.4056 98.3611 50.8334 96.7556 52.5722 94.8833C55.9945 91.1889 58.7389 88.4944 60.0334 87.2278C70.3111 77.2278 81.4611 68.3056 93.8445 61C94.0225 60.8623 94.2368 60.7793 94.4611 60.7611C95.3445 59.8722 96.4834 59.3556 97.4834 58.6389C98.15 57.4778 99.3056 56.8 100.261 55.9667C102.632 53.9111 105.039 51.9019 107.483 49.9389C112.711 45.75 118.172 41.8944 123.778 38.2278C129.122 34.7333 134.639 31.5611 140.261 28.5056C143.783 26.6019 147.354 24.7926 150.972 23.0778C157.106 20.1778 163.341 17.513 169.678 15.0833C174.044 13.4167 178.433 11.8167 182.872 10.3667C189.146 8.32223 195.472 6.45741 201.85 4.77222C205.022 3.94445 208.194 3.14445 211.411 2.55C213.789 2.11111 216.189 1.81667 218.589 1.51112C221.261 1.17778 223.933 0.911115 226.611 0.777782C228.317 0.688893 230.006 0.383336 231.717 0.472225C233.217 0.238891 234.728 0.438893 236.239 0.361115C236.717 0.361115 237.217 0.49445 237.672 0.227783H241C242.494 0.54445 244.006 0.283336 245.506 0.372225C245.993 0.319223 246.486 0.353081 246.961 0.472225C249.294 0.422225 251.622 0.683336 253.95 0.82778C256.439 0.988891 258.95 1.23889 261.433 1.49445C264.061 1.76667 266.689 2.05 269.306 2.41667C273.75 3.01667 278.165 3.75741 282.55 4.63889C287.783 5.69445 292.978 6.9 298.106 8.35556C303.768 9.96297 309.352 11.8148 314.856 13.9111C321.516 16.503 328.031 19.4536 334.372 22.75C338.889 25.0667 343.261 27.6111 347.6 30.2889C352.127 33.1307 356.487 36.2283 360.661 39.5667C362.328 40.9056 363.906 42.4056 365.556 43.7944C367.383 45.3278 369.033 47.05 370.711 48.7389C375.245 53.3513 379.367 58.3498 383.033 63.6778C386.733 69.0397 390.074 74.6409 393.033 80.4444C396.183 86.5556 398.972 92.8278 401.606 99.1778C403.328 103.33 404.959 107.511 406.5 111.722C406.562 111.936 406.612 112.153 406.65 112.372L407.533 114.2C409.6 115.95 411.3 118.05 413.089 120.061C417.006 124.456 420.694 129.044 424.2 133.767C429.428 140.811 434.216 148.172 438.539 155.806C440.561 159.361 442.5 162.967 444.3 166.639C448.6 175.397 452.379 184.402 455.617 193.606C458.749 202.551 461.404 211.657 463.572 220.883C465.45 228.883 467.026 236.943 468.3 245.061C469.172 250.617 469.922 256.239 470.483 261.867C470.789 264.989 471.039 268.111 471.306 271.239C471.45 273.033 471.428 274.828 471.539 276.622C471.839 277.694 471.4 278.844 471.772 279.883L471.794 298.511Z" fill="#1E2F23"/>
<path d="M457.667 300C457.276 305.217 456.604 310.41 455.656 315.556C454.147 323.722 451.847 331.723 448.789 339.444C446.146 346.092 442.913 352.49 439.128 358.561C435.413 364.511 431.231 370.157 426.622 375.444C423.529 379.016 420.25 382.422 416.8 385.65C409.55 392.384 401.716 398.46 393.389 403.806C388.507 406.95 383.507 409.893 378.389 412.633C375.094 414.4 371.75 416.05 368.389 417.7C368.189 417.8 367.972 417.867 367.767 417.95C367.703 417.982 367.629 417.988 367.561 417.968C367.493 417.947 367.435 417.901 367.4 417.839C367.371 417.792 367.349 417.742 367.333 417.689C367.328 417.643 367.328 417.596 367.333 417.55C367.378 416.994 367.806 416.711 368.15 416.367C371.311 413.178 374.55 410.067 377.528 406.7C380.594 403.244 383.639 399.756 386.472 396.111C392.057 389.177 397.193 381.894 401.85 374.306C404.117 370.594 406.294 366.833 408.322 362.983C409.707 360.294 411.057 357.591 412.372 354.872C413.483 352.694 414.428 350.428 415.344 348.206C416.283 346.194 417.145 344.144 417.878 342.05C417.921 341.931 417.971 341.814 418.028 341.7C418.167 341.417 418.261 341.117 418.372 340.828C418.673 340.14 418.932 339.435 419.15 338.717C419.553 337.791 419.898 336.841 420.183 335.872C420.289 335.589 420.389 335.317 420.483 335.017C420.578 334.717 420.678 334.461 420.767 334.178C420.856 333.894 420.956 333.622 421.044 333.361C421.133 333.1 421.228 332.806 421.317 332.55C421.406 332.294 421.494 331.994 421.583 331.75C421.672 331.506 421.767 331.194 421.856 330.95C421.944 330.706 422.011 330.522 422.078 330.306L422.294 329.639C422.516 329.005 422.701 328.36 422.85 327.706C422.878 327.589 422.917 327.476 422.967 327.367C423.056 327.15 423.156 326.939 423.244 326.722C423.397 326.353 423.514 325.969 423.594 325.578C423.628 325.356 423.656 325.133 423.7 324.911C423.722 324.806 423.75 324.702 423.783 324.6C423.847 324.339 423.847 324.066 423.783 323.806C423.766 323.694 423.79 323.579 423.85 323.484C423.91 323.388 424.003 323.317 424.111 323.283C424.16 323.29 424.206 323.31 424.245 323.34C424.284 323.37 424.315 323.41 424.333 323.456C424.322 323.295 424.322 323.133 424.333 322.972C424.439 322.494 424.583 322.022 424.661 321.539C424.659 321.319 424.636 321.099 424.594 320.883C424.575 320.779 424.586 320.671 424.627 320.572C424.667 320.474 424.735 320.389 424.822 320.328C425.1 320.189 424.883 319.994 424.878 319.817C424.857 319.714 424.865 319.607 424.903 319.508C424.94 319.41 425.005 319.324 425.089 319.261C425.372 319.122 425.156 318.922 425.145 318.75C425.124 318.646 425.134 318.539 425.172 318.441C425.21 318.342 425.276 318.257 425.361 318.194C425.639 318.056 425.428 317.861 425.417 317.683C425.396 317.58 425.406 317.472 425.444 317.374C425.483 317.276 425.548 317.19 425.633 317.128C425.911 316.989 425.694 316.789 425.689 316.617C425.668 316.514 425.677 316.407 425.714 316.308C425.751 316.21 425.816 316.124 425.9 316.061C426.183 315.922 425.961 315.722 425.956 315.544C425.937 315.439 425.949 315.331 425.99 315.232C426.032 315.134 426.101 315.049 426.189 314.989C426.517 314.761 426.189 314.5 426.189 314.256C426.164 314.146 426.17 314.031 426.207 313.925C426.245 313.819 426.312 313.725 426.4 313.656C426.683 313.517 426.483 313.311 426.467 313.133C426.441 313.025 426.453 312.911 426.501 312.81C426.548 312.709 426.628 312.627 426.728 312.578C427.189 312.511 426.772 312.128 426.944 311.956C426.967 311.844 426.994 311.733 427.028 311.622C427.144 311.233 427.144 310.822 427.244 310.433C427.344 310.044 427.383 309.622 427.478 309.222C427.639 308.794 427.664 308.326 427.55 307.883C427.518 307.773 427.514 307.656 427.538 307.544C427.562 307.431 427.614 307.326 427.689 307.239C427.737 307.21 427.79 307.191 427.846 307.184C427.901 307.178 427.958 307.183 428.011 307.2C428.026 307.241 428.026 307.287 428.011 307.328H428.044C428.122 307.289 428.044 307.144 428.044 307.044C428.044 306.689 428.178 306.344 428.183 305.989C428.199 305.673 428.24 305.359 428.306 305.05C428.472 304.544 428.422 304 428.561 303.483C428.7 302.967 428.689 302.422 428.822 301.9C428.956 301.378 428.956 300.844 429.089 300.328C429.186 300.016 429.244 299.693 429.261 299.367C429.274 299.107 429.309 298.848 429.367 298.594C429.491 297.973 429.57 297.344 429.606 296.711C429.721 296.384 429.763 296.034 429.728 295.689C429.719 295.578 429.719 295.467 429.728 295.356C429.782 295.027 429.751 294.691 429.639 294.378C429.59 294.217 429.587 294.047 429.631 293.885C429.674 293.723 429.761 293.576 429.883 293.461C429.883 293.372 430.106 293.572 430.028 293.344C430.006 293.261 430.006 293.173 430.028 293.089C430.094 292.783 430.117 292.478 430.161 292.172C430.179 292.064 430.203 291.956 430.233 291.85C430.312 291.581 430.327 291.298 430.278 291.022C430.267 290.908 430.267 290.792 430.278 290.678C430.342 290.276 430.302 289.865 430.161 289.483C430.111 289.044 430.039 288.606 430.478 288.306C430.7 288.272 430.7 288.528 430.85 288.594C430.75 288.517 430.733 288.372 430.617 288.294C430.566 288.223 430.53 288.141 430.511 288.056C430.492 287.97 430.49 287.881 430.506 287.794C430.58 287.445 430.626 287.09 430.644 286.733C430.662 286.557 430.694 286.382 430.739 286.211C430.878 285.827 430.878 285.406 430.739 285.022C430.689 284.782 430.689 284.534 430.739 284.294C430.84 283.933 430.89 283.559 430.889 283.183C430.894 282.932 430.928 282.682 430.989 282.439C431.136 282.026 431.136 281.574 430.989 281.161C430.903 280.764 430.903 280.353 430.989 279.956C431.119 279.49 431.164 279.004 431.122 278.522C431.1 277.885 431.133 277.248 431.222 276.617C431.405 276.105 431.405 275.545 431.222 275.033C430.989 271.144 431.183 267.206 431.117 263.289C431.028 258.028 430.594 252.789 430.089 247.556C429.275 239.221 428.003 230.939 426.278 222.744C423.465 209.387 419.588 196.277 414.683 183.539C411.733 175.839 408.45 168.278 404.75 160.917C396.783 145.056 387.444 130.067 375.983 116.472C370.139 109.533 363.606 103.294 356.944 97.1611C350.267 90.9872 343.268 85.1699 335.978 79.7333C326.976 72.9567 317.303 67.1206 307.111 62.3167C294.351 56.373 280.76 52.4072 266.806 50.5556C262.661 50 258.472 49.7167 254.317 49.4445C250.186 49.1669 246.042 49.1168 241.906 49.2945C232.196 49.6767 222.534 50.8547 213.017 52.8167C199.004 55.798 185.24 59.8468 171.844 64.9278C165.053 67.4681 158.401 70.3666 151.917 73.6111C140.204 79.4183 129.175 86.512 119.033 94.7611C115.622 97.5389 112.367 100.5 109.133 103.533C95.8667 116.039 84.9889 130.439 75.35 145.833C69.95 154.461 64.9667 163.333 60.3167 172.389C53.8945 184.878 47.2167 197.233 40.4278 209.528C38.7333 212.606 37.1278 215.728 35.3722 218.767C34.9111 219.561 35.2222 220.606 34.4945 221.256C34.4675 221.284 34.4377 221.31 34.4056 221.333C34.1052 221.163 33.8808 220.885 33.7778 220.556C33.7666 220.521 33.7573 220.486 33.75 220.45C33.6779 220.119 33.637 219.783 33.6278 219.444C33.6642 218.645 33.6139 217.844 33.4778 217.056C33.2167 214.589 33.4111 212.111 33.3611 209.639C33.2556 204.728 33.3333 199.822 33.6611 194.928C34.2551 185.768 35.368 176.65 36.9945 167.617C38.7984 157.597 41.3329 147.722 44.5778 138.072C50.6413 120.028 59.3915 103.001 70.5333 87.5667C77.1007 78.5278 84.4714 70.101 92.5556 62.3889C93.1778 61.8 93.8778 61.3056 94.5445 60.7778C95.4278 59.8889 96.5667 59.3722 97.5667 58.6556C98.636 58.2019 99.6736 57.6767 100.672 57.0833C107.592 53.5271 114.745 50.4459 122.083 47.8611C132.822 44.1402 143.853 41.3248 155.061 39.4445C159.928 38.6056 164.817 37.9 169.733 37.4111C174.061 36.9722 178.389 36.5278 182.722 36.1611C185.228 35.9556 187.722 35.9445 190.261 35.7722C200.006 35.1167 209.767 35.25 219.528 35.2167C224.528 35.2167 229.494 35.4833 234.472 35.7722C241.009 36.1833 247.526 36.837 254.022 37.7333C267.955 39.6223 281.73 42.5282 295.239 46.4278C308.416 50.2279 321.287 55.0155 333.744 60.75C344.318 65.6599 354.538 71.2956 364.333 77.6167C374.126 83.9248 383.442 90.9437 392.206 98.6167C394.909 100.983 397.548 103.426 400.122 105.944C401.993 107.763 403.844 109.615 405.678 111.5C405.945 111.863 406.288 112.165 406.683 112.383L407.567 114.211C407.594 115 408.017 115.661 408.261 116.378C411.539 126.126 414.811 135.878 418.078 145.633C419.615 150.237 421.128 154.85 422.617 159.472C425.667 169.017 428.883 178.5 432.061 188.006C432.972 190.744 434.283 193.322 435.433 195.944C438.767 203.378 441.833 210.894 444.606 218.55C447.985 227.839 450.803 237.323 453.044 246.95C454.193 251.935 455.156 256.954 455.933 262.006C456.563 266.039 457.065 270.087 457.439 274.15C457.645 276.333 457.717 278.539 457.856 280.733C458.056 283.833 458.017 286.928 458.078 290.028C458.106 293.333 457.933 296.667 457.667 300Z" fill="#87959E"/>
<path d="M367.778 417.983C366.96 418.45 366.212 419.03 365.556 419.706C360.858 424.382 355.806 428.687 350.445 432.583C345.482 436.191 340.346 439.548 335.039 442.656C334.85 442.767 334.622 442.833 334.517 443.056C334.417 443.15 334.328 443.256 334.222 443.344C333.978 443.5 333.772 443.767 333.422 443.639L333.145 443.85C332.894 444.062 332.622 444.248 332.333 444.406C332.095 444.572 331.883 444.817 331.539 444.711L331.25 444.911C330.997 445.137 330.719 445.335 330.422 445.5C330.272 445.639 330.067 445.689 329.928 445.839C329.789 445.989 329.522 445.889 329.372 446.028C328.961 446.378 328.428 446.522 328.006 446.85C327.861 447.017 327.606 446.972 327.45 447.128C327.272 447.261 327.087 447.383 326.895 447.494C326.628 447.494 326.422 447.822 326.111 447.689L325.828 447.894C324.649 448.604 323.432 449.25 322.183 449.828C321.64 449.957 321.132 450.204 320.695 450.55C319.228 451.344 317.706 452.022 316.25 452.806C316.056 452.967 315.767 452.889 315.572 453.061C315.378 453.233 315.189 453.194 315.017 453.333C314.183 453.661 313.411 454.106 312.578 454.444C312.433 454.606 312.183 454.567 312.022 454.711C311.467 454.867 311.028 455.306 310.411 455.267L310.15 455.444C310.044 455.678 309.767 455.639 309.594 455.783C308.961 456.061 308.328 456.339 307.689 456.606C307.371 456.807 306.998 456.906 306.622 456.889L306.35 457.056C305.743 457.411 305.105 457.712 304.445 457.956C304.028 458.194 303.533 458.261 303.111 458.511C302.689 458.761 302.178 458.828 301.745 459.067C301.317 459.317 300.811 459.383 300.378 459.622C299.795 459.929 299.156 460.118 298.5 460.178L298.233 460.344C297.867 460.739 297.311 460.711 296.889 460.967C296.857 461.009 296.816 461.043 296.77 461.068C296.723 461.093 296.672 461.108 296.619 461.111C296.566 461.114 296.513 461.106 296.464 461.087C296.415 461.068 296.37 461.038 296.333 461C296.275 460.991 296.215 461.001 296.163 461.029C296.111 461.057 296.069 461.102 296.045 461.156C295.491 461.553 294.831 461.777 294.15 461.8C294.09 461.798 294.032 461.817 293.984 461.854C293.937 461.89 293.903 461.942 293.889 462C293.866 462.051 293.831 462.096 293.786 462.13C293.742 462.163 293.689 462.186 293.634 462.194C293.579 462.202 293.522 462.196 293.47 462.177C293.417 462.158 293.37 462.126 293.333 462.083C293.275 462.073 293.216 462.082 293.163 462.109C293.111 462.136 293.069 462.18 293.044 462.233C292.145 462.861 291.017 462.922 290.061 463.411C290.028 463.445 289.988 463.471 289.944 463.49C289.9 463.508 289.853 463.517 289.806 463.517C289.758 463.517 289.711 463.508 289.667 463.49C289.623 463.471 289.584 463.445 289.55 463.411C289.488 463.402 289.425 463.417 289.372 463.452C289.32 463.486 289.283 463.539 289.267 463.6C289.244 463.651 289.209 463.696 289.164 463.73C289.12 463.763 289.067 463.786 289.012 463.794C288.956 463.802 288.9 463.796 288.847 463.777C288.795 463.758 288.748 463.726 288.711 463.683C288.65 463.674 288.587 463.688 288.535 463.722C288.483 463.755 288.445 463.807 288.428 463.867C288.406 463.919 288.371 463.965 288.327 463.999C288.282 464.034 288.23 464.057 288.174 464.065C288.118 464.074 288.061 464.068 288.008 464.047C287.955 464.027 287.908 463.994 287.872 463.95C287.811 463.94 287.747 463.954 287.696 463.989C287.644 464.024 287.608 464.078 287.595 464.139C287.571 464.189 287.535 464.232 287.49 464.265C287.446 464.298 287.394 464.32 287.339 464.328C287.284 464.336 287.228 464.331 287.176 464.313C287.123 464.294 287.076 464.263 287.039 464.222C286.978 464.213 286.916 464.227 286.865 464.261C286.814 464.295 286.777 464.346 286.761 464.406C286.738 464.456 286.702 464.5 286.658 464.534C286.614 464.567 286.562 464.589 286.507 464.598C286.452 464.607 286.396 464.602 286.343 464.584C286.291 464.566 286.243 464.535 286.206 464.494C286.145 464.484 286.082 464.498 286.031 464.532C285.979 464.566 285.942 464.618 285.928 464.678C285.904 464.728 285.868 464.771 285.824 464.804C285.779 464.837 285.727 464.859 285.672 464.867C285.617 464.875 285.561 464.87 285.509 464.851C285.457 464.833 285.41 464.802 285.372 464.761C285.311 464.752 285.248 464.767 285.197 464.802C285.146 464.837 285.109 464.89 285.095 464.95C284.944 465.172 284.767 465.167 284.539 465.033C284.48 465.024 284.421 465.035 284.369 465.064C284.318 465.094 284.278 465.139 284.256 465.194C283.194 465.561 282.183 466.122 281.011 466.1C280.95 466.097 280.89 466.115 280.842 466.152C280.793 466.188 280.759 466.241 280.745 466.3C280.722 466.351 280.686 466.396 280.642 466.43C280.597 466.463 280.545 466.486 280.49 466.494C280.434 466.502 280.378 466.496 280.325 466.477C280.273 466.458 280.226 466.425 280.189 466.383C280.131 466.374 280.072 466.384 280.02 466.412C279.969 466.44 279.929 466.485 279.906 466.539C279.35 466.961 278.611 466.883 278 467.167C277.966 467.2 277.927 467.227 277.883 467.245C277.839 467.263 277.792 467.273 277.745 467.273C277.697 467.273 277.65 467.263 277.606 467.245C277.562 467.227 277.522 467.2 277.489 467.167C277.386 467.145 277.28 467.153 277.181 467.189C277.083 467.226 276.997 467.289 276.933 467.372C276.517 467.589 276.128 467.928 275.606 467.694C275.548 467.69 275.49 467.705 275.442 467.738C275.393 467.77 275.357 467.817 275.339 467.872C274.864 468.196 274.284 468.327 273.717 468.239C273.614 468.222 273.508 468.232 273.41 468.269C273.313 468.306 273.227 468.369 273.161 468.45C273.028 468.678 272.85 468.644 272.667 468.522C272.605 468.512 272.542 468.525 272.489 468.559C272.437 468.593 272.399 468.645 272.383 468.706C272.359 468.751 272.325 468.791 272.283 468.821C272.24 468.852 272.192 468.871 272.14 468.88C272.089 468.888 272.037 468.884 271.987 468.868C271.938 468.852 271.893 468.825 271.856 468.789C271.751 468.769 271.644 468.779 271.545 468.819C271.447 468.858 271.362 468.925 271.3 469.011C271.272 469.052 271.236 469.087 271.193 469.112C271.15 469.137 271.102 469.152 271.052 469.157C271.003 469.161 270.953 469.154 270.906 469.137C270.86 469.119 270.818 469.091 270.783 469.056C270.681 469.038 270.576 469.048 270.478 469.084C270.381 469.12 270.294 469.181 270.228 469.261C270.094 469.489 269.922 469.45 269.739 469.339C269.681 469.325 269.62 469.333 269.567 469.36C269.514 469.388 269.472 469.434 269.45 469.489C269.228 469.833 268.939 469.717 268.656 469.606C268.592 469.596 268.528 469.61 268.475 469.646C268.423 469.683 268.386 469.738 268.372 469.8C268.206 470.033 267.956 469.967 267.728 469.994C267.559 470.042 267.4 470.117 267.256 470.217C267.172 470.243 267.082 470.25 266.996 470.235C266.909 470.221 266.826 470.186 266.756 470.133C266.651 470.114 266.543 470.125 266.444 470.166C266.346 470.206 266.261 470.274 266.2 470.361C266.174 470.403 266.138 470.438 266.095 470.464C266.053 470.49 266.005 470.506 265.956 470.51C265.906 470.514 265.856 470.507 265.81 470.489C265.764 470.471 265.722 470.442 265.689 470.406C265.584 470.386 265.476 470.398 265.378 470.438C265.279 470.478 265.194 470.546 265.133 470.633C265.106 470.674 265.07 470.709 265.028 470.734C264.985 470.759 264.938 470.775 264.889 470.779C264.839 470.783 264.79 470.776 264.744 470.759C264.698 470.741 264.656 470.714 264.622 470.678C264.517 470.65 264.407 470.652 264.303 470.684C264.199 470.715 264.106 470.775 264.033 470.856C263.478 471.122 262.883 471.444 262.206 471.233C262.144 471.22 262.079 471.231 262.025 471.264C261.971 471.297 261.933 471.35 261.917 471.411C261.667 471.7 261.361 471.628 261.106 471.483C261.001 471.464 260.893 471.475 260.794 471.516C260.696 471.556 260.611 471.624 260.55 471.711C260.4 471.911 260.228 471.889 260.039 471.761C259.938 471.738 259.832 471.743 259.734 471.776C259.636 471.81 259.549 471.87 259.483 471.95C259.278 472.267 259.011 472.139 258.75 472.061C258.642 472.017 258.522 472.012 258.411 472.047C258.299 472.081 258.203 472.153 258.139 472.25C258.112 472.291 258.076 472.326 258.034 472.352C257.992 472.378 257.945 472.394 257.895 472.398C257.846 472.403 257.797 472.397 257.75 472.38C257.704 472.363 257.662 472.336 257.628 472.3C257.526 472.277 257.42 472.283 257.322 472.318C257.224 472.352 257.137 472.413 257.072 472.494C256.867 472.806 256.6 472.678 256.339 472.6C256.231 472.558 256.112 472.555 256.002 472.59C255.892 472.625 255.797 472.698 255.733 472.794C255.556 473.039 255.289 472.922 255.061 472.972C254.833 473.022 254.6 473.111 254.372 473.189C254.288 473.22 254.197 473.228 254.109 473.214C254.02 473.199 253.937 473.162 253.867 473.106C253.765 473.083 253.659 473.089 253.561 473.123C253.463 473.158 253.376 473.219 253.311 473.3C253.078 473.611 252.806 473.511 252.533 473.378C252.432 473.355 252.326 473.361 252.228 473.395C252.13 473.43 252.043 473.491 251.978 473.572C251.745 473.878 251.472 473.783 251.2 473.644C251.098 473.622 250.992 473.629 250.894 473.665C250.795 473.7 250.709 473.762 250.645 473.844C250.406 474.194 250.039 473.961 249.744 474.05C249.45 474.139 249.245 474.194 249 474.278C248.816 474.301 248.63 474.314 248.445 474.317C247.939 474.383 247.467 474.761 246.928 474.461C246.617 474.433 246.306 474.383 246.083 474.683C246.053 474.725 246.013 474.76 245.967 474.783C245.827 474.838 245.677 474.859 245.528 474.844C244.944 475.039 244.332 475.133 243.717 475.122C243.272 475.244 242.845 475.511 242.367 475.3H242.328L241.217 475.35L240.539 475.244L240.272 475.2C238.117 474.861 235.95 474.522 233.795 474.194C233.571 474.181 233.346 474.181 233.122 474.194H232.889C231.256 474.289 229.689 473.806 228.111 473.522C220.761 472.228 213.5 470.528 206.311 468.522C201.65 467.217 197.061 465.678 192.483 464.128C184.361 461.123 176.442 457.594 168.778 453.561C164.844 451.494 160.9 449.439 157.022 447.272C156.228 446.717 155.311 446.422 154.517 445.883C153.722 445.344 152.85 445.05 152.072 444.528C151.517 444.05 150.678 443.972 150.233 443.3C149.728 442.892 149.166 442.557 148.567 442.306C148.467 442.378 148.4 442.361 148.361 442.256C148.361 442.256 148.361 442.256 148.361 442.222C147.859 441.807 147.297 441.47 146.694 441.222C146.583 441.306 146.511 441.278 146.483 441.144C146.376 440.988 146.233 440.859 146.066 440.769C145.899 440.679 145.712 440.63 145.522 440.628C144.917 440.294 144.2 440.144 143.761 439.517C143.259 439.094 142.698 438.748 142.094 438.489C141.674 438.463 141.279 438.283 140.983 437.983C140.628 437.589 139.933 437.656 139.7 437.083C139.196 436.663 138.635 436.317 138.033 436.056C137.885 436.066 137.737 436.041 137.6 435.982C137.464 435.923 137.344 435.832 137.25 435.717C136.822 435.378 136.206 435.311 135.9 434.789C135.837 434.694 135.755 434.612 135.659 434.549C135.564 434.486 135.457 434.443 135.344 434.422C135.318 434.432 135.29 434.435 135.262 434.432C135.234 434.429 135.208 434.419 135.184 434.404C135.161 434.389 135.141 434.369 135.126 434.345C135.112 434.321 135.103 434.294 135.1 434.267C134.965 434.081 134.768 433.951 134.544 433.9C134.439 433.978 134.367 433.956 134.333 433.822C133.082 432.873 131.77 432.006 130.406 431.228C121.361 425.487 112.572 419.376 104.039 412.894C97.1945 407.711 90.5389 402.3 84.1223 396.589C81.4111 394.167 78.6834 391.767 76.0778 389.228C73.2149 386.428 70.3686 383.613 67.5389 380.783C62.0334 375.228 56.9056 369.383 51.95 363.356C46.3923 356.578 41.1998 349.508 36.3945 342.178C32.9612 336.956 29.7575 331.594 26.7834 326.094C24.3352 321.539 22.0241 316.909 19.85 312.206C19.7443 312.01 19.6217 311.824 19.4834 311.65C18.2389 309.428 17.4112 307.044 16.4 304.733C16.1479 304.269 15.961 303.771 15.8445 303.256C15.7986 303.067 15.7155 302.889 15.6 302.733C15.2571 301.991 14.9747 301.221 14.7556 300.433C14.4334 299.878 14.3611 299.261 14.0167 298.733C13.95 298.561 13.9223 298.372 13.8445 298.178C13.6633 297.57 13.431 296.979 13.15 296.411C12.9223 295.25 12.1945 294.233 12.1889 293.011C12.2013 292.952 12.1911 292.89 12.1603 292.837C12.1295 292.785 12.0803 292.746 12.0223 292.728C11.7667 292.617 11.7778 292.428 11.8889 292.217C11.9013 292.188 11.9077 292.158 11.9076 292.127C11.9075 292.096 11.901 292.065 11.8884 292.037C11.8759 292.009 11.8576 291.984 11.8347 291.963C11.8119 291.942 11.7849 291.926 11.7556 291.917C11.4945 291.806 11.5056 291.622 11.6167 291.406C11.63 291.377 11.6371 291.347 11.6375 291.315C11.6378 291.284 11.6315 291.253 11.6188 291.225C11.6061 291.197 11.5875 291.171 11.5641 291.15C11.5408 291.13 11.5132 291.115 11.4834 291.106C11.2278 290.994 11.2334 290.811 11.35 290.594C11.3624 290.566 11.3688 290.536 11.3687 290.505C11.3686 290.474 11.3621 290.443 11.3496 290.415C11.337 290.387 11.3187 290.361 11.2958 290.341C11.273 290.32 11.246 290.304 11.2167 290.294C10.9556 290.183 10.9667 290 11.0778 289.789C11.091 289.76 11.0977 289.729 11.0973 289.697C11.097 289.665 11.0897 289.634 11.0759 289.605C11.0621 289.576 11.0422 289.551 11.0176 289.531C10.9929 289.511 10.9642 289.497 10.9334 289.489C10.8552 289.448 10.7914 289.384 10.7507 289.305C10.71 289.227 10.6943 289.138 10.7056 289.05C10.6785 288.932 10.6394 288.816 10.5889 288.706C10.5169 288.524 10.4557 288.339 10.4056 288.15C9.85004 286.572 9.48893 284.922 8.88893 283.356C8.80004 283.122 8.83337 282.861 8.73892 282.628C8.64448 282.394 8.62226 282.283 8.5667 282.111C8.5667 281.633 8.23337 281.233 8.2056 280.761C8.15004 280.594 8.10004 280.428 8.03893 280.261C8.01351 280.178 8.0068 280.089 8.01929 280.003C8.03177 279.917 8.06313 279.834 8.11115 279.761C8.13834 279.652 8.13396 279.538 8.09853 279.432C8.0631 279.326 7.99811 279.232 7.91115 279.161C7.8056 279.133 7.76671 279.094 7.78338 279.039C7.80004 278.983 7.82782 278.939 7.85559 278.939C7.85559 278.667 7.85559 278.383 7.85559 278.122L7.88892 278.083C8.18618 277.662 8.38722 277.18 8.47782 276.672C10.6667 270.256 13.0612 263.894 15.7667 257.706C17.5445 253.631 19.3815 249.583 21.2778 245.561C23.5556 240.717 25.9889 235.956 28.3945 231.178C30.0611 227.889 31.8112 224.65 33.5556 221.4C33.7467 221.061 33.848 220.678 33.85 220.289C33.85 220.2 33.85 220.111 33.85 220.017C33.7723 218.944 33.85 217.861 33.85 216.778C34.3445 217.417 34.0723 218.15 34.0945 218.833C34.044 219.616 34.2194 220.397 34.6 221.083C34.5982 221.096 34.5982 221.109 34.6 221.122C35.2611 222.233 35.1556 223.467 35.2223 224.639C35.4945 229.983 36.0334 235.306 36.6834 240.611C37.7 248.944 39.1167 257.172 40.8556 265.367C42.6667 273.872 44.9111 282.256 47.4889 290.561C50.4752 300.366 54.0597 309.978 58.2223 319.344C62.2075 328.312 66.8497 336.972 72.1112 345.256C75.7239 350.963 79.7592 356.391 84.1834 361.494C87.5167 365.322 91.0723 368.967 94.3667 372.844C97.1445 376.1 99.9612 379.306 102.794 382.506C103.961 383.817 105.141 385.113 106.333 386.394C116.177 397.168 127.133 406.87 139.017 415.339C144.772 419.366 150.763 423.046 156.956 426.361C164.814 430.577 173.007 434.137 181.45 437.006C191.298 440.374 201.435 442.829 211.733 444.339C217.289 445.156 222.883 445.783 228.494 446.15C235.278 446.589 242.078 446.661 248.867 446.422C255.533 446.189 262.15 445.594 268.756 444.756C268.94 444.734 269.127 444.734 269.311 444.756C269.522 444.861 269.733 444.961 269.939 444.756C270.489 444.483 271.115 444.401 271.717 444.522C271.911 444.7 272.067 444.667 272.195 444.439C273.253 444.126 274.352 443.969 275.456 443.972C275.676 444.009 275.902 443.974 276.1 443.872C276.299 443.764 276.517 443.695 276.742 443.671C276.967 443.648 277.194 443.669 277.411 443.733C277.561 443.906 277.689 443.906 277.789 443.683C277.971 443.553 278.179 443.465 278.4 443.426C278.62 443.388 278.846 443.4 279.061 443.461C279.274 443.476 279.486 443.423 279.667 443.311C279.969 443.142 280.327 443.098 280.661 443.189C280.875 443.206 281.089 443.155 281.272 443.044C281.552 442.855 281.894 442.779 282.228 442.833C282.444 442.878 282.67 442.855 282.872 442.767C283.161 442.589 283.503 442.516 283.839 442.561C284.046 442.606 284.262 442.591 284.461 442.517C284.695 442.376 284.966 442.308 285.239 442.322C285.45 442.353 285.665 442.318 285.856 442.222C286.137 442.051 286.467 441.977 286.794 442.011C286.998 442.046 287.208 442.01 287.389 441.911C287.621 441.768 287.897 441.711 288.167 441.75C288.372 441.796 288.587 441.781 288.783 441.706C289.013 441.57 289.277 441.502 289.544 441.511C289.749 441.544 289.959 441.519 290.15 441.439C290.375 441.299 290.636 441.229 290.9 441.239C291.101 441.274 291.308 441.249 291.495 441.167C291.719 441.032 291.977 440.962 292.239 440.967C292.434 440.98 292.629 440.931 292.794 440.828C293.016 440.688 293.28 440.631 293.539 440.667C293.729 440.696 293.923 440.665 294.095 440.578C294.271 440.469 294.477 440.42 294.683 440.439C294.804 440.477 294.931 440.489 295.057 440.474C295.182 440.458 295.303 440.416 295.411 440.35C295.552 440.261 295.717 440.216 295.883 440.222C296.117 440.194 296.395 440.483 296.583 440.122C296.649 440.031 296.742 439.962 296.848 439.924C296.954 439.886 297.069 439.882 297.178 439.911C297.428 439.911 297.695 440.2 297.922 439.867C297.984 439.78 298.069 439.714 298.168 439.674C298.266 439.635 298.374 439.625 298.478 439.644C298.65 439.644 298.845 439.867 298.983 439.583C299.046 439.498 299.131 439.433 299.23 439.394C299.328 439.356 299.435 439.346 299.539 439.367C299.738 439.412 299.941 439.443 300.145 439.461C300.352 439.448 300.556 439.403 300.75 439.328C300.907 439.285 301.066 439.255 301.228 439.239C301.502 439.217 301.773 439.161 302.033 439.072C302.195 439.02 302.36 438.981 302.528 438.956C302.756 438.906 302.978 438.839 303.195 438.772C303.308 438.734 303.426 438.706 303.545 438.689C304.204 438.588 304.856 438.44 305.495 438.244C305.728 438.178 305.967 438.133 306.206 438.089C306.444 438.044 306.761 437.933 307.078 437.878C307.395 437.822 307.539 437.761 307.772 437.694C308.117 437.6 308.472 437.539 308.822 437.428C309.172 437.317 309.539 437.267 309.889 437.161C310.128 437.098 310.371 437.052 310.617 437.022C310.983 436.983 311.333 436.856 311.689 436.783C312.044 436.711 312.4 436.594 312.756 436.517C312.994 436.461 313.228 436.4 313.461 436.328C314.122 436.172 314.778 436.017 315.428 435.822C315.544 435.783 315.661 435.744 315.778 435.717C316.194 435.6 316.611 435.478 317.033 435.383L317.589 435.222C318.529 435.025 319.457 434.771 320.367 434.461C320.549 434.404 320.735 434.358 320.922 434.322C321.421 434.215 321.911 434.072 322.389 433.894C323.333 433.694 324.245 433.339 325.167 433.106C325.289 433.061 325.417 433.022 325.539 432.989C326.094 432.822 326.65 432.717 327.206 432.522C328.589 432.044 329.983 431.667 331.389 431.206C331.514 431.154 331.642 431.109 331.772 431.072C335.395 429.917 338.995 428.678 342.6 427.483C342.719 427.433 342.842 427.393 342.967 427.361C343.385 427.253 343.79 427.102 344.178 426.911C344.683 426.733 345.2 426.578 345.706 426.356C345.816 426.311 345.93 426.272 346.045 426.239C346.44 426.12 346.825 425.967 347.195 425.783C347.706 425.6 348.228 425.456 348.722 425.228C349.006 425.106 349.278 424.983 349.578 424.878C350.522 424.528 351.439 424.122 352.356 423.767C352.828 423.617 353.267 423.378 353.733 423.211C354.289 423.006 354.845 422.75 355.4 422.544C355.672 422.428 355.956 422.311 356.228 422.217C356.451 422.143 356.67 422.055 356.883 421.956C357.464 421.664 358.062 421.406 358.672 421.183C359.095 420.994 359.545 420.85 359.972 420.667L360.289 420.522C360.772 420.328 361.228 420.067 361.7 419.85C362.022 419.728 362.356 419.633 362.667 419.483C363.139 419.278 363.589 419.028 364.05 418.806C364.205 418.741 364.365 418.687 364.528 418.644C364.735 418.581 364.937 418.503 365.133 418.411C365.433 418.272 365.722 418.117 366.006 417.961C366.351 417.782 366.707 417.624 367.072 417.489C367.138 417.472 367.207 417.472 367.272 417.489C367.314 417.506 367.351 417.53 367.383 417.561L367.5 417.683L367.778 417.983Z" fill="#D3D6C7"/>
<path d="M471.794 298.511C471.439 299.489 471.839 300.522 471.567 301.506C471.533 303.572 471.444 305.633 471.261 307.694C470.911 311.667 470.511 315.633 469.978 319.583C469.444 323.533 468.794 327.567 468.022 331.528C466.364 340.08 464.102 348.505 461.256 356.739C455.427 373.694 446.899 389.597 436 403.833C430.658 410.786 424.775 417.307 418.406 423.333C409.673 431.602 400.118 438.955 389.889 445.278C383.281 449.386 376.433 453.096 369.383 456.389C358.63 461.406 347.481 465.528 336.05 468.711C328.476 470.822 320.815 472.552 313.067 473.9C307.719 474.833 302.348 475.6 296.956 476.2C293.572 476.583 290.167 476.817 286.761 477.039C284.072 477.222 281.372 477.272 278.683 477.428C274.322 477.678 269.961 477.594 265.6 477.533C262.556 477.494 259.489 477.389 256.456 477.161C254.578 477.017 252.689 476.928 250.811 476.789C247.994 476.589 245.183 476.233 242.372 475.983C241.889 475.739 241.972 475.506 242.372 475.267C242.806 475.122 243.278 475.144 243.711 474.989C244.267 474.856 244.856 474.878 245.411 474.717C245.577 474.7 245.745 474.7 245.911 474.717C245.931 474.709 245.953 474.709 245.972 474.717C246.056 474.767 246.133 474.878 246.233 474.717C246.178 474.691 246.128 474.653 246.089 474.606C246.073 474.587 246.062 474.564 246.056 474.54C246.05 474.516 246.05 474.491 246.056 474.467C246.233 474.128 246.539 474.122 246.861 474.15C247.395 474.302 247.964 474.287 248.489 474.106C248.852 474.059 249.211 473.992 249.567 473.906C249.906 473.739 250.35 473.978 250.65 473.628C250.71 473.539 250.794 473.469 250.893 473.426C250.991 473.384 251.1 473.371 251.206 473.389C251.467 473.35 251.761 473.767 252 473.328C252.071 473.242 252.164 473.178 252.269 473.143C252.374 473.108 252.487 473.102 252.595 473.128C252.845 473.128 253.111 473.422 253.339 473.072C253.401 472.986 253.486 472.919 253.584 472.88C253.683 472.841 253.79 472.83 253.895 472.85C254.257 472.957 254.643 472.957 255.006 472.85C255.239 472.739 255.595 472.944 255.728 472.572C255.791 472.476 255.883 472.402 255.991 472.36C256.098 472.318 256.216 472.311 256.328 472.339C256.578 472.339 256.845 472.628 257.078 472.294C257.14 472.209 257.226 472.144 257.324 472.105C257.422 472.067 257.53 472.057 257.633 472.078C257.811 472.078 258.011 472.278 258.144 471.994C258.218 471.911 258.312 471.849 258.418 471.815C258.523 471.781 258.636 471.775 258.745 471.8C258.989 471.8 259.256 472.089 259.483 471.75C259.546 471.665 259.631 471.599 259.73 471.561C259.828 471.522 259.935 471.513 260.039 471.533C260.211 471.533 260.411 471.744 260.55 471.467C260.612 471.382 260.698 471.316 260.796 471.277C260.895 471.239 261.002 471.23 261.106 471.25C261.23 471.284 261.361 471.292 261.489 471.274C261.617 471.256 261.74 471.212 261.85 471.144C261.998 471.058 262.168 471.016 262.339 471.022C262.928 471.098 263.526 470.983 264.044 470.694C264.105 470.599 264.194 470.525 264.298 470.481C264.402 470.437 264.517 470.427 264.628 470.45C264.811 470.45 265.011 470.661 265.183 470.383C265.248 470.301 265.334 470.239 265.432 470.203C265.531 470.168 265.637 470.161 265.739 470.183C265.917 470.183 266.117 470.389 266.25 470.106C266.317 470.026 266.403 469.965 266.501 469.929C266.598 469.893 266.703 469.883 266.806 469.9C267.063 469.964 267.332 469.964 267.589 469.9C267.843 469.835 268.083 469.722 268.295 469.567C268.423 469.469 268.578 469.413 268.739 469.406C268.95 469.421 269.161 469.379 269.35 469.283C269.493 469.193 269.659 469.147 269.828 469.15C269.995 469.15 270.206 469.344 270.3 469.033C270.364 468.95 270.45 468.887 270.548 468.85C270.646 468.814 270.753 468.806 270.856 468.828C271.022 468.828 271.206 469.006 271.35 468.783C271.405 468.704 271.479 468.64 271.566 468.599C271.652 468.557 271.748 468.538 271.845 468.544C272.036 468.568 272.231 468.531 272.4 468.439C272.528 468.361 272.679 468.328 272.828 468.344C273.011 468.383 273.195 468.417 273.289 468.183C273.366 468.107 273.46 468.051 273.564 468.02C273.668 467.989 273.777 467.984 273.883 468.006C274.122 468.049 274.368 468.042 274.604 467.986C274.84 467.929 275.062 467.824 275.256 467.678C275.406 467.58 275.577 467.52 275.756 467.5C276.189 467.5 276.65 467.583 276.994 467.206C277.047 467.107 277.129 467.027 277.228 466.975C277.327 466.924 277.439 466.903 277.55 466.917C277.762 466.947 277.977 466.947 278.189 466.917C278.295 466.883 278.406 466.856 278.511 466.833C278.961 466.766 279.396 466.619 279.795 466.4C279.93 466.305 280.08 466.234 280.239 466.189C280.45 466.178 280.656 466.117 280.839 466.011C280.988 465.927 281.157 465.885 281.328 465.889C282.282 465.771 283.21 465.493 284.072 465.067C284.207 464.97 284.358 464.897 284.517 464.85C284.709 464.838 284.898 464.789 285.072 464.706C285.193 464.627 285.33 464.576 285.472 464.556C285.654 464.557 285.834 464.519 286 464.444C286.122 464.368 286.258 464.317 286.4 464.294C286.543 464.281 286.682 464.242 286.811 464.178C286.932 464.099 287.068 464.046 287.211 464.022C287.354 464.009 287.494 463.969 287.622 463.906C287.744 463.828 287.88 463.777 288.022 463.756C288.163 463.74 288.3 463.7 288.428 463.639C288.549 463.561 288.685 463.508 288.828 463.483C288.969 463.471 289.106 463.434 289.233 463.372C289.356 463.294 289.495 463.243 289.639 463.222C289.84 463.228 290.041 463.2 290.233 463.139C290.335 463.096 290.439 463.059 290.544 463.028C291.351 462.816 292.13 462.512 292.867 462.122C292.996 462.018 293.143 461.937 293.3 461.883C293.511 461.874 293.716 461.815 293.9 461.711C294.044 461.626 294.206 461.575 294.372 461.561C294.899 461.531 295.407 461.354 295.839 461.05C295.969 460.942 296.118 460.859 296.278 460.806C296.494 460.794 296.709 460.768 296.922 460.728C297.022 460.689 297.128 460.661 297.233 460.628C297.555 460.538 297.855 460.381 298.111 460.167C298.249 460.059 298.411 459.986 298.583 459.956C299.157 459.912 299.715 459.749 300.222 459.478C300.324 459.424 300.43 459.38 300.539 459.344C300.924 459.249 301.297 459.109 301.65 458.928C301.748 458.874 301.85 458.83 301.956 458.794C302.325 458.7 302.682 458.56 303.017 458.378C303.114 458.326 303.217 458.283 303.322 458.25C303.699 458.148 304.062 458.002 304.406 457.817C304.509 457.762 304.617 457.716 304.728 457.678C305.263 457.535 305.765 457.29 306.206 456.956C306.337 456.84 306.496 456.76 306.667 456.722C307.002 456.719 307.33 456.631 307.622 456.467C307.724 456.418 307.827 456.376 307.933 456.339C308.415 456.199 308.882 456.013 309.328 455.783L309.617 455.639C309.804 455.544 309.978 455.425 310.133 455.283C310.268 455.18 310.431 455.12 310.6 455.111C311.023 455.05 311.429 454.905 311.794 454.683C311.895 454.623 312.001 454.571 312.111 454.528L312.589 454.306C312.695 454.251 312.804 454.205 312.917 454.167C313.532 453.935 314.131 453.664 314.711 453.356C314.811 453.3 314.917 453.256 315.022 453.206L315.489 452.994C315.59 452.944 315.694 452.9 315.8 452.861L316.289 452.678C317.733 451.922 319.261 451.344 320.595 450.395C321.08 449.991 321.649 449.701 322.261 449.544C323.463 449.193 324.592 448.629 325.595 447.878C325.715 447.756 325.861 447.663 326.022 447.606C326.283 447.599 326.541 447.556 326.789 447.478C326.968 447.388 327.137 447.28 327.295 447.156C327.376 447.092 327.463 447.036 327.556 446.989L327.972 446.761C328.069 446.7 328.169 446.645 328.272 446.594C328.584 446.434 328.881 446.249 329.161 446.039C329.255 445.978 329.353 445.924 329.456 445.878C329.659 445.812 329.858 445.732 330.05 445.639L330.306 445.467C330.386 445.403 330.472 445.345 330.561 445.294C330.772 445.16 330.959 444.993 331.117 444.8C331.229 444.684 331.375 444.606 331.533 444.578C331.743 444.56 331.946 444.495 332.128 444.389L332.395 444.228C332.621 444.098 332.824 443.931 332.995 443.733C333.107 443.613 333.255 443.531 333.417 443.5C333.638 443.485 333.848 443.399 334.017 443.256C334.094 443.167 334.178 443.089 334.256 443C334.328 442.902 334.41 442.81 334.5 442.728C337.517 440.756 340.611 438.911 343.611 436.933C351.569 431.749 358.984 425.776 365.744 419.106C366.243 418.627 366.803 418.218 367.411 417.889L367.583 417.794L367.828 417.661C378.288 412.698 388.346 406.929 397.911 400.406C404.053 396.132 409.91 391.463 415.444 386.428C423.753 378.884 431.075 370.322 437.239 360.944C445.4 348.482 451.219 334.635 454.411 320.083C455.881 313.402 456.869 306.623 457.367 299.8C457.815 294.056 457.902 288.289 457.628 282.533C456.796 266.065 453.985 249.757 449.256 233.961C445.42 221.058 440.695 208.435 435.117 196.183C433.401 192.464 431.883 188.657 430.567 184.778C426.493 172.519 422.446 160.248 418.428 147.967C414.894 137.133 411.317 126.3 407.55 115.572C407.394 115.133 407.089 114.656 407.55 114.2C409.617 115.95 411.317 118.05 413.106 120.061C417.022 124.456 420.711 129.044 424.217 133.767C429.445 140.811 434.233 148.172 438.556 155.806C440.578 159.361 442.517 162.967 444.317 166.639C448.617 175.397 452.396 184.402 455.633 193.606C458.765 202.551 461.421 211.657 463.589 220.883C465.467 228.883 467.043 236.943 468.317 245.061C469.189 250.617 469.939 256.239 470.5 261.867C470.806 264.989 471.056 268.111 471.322 271.239C471.467 273.033 471.444 274.828 471.556 276.622C471.856 277.694 471.417 278.844 471.789 279.883L471.794 298.511Z" fill="#6C7983"/>
<path d="M241 475.75C239.433 476.12 237.845 476.391 236.244 476.561C233.811 476.931 231.372 477.267 228.928 477.567C226.928 477.817 224.917 477.994 222.911 478.194C220.372 478.45 217.833 478.75 215.289 478.933C213.772 479.05 212.244 479.167 210.728 479.222C207.089 479.35 203.45 479.467 199.817 479.622C196.394 479.767 192.983 479.822 189.572 479.75C186.428 479.678 183.283 479.622 180.128 479.483C177.305 479.361 174.489 479.144 171.672 478.928C167.922 478.667 164.167 478.328 160.439 477.817C143.348 475.738 126.649 471.195 110.861 464.328C106.233 462.333 101.717 460.094 97.2722 457.733C92.8277 455.372 88.5166 452.767 84.2999 450C80.5055 447.511 76.7722 444.933 73.1888 442.178C70.4444 440.083 67.7444 437.922 65.1277 435.661C61.9944 432.961 59.0166 430.106 55.9388 427.328C53.0277 424.694 50.3833 421.806 47.7444 418.944C41.8028 412.514 36.2821 405.707 31.2166 398.567C26.6868 392.194 22.4869 385.592 18.6333 378.789C16.1222 374.344 13.7333 369.9 11.5277 365.306C9.1466 360.468 7.08117 355.482 5.3444 350.378C3.73371 345.478 2.49683 340.464 1.6444 335.378C1.23329 332.911 1.0444 330.378 0.755507 327.911C0.449951 326.483 0.43884 325.022 0.199951 323.589V315C0.271849 314.948 0.331468 314.88 0.374647 314.803C0.417826 314.725 0.443527 314.639 0.449954 314.55C0.638843 312.183 0.772175 309.811 1.03884 307.456C1.39995 304.206 1.85551 300.967 2.46106 297.756C3.37773 292.95 4.53328 288.206 5.85551 283.494C6.34995 281.728 6.85551 279.961 7.52218 278.239C7.56232 278.214 7.60845 278.201 7.65551 278.201C7.70256 278.201 7.7487 278.214 7.78884 278.239L7.83884 278.267C7.90559 278.363 7.95019 278.472 7.9694 278.588C7.98862 278.703 7.98197 278.821 7.94995 278.933C8.06662 279.044 7.42773 279.256 7.99996 279.311C8.08389 279.383 8.14645 279.476 8.18076 279.581C8.21506 279.686 8.21978 279.798 8.19439 279.906C8.1306 280.189 8.1306 280.483 8.19439 280.767C8.48884 281.617 8.69995 282.483 8.92773 283.35C9.48329 285.161 9.97218 286.978 10.5944 288.767C10.6731 288.983 10.7795 289.189 10.9111 289.378C11.0143 289.505 11.0883 289.652 11.1277 289.811C11.1503 289.962 11.1913 290.109 11.25 290.25C11.327 290.378 11.3797 290.519 11.4055 290.667C11.4195 290.81 11.459 290.949 11.5222 291.078C11.6009 291.203 11.6538 291.343 11.6777 291.489C11.6936 291.634 11.735 291.775 11.8 291.906C11.8834 292.033 11.9383 292.177 11.9611 292.328C11.9936 292.484 12.0459 292.635 12.1166 292.778C12.1937 292.929 12.2337 293.097 12.2333 293.267C12.2722 294.439 12.8833 295.428 13.2388 296.494C13.45 297.139 13.6388 297.778 13.9 298.4C13.9555 298.511 14 298.628 14.05 298.739C14.2477 299.328 14.4796 299.905 14.7444 300.467C15.0299 301.38 15.3866 302.27 15.8111 303.128C16.8945 306.048 18.1542 308.899 19.5833 311.667C20.2555 312.1 20.3277 312.878 20.6333 313.511C25.8282 324.509 31.853 335.095 38.6555 345.178C43.5518 352.315 48.7777 359.2 54.3333 365.833C58.1333 370.396 62.087 374.82 66.1944 379.106C68.5277 381.528 71.0111 383.833 73.4166 386.217C80.2055 392.989 87.4444 399.261 94.8611 405.328C105.465 413.911 116.512 421.933 127.955 429.361C130.061 430.739 132.289 431.944 134.272 433.5C134.372 433.622 134.222 434.056 134.644 433.789C134.779 433.798 134.907 433.847 135.014 433.929C135.121 434.011 135.201 434.123 135.244 434.25C135.217 434.6 135.394 434.372 135.505 434.333C135.786 434.401 136.029 434.574 136.183 434.817C136.441 435.12 136.769 435.357 137.139 435.506C137.244 435.556 137.339 435.617 137.433 435.672C137.665 435.832 137.94 435.918 138.222 435.917C138.836 436.105 139.384 436.466 139.8 436.956C139.972 437.444 140.461 437.511 140.833 437.767C141.22 438.108 141.713 438.304 142.228 438.322C142.86 438.498 143.426 438.86 143.85 439.361C144.183 440.011 144.839 440.133 145.45 440.317C145.861 440.375 146.236 440.585 146.5 440.906C146.417 441.494 146.8 440.933 146.906 441.067C147.475 441.233 147.988 441.552 148.389 441.989C148.379 442.061 148.379 442.134 148.389 442.206C148.389 442.206 148.389 442.206 148.389 442.239C148.455 442.35 148.694 442.061 148.772 442.144C149.393 442.31 149.945 442.668 150.35 443.167C150.689 443.828 151.433 443.883 151.961 444.278C152.719 444.779 153.511 445.225 154.333 445.611C155.132 446.131 155.967 446.591 156.833 446.989C158.861 448.239 160.989 449.311 163.083 450.439C172.528 455.544 182.161 460.289 192.311 463.883C203.338 467.857 214.672 470.921 226.2 473.044C228.422 473.467 230.678 473.828 232.928 474.156H232.967C235.255 474.55 237.555 474.794 239.85 475.122C239.994 475.122 240.156 475.122 240.311 475.122L240.578 475.167C240.706 475.198 240.819 475.274 240.896 475.381C240.974 475.488 241.01 475.618 241 475.75Z" fill="#868E77"/>
<path d="M406.656 112.361C405.894 112.461 405.544 111.856 405.105 111.433C402.244 108.7 399.489 105.878 396.594 103.15C389.544 96.576 382.087 90.4527 374.267 84.8167C364.617 77.8736 354.467 71.653 343.9 66.2056C327.364 57.6703 309.98 50.8872 292.033 45.9667C278.23 42.1488 264.159 39.3744 249.939 37.6667C244.539 37.0167 239.117 36.5556 233.683 36.1889C222.217 35.3667 210.739 35.6667 199.272 35.7667C193.261 35.8167 187.239 36.2389 181.233 36.7222C172.75 37.4 164.305 38.3278 155.911 39.7167C139.717 42.3889 123.983 46.6722 108.978 53.4111C105.911 54.7164 102.917 56.1833 100.005 57.8056C99.2666 58.2333 98.5388 58.9167 97.5388 58.6111C98.2055 57.45 99.361 56.7722 100.317 55.9389C102.687 53.8834 105.094 51.8741 107.539 49.9111C112.767 45.7222 118.228 41.8667 123.833 38.2C129.178 34.7056 134.694 31.5333 140.317 28.4778C143.839 26.5741 147.409 24.7648 151.028 23.05C157.161 20.15 163.396 17.4852 169.733 15.0556C174.1 13.3889 178.489 11.7889 182.928 10.3389C189.202 8.29446 195.528 6.42964 201.906 4.74446C205.078 3.91668 208.25 3.11668 211.467 2.52223C213.844 2.08335 216.244 1.7889 218.644 1.48334C221.317 1.15001 223.989 0.883344 226.667 0.750011C228.372 0.661122 230.061 0.355569 231.772 0.444458C233.272 0.211125 234.783 0.411122 236.294 0.333344C236.772 0.333344 237.272 0.466679 237.728 0.200012H241C242.494 0.516679 244.005 0.255569 245.505 0.344458C245.993 0.291456 246.486 0.325314 246.961 0.444458C249.294 0.394458 251.622 0.655569 253.95 0.800013C256.439 0.961124 258.95 1.21112 261.433 1.46668C264.061 1.7389 266.689 2.02224 269.306 2.3889C273.75 2.9889 278.165 3.72964 282.55 4.61112C287.783 5.66668 292.978 6.87223 298.105 8.32779C303.768 9.9352 309.352 11.7871 314.855 13.8833C321.516 16.4752 328.031 19.4259 334.372 22.7222C338.889 25.0389 343.261 27.5833 347.6 30.2611C352.126 33.103 356.487 36.2006 360.661 39.5389C362.328 40.8778 363.906 42.3778 365.556 43.7667C367.383 45.3 369.033 47.0222 370.711 48.7111C375.244 53.3235 379.367 58.322 383.033 63.65C386.733 69.0119 390.074 74.6131 393.033 80.4167C396.183 86.5278 398.972 92.8 401.606 99.15C403.328 103.302 404.959 107.483 406.5 111.694C406.564 111.914 406.616 112.136 406.656 112.361Z" fill="#6C7983"/>
<path d="M94.5167 60.75C92.5945 62.7 90.6834 64.6389 88.7389 66.5944C83.5077 71.8533 78.6216 77.4446 74.1112 83.3333C64.167 96.1859 55.9766 110.304 49.7556 125.317C47.8056 130.006 46.0112 134.761 44.4334 139.578C42.0592 146.827 40.0841 154.201 38.5167 161.667C37.3723 167.104 36.426 172.576 35.6778 178.083C35.2834 180.922 35.0056 183.783 34.7334 186.639C34.4223 189.85 34.1778 193.067 33.9889 196.283C33.5445 203.156 33.7 210.039 33.7223 216.917C33.9565 218.117 33.9753 219.349 33.7778 220.556C33.4954 222.148 32.931 223.678 32.1112 225.072C28.3556 231.739 24.9834 238.583 21.7 245.483C18.5334 252.15 15.5167 258.867 12.8111 265.728C11.3519 269.457 9.97967 273.215 8.69449 277C8.53338 277.478 8.56671 278.167 7.85004 278.267H7.7667H7.66671H7.55004C5.55765 270.67 3.99774 262.967 2.87782 255.194C2.32226 251.306 1.86671 247.372 1.52782 243.439C1.28893 240.622 1.16115 237.8 0.972261 234.983C0.634375 229.1 0.593586 223.204 0.850043 217.317C1.02782 212.172 1.46115 207.033 2.03337 201.906C2.86301 194.462 4.07947 187.067 5.67782 179.75C7.04819 173.491 8.70374 167.315 10.6445 161.222C11.6612 158.039 12.5612 155.5 13.0056 154.256C13.9778 151.561 15.5445 147.206 17.5445 142.789C19.6094 138.295 21.9932 133.954 24.6778 129.8C31.2834 119.244 37.7889 111.789 48.2556 99.8C49.4834 98.3889 50.9112 96.7833 52.65 94.9111C56.0723 91.2167 58.8167 88.5222 60.1112 87.2555C70.3889 77.2556 81.5389 68.3333 93.9223 61.0278C94.0896 60.88 94.296 60.7835 94.5167 60.75Z" fill="#6C7983"/>
<path d="M350.906 338.239C349.974 338.359 349.121 338.825 348.517 339.544C345.042 343.304 341.224 346.73 337.111 349.778C336.661 350.111 336.4 350.656 336 350.889C335.478 351.167 335.033 350.461 334.472 350.289C331.854 349.496 329.156 348.997 326.428 348.8C326.033 348.761 325.606 348.8 325.317 348.422C324.99 348.023 324.588 347.693 324.133 347.45C323.678 347.207 323.18 347.056 322.667 347.006C322.22 346.933 321.797 346.754 321.433 346.483C319.939 345.1 318.239 345.289 316.483 345.756C315.611 345.978 314.767 346.239 313.872 346.389C311.522 346.744 308.55 344.783 307.878 342.317C307.528 341.067 307.561 340.994 308.756 340.544C309.386 340.324 310.027 340.139 310.678 339.989C311.608 339.843 312.526 339.623 313.422 339.333C316.228 338.189 318.738 336.423 320.761 334.167C322.983 331.628 321.733 328.244 318.389 327.689C318.039 327.626 317.684 327.595 317.328 327.594C315.406 327.5 313.478 327.461 311.539 327.333C311.306 327.328 311.077 327.269 310.87 327.161C310.663 327.053 310.483 326.9 310.344 326.713C310.206 326.525 310.112 326.308 310.069 326.079C310.027 325.85 310.037 325.614 310.1 325.389C310.234 324.821 310.436 324.271 310.7 323.75C311.664 321.926 312.795 320.194 314.078 318.578C315.628 316.506 317.233 314.467 318.089 311.95C318.944 309.433 319.267 306.794 318.372 304.172C317.975 303.074 317.461 302.021 316.839 301.033C315.667 299.111 313.889 298.422 311.706 298.422C310.344 298.422 309.972 297.917 310.1 296.556C310.204 295.658 310.444 294.781 310.811 293.956C311.398 292.55 312.124 291.206 312.978 289.944C313.34 289.485 313.553 288.927 313.59 288.343C313.627 287.76 313.485 287.179 313.183 286.678C312.717 285.761 312.211 284.85 311.689 283.972C309.133 279.678 305.939 275.811 303.211 271.65C302.334 270.338 301.124 269.281 299.706 268.589C298.678 268.067 297.483 267.861 296.606 267.039C296.25 266.7 295.689 266.722 295.183 266.644C293.861 266.439 292.517 266.383 291.189 266.122C289.4 265.75 288.333 265.011 288.239 262.789C288.056 258.061 287.128 253.417 286.261 248.783C285.878 246.64 284.745 244.703 283.067 243.317C280.994 241.578 278.794 240.011 276.761 238.256C275.45 237.144 274.033 237.1 272.467 237.417C272.156 237.449 271.867 237.591 271.651 237.817C271.435 238.043 271.307 238.338 271.289 238.65C271.1 239.972 270.956 241.317 270.694 242.622C270.403 244.095 270.696 245.623 271.511 246.883C271.7 247.131 271.869 247.393 272.017 247.667C272.706 249.028 273.494 250.356 272.617 251.939C272.395 252.39 272.31 252.896 272.372 253.394C272.431 254.298 272.195 255.197 271.7 255.956C269.701 259.502 267.371 262.85 264.739 265.956C264.513 266.265 264.222 266.521 263.886 266.706C263.549 266.89 263.177 266.998 262.794 267.022C261.983 267.111 261.213 267.427 260.572 267.933C258.531 269.48 256.748 271.34 255.289 273.444C253.672 275.668 251.603 277.524 249.217 278.889C247.552 279.763 245.809 280.481 244.011 281.033C241.544 281.893 239.048 282.633 236.522 283.256C235.217 283.572 234.472 283.122 234.061 281.833C233.971 281.486 233.833 281.153 233.65 280.844C232.512 279.402 231.922 277.603 231.983 275.767C231.539 275.489 231.111 275.933 230.661 275.583C229.167 274.367 227.328 274.183 225.489 274.067C225.043 273.985 224.586 273.998 224.146 274.105C223.706 274.211 223.293 274.408 222.933 274.683C222.683 274.876 222.37 274.969 222.056 274.944C220.633 275.056 219.2 275.244 217.778 275.356C215.467 275.522 213.189 276.05 210.778 275.806C210.856 276.306 210.75 276.817 210.478 277.244C210.059 277.875 209.762 278.578 209.6 279.317C209.172 280.733 208.689 282.133 207.55 283.206C207.306 283.503 206.969 283.71 206.594 283.795C206.219 283.879 205.826 283.836 205.478 283.672C205.056 283.518 204.659 283.303 204.3 283.033C203.861 282.633 203.288 282.413 202.694 282.417C202.24 282.455 201.787 282.319 201.43 282.035C201.072 281.751 200.837 281.341 200.772 280.889C201.263 280.681 201.707 280.378 202.08 279.996C202.452 279.615 202.744 279.163 202.939 278.667C203.067 278.35 203.35 278.217 203.611 278.028C204.286 277.513 204.788 276.805 205.051 275.999C205.313 275.192 205.325 274.324 205.083 273.511C204.706 272.356 204.185 271.253 203.533 270.228C202.422 268.561 200.678 268.189 199.017 269.311C198.461 269.683 197.933 270.117 197.35 270.489C197.033 270.728 196.472 270.694 196.344 271.044C196.217 271.394 196.439 271.906 196.606 272.311C196.661 272.444 196.661 272.578 196.717 272.706C196.888 273.025 196.931 273.397 196.837 273.747C196.743 274.097 196.519 274.398 196.211 274.589C195.715 274.989 195.389 275.563 195.3 276.194C194.867 278.306 193.3 279.111 191.939 281.033C194.478 282.306 193.156 288.428 195.578 290.444C196.101 290.834 196.504 291.364 196.739 291.972C196.925 292.569 196.925 293.209 196.739 293.806C196.122 296.194 196.778 298.528 196.85 300.878C196.868 301.217 196.97 301.547 197.146 301.838C197.322 302.129 197.568 302.372 197.861 302.544C198.129 302.756 198.456 302.88 198.796 302.9C199.137 302.92 199.476 302.834 199.767 302.656C200.051 302.515 200.282 302.287 200.426 302.005C200.571 301.723 200.62 301.401 200.567 301.089C200.344 299.422 200.511 297.756 200.472 296.122C200.436 295.629 200.561 295.138 200.828 294.722C200.867 294.614 200.938 294.52 201.03 294.452C201.121 294.383 201.231 294.342 201.346 294.335C201.461 294.327 201.575 294.353 201.675 294.409C201.776 294.465 201.857 294.548 201.911 294.65C202.068 294.839 202.182 295.061 202.243 295.299C202.305 295.537 202.313 295.786 202.267 296.028C201.789 298.08 201.733 300.208 202.1 302.283C202.211 302.701 202.23 303.138 202.155 303.564C202.08 303.99 201.914 304.395 201.667 304.75C200.961 305.722 201.667 307.122 203.089 307.306C203.794 307.4 204.378 307.456 204.844 308C205.465 308.66 205.855 309.505 205.956 310.406C206.036 310.985 205.971 311.574 205.767 312.122C205.211 313.372 205.561 314.344 206.667 315.15C207.917 316.083 209.111 317.106 210.433 317.967C210.909 318.267 211.307 318.675 211.597 319.157C211.886 319.64 212.059 320.183 212.1 320.744C212.1 320.933 212.233 321.3 211.95 321.3C211.094 321.172 211.167 321.856 210.978 322.311C210.786 322.815 210.471 323.263 210.061 323.613C209.651 323.963 209.159 324.205 208.631 324.315C208.104 324.426 207.557 324.402 207.041 324.246C206.524 324.09 206.056 323.807 205.678 323.422C205.24 323.039 204.822 322.633 204.428 322.206C203.922 321.65 203.533 321.289 202.672 321.794C201.811 322.3 200.228 321.122 200.189 320.006C200.199 319.636 200.073 319.276 199.833 318.994C198.643 317.529 197.531 316.003 196.5 314.422C195.85 313.411 194.833 312.817 193.817 312.2C192.583 311.494 191.333 310.783 190.061 310.111C189.638 309.909 189.266 309.614 188.971 309.248C188.677 308.883 188.469 308.457 188.361 308C188.011 306.622 187.522 305.256 187.25 303.856C187.061 303.064 187.134 302.232 187.457 301.485C187.781 300.737 188.338 300.115 189.044 299.711C190.156 299.006 190.294 298.161 189.489 297.133C187.937 295.211 186.389 293.294 184.844 291.383C184.222 290.778 183.854 289.957 183.817 289.089C183.826 288.594 183.968 288.111 184.228 287.689C186.411 283.656 187.511 281.578 189.567 281.022C189.585 280.942 189.585 280.858 189.567 280.778C189.494 279.667 188.689 278.8 188.317 277.789C187.517 275.567 185.778 274.822 183.633 275.756C181.966 276.45 180.338 277.234 178.756 278.106C177.822 278.628 176.817 279.022 175.844 279.472C175.585 279.614 175.296 279.693 175.001 279.702C174.706 279.712 174.412 279.652 174.144 279.528C172.431 278.745 170.614 278.21 168.75 277.939C167.539 277.75 166.4 277.25 165.933 275.906C165.9 275.801 165.845 275.706 165.771 275.625C165.697 275.545 165.606 275.481 165.506 275.439C164.517 274.989 163.561 274.483 162.572 274.072C161.006 273.383 159.472 272.672 157.978 271.85C156.311 270.917 154.583 270.739 152.922 272.017C152.116 272.602 151.169 272.964 150.178 273.067C149.133 273.178 148.028 273.217 147.189 272.561C146.934 272.322 146.597 272.189 146.247 272.189C145.897 272.189 145.561 272.322 145.306 272.561C144.907 272.829 144.535 273.134 144.194 273.472C142.076 275.709 140.296 278.243 138.911 280.994C138.352 281.92 137.991 282.95 137.85 284.022C137.717 285.778 137.567 287.511 137.472 289.25C137.311 291.591 137.823 293.93 138.95 295.989C140.683 299.239 142.383 302.506 144.122 305.733C144.4 306.239 144.55 306.572 144.028 306.983C143.6 307.3 143.656 307.583 144.139 307.9C145.655 308.874 146.823 310.304 147.474 311.984C148.125 313.665 148.226 315.509 147.761 317.25C147.661 317.525 147.643 317.823 147.709 318.108C147.775 318.393 147.923 318.653 148.133 318.856C148.561 319.306 148.994 319.772 149.406 320.239C149.97 320.845 150.467 321.51 150.889 322.222C151.822 323.811 150.706 326.239 148.967 326.667C148.317 326.833 147.7 327.133 147.067 327.333C146.386 327.519 145.789 327.931 145.375 328.502C144.961 329.073 144.754 329.768 144.789 330.472C144.728 332.394 144.583 334.317 144.617 336.239C144.65 337.409 144.296 338.557 143.611 339.506C142.959 340.419 142.401 341.396 141.944 342.422C140.783 345.128 140.278 345.461 137.311 345.556C137.182 345.567 137.052 345.567 136.922 345.556C135.573 345.581 134.232 345.767 132.928 346.111C131.094 346.667 130.594 347.361 130.217 349.411C130.072 350.233 130.161 351.078 130.089 351.95C129.939 354.117 129.606 356.189 128.389 358.094C127.789 358.972 127.377 359.963 127.178 361.007C126.979 362.051 126.998 363.125 127.233 364.161C127.391 365.043 127.465 365.938 127.456 366.833C127.446 369.212 127.151 371.58 126.578 373.889C126.397 374.768 126.537 375.682 126.972 376.467C127.961 378.367 129.622 379.656 131.339 380.778C134.178 382.661 136.994 384.567 139.722 386.622C143.306 389.311 147.117 391.528 151.522 392.594C154.733 393.378 158 393.939 161.244 393.117C165.75 392.055 170.122 390.49 174.278 388.45C176.009 387.491 177.973 387.031 179.95 387.122C182.728 387.328 185.506 387.706 188.283 387.778C188.914 387.812 189.545 387.71 190.133 387.478C192.561 386.472 195.061 382.606 193.194 379.939C192.317 378.667 192.45 377.117 193.417 375.772C193.83 375.234 194.17 374.644 194.428 374.017C195.194 372.061 196.739 371.239 198.7 371.033C200.172 370.877 201.632 370.627 203.072 370.283C207.439 369.261 211.883 368.617 216.061 366.867C218.117 365.989 220.039 364.983 221.478 363.211C222.082 362.541 222.437 361.684 222.483 360.783C222.483 359.811 222.333 359.589 221.439 359.328C218.6 358.544 215.744 357.739 212.911 356.956C211.022 356.433 210.689 356.078 210.483 354.1C210.401 353.11 210.038 352.164 209.439 351.372C208.911 350.7 208.428 349.994 207.889 349.339C207.307 348.663 206.931 347.833 206.806 346.95C205.817 340.839 205.406 334.728 204.9 328.617C204.9 328.394 204.767 328.15 205.106 328.061C205.35 328 205.628 327.944 205.794 328.261C206.428 329.494 207.4 330.522 207.772 331.922C208.65 335.172 209.439 338.456 209.994 341.761C210.328 343.611 210.85 345.439 210.778 347.361C210.771 348.478 210.858 349.593 211.039 350.694C211.356 353.306 212.567 354.444 215.222 354.444C217.444 354.444 219.717 354.278 221.939 354.128C226.05 353.867 230.006 352.878 233.944 351.739C238.239 350.522 238.239 350.544 241.656 347.633C243.128 346.4 244.622 345.167 246.1 343.956C246.983 343.183 248.075 342.688 249.239 342.533C250.868 342.367 252.497 342.85 253.772 343.878C256.128 345.65 258.139 347.8 260.272 349.794C261.884 351.333 263.38 352.987 264.75 354.744C266.711 357.378 269.156 359.539 271.45 361.839C271.608 361.995 271.783 362.133 271.972 362.25C273.039 362.922 273.489 362.939 274.4 362.1C276.756 359.989 278.25 357.506 277.783 354.183C277.641 353.349 277.691 352.494 277.93 351.682C278.169 350.871 278.59 350.124 279.161 349.5C281.289 346.961 283.383 344.383 284.611 341.228C284.688 340.921 284.876 340.654 285.139 340.478C285.402 340.302 285.721 340.231 286.033 340.278C286.589 340.35 287.061 339.789 287.322 339.25C287.822 338.183 288.178 337.922 289.222 338.167C290.779 338.495 292.278 339.057 293.667 339.833C294.778 340.506 295.889 341.178 297 341.789C300.917 343.956 304.728 346.311 308.872 348.083C309.604 348.376 310.369 348.575 311.15 348.678C313.372 348.961 315.539 349.406 317.722 349.789C314.576 350.19 311.483 350.935 308.5 352.011C308.5 352.611 308.444 353.122 309.394 352.967C309.978 352.914 310.566 352.963 311.133 353.111C312.317 353.37 313.54 353.397 314.733 353.189C315.927 352.984 317.153 353.079 318.3 353.467C319.933 353.967 321.631 354.219 323.339 354.217C323.743 354.172 324.153 354.223 324.533 354.367C325.34 354.712 326.208 354.895 327.086 354.905C327.964 354.914 328.835 354.75 329.65 354.422C331.525 353.799 333.358 353.056 335.139 352.2C335.25 352.144 335.439 352.05 335.472 352.089C336.2 352.817 336.728 352.089 337.228 351.811C341.706 349.22 345.904 346.172 349.756 342.717C351.05 341.608 352.219 340.362 353.244 339C353.677 338.533 353.917 337.92 353.917 337.283C352.95 337.709 351.941 338.029 350.906 338.239ZM218.778 315.333C217.847 314.563 217.003 313.693 216.261 312.739C215.742 312.058 215.083 311.496 214.329 311.089C213.575 310.683 212.743 310.442 211.889 310.383C211.692 310.402 211.495 310.358 211.325 310.258C211.154 310.159 211.019 310.008 210.939 309.828C210.768 309.461 210.496 309.151 210.156 308.933C210.063 308.892 209.979 308.831 209.91 308.757C209.84 308.682 209.787 308.594 209.752 308.498C209.717 308.402 209.702 308.301 209.707 308.199C209.713 308.097 209.739 307.997 209.783 307.906C209.95 307.478 210.133 307.1 210.661 307.011C211.189 306.922 211.8 306.806 212.378 306.711C212.911 306.666 213.42 306.474 213.85 306.156C214.406 305.706 215.1 305.728 215.867 305.672C215.822 306.473 215.822 307.277 215.867 308.078C215.865 308.212 215.89 308.345 215.94 308.469C215.99 308.593 216.065 308.706 216.159 308.802C216.252 308.897 216.364 308.973 216.488 309.025C216.611 309.078 216.744 309.105 216.878 309.106C217.433 309.161 217.989 309.294 218.544 309.383C218.822 308.956 218.428 308.567 218.578 308.156C219.289 308.283 220.056 308.211 220.8 308.656C220.428 309.256 219.828 309.444 219.133 309.767C220.367 311.667 221.672 313.533 222.061 315.833C220.806 316.433 219.722 316.111 218.778 315.333Z" fill="white"/>
<path d="M207.05 165.744C203.683 166.9 201.961 171.689 198.383 171.3C197.645 171.142 196.919 170.932 196.211 170.672C194.422 170.072 192.683 169.333 190.894 168.733C190.189 168.504 189.545 168.119 189.009 167.606C188.473 167.093 188.06 166.467 187.8 165.772C187.489 165.028 187.105 164.311 186.778 163.55C186.708 163.361 186.588 163.194 186.43 163.067C186.272 162.941 186.083 162.86 185.883 162.833C183.822 162.461 181.889 162.639 180.505 164.411C179.691 165.488 178.62 166.344 177.389 166.9C177.096 167.003 176.85 167.209 176.699 167.48C176.547 167.751 176.5 168.069 176.567 168.372C176.644 169.128 176.567 169.906 176.7 170.656C177.089 172.978 176.311 174.994 175.161 176.928C173.63 179.408 171.748 181.654 169.572 183.594C164.967 187.861 159.789 191.339 154.389 194.5C153.189 195.2 151.939 195.817 150.722 196.489C149.485 197.124 148.504 198.166 147.944 199.439C147.245 201.082 146.182 202.544 144.834 203.715C143.487 204.887 141.891 205.736 140.167 206.2C137.779 206.817 135.502 207.801 133.417 209.117C132.787 209.531 132.245 210.065 131.822 210.689C129.528 214.022 127.65 217.567 125.583 221.017C124.971 222.009 124.448 223.054 124.022 224.139C122.955 226.967 121.35 229.506 119.933 232.15C119.645 232.656 119.422 233.198 119.272 233.761C118.839 235.472 117.789 236.033 116.189 235.428C115.942 235.315 115.69 235.215 115.433 235.128C114.582 234.921 113.801 234.49 113.171 233.881C112.541 233.272 112.085 232.505 111.85 231.661C111.237 230.018 110.504 228.423 109.655 226.889C108.744 225.133 107.383 223.889 105.317 223.633C104.907 223.597 104.518 223.434 104.205 223.167C102.657 221.87 101.33 220.329 100.278 218.606C99.1462 216.534 98.7747 214.133 99.2277 211.817C100.067 207.206 100.167 202.544 100.394 197.894C100.475 197.356 100.377 196.807 100.117 196.329C99.8558 195.852 99.4461 195.473 98.9499 195.25C97.5722 194.589 97.2444 193.267 97.1444 191.861C96.9777 189.489 96.8722 187.133 97.6999 184.839C97.9116 184.218 97.9831 183.557 97.9091 182.905C97.8351 182.253 97.6176 181.625 97.2722 181.067C96.8252 180.188 96.6001 179.213 96.6166 178.228C96.5497 175.355 96.6833 172.482 97.0166 169.628C97.314 166.866 97.9733 164.156 98.9777 161.567C101.639 155.089 101.961 155.428 102.311 152.05C102.567 149.628 102.267 147.761 103.467 145.033C103.864 143.986 104.45 143.02 105.194 142.183C107.761 139.444 110.283 140.889 112.417 138.6C113.072 137.9 112.739 137.872 114.95 132.361C116.172 129.322 116.122 129.706 116.3 129.1C117.011 126.667 116.594 124.656 114.3 116.322C113.189 112.344 112.867 111.233 113.305 109.572C113.961 107.111 115.972 104.789 117.289 105.083C118.228 105.294 118.25 106.7 119.761 110.867C120.872 113.889 121.378 115.411 122.228 116.717C123.428 118.55 125.005 120.156 126.555 123.322C126.707 123.605 126.842 123.896 126.961 124.194C127.344 125.244 127.322 126.322 128.15 130.172C128.337 131.406 128.648 132.617 129.078 133.789C130.339 136.811 131.983 136.506 135.222 140.494C137.35 143.111 138.411 144.422 139.111 145.95C139.473 146.789 140.002 147.545 140.667 148.172C141.055 148.528 142.111 149.5 143.4 149.472C144.444 149.472 145.122 148.772 145.739 148.3C148.072 146.528 151.083 146.606 156.789 146.75C157.904 146.748 159.017 146.822 160.122 146.972C161.983 147.244 163.828 147.633 165.678 147.961C166.879 148.112 168.093 148.138 169.3 148.039C170.196 147.992 171.093 147.992 171.989 148.039C173.428 148.144 174.55 148.739 175.055 150.211C175.422 151.272 175.878 152.306 176.261 153.361C176.95 155.267 177.033 157.194 175.878 158.917C174.578 160.861 174.839 162.611 176.15 164.367C176.339 164.617 176.489 164.894 176.672 165.156C176.737 165.225 176.812 165.285 176.894 165.333C177.306 165.208 177.665 164.952 177.917 164.604C178.17 164.256 178.302 163.835 178.294 163.406C178.294 162.056 179.161 161.544 180.189 161.317C183.086 160.699 186.033 160.346 188.994 160.261C189.491 160.257 189.983 160.35 190.444 160.533C192.195 161.143 194.081 161.251 195.889 160.844C196.725 160.692 197.584 160.702 198.417 160.872C201.194 161.394 204.05 161.317 206.839 161.783C207.197 161.822 207.56 161.765 207.889 161.617C209.244 161.061 210.739 160.844 212.022 160.044C212.551 159.818 213.115 159.685 213.689 159.65C216.946 158.934 220.314 158.888 223.589 159.517C224.65 159.696 225.688 159.994 226.683 160.406C227.079 160.56 227.427 160.817 227.692 161.15C227.956 161.482 228.128 161.879 228.189 162.3C228.511 164.033 229.65 165.05 231.35 165.572C233.572 166.244 235.833 166.467 238.083 166.872C238.883 166.973 239.636 167.305 240.25 167.828C241.011 168.5 242.144 168.783 242.589 169.778C243.261 171.256 244.417 172.306 245.5 173.433C246.122 174.078 246.278 174.944 246.611 175.711C246.893 176.421 247.295 177.077 247.8 177.65C248.283 178.156 248.733 178.606 249.528 178.406C250.028 178.283 250.367 178.594 250.639 179C251.589 180.528 252.667 181.961 253.672 183.444C255.211 185.717 255.339 188.311 254.956 190.956C254.851 191.718 254.654 192.464 254.367 193.178C253.811 194.528 253.811 195.956 253.9 197.4C253.935 197.831 254.073 198.248 254.3 198.616C254.528 198.984 254.841 199.293 255.211 199.517C256.761 200.539 257.061 201.833 256.583 203.594C256.307 204.508 256.313 205.483 256.601 206.393C256.888 207.303 257.444 208.105 258.194 208.694C258.971 209.378 259.462 210.327 259.572 211.356C259.833 213.026 260.468 214.616 261.43 216.006C262.392 217.396 263.656 218.551 265.128 219.383C265.824 219.709 266.582 219.881 267.35 219.889C267.596 219.882 267.84 219.932 268.064 220.035C268.287 220.138 268.484 220.292 268.639 220.483C268.708 220.586 268.797 220.674 268.9 220.743C269.004 220.811 269.12 220.859 269.241 220.883C269.363 220.906 269.488 220.906 269.61 220.881C269.732 220.857 269.847 220.808 269.95 220.739C270.444 220.517 270.944 220.322 271.439 220.106C272.145 219.803 272.895 219.615 273.661 219.55C274.217 219.5 274.872 219.389 275.244 220C275.385 220.262 275.429 220.566 275.367 220.857C275.305 221.148 275.141 221.407 274.906 221.589C274.726 221.76 274.613 221.989 274.589 222.236C274.564 222.483 274.629 222.731 274.772 222.933C274.967 223.339 275.183 223.728 275.367 224.139C275.506 224.398 275.589 224.685 275.609 224.979C275.629 225.273 275.586 225.568 275.483 225.844C275.27 226.213 275.189 226.643 275.253 227.064C275.316 227.485 275.521 227.872 275.833 228.161C275.938 228.252 276.017 228.368 276.065 228.499C276.113 228.629 276.127 228.769 276.107 228.906C276.086 229.043 276.032 229.173 275.948 229.284C275.864 229.394 275.754 229.482 275.628 229.539C275.211 229.885 274.723 230.135 274.199 230.273C273.675 230.41 273.127 230.431 272.594 230.333C272.333 230.278 272.072 230.206 271.811 230.133C271.411 230.017 271.033 229.928 270.728 230.356C270.62 230.519 270.559 230.709 270.551 230.905C270.543 231.101 270.589 231.295 270.683 231.467C270.911 232.056 271.122 232.65 271.328 233.244C271.417 233.45 271.477 233.667 271.505 233.889C271.6 234.872 271.039 235.306 270.117 235L269.739 234.844C268.283 234.289 268.272 234.289 267.544 235.694C267.468 235.906 267.326 236.088 267.139 236.214C266.953 236.34 266.731 236.403 266.505 236.394C265.567 236.394 264.622 236.367 263.683 236.35C263.004 236.351 262.338 236.161 261.76 235.803C261.183 235.444 260.717 234.932 260.417 234.322C260.161 233.867 259.944 233.494 259.35 233.467C258.922 233.467 258.667 233.078 258.378 232.789C257.389 231.811 256.394 230.839 255.383 229.883C254.689 229.222 254.667 229.222 253.85 229.883C253.033 230.544 252.028 230.511 251.044 230.167C250.477 229.904 249.877 229.717 249.261 229.611C248.878 229.583 248.678 229.611 248.678 230.078C248.607 231.331 248.339 232.564 247.883 233.733C247.657 234.694 247.572 235.682 247.633 236.667C247.609 237.476 247.322 238.256 246.817 238.889C245.483 240.739 244.233 242.65 242.928 244.511C242.114 245.686 241.215 246.8 240.239 247.844C239.541 248.669 238.68 249.34 237.711 249.817C237.485 249.908 237.3 250.079 237.19 250.296C237.08 250.514 237.052 250.764 237.111 251C237.233 251.706 237.317 252.417 237.433 253.128C237.567 253.682 237.491 254.265 237.22 254.767C236.949 255.268 236.503 255.652 235.967 255.844C235.737 255.926 235.529 256.061 235.36 256.237C235.191 256.414 235.066 256.628 234.994 256.861C234.919 257.126 234.743 257.351 234.505 257.489C234.267 257.627 233.984 257.667 233.717 257.6C233.278 257.544 232.822 257.561 232.378 257.522C230.625 257.346 228.857 257.647 227.261 258.394C227.008 258.541 226.72 258.618 226.428 258.618C226.135 258.618 225.848 258.541 225.594 258.394C225.039 258.094 224.422 257.928 223.856 257.65C223.008 257.223 222.05 257.066 221.111 257.2C219.183 257.45 217.778 256.6 216.906 254.944C215.965 253.105 214.865 251.352 213.617 249.706C211.94 247.598 209.891 245.815 207.572 244.444C207.017 244.122 206.25 243.817 206.539 243.089C206.828 242.361 207.005 241.522 207.939 241.267C209.367 240.883 210.772 240.394 212.217 240.089C213.883 239.739 215.522 240.089 217.155 240.367C217.419 240.428 217.662 240.556 217.861 240.739C218.526 241.269 219.278 241.681 220.083 241.956C221.039 242.328 222.078 242.511 222.861 243.233C223.111 243.461 223.467 243.356 223.778 243.383C226.133 243.633 228.489 243.939 230.861 243.517C231.665 243.422 232.477 243.433 233.278 243.55C234.6 243.678 234.828 243.361 234.389 242.161C234.091 241.297 233.605 240.51 232.966 239.857C232.327 239.204 231.551 238.7 230.694 238.383C229.269 237.715 227.678 237.487 226.122 237.728C224.922 237.972 223.675 237.83 222.561 237.322C222.292 237.153 221.966 237.097 221.655 237.167C220.272 237.611 219.178 236.961 218.217 236.133C217.562 235.615 217.021 234.968 216.626 234.232C216.232 233.496 215.992 232.687 215.922 231.856C215.868 231.568 215.93 231.27 216.095 231.028C216.259 230.785 216.513 230.618 216.8 230.561C218.8 230.05 220.8 229.522 222.817 229.067C223.711 228.861 224.256 229.522 224.033 230.422C223.978 230.639 223.867 230.844 223.811 231.061C223.789 231.218 223.816 231.379 223.89 231.519C223.964 231.66 224.08 231.774 224.222 231.844C224.34 231.916 224.481 231.941 224.617 231.914C224.752 231.887 224.873 231.811 224.955 231.7C225.909 230.686 226.768 229.587 227.522 228.417C227.593 228.303 227.621 228.166 227.6 228.034C227.578 227.901 227.509 227.78 227.406 227.694C227.079 227.257 226.612 226.945 226.083 226.811C224.661 226.7 223.405 226.078 222.094 225.639C221.235 225.369 220.314 225.369 219.455 225.639C219.239 225.7 219.017 225.75 218.805 225.828C217.375 226.324 215.875 226.592 214.361 226.622C211.8 226.75 209.317 227.461 206.822 228.011C205.939 228.185 205.066 228.404 204.205 228.667C201.894 229.417 199.572 229.133 197.283 228.667C195.783 228.403 194.261 228.287 192.739 228.322C192.517 228.339 192.294 228.339 192.072 228.322C191.061 228.167 190.733 227.406 191.339 226.578C191.609 226.161 191.963 225.806 192.378 225.533C192.736 225.338 193.021 225.033 193.192 224.663C193.363 224.292 193.411 223.877 193.328 223.478C193.267 222.922 193.261 222.4 193.228 221.861C193.112 220.969 193.255 220.063 193.639 219.25C194.061 218.444 193.961 217.506 193.989 216.606C193.923 215.843 193.999 215.074 194.211 214.339C194.539 213.556 194.672 213.494 195.461 213.811C196.467 214.217 197.028 213.956 197.25 212.917C197.317 212.611 197.411 212.317 197.483 212.011C197.811 210.622 197.756 209.311 196.511 208.344C196.413 208.29 196.326 208.216 196.257 208.127C196.187 208.038 196.137 207.936 196.108 207.827C196.079 207.718 196.072 207.605 196.088 207.493C196.104 207.381 196.142 207.274 196.2 207.178C197.9 204.178 197.222 201.256 195.839 198.411C195.623 197.977 195.498 197.503 195.473 197.018C195.447 196.534 195.52 196.049 195.689 195.594C196.417 193.156 197.272 190.756 197.911 188.272C198.383 186.378 199.644 184.761 200.983 183.3C201.65 182.567 202.617 182.4 203.544 182.189C204.152 182.042 204.749 181.857 205.333 181.633C205.764 181.484 206.204 181.361 206.65 181.267C208.228 180.906 210.539 181.578 210.539 181.578C213.361 182.406 220.467 179.778 221.261 176.322C222.305 171.739 212.556 163.85 207.05 165.744Z" fill="white"/>
<path d="M373.055 326.622C373.055 326.622 373.055 326.556 373.055 326.55C373.019 326.542 372.981 326.542 372.944 326.55C372.899 326.584 372.846 326.606 372.79 326.616C372.734 326.625 372.676 326.622 372.622 326.606L372.555 326.556C372.442 326.473 372.351 326.364 372.29 326.238C372.229 326.111 372.201 325.972 372.208 325.832C372.214 325.692 372.256 325.556 372.328 325.436C372.4 325.316 372.501 325.216 372.622 325.144C372.951 324.899 373.173 324.537 373.242 324.133C373.311 323.728 373.223 323.313 372.994 322.972C372.548 322.039 372.288 321.027 372.228 319.994C372.123 319.164 372.23 318.321 372.54 317.544C372.85 316.766 373.353 316.08 374 315.55C375.175 314.664 376.222 313.618 377.111 312.444C377.361 312.072 377.45 311.828 377.055 311.433C375.539 309.928 375.35 308.05 375.728 306.061C375.861 305.344 376.055 304.644 376.233 303.911C376.243 303.871 376.241 303.829 376.227 303.789C376.213 303.75 376.188 303.716 376.155 303.691C376.122 303.666 376.082 303.652 376.041 303.649C375.999 303.647 375.958 303.657 375.922 303.678C375.823 303.752 375.714 303.813 375.6 303.861C375.561 303.873 375.519 303.873 375.48 303.861C375.44 303.849 375.405 303.827 375.379 303.795C375.352 303.764 375.336 303.726 375.33 303.685C375.325 303.645 375.332 303.603 375.35 303.567C376.167 301.939 376.983 300.3 377.644 298.594C378.305 296.889 379.267 295.344 379.9 293.517C379.912 293.483 379.932 293.453 379.959 293.429C379.986 293.405 380.018 293.388 380.053 293.381C380.088 293.373 380.125 293.374 380.159 293.384C380.194 293.394 380.225 293.413 380.25 293.439C381.117 294.378 381.611 295.522 382.517 296.372C382.539 296.392 382.566 296.406 382.595 296.415C382.623 296.423 382.654 296.426 382.683 296.422C382.713 296.419 382.742 296.409 382.768 296.394C382.793 296.378 382.816 296.358 382.833 296.333C384.972 293.217 387.155 290.222 389.178 287.083C389.343 286.872 389.422 286.606 389.398 286.339C389.375 286.071 389.25 285.823 389.05 285.644C388.084 284.459 386.803 283.57 385.355 283.078C383.433 282.444 383.239 281.489 382.255 279.706C382.165 279.635 382.096 279.542 382.054 279.435C382.011 279.329 381.999 279.213 382.016 279.1C382.034 278.986 382.081 278.88 382.153 278.791C382.226 278.702 382.32 278.634 382.428 278.594C384.95 276.856 386.283 275.261 389.244 274.411C390.022 274.189 390.817 274.022 391.6 273.822C392.617 273.604 393.523 273.031 394.155 272.206C394.95 271.128 395.761 270.056 395.978 268.672C396.026 268.456 396.121 268.253 396.255 268.078C398.367 264.867 400.194 261.472 402.367 258.3C402.838 257.647 403.227 256.938 403.522 256.189C404.583 253.244 409.717 252.3 412.25 254.3C413.088 254.902 413.767 255.699 414.228 256.622C415.06 258.279 416.289 259.705 417.805 260.772C418.733 261.483 419.561 262.306 420.444 263.067C420.794 263.347 421.06 263.718 421.213 264.139C421.366 264.561 421.4 265.016 421.311 265.456C421.211 266.122 421.133 266.789 420.989 267.444C420.5 269.667 420.711 271.889 420.8 274.111C420.933 275.991 420.762 277.88 420.294 279.706C420.1 280.442 420.071 281.212 420.211 281.961C420.511 283.844 420.261 285.773 419.489 287.517C418.774 289.165 418.068 290.819 417.372 292.478C417.168 292.976 416.855 293.422 416.455 293.783C414.6 295.45 412.9 297.367 410.489 298.322C410.239 298.422 409.978 298.544 409.933 298.878C409.761 300.178 409.044 301.317 408.85 302.617C408.767 303.172 408.711 303.767 408.667 304.344C408.589 305.239 408.344 306.011 407.328 306.439C404.778 307.517 403.083 309.489 401.85 311.944C400.694 314.233 399.883 316.678 398.683 318.928C397.317 321.489 396.578 324.267 395.617 326.956C394.709 329.532 393.981 332.168 393.439 334.844C392.943 336.992 392.126 339.052 391.017 340.956C390.155 342.522 389.261 344.072 388.361 345.622C386.955 348.022 384.961 349.894 382.844 351.639C381.519 352.714 380.118 353.691 378.65 354.561C376.719 355.738 374.454 356.245 372.205 356.006C370.505 355.928 368.823 355.622 367.205 355.094C365.039 354.267 363.828 351.283 364.939 349.261C365.833 347.639 366.405 345.889 367.222 344.261C368.617 341.45 369.922 338.594 371.233 335.75C371.789 334.539 372.267 333.289 372.794 332.061C373.178 331.161 373.067 330.333 372.239 329.783C371.278 329.128 371.644 328.161 371.572 327.322C371.567 327.263 371.579 327.203 371.605 327.15C371.739 326.883 372.2 326.872 372.428 326.878H372.467C372.667 326.811 373.017 326.739 373.055 326.622Z" fill="white"/>
<path d="M380.444 280.028C380.261 280.767 380.128 281.522 379.889 282.25C379.582 283.092 379.177 283.896 378.683 284.644C376.711 287.978 373.811 290.478 371.367 293.389C370.358 294.528 369.446 295.749 368.639 297.039C368.43 297.333 368.271 297.66 368.167 298.006C368.158 298.157 368.118 298.306 368.05 298.441C367.981 298.577 367.886 298.697 367.769 298.795C367.653 298.892 367.517 298.964 367.372 299.007C367.226 299.05 367.073 299.063 366.922 299.044C366.294 299.044 365.811 299.522 365.294 299.922C364.66 300.494 363.936 300.955 363.15 301.289C362.289 301.594 362.039 301.456 362.133 300.578C362.17 299.909 362.284 299.248 362.472 298.606C363.305 295.713 364.366 292.892 365.644 290.167C366.811 287.833 367.606 285.344 368.794 283.028C370.211 280.283 371.311 277.372 372.789 274.694C374.906 270.742 377.475 267.048 380.444 263.689C381.314 262.659 382.241 261.68 383.222 260.756C383.409 260.567 383.612 260.394 383.828 260.239C384.233 259.983 384.583 260.144 384.544 260.589C384.211 264.389 383.433 268.089 380.85 271.044C378.85 273.311 378.822 275.583 380.261 278.061C380.35 278.217 380.4 278.394 380.472 278.556C380.822 279.056 380.444 279.533 380.444 280.028Z" fill="white"/>
<path d="M348.661 333.178C348.478 333.757 348.138 334.275 347.678 334.672C346.328 335.983 344.972 337.289 343.589 338.561C342.518 339.46 341.259 340.107 339.905 340.456C338.642 340.76 337.353 340.946 336.055 341.011C335.377 341.07 334.7 340.872 334.161 340.456C333.935 340.326 333.74 340.149 333.589 339.937C333.438 339.725 333.334 339.482 333.285 339.227C333.236 338.971 333.243 338.708 333.305 338.455C333.367 338.202 333.483 337.965 333.644 337.761C334.305 336.75 335.222 335.933 335.8 334.85C336.019 334.469 336.173 334.054 336.255 333.622C336.683 331.2 337.133 328.778 337.572 326.356C337.905 324.5 338.867 323.194 341.089 323.2C342.922 323.2 344.755 323.061 346.589 323.039C347.65 323.039 347.733 323.083 347.655 324.078C347.5 326.111 348.094 327.967 348.728 329.85C349.289 331.533 349.272 331.717 348.661 333.178Z" fill="white"/>
<path d="M191.944 281.039C191.913 281.066 191.887 281.098 191.867 281.133C191.525 281.362 191.15 281.538 190.756 281.656C190.233 281.861 189.372 281.822 189.578 281.244C189.589 281.189 189.589 281.133 189.578 281.078C189.617 281.078 189.672 281.078 189.706 281.039C190.506 280.872 191.217 280.683 191.944 281.039Z" fill="white"/>
</svg>
