<svg width="56" height="57" viewBox="0 0 56 57" fill="none" xmlns="http://www.w3.org/2000/svg">
<path d="M12.0715 6.99594C12.1964 6.94054 12.3177 6.87735 12.4347 6.80675C13.2407 6.39138 14.0745 6.03232 14.9301 5.73217C16.1846 5.30121 17.4731 4.97655 18.782 4.76164C19.3495 4.66326 19.9171 4.58191 20.4846 4.52515C20.9879 4.47407 21.493 4.4211 21.9981 4.37948C22.2895 4.35489 22.5846 4.35299 22.876 4.33407C24.0111 4.2565 25.1462 4.27353 26.2813 4.27164C26.8621 4.27164 27.4429 4.30191 28.0237 4.33975C28.7805 4.38704 29.5372 4.46461 30.294 4.56677C31.9182 4.78818 33.5242 5.12708 35.0993 5.58081C36.6352 6.02355 38.1353 6.58199 39.5869 7.25134C40.8263 7.8228 42.0243 8.48025 43.172 9.21889C44.3138 9.9534 45.3996 10.7717 46.4203 11.667C46.7363 11.9413 47.0427 12.2345 47.3435 12.5202C47.5605 12.7321 47.7755 12.9471 47.9887 13.1653C48.0198 13.2076 48.0598 13.2425 48.106 13.2675L48.2081 13.4813C48.2228 13.5693 48.2502 13.6547 48.2895 13.7348C48.6678 14.8699 49.0462 16.005 49.4246 17.1402C49.6024 17.6774 49.7803 18.2147 49.9524 18.7539C50.3081 19.8663 50.6846 20.9712 51.0535 22.0798C51.1595 22.3996 51.3089 22.6985 51.4451 23.005C51.8235 23.8714 52.1924 24.7474 52.5159 25.6403C52.9092 26.7233 53.2371 27.8289 53.4978 28.9511C53.6321 29.5319 53.7437 30.1165 53.8364 30.7068C53.9083 31.176 53.967 31.6527 54.0105 32.1219C54.0351 32.3754 54.0427 32.6327 54.0597 32.8881C54.0824 33.2494 54.0786 33.6108 54.0862 33.9721C54.0937 34.3335 54.0729 34.7478 54.0446 35.1337C53.9979 35.7435 53.919 36.3504 53.8081 36.9518C53.6372 37.9019 53.3749 38.8332 53.0248 39.7329C52.7145 40.5085 52.3346 41.2544 51.8897 41.9615C51.4566 42.6552 50.9695 43.3137 50.433 43.9309C50.075 44.346 49.6961 44.7425 49.2978 45.119C48.4498 45.908 47.533 46.6196 46.5584 47.2455C45.9883 47.6125 45.4056 47.9556 44.8103 48.2747C44.432 48.4809 44.0365 48.6739 43.6468 48.865L43.573 48.8952C43.5447 48.9047 43.5314 48.8952 43.5239 48.865C43.5239 48.7912 43.5768 48.7533 43.6185 48.7098C43.9968 48.3314 44.3752 47.9758 44.7119 47.5747C45.0487 47.1736 45.4233 46.7669 45.7544 46.3412C46.4059 45.5328 47.0049 44.6835 47.5479 43.7985C47.8127 43.3672 48.0662 42.9283 48.3046 42.4742C48.4661 42.1602 48.6231 41.8449 48.7757 41.5283C48.9043 41.2748 49.016 41.0118 49.1219 40.7488C49.2324 40.515 49.3309 40.2757 49.417 40.0318C49.4222 40.0174 49.4285 40.0035 49.436 39.9902C49.4511 39.958 49.4624 39.9221 49.4757 39.888C49.511 39.808 49.5413 39.7259 49.5665 39.6421C49.6129 39.5343 49.6528 39.4237 49.6857 39.311C49.6989 39.2788 49.7103 39.2448 49.7216 39.2107L49.7557 39.1142C49.767 39.0821 49.7765 39.0499 49.7878 39.0197C49.7992 38.9894 49.8086 38.9553 49.8181 38.9251L49.8503 38.8305C49.8616 38.8002 49.8711 38.768 49.8824 38.7378C49.8938 38.7075 49.8995 38.6886 49.907 38.6621C49.9146 38.6356 49.9241 38.611 49.9316 38.5845C49.9585 38.511 49.9807 38.4358 49.9978 38.3594C50.0014 38.3459 50.0058 38.3326 50.0111 38.3197C50.0224 38.2951 50.0338 38.2705 50.0432 38.2459C50.0617 38.2026 50.0756 38.1576 50.0849 38.1115C50.0849 38.0851 50.0849 38.0605 50.0981 38.034C50.1001 38.0217 50.1033 38.0097 50.1076 37.998C50.1142 37.9675 50.1142 37.9359 50.1076 37.9053C50.1056 37.8924 50.1084 37.8792 50.1153 37.8681C50.1222 37.857 50.1329 37.8487 50.1454 37.8448C50.1587 37.8448 50.1643 37.8448 50.17 37.8637C50.1757 37.8826 50.17 37.8259 50.17 37.807C50.1813 37.7521 50.1984 37.6972 50.2078 37.6405C50.2106 37.6153 50.2106 37.59 50.2078 37.5648C50.2056 37.5527 50.2069 37.5402 50.2116 37.5288C50.2163 37.5174 50.2242 37.5075 50.2343 37.5005C50.2665 37.4835 50.2343 37.4607 50.2343 37.4399C50.2314 37.4275 50.2325 37.4145 50.2372 37.4027C50.2419 37.3908 50.2502 37.3807 50.2608 37.3737C50.293 37.3567 50.2608 37.334 50.2608 37.3132C50.258 37.301 50.2588 37.2882 50.2632 37.2764C50.2676 37.2646 50.2753 37.2544 50.2854 37.247C50.3195 37.2318 50.2854 37.2091 50.2854 37.1883C50.2823 37.1761 50.283 37.1632 50.2874 37.1514C50.2918 37.1396 50.2997 37.1294 50.31 37.1221C50.3422 37.1051 50.31 37.0824 50.31 37.0616C50.3071 37.0491 50.3081 37.0361 50.3129 37.0243C50.3176 37.0125 50.3258 37.0024 50.3365 36.9954C50.3686 36.9802 50.3365 36.9556 50.3365 36.9348C50.3333 36.9224 50.3342 36.9093 50.3389 36.8974C50.3437 36.8855 50.3521 36.8754 50.363 36.8686C50.4008 36.8421 50.363 36.8118 50.363 36.7835C50.3596 36.7707 50.3602 36.7572 50.3645 36.7447C50.3689 36.7322 50.3769 36.7213 50.3876 36.7135C50.4197 36.6964 50.3876 36.6718 50.3876 36.651C50.384 36.6382 50.3851 36.6245 50.3907 36.6124C50.3962 36.6003 50.4058 36.5906 50.4178 36.5848C50.4727 36.5848 50.4178 36.5318 50.4443 36.5129C50.4466 36.4995 50.4497 36.4862 50.4538 36.4732C50.467 36.4278 50.467 36.3805 50.4784 36.3351C50.4897 36.2897 50.4935 36.2405 50.5049 36.1932C50.5209 36.1427 50.5209 36.0885 50.5049 36.0381C50.5007 36.0252 50.5 36.0115 50.5026 35.9983C50.5053 35.985 50.5113 35.9727 50.52 35.9624C50.5259 35.9597 50.5324 35.9583 50.5389 35.9583C50.5454 35.9583 50.5519 35.9597 50.5578 35.9624C50.5578 35.9813 50.5427 35.9851 50.5578 35.9756C50.573 35.9662 50.5578 35.9529 50.5578 35.9416C50.5578 35.9 50.573 35.8602 50.5749 35.8186C50.5765 35.7817 50.5809 35.7451 50.5881 35.7089C50.607 35.6502 50.6014 35.5859 50.6184 35.5197C50.6354 35.4535 50.6335 35.3948 50.6486 35.3305C50.6638 35.2662 50.6638 35.2075 50.6789 35.1413C50.6907 35.1052 50.6977 35.0677 50.6997 35.0297C50.7162 35.0014 50.7345 34.9742 50.7546 34.9483C50.7697 34.8767 50.7792 34.8039 50.783 34.7308C50.7964 34.6926 50.8015 34.6519 50.7981 34.6116C50.7962 34.5984 50.7962 34.585 50.7981 34.5719C50.804 34.5337 50.8 34.4946 50.7867 34.4583C50.7812 34.4395 50.7809 34.4195 50.7859 34.4005C50.7909 34.3815 50.801 34.3642 50.8151 34.3505C50.8151 34.3505 50.8416 34.3638 50.8321 34.3373C50.8303 34.3273 50.8303 34.317 50.8321 34.307C50.839 34.272 50.8441 34.2366 50.8473 34.2011C50.8462 34.1885 50.8462 34.1758 50.8473 34.1632C50.8548 34.1315 50.8548 34.0985 50.8473 34.0667C50.8463 34.0535 50.8463 34.0402 50.8473 34.027C50.8538 33.9798 50.8486 33.9317 50.8321 33.887C50.8321 33.8359 50.8189 33.7848 50.87 33.7508C50.8965 33.7508 50.8965 33.7754 50.9135 33.783C50.9305 33.7905 50.9003 33.7584 50.887 33.7489C50.8803 33.7409 50.8757 33.7314 50.8734 33.7212C50.8711 33.711 50.8712 33.7004 50.8738 33.6902C50.8817 33.6497 50.8868 33.6086 50.8889 33.5673C50.8909 33.5462 50.8947 33.5253 50.9003 33.5048C50.9163 33.4602 50.9163 33.4114 50.9003 33.3667C50.8946 33.3386 50.8946 33.3097 50.9003 33.2816C50.9124 33.2405 50.9181 33.1977 50.9173 33.1549C50.9188 33.1255 50.9232 33.0963 50.9305 33.0678C50.9485 33.0196 50.9485 32.9666 50.9305 32.9184C50.921 32.8722 50.921 32.8246 50.9305 32.7784C50.9459 32.7237 50.9511 32.6666 50.9457 32.61C50.9438 32.536 50.9476 32.462 50.957 32.3886C50.9812 32.3279 50.9812 32.2602 50.957 32.1994C50.9305 31.7416 50.957 31.2857 50.9457 30.8297C50.9343 30.2168 50.8832 29.6057 50.8246 28.9946C50.7305 28.0235 50.582 27.0584 50.38 26.1038C50.0592 24.5518 49.615 23.0278 49.0519 21.5463C48.7076 20.6496 48.3254 19.768 47.8941 18.9091C46.9839 17.0558 45.858 15.3164 44.5398 13.7272C43.8494 12.9297 43.1082 12.1776 42.3206 11.4759C41.5432 10.7557 40.7279 10.0774 39.8782 9.44402C38.8256 8.65792 37.6953 7.98152 36.505 7.42539C35.018 6.73176 33.434 6.26862 31.8075 6.05189C31.3232 5.98757 30.8389 5.95351 30.3508 5.91946C29.869 5.88825 29.3859 5.88257 28.9035 5.90243C27.771 5.94739 26.6441 6.08469 25.534 6.31297C23.9003 6.66045 22.2957 7.13291 20.7344 7.7262C19.9403 8.02204 19.1623 8.35926 18.4036 8.73646C17.0387 9.41154 15.7531 10.2364 14.5706 11.1959C14.1734 11.5213 13.7912 11.8637 13.4166 12.2175C11.8994 13.6916 10.5775 15.3543 9.4834 17.1647C8.85341 18.1712 8.27261 19.2061 7.72965 20.2617C6.9729 21.7166 6.20291 23.1582 5.4121 24.5903C5.22292 24.9498 5.03372 25.313 4.82372 25.6668C4.76697 25.7633 4.80859 25.8901 4.71021 25.9657C4.62697 25.9147 4.62698 25.8295 4.6213 25.7482C4.62607 25.6551 4.62035 25.5618 4.60427 25.4701C4.574 25.1825 4.60427 24.893 4.59103 24.6036C4.57778 24.036 4.59103 23.4685 4.62697 22.8896C4.69255 21.8219 4.81888 20.7588 5.00535 19.7055C5.21587 18.5377 5.51179 17.3869 5.89074 16.2623C6.59744 14.1586 7.61796 12.1737 8.91774 10.3748C9.68292 9.32104 10.5422 8.33891 11.485 7.44053C11.5569 7.37053 11.6383 7.31377 11.7158 7.25134C11.8272 7.1566 11.9461 7.07117 12.0715 6.99594Z" fill="#87959E"/>
<path d="M1.60563 32.5967C1.64314 32.5465 1.66839 32.4882 1.6794 32.4264C1.93481 31.6792 2.21292 30.9413 2.52886 30.2167C2.73508 29.7419 2.95074 29.2708 3.1702 28.8016C3.43506 28.2341 3.72074 27.6816 4.00073 27.1235C4.18992 26.7452 4.39803 26.3668 4.60235 25.9884C4.62994 25.9396 4.6412 25.8833 4.63451 25.8276C4.62505 25.7027 4.63451 25.576 4.63451 25.4492C4.69315 25.5249 4.661 25.61 4.66289 25.6895C4.65759 25.7826 4.67927 25.8752 4.72532 25.9562C4.78293 26.085 4.80764 26.2261 4.79722 26.3668C4.82938 26.9892 4.8918 27.6097 4.96748 28.2284C5.08667 29.197 5.25126 30.1581 5.45369 31.1135C5.66558 32.1048 5.92666 33.0829 6.22747 34.0516C6.58031 35.1893 7.00235 36.3044 7.49124 37.3907C7.95604 38.4384 8.49798 39.4502 9.11258 40.4177C9.5335 41.0828 10.004 41.7153 10.5201 42.3096C10.9099 42.7561 11.3242 43.1798 11.7063 43.6339C12.0298 44.0123 12.359 44.3906 12.6901 44.7596C12.8263 44.9128 12.9644 45.0642 13.1025 45.2155C14.2509 46.464 15.5274 47.5883 16.9109 48.5698C17.5789 49.0382 18.2738 49.4671 18.9919 49.8544C19.908 50.3455 20.8628 50.7606 21.8468 51.0954C22.9949 51.4878 24.1766 51.774 25.377 51.9506C26.0259 52.0452 26.6767 52.1189 27.3313 52.1606C28.1217 52.211 28.9141 52.2217 29.7056 52.1927C30.4813 52.1662 31.2531 52.0962 32.025 52.0035C32.0457 52.0007 32.0668 52.0007 32.0875 52.0035C32.1102 52.0149 32.1348 52.0262 32.1594 52.0035C32.2237 51.9713 32.2971 51.9619 32.3675 51.977C32.3902 51.9979 32.4072 51.9941 32.4223 51.977C32.5453 51.9412 32.6726 51.9227 32.8007 51.9222C32.8265 51.926 32.8529 51.9221 32.8764 51.9108C32.8993 51.8974 32.9248 51.8889 32.9512 51.886C32.9776 51.8831 33.0043 51.8857 33.0296 51.8938C33.0466 51.9146 33.0618 51.9146 33.0731 51.8938C33.094 51.8783 33.1183 51.868 33.144 51.8638C33.1696 51.8595 33.1959 51.8614 33.2207 51.8692C33.2461 51.8706 33.2712 51.864 33.2926 51.8503C33.3099 51.8403 33.3291 51.834 33.3489 51.8317C33.3688 51.8294 33.3889 51.8312 33.408 51.8371C33.4326 51.8391 33.4571 51.8331 33.478 51.82C33.5108 51.7981 33.5506 51.7893 33.5896 51.7954C33.6143 51.803 33.6406 51.803 33.6653 51.7954C33.6991 51.7742 33.7393 51.7655 33.7788 51.7708C33.8022 51.7784 33.8273 51.7784 33.8507 51.7708C33.8782 51.7547 33.9097 51.7469 33.9415 51.7481C33.9661 51.7519 33.9912 51.748 34.0134 51.7368C34.0462 51.7165 34.0848 51.7079 34.1231 51.7122C34.1465 51.7161 34.1704 51.7121 34.1912 51.7008C34.2185 51.6844 34.2505 51.6777 34.282 51.6819C34.3054 51.6894 34.3306 51.6894 34.3539 51.6819C34.3808 51.6661 34.4117 51.6582 34.4429 51.6592C34.4657 51.6658 34.49 51.6658 34.5128 51.6592C34.5394 51.6425 34.5705 51.6346 34.6018 51.6365C34.624 51.643 34.6476 51.643 34.6699 51.6365C34.696 51.6206 34.7263 51.6127 34.7569 51.6138C34.7803 51.6159 34.8036 51.6099 34.8231 51.5968C34.8489 51.5803 34.8798 51.5736 34.9101 51.5779C34.9322 51.5852 34.9561 51.5852 34.9782 51.5779C34.9984 51.5648 35.0224 51.5588 35.0463 51.5608C35.0736 51.5721 35.1042 51.5721 35.1315 51.5608C35.1474 51.5493 35.1668 51.544 35.1864 51.5457C35.2128 51.5457 35.245 51.576 35.2677 51.5343C35.2757 51.5238 35.2865 51.5157 35.2989 51.511C35.3113 51.5063 35.3247 51.5052 35.3377 51.5079C35.3661 51.5079 35.3964 51.5419 35.4228 51.5079C35.4302 51.4971 35.4406 51.4887 35.4528 51.484C35.4649 51.4793 35.4782 51.4784 35.4909 51.4814C35.5118 51.4814 35.5345 51.5079 35.5496 51.4814C35.5563 51.4714 35.5658 51.4636 35.5769 51.4589C35.588 51.4542 35.6002 51.4528 35.612 51.4549C35.6351 51.4604 35.6584 51.4642 35.682 51.4662C35.7065 51.4641 35.7307 51.459 35.7539 51.4511C35.7717 51.4453 35.7901 51.4415 35.8088 51.4398C35.8411 51.4382 35.873 51.4318 35.9034 51.4208L35.9601 51.4076C35.9865 51.402 36.0125 51.3944 36.0377 51.3849H36.0793C36.1563 51.3744 36.2323 51.3573 36.3063 51.3338L36.3896 51.3149C36.4236 51.3149 36.4577 51.2979 36.4917 51.2903L36.5712 51.2695L36.6942 51.2392C36.7358 51.2279 36.7774 51.2203 36.819 51.2071C36.847 51.1999 36.8754 51.1948 36.9042 51.1919C36.9458 51.1919 36.9874 51.1711 37.029 51.1635C37.0707 51.156 37.1104 51.1408 37.152 51.1333L37.2352 51.1106C37.3128 51.0917 37.3885 51.0746 37.4642 51.0519L37.5058 51.0387C37.5531 51.0254 37.6023 51.0103 37.6515 51.0008L37.7139 50.9819C37.8232 50.9581 37.9312 50.9284 38.0374 50.893C38.0585 50.8862 38.08 50.8805 38.1017 50.876C38.1597 50.8642 38.2167 50.8478 38.272 50.8268C38.3836 50.8022 38.4896 50.7625 38.5993 50.7341L38.6409 50.7208C38.7071 50.7019 38.7733 50.6887 38.8301 50.666C38.9928 50.6111 39.1574 50.5676 39.3182 50.5127L39.3636 50.4976C39.7855 50.3633 40.2055 50.2176 40.6255 50.0795L40.6671 50.0644C40.7163 50.0533 40.764 50.0362 40.809 50.0133C40.8676 49.9925 40.9282 49.9736 40.9868 49.9509L41.0266 49.9376C41.0728 49.9239 41.1177 49.9062 41.1609 49.8846C41.2195 49.8638 41.282 49.8468 41.3387 49.8203L41.439 49.7787C41.5487 49.739 41.6565 49.6917 41.7644 49.65C41.8211 49.633 41.8703 49.6046 41.9252 49.5857C41.9801 49.5668 42.0557 49.5328 42.1144 49.5082C42.1466 49.4949 42.1768 49.4817 42.2109 49.4703L42.2865 49.44C42.3544 49.4069 42.4238 49.3772 42.4947 49.3511C42.5438 49.3284 42.5968 49.3114 42.646 49.2906L42.6838 49.2736C42.7406 49.2509 42.7936 49.2206 42.8484 49.1941C42.8863 49.1822 42.9236 49.1683 42.96 49.1525C43.0149 49.1279 43.0679 49.0995 43.1227 49.073L43.1776 49.0541L43.2495 49.0276C43.2836 49.0106 43.3176 48.9936 43.3498 48.9747C43.3902 48.9537 43.4319 48.9353 43.4746 48.9198C43.481 48.9185 43.4875 48.9186 43.4937 48.9203C43.5 48.9219 43.5057 48.925 43.5106 48.9292L43.5465 48.969C43.4513 49.0226 43.3645 49.0902 43.2892 49.1695C42.7407 49.7139 42.1512 50.2154 41.526 50.6698C40.9471 51.0898 40.3474 51.4833 39.7306 51.8446C39.7079 51.8579 39.6814 51.8654 39.6682 51.89C39.6578 51.9023 39.6464 51.9137 39.6341 51.9241C39.6058 51.9411 39.5831 51.9733 39.5414 51.9581L39.5093 51.9827C39.48 52.0092 39.4476 52.0321 39.4128 52.0508C39.3844 52.0698 39.3598 52.1 39.3201 52.0868L39.286 52.1095C39.2563 52.136 39.224 52.1594 39.1896 52.1795C39.1706 52.1965 39.146 52.2022 39.129 52.2211C39.112 52.24 39.0798 52.2211 39.0609 52.2438C39.0136 52.2854 38.9512 52.3024 38.902 52.3403C38.885 52.3611 38.8547 52.3554 38.8358 52.3724C38.8151 52.388 38.7936 52.4026 38.7714 52.416C38.7412 52.416 38.7166 52.4538 38.6806 52.4387L38.6466 52.4633C38.5094 52.5457 38.3679 52.6209 38.2228 52.6884C38.1596 52.7036 38.1003 52.732 38.0488 52.7716C37.8785 52.8643 37.7007 52.9438 37.5285 53.0346C37.5058 53.0554 37.4698 53.0346 37.449 53.0668C37.432 53.0876 37.4017 53.0819 37.3828 53.1008C37.2863 53.1387 37.1936 53.1916 37.099 53.2276C37.082 53.2484 37.0536 53.2427 37.0347 53.2616C36.9704 53.2787 36.9174 53.3316 36.8455 53.3278L36.8153 53.3487C36.802 53.377 36.7679 53.3714 36.749 53.3884L36.5277 53.483C36.4897 53.5065 36.4456 53.5183 36.4009 53.517L36.3688 53.536C36.2984 53.5774 36.2243 53.6122 36.1474 53.64C36.0982 53.6684 36.0396 53.676 35.9885 53.7043C35.9374 53.7327 35.8788 53.7422 35.8277 53.7686C35.7785 53.7989 35.7199 53.8065 35.6688 53.833C35.6005 53.8686 35.526 53.8904 35.4493 53.8973L35.4172 53.9181C35.3736 53.9635 35.3074 53.9597 35.2582 53.9919C35.2542 53.9961 35.2493 53.9994 35.244 54.0017C35.2386 54.0039 35.2328 54.0051 35.227 54.0051C35.2212 54.0051 35.2154 54.0039 35.2101 54.0017C35.2047 53.9994 35.1999 53.9961 35.1958 53.9919C35.1893 53.9905 35.1825 53.9915 35.1766 53.9946C35.1708 53.9977 35.1662 54.0028 35.1637 54.0089C35.0988 54.0551 35.0219 54.0814 34.9423 54.0846C34.9354 54.0844 34.9287 54.0865 34.9232 54.0906C34.9177 54.0948 34.9137 54.1006 34.912 54.1073C34.895 54.1338 34.8742 54.1338 34.8496 54.1186C34.8428 54.1175 34.8359 54.1185 34.8298 54.1216C34.8237 54.1246 34.8187 54.1296 34.8155 54.1357C34.7031 54.1897 34.5867 54.2352 34.4674 54.2719C34.459 54.2799 34.4478 54.2843 34.4362 54.2843C34.4246 54.2843 34.4134 54.2799 34.405 54.2719C34.4015 54.2711 34.3979 54.2709 34.3944 54.2715C34.3908 54.2722 34.3875 54.2735 34.3845 54.2754C34.3815 54.2774 34.3789 54.2799 34.3769 54.2829C34.3749 54.2858 34.3735 54.2892 34.3728 54.2927C34.3694 54.2978 34.3647 54.3019 34.3593 54.3048C34.3538 54.3077 34.3478 54.3092 34.3416 54.3092C34.3355 54.3092 34.3294 54.3077 34.324 54.3048C34.3185 54.3019 34.3139 54.2978 34.3104 54.2927C34.3032 54.292 34.296 54.2939 34.2901 54.2981C34.2842 54.3023 34.28 54.3084 34.2782 54.3154C34.2753 54.3208 34.2712 54.3254 34.2662 54.3289C34.2612 54.3324 34.2554 54.3347 34.2494 54.3356C34.2433 54.3365 34.2372 54.336 34.2313 54.3341C34.2255 54.3323 34.2202 54.3291 34.2158 54.3249C34.1988 54.3249 34.1874 54.3249 34.1837 54.3476C34.1799 54.3703 34.1458 54.3722 34.1212 54.3476C34.1142 54.3464 34.1071 54.3479 34.1011 54.3517C34.0952 54.3556 34.0909 54.3615 34.0891 54.3684C34.072 54.3949 34.0512 54.3949 34.0266 54.3684C34.0194 54.3677 34.0123 54.3696 34.0064 54.3738C34.0005 54.3779 33.9962 54.3841 33.9945 54.3911C33.9774 54.4176 33.9566 54.4157 33.932 54.4005C33.9249 54.3999 33.9177 54.4018 33.9118 54.4059C33.9059 54.4101 33.9016 54.4162 33.8999 54.4232C33.8828 54.4478 33.862 54.4478 33.8374 54.4232C33.8307 54.422 33.8237 54.4232 33.8178 54.4267C33.8119 54.4301 33.8074 54.4356 33.8053 54.4422C33.6862 54.4989 33.5582 54.5347 33.4269 54.5481C33.4198 54.5478 33.4128 54.5499 33.407 54.554C33.4011 54.5581 33.3968 54.564 33.3947 54.5708C33.392 54.5761 33.3881 54.5807 33.3832 54.5842C33.3784 54.5877 33.3728 54.5901 33.3669 54.591C33.361 54.5919 33.3549 54.5914 33.3493 54.5896C33.3436 54.5877 33.3384 54.5845 33.3342 54.5803C33.3272 54.5789 33.32 54.5801 33.3137 54.5835C33.3075 54.587 33.3027 54.5925 33.3002 54.5992C33.2339 54.6465 33.1488 54.6389 33.0788 54.673C33.0704 54.681 33.0592 54.6854 33.0476 54.6854C33.036 54.6854 33.0248 54.681 33.0164 54.673C33.0039 54.6702 32.9908 54.6711 32.9788 54.6755C32.9667 54.6798 32.9562 54.6875 32.9483 54.6976C32.901 54.7222 32.8556 54.76 32.795 54.7354C32.7884 54.7348 32.7817 54.7363 32.7759 54.7397C32.7702 54.7431 32.7656 54.7482 32.7629 54.7543C32.7075 54.7921 32.64 54.8076 32.5737 54.7978C32.5614 54.7955 32.5488 54.7965 32.5371 54.8009C32.5255 54.8052 32.5152 54.8127 32.5075 54.8224C32.4923 54.8489 32.4715 54.8451 32.4507 54.8224C32.4434 54.8207 32.4358 54.8219 32.4294 54.8258C32.423 54.8297 32.4184 54.836 32.4167 54.8432C32.4139 54.8486 32.41 54.8532 32.4052 54.8567C32.4003 54.8602 32.3947 54.8625 32.3888 54.8634C32.3829 54.8643 32.3768 54.8638 32.3712 54.862C32.3655 54.8601 32.3603 54.8569 32.3561 54.8527C32.3436 54.8492 32.3303 54.8497 32.3181 54.8541C32.3059 54.8585 32.2954 54.8666 32.288 54.8773C32.271 54.9019 32.2502 54.9 32.2294 54.8773C32.2168 54.875 32.2039 54.8761 32.192 54.8804C32.18 54.8847 32.1694 54.8921 32.1612 54.9019C32.1461 54.9284 32.1253 54.9246 32.1045 54.9019C32.0977 54.9004 32.0907 54.9013 32.0845 54.9044C32.0783 54.9075 32.0733 54.9126 32.0704 54.9189C32.0439 54.9586 32.0118 54.9454 31.9777 54.9322C31.9437 54.9189 31.9494 54.9322 31.9456 54.9549C31.9418 54.9776 31.8964 54.9738 31.8699 54.9776C31.8503 54.9834 31.8318 54.9923 31.815 55.004C31.8052 55.0073 31.7948 55.0081 31.7846 55.0065C31.7743 55.0048 31.7647 55.0008 31.7564 54.9946C31.744 54.9914 31.7309 54.9923 31.719 54.997C31.7071 55.0018 31.697 55.0102 31.6902 55.0211C31.6712 55.0438 31.6523 55.0419 31.6296 55.0211C31.6172 55.0187 31.6044 55.0199 31.5927 55.0246C31.5809 55.0293 31.5708 55.0373 31.5634 55.0476C31.5601 55.0522 31.5557 55.0561 31.5506 55.0587C31.5455 55.0613 31.5398 55.0627 31.5341 55.0627C31.5284 55.0627 31.5227 55.0613 31.5176 55.0587C31.5125 55.0561 31.5081 55.0522 31.5048 55.0476C31.4926 55.0442 31.4797 55.0443 31.4677 55.048C31.4556 55.0517 31.4449 55.0588 31.4367 55.0684C31.374 55.1106 31.2971 55.1262 31.2229 55.1119C31.2154 55.1107 31.2077 55.1124 31.2014 55.1166C31.1951 55.1208 31.1906 55.1272 31.1888 55.1346C31.1605 55.1667 31.1283 55.1592 31.0942 55.1346C31.0818 55.1322 31.069 55.1335 31.0572 55.1382C31.0455 55.1428 31.0354 55.1508 31.028 55.1611C31.0245 55.1654 31.02 55.1689 31.0149 55.1713C31.0098 55.1737 31.0043 55.175 30.9987 55.175C30.9931 55.175 30.9875 55.1737 30.9825 55.1713C30.9774 55.1689 30.9729 55.1654 30.9694 55.1611C30.9571 55.1574 30.9439 55.1576 30.9317 55.1617C30.9195 55.1657 30.9089 55.1734 30.9013 55.1838C30.8767 55.2197 30.8464 55.2046 30.8161 55.1951C30.8033 55.1906 30.7893 55.1903 30.7764 55.1944C30.7634 55.1985 30.7521 55.2067 30.7442 55.2178C30.7407 55.2222 30.7362 55.2257 30.7311 55.2281C30.7261 55.2305 30.7205 55.2318 30.7149 55.2318C30.7093 55.2318 30.7038 55.2305 30.6987 55.2281C30.6936 55.2257 30.6891 55.2222 30.6856 55.2178C30.6733 55.2147 30.6603 55.2151 30.6482 55.2191C30.6361 55.2232 30.6254 55.2306 30.6175 55.2405C30.5948 55.2765 30.5626 55.2613 30.5323 55.2538C30.5199 55.2486 30.506 55.2481 30.4932 55.2522C30.4803 55.2564 30.4694 55.265 30.4623 55.2765C30.4415 55.3049 30.4094 55.2897 30.3829 55.2954L30.3034 55.3219C30.2944 55.3265 30.2843 55.3289 30.2741 55.3289C30.2639 55.3289 30.2539 55.3265 30.2448 55.3219C30.2325 55.3182 30.2193 55.3184 30.2071 55.3225C30.195 55.3265 30.1843 55.3342 30.1767 55.3446C30.1502 55.3805 30.118 55.3692 30.0859 55.3446C30.0736 55.342 30.0609 55.343 30.0492 55.3473C30.0375 55.3517 30.0272 55.3592 30.0197 55.3692C29.9932 55.4051 29.961 55.3938 29.9288 55.3692C29.8967 55.3446 29.8778 55.3692 29.8626 55.3919C29.8475 55.4146 29.7907 55.407 29.7567 55.4165L29.6696 55.443C29.647 55.4448 29.6242 55.4448 29.6015 55.443C29.5429 55.443 29.488 55.4959 29.4256 55.46C29.3897 55.46 29.3537 55.4505 29.3272 55.4865C29.3007 55.5224 29.2856 55.5054 29.261 55.5054C29.1935 55.5289 29.1225 55.5405 29.051 55.5394C28.998 55.5527 28.947 55.5848 28.8883 55.5565H28.7597L27.8951 55.4221C27.8693 55.4203 27.8433 55.4203 27.8175 55.4221C27.6201 55.422 27.4235 55.3959 27.2329 55.3446C26.3768 55.193 25.5288 54.9985 24.6921 54.7619C24.1492 54.6086 23.6138 54.4289 23.0803 54.2492C22.1321 53.901 21.2075 53.4914 20.3125 53.0232C19.8546 52.7811 19.3949 52.5427 18.9427 52.2892C18.85 52.2268 18.7422 52.1908 18.6495 52.1284C18.5568 52.066 18.4603 52.03 18.3657 51.9695C18.2711 51.9089 18.203 51.9033 18.15 51.8257C18.0925 51.7788 18.0289 51.74 17.9609 51.7103C17.9476 51.7197 17.9401 51.7103 17.9363 51.7103C17.8795 51.6624 17.8157 51.6235 17.7471 51.5949C17.7338 51.5949 17.7244 51.5949 17.7225 51.5949C17.7103 51.5764 17.6938 51.5612 17.6743 51.5506C17.6548 51.54 17.633 51.5344 17.6109 51.5343C17.539 51.4946 17.4557 51.4776 17.4046 51.4076C17.3476 51.359 17.2839 51.3189 17.2155 51.2884C17.1666 51.2862 17.1205 51.2652 17.0868 51.2298C17.0433 51.1825 16.9638 51.19 16.9355 51.1238C16.8783 51.0755 16.8146 51.0353 16.7463 51.0046C16.7291 51.0053 16.712 51.0021 16.6963 50.9952C16.6806 50.9883 16.6666 50.9779 16.6555 50.9649C16.6044 50.9233 16.5325 50.9157 16.4965 50.8552C16.4891 50.8437 16.4794 50.8339 16.468 50.8265C16.4566 50.819 16.4438 50.8139 16.4303 50.8117C16.4152 50.8117 16.4057 50.8117 16.402 50.7927C16.3849 50.7712 16.3608 50.7565 16.3338 50.7511C16.3225 50.7511 16.313 50.7511 16.3093 50.7511C16.1635 50.6403 16.0105 50.5391 15.8514 50.4484C14.797 49.78 13.7729 49.0686 12.779 48.3144C11.9807 47.7109 11.205 47.0809 10.4577 46.4225C10.1399 46.1406 9.82203 45.8549 9.51176 45.5636C9.17879 45.2382 8.84582 44.9109 8.51663 44.5798C7.87529 43.9347 7.27557 43.2555 6.69855 42.548C6.05026 41.7607 5.44402 40.9397 4.88235 40.0885C4.4838 39.4793 4.11046 38.8544 3.76236 38.2137C3.47731 37.684 3.20805 37.1454 2.95454 36.598C2.94318 36.5734 2.92615 36.5545 2.91291 36.5318C2.77888 36.2697 2.65888 36.0007 2.55345 35.7259C2.52221 35.6722 2.49925 35.6142 2.48534 35.5537C2.4798 35.5319 2.47017 35.5114 2.45697 35.4932C2.41696 35.4071 2.38405 35.3179 2.35859 35.2264C2.32075 35.164 2.31129 35.0883 2.27156 35.0372C2.26639 35.0161 2.26008 34.9953 2.25265 34.9748C2.23146 34.9039 2.20425 34.8349 2.1713 34.7686C2.12142 34.6405 2.08342 34.5082 2.05778 34.3732C2.05778 34.3562 2.05778 34.3448 2.04076 34.3391C2.02373 34.3335 2.01048 34.3051 2.02373 34.2805C2.02559 34.2772 2.02668 34.2735 2.0269 34.2698C2.02712 34.266 2.02648 34.2623 2.02502 34.2588C2.02356 34.2553 2.02131 34.2522 2.01846 34.2497C2.01561 34.2473 2.01225 34.2455 2.0086 34.2445C1.97833 34.2313 1.98022 34.2105 1.99157 34.1859C1.99343 34.1826 1.99452 34.179 1.99474 34.1752C1.99497 34.1714 1.99431 34.1677 1.99285 34.1642C1.99139 34.1607 1.98915 34.1576 1.9863 34.1552C1.98345 34.1527 1.98008 34.1509 1.97643 34.1499C1.94616 34.1367 1.94806 34.1159 1.9613 34.0913C1.96385 34.0845 1.9637 34.077 1.96089 34.0703C1.95807 34.0636 1.9528 34.0583 1.94616 34.0554C1.91589 34.0421 1.91589 34.0213 1.92913 33.9967C1.94238 33.9721 1.92914 33.9683 1.91211 33.9626C1.90292 33.9575 1.89549 33.9496 1.89077 33.9402C1.88605 33.9308 1.88426 33.9201 1.88562 33.9097C1.88207 33.8962 1.87764 33.8829 1.87238 33.8699C1.86374 33.8504 1.85678 33.8301 1.85157 33.8094C1.78346 33.6202 1.74373 33.431 1.67373 33.2418C1.66427 33.2154 1.67373 33.1851 1.6567 33.1567C1.63968 33.1283 1.64346 33.117 1.63589 33.0981C1.63589 33.0413 1.59806 32.9959 1.59428 32.9391C1.59428 32.9202 1.58292 32.9013 1.57535 32.8824C1.57111 32.8732 1.56892 32.8632 1.56892 32.8531C1.56892 32.8429 1.57111 32.8329 1.57535 32.8237C1.57844 32.8111 1.57795 32.7979 1.57394 32.7855C1.56993 32.7731 1.56256 32.7622 1.55265 32.7537C1.5413 32.7537 1.53562 32.7537 1.53751 32.7386C1.53941 32.7235 1.53752 32.7273 1.54698 32.7273L1.60563 32.5967Z" fill="#D3D6C7"/>
<path d="M48.2081 13.4718C48.4395 13.684 48.6558 13.9122 48.8551 14.1547C49.313 14.6674 49.7424 15.2028 50.153 15.7534C50.7625 16.5743 51.3204 17.4324 51.8235 18.3225C52.06 18.7368 52.287 19.1568 52.497 19.5844C52.9998 20.6056 53.442 21.6555 53.8213 22.7287C54.1858 23.7718 54.4953 24.8333 54.7483 25.9089C54.9678 26.8397 55.1513 27.7787 55.2988 28.7259C55.401 29.3767 55.488 30.0294 55.5542 30.684C55.5902 31.0492 55.6205 31.4124 55.6488 31.7775C55.6659 31.9875 55.664 32.1956 55.6772 32.4056C55.7113 32.5305 55.6602 32.661 55.7037 32.784V34.9559C55.6621 35.0694 55.7037 35.1905 55.6772 35.3059C55.6772 35.5461 55.664 35.7864 55.6413 36.0267C55.6015 36.4902 55.5542 36.9518 55.4918 37.4134C55.4294 37.875 55.3537 38.3442 55.2648 38.8058C55.0711 39.8025 54.8074 40.7843 54.4759 41.7439C54.1847 42.5859 53.8378 43.4075 53.4372 44.2033C52.8953 45.268 52.2577 46.2812 51.5321 47.2303C50.9091 48.0396 50.2234 48.7987 49.4813 49.5006C48.4636 50.4631 47.3505 51.3195 46.1592 52.0565C45.3893 52.5357 44.5914 52.9684 43.7698 53.3524C42.5156 53.9378 41.2153 54.4187 39.882 54.7902C38.9991 55.0425 38.1061 55.2443 37.2031 55.3956C36.5725 55.5041 35.9463 55.593 35.3245 55.6624C34.9291 55.7078 34.5318 55.7343 34.1345 55.7608C33.8223 55.7816 33.5064 55.7873 33.1885 55.8062C32.6796 55.8346 32.1707 55.8251 31.6637 55.8175C31.308 55.8175 30.9524 55.8024 30.5967 55.774L29.9383 55.7324C29.611 55.7078 29.2837 55.67 28.9545 55.6378C28.8978 55.6094 28.9091 55.581 28.9545 55.5546C28.9999 55.5281 29.0605 55.5394 29.1116 55.5205C29.1626 55.5016 29.2459 55.5092 29.3007 55.4883C29.3202 55.4865 29.3399 55.4865 29.3594 55.4883C29.3726 55.4883 29.3821 55.5148 29.3972 55.4883C29.4124 55.4619 29.3726 55.477 29.3764 55.46C29.3802 55.4429 29.4332 55.4202 29.4691 55.4221C29.5307 55.4416 29.5967 55.4416 29.6583 55.4221C29.6999 55.4221 29.7416 55.4108 29.7832 55.3975C29.8248 55.3843 29.874 55.407 29.9099 55.3654C29.9167 55.3545 29.9268 55.3461 29.9387 55.3413C29.9506 55.3366 29.9637 55.3357 29.9761 55.3389C30.0064 55.3389 30.0405 55.3824 30.0688 55.3389C30.077 55.3286 30.0879 55.3209 30.1003 55.3166C30.1127 55.3122 30.126 55.3114 30.1388 55.3143C30.1672 55.3143 30.1975 55.3484 30.224 55.3143C30.2319 55.3042 30.2424 55.2964 30.2544 55.2917C30.2664 55.2871 30.2794 55.2857 30.2921 55.2878C30.3352 55.3011 30.3814 55.3011 30.4245 55.2878C30.451 55.2746 30.4926 55.2992 30.5078 55.2557C30.5153 55.2445 30.526 55.2359 30.5385 55.2309C30.5509 55.2258 30.5646 55.2246 30.5778 55.2273C30.6061 55.2273 30.6383 55.2613 30.6648 55.2273C30.6721 55.2165 30.6825 55.2081 30.6947 55.2034C30.7069 55.1987 30.7202 55.1978 30.7329 55.2008C30.7537 55.2008 30.7764 55.2254 30.7934 55.2008C30.8017 55.1907 30.8127 55.1832 30.8251 55.1792C30.8375 55.1751 30.8508 55.1748 30.8634 55.1781C30.8918 55.1781 30.9221 55.2121 30.9486 55.1781C30.9563 55.1678 30.9669 55.16 30.979 55.1556C30.9911 55.1513 31.0042 55.1505 31.0167 55.1535C31.0356 55.1535 31.0583 55.1781 31.0753 55.1535C31.0822 55.1437 31.0917 55.136 31.1028 55.1313C31.1138 55.1267 31.1259 55.1252 31.1378 55.127C31.1671 55.1348 31.1984 55.1307 31.2248 55.1156C31.2425 55.1052 31.2628 55.1 31.2834 55.1005C31.3489 55.1082 31.4151 55.095 31.4726 55.0627C31.4802 55.0516 31.4909 55.0429 31.5033 55.0379C31.5158 55.0328 31.5294 55.0316 31.5426 55.0343C31.5634 55.0343 31.5861 55.0589 31.6032 55.0343C31.6111 55.0244 31.6218 55.0169 31.6339 55.0129C31.6459 55.0089 31.6589 55.0084 31.6713 55.0116C31.6902 55.0116 31.7148 55.0343 31.7299 55.0021C31.7376 54.9924 31.7479 54.9849 31.7596 54.9806C31.7712 54.9763 31.7839 54.9752 31.7961 54.9775C31.8259 54.9849 31.8571 54.9849 31.8869 54.9775C31.9161 54.97 31.9437 54.9572 31.9683 54.9397C31.9839 54.9285 32.0021 54.9213 32.0213 54.9189C32.0454 54.9222 32.07 54.9176 32.0913 54.9056C32.1083 54.8952 32.128 54.8899 32.148 54.8905C32.1669 54.8905 32.1915 54.9132 32.2029 54.8773C32.21 54.8673 32.2199 54.8597 32.2313 54.8553C32.2428 54.8509 32.2553 54.85 32.2672 54.8527C32.288 54.8527 32.3088 54.8735 32.3259 54.8527C32.3319 54.8433 32.3404 54.8357 32.3504 54.8307C32.3603 54.8258 32.3715 54.8235 32.3826 54.8243C32.4053 54.8272 32.4284 54.8232 32.4488 54.8129C32.4638 54.8046 32.4809 54.8007 32.498 54.8016C32.5188 54.8016 32.5396 54.8016 32.551 54.7827C32.5601 54.7739 32.5713 54.7674 32.5834 54.7638C32.5956 54.7601 32.6085 54.7595 32.621 54.7619C32.6489 54.7671 32.6777 54.7664 32.7054 54.7599C32.7331 54.7534 32.7591 54.7412 32.7818 54.724C32.7986 54.7124 32.8182 54.7052 32.8385 54.7032C32.8896 54.7032 32.9426 54.7032 32.9842 54.6692C32.9902 54.6584 32.999 54.6496 33.0097 54.6436C33.0204 54.6376 33.0325 54.6346 33.0448 54.6351C33.0698 54.6389 33.0953 54.6389 33.1204 54.6351L33.1583 54.6257C33.2102 54.6181 33.2603 54.6008 33.3058 54.5746C33.3222 54.5643 33.3401 54.5567 33.3588 54.5519C33.3834 54.549 33.4072 54.5412 33.4288 54.5292C33.4462 54.5199 33.4658 54.5153 33.4856 54.5159C33.5969 54.5023 33.705 54.4697 33.8053 54.4194C33.8211 54.409 33.8383 54.4007 33.8564 54.3948C33.8793 54.393 33.9017 54.3872 33.9226 54.3778C33.9368 54.3686 33.953 54.3627 33.9699 54.3608C33.9862 54.3575 34.002 54.3524 34.0172 54.3457C34.0311 54.3372 34.0465 54.3315 34.0626 54.3286C34.0796 54.3271 34.0963 54.3227 34.1118 54.3154C34.125 54.3053 34.1407 54.2987 34.1572 54.2965C34.1742 54.295 34.1909 54.2905 34.2064 54.2832C34.2198 54.2737 34.2354 54.2678 34.2518 54.2662C34.2683 54.265 34.2843 54.2605 34.2991 54.253C34.3132 54.2431 34.3294 54.2367 34.3464 54.234C34.3628 54.2325 34.3788 54.228 34.3937 54.2208C34.4083 54.2123 34.4243 54.2066 34.441 54.2038C34.4635 54.2074 34.4865 54.2074 34.5091 54.2038L34.5469 54.1905C34.6408 54.1656 34.7316 54.1301 34.8174 54.0846C34.8328 54.0728 34.8501 54.0639 34.8685 54.0581C34.893 54.0558 34.9168 54.0487 34.9385 54.0373C34.9546 54.0261 34.9738 54.0201 34.9934 54.0203C35.0547 54.0166 35.1138 53.9956 35.1637 53.9597C35.1789 53.9473 35.1962 53.9378 35.2147 53.9313C35.2399 53.9332 35.2652 53.9332 35.2904 53.9313L35.3264 53.92C35.3636 53.9093 35.3983 53.8912 35.4285 53.867C35.444 53.8536 35.4631 53.845 35.4834 53.8424C35.5497 53.8366 35.6141 53.8173 35.6726 53.7857L35.7085 53.7705C35.7526 53.7593 35.7951 53.7428 35.8353 53.7213L35.8712 53.7062C35.9148 53.6954 35.9568 53.6789 35.9961 53.657L36.032 53.6419C36.0754 53.6303 36.1173 53.6138 36.1569 53.5927L36.1947 53.5757C36.2572 53.56 36.3158 53.5317 36.3669 53.4924C36.3827 53.4791 36.4015 53.47 36.4217 53.4659C36.4608 53.4644 36.4989 53.454 36.5334 53.4357L36.5693 53.4205C36.6254 53.4026 36.6799 53.3798 36.732 53.3524L36.7642 53.3354C36.7862 53.3244 36.8066 53.3104 36.8247 53.2938C36.8409 53.2822 36.8598 53.2751 36.8796 53.273C36.9293 53.2669 36.977 53.2501 37.0196 53.2238L37.0555 53.2049L37.1123 53.1803C37.1244 53.1735 37.137 53.1678 37.1501 53.1632C37.2218 53.1372 37.2914 53.1055 37.3582 53.0686L37.3961 53.0516L37.449 53.027L37.485 53.0119L37.5436 52.9892C37.7165 52.9122 37.884 52.8237 38.045 52.7243C38.0998 52.6776 38.1645 52.644 38.2342 52.6259C38.3703 52.5852 38.4983 52.5212 38.6125 52.4368C38.6273 52.4228 38.6447 52.4119 38.6636 52.4046C38.6939 52.4042 38.7239 52.3991 38.7525 52.3895C38.7731 52.3793 38.7928 52.3673 38.8112 52.3535C38.8205 52.3455 38.8307 52.3385 38.8415 52.3327L38.8906 52.3062L38.9247 52.2873C38.9611 52.2695 38.9959 52.2486 39.0288 52.2249L39.0628 52.2059C39.0868 52.1981 39.1102 52.1886 39.1328 52.1776L39.1612 52.1586L39.1915 52.1378C39.2175 52.1233 39.2405 52.104 39.2596 52.0811C39.273 52.0676 39.2901 52.0584 39.3087 52.0546C39.3328 52.0535 39.3563 52.0463 39.3768 52.0338C39.3869 52.0264 39.3977 52.0201 39.409 52.0149C39.4353 51.9991 39.4589 51.9793 39.479 51.9562C39.4921 51.9423 39.5094 51.9331 39.5282 51.9297C39.5537 51.9268 39.5779 51.917 39.5982 51.9014L39.6247 51.8711L39.6531 51.8389C40.005 51.61 40.3644 51.3943 40.7163 51.1635C41.644 50.5581 42.5086 49.8609 43.2968 49.0825C43.3695 49.0148 43.4518 48.9581 43.5409 48.9141C44.7604 48.3349 45.9331 47.6619 47.0484 46.9011C47.7638 46.4042 48.4457 45.8607 49.0897 45.2741C50.0582 44.3948 50.9119 43.3969 51.6305 42.3039C52.5813 40.8506 53.2596 39.2364 53.6321 37.5402C53.8034 36.7618 53.9185 35.9721 53.9764 35.1772C54.0281 34.5075 54.0382 33.8352 54.0067 33.1643C53.9104 31.2444 53.5826 29.3432 53.0305 27.5019C52.5987 25.9754 52.0607 24.481 51.4205 23.0295C51.2206 22.5978 51.0438 22.1557 50.8908 21.7052C50.414 20.2749 49.9423 18.8447 49.4757 17.4144C49.0632 16.1507 48.6451 14.8907 48.2062 13.6307C48.1892 13.5815 48.1532 13.5247 48.2081 13.4718Z" fill="#6C7983"/>
<path d="M0.725922 36.8799C0.734453 36.8738 0.741566 36.8659 0.746787 36.8567C0.752008 36.8476 0.75521 36.8374 0.756186 36.8269C0.776997 36.5507 0.792141 36.2745 0.824303 36.0002C0.865924 35.6218 0.918897 35.2435 0.990788 34.8651C1.09673 34.2975 1.23105 33.7527 1.38618 33.204C1.43894 32.9967 1.50209 32.7921 1.57537 32.591C1.58087 32.587 1.5875 32.5849 1.5943 32.5849C1.60109 32.5849 1.60771 32.587 1.61321 32.591C1.62093 32.6019 1.62614 32.6143 1.62843 32.6274C1.63072 32.6405 1.63005 32.6539 1.62645 32.6667C1.6397 32.68 1.56402 32.7046 1.62645 32.7121C1.63603 32.7208 1.64317 32.7318 1.64716 32.7441C1.65114 32.7564 1.65183 32.7695 1.64916 32.7821C1.64253 32.8146 1.64253 32.848 1.64916 32.8805C1.68321 32.9808 1.70781 33.081 1.73429 33.1832C1.79862 33.3932 1.85726 33.6051 1.92348 33.8132C1.93226 33.839 1.94503 33.8632 1.96132 33.8851C1.97321 33.9001 1.98161 33.9175 1.9859 33.9362C1.98853 33.9536 1.99297 33.9707 1.99915 33.9872C2.00896 34.0014 2.01543 34.0175 2.01807 34.0345C2.01956 34.0516 2.02405 34.0682 2.03132 34.0837C2.04113 34.0979 2.04759 34.114 2.05023 34.131C2.05151 34.1484 2.05669 34.1652 2.06537 34.1802C2.07411 34.1954 2.07988 34.2121 2.08239 34.2294C2.08701 34.2476 2.09335 34.2654 2.10132 34.2824C2.11059 34.2998 2.11516 34.3194 2.11456 34.3391C2.1353 34.4702 2.1748 34.5977 2.23186 34.7175C2.25645 34.7913 2.27915 34.867 2.30942 34.9389L2.32645 34.9786C2.34963 35.047 2.3768 35.1139 2.4078 35.1791C2.44071 35.2858 2.48247 35.3896 2.53266 35.4894C2.65824 35.8317 2.80482 36.1659 2.97157 36.4902C3.04914 36.5394 3.0586 36.6302 3.09455 36.7059C3.70117 37.9864 4.40314 39.2196 5.19452 40.395C5.76334 41.2274 6.3719 42.0296 7.02018 42.8015C7.46288 43.3331 7.92261 43.8515 8.40314 44.349C8.67368 44.6309 8.9707 44.8996 9.24124 45.1777C10.0339 45.9685 10.8777 46.6912 11.7423 47.4063C12.9783 48.4063 14.266 49.341 15.5998 50.2063C15.8458 50.369 16.1049 50.509 16.3358 50.6906C16.3471 50.7038 16.3358 50.7568 16.3793 50.7227C16.395 50.7241 16.41 50.73 16.4224 50.7398C16.4349 50.7495 16.4442 50.7627 16.4493 50.7776C16.4493 50.8192 16.4663 50.7908 16.4795 50.7776C16.5122 50.7859 16.5406 50.8061 16.559 50.8344C16.5895 50.8692 16.6277 50.8965 16.6706 50.9138L16.7047 50.9346C16.7317 50.9524 16.7631 50.9623 16.7955 50.963C16.8697 50.9825 16.9359 51.0249 16.9847 51.0841C17.0055 51.139 17.0622 51.1503 17.1058 51.1787C17.1511 51.2182 17.2084 51.2415 17.2684 51.2449C17.3423 51.2652 17.4083 51.3074 17.4576 51.366C17.4974 51.4417 17.573 51.4549 17.6468 51.4776C17.6944 51.4841 17.7376 51.5085 17.7679 51.5457C17.7679 51.6138 17.8039 51.5457 17.8152 51.5646C17.8823 51.5833 17.9426 51.6207 17.9893 51.6725C17.9779 51.7387 18.0214 51.6725 18.0328 51.6895C18.1067 51.7086 18.1728 51.7502 18.2219 51.8087C18.2598 51.8862 18.3468 51.8938 18.4111 51.9354C18.5008 51.9951 18.5951 52.0476 18.693 52.0925C18.7866 52.1523 18.8839 52.206 18.9844 52.2533C19.2209 52.3989 19.4706 52.5238 19.7146 52.6543C20.8074 53.2647 21.9459 53.789 23.12 54.2227C24.4047 54.6859 25.7252 55.0428 27.0683 55.2897C27.3294 55.3389 27.5924 55.3824 27.8573 55.4203C28.124 55.4657 28.3927 55.494 28.6594 55.5338C28.7105 55.5338 28.7805 55.5205 28.7918 55.6057C28.6092 55.6485 28.4241 55.6801 28.2375 55.7003C27.9537 55.7419 27.67 55.7816 27.3843 55.8176C27.1516 55.8459 26.917 55.8667 26.6824 55.8913C26.3873 55.9197 26.0902 55.9538 25.7951 55.9765C25.6173 55.9897 25.4394 56.003 25.2616 56.0105L23.9903 56.0559C23.5911 56.073 23.1938 56.0805 22.7965 56.0711C22.4295 56.0711 22.0624 56.0578 21.6973 56.0408C21.3681 56.0257 21.0408 56.0011 20.7117 55.9784C20.2746 55.9481 19.8376 55.9084 19.4025 55.8516C17.4101 55.6094 15.4633 55.0799 13.6228 54.2795C13.0836 54.0468 12.5577 53.7857 12.0393 53.5114C11.5209 53.237 11.0177 52.9324 10.5258 52.6089C10.0831 52.3195 9.64799 52.0187 9.22799 51.6971C8.90638 51.453 8.59233 51.2014 8.28206 50.9403C7.91693 50.6263 7.56694 50.2933 7.21126 49.9698C6.85559 49.6463 6.56424 49.3265 6.26533 48.9936C5.57278 48.2434 4.92886 47.4497 4.33751 46.6174C3.80991 45.8741 3.32054 45.1043 2.87131 44.3112C2.57807 43.7966 2.30375 43.2744 2.04267 42.7409C1.7658 42.1766 1.52505 41.5953 1.32187 41.0004C1.13485 40.4286 0.990661 39.8437 0.890514 39.2504C0.843217 38.9629 0.820518 38.6715 0.788357 38.3802C0.752411 38.2137 0.750516 38.0434 0.725922 37.8769V36.8799Z" fill="#868E77"/>
<path d="M12.0715 6.99592C12.1605 6.87336 12.2707 6.76766 12.3969 6.68376C12.6731 6.44349 12.9644 6.2108 13.2407 5.98188C13.8498 5.49378 14.4874 5.03594 15.1325 4.61595C15.755 4.20919 16.3982 3.8365 17.0547 3.48082C17.4658 3.25884 17.882 3.04758 18.3033 2.84705C19.0184 2.51029 19.7449 2.19813 20.4827 1.91624C20.9917 1.72706 21.5044 1.53787 22.0208 1.36571C22.753 1.12733 23.4889 0.909765 24.2343 0.714902C24.6032 0.618417 24.9722 0.525716 25.3486 0.455717C25.6249 0.404636 25.9048 0.368694 26.1848 0.33464C26.4951 0.294911 26.8073 0.264637 27.1194 0.24761C27.3173 0.225841 27.5163 0.214476 27.7154 0.213558C27.8903 0.199691 28.0659 0.195269 28.2413 0.200313C28.2978 0.209584 28.3557 0.204379 28.4097 0.185181H28.7881C28.9621 0.203449 29.1373 0.208506 29.3121 0.200313C29.3692 0.195213 29.4268 0.19969 29.4824 0.213558C29.7548 0.213558 30.0253 0.238152 30.2978 0.255179C30.5702 0.272206 30.8786 0.302476 31.1699 0.332746C31.4613 0.363016 31.7829 0.398963 32.0875 0.440585C32.6046 0.511214 33.1192 0.597609 33.6313 0.69977C34.2404 0.822742 34.8458 0.962742 35.4456 1.13301C36.1039 1.3222 36.7566 1.53408 37.398 1.78003C38.1725 2.08245 38.9303 2.426 39.6682 2.80921C40.1961 3.07974 40.7069 3.37677 41.2101 3.68893C41.7352 4.01988 42.2406 4.38121 42.7236 4.77108C42.9128 4.92621 43.102 5.10215 43.2911 5.26296C43.4803 5.42377 43.696 5.64134 43.8909 5.83053C44.4194 6.36765 44.8999 6.95006 45.3268 7.57105C45.7581 8.19633 46.148 8.84916 46.4941 9.52535C46.8611 10.2386 47.1865 10.9689 47.493 11.7105C47.6935 12.1923 47.8827 12.6797 48.0606 13.1729C48.0689 13.1969 48.0752 13.2216 48.0795 13.2467C47.9906 13.2599 47.9489 13.188 47.8903 13.1388C47.5573 12.821 47.2357 12.4899 46.8989 12.174C46.0847 11.4133 45.2241 10.7038 44.3222 10.0494C43.1974 9.2404 42.0143 8.51572 40.7825 7.88131C38.8528 6.88484 36.8237 6.0941 34.7285 5.52215C33.1193 5.07652 31.4789 4.75272 29.821 4.55351C29.1929 4.47784 28.561 4.42676 27.9291 4.38135C26.5916 4.28487 25.254 4.32082 23.9184 4.33217C23.2165 4.33217 22.5146 4.38703 21.8146 4.44379C20.8271 4.52324 19.8414 4.63297 18.8633 4.79189C16.983 5.08409 15.1485 5.61825 13.4053 6.38106C13.0476 6.53322 12.6984 6.70436 12.359 6.89376C12.2739 6.94862 12.1888 7.02997 12.0715 6.99592Z" fill="#6C7983"/>
<path d="M6.32398 11.7899C6.46777 11.6253 6.63424 11.438 6.83667 11.2224C7.23586 10.791 7.55559 10.477 7.70694 10.3294C8.89306 9.15582 10.2162 8.12934 11.6477 7.27212C11.6687 7.25644 11.6935 7.24665 11.7196 7.24374C11.4964 7.47077 11.2731 7.70158 11.0461 7.92482C10.4377 8.5382 9.869 9.18969 9.3434 9.87534C8.18451 11.3736 7.23019 13.0195 6.5056 14.7696C6.27857 15.3164 6.07047 15.8688 5.88507 16.4326C5.60825 17.2775 5.37835 18.1371 5.19642 19.0074C5.0621 19.6412 4.95237 20.2806 4.86535 20.922C4.81805 21.2531 4.78588 21.586 4.75372 21.919C4.71778 22.2974 4.6913 22.6757 4.6667 23.0428C4.61562 23.8449 4.63453 24.6471 4.63643 25.4473C4.69341 25.7752 4.62594 26.1125 4.44724 26.3933C4.00833 27.1689 3.61482 27.9692 3.23266 28.7732C2.8505 29.5773 2.51186 30.334 2.19781 31.1343C2.02754 31.5675 1.86673 32.0065 1.71727 32.4473C1.69835 32.5059 1.70403 32.5892 1.60943 32.5967H1.58295C1.35039 31.711 1.16847 30.8128 1.03809 29.9065C0.973771 29.4499 0.921426 28.9933 0.881066 28.5368C0.852688 28.2076 0.837548 27.8784 0.816737 27.5511C0.771332 26.8644 0.778908 26.1776 0.80161 25.4909C0.822421 24.8911 0.873498 24.2933 0.939713 23.6955C1.03686 22.8273 1.17894 21.9647 1.36538 21.1112C1.5243 20.3822 1.71727 19.6626 1.9443 18.9525C2.06348 18.5742 2.16754 18.2866 2.22051 18.1409C2.33213 17.8269 2.51564 17.318 2.74834 16.8034C2.98948 16.2797 3.26767 15.7739 3.58077 15.2899C4.34698 14.0583 5.10373 13.1918 6.32398 11.7899Z" fill="#6C7983"/>
<path d="M41.6074 39.5891C41.4982 39.6036 41.3984 39.6582 41.3274 39.7423C40.9235 40.1795 40.4802 40.5784 40.0031 40.9342C39.9501 40.9739 39.9198 41.0364 39.8725 41.0629C39.8252 41.0893 39.759 41.0118 39.6833 40.9929C39.3756 40.8995 39.0582 40.8411 38.7374 40.8188C38.6901 40.8188 38.6409 40.8188 38.6069 40.7753C38.5292 40.6813 38.4178 40.6215 38.2966 40.6088C38.2442 40.6014 38.1947 40.5806 38.1528 40.5483C38.0733 40.4832 37.9777 40.4409 37.8761 40.4259C37.7745 40.4109 37.6707 40.4238 37.5758 40.4631C37.4736 40.4896 37.3866 40.5199 37.2712 40.5388C37.1189 40.5471 36.9681 40.5051 36.842 40.4193C36.7158 40.3335 36.6214 40.2086 36.5731 40.0639C36.5315 39.9183 36.5372 39.9088 36.6753 39.8558C36.7472 39.8293 36.8266 39.8085 36.9004 39.7896C37.0085 39.7716 37.1154 39.7463 37.2201 39.7139C37.5466 39.579 37.8387 39.3728 38.0752 39.1104C38.1366 39.0512 38.1794 38.9754 38.1985 38.8923C38.2176 38.8093 38.2122 38.7224 38.183 38.6423C38.1538 38.5622 38.1019 38.4923 38.0338 38.4411C37.9656 38.3899 37.8841 38.3595 37.799 38.3537C37.7579 38.3461 37.716 38.3423 37.6742 38.3423C37.4509 38.331 37.2258 38.3272 37.0007 38.3121C36.9741 38.3097 36.9483 38.3017 36.925 38.2887C36.9017 38.2756 36.8814 38.2578 36.8655 38.2363C36.8496 38.2149 36.8385 38.1903 36.8327 38.1642C36.827 38.1382 36.8268 38.1112 36.8323 38.085C36.8484 38.0195 36.8719 37.9561 36.9023 37.8959C37.0147 37.6831 37.1464 37.4811 37.2958 37.2924C37.492 37.0619 37.6498 36.8012 37.7631 36.5205C37.8763 36.2302 37.8883 35.9103 37.7971 35.6124C37.7465 35.4846 37.6831 35.3623 37.608 35.2472C37.5461 35.1462 37.4576 35.0643 37.3521 35.0105C37.2465 34.9568 37.1282 34.9333 37.0101 34.9426C36.8512 34.9426 36.8077 34.884 36.8209 34.7251C36.8335 34.6206 36.8615 34.5186 36.9042 34.4224C36.9726 34.2588 37.0568 34.1022 37.1558 33.9551C37.1982 33.9021 37.2232 33.8374 37.2276 33.7698C37.232 33.7021 37.2155 33.6347 37.1804 33.5767C37.1255 33.4689 37.0669 33.3629 37.0063 33.2608C36.7074 32.7594 36.3366 32.3148 36.0188 31.8248C35.916 31.6714 35.7743 31.548 35.6082 31.4673C35.4797 31.421 35.3582 31.3573 35.2469 31.2781C35.2072 31.2384 35.1409 31.2402 35.0823 31.2308C34.9272 31.2081 34.772 31.2005 34.6169 31.1703C34.5243 31.1598 34.4392 31.114 34.3793 31.0425C34.3194 30.971 34.2894 30.8793 34.2953 30.7862C34.26 30.2375 34.1829 29.6923 34.0645 29.1554C34.0198 28.9041 33.8853 28.6775 33.6861 28.5179C33.4458 28.3154 33.1885 28.1395 32.9521 27.9276C32.8833 27.8707 32.8014 27.8319 32.7139 27.8147C32.6263 27.7976 32.5359 27.8025 32.4507 27.8292C32.4145 27.8328 32.3808 27.8493 32.3558 27.8757C32.3308 27.9021 32.3161 27.9367 32.3145 27.973C32.2918 28.1281 32.2748 28.2833 32.2445 28.4365C32.21 28.6077 32.2439 28.7857 32.3391 28.9322C32.3614 28.9616 32.3817 28.9926 32.3996 29.0249C32.4791 29.1838 32.5699 29.337 32.4677 29.5224C32.4431 29.5756 32.4333 29.6344 32.4394 29.6927C32.4461 29.7975 32.4189 29.9016 32.3618 29.9897C32.1292 30.4044 31.8574 30.796 31.5502 31.1589C31.5237 31.1949 31.4896 31.2248 31.4504 31.2463C31.4112 31.2679 31.3678 31.2807 31.3232 31.2838C31.2284 31.2934 31.1384 31.3302 31.064 31.3897C30.8265 31.5697 30.619 31.7862 30.4491 32.0311C30.2664 32.2937 30.0297 32.5143 29.7548 32.6781C29.5607 32.7803 29.3574 32.8639 29.1475 32.9278C28.8599 33.0281 28.5686 33.117 28.2754 33.1889C28.2458 33.201 28.2138 33.2062 28.182 33.2041C28.1501 33.202 28.1191 33.1927 28.0914 33.1768C28.0636 33.161 28.0399 33.139 28.0219 33.1125C28.004 33.0861 27.9923 33.0559 27.9878 33.0243C27.9771 32.9839 27.9612 32.9451 27.9405 32.9089C27.8096 32.74 27.7426 32.5302 27.7513 32.3167C27.7002 32.2846 27.6491 32.3375 27.5981 32.2959C27.4213 32.1733 27.2095 32.1116 26.9945 32.12C26.9426 32.1101 26.8892 32.1112 26.8377 32.1233C26.7862 32.1354 26.7378 32.1581 26.6956 32.19C26.6664 32.2123 26.6302 32.2237 26.5935 32.2221C26.4289 32.2335 26.2605 32.2562 26.0959 32.2694C25.8261 32.3103 25.5533 32.3274 25.2805 32.3205C25.2897 32.3791 25.2769 32.4391 25.2446 32.4889C25.1956 32.5625 25.161 32.6446 25.1424 32.7311C25.1051 32.9005 25.0228 33.0567 24.904 33.1832C24.8757 33.2182 24.8364 33.2427 24.7925 33.2526C24.7485 33.2626 24.7025 33.2575 24.6619 33.2381C24.6128 33.2196 24.5664 33.1948 24.5238 33.1643C24.4985 33.1404 24.4688 33.1218 24.4364 33.1094C24.4039 33.0971 24.3693 33.0913 24.3346 33.0924C24.2812 33.0968 24.2282 33.0806 24.1863 33.0472C24.1445 33.0138 24.117 32.9657 24.1094 32.9127C24.167 32.8887 24.219 32.8531 24.2623 32.8082C24.3056 32.7633 24.3392 32.71 24.3611 32.6516C24.3781 32.6156 24.4103 32.6005 24.4405 32.5778C24.5189 32.5177 24.5772 32.4353 24.608 32.3415C24.6387 32.2476 24.6403 32.1467 24.6127 32.0519C24.5656 31.9184 24.502 31.7913 24.4235 31.6735C24.3988 31.6288 24.3647 31.5901 24.3235 31.5599C24.2823 31.5297 24.2351 31.5089 24.185 31.4988C24.135 31.4887 24.0834 31.4897 24.0337 31.5015C23.9841 31.5134 23.9376 31.5359 23.8976 31.5675C23.8313 31.6111 23.7708 31.6602 23.7084 31.7038C23.6459 31.7473 23.6062 31.7284 23.5911 31.7719C23.5759 31.8154 23.6005 31.8721 23.6214 31.9194C23.6214 31.9346 23.6214 31.9497 23.6346 31.9667C23.654 32.004 23.6587 32.0472 23.6479 32.0878C23.637 32.1284 23.6114 32.1635 23.5759 32.1862C23.5166 32.2327 23.4779 32.3006 23.4681 32.3754C23.4189 32.6213 23.2354 32.714 23.0765 32.9429C23.3735 33.0905 23.2184 33.8037 23.5022 34.0383C23.5619 34.0855 23.6082 34.1474 23.6365 34.2181C23.6582 34.287 23.6582 34.361 23.6365 34.4299C23.5646 34.7099 23.6365 34.9824 23.6497 35.2548C23.6524 35.2935 23.6645 35.331 23.6849 35.3639C23.7054 35.3969 23.7335 35.4244 23.767 35.444C23.7978 35.4692 23.8358 35.4841 23.8755 35.4864C23.9153 35.4888 23.9548 35.4786 23.9884 35.4572C24.0229 35.4407 24.051 35.4131 24.0682 35.3789C24.0853 35.3446 24.0905 35.3056 24.083 35.268C24.0678 35.0755 24.064 34.8822 24.0716 34.6891C24.0676 34.6318 24.0822 34.5748 24.1132 34.5264C24.1179 34.5139 24.1261 34.503 24.1368 34.495C24.1475 34.4869 24.1603 34.4822 24.1736 34.4812C24.1869 34.4802 24.2003 34.483 24.212 34.4893C24.2238 34.4957 24.2335 34.5053 24.24 34.517C24.2584 34.539 24.2715 34.5649 24.2784 34.5928C24.2853 34.6207 24.2857 34.6497 24.2797 34.6778C24.2252 34.9176 24.2188 35.1658 24.2608 35.408C24.2736 35.4567 24.2759 35.5076 24.2674 35.5572C24.2589 35.6068 24.2399 35.654 24.2116 35.6956C24.1914 35.7246 24.1798 35.7587 24.178 35.794C24.1762 35.8293 24.1843 35.8645 24.2014 35.8954C24.2186 35.9263 24.244 35.9518 24.2749 35.969C24.3058 35.9862 24.3409 35.9944 24.3762 35.9926C24.414 35.9918 24.4515 35.9986 24.4866 36.0126C24.5217 36.0265 24.5537 36.0474 24.5805 36.074C24.6537 36.1502 24.699 36.2488 24.7092 36.354C24.7185 36.4215 24.7113 36.4903 24.6884 36.5545C24.6559 36.6151 24.6487 36.686 24.6681 36.7518C24.6876 36.8177 24.7323 36.8732 24.7924 36.9064C24.9381 37.0161 25.0781 37.1353 25.2313 37.2356C25.286 37.2714 25.3316 37.3194 25.3644 37.3759C25.3973 37.4324 25.4165 37.4958 25.4205 37.561C25.4205 37.5837 25.4357 37.6291 25.4035 37.6253C25.3032 37.6102 25.3127 37.6934 25.29 37.7426C25.267 37.8006 25.23 37.852 25.1823 37.8923C25.1346 37.9325 25.0777 37.9604 25.0166 37.9733C24.9556 37.9862 24.8922 37.9838 24.8323 37.9664C24.7724 37.9489 24.7178 37.9169 24.6732 37.8732C24.6215 37.8293 24.5728 37.7819 24.5276 37.7313C24.4689 37.6651 24.4216 37.6253 24.3232 37.684C24.2249 37.7426 24.0376 37.6064 24.0338 37.474C24.0335 37.4313 24.0189 37.39 23.9922 37.3567C23.8567 37.1863 23.7304 37.0089 23.6138 36.8251C23.5314 36.7152 23.4237 36.6269 23.2997 36.5678C23.1578 36.4845 23.0103 36.4013 22.8627 36.3237C22.815 36.2991 22.7734 36.2643 22.7407 36.2218C22.708 36.1793 22.6851 36.1301 22.6735 36.0778C22.6319 35.917 22.5751 35.758 22.5449 35.5953C22.5224 35.503 22.5306 35.4058 22.5681 35.3185C22.6056 35.2311 22.6705 35.1583 22.753 35.111C22.7793 35.0978 22.8023 35.0786 22.8199 35.055C22.8375 35.0314 22.8494 35.0039 22.8546 34.9749C22.8597 34.9458 22.858 34.916 22.8495 34.8877C22.8411 34.8595 22.8262 34.8336 22.806 34.8121L22.263 34.1405C22.1914 34.0695 22.1489 33.9744 22.1438 33.8737C22.1449 33.8163 22.1612 33.7601 22.1911 33.711C22.4465 33.24 22.5695 32.9978 22.8135 32.9335C22.8163 32.9242 22.8163 32.9144 22.8135 32.9051C22.8135 32.7765 22.7114 32.6743 22.6678 32.557C22.6534 32.5016 22.6266 32.4501 22.5895 32.4066C22.5523 32.363 22.5058 32.3285 22.4533 32.3055C22.4008 32.2826 22.3439 32.2718 22.2866 32.2741C22.2294 32.2764 22.1735 32.2916 22.123 32.3186C21.929 32.3998 21.7395 32.4913 21.5554 32.5929C21.4453 32.6516 21.3323 32.7047 21.2168 32.7519C21.1859 32.7672 21.1519 32.7752 21.1174 32.7752C21.083 32.7752 21.049 32.7672 21.0181 32.7519C20.8188 32.6593 20.6073 32.5956 20.39 32.5627C20.3184 32.5585 20.2494 32.5341 20.1911 32.4922C20.1328 32.4504 20.0876 32.3928 20.0608 32.3262C20.0574 32.3139 20.0512 32.3025 20.0426 32.293C20.0341 32.2835 20.0235 32.2761 20.0117 32.2713C19.8963 32.2183 19.7846 32.1597 19.6692 32.1124C19.48 32.0311 19.3079 31.9497 19.1338 31.8513C19.0462 31.7913 18.9417 31.7608 18.8356 31.7642C18.7295 31.7676 18.6272 31.8047 18.5436 31.8702C18.4499 31.939 18.3395 31.9815 18.2238 31.9932C18.1046 32.0195 17.9798 31.9985 17.8757 31.9346C17.846 31.9068 17.8067 31.8913 17.766 31.8913C17.7253 31.8913 17.6861 31.9068 17.6563 31.9346C17.6098 31.9668 17.5662 32.0029 17.5257 32.0424C17.279 32.3027 17.0718 32.5978 16.9109 32.9183C16.8457 33.0266 16.8032 33.1469 16.786 33.2721C16.7709 33.4764 16.7538 33.6789 16.7425 33.8813C16.7241 34.1541 16.7838 34.4264 16.9147 34.6664C17.1171 35.0448 17.3157 35.4232 17.5182 35.8016C17.5503 35.8602 17.5674 35.898 17.5068 35.9472C17.4463 35.9964 17.4633 36.0153 17.5201 36.0532C17.6967 36.1667 17.8328 36.3334 17.9086 36.5293C17.9845 36.7251 17.9961 36.94 17.9419 37.1429C17.9296 37.1752 17.9271 37.2104 17.9349 37.2441C17.9426 37.2778 17.9602 37.3084 17.9855 37.3321L18.133 37.4929C18.1965 37.5629 18.2529 37.6389 18.3014 37.7199C18.3242 37.7684 18.3363 37.8213 18.3371 37.8748C18.3379 37.9284 18.3273 37.9816 18.3061 38.0308C18.2848 38.08 18.2533 38.1241 18.2137 38.1602C18.174 38.1963 18.1272 38.2235 18.0763 38.2402C18.0006 38.2591 17.9287 38.295 17.8549 38.3177C17.7757 38.3395 17.7062 38.3874 17.6578 38.4537C17.6094 38.52 17.5848 38.6008 17.5882 38.6829C17.5882 38.908 17.5655 39.1312 17.5693 39.3564C17.5728 39.492 17.5316 39.625 17.4519 39.7348C17.3773 39.8415 17.3139 39.9556 17.2628 40.0753C17.1265 40.3893 17.0736 40.4291 16.7217 40.4404C16.7066 40.4414 16.6914 40.4414 16.6763 40.4404C16.5192 40.4436 16.363 40.4652 16.2109 40.5047C15.9971 40.5729 15.9385 40.6504 15.8949 40.8831C15.8779 40.9777 15.8949 41.0723 15.8798 41.1783C15.8786 41.4294 15.8135 41.6762 15.6906 41.8953C15.6203 41.9974 15.5719 42.113 15.5485 42.2348C15.5251 42.3566 15.5271 42.4819 15.5544 42.6028C15.5736 42.7051 15.5825 42.809 15.5809 42.9131C15.5792 43.1905 15.5449 43.4667 15.4787 43.7361C15.4575 43.8385 15.4736 43.9452 15.5241 44.0369C15.6472 44.2455 15.8226 44.4183 16.033 44.5382C16.3641 44.7596 16.6933 44.9809 17.0112 45.2193C17.4097 45.5438 17.8708 45.7828 18.3657 45.9212C18.7331 46.0354 19.1231 46.0569 19.5008 45.9836C20.0241 45.859 20.5317 45.6762 21.0143 45.4388C21.2164 45.3267 21.4457 45.273 21.6765 45.2836C22 45.3082 22.3216 45.3517 22.647 45.3612C22.7207 45.3647 22.7942 45.3524 22.8627 45.3252C23.1446 45.2079 23.4303 44.7577 23.2184 44.4474C23.17 44.3743 23.1465 44.2875 23.1513 44.1999C23.1561 44.1124 23.1889 44.0287 23.2449 43.9612C23.2927 43.8985 23.3321 43.8298 23.3622 43.7569C23.4005 43.6556 23.4685 43.5682 23.5573 43.5061C23.646 43.444 23.7514 43.4101 23.8597 43.4088C24.0317 43.391 24.2023 43.3619 24.3705 43.3217C24.8852 43.2306 25.3914 43.0971 25.884 42.9226C26.1267 42.8353 26.3439 42.689 26.5159 42.4969C26.5868 42.4188 26.6283 42.3185 26.6332 42.2131C26.6332 42.1015 26.6162 42.075 26.5121 42.0447L25.517 41.7685C25.2975 41.7061 25.2578 41.6664 25.2332 41.4355C25.2239 41.3203 25.1819 41.21 25.1121 41.1177C25.0516 41.0383 24.9949 40.9569 24.923 40.8793C24.8556 40.8005 24.8123 40.704 24.7981 40.6012C24.6827 39.8918 24.6335 39.1785 24.5748 38.4634C24.5748 38.4388 24.5597 38.4104 24.5994 38.401C24.6392 38.3915 24.66 38.3877 24.6808 38.4256C24.7732 38.5585 24.8506 38.7013 24.9116 38.8513C25.0138 39.2296 25.1008 39.608 25.1727 39.9977C25.2257 40.2115 25.2561 40.4303 25.2635 40.6504C25.2621 40.781 25.2722 40.9114 25.2938 41.0401C25.2915 41.1027 25.3029 41.165 25.3274 41.2227C25.3518 41.2803 25.3886 41.3319 25.4352 41.3738C25.4817 41.4156 25.5369 41.4468 25.5968 41.465C25.6567 41.4832 25.7199 41.488 25.7819 41.4791C26.0429 41.4791 26.3059 41.4583 26.5651 41.4412C27.0399 41.3999 27.5087 41.3067 27.9632 41.1631C28.4645 41.0212 28.4645 41.0231 28.8618 40.6845L29.3821 40.255C29.4857 40.1654 29.6133 40.1082 29.7491 40.0904C29.8431 40.0802 29.9382 40.0888 30.0288 40.1158C30.1195 40.1428 30.2038 40.1875 30.277 40.2475C30.5416 40.463 30.7942 40.6929 31.0337 40.9361C31.2224 41.1147 31.397 41.3076 31.5559 41.5131C31.7961 41.8072 32.0572 42.0835 32.3372 42.3399C32.3557 42.3584 32.3767 42.3743 32.3996 42.3872C32.5226 42.4666 32.5756 42.4685 32.6815 42.3701C32.8223 42.2643 32.9328 42.1232 33.0018 41.9612C33.0709 41.7991 33.0961 41.6218 33.075 41.4469C33.059 41.3497 33.0653 41.2501 33.0935 41.1557C33.1217 41.0613 33.171 40.9745 33.2377 40.902C33.5004 40.6173 33.7145 40.2913 33.8715 39.9372C33.8809 39.9016 33.9031 39.8707 33.9338 39.8505C33.9645 39.8303 34.0016 39.822 34.038 39.8275C34.1023 39.8275 34.1572 39.7707 34.1874 39.7064C34.2461 39.5834 34.2877 39.5531 34.4107 39.5815C34.5908 39.6182 34.7643 39.682 34.9253 39.7707C35.0539 39.8483 35.1845 39.9277 35.3169 39.9996C35.766 40.2667 36.2281 40.5111 36.7017 40.7318C36.7867 40.7663 36.8757 40.7899 36.9666 40.8018C37.2239 40.8339 37.4774 40.8869 37.7328 40.9304C37.3662 40.9762 37.0058 41.0625 36.6582 41.1877C36.6582 41.2558 36.6582 41.3183 36.7623 41.2974C36.8302 41.293 36.8985 41.2987 36.9647 41.3145C37.1026 41.346 37.2455 41.3492 37.3847 41.3239C37.524 41.2996 37.6671 41.3107 37.8009 41.3561C37.9908 41.415 38.1886 41.4443 38.3874 41.4431C38.4349 41.4379 38.483 41.4444 38.5274 41.462C38.6218 41.5014 38.7231 41.5217 38.8254 41.5217C38.9277 41.5217 39.0289 41.5014 39.1233 41.462C39.3418 41.3902 39.5554 41.3043 39.7628 41.2047C39.776 41.2047 39.7987 41.1877 39.8025 41.1915C39.8877 41.2766 39.9482 41.1915 40.0068 41.1593C40.5289 40.8575 41.0184 40.5025 41.4674 40.0999C41.6182 39.9705 41.7545 39.8253 41.8741 39.6666C41.9248 39.6122 41.9525 39.5404 41.9517 39.4661C41.8416 39.5192 41.7262 39.5605 41.6074 39.5891ZM26.2019 36.9196C26.0934 36.8298 25.995 36.7283 25.9086 36.617C25.8477 36.5377 25.7706 36.4723 25.6826 36.4251C25.5946 36.3778 25.4975 36.3497 25.3978 36.3426C25.3747 36.3443 25.3516 36.3387 25.3319 36.3264C25.3121 36.3142 25.2968 36.296 25.2881 36.2745C25.2673 36.232 25.2353 36.196 25.1954 36.1705C25.174 36.1602 25.1575 36.142 25.1494 36.1197C25.1412 36.0975 25.1421 36.0729 25.1519 36.0513C25.1727 36.0002 25.1935 35.9567 25.2559 35.9453C25.3184 35.934 25.3884 35.9226 25.4451 35.9113C25.5072 35.9057 25.5667 35.8834 25.6173 35.847C25.6872 35.8029 25.7696 35.783 25.8519 35.7902C25.8471 35.8835 25.8471 35.9769 25.8519 36.0702C25.8519 36.1018 25.8644 36.1321 25.8868 36.1545C25.9091 36.1768 25.9394 36.1894 25.9711 36.1894C26.0354 36.1894 26.1016 36.2121 26.1602 36.2234C26.1924 36.1724 26.147 36.127 26.1602 36.0797C26.2491 36.0812 26.3367 36.1012 26.4175 36.1383C26.3681 36.1985 26.3025 36.2431 26.2283 36.2669C26.3894 36.4761 26.5054 36.7164 26.5689 36.9726C26.5095 37.0017 26.4427 37.0122 26.3772 37.0027C26.3117 36.9933 26.2506 36.9643 26.2019 36.9196Z" fill="white"/>
<path d="M24.8359 19.4823C24.4424 19.6166 24.2419 20.1747 23.8257 20.1274C23.7395 20.109 23.6548 20.0843 23.5722 20.0537C23.3641 19.9837 23.1616 19.8985 22.9535 19.8285C22.8708 19.8023 22.7953 19.7574 22.7326 19.6974C22.67 19.6374 22.622 19.5638 22.5922 19.4823C22.5543 19.3953 22.5108 19.312 22.473 19.2269C22.4649 19.2049 22.4509 19.1854 22.4326 19.1708C22.4142 19.1561 22.3922 19.1467 22.3689 19.1437C22.2572 19.1101 22.1381 19.1101 22.0264 19.1437C21.9147 19.1774 21.8154 19.2431 21.7408 19.3329C21.6461 19.4584 21.5211 19.558 21.3776 19.6223C21.3437 19.6347 21.3154 19.659 21.298 19.6907C21.2807 19.7223 21.2753 19.7592 21.283 19.7945C21.283 19.8834 21.283 19.9723 21.2981 20.0612C21.3303 20.3185 21.2663 20.5785 21.1184 20.7915C20.9408 21.0817 20.7215 21.3444 20.4676 21.5709C19.9253 22.0578 19.3315 22.4841 18.6968 22.8423C18.5568 22.9236 18.4111 22.9955 18.2693 23.0731C18.1251 23.1479 18.0104 23.2692 17.9439 23.4174C17.8632 23.6088 17.74 23.7793 17.5837 23.916C17.4273 24.0527 17.2419 24.152 17.0414 24.2063C16.7625 24.2777 16.4964 24.3919 16.2525 24.545C16.1775 24.5948 16.1132 24.6591 16.0633 24.7342C15.7947 25.1125 15.5752 25.5363 15.335 25.9393C15.2606 26.0541 15.1973 26.1757 15.1458 26.3025C15.007 26.6239 14.8478 26.9361 14.669 27.2371C14.6357 27.2968 14.6096 27.3603 14.5915 27.4263C14.5887 27.4669 14.5757 27.5062 14.5535 27.5404C14.5313 27.5745 14.5007 27.6024 14.4646 27.6214C14.4286 27.6404 14.3883 27.6498 14.3475 27.6488C14.3068 27.6477 14.267 27.6363 14.232 27.6155C14.2037 27.6025 14.1746 27.5911 14.145 27.5814C14.0458 27.5567 13.955 27.5062 13.8816 27.4351C13.8081 27.3641 13.7548 27.2749 13.7269 27.1766C13.6555 26.9849 13.5694 26.7989 13.4696 26.6203C13.4248 26.5193 13.3549 26.4314 13.2664 26.3652C13.178 26.2989 13.074 26.2565 12.9644 26.242C12.9172 26.2386 12.8725 26.2193 12.8377 26.1871C12.6571 26.0368 12.5024 25.8579 12.3799 25.6574C12.2468 25.4159 12.2033 25.1352 12.2569 24.8647C12.3375 24.3272 12.3824 23.7849 12.3912 23.2415C12.401 23.1789 12.39 23.1149 12.3599 23.0592C12.3299 23.0035 12.2824 22.9592 12.2247 22.9331C12.156 22.8941 12.0996 22.8365 12.0621 22.7669C12.0246 22.6973 12.0075 22.6185 12.0128 22.5396C11.9769 22.2649 11.9995 21.9857 12.0791 21.7204C12.1036 21.6481 12.1118 21.5713 12.1033 21.4955C12.0948 21.4196 12.0698 21.3466 12.0299 21.2815C11.9771 21.1792 11.9505 21.0655 11.9523 20.9504C11.9453 20.6155 11.9611 20.2805 11.9996 19.9477C12.0336 19.6236 12.1106 19.3055 12.2285 19.0018C12.5369 18.245 12.5747 18.2867 12.6069 17.8931C12.6372 17.6094 12.6069 17.3918 12.7412 17.074C12.7875 16.952 12.8561 16.8397 12.9436 16.7429C13.2426 16.4232 13.5358 16.5915 13.7874 16.3248C13.8631 16.2434 13.8252 16.2396 14.0825 15.5964C14.2244 15.2426 14.2188 15.288 14.2396 15.218C14.3228 14.9361 14.2736 14.6978 14.0069 13.7291C13.8782 13.2637 13.8404 13.1351 13.8915 12.9421C13.9671 12.6546 14.2017 12.384 14.355 12.4181C14.4647 12.4427 14.4666 12.6073 14.6425 13.0916C14.7146 13.3285 14.811 13.5574 14.9301 13.7745C15.1195 14.0167 15.2885 14.2743 15.4352 14.5445C15.453 14.577 15.4688 14.6105 15.4825 14.6448C15.526 14.7678 15.5241 14.8945 15.6206 15.3429C15.6425 15.4868 15.6786 15.6281 15.7285 15.7648C15.876 16.1167 16.0671 16.0807 16.4455 16.5461C16.6217 16.7391 16.7742 16.9525 16.8995 17.1818C16.9439 17.2798 17.0084 17.3675 17.0887 17.4391C17.172 17.5275 17.2854 17.5815 17.4066 17.5904C17.5105 17.5784 17.607 17.5302 17.679 17.4542C17.9514 17.248 18.3033 17.265 18.9692 17.265C19.0958 17.2666 19.2221 17.2754 19.3476 17.2915C19.5652 17.3237 19.7809 17.3691 19.9965 17.4069C20.1364 17.4252 20.2779 17.4284 20.4184 17.4164C20.523 17.4107 20.6279 17.4107 20.7325 17.4164C20.811 17.4163 20.8876 17.4407 20.9517 17.4861C21.0158 17.5315 21.0641 17.5958 21.09 17.6699C21.1317 17.7929 21.1846 17.914 21.23 18.0369C21.2757 18.1406 21.2954 18.2539 21.2875 18.367C21.2796 18.4801 21.2443 18.5895 21.1846 18.6858C21.1154 18.7787 21.0807 18.8928 21.0866 19.0085C21.0924 19.1242 21.1385 19.2342 21.2168 19.3196C21.2395 19.3499 21.2565 19.382 21.2773 19.4123C21.285 19.4206 21.294 19.4276 21.3038 19.4331C21.3519 19.4186 21.3938 19.3887 21.4232 19.3481C21.4526 19.3074 21.4678 19.2582 21.4665 19.208C21.4654 19.147 21.4877 19.0878 21.5289 19.0428C21.5701 18.9977 21.627 18.9702 21.6879 18.9658C22.0257 18.8928 22.3696 18.8516 22.7152 18.8429C22.7726 18.8426 22.8297 18.8529 22.8835 18.8731C23.0872 18.9444 23.3069 18.9569 23.5173 18.9091C23.6149 18.8911 23.7149 18.8911 23.8124 18.9091C24.136 18.9696 24.4689 18.9602 24.7943 19.015C24.8363 19.0201 24.8788 19.0135 24.9173 18.9961C25.082 18.9452 25.2426 18.8819 25.3978 18.8069C25.458 18.7816 25.5219 18.7663 25.587 18.7615C25.966 18.6783 26.3579 18.6725 26.7392 18.7445C26.8631 18.7658 26.9842 18.8007 27.1005 18.8485C27.1467 18.8667 27.1873 18.8967 27.2182 18.9356C27.2491 18.9744 27.2692 19.0208 27.2765 19.0699C27.294 19.1622 27.3384 19.2473 27.404 19.3146C27.4696 19.3819 27.5535 19.4284 27.6454 19.4483C27.9039 19.5138 28.1661 19.5643 28.4305 19.5996C28.5233 19.612 28.6106 19.6507 28.6821 19.7112C28.771 19.7888 28.9035 19.8229 28.9546 19.9383C29.042 20.0992 29.1573 20.2433 29.2951 20.3639C29.3535 20.4448 29.3976 20.535 29.4256 20.6307C29.4583 20.7131 29.505 20.7893 29.5637 20.8558C29.6205 20.9145 29.6716 20.9674 29.7643 20.9447C29.8229 20.9296 29.8626 20.9655 29.8929 21.0128C30.0026 21.1907 30.1294 21.3591 30.2467 21.5312C30.4076 21.793 30.4611 22.1068 30.3962 22.4071C30.383 22.4954 30.3595 22.5817 30.3262 22.6644C30.2717 22.8223 30.2536 22.9905 30.2732 23.1563C30.2766 23.2067 30.2924 23.2555 30.3191 23.2984C30.3458 23.3413 30.3827 23.377 30.4264 23.4023C30.5062 23.4485 30.5664 23.5222 30.5957 23.6097C30.6249 23.6971 30.6213 23.7922 30.5853 23.8771C30.553 23.9839 30.5537 24.0981 30.5875 24.2044C30.6213 24.3108 30.6865 24.4045 30.7745 24.4731C30.8656 24.5523 30.9231 24.6632 30.9353 24.7833C30.9658 24.9776 31.0396 25.1624 31.1513 25.3242C31.263 25.486 31.4097 25.6206 31.5805 25.7179C31.6619 25.7553 31.7501 25.7759 31.8397 25.7785C31.8682 25.777 31.8967 25.7824 31.9227 25.7942C31.9487 25.8061 31.9715 25.824 31.9891 25.8466C32.0056 25.8707 32.0309 25.8873 32.0596 25.893C32.0882 25.8986 32.1179 25.8928 32.1424 25.8768C32.1991 25.8504 32.2578 25.8277 32.3164 25.8031C32.3981 25.7672 32.4849 25.7442 32.5737 25.735C32.6399 25.735 32.7156 25.716 32.7629 25.7879C32.7803 25.8191 32.7857 25.8556 32.7781 25.8904C32.7704 25.9253 32.7502 25.9562 32.7213 25.9771C32.7011 25.9976 32.6885 26.0243 32.6858 26.0529C32.683 26.0815 32.6902 26.1102 32.7061 26.1341C32.7288 26.1814 32.7553 26.2268 32.7761 26.2741C32.7925 26.3043 32.8022 26.3377 32.8045 26.372C32.8068 26.4063 32.8016 26.4407 32.7894 26.4728C32.765 26.516 32.7558 26.5662 32.7634 26.6153C32.7709 26.6643 32.7947 26.7094 32.831 26.7433C32.884 26.8001 32.8707 26.8587 32.8064 26.9041C32.7578 26.9444 32.7009 26.9736 32.6398 26.9896C32.5787 27.0057 32.5148 27.0081 32.4526 26.9968L32.3618 26.9722C32.3145 26.959 32.271 26.9495 32.2351 26.9987C32.2234 27.0185 32.2173 27.041 32.2173 27.064C32.2173 27.087 32.2234 27.1095 32.2351 27.1293C32.2634 27.1974 32.2861 27.2674 32.3107 27.3355C32.3214 27.3595 32.3284 27.385 32.3315 27.4111C32.3429 27.5266 32.2767 27.5757 32.1707 27.5379L32.1253 27.5209C31.9551 27.4528 31.9551 27.4528 31.8699 27.6193C31.8613 27.6441 31.8449 27.6655 31.823 27.6802C31.8012 27.6949 31.7751 27.7021 31.7488 27.7006H31.4197C31.3409 27.7001 31.2638 27.6777 31.197 27.6359C31.1302 27.5942 31.0763 27.5347 31.0413 27.4641C31.011 27.4093 30.9864 27.3676 30.9164 27.3639C30.8464 27.3601 30.837 27.3184 30.8029 27.2844C30.6875 27.1709 30.5721 27.0574 30.4548 26.9458C30.3735 26.8701 30.3716 26.8682 30.2656 26.9458C30.2197 26.9806 30.165 27.0022 30.1077 27.0082C30.0503 27.0142 29.9924 27.0044 29.9402 26.9798C29.8736 26.9478 29.8029 26.9249 29.7302 26.9117C29.6867 26.9117 29.664 26.9117 29.6621 26.9666C29.6547 27.1124 29.6241 27.2561 29.5713 27.3922C29.544 27.5042 29.5338 27.6196 29.541 27.7347C29.5379 27.8284 29.5047 27.9186 29.4464 27.992C29.2913 28.2076 29.1456 28.4309 28.9905 28.6484C28.896 28.7857 28.7917 28.916 28.6783 29.0382C28.5973 29.135 28.4967 29.2136 28.3832 29.269C28.3683 29.2739 28.3545 29.2817 28.3426 29.292C28.3308 29.3023 28.3212 29.3149 28.3143 29.329C28.3074 29.3432 28.3034 29.3585 28.3026 29.3742C28.3018 29.3899 28.3041 29.4056 28.3094 29.4203C28.3227 29.5017 28.3321 29.5849 28.3454 29.6682C28.3618 29.7326 28.3534 29.8008 28.3219 29.8594C28.2904 29.9179 28.238 29.9624 28.1751 29.9841C28.1484 29.9941 28.1244 30.0101 28.1047 30.0307C28.085 30.0513 28.0703 30.0762 28.0616 30.1033C28.0527 30.1343 28.0322 30.1606 28.0044 30.1769C27.9765 30.1931 27.9435 30.1979 27.9121 30.1903C27.861 30.1903 27.8081 30.1903 27.757 30.1809C27.5527 30.1592 27.3465 30.1946 27.161 30.283C27.1323 30.2996 27.0997 30.3084 27.0665 30.3084C27.0332 30.3084 27.0006 30.2996 26.9719 30.283C26.9075 30.2471 26.8338 30.2282 26.7694 30.196C26.6709 30.1457 26.5592 30.1272 26.4497 30.143C26.3502 30.1595 26.248 30.1426 26.1591 30.0951C26.0702 30.0475 25.9994 29.9719 25.9578 29.8801C25.8495 29.6659 25.7229 29.4614 25.5794 29.269C25.3836 29.0233 25.1444 28.8156 24.8738 28.656C24.8114 28.6163 24.7205 28.5822 24.7546 28.4971C24.7886 28.412 24.8076 28.3079 24.9173 28.2852C25.0838 28.2398 25.2465 28.183 25.4149 28.1471C25.6043 28.1202 25.7972 28.1312 25.9824 28.1792C26.0125 28.1872 26.0404 28.2021 26.0638 28.2228C26.1421 28.2846 26.2304 28.3326 26.3248 28.3647C26.4417 28.3936 26.5521 28.4443 26.6503 28.5141C26.6786 28.5406 26.7203 28.5274 26.7562 28.5311C27.0298 28.574 27.308 28.5791 27.5829 28.5463C27.6765 28.534 27.7713 28.534 27.8648 28.5463C28.0181 28.5595 28.0446 28.5236 27.9954 28.3836C27.9632 28.2873 27.9113 28.1989 27.8428 28.1239C27.7744 28.049 27.691 27.9892 27.5981 27.9484C27.432 27.8699 27.246 27.8436 27.0646 27.8728C26.9249 27.9007 26.78 27.8842 26.6503 27.8255C26.6347 27.8155 26.6174 27.8087 26.5992 27.8054C26.581 27.8022 26.5623 27.8026 26.5443 27.8066C26.4728 27.8251 26.3975 27.8236 26.3268 27.8022C26.2561 27.7809 26.1925 27.7405 26.1432 27.6855C26.0674 27.6257 26.0047 27.5511 25.9588 27.4662C25.9129 27.3813 25.8849 27.2878 25.8765 27.1917C25.8729 27.175 25.8728 27.1578 25.876 27.1411C25.8792 27.1243 25.8858 27.1084 25.8954 27.0943C25.9049 27.0802 25.9172 27.0681 25.9315 27.0588C25.9458 27.0496 25.9618 27.0433 25.9786 27.0403C26.2113 26.9817 26.4459 26.9193 26.6805 26.8663C26.7846 26.8417 26.847 26.9193 26.8224 27.0252C26.8224 27.0498 26.8016 27.0725 26.7959 27.099C26.7935 27.1172 26.7967 27.1356 26.8052 27.1519C26.8137 27.1681 26.8269 27.1814 26.8432 27.1898C26.8574 27.1978 26.8739 27.2005 26.8899 27.1974C26.9058 27.1943 26.9202 27.1855 26.9302 27.1728C27.0411 27.056 27.1412 26.9293 27.2292 26.7944C27.2379 26.7811 27.2413 26.765 27.2389 26.7493C27.2365 26.7336 27.2283 26.7193 27.2159 26.7093C27.1769 26.659 27.1224 26.6231 27.0608 26.6071C26.9006 26.5811 26.7443 26.5353 26.5954 26.4709C26.4956 26.4396 26.3887 26.4396 26.2889 26.4709C26.2624 26.4709 26.2378 26.4841 26.2132 26.4936C26.0455 26.5508 25.8701 26.5821 25.693 26.5863C25.3958 26.6153 25.1015 26.6691 24.8132 26.7471C24.7111 26.7698 24.6089 26.7925 24.5087 26.8247C24.2439 26.8947 23.9655 26.8947 23.7008 26.8247C23.5266 26.7945 23.3498 26.7812 23.173 26.7849C23.1465 26.7868 23.12 26.7868 23.0935 26.7849C22.9762 26.766 22.9384 26.679 23.0084 26.5825C23.0403 26.534 23.0814 26.4922 23.1295 26.4595C23.1711 26.437 23.2045 26.4017 23.2246 26.3587C23.2447 26.3158 23.2505 26.2676 23.2411 26.2212C23.2411 26.1587 23.2411 26.0944 23.2297 26.032C23.2153 25.928 23.2318 25.8221 23.277 25.7274C23.3142 25.6291 23.3278 25.5235 23.3168 25.419C23.3104 25.3305 23.3193 25.2415 23.3433 25.156C23.3811 25.0633 23.3962 25.0577 23.4889 25.0936C23.5816 25.1296 23.6781 25.1106 23.697 24.9896C23.697 24.9536 23.716 24.9196 23.7254 24.8836C23.7537 24.8094 23.758 24.7282 23.7377 24.6515C23.7173 24.5748 23.6733 24.5064 23.6119 24.456C23.6003 24.4498 23.5901 24.4412 23.5819 24.4308C23.5737 24.4205 23.5678 24.4085 23.5644 24.3957C23.561 24.383 23.5603 24.3696 23.5623 24.3566C23.5643 24.3435 23.5689 24.331 23.576 24.3198C23.7651 23.9698 23.6951 23.6293 23.5324 23.2982C23.5078 23.2476 23.4936 23.1925 23.4907 23.1363C23.4878 23.0801 23.4962 23.0238 23.5154 22.9709C23.6006 22.6853 23.7046 22.4034 23.7727 22.1177C23.8423 21.8976 23.9652 21.6982 24.1303 21.5369C24.2141 21.4642 24.3187 21.4198 24.4292 21.4101C24.5003 21.3932 24.5699 21.3704 24.6373 21.342C24.6373 21.342 24.6922 21.3231 24.7924 21.3004C24.9434 21.2816 25.0966 21.2939 25.2427 21.3363C25.5719 21.4328 26.4005 21.1264 26.4932 20.7234C26.6162 20.1804 25.4792 19.261 24.8359 19.4823Z" fill="white"/>
<path d="M44.1879 38.2346C44.1879 38.2346 44.1879 38.2346 44.1747 38.2346C44.169 38.2372 44.1629 38.2386 44.1567 38.2386C44.1505 38.2386 44.1443 38.2372 44.1387 38.2346C44.1251 38.2256 44.1138 38.2134 44.1061 38.199C44.0983 38.1847 44.0942 38.1686 44.0942 38.1523C44.0942 38.1359 44.0983 38.1199 44.1061 38.1055C44.1138 38.0911 44.1251 38.0789 44.1387 38.07C44.1766 38.041 44.2021 37.9988 44.2102 37.9517C44.2183 37.9047 44.2083 37.8564 44.1822 37.8164C44.1291 37.7077 44.0988 37.5892 44.0933 37.4684C44.0808 37.3721 44.0932 37.2743 44.1293 37.1842C44.1654 37.0941 44.224 37.0147 44.2995 36.9538C44.4355 36.8491 44.5564 36.7262 44.659 36.5886C44.6893 36.5451 44.6987 36.5167 44.659 36.4694C44.5808 36.3876 44.5253 36.2868 44.4981 36.177C44.4709 36.0671 44.4729 35.9521 44.5038 35.8432C44.519 35.76 44.5417 35.6786 44.5625 35.5935C44.5634 35.5889 44.563 35.5841 44.5614 35.5797C44.5597 35.5754 44.5568 35.5716 44.553 35.5688C44.5492 35.566 44.5447 35.5643 44.54 35.564C44.5353 35.5637 44.5307 35.5648 44.5266 35.567C44.5144 35.5748 44.5018 35.5817 44.4887 35.5878C44.4842 35.589 44.4795 35.5888 44.4751 35.5874C44.4707 35.5859 44.4668 35.5833 44.4638 35.5797C44.4609 35.5762 44.4589 35.5718 44.4583 35.5673C44.4577 35.5627 44.4584 35.558 44.4603 35.5538C44.5549 35.3646 44.6495 35.1754 44.7271 34.973C44.8047 34.7705 44.9163 34.5946 44.9901 34.3827C44.9913 34.3786 44.9937 34.3748 44.9968 34.3719C45 34.3689 45.0039 34.3669 45.0081 34.3659C45.0123 34.365 45.0168 34.3651 45.0209 34.3664C45.025 34.3677 45.0287 34.3701 45.0317 34.3733C45.1319 34.483 45.1887 34.6154 45.2947 34.7138C45.297 34.7166 45.2998 34.7188 45.3031 34.7203C45.3064 34.7219 45.31 34.7227 45.3136 34.7227C45.3172 34.7227 45.3207 34.7219 45.324 34.7203C45.3273 34.7188 45.3302 34.7166 45.3325 34.7138C45.5822 34.3505 45.8357 33.9987 46.0722 33.6354C46.0913 33.6106 46.1003 33.5795 46.0975 33.5483C46.0947 33.5171 46.0802 33.4881 46.0571 33.467C45.9444 33.3287 45.7948 33.2251 45.6257 33.1681C45.4025 33.0943 45.3798 32.9789 45.2644 32.7765C45.2547 32.7678 45.2475 32.7569 45.2432 32.7447C45.2388 32.7324 45.2377 32.7193 45.2398 32.7065C45.2418 32.6937 45.2471 32.6816 45.255 32.6714C45.2629 32.6612 45.2733 32.6531 45.2852 32.6479C45.5784 32.4454 45.7336 32.2695 46.0798 32.1617C46.1706 32.1352 46.269 32.1162 46.3541 32.0917C46.4728 32.0656 46.5786 31.9986 46.653 31.9025C46.755 31.7835 46.8276 31.6422 46.8649 31.49C46.8707 31.4647 46.8817 31.4409 46.8971 31.42C47.143 31.0417 47.3568 30.6519 47.6084 30.2849C47.6636 30.2088 47.7094 30.1262 47.7446 30.039C47.8676 29.6946 48.4654 29.583 48.7606 29.8176C48.8581 29.8887 48.9373 29.9821 48.9914 30.0901C49.0893 30.2825 49.2328 30.4482 49.4095 30.5725C49.5173 30.6557 49.6138 30.7617 49.716 30.8411C49.7568 30.8736 49.7878 30.9169 49.8055 30.966C49.8232 31.0151 49.8269 31.0681 49.8162 31.1192C49.8049 31.1968 49.7973 31.2744 49.7803 31.35C49.7396 31.6078 49.732 31.8698 49.7576 32.1295C49.7732 32.3488 49.7534 32.5692 49.6989 32.7822C49.679 32.8687 49.679 32.9586 49.6989 33.0452C49.7334 33.2639 49.7039 33.488 49.6138 33.6903C49.5305 33.8795 49.4492 34.0687 49.3678 34.2692C49.3437 34.3271 49.3069 34.3788 49.26 34.4205C49.0629 34.6381 48.8275 34.8176 48.5657 34.9503C48.5354 34.9616 48.5052 34.9768 48.5014 35.0127C48.4806 35.1641 48.3973 35.2965 48.3746 35.4478C48.3652 35.5159 48.3595 35.5822 48.3538 35.6503C48.3556 35.7019 48.3418 35.7528 48.3141 35.7964C48.2864 35.8399 48.2462 35.8741 48.1987 35.8943C47.9137 36.0219 47.686 36.2503 47.5592 36.5357C47.4249 36.8024 47.3303 37.0881 47.1903 37.3492C47.0468 37.6548 46.9273 37.971 46.8327 38.2951C46.7264 38.5951 46.6417 38.9024 46.5792 39.2145C46.5202 39.4644 46.4246 39.7041 46.2954 39.9259C46.1952 40.1151 46.0911 40.2891 45.9871 40.4689C45.8153 40.7386 45.5976 40.9761 45.3438 41.1707C45.1896 41.2968 45.0258 41.4107 44.8538 41.5113C44.6271 41.6495 44.361 41.7087 44.0971 41.6797C43.8983 41.6711 43.7016 41.6355 43.5125 41.5737C43.4503 41.5468 43.394 41.5078 43.347 41.459C43.3 41.4101 43.2632 41.3524 43.2387 41.2892C43.2142 41.226 43.2026 41.1585 43.2044 41.0908C43.2063 41.023 43.2216 40.9563 43.2495 40.8945C43.3536 40.7053 43.4198 40.501 43.5144 40.3081C43.6771 39.9808 43.8303 39.6478 43.9836 39.3167C44.0479 39.1748 44.1028 39.0291 44.1728 38.8873C44.198 38.8429 44.2053 38.7907 44.1934 38.7411C44.1814 38.6916 44.1511 38.6485 44.1084 38.6205C43.9968 38.5448 44.0403 38.4313 44.0309 38.3348C44.0294 38.328 44.0294 38.3209 44.0309 38.314C44.046 38.2837 44.1009 38.2819 44.1274 38.2819C44.133 38.2573 44.1841 38.2478 44.1879 38.2346Z" fill="white"/>
<path d="M45.0468 32.803C45.0279 32.89 45.0109 32.977 44.9844 33.0622C44.9477 33.1595 44.9007 33.2528 44.8444 33.3403C44.6136 33.7186 44.2768 34.0213 43.9911 34.36C43.8734 34.4931 43.7665 34.6355 43.6714 34.7857C43.6479 34.8207 43.6294 34.8589 43.6166 34.8992C43.6159 34.9169 43.6116 34.9342 43.6038 34.9502C43.5961 34.9661 43.5851 34.9802 43.5715 34.9916C43.558 35.003 43.5422 35.0115 43.5252 35.0164C43.5082 35.0213 43.4903 35.0226 43.4728 35.0202C43.3998 35.0314 43.333 35.0675 43.2836 35.1224C43.2094 35.1894 43.1243 35.2432 43.032 35.2813C42.9317 35.3173 42.9071 35.3002 42.9147 35.1981C42.9182 35.1204 42.9315 35.0435 42.9544 34.9692C43.0533 34.6314 43.1798 34.3024 43.3328 33.9854C43.469 33.713 43.5617 33.4178 43.6998 33.153C43.8644 32.8332 43.993 32.4927 44.1652 32.1787C44.4135 31.7195 44.7137 31.2903 45.0601 30.8997C45.161 30.7793 45.269 30.6649 45.3836 30.5573C45.4055 30.5356 45.4289 30.5154 45.4536 30.4968C45.5008 30.4665 45.5425 30.4854 45.5368 30.5384C45.5307 30.9806 45.3798 31.4085 45.1073 31.7568C45.001 31.8628 44.9357 32.003 44.9229 32.1526C44.9101 32.3022 44.9506 32.4515 45.0373 32.5741C45.0472 32.5929 45.0554 32.6125 45.0619 32.6327C45.0941 32.6914 45.0487 32.7462 45.0468 32.803Z" fill="white"/>
<path d="M41.3444 38.9988C41.3241 39.0665 41.2847 39.127 41.2309 39.1729C41.072 39.3261 40.915 39.4793 40.7542 39.6269C40.6293 39.7317 40.4825 39.8074 40.3247 39.8483C40.1769 39.8837 40.0262 39.9058 39.8744 39.9145C39.7956 39.9201 39.7175 39.8965 39.655 39.8483C39.6287 39.8331 39.6061 39.8124 39.5885 39.7877C39.5709 39.763 39.5589 39.7348 39.5531 39.705C39.5474 39.6753 39.5481 39.6446 39.5552 39.6151C39.5624 39.5857 39.5757 39.5581 39.5944 39.5342C39.672 39.4169 39.7836 39.3223 39.8461 39.1956C39.8712 39.1507 39.8891 39.1022 39.899 39.0518C39.9482 38.7699 40.0012 38.4842 40.0523 38.2042C40.0536 38.1527 40.0655 38.1019 40.0872 38.0551C40.1089 38.0083 40.1399 37.9665 40.1783 37.9321C40.2168 37.8977 40.2618 37.8716 40.3108 37.8553C40.3597 37.8389 40.4114 37.8328 40.4628 37.8372C40.6766 37.8372 40.8904 37.8221 41.1041 37.8183C41.2271 37.8183 41.2366 37.8183 41.2271 37.9394C41.2238 38.1699 41.2663 38.3988 41.352 38.6129C41.3855 38.6719 41.4024 38.739 41.4011 38.8069C41.3998 38.8748 41.3802 38.9411 41.3444 38.9988Z" fill="white"/>
<path d="M23.0765 32.9221L23.067 32.9316C23.028 32.9584 22.9853 32.9794 22.9403 32.994C22.8778 33.0167 22.7795 33.0129 22.8022 32.9448C22.8031 32.9386 22.8031 32.9322 22.8022 32.9259H22.8173C22.9003 32.893 22.9925 32.8916 23.0765 32.9221Z" fill="white"/>
</svg>
