<svg width="360" height="322" viewBox="0 0 360 322" fill="none" xmlns="http://www.w3.org/2000/svg">
<g style="mix-blend-mode:soft-light">
<path d="M523.682 316.602C530.436 368.959 528.228 418.69 515.807 461.202C506.154 494.125 490.633 523.309 466.113 539.887C441.593 556.466 407.269 559.264 372.442 541.379C305.208 506.828 260.192 413.06 233.984 332.394C200.489 229.339 179.405 123.212 191.943 34.28C204.48 -54.6519 255.219 -123.631 333.954 -126.73C404.699 -129.523 485.982 -81.331 562.423 -59.6519C631.234 -40.1434 695.957 -42.2141 762.987 -32.8828C830.017 -23.5515 903.817 -0.0033541 967.551 59.5525C1031.29 119.108 1078.59 222.878 1056.17 286.028" stroke="#6C7983" stroke-miterlimit="10"/>
<path d="M521.115 318.331C524.249 346.881 524.584 374.483 522.111 400.601C520.163 421.096 516.335 440.485 510.683 458.49C500.443 490.972 484.163 519.264 459.289 535.179C434.804 550.834 401.063 553.376 366.743 535.594C302.154 502.153 258.082 413.898 232.015 335.753C231.352 333.761 230.689 331.768 230.047 329.778C197.115 228.219 177.206 123.811 190.816 37.2365C199.682 -19.1896 224.707 -66.6036 262.206 -94.2035C282.811 -109.374 307.296 -118.537 335.056 -119.793C358.499 -120.881 382.983 -116.593 407.971 -109.779C458.126 -96.1057 510.105 -72.2514 560.147 -59.6106C583.489 -53.7081 606.39 -50.2632 629.15 -47.895C672.227 -43.401 714.84 -42.6705 758.547 -36.7685C803.038 -30.752 850.563 -18.2143 896.175 6.96641C919.083 19.4381 941.53 35.7443 962.673 55.2725C1026.33 114.569 1073.76 217.31 1053.18 280.983" stroke="#6F7C85" stroke-miterlimit="10"/>
<path d="M518.454 320.151C520.854 347.383 520.675 373.67 517.921 398.546C515.671 418.881 511.525 438.064 505.544 455.818C494.702 487.837 477.692 515.266 452.449 530.495C428.015 545.233 394.843 547.497 361.057 529.877C297.423 496.678 253.691 410.106 228.049 333.109C227.393 331.138 226.75 329.179 226.122 327.231C193.754 227.168 175.021 124.463 189.646 40.2986C199.284 -15.1974 225.335 -60.9547 263.178 -87.6984C283.943 -102.659 308.702 -111.179 336.114 -112.798C359.423 -114.019 383.721 -110.174 408.405 -104.055C457.916 -91.8121 508.752 -70.3331 557.827 -59.5108C580.724 -54.4483 603.207 -51.7359 625.661 -49.9217C668.14 -46.529 710.503 -46.2945 754.091 -40.6451C798.429 -34.8741 845.848 -22.3942 891.366 2.81391C914.212 15.2991 936.599 31.5676 957.702 51.0201C1021.24 110.107 1068.85 211.792 1050.1 275.903" stroke="#738189" stroke-miterlimit="10"/>
<path d="M515.672 321.907C517.398 347.82 516.765 372.806 513.782 396.46C511.221 416.632 506.754 435.612 500.448 453.118C489.027 484.677 471.272 511.236 445.653 525.784C421.282 539.628 388.666 541.607 355.407 524.123C292.728 491.165 249.349 406.266 224.119 330.425C223.472 328.49 222.836 326.558 222.213 324.629C190.415 226.057 172.886 125.068 188.526 43.2818C198.958 -11.2663 226.022 -55.3576 264.217 -81.2653C285.199 -95.7168 309.928 -104.025 337.186 -105.78C360.383 -107.149 384.48 -103.737 408.846 -98.3197C457.749 -87.4674 507.44 -68.348 555.535 -59.3822C577.967 -55.1775 600.046 -53.1754 622.179 -51.9375C664.074 -49.6238 706.172 -49.8919 749.564 -44.461C793.755 -38.9245 841.06 -26.4664 886.534 -1.21547C909.342 11.2451 931.695 27.4624 952.779 46.8456C1016.21 105.691 1063.98 206.324 1047.07 271.042" stroke="#76838B" stroke-miterlimit="10"/>
<path d="M512.755 323.638C513.864 348.244 512.814 371.943 509.621 394.387C506.751 414.394 501.966 433.168 495.338 450.428C483.294 481.538 464.837 507.215 438.835 521.086C414.542 534.043 382.475 535.725 349.7 518.389C288.012 485.65 244.93 402.414 220.161 327.745C219.518 325.833 218.875 323.889 218.289 322.035C187.062 224.954 170.751 125.704 187.378 46.2674C198.604 -7.34844 226.686 -49.7627 265.219 -74.8254C286.433 -88.8065 311.168 -96.919 338.316 -98.799C361.387 -100.322 385.29 -97.3479 409.337 -92.6164C457.625 -83.1811 506.102 -66.4703 553.28 -59.3076C575.245 -55.9606 596.934 -54.6622 618.748 -54.0005C660.044 -52.7724 701.885 -53.5321 745.13 -48.3355C789.168 -43.0604 836.365 -30.5972 881.733 -5.40396C904.483 7.05073 926.778 23.2323 947.815 42.5572C1011.13 101.165 1059.08 200.754 1044 265.977" stroke="#7A878E" stroke-miterlimit="10"/>
<path d="M509.716 325.337C510.268 348.648 508.841 371.077 505.453 392.319C502.293 412.182 497.198 430.767 490.249 447.787C477.611 478.445 458.444 503.261 432.045 516.433C407.817 528.48 376.304 529.893 344.079 512.664C283.289 480.139 240.559 398.64 216.202 325.064C215.58 323.185 214.958 321.307 214.365 319.442C183.73 223.854 168.631 126.332 186.244 49.2755C198.285 -3.39036 227.336 -44.1273 266.235 -68.3787C287.668 -81.8714 312.388 -89.7961 339.396 -91.8329C362.355 -93.5028 386.057 -90.9626 409.807 -86.9307C457.466 -78.8878 504.827 -64.5548 550.975 -59.2483C572.509 -56.719 593.774 -56.1642 615.274 -56.0834C655.985 -55.9343 697.563 -57.1967 740.682 -52.2011C784.566 -47.1559 831.649 -34.7144 876.932 -9.5297C899.627 2.92476 921.87 19.0648 942.872 38.3179C1006.05 96.6558 1054.2 195.233 1040.93 260.997" stroke="#7E8A8F" stroke-miterlimit="10"/>
<path d="M506.563 326.998C506.584 349.01 504.819 370.179 501.292 390.247C497.811 409.934 492.386 428.299 485.103 445.056C471.835 475.27 452.002 499.214 425.199 511.691C401.069 522.931 370.078 523.955 338.372 506.867C278.538 474.584 236.196 394.799 212.244 322.383C211.629 320.531 211.028 318.686 210.441 316.848C180.348 222.77 166.539 126.972 185.103 52.2722C197.981 0.542869 228.022 -38.5459 267.245 -61.9276C288.894 -74.9362 313.605 -82.6722 340.483 -84.8558C363.308 -86.7064 386.823 -84.5617 410.248 -81.227C457.313 -74.5834 503.481 -62.6883 548.719 -59.1109C569.794 -57.4282 590.647 -57.5949 611.827 -58.0746C651.933 -59.0223 693.226 -60.8365 736.198 -56.0597C779.936 -51.2646 826.904 -38.8293 872.095 -13.6956C894.74 -1.25398 916.935 14.8441 937.901 34.034C1000.98 92.1843 1049.31 189.658 1037.88 255.935" stroke="#828D91" stroke-miterlimit="10"/>
<path d="M503.312 328.581C502.874 349.318 500.818 369.248 497.167 388.151C493.377 407.678 487.637 425.841 480.036 442.354C466.189 472.091 445.646 495.222 418.424 506.982C394.408 517.343 363.93 518.063 332.737 501.119C273.843 469.118 231.819 390.982 208.286 319.718C207.684 317.904 207.09 316.086 206.517 314.27C176.995 221.699 164.468 127.631 183.969 55.2961C197.655 4.50559 228.687 -32.9195 268.261 -55.4652C290.121 -67.9932 314.823 -75.5454 341.57 -77.8785C364.311 -79.8317 387.619 -78.1789 410.718 -75.5257C457.154 -70.2902 502.164 -60.777 546.422 -59.0717C567.045 -58.2402 587.494 -59.1172 608.361 -60.1778C647.89 -62.2089 688.931 -64.4564 731.708 -59.9766C775.292 -55.4114 822.146 -42.9979 867.286 -17.8482C889.878 -5.39947 912.02 10.6623 932.951 29.7835C995.923 87.7036 1044.38 184.133 1034.82 250.919" stroke="#859094" stroke-miterlimit="10"/>
<path d="M499.867 330.145C499.018 349.627 496.709 368.343 492.963 386.106C488.867 405.471 482.806 423.425 474.876 439.68C460.406 468.921 439.217 491.259 411.563 502.296C387.681 511.843 357.688 512.197 327.016 495.378C269.127 463.602 227.435 387.154 204.334 317.033C203.732 315.235 203.159 313.45 202.586 311.665C173.641 220.581 162.418 128.276 182.82 58.2815C197.351 8.43868 229.351 -27.3248 269.263 -49.0254C291.334 -61.0572 316.028 -68.4159 342.643 -70.8924C365.272 -72.9929 388.342 -71.7509 411.167 -69.811C456.987 -65.9768 500.832 -58.8569 544.123 -58.9701C564.294 -58.9898 584.318 -60.5948 604.879 -62.225C643.795 -65.3327 684.63 -68.1033 727.238 -63.8443C770.676 -59.5293 817.409 -47.1331 862.477 -21.9853C885.021 -9.53704 907.118 6.49155 928.015 25.5553C990.876 83.2496 1039.51 178.623 1031.78 245.926" stroke="#899496" stroke-miterlimit="10"/>
<path d="M496.353 331.629C495.128 349.865 492.604 367.385 488.802 384.033C484.403 403.244 478.02 420.994 469.758 436.994C454.716 465.817 432.854 487.271 404.752 497.609C380.998 506.331 351.497 506.316 321.352 489.617C264.433 458.074 223.079 383.34 200.391 314.343C199.81 312.578 199.207 310.843 198.683 309.074C170.296 219.474 160.398 128.934 181.708 61.2604C197.09 12.3764 230.024 -21.7656 270.301 -42.5922C292.579 -54.1358 317.269 -61.3037 343.758 -63.9175C366.268 -66.1764 389.16 -65.3816 411.644 -64.1142C456.856 -61.6859 499.543 -56.9636 541.854 -58.9019C561.58 -59.7616 581.2 -62.0925 601.434 -64.2946C639.758 -68.4924 680.336 -71.7075 722.791 -67.7412C766.033 -63.723 812.7 -51.2704 857.684 -26.1468C880.169 -13.7138 902.21 2.26667 923.065 21.2579C985.809 78.7155 1034.62 173.044 1028.72 240.864" stroke="#8D989A" stroke-miterlimit="10"/>
<path d="M492.71 333.037C491.171 350.059 488.471 366.411 484.634 381.965C479.927 401.011 473.226 418.55 464.641 434.292C449.018 462.702 426.453 483.338 397.934 492.912C374.321 500.831 345.327 500.405 315.666 483.885C259.681 452.581 218.673 379.51 196.39 311.626C195.816 309.889 195.241 308.182 194.724 306.456C166.907 218.363 158.363 129.585 180.532 64.2328C196.793 16.3052 230.667 -16.1571 271.268 -36.1767C293.757 -47.221 318.448 -54.2002 344.81 -56.9647C367.2 -59.3664 389.891 -59.0051 412.064 -58.444C456.662 -57.4171 498.176 -55.0835 539.535 -58.8493C558.802 -60.5556 578.018 -63.5968 597.938 -66.364C635.671 -71.6519 675.964 -75.4031 718.279 -71.6287C761.437 -67.776 807.976 -55.3519 852.86 -30.2748C875.294 -17.8431 897.285 -1.90565 918.108 17.012C980.733 74.2326 1029.71 167.509 1025.65 235.857" stroke="#919B9C" stroke-miterlimit="10"/>
<path d="M488.955 334.361C487.15 350.194 484.316 365.407 480.473 379.893C475.462 398.778 468.444 416.11 459.538 431.598C443.3 459.522 420.081 479.402 391.131 488.205C367.666 495.333 339.114 494.537 310.003 478.124C254.958 447.07 214.296 375.693 192.459 308.99C191.899 307.291 191.339 305.591 190.821 303.896C163.533 217.243 156.405 130.313 179.412 67.2631C196.552 20.3076 231.36 -10.5175 272.32 -29.6742C295.011 -40.2502 319.707 -47.0595 345.954 -49.9767C368.232 -52.5256 390.729 -52.5867 412.584 -52.7273C456.573 -53.1064 496.909 -53.1725 537.308 -58.7456C556.123 -61.3031 574.928 -65.0657 594.528 -68.4092C631.663 -74.7827 671.705 -79.0299 713.867 -75.5012C756.85 -71.9118 803.254 -59.543 848.095 -34.4545C870.475 -22.0274 892.415 -6.13084 913.201 12.7188C975.723 69.7249 1024.84 161.89 1022.65 230.81" stroke="#949E9D" stroke-miterlimit="10"/>
<path d="M485.093 335.596C483.063 350.262 480.13 364.361 476.312 377.805C471.001 396.548 463.659 413.684 454.413 428.916C437.575 456.378 413.753 475.47 384.306 483.512C360.961 489.819 332.936 488.709 304.338 472.426C250.235 441.56 209.912 371.866 188.501 306.31C187.947 304.637 187.415 302.966 186.897 301.302C160.207 216.201 154.448 131.024 178.277 70.2712C196.34 24.3234 232.017 -4.918 273.315 -23.2454C296.209 -33.3001 320.907 -39.9002 347.026 -42.9433C369.192 -45.6395 391.488 -46.1342 413.038 -46.9542C456.398 -48.7256 495.583 -51.194 535.009 -58.5968C553.379 -61.9942 571.773 -66.4783 591.074 -70.3645C627.624 -77.817 667.395 -82.5624 709.417 -79.2726C752.247 -75.9289 798.537 -63.5661 843.285 -38.4816C865.597 -26.0917 887.475 -10.2651 908.215 8.49095C970.619 65.2603 1019.94 156.429 1019.55 225.806" stroke="#98A1A0" stroke-miterlimit="10"/>
<path d="M481.119 336.746C478.912 350.287 475.912 363.309 472.137 375.741C466.515 394.324 458.854 411.254 449.289 426.235C431.856 453.245 407.402 471.568 377.481 478.819C354.347 484.419 326.688 482.785 298.639 466.64C245.511 436.049 205.514 368.015 184.543 303.629C184.01 301.989 183.492 300.341 182.973 298.708C156.832 215.128 152.505 131.742 177.136 73.2679C196.086 28.2563 232.689 0.68793 274.332 -16.7989C297.413 -26.3702 322.108 -32.7943 348.099 -35.9886C370.153 -38.832 392.241 -39.7715 413.466 -41.3044C456.211 -44.4772 494.238 -49.3276 532.704 -58.5533C550.608 -62.7928 568.591 -68.014 587.558 -72.4989C623.523 -81.0147 663.03 -86.2784 704.892 -83.2297C747.575 -80.1204 793.751 -67.7795 838.42 -42.708C860.697 -30.2911 882.537 -14.4722 903.251 4.24941C965.536 60.7819 1015.06 150.877 1016.46 220.777" stroke="#9CA4A2" stroke-miterlimit="10"/>
<path d="M477.045 337.787C474.702 350.231 471.673 362.211 467.976 373.668C462.046 392.094 454.067 408.818 444.179 423.545C426.137 450.096 401.072 467.683 370.691 474.166C347.705 478.991 320.511 476.895 292.967 460.9C240.81 430.54 201.165 364.228 180.598 300.97C180.065 299.347 179.575 297.727 179.049 296.131C153.508 214.023 150.604 132.496 176.002 76.276C195.888 32.2631 233.326 6.25405 275.341 -10.3476C298.618 -19.4223 323.321 -25.6615 349.193 -29.0001C371.127 -31.9863 393.015 -33.3592 413.929 -35.5828C454.158 -39.7992 493.066 -47.4444 530.413 -58.4716C547.865 -63.5623 565.437 -69.5049 584.098 -74.5438C619.43 -84.2166 658.715 -89.916 700.43 -87.1018C742.98 -84.2046 789.013 -71.9145 833.611 -46.8448C855.834 -34.4394 877.623 -18.6664 898.301 -0.0165927C960.475 56.2902 1010.14 145.363 1013.42 215.784" stroke="#9FA8A5" stroke-miterlimit="10"/>
<path d="M472.881 338.73C470.442 350.118 467.413 361.09 463.808 371.6C457.558 389.851 449.248 406.351 439.026 420.803C420.391 446.903 394.715 463.754 363.86 469.368C341.092 473.512 314.328 470.962 287.318 455.114C236.115 425.012 196.816 360.377 176.669 298.256C176.15 296.67 175.681 295.069 175.154 293.503C150.149 212.847 148.747 133.223 174.89 79.239C195.719 36.2359 234.062 11.8822 276.387 -3.93483C299.432 -12.6016 324.521 -18.3533 350.309 -22.0567C372.131 -25.1901 393.818 -26.9966 414.421 -29.9108C455.914 -35.8885 491.611 -45.5723 528.158 -58.4126C545.144 -64.3768 562.334 -70.9962 580.667 -76.6225C615.428 -87.3363 654.435 -93.5764 695.989 -91.0032C738.329 -88.3626 784.283 -76.0384 828.795 -50.993C850.967 -38.5892 872.708 -22.8534 893.351 -4.26709C955.414 51.814 1005.25 139.819 1010.36 210.769" stroke="#A3ABA7" stroke-miterlimit="10"/>
<path d="M468.618 339.548C466.118 349.902 463.151 359.927 459.647 369.528C453.112 387.655 444.499 403.981 433.965 418.207C414.728 443.843 388.455 459.996 357.048 464.76C334.47 468.196 308.142 465.17 281.625 449.418C231.37 419.546 192.417 356.606 172.696 295.631C172.183 294.072 171.699 292.527 171.222 290.977C146.823 211.805 146.846 134.024 173.713 82.2585C195.513 40.2785 234.719 17.4817 277.36 2.53895C300.584 -5.665 325.713 -11.1772 351.36 -15.0568C373.07 -18.3376 394.556 -20.5776 414.84 -24.1935C455.74 -31.5705 490.271 -43.6161 525.846 -58.3018C542.393 -65.0791 559.151 -72.4534 577.171 -78.6605C611.334 -90.4599 650.084 -97.1915 691.491 -94.8528C733.713 -92.4804 779.546 -80.1734 823.994 -55.1344C846.111 -42.7373 867.798 -27.0404 888.4 -8.51751C950.346 47.3268 1000.34 134.253 1007.33 205.74" stroke="#A6AEAA" stroke-miterlimit="10"/>
<path d="M464.278 340.243C461.753 349.629 458.826 358.708 455.5 367.477C448.647 385.436 439.707 401.544 428.847 415.505C409.01 440.695 382.146 456.161 350.209 460.029C327.799 462.769 301.881 459.192 275.919 443.637C226.619 413.991 188.012 352.744 168.709 292.906C168.218 291.38 167.733 289.851 167.27 288.339C143.42 210.718 144.994 134.809 172.572 85.2553C195.351 44.3097 235.348 23.0993 278.369 8.97453C301.758 1.22673 326.94 -4.03944 352.447 -8.0796C374.031 -11.5142 395.323 -14.1924 415.289 -18.4944C455.573 -27.2728 488.932 -41.707 523.533 -58.2379C539.629 -65.8664 556.017 -73.8952 573.682 -80.7344C607.261 -93.6128 645.747 -100.847 686.972 -98.7829C729.09 -96.5936 774.794 -84.2995 819.192 -59.2602C841.253 -46.8705 862.887 -31.2182 883.45 -12.7679C945.278 42.8395 995.461 128.701 1004.24 200.727" stroke="#ABB2AC" stroke-miterlimit="10"/>
<path d="M459.847 340.824C457.355 349.279 454.512 357.466 451.317 365.387C444.147 383.197 434.879 399.105 423.687 412.815C403.248 437.542 375.801 452.348 343.369 455.361C321.184 457.416 295.695 453.385 270.218 437.914C221.903 408.491 183.634 348.928 164.729 290.254C164.244 288.756 163.773 287.264 163.324 285.774C140.045 209.645 143.149 135.668 171.409 88.2813C195.194 48.399 235.998 28.7345 279.357 15.4547C302.939 8.16067 328.146 3.14313 353.512 -1.07328C374.983 -4.65517 396.068 -7.76236 415.737 -12.764C455.399 -22.9549 487.593 -39.7823 521.242 -58.1094C536.886 -66.589 552.821 -75.4062 570.178 -82.721C603.151 -96.6961 641.387 -104.426 682.48 -102.559C724.402 -100.682 770.013 -88.3919 814.304 -63.3788C836.316 -50.9905 857.903 -35.3769 878.435 -16.9935C940.152 38.3883 990.501 123.245 1001.12 195.752" stroke="#AFB6AF" stroke-miterlimit="10"/>
<path d="M455.354 341.274C452.904 348.848 450.193 356.212 447.157 363.314C439.69 380.963 430.11 396.656 418.599 410.095C397.588 434.357 369.541 448.544 336.587 450.641C314.599 452.03 289.547 447.507 264.505 432.106C217.116 402.943 179.194 345.073 160.736 287.517C160.265 286.057 159.808 284.588 159.365 283.125C136.657 208.503 141.313 136.459 170.233 91.2224C195.032 52.4145 236.62 34.2782 280.331 21.8345C304.078 15.0279 329.36 10.2273 354.564 5.84821C375.923 2.11905 396.807 -1.42162 416.157 -7.10934C455.211 -18.7062 486.241 -37.9267 518.952 -58.1061C534.144 -67.4211 549.668 -76.9598 566.734 -84.8846C599.123 -99.9387 637.095 -108.172 678.034 -106.55C719.803 -104.903 765.299 -92.6345 809.512 -67.6345C831.481 -55.2239 853.025 -39.6181 873.521 -21.2664C935.149 33.8761 985.65 117.691 998.072 190.732" stroke="#B3B8B0" stroke-miterlimit="10"/>
<path d="M450.784 341.6C448.423 348.337 445.82 354.888 442.974 361.255C435.197 378.751 425.295 394.24 413.46 407.423C391.826 431.251 363.231 444.818 329.741 445.961C307.992 446.688 283.334 441.608 258.92 426.389C212.485 397.467 174.895 341.27 156.87 284.872C156.398 283.427 155.956 281.996 155.52 280.56C133.382 207.429 139.624 137.36 169.184 94.2389C195.026 56.5501 237.378 39.9086 281.426 28.3099C305.351 21.9661 330.659 17.414 355.758 12.8831C376.998 9.01118 397.688 5.03243 416.72 -1.35705C455.158 -14.3396 485.03 -35.9579 516.739 -57.9488C531.486 -68.1195 546.599 -78.3638 563.352 -86.8538C595.989 -103.523 633.322 -111.47 673.649 -110.33C715.271 -108.934 760.654 -96.6715 804.787 -71.6846C826.693 -59.3076 848.178 -43.7753 868.636 -25.5262C930.13 29.4042 980.863 112.126 995.116 185.7" stroke="#B6BCB3" stroke-miterlimit="10"/>
<path d="M446.158 341.791C443.906 347.735 441.46 353.526 438.82 359.163C430.733 376.501 420.512 391.784 408.357 404.712C386.122 428.078 356.978 441.072 322.937 441.239C301.384 441.346 277.136 435.715 253.213 420.64C207.748 391.966 170.496 337.467 152.89 282.205C152.439 280.794 152.003 279.389 151.574 277.98C130.007 206.356 137.836 138.277 168.022 97.2493C194.926 60.6974 238.02 45.5327 282.421 34.77C306.511 28.8824 331.864 24.5809 356.809 19.8515C377.936 15.8323 398.419 11.4089 417.09 4.29771C454.934 -10.0528 483.613 -34.1088 514.362 -57.907C528.643 -68.9198 543.359 -79.8947 559.799 -88.9498C591.797 -106.648 628.848 -115.23 669.087 -114.265C710.556 -113.098 755.86 -100.88 799.886 -75.8724C821.741 -63.5057 843.178 -48.0153 863.601 -29.8321C924.955 24.875 975.833 106.543 991.96 180.623" stroke="#B9BFB5" stroke-miterlimit="10"/>
<path d="M441.492 341.883C439.379 347.076 437.104 352.149 434.666 357.101C426.267 374.286 415.724 389.364 403.247 402.038C380.396 424.965 350.702 437.386 316.126 436.552C294.783 436.032 270.937 429.838 247.541 414.899C203.025 386.455 166.126 333.661 148.96 279.506C148.517 278.122 148.094 276.755 147.686 275.379C126.646 205.258 136.09 139.198 166.867 100.224C194.847 64.8312 238.671 51.1054 283.416 41.1989C307.685 35.7741 333.092 31.7188 357.853 26.8245C378.876 22.6536 399.157 17.7965 417.567 10.0259C454.768 -5.77066 482.309 -32.1752 512.093 -57.8075C525.921 -69.6558 540.226 -81.3522 556.346 -90.9836C587.701 -109.692 624.474 -118.904 664.632 -118.11C705.982 -117.18 751.143 -104.95 795.148 -79.9448C816.951 -67.5771 838.339 -52.1239 858.728 -34.0068C919.987 20.4499 971.03 101.098 988.981 175.683" stroke="#BDC2B8" stroke-miterlimit="10"/>
<path d="M436.777 341.818C434.8 346.316 432.711 350.729 430.512 355.055C421.809 372.092 410.947 386.965 398.143 399.374C374.699 421.803 344.455 433.745 309.322 431.877C288.196 430.755 264.781 424.013 241.856 409.183C198.323 380.931 161.742 329.818 144.973 276.843C144.571 275.542 144.128 274.141 143.733 272.804C123.293 204.156 134.358 140.157 165.746 103.254C194.825 69.0542 239.357 56.7338 284.44 47.6567C308.887 42.7103 334.333 38.8945 358.976 33.8104C379.886 29.4922 399.96 24.2062 418.036 15.7428C454.623 -1.45512 480.999 -30.2528 509.815 -57.688C523.192 -70.3874 537.094 -82.8096 552.886 -93.0128C583.591 -112.729 620.087 -122.579 660.169 -121.967C701.323 -121.302 746.363 -109.09 790.282 -84.1084C812.02 -71.7655 833.345 -56.3715 853.686 -38.3397C914.841 15.9024 966.051 95.4992 985.84 170.596" stroke="#C0C5BB" stroke-miterlimit="10"/>
<path d="M432.051 341.606C430.246 345.468 428.346 349.245 426.352 352.936C417.334 369.812 406.152 384.478 393.034 396.637C368.995 418.63 338.186 430.071 302.534 427.115C281.617 425.395 258.591 418.021 236.229 403.352C193.608 375.384 157.401 325.947 141.051 274.108C140.628 272.789 140.233 271.483 139.867 270.19C119.99 203.053 132.69 141.107 164.663 106.23C194.86 73.2567 240.079 62.3239 285.507 54.0873C310.105 49.5747 335.625 46.0385 360.121 40.7671C380.911 36.3061 400.792 30.582 418.571 21.419C454.542 2.81968 479.761 -28.3757 507.611 -57.645C520.535 -71.1956 534.026 -84.3393 549.512 -95.1121C579.565 -115.818 615.788 -126.299 655.8 -125.866C696.743 -125.427 741.612 -113.247 785.496 -88.2746C807.193 -75.9228 828.48 -60.5503 848.793 -42.5636C909.83 11.4417 961.214 89.9824 982.834 165.596" stroke="#C5C9BC" stroke-miterlimit="10"/>
<path d="M427.247 341.302C425.623 344.554 423.935 347.748 422.183 350.883C412.854 367.609 401.351 382.07 387.909 393.971C363.276 415.512 331.909 426.479 295.687 422.466C274.972 420.155 252.356 412.183 230.521 397.649C188.855 369.923 152.98 322.173 137.063 271.493C136.654 270.196 136.252 268.894 135.857 267.588C116.587 201.982 130.921 142.135 163.45 109.21C194.78 77.5003 240.679 67.9125 286.452 60.5164C311.236 56.4935 336.781 53.1588 361.143 47.738C381.815 43.1186 401.494 36.9609 418.962 27.1073C454.318 7.10661 478.365 -26.4931 505.256 -57.5854C517.728 -71.9715 530.808 -85.8365 545.973 -97.17C575.35 -118.877 611.29 -130.007 651.231 -129.765C692.092 -129.569 736.91 -117.373 780.666 -92.4449C802.309 -80.0929 823.544 -64.7614 843.822 -46.8475C904.74 6.92102 956.291 84.4101 979.749 160.552" stroke="#C8CDBF" stroke-miterlimit="10"/>
<path d="M422.446 340.857C421.016 343.553 419.535 346.203 418.001 348.809C408.369 365.389 396.548 379.649 382.784 391.29C357.55 412.368 325.632 422.919 288.862 417.773C268.018 414.949 246.084 406.086 224.836 391.902C184.132 364.412 148.638 318.412 133.105 268.812C132.689 267.519 132.328 266.285 131.954 265.028C113.219 200.873 129.244 143.215 162.323 112.245C194.806 81.8329 241.351 73.55 287.475 67.0056C312.438 63.4455 338.023 60.3503 362.237 54.7578C382.796 49.9911 402.275 43.3999 419.425 32.8445C454.165 11.4424 477.025 -24.5212 502.978 -57.45C514.978 -72.7208 527.667 -87.2738 542.485 -99.2439C570.706 -121.911 606.885 -133.604 646.748 -133.655C687.462 -133.709 732.159 -121.531 775.836 -96.6154C797.442 -84.2572 818.641 -68.9486 838.893 -51.0801C899.728 2.50737 951.425 78.8956 976.721 155.565" stroke="#CCCFC1" stroke-miterlimit="10"/>
<path d="M417.632 340.28C416.396 342.466 415.14 344.619 413.84 346.736C403.902 363.155 391.769 377.203 377.696 388.586C351.861 409.217 319.39 419.368 282.066 413.062C261.464 409.553 239.959 400.35 219.179 386.152C179.438 358.883 144.226 314.524 129.168 266.118C128.745 264.83 128.412 263.655 128.052 262.42C109.888 199.773 127.553 144.304 161.204 115.228C194.854 86.152 242.023 79.1561 288.47 73.4658C313.604 70.373 339.229 67.5173 363.31 61.744C383.749 56.8346 403.027 49.8098 419.873 38.5593C453.999 15.7558 475.715 -22.6145 500.673 -57.3594C512.242 -73.4478 524.506 -88.7446 539.039 -101.235C566.667 -124.976 602.59 -137.177 642.292 -137.469C682.853 -137.769 727.449 -125.59 771.048 -100.687C792.584 -88.3468 813.718 -73.0964 833.921 -55.317C894.618 -1.99989 946.516 73.377 973.65 150.559" stroke="#CFD2C4" stroke-miterlimit="10"/>
<path d="M412.813 339.582C411.785 341.296 410.743 342.989 409.665 344.657C380.783 390.196 333.791 419.99 275.198 408.334C216.605 396.677 147.502 335.416 125.188 263.45C105.758 200.787 125.21 145.941 160.026 118.263C194.843 90.5855 242.687 84.7667 289.479 79.9012C336.271 75.0356 384.35 70.2664 420.336 44.2651C469.368 8.84581 490.656 -62.0288 535.579 -103.296C590.234 -153.493 680.121 -154.093 766.239 -104.84C852.357 -55.5873 931.989 41.987 970.601 145.539" stroke="#D3D6C7" stroke-miterlimit="10"/>
</g>
</svg>
