<svg width="360" height="352" viewBox="0 0 360 352" fill="none" xmlns="http://www.w3.org/2000/svg">
<mask id="mask0_107_185" style="mask-type:alpha" maskUnits="userSpaceOnUse" x="-28" y="0" width="443" height="352">
<rect x="-28" width="443" height="352" fill="#1E2F23"/>
</mask>
<g mask="url(#mask0_107_185)">
<g style="mix-blend-mode:soft-light">
<path d="M269.682 503.601C276.436 555.959 274.228 605.69 261.807 648.202C252.154 681.125 236.633 710.309 212.113 726.887C187.593 743.465 153.269 746.264 118.442 728.379C51.2081 693.828 6.19183 600.06 -20.0155 519.394C-53.5113 416.339 -74.5952 310.212 -62.0575 221.28C-49.5198 132.348 1.21907 63.3691 79.9539 60.2697C150.699 57.477 231.982 105.669 308.423 127.348C377.234 146.857 441.957 144.786 508.987 154.117C576.017 163.448 649.817 186.997 713.551 246.552C777.285 306.108 824.587 409.878 802.166 473.028" stroke="#6C7983" stroke-miterlimit="10"/>
<path d="M267.115 505.331C270.249 533.881 270.584 561.483 268.111 587.6C266.163 608.096 262.335 627.485 256.683 645.49C246.443 677.972 230.163 706.264 205.289 722.179C180.804 737.834 147.063 740.376 112.743 722.593C48.1537 689.153 4.08246 600.897 -21.985 522.753C-22.6482 520.761 -23.3115 518.768 -23.9533 516.778C-56.8855 415.219 -76.7938 310.811 -63.1835 224.236C-54.3183 167.81 -29.2928 120.396 8.20571 92.7964C28.8115 77.6256 53.2955 68.4628 81.0561 67.2066C104.499 66.1189 128.983 70.4068 153.971 77.2213C204.126 90.8942 256.105 114.749 306.147 127.389C329.489 133.292 352.39 136.737 375.15 139.105C418.227 143.599 460.84 144.329 504.547 150.231C549.038 156.248 596.563 168.786 642.175 193.966C665.083 206.438 687.53 222.744 708.673 242.272C772.326 301.569 819.758 404.31 799.182 467.983" stroke="#6F7C85" stroke-miterlimit="10"/>
<path d="M264.454 507.151C266.854 534.383 266.675 560.67 263.921 585.546C261.671 605.881 257.525 625.064 251.544 642.818C240.702 674.837 223.692 702.266 198.449 717.495C174.015 732.233 140.843 734.497 107.057 716.877C43.4229 683.678 -0.30946 597.106 -25.951 520.109C-26.6074 518.138 -27.2497 516.179 -27.8779 514.231C-60.2465 414.168 -78.9791 311.463 -64.3543 227.299C-54.7164 171.803 -28.6647 126.045 9.1783 99.3016C29.9431 84.3412 54.7015 75.8209 82.1141 74.202C105.423 72.9805 129.721 76.8259 154.405 82.9453C203.916 95.1879 254.752 116.667 303.827 127.489C326.724 132.552 349.207 135.264 371.661 137.078C414.14 140.471 456.503 140.705 500.091 146.355C544.429 152.126 591.848 164.606 637.366 189.814C660.212 202.299 682.599 218.568 703.702 238.02C767.243 297.107 814.849 398.792 796.105 462.903" stroke="#738189" stroke-miterlimit="10"/>
<path d="M261.672 508.907C263.398 534.82 262.765 559.806 259.782 583.46C257.221 603.632 252.754 622.612 246.448 640.118C235.027 671.677 217.272 698.236 191.653 712.784C167.282 726.628 134.666 728.607 101.407 711.123C38.7283 678.165 -4.65067 593.266 -29.8808 517.425C-30.5282 515.49 -31.1638 513.558 -31.7875 511.629C-63.5852 413.057 -81.1137 312.068 -65.4737 230.282C-55.042 175.734 -27.9785 131.642 10.2165 105.735C31.1991 91.2832 55.9283 82.9751 83.1862 81.2196C106.383 79.8509 130.48 83.2627 154.846 88.6803C203.749 99.5326 253.44 118.652 301.535 127.618C323.967 131.822 346.046 133.825 368.179 135.063C410.074 137.376 452.172 137.108 495.564 142.539C539.755 148.075 587.06 160.534 632.534 185.785C655.342 198.245 677.695 214.462 698.779 233.846C762.209 292.691 809.982 393.324 793.075 458.042" stroke="#76838B" stroke-miterlimit="10"/>
<path d="M258.755 510.638C259.864 535.244 258.814 558.943 255.621 581.387C252.751 601.394 247.966 620.168 241.338 637.428C229.294 668.537 210.837 694.215 184.835 708.086C160.542 721.043 128.475 722.725 95.6999 705.389C34.0124 672.65 -9.07034 589.414 -33.8392 514.745C-34.4822 512.833 -35.1247 510.889 -35.7114 509.035C-66.9383 411.954 -83.2487 312.704 -66.6219 233.267C-55.396 179.652 -27.3138 137.237 11.2188 112.175C32.4326 98.1934 57.1683 90.0809 84.316 88.2009C107.387 86.6783 131.29 89.652 155.337 94.3836C203.625 103.819 252.102 120.53 299.28 127.692C321.245 131.039 342.934 132.338 364.748 132.999C406.044 134.228 447.885 133.468 491.13 138.664C535.168 143.94 582.365 156.403 627.733 181.596C650.483 194.051 672.778 210.232 693.815 229.557C757.128 288.165 805.081 387.754 789.997 452.977" stroke="#7A878E" stroke-miterlimit="10"/>
<path d="M255.716 512.337C256.268 535.648 254.841 558.077 251.453 579.319C248.293 599.182 243.198 617.767 236.249 634.787C223.611 665.445 204.444 690.261 178.045 703.433C153.817 715.48 122.304 716.893 90.0785 699.663C29.2892 667.139 -13.4411 585.64 -37.7975 512.064C-38.4196 510.185 -39.0417 508.307 -39.6354 506.442C-70.27 410.854 -85.3692 313.332 -67.756 236.275C-55.7148 183.61 -26.6639 142.873 12.2353 118.621C33.6681 105.129 58.3876 97.2039 85.3961 95.167C108.355 93.4971 132.057 96.0373 155.807 100.069C203.466 108.112 250.827 122.445 296.975 127.752C318.509 130.281 339.774 130.836 361.274 130.917C401.985 131.066 443.563 129.803 486.682 134.799C530.566 139.844 577.649 152.286 622.932 177.47C645.627 189.925 667.87 206.065 688.872 225.318C752.046 283.656 800.2 382.233 786.933 447.997" stroke="#7E8A8F" stroke-miterlimit="10"/>
<path d="M252.563 513.998C252.584 536.01 250.819 557.179 247.292 577.247C243.811 596.934 238.386 615.299 231.103 632.056C217.835 662.27 198.002 686.214 171.199 698.691C147.069 709.931 116.078 710.955 84.3724 693.867C24.5382 661.584 -17.8037 581.799 -41.7559 509.383C-42.3712 507.531 -42.9724 505.686 -43.5593 503.848C-73.652 409.77 -87.4614 313.972 -68.8972 239.272C-56.019 187.543 -25.9775 148.454 13.2445 125.072C34.8942 112.064 59.605 104.328 86.483 102.144C109.308 100.294 132.823 102.438 156.248 105.773C203.313 112.417 249.481 124.312 294.719 127.889C315.794 129.572 336.647 129.405 357.827 128.925C397.933 127.978 439.226 126.164 482.198 130.94C525.936 135.735 572.904 148.171 618.095 173.304C640.74 185.746 662.935 201.844 683.901 221.034C746.977 279.184 795.306 376.658 783.877 442.935" stroke="#828D91" stroke-miterlimit="10"/>
<path d="M249.312 515.581C248.874 536.318 246.818 556.248 243.167 575.152C239.377 594.678 233.637 612.841 226.036 629.354C212.189 659.091 191.646 682.222 164.424 693.982C140.408 704.343 109.93 705.063 78.7371 688.119C19.843 656.118 -22.1809 577.982 -45.7144 506.718C-46.316 504.904 -46.9104 503.086 -47.4834 501.27C-77.0055 408.699 -89.5321 314.631 -70.0314 242.296C-56.3449 191.506 -25.3131 154.081 14.261 131.535C36.1214 119.007 60.823 111.455 87.5702 109.122C110.311 107.168 133.619 108.821 156.718 111.474C203.154 116.71 248.164 126.223 292.422 127.928C313.045 128.76 333.494 127.883 354.361 126.822C393.89 124.791 434.931 122.544 477.708 127.024C521.292 131.589 568.146 144.002 613.286 169.152C635.878 181.601 658.02 197.662 678.951 216.784C741.923 274.704 790.383 371.133 780.821 437.919" stroke="#859094" stroke-miterlimit="10"/>
<path d="M245.867 517.145C245.018 536.627 242.709 555.343 238.963 573.106C234.867 592.471 228.806 610.425 220.876 626.68C206.406 655.921 185.217 678.259 157.563 689.296C133.681 698.843 103.688 699.197 73.0156 682.378C15.127 650.602 -26.5653 574.154 -49.6657 504.033C-50.2676 502.235 -50.841 500.45 -51.4144 498.665C-80.3585 407.581 -91.5816 315.276 -71.1797 245.282C-56.6492 195.439 -24.6485 159.675 15.2631 137.975C37.3344 125.943 62.028 118.584 88.6426 116.108C111.272 114.007 134.342 115.249 157.167 117.189C202.987 121.023 246.832 128.143 290.123 128.03C310.294 128.01 330.318 126.405 350.879 124.775C389.795 121.667 430.63 118.897 473.238 123.156C516.676 127.471 563.409 139.867 608.477 165.015C631.021 177.463 653.118 193.492 674.015 212.555C736.876 270.25 785.51 365.623 777.778 432.926" stroke="#899496" stroke-miterlimit="10"/>
<path d="M242.353 518.629C241.128 536.865 238.604 554.385 234.802 571.033C230.403 590.244 224.02 607.994 215.758 623.994C200.716 652.817 178.854 674.272 150.752 684.609C126.998 693.331 97.4967 693.316 67.352 676.617C10.4329 645.074 -30.9209 570.34 -53.6095 501.343C-54.1904 499.578 -54.7932 497.843 -55.3168 496.074C-83.7042 406.474 -93.6022 315.934 -72.2917 248.26C-56.9103 199.376 -23.9758 165.234 16.3015 144.408C38.579 132.864 63.2695 125.696 89.7585 123.083C112.268 120.824 135.16 121.618 157.644 122.886C202.856 125.314 245.543 130.036 287.854 128.098C307.58 127.238 327.2 124.907 347.434 122.705C385.758 118.508 426.336 115.293 468.791 119.259C512.033 123.277 558.7 135.73 603.684 160.853C626.169 173.286 648.21 189.267 669.065 208.258C731.809 265.715 780.623 360.044 774.723 427.864" stroke="#8D989A" stroke-miterlimit="10"/>
<path d="M238.71 520.037C237.171 537.058 234.471 553.411 230.634 568.965C225.927 588.011 219.226 605.55 210.641 621.292C195.018 649.702 172.453 670.338 143.934 679.912C120.321 687.831 91.3272 687.405 61.6663 670.885C5.68085 639.581 -35.3266 566.51 -57.6102 498.626C-58.1843 496.889 -58.759 495.182 -59.2761 493.456C-87.093 405.363 -95.6372 316.585 -73.4682 251.233C-57.2071 203.305 -23.3328 170.843 17.2683 150.823C39.7575 139.779 64.448 132.8 90.8101 130.035C113.2 127.634 135.891 127.995 158.064 128.556C202.662 129.583 244.176 131.917 285.535 128.151C304.802 126.444 324.018 123.403 343.938 120.636C381.671 115.348 421.964 111.597 464.279 115.371C507.437 119.224 553.976 131.648 598.86 156.725C621.294 169.157 643.285 185.094 664.108 204.012C726.733 261.233 775.714 354.509 771.652 422.857" stroke="#919B9C" stroke-miterlimit="10"/>
<path d="M234.955 521.361C233.15 537.194 230.316 552.407 226.473 566.893C221.462 585.778 214.444 603.11 205.538 618.598C189.3 646.522 166.081 666.402 137.131 675.205C113.666 682.333 85.1141 681.537 56.0026 665.124C0.957707 634.07 -39.7039 562.693 -61.5406 495.99C-62.1011 494.291 -62.6615 492.591 -63.1791 490.896C-90.4673 404.243 -97.5947 317.313 -74.5884 254.263C-57.448 207.308 -22.6401 176.483 18.3198 157.326C41.011 146.75 65.7073 139.941 91.9541 137.023C114.232 134.474 136.729 134.413 158.584 134.273C202.573 133.894 242.909 133.828 283.308 128.254C302.123 125.697 320.928 121.934 340.528 118.591C377.663 112.217 417.705 107.97 459.867 111.499C502.85 115.088 549.254 127.457 594.095 152.546C616.475 164.973 638.415 180.869 659.201 199.719C721.723 256.725 770.843 348.89 768.646 417.81" stroke="#949E9D" stroke-miterlimit="10"/>
<path d="M231.093 522.596C229.063 537.262 226.13 551.361 222.312 564.805C217.001 583.548 209.659 600.684 200.413 615.916C183.575 643.378 159.753 662.47 130.306 670.512C106.961 676.819 78.9362 675.709 50.3378 659.426C-3.76543 628.56 -44.0881 558.866 -65.499 493.31C-66.0527 491.637 -66.5849 489.966 -67.103 488.302C-93.7927 403.201 -99.552 318.024 -75.7226 257.271C-57.6603 211.323 -21.9825 182.082 19.3151 163.755C42.2093 153.7 66.9071 147.1 93.026 144.057C115.192 141.361 137.488 140.866 159.038 140.046C202.398 138.274 241.583 135.806 281.009 128.403C299.379 125.006 317.773 120.522 337.074 116.635C373.624 109.183 413.395 104.438 455.417 107.727C498.247 111.071 544.537 123.434 589.285 148.518C611.597 160.908 633.475 176.735 654.215 195.491C716.619 252.26 765.94 343.429 765.547 412.806" stroke="#98A1A0" stroke-miterlimit="10"/>
<path d="M227.119 523.746C224.912 537.287 221.912 550.309 218.137 562.741C212.515 581.324 204.854 598.254 195.289 613.235C177.856 640.245 153.402 658.568 123.481 665.819C100.347 671.419 72.6882 669.785 44.6387 653.64C-8.48859 623.049 -48.4864 555.015 -69.4574 490.629C-69.9901 488.989 -70.5084 487.341 -71.027 485.708C-97.1678 402.128 -101.495 318.742 -76.8637 260.268C-57.9144 215.256 -21.3108 187.688 20.3316 170.201C43.4129 160.63 68.1079 154.206 94.099 151.011C116.153 148.168 138.241 147.229 159.466 145.696C202.211 142.523 240.238 137.672 278.704 128.447C296.608 124.207 314.591 118.986 333.558 114.501C369.523 105.985 409.03 100.722 450.892 103.77C493.575 106.88 539.751 119.221 584.42 144.292C606.697 156.709 628.537 172.528 649.251 191.249C711.536 247.782 761.06 337.877 762.462 407.777" stroke="#9CA4A2" stroke-miterlimit="10"/>
<path d="M223.045 524.787C220.702 537.231 217.673 549.211 213.976 560.668C208.046 579.094 200.067 595.818 190.179 610.545C172.137 637.096 147.072 654.683 116.691 661.166C93.7047 665.991 66.5112 663.895 38.9674 647.9C-13.1903 617.54 -52.8354 551.228 -73.4017 487.97C-73.9347 486.347 -74.4249 484.727 -74.9512 483.131C-100.492 401.023 -103.396 319.496 -77.9978 263.276C-58.1123 219.263 -20.6742 193.254 21.3409 176.652C44.6178 167.578 69.3211 161.339 95.193 158C117.127 155.014 139.015 153.641 159.929 151.417C200.158 147.201 239.066 139.556 276.413 128.528C293.865 123.438 311.437 117.495 330.098 112.456C365.43 102.783 404.715 97.084 446.43 99.8983C488.98 102.795 535.013 115.086 579.611 140.155C601.834 152.561 623.623 168.334 644.301 186.983C706.475 243.29 756.144 332.363 759.419 402.784" stroke="#9FA8A5" stroke-miterlimit="10"/>
<path d="M218.881 525.73C216.442 537.118 213.413 548.09 209.808 558.6C203.558 576.851 195.248 593.351 185.026 607.803C166.391 633.903 140.715 650.754 109.86 656.368C87.0921 660.512 60.3278 657.962 33.3184 642.114C-17.8845 612.012 -57.1836 547.377 -77.3309 485.256C-77.8502 483.67 -78.3192 482.069 -78.8459 480.503C-103.851 399.847 -105.253 320.223 -79.1098 266.239C-58.2811 223.236 -19.9384 198.882 22.3866 183.065C45.4319 174.398 70.5215 168.647 96.3092 164.943C118.131 161.81 139.818 160.003 160.421 157.089C201.914 151.111 237.611 141.428 274.158 128.587C291.144 122.623 308.334 116.004 326.667 110.377C361.428 99.6637 400.435 93.4236 441.989 95.9967C484.329 98.6374 530.283 110.962 574.795 136.007C596.967 148.411 618.708 164.147 639.351 182.733C701.414 238.814 751.249 326.819 756.363 397.769" stroke="#A3ABA7" stroke-miterlimit="10"/>
<path d="M214.618 526.548C212.118 536.902 209.151 546.927 205.647 556.528C199.112 574.655 190.499 590.981 179.965 605.207C160.728 630.843 134.455 646.996 103.048 651.76C80.4699 655.196 54.1422 652.17 27.625 636.418C-22.6298 606.546 -61.583 543.606 -81.3045 482.631C-81.817 481.072 -82.3011 479.527 -82.778 477.977C-107.177 398.805 -107.154 321.024 -80.287 269.259C-58.4867 227.279 -19.2808 204.482 23.3598 189.539C46.584 181.335 71.7128 175.823 97.3602 171.943C119.07 168.662 140.556 166.422 160.84 162.806C201.74 155.43 236.271 143.384 271.846 128.698C288.393 121.921 305.151 114.547 323.171 108.34C357.334 96.5401 396.084 89.8085 437.491 92.1472C479.713 94.5196 525.546 106.827 569.994 131.866C592.111 144.263 613.798 159.96 634.4 178.483C696.346 234.327 746.341 321.254 753.328 392.74" stroke="#A6AEAA" stroke-miterlimit="10"/>
<path d="M210.278 527.243C207.753 536.629 204.826 545.708 201.5 554.477C194.647 572.436 185.707 588.544 174.847 602.505C155.01 627.695 128.146 643.161 96.2089 647.029C73.7991 649.769 47.8807 646.192 21.9185 630.637C-27.381 600.991 -65.9882 539.744 -85.2908 479.906C-85.7824 478.38 -86.2668 476.851 -86.7299 475.339C-110.58 397.718 -109.006 321.809 -81.4282 272.255C-58.6493 231.31 -18.6522 210.099 24.3693 195.975C47.7581 188.227 72.9404 182.961 98.4471 178.92C120.031 175.486 141.323 172.808 161.289 168.506C201.573 159.727 234.932 145.293 269.533 128.762C285.629 121.134 302.017 113.105 319.682 106.266C353.261 93.3872 391.747 86.153 432.972 88.2171C475.09 90.4064 520.794 102.7 565.192 127.74C587.253 140.129 608.887 155.782 629.45 174.232C691.278 229.839 741.461 315.701 750.243 387.727" stroke="#ABB2AC" stroke-miterlimit="10"/>
<path d="M205.847 527.824C203.355 536.279 200.512 544.466 197.317 552.387C190.147 570.197 180.879 586.105 169.687 599.815C149.248 624.542 121.801 639.348 89.3691 642.361C67.1845 644.416 41.6952 640.385 16.2184 624.914C-32.0971 595.491 -70.3656 535.928 -89.2711 477.254C-89.756 475.756 -90.2267 474.264 -90.6759 472.774C-113.955 396.645 -110.851 322.668 -82.5913 275.281C-58.8056 235.399 -18.0025 215.734 25.3565 202.455C48.9387 195.161 74.1458 190.143 99.5122 185.927C120.983 182.345 142.068 179.238 161.737 174.236C201.399 164.045 233.593 147.218 267.242 128.891C282.886 120.411 298.821 111.594 316.178 104.279C349.151 90.3038 387.387 82.5736 428.48 84.4413C470.402 86.318 516.013 98.6081 560.304 123.621C582.316 136.009 603.903 151.623 624.435 170.007C686.152 225.388 736.501 310.245 747.121 382.752" stroke="#AFB6AF" stroke-miterlimit="10"/>
<path d="M201.354 528.274C198.904 535.848 196.193 543.212 193.157 550.314C185.69 567.963 176.11 583.656 164.599 597.095C143.588 621.357 115.541 635.544 82.5874 637.641C60.5992 639.03 35.5469 634.507 10.5054 619.106C-36.8839 589.943 -74.8065 532.073 -93.2643 474.518C-93.7354 473.057 -94.1921 471.588 -94.6345 470.125C-117.343 395.503 -112.687 323.459 -83.7671 278.222C-58.9677 239.415 -17.3797 221.278 26.3313 208.834C50.0777 202.028 75.3601 197.227 100.564 192.848C121.923 189.119 142.807 185.578 162.157 179.891C201.211 168.294 232.241 149.073 264.952 128.894C280.144 119.579 295.668 110.04 312.734 102.115C345.123 87.0613 383.095 78.8284 424.034 80.4504C465.803 82.0972 511.299 94.3655 555.512 119.366C577.481 131.776 599.025 147.382 619.521 165.734C681.149 220.876 731.65 304.691 744.072 377.732" stroke="#B3B8B0" stroke-miterlimit="10"/>
<path d="M196.784 528.6C194.423 535.337 191.82 541.888 188.974 548.255C181.197 565.751 171.295 581.24 159.46 594.423C137.826 618.251 109.231 631.818 75.7406 632.961C53.9916 633.688 29.3343 628.608 4.91961 613.389C-41.5146 584.467 -79.1052 528.27 -97.1302 471.872C-97.6015 470.427 -98.0445 468.996 -98.4802 467.56C-120.618 394.429 -114.376 324.36 -84.8155 281.239C-58.9744 243.55 -16.6224 226.909 27.4262 215.31C51.3514 208.966 76.6586 204.414 101.758 199.883C122.998 196.011 143.688 192.032 162.72 185.643C201.158 172.66 231.03 151.042 262.739 129.051C277.486 118.88 292.599 108.636 309.352 100.146C341.989 83.4767 379.322 75.5304 419.649 76.6696C461.271 78.0662 506.654 90.3284 550.787 115.315C572.693 127.692 594.178 143.225 614.636 161.474C676.13 216.404 726.863 299.126 741.116 372.7" stroke="#B6BCB3" stroke-miterlimit="10"/>
<path d="M192.158 528.791C189.906 534.735 187.46 540.525 184.82 546.163C176.733 563.501 166.512 578.784 154.357 591.712C132.122 615.078 102.978 628.072 68.9373 628.239C47.3839 628.346 23.1358 622.715 -0.78733 607.64C-46.2523 578.966 -83.5043 524.467 -101.11 469.205C-101.561 467.794 -101.997 466.389 -102.426 464.98C-123.993 393.356 -116.164 325.277 -85.9784 284.249C-59.0745 247.697 -15.9797 232.533 28.4209 221.77C52.5108 215.882 77.8641 211.581 102.809 206.851C123.936 202.832 144.419 198.409 163.09 191.298C200.934 176.947 229.613 152.891 260.362 129.093C274.643 118.08 289.359 107.105 305.799 98.0502C337.797 80.3521 374.848 71.7698 415.087 72.7353C456.556 73.902 501.86 86.1198 545.886 111.128C567.741 123.494 589.178 138.985 609.601 157.168C670.955 211.875 721.833 293.543 737.96 367.623" stroke="#B9BFB5" stroke-miterlimit="10"/>
<path d="M187.492 528.882C185.379 534.076 183.104 539.149 180.666 544.101C172.267 561.286 161.724 576.364 149.247 589.038C126.396 611.965 96.7023 624.386 62.1264 623.552C40.7831 623.032 16.9372 616.838 -6.45853 601.899C-50.9754 573.455 -87.8745 520.661 -105.04 466.506C-105.483 465.122 -105.906 463.755 -106.314 462.379C-127.354 392.258 -117.91 326.198 -87.1334 287.224C-59.1526 251.831 -15.3288 238.105 29.4163 228.199C53.6851 222.774 79.0919 218.719 103.853 213.825C124.876 209.654 145.157 204.796 163.567 197.026C200.768 181.229 228.309 154.825 258.093 129.192C271.921 117.344 286.226 105.648 302.346 96.0164C333.701 77.308 370.474 68.096 410.632 68.89C451.982 69.8198 497.143 82.0496 541.148 107.055C562.951 119.423 584.339 134.876 604.728 152.993C665.987 207.45 717.03 288.098 734.981 362.683" stroke="#BDC2B8" stroke-miterlimit="10"/>
<path d="M182.777 528.818C180.8 533.316 178.711 537.729 176.512 542.055C167.809 559.092 156.947 573.965 144.143 586.374C120.699 608.803 90.4548 620.745 55.3225 618.877C34.1959 617.755 10.7807 611.013 -12.1445 596.183C-55.6769 567.931 -92.2585 516.818 -109.027 463.843C-109.429 462.542 -109.872 461.141 -110.267 459.804C-130.707 391.156 -119.642 327.157 -88.2536 290.254C-59.175 256.054 -14.6431 243.734 30.4398 234.657C54.8872 229.71 80.3333 225.894 104.976 220.81C125.886 216.492 145.96 211.206 164.036 202.743C200.623 185.545 226.999 156.747 255.815 129.312C269.192 116.613 283.094 104.19 298.886 93.9872C329.591 74.271 366.087 64.4213 406.169 65.0335C447.323 65.6978 492.363 77.9103 536.282 102.892C558.02 115.234 579.345 130.629 599.686 148.66C660.841 202.902 712.051 282.499 731.84 357.596" stroke="#C0C5BB" stroke-miterlimit="10"/>
<path d="M178.051 528.606C176.246 532.468 174.346 536.245 172.352 539.936C163.334 556.812 152.152 571.478 139.034 583.637C114.995 605.63 84.1864 617.071 48.5343 614.115C27.6173 612.395 4.59109 605.021 -17.7713 590.352C-60.3922 562.384 -96.5991 512.947 -112.949 461.108C-113.372 459.789 -113.767 458.483 -114.133 457.19C-134.01 390.053 -121.31 328.107 -89.3372 293.23C-59.1398 260.257 -13.9209 249.324 31.5067 241.087C56.1048 236.575 81.6252 233.039 106.121 227.767C126.911 223.306 146.792 217.582 164.571 208.419C200.542 189.82 225.761 158.624 253.611 129.355C266.535 115.804 280.026 102.661 295.512 91.888C325.565 71.1818 361.788 60.7008 401.8 61.1338C442.743 61.573 487.612 73.7528 531.496 98.7254C553.193 111.077 574.48 126.45 594.793 144.436C655.83 198.442 707.214 276.982 728.834 352.596" stroke="#C5C9BC" stroke-miterlimit="10"/>
<path d="M173.247 528.302C171.623 531.554 169.935 534.748 168.183 537.883C158.854 554.609 147.351 569.07 133.909 580.971C109.276 602.512 77.9094 613.479 41.6869 609.466C20.9723 607.155 -1.64397 599.183 -23.479 584.649C-65.1448 556.923 -101.02 509.173 -116.937 458.493C-117.346 457.196 -117.748 455.894 -118.143 454.588C-137.413 388.982 -123.079 329.135 -90.5496 296.21C-59.2199 264.5 -13.3205 254.912 32.4518 247.516C57.2356 243.493 82.7815 240.159 107.143 234.738C127.815 230.119 147.494 223.961 164.962 214.107C200.318 194.107 224.365 160.507 251.256 129.415C263.728 115.028 276.808 101.163 291.973 89.83C321.35 68.1225 357.29 56.9931 397.231 57.2353C438.092 57.4307 482.91 69.6265 526.666 94.555C548.309 106.907 569.544 122.239 589.822 140.152C650.74 193.921 702.291 271.41 725.749 347.552" stroke="#C8CDBF" stroke-miterlimit="10"/>
<path d="M168.446 527.857C167.016 530.553 165.535 533.203 164.001 535.809C154.369 552.389 142.548 566.649 128.784 578.29C103.55 599.368 71.632 609.919 34.8618 604.773C14.0181 601.949 -7.91637 593.086 -29.1644 578.902C-69.8679 551.412 -105.362 505.413 -120.895 455.812C-121.311 454.519 -121.672 453.285 -122.046 452.028C-140.781 387.873 -124.755 330.215 -91.6769 299.245C-59.1938 268.833 -12.6492 260.55 33.4749 254.006C58.4376 250.446 84.0227 247.35 108.237 241.758C128.796 236.991 148.275 230.4 165.425 219.845C200.166 198.442 223.025 162.479 248.978 129.55C260.978 114.279 273.667 99.7262 288.485 87.7562C316.706 65.0893 352.885 53.3956 392.748 53.3454C433.462 53.2907 478.159 65.4692 521.836 90.3846C543.442 102.743 564.641 118.051 584.893 135.92C645.728 189.507 697.425 265.896 722.721 342.565" stroke="#CCCFC1" stroke-miterlimit="10"/>
<path d="M163.632 527.28C162.396 529.466 161.139 531.619 159.84 533.736C149.902 550.155 137.769 564.203 123.696 575.586C97.8606 596.217 65.3903 606.368 28.0656 600.062C7.46439 596.553 -14.0411 587.35 -34.8212 573.152C-74.5622 545.883 -109.774 501.524 -124.832 453.118C-125.255 451.83 -125.588 450.655 -125.948 449.42C-144.112 386.773 -126.447 331.304 -92.7964 302.228C-59.1461 273.152 -11.9775 266.156 34.4698 260.466C59.6041 257.373 85.2285 254.517 109.309 248.744C129.749 243.835 149.027 236.81 165.873 225.559C199.999 202.756 221.715 164.385 246.673 129.641C258.241 113.552 270.506 98.2553 285.038 85.7648C312.667 62.0235 348.59 49.8227 388.292 49.5313C428.853 49.231 473.449 61.4101 517.048 86.3125C538.584 98.6531 559.718 113.904 579.921 131.683C640.618 185 692.516 260.377 719.65 337.559" stroke="#CFD2C4" stroke-miterlimit="10"/>
<path d="M158.813 526.582C157.785 528.296 156.743 529.989 155.665 531.657C126.783 577.196 79.7914 606.99 21.198 595.334C-37.3953 583.677 -106.498 522.416 -128.812 450.451C-148.242 387.787 -128.79 332.941 -93.9739 305.263C-59.1575 277.586 -11.313 271.767 35.4792 266.901C82.2715 262.036 130.35 257.266 166.336 231.265C215.368 195.846 236.656 124.971 281.579 83.7042C336.234 33.5073 426.121 32.9072 512.239 82.1599C598.357 131.413 677.989 228.987 716.601 332.539" stroke="#D3D6C7" stroke-miterlimit="10"/>
</g>
</g>
</svg>
