<svg preserveAspectRatio="none" viewBox="0 0 360 48" fill="none" xmlns="http://www.w3.org/2000/svg">
<mask id="mask0_201_2" style="mask-type:alpha" maskUnits="userSpaceOnUse" x="0" y="0" width="360" height="48">
<path d="M0 35C0 35 19.5 48 126 48C213.523 48 360 0 360 0V48H126H0V35Z" fill="black"/>
</mask>
<g mask="url(#mask0_201_2)">
<path d="M0 35C0 35 19.5 48 126 48C213.523 48 360 0 360 0V48H126H0V35Z" fill="white"/>
<path d="M240.5 46.5C341 46.5 391.333 22.9399 423 12.1416L420.5 -489H-35.5V-2.09259C59 -2.09259 152.977 46.5 240.5 46.5Z" stroke="#1B291F" stroke-width="0.5"/>
<path d="M240.5 44.5C341 44.5 391.333 20.9399 423 10.1416L420.5 -491H-35.5V-4.09259C59 -4.09259 152.977 44.5 240.5 44.5Z" stroke="#1B291F" stroke-width="0.5"/>
<path d="M240.5 42.5C341 42.5 391.333 18.9399 423 8.1416L420.5 -493H-35.5V-6.09259C59 -6.09259 152.977 42.5 240.5 42.5Z" stroke="#1B291F" stroke-width="0.5"/>
<path d="M240.5 40.5C341 40.5 391.333 16.9399 423 6.1416L420.5 -495H-35.5V-8.09259C59 -8.09259 152.977 40.5 240.5 40.5Z" stroke="#1B291F" stroke-width="0.5"/>
<path d="M240.5 38.5C341 38.5 391.333 14.9399 423 4.1416L420.5 -497H-35.5V-10.0926C59 -10.0926 152.977 38.5 240.5 38.5Z" stroke="#1B291F" stroke-width="0.5"/>
<path d="M240.5 36.5C341 36.5 391.333 12.9399 423 2.1416L420.5 -499H-35.5V-12.0926C59 -12.0926 152.977 36.5 240.5 36.5Z" stroke="#1B291F" stroke-width="0.5"/>
<path d="M240.5 34.5C341 34.5 391.333 10.9399 423 0.141602L420.5 -501H-35.5V-14.0926C59 -14.0926 152.977 34.5 240.5 34.5Z" stroke="#1B291F" stroke-width="0.5"/>
<path d="M240.5 32.5C341 32.5 391.333 8.93994 423 -1.8584L420.5 -503H-35.5V-16.0926C59 -16.0926 152.977 32.5 240.5 32.5Z" stroke="#1B291F" stroke-width="0.5"/>
<path d="M240.5 30.5C341 30.5 391.333 6.93994 423 -3.8584L420.5 -505H-35.5V-18.0926C59 -18.0926 152.977 30.5 240.5 30.5Z" stroke="#1B291F" stroke-width="0.5"/>
<path d="M240.5 28.5C341 28.5 391.333 4.93994 423 -5.8584L420.5 -507H-35.5V-20.0926C59 -20.0926 152.977 28.5 240.5 28.5Z" stroke="#1B291F" stroke-width="0.5"/>
<path d="M240.5 26.5C341 26.5 391.333 2.93994 423 -7.8584L420.5 -509H-35.5V-22.0926C59 -22.0926 152.977 26.5 240.5 26.5Z" stroke="#1B291F" stroke-width="0.5"/>
<path d="M240.5 24.5C341 24.5 391.333 0.939941 423 -9.8584L420.5 -511H-35.5V-24.0926C59 -24.0926 152.977 24.5 240.5 24.5Z" stroke="#1B291F" stroke-width="0.5"/>
<path d="M240.5 22.5C341 22.5 391.333 -1.06006 423 -11.8584L420.5 -513H-35.5V-26.0926C59 -26.0926 152.977 22.5 240.5 22.5Z" stroke="#1B291F" stroke-width="0.5"/>
<path d="M240.5 20.5C341 20.5 391.333 -3.06006 423 -13.8584L420.5 -515H-35.5V-28.0926C59 -28.0926 152.977 20.5 240.5 20.5Z" stroke="#1B291F" stroke-width="0.5"/>
<path d="M240.5 18.5C341 18.5 391.333 -5.06006 423 -15.8584L420.5 -517H-35.5V-30.0926C59 -30.0926 152.977 18.5 240.5 18.5Z" stroke="#1B291F" stroke-width="0.5"/>
<path d="M240.5 16.5C341 16.5 391.333 -7.06006 423 -17.8584L420.5 -519H-35.5V-32.0926C59 -32.0926 152.977 16.5 240.5 16.5Z" stroke="#1B291F" stroke-width="0.5"/>
<path d="M240.5 14.5C341 14.5 391.333 -9.06006 423 -19.8584L420.5 -521H-35.5V-34.0926C59 -34.0926 152.977 14.5 240.5 14.5Z" stroke="#1B291F" stroke-width="0.5"/>
</g>
</svg>
