<svg maintainAspectRatio="none" viewBox="0 0 283 498" fill="none" xmlns="http://www.w3.org/2000/svg">
<g style="mix-blend-mode:soft-light">
<path d="M-246.822 443.602C-253.575 495.959 -251.368 545.69 -238.947 588.202C-229.294 621.125 -213.773 650.309 -189.253 666.887C-164.733 683.466 -130.409 686.264 -95.5815 668.379C-28.348 633.828 16.6683 540.06 42.8756 459.394C76.3714 356.339 97.4553 250.212 84.9176 161.28C72.3799 72.3481 21.641 3.36917 -57.0938 0.269761C-127.838 -2.5229 -209.122 45.669 -285.563 67.3481C-354.374 86.8566 -419.097 84.7859 -486.127 94.1172C-553.156 103.449 -626.957 126.997 -690.691 186.553C-754.425 246.108 -801.727 349.878 -779.306 413.028" stroke="#6C7983" stroke-miterlimit="10"/>
<path d="M-244.255 445.331C-247.389 473.881 -247.724 501.483 -245.251 527.601C-243.303 548.096 -239.475 567.485 -233.823 585.49C-223.583 617.972 -207.303 646.264 -182.428 662.179C-157.944 677.834 -124.203 680.376 -89.8825 662.594C-25.2936 629.153 18.7776 540.897 44.8451 462.753C45.5083 460.761 46.1716 458.768 46.8134 456.778C79.7456 355.219 99.6539 250.811 86.0436 164.237C77.1785 107.81 52.1529 60.3964 14.6544 32.7964C-5.95139 17.6256 -30.4354 8.46287 -58.196 7.20662C-81.6393 6.1189 -106.123 10.4068 -131.111 17.2213C-181.266 30.8943 -233.245 54.7486 -283.287 67.3893C-306.629 73.2918 -329.53 76.7368 -352.29 79.105C-395.367 83.5989 -437.98 84.3294 -481.686 90.2314C-526.178 96.248 -573.703 108.786 -619.315 133.966C-642.222 146.438 -664.67 162.744 -685.813 182.273C-749.466 241.569 -796.898 344.31 -776.322 407.983" stroke="#6F7C85" stroke-miterlimit="10"/>
<path d="M-241.594 447.151C-243.994 474.383 -243.815 500.671 -241.061 525.546C-238.81 545.881 -234.664 565.065 -228.684 582.818C-217.842 614.837 -200.832 642.266 -175.589 657.495C-151.155 672.233 -117.983 674.497 -84.1966 656.877C-20.5627 623.678 23.1696 537.106 48.8111 460.109C49.4676 458.138 50.1099 456.179 50.738 454.231C83.1066 354.168 101.839 251.463 87.2144 167.299C77.5765 111.803 51.5248 66.0454 13.6818 39.3016C-7.08301 24.3412 -31.8414 15.821 -59.254 14.202C-82.5634 12.9806 -106.861 16.8259 -131.545 22.9453C-181.056 35.1879 -231.891 56.6669 -280.967 67.4892C-303.864 72.5517 -326.347 75.2641 -348.801 77.0784C-391.28 80.471 -433.643 80.7055 -477.231 86.355C-521.569 92.1259 -568.988 104.606 -614.506 129.814C-637.352 142.299 -659.739 158.568 -680.842 178.02C-744.383 237.107 -791.989 338.792 -773.245 402.903" stroke="#738189" stroke-miterlimit="10"/>
<path d="M-238.812 448.907C-240.538 474.82 -239.905 499.806 -236.922 523.46C-234.361 543.632 -229.894 562.612 -223.588 580.118C-212.167 611.677 -194.412 638.236 -168.793 652.784C-144.422 666.628 -111.806 668.607 -78.547 651.123C-15.8682 618.165 27.5108 533.266 52.7409 457.425C53.3883 455.49 54.0239 453.558 54.6475 451.629C86.4453 353.057 103.974 252.068 88.3338 170.282C77.9021 115.734 50.8386 71.6424 12.6436 45.7347C-8.33898 31.2832 -33.0683 22.9751 -60.3262 21.2196C-83.5234 19.8509 -107.62 23.2627 -131.986 28.6803C-180.889 39.5326 -230.58 58.652 -278.675 67.6178C-301.107 71.8225 -323.185 73.8246 -345.319 75.0625C-387.213 77.3762 -429.312 77.1081 -472.704 82.539C-516.895 88.0755 -564.199 100.534 -609.674 125.785C-632.482 138.245 -654.835 154.462 -675.919 173.846C-739.349 232.691 -787.122 333.324 -770.215 398.042" stroke="#76838B" stroke-miterlimit="10"/>
<path d="M-235.894 450.638C-237.004 475.244 -235.954 498.943 -232.761 521.387C-229.891 541.394 -225.106 560.168 -218.478 577.428C-206.434 608.538 -187.977 634.215 -161.975 648.086C-137.682 661.043 -105.615 662.725 -72.8398 645.389C-11.1523 612.65 31.9304 529.414 56.6992 454.745C57.3423 452.833 57.9848 450.889 58.5715 449.035C89.7984 351.954 106.109 252.704 89.482 173.267C78.2561 119.652 50.1738 77.2373 11.6413 52.1746C-9.57256 38.1935 -34.3082 30.081 -61.4559 28.201C-84.5267 26.6784 -108.43 29.6521 -132.477 34.3836C-180.765 43.8189 -229.241 60.5297 -276.42 67.6924C-298.385 71.0394 -320.074 72.3378 -341.888 72.9995C-383.183 74.2276 -425.025 73.4679 -468.27 78.6645C-512.308 83.9396 -559.505 96.4028 -604.873 121.596C-627.623 134.051 -649.918 150.232 -670.955 169.557C-734.267 228.165 -782.22 327.754 -767.137 392.977" stroke="#7A878E" stroke-miterlimit="10"/>
<path d="M-232.856 452.337C-233.408 475.648 -231.981 498.077 -228.593 519.319C-225.432 539.182 -220.338 557.767 -213.389 574.787C-200.75 605.445 -181.584 630.261 -155.185 643.433C-130.957 655.48 -99.4442 656.893 -67.2184 639.664C-6.42914 607.139 36.3012 525.64 60.6576 452.064C61.2797 450.185 61.9018 448.307 62.4954 446.442C93.1301 350.854 108.229 253.332 90.6161 176.275C78.5749 123.61 49.524 82.8727 10.6248 58.6213C-10.808 45.1286 -35.5275 37.2039 -62.536 35.167C-85.4946 33.4972 -109.197 36.0373 -132.947 40.0693C-180.606 48.1122 -227.967 62.4451 -274.115 67.7517C-295.649 70.281 -316.913 70.8357 -338.414 70.9166C-379.125 71.0657 -420.703 69.8033 -463.822 74.7989C-507.706 79.8441 -554.789 92.2855 -600.072 117.47C-622.767 129.925 -645.01 146.065 -666.012 165.318C-729.185 223.656 -777.34 322.233 -764.073 387.997" stroke="#7E8A8F" stroke-miterlimit="10"/>
<path d="M-229.703 453.998C-229.723 476.01 -227.959 497.179 -224.432 517.247C-220.951 536.934 -215.526 555.299 -208.243 572.056C-194.975 602.27 -175.142 626.214 -148.339 638.691C-124.209 649.931 -93.2179 650.955 -61.5123 633.867C-1.67806 601.584 40.6638 521.799 64.616 449.383C65.2314 447.531 65.8325 445.686 66.4194 443.848C96.5121 349.77 110.321 253.972 91.7573 179.272C78.8791 127.543 48.8377 88.4541 9.61559 65.0724C-12.0341 52.0638 -36.7449 44.3278 -63.6229 42.1442C-86.4483 40.2936 -109.963 42.4383 -133.388 45.773C-180.453 52.4166 -226.621 64.3117 -271.859 67.8891C-292.934 69.5718 -313.787 69.4051 -334.967 68.9254C-375.073 67.9777 -416.366 66.1635 -459.338 70.9403C-503.076 75.7354 -550.044 88.1707 -595.235 113.304C-617.88 125.746 -640.075 141.844 -661.041 161.034C-724.117 219.184 -772.446 316.658 -761.017 382.935" stroke="#828D91" stroke-miterlimit="10"/>
<path d="M-226.452 455.581C-226.014 476.318 -223.958 496.248 -220.307 515.151C-216.517 534.678 -210.776 552.841 -203.176 569.354C-189.329 599.091 -168.786 622.222 -141.564 633.982C-117.548 644.343 -87.0696 645.063 -55.877 628.119C3.01711 596.118 45.041 517.982 68.5746 446.718C69.1762 444.904 69.7705 443.086 70.3435 441.27C99.8656 348.699 112.392 254.631 92.8915 182.296C79.205 131.506 48.1732 94.0805 8.59917 71.5348C-13.2613 59.0068 -37.9628 51.4546 -64.7101 49.1215C-87.4512 47.1683 -110.759 48.8211 -133.858 51.4743C-180.294 56.7098 -225.304 66.223 -269.562 67.9283C-290.185 68.7598 -310.634 67.8828 -331.501 66.8222C-371.03 64.7911 -412.071 62.5436 -454.848 67.0234C-498.432 71.5886 -545.286 84.0021 -590.426 109.152C-613.018 121.601 -635.16 137.662 -656.091 156.784C-719.063 214.704 -767.523 311.133 -757.961 377.919" stroke="#859094" stroke-miterlimit="10"/>
<path d="M-223.007 457.145C-222.158 476.627 -219.849 495.343 -216.103 513.106C-212.007 532.471 -205.945 550.425 -198.015 566.68C-183.546 595.921 -162.357 618.259 -134.703 629.296C-110.821 638.843 -80.8278 639.197 -50.1555 622.378C7.73315 590.602 49.4254 514.154 72.5258 444.033C73.1277 442.235 73.7011 440.45 74.2746 438.665C103.219 347.581 114.442 255.276 94.0398 185.282C79.5093 135.439 47.5086 99.6752 7.59703 77.9746C-14.4743 65.9428 -39.1679 58.5841 -65.7825 56.1076C-88.4114 54.0071 -111.482 55.2491 -134.306 57.189C-180.127 61.0232 -223.972 68.1431 -267.263 68.0299C-287.434 68.0102 -307.458 66.4052 -328.019 64.775C-366.935 61.6673 -407.77 58.8967 -450.378 63.1557C-493.816 67.4707 -540.549 79.8669 -585.617 105.015C-608.161 117.463 -630.257 133.492 -651.154 152.555C-714.016 210.25 -762.649 305.623 -754.918 372.926" stroke="#899496" stroke-miterlimit="10"/>
<path d="M-219.493 458.629C-218.268 476.865 -215.744 494.385 -211.942 511.033C-207.543 530.244 -201.16 547.994 -192.898 563.994C-177.856 592.817 -155.993 614.271 -127.892 624.609C-104.138 633.331 -74.6365 633.316 -44.4919 616.617C12.4272 585.074 53.7811 510.34 76.4696 441.343C77.0505 439.578 77.6533 437.843 78.1769 436.074C106.564 346.474 116.462 255.934 95.1519 188.26C79.7704 139.376 46.836 105.234 6.55866 84.4078C-15.7189 72.8642 -40.4093 65.6963 -66.8983 63.0825C-89.4081 60.8236 -112.3 61.6184 -134.784 62.8858C-179.996 65.3141 -222.683 70.0364 -264.994 68.0981C-284.72 67.2384 -304.34 64.9075 -324.574 62.7054C-362.898 58.5076 -403.475 55.2925 -445.931 59.2588C-489.173 63.277 -535.84 75.7296 -580.823 100.853C-603.309 113.286 -625.35 129.267 -646.205 148.258C-708.949 205.715 -757.763 300.044 -751.863 367.864" stroke="#8D989A" stroke-miterlimit="10"/>
<path d="M-215.85 460.037C-214.31 477.059 -211.611 493.411 -207.774 508.965C-203.067 528.011 -196.366 545.55 -187.781 561.292C-172.158 589.702 -149.593 610.338 -121.074 619.912C-97.4609 627.831 -68.467 627.405 -38.8062 610.885C17.1793 579.581 58.1868 506.51 80.4703 438.626C81.0445 436.889 81.6191 435.182 82.1362 433.456C109.953 345.363 118.497 256.585 96.3284 191.233C80.0673 143.305 46.1929 110.843 5.59179 90.8233C-16.8973 79.779 -41.5879 72.7998 -67.95 70.0353C-90.3403 67.6336 -113.031 67.9949 -135.204 68.556C-179.801 69.5829 -221.316 71.9165 -262.675 68.1507C-281.942 66.4444 -301.158 63.4032 -321.078 60.636C-358.811 55.3481 -399.104 51.5969 -441.419 55.3713C-484.577 59.224 -531.116 71.6481 -576 96.7252C-598.434 109.157 -620.425 125.094 -641.248 144.012C-703.873 201.233 -752.854 294.509 -748.792 362.857" stroke="#919B9C" stroke-miterlimit="10"/>
<path d="M-212.095 461.361C-210.289 477.194 -207.455 492.407 -203.613 506.893C-198.602 525.778 -191.584 543.11 -182.678 558.598C-166.44 586.522 -143.221 606.402 -114.271 615.205C-90.8057 622.333 -62.254 621.537 -33.1425 605.124C21.9024 574.07 62.564 502.693 84.4007 435.99C84.9612 434.291 85.5216 432.591 86.0392 430.896C113.327 344.243 120.455 257.313 97.4485 194.263C80.308 147.308 45.5002 116.483 4.54032 97.3258C-18.1509 86.7498 -42.8472 79.9405 -69.094 77.0233C-91.3721 74.4744 -113.869 74.4133 -135.724 74.2727C-179.713 73.8936 -220.049 73.8275 -260.448 68.2544C-279.263 65.6969 -298.068 61.9343 -317.668 58.5908C-354.803 52.2173 -394.845 47.9701 -437.007 51.4988C-479.99 55.0882 -526.394 67.457 -571.235 92.5455C-593.615 104.973 -615.555 120.869 -636.341 139.719C-698.863 196.725 -747.982 288.89 -745.786 357.81" stroke="#949E9D" stroke-miterlimit="10"/>
<path d="M-208.233 462.596C-206.203 477.262 -203.27 491.361 -199.452 504.805C-194.14 523.548 -186.799 540.684 -177.553 555.916C-160.714 583.378 -136.892 602.47 -107.446 610.512C-84.1005 616.819 -56.0761 615.709 -27.4777 599.426C26.6256 568.56 66.9483 498.866 88.3591 433.31C88.9128 431.637 89.4451 429.966 89.9631 428.302C116.653 343.201 122.412 258.024 98.5827 197.271C80.5205 151.323 44.8427 122.082 3.54502 103.755C-19.3491 93.6999 -44.0469 87.0998 -70.1659 84.0567C-92.3318 81.3605 -114.628 80.8658 -136.178 80.0458C-179.538 78.2744 -218.723 75.806 -258.149 68.4032C-276.519 65.0058 -294.913 60.5217 -314.214 56.6355C-350.764 49.183 -390.535 44.4376 -432.557 47.7274C-475.387 51.0711 -521.677 63.4339 -566.424 88.5184C-588.737 100.908 -610.615 116.735 -631.355 135.491C-693.759 192.26 -743.08 283.429 -742.686 352.806" stroke="#98A1A0" stroke-miterlimit="10"/>
<path d="M-204.259 463.746C-202.052 477.287 -199.052 490.309 -195.277 502.741C-189.655 521.324 -181.994 538.254 -172.429 553.235C-154.996 580.245 -130.542 598.568 -100.621 605.819C-77.4867 611.419 -49.8281 609.785 -21.7786 593.64C31.3487 563.049 71.3464 495.015 92.3174 430.629C92.8502 428.989 93.3685 427.341 93.8871 425.708C120.028 342.128 124.355 258.742 99.7238 200.268C80.7745 155.256 44.1709 127.688 2.52852 110.201C-20.5528 100.63 -45.2478 94.2057 -71.2389 91.0115C-93.2926 88.168 -115.381 87.2286 -136.606 85.6956C-179.351 82.5228 -217.378 77.6725 -255.844 68.4467C-273.748 64.2072 -291.731 58.986 -310.698 54.5011C-346.663 45.9853 -386.17 40.7216 -428.032 43.7703C-470.715 46.8796 -516.891 59.2206 -561.56 84.2921C-583.836 96.7089 -605.676 112.528 -626.39 131.249C-688.676 187.782 -738.2 277.877 -739.602 347.777" stroke="#9CA4A2" stroke-miterlimit="10"/>
<path d="M-200.185 464.787C-197.841 477.231 -194.813 489.211 -191.116 500.668C-185.186 519.094 -177.207 535.818 -167.318 550.545C-149.277 577.096 -124.212 594.683 -93.8305 601.166C-70.8447 605.991 -43.6511 603.895 -16.1073 587.9C36.0504 557.54 75.6955 491.228 96.2618 427.97C96.7948 426.347 97.285 424.727 97.8112 423.131C123.352 341.023 126.256 259.496 100.858 203.276C80.9724 159.263 43.5343 133.254 1.51919 116.652C-21.7577 107.578 -46.461 101.339 -72.3329 97.9999C-94.2672 95.0137 -116.155 93.6408 -137.069 91.4172C-177.298 87.2009 -216.206 79.5556 -253.553 68.5284C-271.005 63.4377 -288.577 57.4951 -307.238 52.4562C-342.57 42.7834 -381.855 37.084 -423.569 39.8982C-466.12 42.7954 -512.153 55.0855 -556.751 80.1552C-578.974 92.5607 -600.763 108.334 -621.441 126.983C-683.615 183.29 -733.283 272.363 -736.559 342.784" stroke="#9FA8A5" stroke-miterlimit="10"/>
<path d="M-196.021 465.73C-193.582 477.118 -190.553 488.09 -186.947 498.6C-180.698 516.851 -172.388 533.351 -162.166 547.803C-143.531 573.903 -117.855 590.754 -86.9999 596.368C-64.232 600.512 -37.4677 597.962 -10.4582 582.114C40.7446 552.012 80.0437 487.377 100.191 425.256C100.71 423.67 101.179 422.069 101.706 420.503C126.711 339.847 128.113 260.223 101.97 206.239C81.1412 163.236 42.7985 138.882 0.473526 123.065C-22.5718 114.398 -47.6614 108.647 -73.4491 104.943C-95.2712 101.81 -116.958 100.003 -137.56 97.0892C-179.054 91.1115 -214.751 81.4277 -251.298 68.5874C-268.284 62.6232 -285.473 56.0038 -303.807 50.3775C-338.568 39.6637 -377.575 33.4236 -419.129 35.9968C-461.469 38.6374 -507.423 50.9616 -551.935 76.007C-574.107 88.4108 -595.848 104.147 -616.49 122.733C-678.554 178.814 -728.389 266.819 -733.503 337.769" stroke="#A3ABA7" stroke-miterlimit="10"/>
<path d="M-191.758 466.548C-189.258 476.902 -186.291 486.927 -182.787 496.528C-176.252 514.655 -167.638 530.981 -157.105 545.207C-137.868 570.843 -111.595 586.996 -80.1878 591.76C-57.6098 595.196 -31.2821 592.17 -4.7649 576.418C45.4899 546.546 84.4431 483.606 104.165 422.631C104.677 421.072 105.161 419.527 105.638 417.977C130.037 338.805 130.014 261.024 103.147 209.258C81.3468 167.279 42.1409 144.482 -0.499653 129.539C-23.7239 121.335 -48.8527 115.823 -74.5001 111.943C-96.2099 108.662 -117.696 106.422 -137.98 102.806C-178.879 95.4295 -213.411 83.3839 -248.986 68.6982C-265.533 61.9209 -282.29 54.5466 -300.311 48.3395C-334.474 36.5401 -373.223 29.8085 -414.631 32.1472C-456.853 34.5196 -502.686 46.8266 -547.134 71.8656C-569.251 84.2627 -590.938 99.9596 -611.54 118.482C-673.486 174.327 -723.481 261.253 -730.468 332.74" stroke="#A6AEAA" stroke-miterlimit="10"/>
<path d="M-187.418 467.243C-184.893 476.629 -181.966 485.708 -178.639 494.477C-171.787 512.436 -162.847 528.544 -151.987 542.505C-132.15 567.695 -105.286 583.161 -73.3489 587.029C-50.939 589.769 -25.0206 586.192 0.941563 570.637C50.241 540.991 88.8483 479.744 108.151 419.906C108.642 418.38 109.127 416.851 109.59 415.339C133.44 337.718 131.866 261.809 104.288 212.255C81.5094 171.31 41.5123 150.099 -1.50918 135.975C-24.898 128.227 -50.0803 122.961 -75.587 118.92C-97.1705 115.486 -118.463 112.808 -138.429 108.506C-178.713 99.7272 -212.072 85.293 -246.673 68.762C-262.769 61.1336 -279.157 53.1048 -296.822 46.2656C-330.401 33.3872 -368.887 26.153 -410.112 28.2171C-452.23 30.4064 -497.934 42.7005 -542.332 67.7398C-564.393 80.1295 -586.026 95.7818 -606.59 114.232C-668.418 169.839 -718.601 255.701 -727.383 327.727" stroke="#ABB2AC" stroke-miterlimit="10"/>
<path d="M-182.987 467.824C-180.495 476.279 -177.652 484.466 -174.457 492.387C-167.287 510.197 -158.019 526.105 -146.827 539.815C-126.388 564.542 -98.9405 579.348 -66.509 582.361C-44.3244 584.416 -18.8352 580.385 6.64174 564.914C54.9572 535.491 93.2256 475.928 112.131 417.254C112.616 415.756 113.087 414.264 113.536 412.774C136.815 336.645 133.711 262.668 105.451 215.281C81.6657 175.399 40.8626 155.734 -2.49645 142.455C-26.0787 135.161 -51.2857 130.143 -76.6521 125.927C-98.1233 122.345 -119.208 119.238 -138.876 114.236C-178.539 104.045 -210.733 87.2177 -244.382 68.8906C-260.025 60.411 -275.961 51.5938 -293.318 44.279C-326.291 30.3039 -364.527 22.5736 -405.62 24.4413C-447.542 26.318 -493.153 38.6082 -537.444 63.6212C-559.456 76.0095 -581.043 91.6231 -601.575 110.007C-663.292 165.388 -713.641 250.245 -724.261 322.752" stroke="#AFB6AF" stroke-miterlimit="10"/>
<path d="M-178.494 468.274C-176.044 475.848 -173.333 483.212 -170.296 490.314C-162.83 507.963 -153.25 523.656 -141.739 537.095C-120.728 561.357 -92.6813 575.544 -59.7273 577.641C-37.7391 579.03 -12.6867 574.507 12.3548 559.106C59.7441 529.943 97.6666 472.073 116.124 414.517C116.596 413.057 117.052 411.588 117.495 410.125C140.203 335.503 135.547 263.459 106.627 218.222C81.8278 179.414 40.2398 161.278 -3.47122 148.834C-27.2176 142.028 -52.5 137.227 -77.7043 132.848C-99.0633 129.119 -119.947 125.578 -139.297 119.891C-178.351 108.294 -209.381 89.0733 -242.092 68.8939C-257.284 59.5789 -272.808 50.0402 -289.874 42.1154C-322.263 27.0613 -360.235 18.8283 -401.174 20.4504C-442.942 22.0971 -488.439 34.3655 -532.652 59.3655C-554.621 71.7761 -576.165 87.3819 -596.661 105.734C-658.289 160.876 -708.79 244.691 -721.212 317.732" stroke="#B3B8B0" stroke-miterlimit="10"/>
<path d="M-173.924 468.6C-171.563 475.337 -168.96 481.888 -166.114 488.255C-158.337 505.751 -148.435 521.24 -136.6 534.423C-114.966 558.251 -86.3707 571.818 -52.8805 572.961C-31.1315 573.688 -6.47414 568.608 17.9405 553.389C64.3747 524.467 101.965 468.27 119.99 411.872C120.462 410.427 120.905 408.996 121.34 407.56C143.478 334.429 137.236 264.36 107.676 221.239C81.8345 183.55 39.4825 166.909 -4.56604 155.31C-28.4913 148.966 -53.7985 144.414 -78.8978 139.883C-100.137 136.011 -120.828 132.032 -139.859 125.643C-178.298 112.66 -208.17 91.0421 -239.879 69.0512C-254.625 58.8805 -269.739 48.6361 -286.492 40.1462C-319.129 23.4767 -356.462 15.5304 -396.789 16.6696C-438.411 18.0662 -483.794 30.3285 -527.927 55.3154C-549.833 67.6924 -571.318 83.2247 -591.776 101.474C-653.27 156.404 -704.003 239.126 -718.256 312.7" stroke="#B6BCB3" stroke-miterlimit="10"/>
<path d="M-169.298 468.791C-167.046 474.735 -164.6 480.526 -161.96 486.163C-153.873 503.501 -143.652 518.784 -131.497 531.713C-109.262 555.078 -80.1176 568.072 -46.0773 568.239C-24.5238 568.346 -0.275737 562.715 23.6474 547.64C69.1124 518.966 106.364 464.467 123.97 409.205C124.421 407.794 124.857 406.389 125.286 404.98C146.853 333.356 139.024 265.277 108.839 224.249C81.9346 187.697 38.8398 172.533 -5.56078 161.77C-29.6507 155.882 -55.0041 151.581 -79.949 146.852C-101.076 142.832 -121.559 138.409 -140.23 131.298C-178.074 116.947 -206.753 92.8912 -237.502 69.093C-251.783 58.0802 -266.499 47.1053 -282.939 38.0502C-314.937 20.3522 -351.988 11.7698 -392.227 12.7353C-433.695 13.902 -479 26.1199 -523.026 51.1276C-544.881 63.4943 -566.318 78.9847 -586.74 97.1679C-648.095 151.875 -698.973 233.544 -715.1 307.623" stroke="#B9BFB5" stroke-miterlimit="10"/>
<path d="M-164.632 468.883C-162.519 474.076 -160.244 479.149 -157.806 484.101C-149.407 501.286 -138.864 516.364 -126.386 529.038C-103.536 551.965 -73.8422 564.386 -39.2663 563.552C-17.923 563.032 5.9229 556.838 29.3186 541.899C73.8355 513.455 110.735 460.661 127.9 406.506C128.343 405.122 128.766 403.755 129.174 402.379C150.214 332.258 140.77 266.198 109.994 227.224C82.0128 191.831 38.1889 178.105 -6.55613 168.199C-30.825 162.774 -56.2318 158.719 -80.9933 153.825C-102.016 149.654 -122.297 144.797 -140.706 137.026C-177.908 121.229 -205.449 94.8248 -235.232 69.1925C-249.061 57.3442 -263.366 45.6478 -279.486 36.0164C-310.841 17.308 -347.614 8.09602 -387.772 8.88997C-429.122 9.81982 -474.283 22.0496 -518.288 47.0552C-540.091 59.4229 -561.479 74.8761 -581.868 92.9932C-643.126 147.45 -694.17 228.098 -712.121 302.683" stroke="#BDC2B8" stroke-miterlimit="10"/>
<path d="M-159.917 468.818C-157.94 473.316 -155.851 477.729 -153.652 482.055C-144.949 499.092 -134.087 513.965 -121.283 526.374C-97.8388 548.803 -67.5946 560.745 -32.4624 558.877C-11.3358 557.755 12.0794 551.013 35.0046 536.183C78.537 507.931 115.119 456.818 131.887 403.843C132.289 402.542 132.733 401.141 133.127 399.804C153.567 331.156 142.502 267.157 111.114 230.254C82.0351 196.054 37.5032 183.734 -7.57966 174.657C-32.0271 169.71 -57.4731 165.894 -82.1159 160.81C-103.026 156.492 -123.1 151.206 -141.176 142.743C-177.762 125.545 -204.139 96.7472 -232.955 69.312C-246.332 56.6126 -260.233 44.1904 -276.026 33.9872C-306.731 14.271 -343.227 4.42132 -383.309 5.03347C-424.463 5.69776 -469.503 17.9103 -513.422 42.8916C-535.159 55.2345 -556.485 70.6285 -576.826 88.6603C-637.981 142.902 -689.191 222.499 -708.98 297.596" stroke="#C0C5BB" stroke-miterlimit="10"/>
<path d="M-155.191 468.606C-153.385 472.468 -151.486 476.245 -149.492 479.936C-140.474 496.812 -129.292 511.478 -116.174 523.637C-92.1351 545.63 -61.3263 557.071 -25.6742 554.115C-4.75719 552.395 18.269 545.021 40.6314 530.352C83.2523 502.384 119.459 452.947 135.809 401.108C136.232 399.789 136.627 398.483 136.993 397.19C156.87 330.053 144.17 268.107 112.197 233.23C81.9999 200.257 36.7811 189.324 -8.64656 181.087C-33.2447 176.575 -58.7651 173.039 -83.2606 167.767C-104.051 163.306 -123.931 157.582 -141.711 148.419C-177.682 129.82 -202.9 98.6243 -230.751 69.3551C-243.675 55.8044 -257.166 42.6608 -272.652 31.8879C-302.705 11.1817 -338.928 0.700748 -378.94 1.13383C-419.883 1.57298 -464.752 13.7528 -508.636 38.7254C-530.333 51.0773 -551.62 66.4498 -571.933 84.4364C-632.969 138.442 -684.353 216.982 -705.974 292.596" stroke="#C5C9BC" stroke-miterlimit="10"/>
<path d="M-150.387 468.302C-148.763 471.554 -147.075 474.748 -145.323 477.883C-135.994 494.609 -124.491 509.07 -111.049 520.971C-86.416 542.512 -55.0493 553.479 -18.8268 549.466C1.88781 547.155 24.5041 539.183 46.3391 524.649C88.0049 496.923 123.88 449.173 139.797 398.493C140.206 397.196 140.608 395.894 141.003 394.588C160.273 328.982 145.939 269.135 113.41 236.21C82.08 204.5 36.1806 194.913 -9.59172 187.516C-34.3755 183.494 -59.9214 180.159 -84.2832 174.738C-104.955 170.119 -124.634 163.961 -142.102 154.107C-177.458 134.107 -201.504 100.507 -228.396 69.4146C-240.868 55.0285 -253.948 41.1635 -269.113 29.83C-298.49 8.12254 -334.43 -3.00683 -374.371 -2.76462C-415.232 -2.56922 -460.05 9.6266 -503.806 34.5551C-525.449 46.9071 -546.684 62.2386 -566.961 80.1525C-627.88 133.921 -679.431 211.41 -702.889 287.552" stroke="#C8CDBF" stroke-miterlimit="10"/>
<path d="M-145.586 467.857C-144.156 470.553 -142.674 473.203 -141.141 475.809C-131.509 492.389 -119.688 506.649 -105.924 518.29C-80.6903 539.368 -48.7719 549.919 -12.0017 544.773C8.84205 541.949 30.7765 533.086 52.0245 518.902C92.728 491.412 128.222 445.412 143.755 395.812C144.172 394.519 144.532 393.285 144.906 392.028C163.641 327.873 147.616 270.215 114.537 239.245C82.0539 208.833 35.5093 200.55 -10.6148 194.006C-35.5774 190.445 -61.1626 187.35 -85.3768 181.758C-105.936 176.991 -125.415 170.4 -142.565 159.845C-177.305 138.442 -200.165 102.479 -226.118 69.55C-238.118 54.2792 -250.807 39.7262 -265.625 27.7561C-293.845 5.08927 -330.025 -6.60439 -369.888 -6.65462C-410.602 -6.70936 -455.299 5.46915 -498.976 30.3846C-520.582 42.7428 -541.781 58.0514 -562.033 75.9199C-622.868 129.507 -674.565 205.896 -699.861 282.565" stroke="#CCCFC1" stroke-miterlimit="10"/>
<path d="M-140.772 467.28C-139.536 469.466 -138.279 471.619 -136.98 473.736C-127.042 490.155 -114.909 504.203 -100.835 515.586C-75.0005 536.217 -42.5302 546.368 -5.20549 540.062C15.3957 536.553 36.9012 527.35 57.6813 513.152C97.4223 485.883 132.634 441.524 147.692 393.118C148.115 391.83 148.448 390.655 148.808 389.42C166.972 326.773 149.307 271.304 115.656 242.228C82.0062 213.152 34.8376 206.156 -11.6096 200.466C-36.744 197.373 -62.3684 194.517 -86.4494 188.744C-106.889 183.835 -126.167 176.81 -143.013 165.559C-177.139 142.756 -198.854 104.385 -223.813 69.6406C-235.381 53.5522 -247.646 38.2554 -262.178 25.7648C-289.807 2.02352 -325.73 -10.1773 -365.432 -10.4686C-405.993 -10.769 -450.589 1.41012 -494.188 26.3126C-515.724 38.6532 -536.858 53.9036 -557.061 71.683C-617.758 125 -669.656 200.377 -696.79 277.559" stroke="#CFD2C4" stroke-miterlimit="10"/>
<path d="M-135.953 466.582C-134.925 468.296 -133.883 469.989 -132.805 471.657C-103.923 517.196 -56.9313 546.99 1.66206 535.334C60.2554 523.677 129.358 462.416 151.672 390.45C171.102 327.787 151.65 272.941 116.834 245.263C82.0176 217.585 34.1731 211.767 -12.6191 206.901C-59.4114 202.036 -107.49 197.266 -143.475 171.265C-192.508 135.846 -213.796 64.9712 -258.718 23.7042C-313.374 -26.4927 -403.261 -27.0929 -489.379 22.1599C-575.497 71.4127 -655.129 168.987 -693.74 272.539" stroke="#D3D6C7" stroke-miterlimit="10"/>
</g>
</svg>
