<svg width="17" height="16" viewBox="0 0 17 16" fill="none" xmlns="http://www.w3.org/2000/svg">
<path d="M0 3.99541C0 2.48427 1.20573 1.25925 2.69307 1.25925H14.3069C15.7943 1.25925 17 2.48427 17 3.99541V12.3749C17 13.8861 15.7943 15.1111 14.3069 15.1111H2.69307C1.20573 15.1111 0 13.8861 0 12.3749V3.99541Z" fill="white"/>
<path d="M0 4.24416C0 2.59564 1.20573 1.25925 2.69307 1.25925H14.3069C15.7943 1.25925 17 2.59564 17 4.24416V6.29628H0V4.24416Z" fill="#87959F"/>
<path d="M1.51111 7.89137C1.51111 7.61318 1.73663 7.38766 2.01482 7.38766H3.86173C4.13992 7.38766 4.36543 7.61318 4.36543 7.89137C4.36543 8.16956 4.13992 8.39507 3.86173 8.39507H2.01482C1.73663 8.39507 1.51111 8.16956 1.51111 7.89137Z" fill="#87959F"/>
<path d="M1.51111 10.0741C1.51111 9.79589 1.73663 9.57037 2.01482 9.57037H3.86173C4.13992 9.57037 4.36543 9.79589 4.36543 10.0741C4.36543 10.3523 4.13992 10.5778 3.86173 10.5778H2.01482C1.73663 10.5778 1.51111 10.3523 1.51111 10.0741Z" fill="#87959F"/>
<path d="M1.51111 12.2568C1.51111 11.9786 1.73663 11.7531 2.01482 11.7531H3.86173C4.13992 11.7531 4.36543 11.9786 4.36543 12.2568C4.36543 12.535 4.13992 12.7605 3.86173 12.7605H2.01482C1.73663 12.7605 1.51111 12.535 1.51111 12.2568Z" fill="#87959F"/>
<path d="M5.20494 7.89137C5.20494 7.61318 5.43045 7.38766 5.70864 7.38766H7.55556C7.83374 7.38766 8.05926 7.61318 8.05926 7.89137C8.05926 8.16956 7.83374 8.39507 7.55556 8.39507H5.70864C5.43045 8.39507 5.20494 8.16956 5.20494 7.89137Z" fill="#87959F"/>
<path d="M5.20494 10.0741C5.20494 9.79589 5.43045 9.57037 5.70864 9.57037H7.55556C7.83374 9.57037 8.05926 9.79589 8.05926 10.0741C8.05926 10.3523 7.83374 10.5778 7.55556 10.5778H5.70864C5.43045 10.5778 5.20494 10.3523 5.20494 10.0741Z" fill="#87959F"/>
<path d="M5.20494 12.2568C5.20494 11.9786 5.43045 11.7531 5.70864 11.7531H7.55556C7.83374 11.7531 8.05926 11.9786 8.05926 12.2568C8.05926 12.535 7.83374 12.7605 7.55556 12.7605H5.70864C5.43045 12.7605 5.20494 12.535 5.20494 12.2568Z" fill="#87959F"/>
<path d="M8.89877 7.89137C8.89877 7.61318 9.12428 7.38766 9.40247 7.38766H11.2494C11.5276 7.38766 11.7531 7.61318 11.7531 7.89137C11.7531 8.16956 11.5276 8.39507 11.2494 8.39507H9.40247C9.12428 8.39507 8.89877 8.16956 8.89877 7.89137Z" fill="#87959F"/>
<path d="M8.89877 10.0741C8.89877 9.79589 9.12428 9.57037 9.40247 9.57037H11.2494C11.5276 9.57037 11.7531 9.79589 11.7531 10.0741C11.7531 10.3523 11.5276 10.5778 11.2494 10.5778H9.40247C9.12428 10.5778 8.89877 10.3523 8.89877 10.0741Z" fill="#87959F"/>
<path d="M8.89877 12.2568C8.89877 11.9786 9.12428 11.7531 9.40247 11.7531H11.2494C11.5276 11.7531 11.7531 11.9786 11.7531 12.2568C11.7531 12.535 11.5276 12.7605 11.2494 12.7605H9.40247C9.12428 12.7605 8.89877 12.535 8.89877 12.2568Z" fill="#87959F"/>
<path d="M12.5926 7.89137C12.5926 7.61318 12.8181 7.38766 13.0963 7.38766H14.9432C15.2214 7.38766 15.4469 7.61318 15.4469 7.89137C15.4469 8.16956 15.2214 8.39507 14.9432 8.39507H13.0963C12.8181 8.39507 12.5926 8.16956 12.5926 7.89137Z" fill="#87959F"/>
<path d="M12.5926 10.0741C12.5926 9.79589 12.8181 9.57037 13.0963 9.57037H14.9432C15.2214 9.57037 15.4469 9.79589 15.4469 10.0741C15.4469 10.3523 15.2214 10.5778 14.9432 10.5778H13.0963C12.8181 10.5778 12.5926 10.3523 12.5926 10.0741Z" fill="#87959F"/>
<path d="M12.5926 12.2568C12.5926 11.9786 12.8181 11.7531 13.0963 11.7531H14.9432C15.2214 11.7531 15.4469 11.9786 15.4469 12.2568C15.4469 12.535 15.2214 12.7605 14.9432 12.7605H13.0963C12.8181 12.7605 12.5926 12.535 12.5926 12.2568Z" fill="#87959F"/>
<path d="M2.85432 1.17531C2.85432 0.526204 3.38052 0 4.02962 0C4.67873 0 5.20493 0.526204 5.20493 1.17531V1.84691C5.20493 2.49602 4.67873 3.02222 4.02962 3.02222C3.38052 3.02222 2.85432 2.49602 2.85432 1.84691V1.17531Z" fill="white"/>
<path d="M11.7531 1.17531C11.7531 0.526204 12.2793 0 12.9284 0C13.5775 0 14.1037 0.526204 14.1037 1.17531V1.84691C14.1037 2.49602 13.5775 3.02222 12.9284 3.02222C12.2793 3.02222 11.7531 2.49602 11.7531 1.84691V1.17531Z" fill="white"/>
</svg>
