<svg width="24" height="22" viewBox="0 0 24 22" fill="none" xmlns="http://www.w3.org/2000/svg">
<g filter="url(#filter0_d_251_20)">
<path d="M19.3246 0H4.67629C4.30295 0 4 0.300121 4 0.670489V10.8662C4 11.2368 4.30295 11.5372 4.67629 11.5372H7.32377V13.4649C7.32377 13.9853 7.66792 14.1556 8.0881 13.8443L11.2031 11.5376H19.3242C19.6973 11.5376 20 11.2373 20 10.8674V0.670489C20.0012 0.300121 19.6978 0 19.3246 0ZM8.31031 6.72613C7.73241 6.72613 7.26398 6.26171 7.26398 5.68877C7.26398 5.1156 7.73241 4.65142 8.31031 4.65142C8.88844 4.65142 9.35687 5.1156 9.35687 5.68877C9.35617 6.26171 8.88773 6.72613 8.31031 6.72613ZM12.0006 6.72613C11.4229 6.72613 10.9545 6.26171 10.9545 5.68877C10.9545 5.1156 11.4229 4.65142 12.0006 4.65142C12.5785 4.65142 13.0472 5.1156 13.0472 5.68877C13.0467 6.26171 12.5785 6.72613 12.0006 6.72613ZM15.6916 6.72613C15.1132 6.72613 14.6445 6.26171 14.6445 5.68877C14.6445 5.1156 15.1132 4.65142 15.6916 4.65142C16.2692 4.65142 16.7374 5.1156 16.7374 5.68877C16.7377 6.26171 16.2695 6.72613 15.6916 6.72613Z" fill="white"/>
</g>
<defs>
<filter id="filter0_d_251_20" x="0" y="0" width="24" height="22" filterUnits="userSpaceOnUse" color-interpolation-filters="sRGB">
<feFlood flood-opacity="0" result="BackgroundImageFix"/>
<feColorMatrix in="SourceAlpha" type="matrix" values="0 0 0 0 0 0 0 0 0 0 0 0 0 0 0 0 0 0 127 0" result="hardAlpha"/>
<feOffset dy="4"/>
<feGaussianBlur stdDeviation="2"/>
<feComposite in2="hardAlpha" operator="out"/>
<feColorMatrix type="matrix" values="0 0 0 0 0 0 0 0 0 0 0 0 0 0 0 0 0 0 0.25 0"/>
<feBlend mode="normal" in2="BackgroundImageFix" result="effect1_dropShadow_251_20"/>
<feBlend mode="normal" in="SourceGraphic" in2="effect1_dropShadow_251_20" result="shape"/>
</filter>
</defs>
</svg>
