<svg width="1080" height="1080" viewBox="0 0 1080 1080" fill="none" xmlns="http://www.w3.org/2000/svg">
<path d="M731.53 428.25C732.19 427.957 732.832 427.623 733.45 427.25C737.71 425.054 742.118 423.157 746.64 421.57C753.271 419.292 760.081 417.576 767 416.44C770 415.92 773 415.49 776 415.19C778.66 414.92 781.33 414.64 784 414.42C785.54 414.29 787.1 414.28 788.64 414.18C794.64 413.77 800.64 413.86 806.64 413.85C809.71 413.85 812.78 414.01 815.85 414.21C819.85 414.46 823.85 414.87 827.85 415.41C836.435 416.58 844.924 418.372 853.25 420.77C861.368 423.11 869.298 426.062 876.97 429.6C883.521 432.621 889.854 436.096 895.92 440C901.956 443.882 907.695 448.208 913.09 452.94C914.76 454.39 916.38 455.94 917.97 457.45C919.117 458.57 920.253 459.707 921.38 460.86C921.545 461.083 921.756 461.268 922 461.4L922.54 462.53C922.618 462.995 922.763 463.446 922.97 463.87C924.97 469.87 926.97 475.87 928.97 481.87C929.91 484.71 930.85 487.55 931.76 490.4C933.64 496.28 935.63 502.12 937.58 507.98C938.14 509.67 938.93 511.25 939.65 512.87C941.65 517.45 943.6 522.08 945.31 526.8C947.389 532.524 949.122 538.368 950.5 544.3C951.21 547.37 951.8 550.46 952.29 553.58C952.67 556.06 952.98 558.58 953.21 561.06C953.34 562.4 953.38 563.76 953.47 565.11C953.59 567.02 953.57 568.93 953.61 570.84C953.65 572.75 953.54 574.94 953.39 576.98C953.143 580.203 952.726 583.411 952.14 586.59C951.237 591.612 949.85 596.535 948 601.29C946.36 605.39 944.352 609.333 942 613.07C939.711 616.737 937.136 620.218 934.3 623.48C932.408 625.674 930.405 627.77 928.3 629.76C923.817 633.93 918.971 637.692 913.82 641C910.807 642.94 907.727 644.753 904.58 646.44C902.58 647.53 900.49 648.55 898.43 649.56L898.04 649.72C897.89 649.77 897.82 649.72 897.78 649.56C897.78 649.17 898.06 648.97 898.28 648.74C900.28 646.74 902.28 644.86 904.06 642.74C905.84 640.62 907.82 638.47 909.57 636.22C913.014 631.947 916.18 627.458 919.05 622.78C920.45 620.5 921.79 618.18 923.05 615.78C923.903 614.12 924.733 612.453 925.54 610.78C926.22 609.44 926.81 608.05 927.37 606.66C927.954 605.424 928.475 604.159 928.93 602.87C928.957 602.794 928.991 602.721 929.03 602.65C929.11 602.48 929.17 602.29 929.24 602.11C929.427 601.687 929.587 601.253 929.72 600.81C929.966 600.24 930.176 599.656 930.35 599.06C930.42 598.89 930.48 598.71 930.54 598.53L930.72 598.02C930.78 597.85 930.83 597.68 930.89 597.52C930.95 597.36 931 597.18 931.05 597.02L931.22 596.52C931.28 596.36 931.33 596.19 931.39 596.03C931.45 595.87 931.48 595.77 931.52 595.63C931.56 595.49 931.61 595.36 931.65 595.22C931.792 594.831 931.909 594.434 932 594.03C932.019 593.959 932.042 593.888 932.07 593.82C932.13 593.69 932.19 593.56 932.24 593.43C932.337 593.201 932.411 592.964 932.46 592.72C932.46 592.58 932.46 592.45 932.53 592.31C932.541 592.245 932.557 592.182 932.58 592.12C932.615 591.959 932.615 591.791 932.58 591.63C932.57 591.562 932.584 591.492 932.621 591.433C932.658 591.374 932.714 591.331 932.78 591.31C932.85 591.31 932.88 591.31 932.91 591.41C932.94 591.51 932.91 591.21 932.91 591.11C932.97 590.82 933.06 590.53 933.11 590.23C933.125 590.097 933.125 589.963 933.11 589.83C933.098 589.766 933.105 589.7 933.13 589.639C933.155 589.579 933.197 589.527 933.25 589.49C933.42 589.4 933.25 589.28 933.25 589.17C933.235 589.104 933.24 589.036 933.265 588.973C933.29 588.91 933.334 588.857 933.39 588.82C933.56 588.73 933.39 588.61 933.39 588.5C933.375 588.435 933.38 588.368 933.403 588.306C933.426 588.243 933.467 588.189 933.52 588.15C933.7 588.07 933.52 587.95 933.52 587.84C933.504 587.775 933.508 587.707 933.531 587.645C933.554 587.582 933.596 587.528 933.65 587.49C933.82 587.4 933.65 587.28 933.65 587.17C933.635 587.104 933.64 587.036 933.665 586.973C933.69 586.91 933.734 586.857 933.79 586.82C933.96 586.74 933.79 586.61 933.79 586.5C933.773 586.434 933.778 586.365 933.803 586.302C933.828 586.239 933.873 586.186 933.93 586.15C934.13 586.01 933.93 585.85 933.93 585.7C933.912 585.632 933.915 585.561 933.938 585.495C933.961 585.429 934.004 585.372 934.06 585.33C934.23 585.24 934.06 585.11 934.06 585C934.041 584.932 934.047 584.86 934.076 584.796C934.106 584.732 934.157 584.68 934.22 584.65C934.51 584.65 934.22 584.37 934.36 584.27C934.372 584.199 934.389 584.129 934.41 584.06C934.48 583.82 934.48 583.57 934.54 583.33C934.6 583.09 934.62 582.83 934.68 582.58C934.765 582.313 934.765 582.027 934.68 581.76C934.658 581.692 934.654 581.62 934.668 581.55C934.682 581.48 934.714 581.414 934.76 581.36C934.791 581.346 934.825 581.338 934.86 581.338C934.895 581.338 934.929 581.346 934.96 581.36C934.96 581.46 934.88 581.48 934.96 581.43C935.04 581.38 934.96 581.31 934.96 581.25C934.96 581.03 935.04 580.82 935.05 580.6C935.059 580.405 935.082 580.211 935.12 580.02C935.22 579.71 935.19 579.37 935.28 579.02C935.37 578.67 935.36 578.36 935.44 578.02C935.52 577.68 935.52 577.37 935.6 577.02C935.662 576.829 935.7 576.631 935.71 576.43C935.797 576.28 935.894 576.137 936 576C936.08 575.621 936.13 575.237 936.15 574.85C936.221 574.648 936.248 574.433 936.23 574.22C936.22 574.15 936.22 574.08 936.23 574.01C936.261 573.808 936.24 573.602 936.17 573.41C936.141 573.31 936.139 573.205 936.166 573.104C936.192 573.004 936.245 572.912 936.32 572.84C936.32 572.84 936.46 572.91 936.41 572.77C936.4 572.717 936.4 572.663 936.41 572.61C936.446 572.425 936.473 572.238 936.49 572.05C936.484 571.983 936.484 571.917 936.49 571.85C936.53 571.682 936.53 571.508 936.49 571.34C936.485 571.27 936.485 571.2 936.49 571.13C936.524 570.881 936.497 570.626 936.41 570.39C936.41 570.12 936.34 569.85 936.61 569.67C936.75 569.67 936.75 569.8 936.84 569.84C936.93 569.88 936.77 569.71 936.7 569.66C936.665 569.618 936.64 569.567 936.628 569.513C936.616 569.46 936.616 569.404 936.63 569.35C936.672 569.135 936.699 568.918 936.71 568.7C936.72 568.588 936.74 568.478 936.77 568.37C936.855 568.134 936.855 567.876 936.77 567.64C936.74 567.492 936.74 567.339 936.77 567.19C936.834 566.973 936.865 566.747 936.86 566.52C936.868 566.365 936.891 566.211 936.93 566.06C937.025 565.805 937.025 565.525 936.93 565.27C936.88 565.026 936.88 564.774 936.93 564.53C937.011 564.241 937.039 563.939 937.01 563.64C937 563.249 937.02 562.858 937.07 562.47C937.198 562.149 937.198 561.791 937.07 561.47C936.93 559.05 937.07 556.64 937.01 554.23C936.95 550.99 936.68 547.76 936.37 544.53C935.872 539.397 935.088 534.295 934.02 529.25C932.324 521.046 929.977 512.991 927 505.16C925.18 500.42 923.16 495.76 920.88 491.22C916.069 481.424 910.118 472.23 903.15 463.83C899.501 459.614 895.583 455.639 891.42 451.93C887.311 448.123 883.001 444.538 878.51 441.19C872.946 437.035 866.972 433.46 860.68 430.52C852.82 426.854 844.447 424.406 835.85 423.26C833.29 422.92 830.73 422.74 828.15 422.56C825.603 422.395 823.05 422.365 820.5 422.47C814.514 422.708 808.558 423.433 802.69 424.64C794.055 426.477 785.573 428.974 777.32 432.11C773.123 433.674 769.011 435.456 765 437.45C757.785 441.018 750.99 445.378 744.74 450.45C742.64 452.17 740.62 453.98 738.64 455.85C730.62 463.642 723.633 472.43 717.85 482C714.52 487.32 711.45 492.79 708.58 498.37C704.58 506.06 700.51 513.68 696.33 521.25C695.33 523.15 694.33 525.07 693.22 526.94C692.92 527.45 693.14 528.12 692.62 528.52C692.18 528.25 692.18 527.8 692.15 527.37C692.175 526.878 692.145 526.385 692.06 525.9C691.9 524.38 692.06 522.85 691.99 521.32C691.92 518.32 691.99 515.32 692.18 512.26C692.527 506.617 693.194 500.997 694.18 495.43C695.293 489.257 696.857 483.174 698.86 477.23C702.595 466.11 707.99 455.618 714.86 446.11C718.905 440.54 723.447 435.349 728.43 430.6C728.81 430.23 729.24 429.93 729.65 429.6C730.239 429.099 730.867 428.648 731.53 428.25Z" fill="#87959E"/>
<path d="M676.21 563.57C676.408 563.304 676.542 562.996 676.6 562.67C677.95 558.72 679.42 554.82 681.09 550.99C682.18 548.48 683.32 545.99 684.48 543.51C685.88 540.51 687.39 537.59 688.87 534.64C689.87 532.64 690.97 530.64 692.05 528.64C692.196 528.382 692.255 528.084 692.22 527.79C692.17 527.13 692.22 526.46 692.22 525.79C692.53 526.19 692.36 526.64 692.37 527.06C692.342 527.552 692.457 528.042 692.7 528.47C693.005 529.151 693.135 529.896 693.08 530.64C693.25 533.93 693.58 537.21 693.98 540.48C694.61 545.6 695.48 550.68 696.55 555.73C697.67 560.97 699.05 566.14 700.64 571.26C702.505 577.274 704.736 583.168 707.32 588.91C709.777 594.448 712.641 599.796 715.89 604.91C718.115 608.426 720.602 611.769 723.33 614.91C725.39 617.27 727.58 619.51 729.6 621.91C731.31 623.91 733.05 625.91 734.8 627.86C735.52 628.67 736.25 629.47 736.98 630.27C743.05 636.869 749.797 642.812 757.11 648C760.641 650.476 764.314 652.743 768.11 654.79C772.952 657.386 777.999 659.58 783.2 661.35C789.269 663.424 795.515 664.937 801.86 665.87C805.29 666.37 808.73 666.76 812.19 666.98C816.368 667.247 820.556 667.303 824.74 667.15C828.84 667.01 832.92 666.64 837 666.15C837.109 666.135 837.221 666.135 837.33 666.15C837.45 666.21 837.58 666.27 837.71 666.15C838.05 665.979 838.438 665.93 838.81 666.01C838.93 666.12 839.02 666.1 839.1 666.01C839.75 665.82 840.423 665.723 841.1 665.72C841.236 665.74 841.376 665.719 841.5 665.66C841.621 665.589 841.756 665.544 841.895 665.529C842.035 665.513 842.176 665.527 842.31 665.57C842.4 665.68 842.48 665.68 842.54 665.57C842.65 665.488 842.779 665.434 842.914 665.411C843.05 665.389 843.189 665.399 843.32 665.44C843.454 665.447 843.587 665.412 843.7 665.34C843.791 665.287 843.893 665.254 843.998 665.242C844.103 665.23 844.209 665.239 844.31 665.27C844.44 665.281 844.57 665.249 844.68 665.18C844.853 665.064 845.064 665.018 845.27 665.05C845.4 665.09 845.54 665.09 845.67 665.05C845.849 664.938 846.061 664.892 846.27 664.92C846.394 664.96 846.526 664.96 846.65 664.92C846.795 664.835 846.962 664.793 847.13 664.8C847.26 664.82 847.393 664.799 847.51 664.74C847.683 664.633 847.888 664.587 848.09 664.61C848.213 664.631 848.34 664.61 848.45 664.55C848.594 664.463 848.763 664.428 848.93 664.45C849.054 664.49 849.186 664.49 849.31 664.45C849.452 664.366 849.615 664.325 849.78 664.33C849.901 664.365 850.029 664.365 850.15 664.33C850.29 664.242 850.455 664.2 850.62 664.21C850.738 664.244 850.862 664.244 850.98 664.21C851.118 664.126 851.278 664.084 851.44 664.09C851.564 664.101 851.687 664.069 851.79 664C851.927 663.913 852.09 663.878 852.25 663.9C852.367 663.939 852.493 663.939 852.61 663.9C852.717 663.831 852.843 663.799 852.97 663.81C853.114 663.869 853.276 663.869 853.42 663.81C853.504 663.749 853.607 663.721 853.71 663.73C853.85 663.73 854.02 663.89 854.14 663.67C854.182 663.614 854.239 663.571 854.305 663.546C854.37 663.522 854.441 663.516 854.51 663.53C854.66 663.53 854.82 663.71 854.96 663.53C854.999 663.473 855.054 663.429 855.118 663.404C855.182 663.379 855.253 663.374 855.32 663.39C855.43 663.39 855.55 663.53 855.63 663.39C855.666 663.337 855.716 663.296 855.774 663.271C855.833 663.246 855.897 663.239 855.96 663.25C856.082 663.279 856.205 663.299 856.33 663.31C856.459 663.299 856.587 663.272 856.71 663.23C856.804 663.199 856.901 663.179 857 663.17C857.171 663.162 857.339 663.128 857.5 663.07L857.8 663C857.94 662.971 858.077 662.93 858.21 662.88H858.43C858.837 662.825 859.238 662.734 859.63 662.61L860.07 662.51C860.25 662.51 860.43 662.42 860.61 662.38L861.03 662.27L861.68 662.11C861.9 662.05 862.12 662.01 862.34 661.94C862.488 661.902 862.638 661.875 862.79 661.86C863.01 661.86 863.23 661.75 863.45 661.71C863.67 661.67 863.88 661.59 864.1 661.55L864.54 661.43C864.95 661.33 865.35 661.24 865.75 661.12L865.97 661.05C866.22 660.98 866.48 660.9 866.74 660.85L867.07 660.75C867.648 660.624 868.219 660.467 868.78 660.28C868.892 660.244 869.005 660.214 869.12 660.19C869.427 660.128 869.728 660.041 870.02 659.93C870.61 659.8 871.17 659.59 871.75 659.44L871.97 659.37C872.32 659.27 872.67 659.2 872.97 659.08C873.83 658.79 874.7 658.56 875.55 658.27L875.79 658.19C878.02 657.48 880.24 656.71 882.46 655.98L882.68 655.9C882.94 655.842 883.192 655.751 883.43 655.63C883.74 655.52 884.06 655.42 884.37 655.3L884.58 655.23C884.824 655.158 885.062 655.064 885.29 654.95C885.6 654.84 885.93 654.75 886.23 654.61L886.76 654.39C887.34 654.18 887.91 653.93 888.48 653.71C888.78 653.62 889.04 653.47 889.33 653.37C889.62 653.27 890.02 653.09 890.33 652.96C890.5 652.89 890.66 652.82 890.84 652.76L891.24 652.6C891.598 652.425 891.966 652.268 892.34 652.13C892.6 652.01 892.88 651.92 893.14 651.81L893.34 651.72C893.64 651.6 893.92 651.44 894.21 651.3C894.41 651.237 894.607 651.164 894.8 651.08C895.09 650.95 895.37 650.8 895.66 650.66L895.95 650.56L896.33 650.42C896.51 650.33 896.69 650.24 896.86 650.14C897.073 650.029 897.294 649.932 897.52 649.85C897.553 649.843 897.588 649.844 897.621 649.853C897.654 649.861 897.684 649.878 897.71 649.9L897.9 650.11C897.396 650.394 896.938 650.751 896.54 651.17C893.64 654.047 890.525 656.698 887.22 659.1C884.16 661.32 880.99 663.4 877.73 665.31C877.61 665.38 877.47 665.42 877.4 665.55C877.345 665.615 877.285 665.675 877.22 665.73C877.07 665.82 876.95 665.99 876.73 665.91L876.56 666.04C876.405 666.18 876.234 666.301 876.05 666.4C875.9 666.5 875.77 666.66 875.56 666.59L875.38 666.71C875.223 666.85 875.052 666.974 874.87 667.08C874.77 667.17 874.64 667.2 874.55 667.3C874.46 667.4 874.29 667.3 874.19 667.42C873.94 667.64 873.61 667.73 873.35 667.93C873.26 668.04 873.1 668.01 873 668.1C872.891 668.182 872.777 668.259 872.66 668.33C872.5 668.33 872.37 668.53 872.18 668.45L872 668.58C871.275 669.016 870.527 669.413 869.76 669.77C869.426 669.851 869.112 670 868.84 670.21C867.94 670.7 867 671.12 866.09 671.6C865.97 671.71 865.78 671.6 865.67 671.77C865.58 671.88 865.42 671.85 865.32 671.95C864.81 672.15 864.32 672.43 863.82 672.62C863.73 672.73 863.58 672.7 863.48 672.8C863.14 672.89 862.86 673.17 862.48 673.15L862.32 673.26C862.25 673.41 862.07 673.38 861.97 673.47L860.8 673.97C860.599 674.094 860.366 674.157 860.13 674.15L859.96 674.25C859.588 674.469 859.196 674.653 858.79 674.8C858.53 674.95 858.22 674.99 857.95 675.14C857.68 675.29 857.37 675.34 857.1 675.48C856.84 675.64 856.53 675.68 856.26 675.82C855.899 676.008 855.505 676.124 855.1 676.16L854.93 676.27C854.7 676.51 854.35 676.49 854.09 676.66C854.069 676.682 854.043 676.7 854.015 676.712C853.986 676.724 853.956 676.73 853.925 676.73C853.894 676.73 853.864 676.724 853.835 676.712C853.807 676.7 853.781 676.682 853.76 676.66C853.726 676.653 853.69 676.658 853.659 676.674C853.628 676.691 853.603 676.717 853.59 676.75C853.247 676.994 852.841 677.133 852.42 677.15C852.384 677.149 852.348 677.16 852.319 677.182C852.29 677.204 852.269 677.235 852.26 677.27C852.17 677.41 852.06 677.41 851.93 677.33C851.894 677.324 851.858 677.329 851.825 677.346C851.793 677.362 851.767 677.388 851.75 677.42C851.155 677.705 850.54 677.946 849.91 678.14C849.865 678.182 849.806 678.206 849.745 678.206C849.684 678.206 849.625 678.182 849.58 678.14C849.562 678.136 849.542 678.135 849.524 678.138C849.505 678.141 849.487 678.148 849.471 678.159C849.456 678.169 849.442 678.182 849.431 678.198C849.421 678.214 849.414 678.231 849.41 678.25C849.392 678.277 849.367 678.299 849.338 678.314C849.31 678.329 849.277 678.337 849.245 678.337C849.212 678.337 849.18 678.329 849.152 678.314C849.123 678.299 849.098 678.277 849.08 678.25C849.042 678.246 849.004 678.257 848.973 678.279C848.942 678.301 848.919 678.333 848.91 678.37C848.894 678.398 848.873 678.423 848.846 678.441C848.82 678.46 848.789 678.472 848.757 678.477C848.725 678.481 848.693 678.479 848.662 678.469C848.631 678.459 848.603 678.442 848.58 678.42C848.49 678.42 848.43 678.42 848.41 678.54C848.39 678.66 848.21 678.67 848.08 678.54C848.043 678.534 848.005 678.542 847.974 678.562C847.942 678.582 847.919 678.614 847.91 678.65C847.82 678.79 847.71 678.79 847.58 678.65C847.542 678.646 847.504 678.657 847.473 678.679C847.442 678.701 847.419 678.733 847.41 678.77C847.32 678.91 847.21 678.9 847.08 678.82C847.042 678.816 847.004 678.827 846.973 678.849C846.942 678.871 846.919 678.903 846.91 678.94C846.82 679.07 846.71 679.07 846.58 678.94C846.544 678.933 846.508 678.94 846.476 678.958C846.445 678.977 846.421 679.006 846.41 679.04C845.78 679.34 845.104 679.529 844.41 679.6C844.372 679.598 844.335 679.609 844.305 679.631C844.274 679.653 844.251 679.684 844.24 679.72C844.226 679.748 844.205 679.772 844.179 679.791C844.154 679.81 844.124 679.822 844.093 679.827C844.062 679.832 844.03 679.829 844 679.819C843.97 679.809 843.942 679.792 843.92 679.77C843.883 679.763 843.845 679.769 843.812 679.787C843.779 679.805 843.753 679.835 843.74 679.87C843.39 680.12 842.94 680.08 842.57 680.26C842.525 680.302 842.466 680.326 842.405 680.326C842.344 680.326 842.285 680.302 842.24 680.26C842.174 680.246 842.105 680.25 842.041 680.273C841.978 680.296 841.922 680.337 841.88 680.39C841.63 680.52 841.39 680.72 841.07 680.59C841.035 680.587 840.999 680.595 840.969 680.613C840.939 680.631 840.914 680.658 840.9 680.69C840.607 680.89 840.25 680.972 839.9 680.92C839.835 680.908 839.769 680.913 839.707 680.936C839.645 680.959 839.591 680.998 839.55 681.05C839.47 681.19 839.36 681.17 839.25 681.05C839.212 681.041 839.171 681.047 839.137 681.068C839.104 681.089 839.079 681.122 839.07 681.16C839.056 681.188 839.035 681.212 839.009 681.231C838.984 681.25 838.954 681.262 838.923 681.267C838.892 681.272 838.86 681.269 838.83 681.259C838.8 681.249 838.772 681.232 838.75 681.21C838.684 681.192 838.614 681.194 838.549 681.217C838.485 681.241 838.429 681.284 838.39 681.34C838.3 681.47 838.19 681.46 838.08 681.34C838.014 681.328 837.946 681.334 837.882 681.356C837.819 681.379 837.763 681.418 837.72 681.47C837.64 681.61 837.53 681.59 837.42 681.47C837.384 681.462 837.347 681.467 837.314 681.483C837.281 681.5 837.255 681.527 837.24 681.56C837.1 681.77 836.93 681.7 836.75 681.63C836.57 681.56 836.6 681.63 836.58 681.75C836.56 681.87 836.32 681.85 836.18 681.87C836.076 681.901 835.978 681.948 835.89 682.01C835.838 682.027 835.783 682.032 835.729 682.023C835.675 682.014 835.624 681.993 835.58 681.96C835.514 681.943 835.445 681.948 835.382 681.973C835.319 681.998 835.266 682.043 835.23 682.1C835.13 682.22 835.03 682.21 834.91 682.1C834.844 682.087 834.777 682.094 834.715 682.119C834.653 682.144 834.599 682.186 834.56 682.24C834.542 682.265 834.519 682.285 834.492 682.299C834.465 682.313 834.435 682.32 834.405 682.32C834.375 682.32 834.345 682.313 834.318 682.299C834.291 682.285 834.268 682.265 834.25 682.24C834.186 682.222 834.118 682.223 834.054 682.242C833.99 682.262 833.933 682.299 833.89 682.35C833.559 682.573 833.152 682.656 832.76 682.58C832.72 682.574 832.68 682.583 832.647 682.605C832.613 682.627 832.59 682.661 832.58 682.7C832.43 682.87 832.26 682.83 832.08 682.7C832.014 682.688 831.947 682.694 831.885 682.719C831.823 682.744 831.769 682.786 831.73 682.84C831.711 682.863 831.688 682.882 831.661 682.894C831.634 682.907 831.605 682.914 831.575 682.914C831.545 682.914 831.516 682.907 831.489 682.894C831.462 682.882 831.439 682.863 831.42 682.84C831.355 682.821 831.285 682.822 831.221 682.843C831.157 682.865 831.1 682.905 831.06 682.96C830.93 683.15 830.77 683.07 830.61 683.02C830.542 682.996 830.468 682.995 830.4 683.016C830.331 683.038 830.272 683.081 830.23 683.14C830.211 683.163 830.188 683.182 830.161 683.194C830.134 683.207 830.105 683.214 830.075 683.214C830.045 683.214 830.016 683.207 829.989 683.194C829.962 683.182 829.939 683.163 829.92 683.14C829.855 683.123 829.786 683.126 829.722 683.147C829.659 683.168 829.602 683.208 829.56 683.26C829.44 683.45 829.27 683.37 829.11 683.33C829.044 683.303 828.971 683.3 828.903 683.322C828.835 683.344 828.777 683.389 828.74 683.45C828.63 683.6 828.46 683.52 828.32 683.55L827.9 683.69C827.852 683.715 827.799 683.727 827.745 683.727C827.691 683.727 827.638 683.715 827.59 683.69C827.525 683.671 827.455 683.672 827.391 683.693C827.327 683.715 827.27 683.755 827.23 683.81C827.09 684 826.92 683.94 826.75 683.81C826.685 683.796 826.618 683.801 826.556 683.824C826.494 683.847 826.44 683.888 826.4 683.94C826.26 684.13 826.09 684.07 825.92 683.94C825.75 683.81 825.65 683.94 825.57 684.06C825.49 684.18 825.19 684.14 825.01 684.19L824.55 684.33C824.43 684.34 824.31 684.34 824.19 684.33C823.88 684.33 823.59 684.61 823.26 684.42C823.07 684.42 822.88 684.37 822.74 684.56C822.6 684.75 822.52 684.66 822.39 684.66C822.033 684.784 821.658 684.845 821.28 684.84C821 684.91 820.73 685.08 820.42 684.93H819.74L815.17 684.22C815.033 684.21 814.896 684.21 814.76 684.22C813.717 684.219 812.678 684.081 811.67 683.81C807.145 683.009 802.662 681.981 798.24 680.73C795.37 679.92 792.54 678.97 789.72 678.02C784.708 676.179 779.821 674.015 775.09 671.54C772.67 670.26 770.24 669 767.85 667.66C767.36 667.33 766.79 667.14 766.3 666.81C765.81 666.48 765.3 666.29 764.8 665.97C764.3 665.65 763.94 665.62 763.66 665.21C763.356 664.962 763.02 664.757 762.66 664.6C762.59 664.65 762.55 664.6 762.53 664.6C762.23 664.347 761.893 664.141 761.53 663.99C761.46 663.99 761.41 663.99 761.4 663.99C761.336 663.892 761.248 663.812 761.145 663.756C761.042 663.7 760.927 663.671 760.81 663.67C760.43 663.46 759.99 663.37 759.72 663C759.419 662.743 759.082 662.531 758.72 662.37C758.462 662.358 758.218 662.247 758.04 662.06C757.81 661.81 757.39 661.85 757.24 661.5C756.938 661.244 756.601 661.032 756.24 660.87C756.149 660.874 756.059 660.857 755.976 660.82C755.893 660.784 755.819 660.729 755.76 660.66C755.49 660.44 755.11 660.4 754.92 660.08C754.881 660.02 754.829 659.968 754.769 659.928C754.709 659.889 754.641 659.862 754.57 659.85C754.49 659.85 754.44 659.85 754.42 659.75C754.33 659.636 754.202 659.558 754.06 659.53C754 659.53 753.95 659.53 753.93 659.53C753.159 658.944 752.351 658.41 751.51 657.93C745.937 654.397 740.523 650.637 735.27 646.65C731.05 643.46 726.95 640.13 723 636.65C721.32 635.16 719.64 633.65 718 632.11C716.24 630.39 714.48 628.66 712.74 626.91C709.35 623.5 706.18 619.91 703.13 616.17C699.703 612.009 696.499 607.669 693.53 603.17C691.423 599.95 689.45 596.647 687.61 593.26C686.103 590.46 684.68 587.613 683.34 584.72C683.28 584.59 683.19 584.49 683.12 584.37C682.412 582.985 681.777 581.563 681.22 580.11C681.055 579.826 680.934 579.52 680.86 579.2C680.831 579.085 680.78 578.976 680.71 578.88C680.499 578.425 680.325 577.953 680.19 577.47C679.99 577.14 679.94 576.74 679.73 576.47C679.703 576.358 679.669 576.248 679.63 576.14C679.518 575.765 679.374 575.4 679.2 575.05C678.936 574.373 678.736 573.674 678.6 572.96C678.6 572.87 678.6 572.81 678.51 572.78C678.42 572.75 678.35 572.6 678.42 572.47C678.43 572.453 678.436 572.433 678.437 572.413C678.438 572.394 678.435 572.374 678.427 572.355C678.419 572.337 678.407 572.321 678.392 572.308C678.377 572.295 678.359 572.285 678.34 572.28C678.18 572.21 678.19 572.1 678.25 571.97C678.26 571.953 678.266 571.933 678.267 571.913C678.268 571.894 678.265 571.874 678.257 571.855C678.249 571.837 678.237 571.821 678.222 571.808C678.207 571.795 678.189 571.785 678.17 571.78C678.01 571.71 678.02 571.6 678.09 571.47C678.104 571.434 678.103 571.394 678.088 571.359C678.073 571.324 678.045 571.295 678.01 571.28C677.85 571.21 677.85 571.1 677.92 570.97C677.99 570.84 677.92 570.82 677.83 570.79C677.781 570.763 677.742 570.721 677.717 570.671C677.692 570.622 677.683 570.565 677.69 570.51C677.671 570.439 677.648 570.368 677.62 570.3C677.574 570.197 677.538 570.09 677.51 569.98C677.15 568.98 676.94 567.98 676.57 566.98C676.52 566.84 676.57 566.68 676.48 566.53C676.39 566.38 676.41 566.32 676.37 566.22C676.37 565.92 676.17 565.68 676.15 565.38C676.15 565.28 676.09 565.18 676.05 565.08C676.028 565.031 676.016 564.979 676.016 564.925C676.016 564.871 676.028 564.819 676.05 564.77C676.066 564.703 676.064 564.633 676.043 564.568C676.021 564.503 675.982 564.444 675.93 564.4C675.87 564.4 675.84 564.4 675.85 564.32C675.86 564.24 675.85 564.26 675.9 564.26L676.21 563.57Z" fill="#D3D6C7"/>
<path d="M922.54 462.48C923.763 463.602 924.906 464.808 925.96 466.09C928.38 468.8 930.65 471.63 932.82 474.54C936.042 478.879 938.991 483.415 941.65 488.12C942.9 490.31 944.1 492.53 945.21 494.79C947.868 500.188 950.205 505.737 952.21 511.41C954.137 516.924 955.773 522.535 957.11 528.22C958.27 533.14 959.24 538.103 960.02 543.11C960.56 546.55 961.02 550 961.37 553.46C961.56 555.39 961.72 557.31 961.87 559.24C961.96 560.35 961.95 561.45 962.02 562.56C962.2 563.22 961.93 563.91 962.16 564.56V576.04C961.94 576.64 962.16 577.28 962.02 577.89C962.02 579.16 961.95 580.43 961.83 581.7C961.62 584.15 961.37 586.59 961.04 589.03C960.71 591.47 960.31 593.95 959.84 596.39C958.816 601.658 957.423 606.848 955.67 611.92C954.131 616.371 952.297 620.714 950.18 624.92C947.316 630.548 943.945 635.903 940.11 640.92C936.817 645.198 933.192 649.21 929.27 652.92C923.89 658.008 918.007 662.534 911.71 666.43C907.64 668.963 903.423 671.25 899.08 673.28C892.451 676.374 885.577 678.916 878.53 680.88C873.863 682.213 869.143 683.28 864.37 684.08C861.037 684.653 857.727 685.123 854.44 685.49C852.35 685.73 850.25 685.87 848.15 686.01C846.5 686.12 844.83 686.15 843.15 686.25C840.46 686.4 837.77 686.35 835.09 686.31C833.21 686.31 831.33 686.23 829.45 686.08L825.97 685.86C824.24 685.73 822.51 685.53 820.77 685.36C820.47 685.21 820.53 685.06 820.77 684.92C821.01 684.78 821.33 684.84 821.6 684.74C821.87 684.64 822.31 684.68 822.6 684.57C822.703 684.56 822.807 684.56 822.91 684.57C822.98 684.57 823.03 684.71 823.11 684.57C823.19 684.43 822.98 684.51 823 684.42C823.02 684.33 823.3 684.21 823.49 684.22C823.815 684.323 824.165 684.323 824.49 684.22C824.71 684.22 824.93 684.16 825.15 684.09C825.37 684.02 825.63 684.14 825.82 683.92C825.856 683.863 825.909 683.818 825.972 683.793C826.035 683.768 826.104 683.763 826.17 683.78C826.33 683.78 826.51 684.01 826.66 683.78C826.703 683.726 826.761 683.685 826.826 683.662C826.892 683.639 826.962 683.635 827.03 683.65C827.18 683.65 827.34 683.83 827.48 683.65C827.522 683.597 827.578 683.555 827.641 683.531C827.704 683.506 827.773 683.499 827.84 683.51C828.068 683.58 828.312 683.58 828.54 683.51C828.68 683.44 828.9 683.57 828.98 683.34C829.02 683.281 829.076 683.236 829.142 683.209C829.208 683.182 829.28 683.176 829.35 683.19C829.5 683.19 829.67 683.37 829.81 683.19C829.849 683.133 829.904 683.089 829.968 683.064C830.032 683.039 830.103 683.034 830.17 683.05C830.28 683.05 830.4 683.18 830.49 683.05C830.534 682.997 830.592 682.957 830.657 682.936C830.723 682.914 830.793 682.912 830.86 682.93C831.01 682.93 831.17 683.11 831.31 682.93C831.351 682.876 831.407 682.834 831.471 682.811C831.535 682.788 831.604 682.784 831.67 682.8C831.77 682.8 831.89 682.93 831.98 682.8C832.016 682.748 832.067 682.708 832.125 682.683C832.183 682.658 832.247 682.65 832.31 682.66C832.465 682.701 832.631 682.68 832.77 682.6C832.864 682.545 832.971 682.517 833.08 682.52C833.426 682.561 833.776 682.491 834.08 682.32C834.12 682.261 834.176 682.216 834.242 682.189C834.308 682.162 834.38 682.156 834.45 682.17C834.56 682.17 834.68 682.3 834.77 682.17C834.812 682.117 834.868 682.078 834.932 682.057C834.996 682.036 835.065 682.033 835.13 682.05C835.23 682.05 835.36 682.17 835.44 682C835.481 681.948 835.535 681.909 835.597 681.886C835.659 681.863 835.725 681.858 835.79 681.87C835.948 681.909 836.112 681.909 836.27 681.87C836.424 681.83 836.57 681.762 836.7 681.67C836.783 681.611 836.879 681.573 836.98 681.56C837.108 681.578 837.238 681.553 837.35 681.49C837.44 681.435 837.544 681.407 837.65 681.41C837.75 681.41 837.88 681.53 837.94 681.34C837.978 681.287 838.03 681.247 838.09 681.224C838.151 681.201 838.217 681.196 838.28 681.21C838.39 681.21 838.5 681.32 838.59 681.21C838.622 681.16 838.667 681.12 838.72 681.094C838.772 681.068 838.831 681.056 838.89 681.06C839.01 681.075 839.132 681.054 839.24 681C839.319 680.956 839.409 680.935 839.5 680.94C839.61 680.94 839.72 680.94 839.78 680.84C839.828 680.793 839.887 680.759 839.952 680.74C840.016 680.721 840.084 680.717 840.15 680.73C840.298 680.758 840.45 680.754 840.596 680.72C840.742 680.685 840.88 680.621 841 680.53C841.089 680.469 841.192 680.431 841.3 680.42C841.57 680.42 841.85 680.42 842.07 680.24C842.101 680.183 842.148 680.136 842.205 680.105C842.261 680.073 842.325 680.057 842.39 680.06C842.523 680.08 842.657 680.08 842.79 680.06L842.99 680.01C843.265 679.97 843.529 679.878 843.77 679.74C843.857 679.686 843.951 679.645 844.05 679.62C844.18 679.605 844.306 679.564 844.42 679.5C844.512 679.451 844.616 679.427 844.72 679.43C845.308 679.358 845.88 679.185 846.41 678.92C846.494 678.865 846.585 678.821 846.68 678.79C846.801 678.78 846.919 678.75 847.03 678.7C847.105 678.651 847.191 678.62 847.28 678.61C847.366 678.592 847.45 678.566 847.53 678.53C847.604 678.486 847.685 678.455 847.77 678.44C847.86 678.432 847.948 678.408 848.03 678.37C848.1 678.316 848.183 678.282 848.27 678.27C848.36 678.262 848.448 678.238 848.53 678.2C848.601 678.15 848.684 678.119 848.77 678.11C848.857 678.103 848.942 678.08 849.02 678.04C849.095 677.988 849.18 677.954 849.27 677.94C849.357 677.932 849.442 677.908 849.52 677.87C849.597 677.825 849.682 677.795 849.77 677.78C849.889 677.799 850.011 677.799 850.13 677.78L850.33 677.71C850.826 677.578 851.306 677.391 851.76 677.15C851.841 677.088 851.933 677.04 852.03 677.01C852.159 676.998 852.285 676.96 852.4 676.9C852.485 676.841 852.586 676.809 852.69 676.81C853.014 676.79 853.326 676.679 853.59 676.49C853.671 676.425 853.762 676.374 853.86 676.34C853.993 676.35 854.127 676.35 854.26 676.34L854.45 676.28C854.647 676.223 854.83 676.128 854.99 676C855.072 675.929 855.173 675.884 855.28 675.87C855.63 675.839 855.971 675.737 856.28 675.57L856.47 675.49C856.703 675.43 856.928 675.343 857.14 675.23L857.33 675.15C857.561 675.093 857.783 675.006 857.99 674.89L858.18 674.81C858.409 674.749 858.631 674.661 858.84 674.55L859.04 674.46C859.37 674.377 859.68 674.228 859.95 674.02C860.033 673.95 860.133 673.902 860.24 673.88C860.446 673.872 860.648 673.817 860.83 673.72L861.02 673.64C861.317 673.545 861.604 673.425 861.88 673.28L862.05 673.19C862.166 673.132 862.274 673.058 862.37 672.97C862.456 672.909 862.555 672.871 862.66 672.86C862.923 672.828 863.175 672.739 863.4 672.6L863.59 672.5L863.89 672.37C863.954 672.334 864.021 672.304 864.09 672.28C864.469 672.142 864.837 671.975 865.19 671.78L865.39 671.69L865.67 671.56L865.86 671.48L866.17 671.36C867.084 670.953 867.969 670.485 868.82 669.96C869.11 669.713 869.452 669.535 869.82 669.44C870.539 669.225 871.216 668.886 871.82 668.44C871.898 668.366 871.99 668.309 872.09 668.27C872.25 668.268 872.408 668.241 872.56 668.19C872.669 668.136 872.773 668.073 872.87 668C872.919 667.958 872.973 667.921 873.03 667.89L873.29 667.75L873.47 667.65C873.662 667.556 873.846 667.445 874.02 667.32L874.2 667.22C874.327 667.179 874.45 667.129 874.57 667.07L874.72 666.97L874.88 666.86C875.017 666.783 875.139 666.681 875.24 666.56C875.311 666.489 875.401 666.44 875.5 666.42C875.627 666.414 875.751 666.376 875.86 666.31C875.913 666.271 875.97 666.238 876.03 666.21C876.169 666.127 876.294 666.022 876.4 665.9C876.469 665.827 876.561 665.778 876.66 665.76C876.795 665.744 876.923 665.692 877.03 665.61L877.17 665.45L877.32 665.28C879.18 664.07 881.08 662.93 882.94 661.71C887.844 658.51 892.414 654.825 896.58 650.71C896.964 650.352 897.399 650.052 897.87 649.82C904.316 646.758 910.515 643.201 916.41 639.18C920.192 636.553 923.796 633.681 927.2 630.58C932.319 625.932 936.831 620.657 940.63 614.88C945.656 607.198 949.241 598.666 951.21 589.7C952.115 585.586 952.724 581.412 953.03 577.21C953.303 573.67 953.357 570.117 953.19 566.57C952.681 556.422 950.948 546.373 948.03 536.64C945.747 528.571 942.904 520.672 939.52 513C938.463 510.718 937.529 508.381 936.72 506C934.2 498.44 931.707 490.88 929.24 483.32C927.06 476.64 924.85 469.98 922.53 463.32C922.44 463.06 922.25 462.76 922.54 462.48Z" fill="#6C7983"/>
<path d="M671.56 586.21C671.605 586.177 671.643 586.136 671.67 586.087C671.698 586.039 671.715 585.985 671.72 585.93C671.83 584.47 671.91 583.01 672.08 581.56C672.3 579.56 672.58 577.56 672.96 575.56C673.52 572.56 674.23 569.68 675.05 566.78C675.329 565.684 675.663 564.603 676.05 563.54C676.079 563.519 676.114 563.508 676.15 563.508C676.186 563.508 676.221 563.519 676.25 563.54C676.291 563.597 676.318 563.663 676.33 563.732C676.343 563.801 676.339 563.872 676.32 563.94C676.39 564.01 675.99 564.14 676.32 564.18C676.371 564.226 676.408 564.284 676.429 564.349C676.451 564.414 676.454 564.483 676.44 564.55C676.405 564.722 676.405 564.898 676.44 565.07C676.62 565.6 676.75 566.13 676.89 566.67C677.23 567.78 677.54 568.9 677.89 570C677.936 570.136 678.004 570.265 678.09 570.38C678.153 570.459 678.197 570.551 678.22 570.65C678.234 570.742 678.257 570.833 678.29 570.92C678.342 570.995 678.376 571.08 678.39 571.17C678.398 571.26 678.422 571.348 678.46 571.43C678.512 571.505 678.546 571.59 678.56 571.68C678.567 571.772 678.594 571.86 678.64 571.94C678.686 572.02 678.717 572.108 678.73 572.2C678.754 572.296 678.788 572.39 678.83 572.48C678.879 572.572 678.903 572.676 678.9 572.78C679.01 573.473 679.218 574.147 679.52 574.78C679.65 575.17 679.77 575.57 679.93 575.95L680.02 576.16C680.143 576.521 680.286 576.875 680.45 577.22C680.624 577.784 680.845 578.333 681.11 578.86C681.774 580.669 682.549 582.436 683.43 584.15C683.84 584.41 683.89 584.89 684.08 585.29C687.286 592.059 690.997 598.577 695.18 604.79C698.187 609.19 701.403 613.43 704.83 617.51C707.17 620.32 709.6 623.06 712.14 625.69C713.57 627.18 715.14 628.6 716.57 630.07C720.76 634.25 725.22 638.07 729.79 641.85C736.324 647.136 743.13 652.076 750.18 656.65C751.48 657.51 752.85 658.25 754.07 659.21C754.13 659.28 754.07 659.56 754.3 659.38C754.383 659.387 754.462 659.418 754.528 659.47C754.594 659.521 754.643 659.591 754.67 659.67C754.67 659.89 754.76 659.74 754.83 659.67C755.003 659.714 755.153 659.821 755.25 659.97C755.411 660.154 755.613 660.298 755.84 660.39L756.02 660.5C756.163 660.594 756.329 660.646 756.5 660.65C756.892 660.753 757.242 660.977 757.5 661.29C757.61 661.58 757.91 661.64 758.14 661.79C758.38 661.999 758.682 662.122 759 662.14C759.39 662.247 759.739 662.47 760 662.78C760.21 663.18 760.61 663.25 761 663.37C761.251 663.404 761.48 663.533 761.64 663.73C761.64 664.09 761.83 663.73 761.89 663.83C762.245 663.929 762.564 664.127 762.81 664.4C762.75 664.75 762.98 664.4 763.04 664.49C763.431 664.591 763.78 664.811 764.04 665.12C764.24 665.53 764.7 665.57 765.04 665.79C765.514 666.105 766.012 666.383 766.53 666.62C767.025 666.936 767.539 667.22 768.07 667.47C769.32 668.24 770.64 668.9 771.93 669.59C777.706 672.816 783.724 675.588 789.93 677.88C796.72 680.328 803.701 682.215 810.8 683.52C812.18 683.78 813.57 684.01 814.97 684.21C816.38 684.45 817.8 684.6 819.21 684.81C819.48 684.81 819.85 684.74 819.91 685.19C818.944 685.416 817.966 685.583 816.98 685.69C815.48 685.91 813.98 686.12 812.47 686.31C811.24 686.46 810 686.57 808.76 686.7C807.2 686.85 805.63 687.03 804.07 687.15C803.13 687.22 802.19 687.29 801.25 687.33L794.53 687.57C792.42 687.66 790.32 687.7 788.22 687.65C786.28 687.65 784.34 687.58 782.41 687.49C780.67 687.41 778.94 687.28 777.2 687.16C774.89 687 772.58 686.79 770.28 686.49C759.749 685.21 749.459 682.411 739.73 678.18C736.88 676.95 734.1 675.57 731.36 674.12C728.62 672.67 725.96 671.06 723.36 669.35C721.02 667.82 718.72 666.23 716.5 664.53C714.8 663.24 713.14 661.91 711.5 660.53C709.57 658.87 707.72 657.11 705.84 655.4C703.96 653.69 702.42 652 700.84 650.24C697.179 646.275 693.776 642.079 690.65 637.68C687.861 633.751 685.275 629.682 682.9 625.49C681.35 622.77 679.9 620.01 678.52 617.19C677.057 614.207 675.784 611.134 674.71 607.99C673.721 604.968 672.959 601.876 672.43 598.74C672.18 597.22 672.06 595.68 671.89 594.14C671.7 593.26 671.69 592.36 671.56 591.48V586.21Z" fill="#868E77"/>
<path d="M731.53 428.25C732.001 427.602 732.583 427.043 733.25 426.6C734.71 425.33 736.25 424.1 737.71 422.89C740.93 420.31 744.3 417.89 747.71 415.67C751 413.52 754.4 411.55 757.87 409.67C760.043 408.497 762.243 407.38 764.47 406.32C768.25 404.54 772.09 402.89 775.99 401.4C778.68 400.4 781.39 399.4 784.12 398.49C787.99 397.23 791.88 396.08 795.82 395.05C797.77 394.54 799.72 394.05 801.71 393.68C803.17 393.41 804.65 393.22 806.13 393.04C807.77 392.83 809.42 392.67 811.07 392.58C812.116 392.465 813.168 392.405 814.22 392.4C815.145 392.327 816.073 392.303 817 392.33C817.299 392.379 817.605 392.351 817.89 392.25H819.89C820.81 392.347 821.736 392.373 822.66 392.33C822.962 392.303 823.266 392.327 823.56 392.4C825 392.4 826.43 392.53 827.87 392.62C829.31 392.71 830.94 392.87 832.48 393.03C834.02 393.19 835.72 393.38 837.33 393.6C840.063 393.973 842.783 394.43 845.49 394.97C848.71 395.62 851.91 396.36 855.08 397.26C858.56 398.26 862.01 399.38 865.4 400.68C869.494 402.279 873.5 404.094 877.4 406.12C880.19 407.55 882.89 409.12 885.55 410.77C888.326 412.519 890.997 414.429 893.55 416.49C894.55 417.31 895.55 418.24 896.55 419.09C897.55 419.94 898.69 421.09 899.72 422.09C902.514 424.929 905.054 428.008 907.31 431.29C909.59 434.595 911.651 438.046 913.48 441.62C915.42 445.39 917.14 449.25 918.76 453.17C919.82 455.717 920.82 458.293 921.76 460.9C921.804 461.027 921.837 461.158 921.86 461.29C921.39 461.36 921.17 460.98 920.86 460.72C919.1 459.04 917.4 457.29 915.62 455.62C911.316 451.599 906.767 447.849 902 444.39C896.055 440.114 889.801 436.283 883.29 432.93C873.09 427.663 862.364 423.483 851.29 420.46C842.784 418.104 834.113 416.393 825.35 415.34C822.03 414.94 818.69 414.67 815.35 414.43C808.28 413.92 801.21 414.11 794.15 414.17C790.44 414.17 786.73 414.46 783.03 414.76C777.81 415.18 772.6 415.76 767.43 416.6C757.491 418.145 747.794 420.968 738.58 425C736.69 425.804 734.844 426.709 733.05 427.71C732.6 428 732.15 428.43 731.53 428.25Z" fill="#6C7983"/>
<path d="M701.15 453.59C701.91 452.72 702.79 451.73 703.86 450.59C705.97 448.31 707.66 446.65 708.46 445.87C714.73 439.667 721.723 434.241 729.29 429.71C729.401 429.627 729.532 429.575 729.67 429.56C728.49 430.76 727.31 431.98 726.11 433.16C722.894 436.402 719.888 439.846 717.11 443.47C710.984 451.39 705.94 460.089 702.11 469.34C700.91 472.23 699.81 475.15 698.83 478.13C697.367 482.596 696.152 487.14 695.19 491.74C694.48 495.09 693.9 498.47 693.44 501.86C693.19 503.61 693.02 505.37 692.85 507.13C692.66 509.13 692.52 511.13 692.39 513.07C692.12 517.31 692.22 521.55 692.23 525.78C692.531 527.513 692.175 529.296 691.23 530.78C688.91 534.88 686.83 539.11 684.81 543.36C682.79 547.61 681 551.61 679.34 555.84C678.44 558.13 677.59 560.45 676.8 562.78C676.7 563.09 676.73 563.53 676.23 563.57H676.09C674.861 558.889 673.899 554.141 673.21 549.35C672.87 546.937 672.593 544.523 672.38 542.11C672.23 540.37 672.15 538.63 672.04 536.9C671.8 533.27 671.84 529.64 671.96 526.01C672.07 522.84 672.34 519.68 672.69 516.52C673.203 511.931 673.954 507.371 674.94 502.86C675.78 499.007 676.8 495.203 678 491.45C678.63 489.45 679.18 487.93 679.46 487.16C680.05 485.5 681.02 482.81 682.25 480.09C683.525 477.322 684.995 474.649 686.65 472.09C690.7 465.58 694.7 461 701.15 453.59Z" fill="#6C7983"/>
<path d="M887.65 600.53C887.073 600.607 886.545 600.895 886.17 601.34C884.035 603.651 881.692 605.76 879.17 607.64C878.89 607.85 878.73 608.18 878.48 608.32C878.23 608.46 877.88 608.05 877.48 607.95C875.853 607.456 874.176 607.148 872.48 607.03C872.23 607.03 871.97 607.03 871.79 606.8C871.38 606.303 870.791 605.987 870.15 605.92C869.873 605.881 869.611 605.771 869.39 605.6C868.97 605.256 868.464 605.032 867.927 604.953C867.39 604.874 866.842 604.942 866.34 605.15C865.8 605.29 865.34 605.45 864.73 605.55C863.925 605.594 863.128 605.372 862.461 604.918C861.794 604.465 861.295 603.805 861.04 603.04C860.82 602.27 860.85 602.22 861.58 601.94C861.96 601.8 862.38 601.69 862.77 601.59C863.342 601.494 863.906 601.361 864.46 601.19C866.186 600.477 867.73 599.387 868.98 598C869.304 597.687 869.53 597.286 869.631 596.847C869.732 596.408 869.704 595.949 869.55 595.526C869.395 595.102 869.121 594.733 868.761 594.462C868.401 594.191 867.97 594.031 867.52 594C867.302 593.96 867.081 593.94 866.86 593.94C865.68 593.88 864.49 593.86 863.3 593.78C863.159 593.767 863.023 593.725 862.9 593.656C862.777 593.587 862.67 593.493 862.586 593.38C862.502 593.266 862.443 593.136 862.412 592.999C862.382 592.861 862.381 592.718 862.41 592.58C862.495 592.234 862.619 591.898 862.78 591.58C863.374 590.455 864.07 589.387 864.86 588.39C865.897 587.172 866.731 585.794 867.33 584.31C867.928 582.776 867.992 581.085 867.51 579.51C867.242 578.835 866.907 578.188 866.51 577.58C866.183 577.046 865.715 576.613 865.157 576.329C864.6 576.045 863.974 575.92 863.35 575.97C862.51 575.97 862.28 575.66 862.35 574.82C862.416 574.268 862.565 573.728 862.79 573.22C863.151 572.355 863.597 571.528 864.12 570.75C864.344 570.47 864.476 570.128 864.5 569.77C864.523 569.413 864.436 569.057 864.25 568.75C863.96 568.18 863.65 567.62 863.33 567.08C861.75 564.43 859.79 562.08 858.11 559.49C857.567 558.679 856.818 558.027 855.94 557.6C855.261 557.355 854.618 557.019 854.03 556.6C853.82 556.39 853.47 556.4 853.16 556.35C852.34 556.23 851.52 556.19 850.7 556.03C850.21 555.975 849.761 555.733 849.444 555.355C849.128 554.977 848.969 554.492 849 554C848.814 551.1 848.406 548.218 847.78 545.38C847.544 544.051 846.833 542.854 845.78 542.01C844.51 540.94 843.15 540.01 841.9 538.89C841.537 538.589 841.104 538.384 840.641 538.294C840.178 538.203 839.7 538.229 839.25 538.37C839.059 538.389 838.881 538.476 838.748 538.616C838.616 538.755 838.539 538.938 838.53 539.13C838.41 539.95 838.32 540.77 838.16 541.58C837.978 542.485 838.157 543.426 838.66 544.2C838.778 544.356 838.885 544.519 838.98 544.69C839.4 545.53 839.88 546.34 839.34 547.32C839.21 547.601 839.158 547.912 839.19 548.22C839.226 548.774 839.082 549.324 838.78 549.79C837.55 551.982 836.114 554.052 834.49 555.97C834.35 556.16 834.17 556.318 833.963 556.432C833.755 556.546 833.526 556.614 833.29 556.63C832.789 556.681 832.313 556.876 831.92 557.19C830.665 558.142 829.568 559.286 828.67 560.58C827.704 561.968 826.453 563.134 825 564C823.974 564.54 822.899 564.982 821.79 565.32C820.27 565.85 818.73 566.32 817.18 566.7C817.024 566.764 816.855 566.792 816.686 566.781C816.518 566.77 816.354 566.72 816.207 566.636C816.061 566.552 815.935 566.436 815.84 566.296C815.746 566.157 815.684 565.997 815.66 565.83C815.604 565.617 815.52 565.411 815.41 565.22C814.718 564.327 814.364 563.219 814.41 562.09C814.14 561.92 813.87 562.2 813.6 561.98C812.666 561.332 811.546 561.006 810.41 561.05C810.135 560.998 809.853 561.004 809.581 561.068C809.309 561.131 809.053 561.251 808.83 561.42C808.675 561.538 808.484 561.598 808.29 561.59C807.42 561.65 806.53 561.77 805.66 561.84C804.234 562.056 802.792 562.146 801.35 562.11C801.399 562.42 801.331 562.737 801.16 563C800.901 563.389 800.718 563.823 800.62 564.28C800.423 565.176 799.988 566.001 799.36 566.67C799.21 566.855 799.002 566.984 798.77 567.037C798.538 567.09 798.295 567.062 798.08 566.96C797.821 566.862 797.575 566.731 797.35 566.57C797.217 566.444 797.06 566.345 796.888 566.28C796.716 566.215 796.533 566.184 796.35 566.19C796.068 566.213 795.788 566.128 795.566 565.951C795.345 565.775 795.2 565.52 795.16 565.24C795.464 565.113 795.739 564.925 795.968 564.688C796.197 564.451 796.374 564.169 796.49 563.86C796.58 563.67 796.75 563.59 796.91 563.47C797.324 563.152 797.633 562.717 797.795 562.221C797.957 561.725 797.966 561.191 797.82 560.69C797.571 559.984 797.235 559.312 796.82 558.69C796.689 558.454 796.509 558.249 796.291 558.09C796.074 557.93 795.824 557.82 795.56 557.767C795.295 557.713 795.022 557.718 794.76 557.781C794.497 557.844 794.252 557.963 794.04 558.13C793.69 558.36 793.37 558.62 793.04 558.85C792.71 559.08 792.5 558.98 792.42 559.21C792.34 559.44 792.47 559.74 792.58 559.99C792.58 560.07 792.58 560.15 792.65 560.24C792.752 560.437 792.777 560.665 792.72 560.88C792.663 561.095 792.527 561.28 792.34 561.4C792.026 561.646 791.822 562.005 791.77 562.4C791.51 563.7 790.54 564.19 789.7 565.4C791.27 566.18 790.45 569.95 791.95 571.19C792.266 571.439 792.51 571.767 792.66 572.14C792.775 572.504 792.775 572.896 792.66 573.26C792.28 574.74 792.66 576.18 792.73 577.62C792.744 577.825 792.808 578.023 792.916 578.197C793.024 578.371 793.173 578.516 793.35 578.62C793.513 578.753 793.714 578.832 793.924 578.844C794.134 578.857 794.342 578.803 794.52 578.69C794.703 578.603 794.851 578.457 794.942 578.276C795.032 578.095 795.06 577.889 795.02 577.69C794.94 576.672 794.92 575.65 794.96 574.63C794.939 574.327 795.016 574.026 795.18 573.77C795.205 573.704 795.248 573.646 795.304 573.604C795.361 573.561 795.429 573.536 795.499 573.531C795.569 573.525 795.64 573.54 795.702 573.574C795.764 573.608 795.816 573.658 795.85 573.72C795.947 573.836 796.017 573.974 796.053 574.121C796.089 574.268 796.092 574.422 796.06 574.57C795.772 575.837 795.738 577.149 795.96 578.43C796.028 578.687 796.04 578.956 795.995 579.218C795.95 579.48 795.85 579.73 795.7 579.95C795.593 580.103 795.532 580.284 795.522 580.47C795.513 580.657 795.556 580.842 795.646 581.006C795.737 581.169 795.871 581.304 796.035 581.395C796.198 581.486 796.383 581.529 796.57 581.52C796.77 581.516 796.968 581.551 797.154 581.625C797.339 581.699 797.508 581.81 797.65 581.95C798.037 582.353 798.276 582.874 798.33 583.43C798.379 583.787 798.341 584.151 798.22 584.49C798.049 584.81 798.01 585.185 798.113 585.533C798.216 585.881 798.452 586.175 798.77 586.35C799.54 586.93 800.28 587.56 801.09 588.09C801.379 588.279 801.62 588.533 801.793 588.832C801.967 589.13 802.069 589.465 802.09 589.81C802.09 589.93 802.17 590.17 802 590.15C801.47 590.07 801.52 590.51 801.4 590.77C801.278 591.077 801.083 591.348 800.831 591.561C800.579 591.774 800.278 591.921 799.955 591.989C799.632 592.058 799.298 592.045 798.981 591.953C798.664 591.86 798.375 591.691 798.14 591.46C797.866 591.228 797.609 590.977 797.37 590.71C797.06 590.36 796.81 590.15 796.29 590.46C795.77 590.77 794.78 590.05 794.76 589.35C794.759 589.124 794.681 588.906 794.54 588.73C793.824 587.83 793.156 586.892 792.54 585.92C792.105 585.339 791.535 584.872 790.88 584.56C790.13 584.12 789.35 583.68 788.57 583.27C788.318 583.14 788.098 582.956 787.925 582.731C787.752 582.507 787.631 582.247 787.57 581.97C787.35 581.12 787.05 580.28 786.89 579.42C786.771 578.932 786.814 578.418 787.013 577.956C787.211 577.495 787.554 577.11 787.99 576.86C788.129 576.79 788.251 576.689 788.344 576.564C788.437 576.439 788.5 576.294 788.527 576.14C788.554 575.987 788.545 575.829 788.5 575.68C788.456 575.53 788.377 575.393 788.27 575.28L785.4 571.73C785.022 571.355 784.797 570.852 784.77 570.32C784.776 570.016 784.862 569.72 785.02 569.46C786.37 566.97 787.02 565.69 788.31 565.35C788.325 565.301 788.325 565.249 788.31 565.2C788.31 564.52 787.77 563.98 787.54 563.36C787.464 563.067 787.322 562.795 787.126 562.565C786.929 562.335 786.683 562.152 786.406 562.031C786.129 561.909 785.827 561.853 785.525 561.865C785.223 561.877 784.927 561.957 784.66 562.1C783.635 562.529 782.633 563.013 781.66 563.55C781.078 563.86 780.481 564.141 779.87 564.39C779.707 564.471 779.527 564.513 779.345 564.513C779.163 564.513 778.983 564.471 778.82 564.39C777.766 563.901 776.649 563.564 775.5 563.39C775.121 563.368 774.757 563.239 774.448 563.018C774.14 562.796 773.902 562.492 773.76 562.14C773.742 562.075 773.709 562.015 773.664 561.965C773.619 561.914 773.563 561.875 773.5 561.85C772.89 561.57 772.3 561.26 771.69 561.01C770.69 560.58 769.78 560.15 768.86 559.63C768.397 559.313 767.845 559.151 767.284 559.169C766.723 559.187 766.182 559.384 765.74 559.73C765.245 560.094 764.661 560.318 764.05 560.38C763.42 560.519 762.76 560.408 762.21 560.07C762.053 559.923 761.845 559.841 761.63 559.841C761.415 559.841 761.207 559.923 761.05 560.07C760.804 560.24 760.574 560.431 760.36 560.64C759.056 562.016 757.961 563.576 757.11 565.27C756.765 565.842 756.541 566.478 756.45 567.14C756.37 568.22 756.28 569.29 756.22 570.36C756.123 571.802 756.438 573.241 757.13 574.51C758.2 576.51 759.25 578.51 760.32 580.51C760.49 580.82 760.58 581.02 760.26 581.28C759.94 581.54 760.03 581.64 760.33 581.84C761.264 582.44 761.983 583.321 762.384 584.356C762.785 585.392 762.846 586.527 762.56 587.6C762.495 587.771 762.482 587.957 762.523 588.135C762.564 588.313 762.657 588.475 762.79 588.6L763.57 589.45C763.905 589.82 764.203 590.222 764.46 590.65C764.58 590.907 764.645 591.186 764.649 591.469C764.653 591.752 764.597 592.033 764.485 592.293C764.372 592.553 764.206 592.786 763.996 592.977C763.787 593.168 763.539 593.312 763.27 593.4C762.87 593.5 762.49 593.69 762.1 593.81C761.681 593.925 761.314 594.178 761.058 594.529C760.802 594.879 760.672 595.306 760.69 595.74C760.69 596.93 760.57 598.11 760.59 599.3C760.609 600.017 760.391 600.72 759.97 601.3C759.576 601.864 759.24 602.467 758.97 603.1C758.25 604.76 757.97 604.97 756.11 605.03C756.03 605.035 755.95 605.035 755.87 605.03C755.04 605.047 754.214 605.161 753.41 605.37C752.28 605.73 751.97 606.14 751.74 607.37C751.65 607.87 751.74 608.37 751.66 608.93C751.654 610.258 751.31 611.562 750.66 612.72C750.288 613.26 750.033 613.871 749.909 614.515C749.785 615.158 749.795 615.821 749.94 616.46C750.042 617.001 750.088 617.55 750.08 618.1C750.071 619.566 749.89 621.026 749.54 622.45C749.428 622.992 749.513 623.556 749.78 624.04C750.431 625.142 751.358 626.056 752.47 626.69C754.22 627.86 755.96 629.03 757.64 630.29C759.746 632.005 762.184 633.268 764.8 634C766.742 634.604 768.803 634.717 770.8 634.33C773.566 633.671 776.249 632.705 778.8 631.45C779.868 630.858 781.08 630.574 782.3 630.63C784.01 630.76 785.71 630.99 787.43 631.04C787.819 631.058 788.208 630.994 788.57 630.85C790.06 630.23 791.57 627.85 790.45 626.21C790.195 625.823 790.07 625.365 790.095 624.902C790.121 624.439 790.294 623.997 790.59 623.64C790.843 623.308 791.051 622.945 791.21 622.56C791.413 622.025 791.772 621.563 792.241 621.235C792.71 620.906 793.268 620.727 793.84 620.72C794.749 620.626 795.651 620.472 796.54 620.26C799.26 619.778 801.936 619.073 804.54 618.15C805.823 617.689 806.971 616.916 807.88 615.9C808.255 615.487 808.474 614.957 808.5 614.4C808.5 613.81 808.41 613.67 807.86 613.51L802.6 612.05C801.44 611.72 801.23 611.51 801.1 610.29C801.05 609.681 800.829 609.098 800.46 608.61C800.14 608.19 799.84 607.76 799.46 607.35C799.104 606.933 798.875 606.423 798.8 605.88C798.19 602.13 797.93 598.36 797.62 594.58C797.62 594.45 797.54 594.3 797.75 594.25C797.96 594.2 798.07 594.18 798.18 594.38C798.668 595.083 799.077 595.837 799.4 596.63C799.94 598.63 800.4 600.63 800.78 602.69C801.06 603.82 801.221 604.976 801.26 606.14C801.252 606.83 801.306 607.519 801.42 608.2C801.408 608.531 801.468 608.86 801.598 609.165C801.727 609.47 801.921 609.742 802.167 609.963C802.413 610.185 802.705 610.349 803.022 610.445C803.338 610.542 803.672 610.567 804 610.52C805.38 610.52 806.77 610.41 808.14 610.32C810.65 610.102 813.128 609.609 815.53 608.85C818.18 608.1 818.18 608.11 820.28 606.32L823.03 604.05C823.578 603.576 824.252 603.274 824.97 603.18C825.467 603.126 825.969 603.172 826.449 603.314C826.928 603.457 827.373 603.693 827.76 604.01C829.159 605.149 830.494 606.364 831.76 607.65C832.757 608.594 833.68 609.614 834.52 610.7C835.79 612.254 837.17 613.715 838.65 615.07C838.748 615.168 838.859 615.252 838.98 615.32C839.63 615.74 839.91 615.75 840.47 615.23C841.214 614.67 841.798 613.925 842.163 613.068C842.528 612.212 842.662 611.274 842.55 610.35C842.465 609.836 842.499 609.31 842.648 608.811C842.797 608.312 843.057 607.853 843.41 607.47C844.798 605.965 845.93 604.242 846.76 602.37C846.81 602.182 846.927 602.019 847.089 601.912C847.252 601.805 847.448 601.761 847.64 601.79C847.98 601.79 848.27 601.49 848.43 601.15C848.74 600.5 848.96 600.34 849.61 600.49C850.562 600.684 851.479 601.021 852.33 601.49C853.01 601.9 853.7 602.32 854.4 602.7C856.774 604.112 859.217 605.404 861.72 606.57C862.169 606.753 862.639 606.877 863.12 606.94C864.48 607.11 865.82 607.39 867.17 607.62C865.232 607.862 863.327 608.318 861.49 608.98C861.49 609.34 861.49 609.67 862.04 609.56C862.399 609.536 862.76 609.567 863.11 609.65C863.839 609.817 864.594 609.834 865.33 609.7C866.066 609.572 866.822 609.63 867.53 609.87C868.534 610.181 869.579 610.336 870.63 610.33C870.881 610.303 871.135 610.337 871.37 610.43C871.869 610.638 872.404 610.745 872.945 610.745C873.486 610.745 874.021 610.638 874.52 610.43C875.675 610.05 876.804 609.596 877.9 609.07C877.97 609.07 878.09 608.98 878.11 609C878.56 609.45 878.88 609 879.19 608.83C881.95 607.235 884.537 605.358 886.91 603.23C887.707 602.546 888.428 601.779 889.06 600.94C889.328 600.652 889.474 600.273 889.47 599.88C888.888 600.161 888.278 600.379 887.65 600.53ZM806.22 586.42C805.646 585.945 805.127 585.408 804.67 584.82C804.348 584.401 803.941 584.056 803.475 583.806C803.01 583.556 802.497 583.407 801.97 583.37C801.848 583.379 801.726 583.349 801.621 583.284C801.517 583.22 801.436 583.124 801.39 583.01C801.28 582.785 801.111 582.595 800.9 582.46C800.787 582.406 800.7 582.31 800.657 582.192C800.614 582.074 800.618 581.944 800.67 581.83C800.78 581.56 800.89 581.33 801.22 581.27C801.55 581.21 801.92 581.15 802.22 581.09C802.548 581.06 802.863 580.943 803.13 580.75C803.499 580.517 803.935 580.412 804.37 580.45C804.345 580.943 804.345 581.437 804.37 581.93C804.37 582.097 804.436 582.257 804.554 582.375C804.673 582.494 804.833 582.56 805 582.56C805.34 582.56 805.69 582.68 806 582.74C806.17 582.47 805.93 582.23 806 581.98C806.47 581.988 806.933 582.094 807.36 582.29C807.099 582.608 806.752 582.844 806.36 582.97C807.211 584.075 807.824 585.346 808.16 586.7C807.846 586.854 807.493 586.909 807.147 586.859C806.801 586.809 806.478 586.656 806.22 586.42Z" fill="white"/>
<path d="M799 494.25C796.92 494.96 795.86 497.91 793.66 497.66C793.205 497.562 792.757 497.432 792.32 497.27C791.22 496.9 790.15 496.45 789.05 496.08C788.613 495.941 788.214 495.704 787.882 495.387C787.551 495.07 787.297 494.681 787.14 494.25C786.94 493.79 786.71 493.35 786.51 492.9C786.467 492.783 786.393 492.681 786.296 492.603C786.199 492.526 786.083 492.476 785.96 492.46C785.37 492.282 784.74 492.282 784.149 492.46C783.559 492.638 783.034 492.986 782.64 493.46C782.139 494.124 781.479 494.65 780.72 494.99C780.541 495.056 780.391 495.184 780.3 495.351C780.208 495.519 780.179 495.713 780.22 495.9C780.22 496.37 780.22 496.84 780.3 497.31C780.47 498.67 780.132 500.044 779.35 501.17C778.411 502.704 777.252 504.092 775.91 505.29C773.043 507.864 769.905 510.117 766.55 512.01C765.81 512.44 765.04 512.82 764.29 513.23C763.528 513.626 762.922 514.267 762.57 515.05C762.144 516.062 761.493 516.963 760.666 517.685C759.84 518.408 758.859 518.933 757.8 519.22C756.326 519.597 754.919 520.201 753.63 521.01C753.234 521.274 752.894 521.613 752.63 522.01C751.21 524.01 750.05 526.25 748.78 528.38C748.387 528.987 748.052 529.63 747.78 530.3C747.046 531.999 746.205 533.649 745.26 535.24C745.084 535.556 744.946 535.891 744.85 536.24C744.836 536.455 744.767 536.662 744.649 536.843C744.532 537.024 744.37 537.171 744.18 537.271C743.989 537.372 743.776 537.421 743.561 537.416C743.345 537.41 743.135 537.35 742.95 537.24C742.8 537.171 742.647 537.111 742.49 537.06C741.966 536.929 741.486 536.663 741.098 536.287C740.71 535.911 740.428 535.44 740.28 534.92C739.902 533.907 739.448 532.924 738.92 531.98C738.684 531.446 738.314 530.981 737.846 530.631C737.379 530.281 736.829 530.057 736.25 529.98C736 529.962 735.764 529.86 735.58 529.69C734.625 528.896 733.808 527.95 733.16 526.89C732.457 525.613 732.227 524.13 732.51 522.7C732.936 519.859 733.174 516.993 733.22 514.12C733.272 513.789 733.214 513.451 733.055 513.157C732.896 512.862 732.645 512.628 732.34 512.49C731.976 512.284 731.678 511.979 731.48 511.611C731.282 511.243 731.192 510.827 731.22 510.41C731.03 508.958 731.15 507.483 731.57 506.08C731.7 505.698 731.743 505.292 731.698 504.891C731.653 504.49 731.521 504.104 731.31 503.76C731.031 503.219 730.89 502.618 730.9 502.01C730.863 500.24 730.946 498.469 731.15 496.71C731.33 494.997 731.737 493.316 732.36 491.71C733.99 487.71 734.19 487.93 734.36 485.85C734.52 484.35 734.36 483.2 735.07 481.52C735.315 480.875 735.678 480.282 736.14 479.77C737.72 478.08 739.27 478.97 740.6 477.56C741 477.13 740.8 477.11 742.16 473.71C742.91 471.84 742.88 472.08 742.99 471.71C743.43 470.22 743.17 468.96 741.76 463.84C741.08 461.38 740.88 460.7 741.15 459.68C741.55 458.16 742.79 456.73 743.6 456.91C744.18 457.04 744.19 457.91 745.12 460.47C745.501 461.722 746.01 462.932 746.64 464.08C747.641 465.36 748.534 466.722 749.31 468.15C749.404 468.321 749.487 468.498 749.56 468.68C749.79 469.33 749.78 470 750.29 472.37C750.406 473.13 750.597 473.877 750.86 474.6C751.64 476.46 752.65 476.27 754.65 478.73C755.582 479.75 756.387 480.878 757.05 482.09C757.285 482.608 757.625 483.072 758.05 483.45C758.49 483.917 759.09 484.203 759.73 484.25C760.28 484.186 760.789 483.931 761.17 483.53C762.61 482.44 764.47 482.53 767.99 482.53C768.659 482.538 769.327 482.585 769.99 482.67C771.14 482.84 772.28 483.08 773.42 483.28C774.159 483.377 774.907 483.393 775.65 483.33C776.203 483.3 776.757 483.3 777.31 483.33C777.725 483.33 778.13 483.458 778.469 483.698C778.807 483.939 779.063 484.278 779.2 484.67C779.42 485.32 779.7 485.96 779.94 486.61C780.181 487.158 780.286 487.757 780.244 488.355C780.202 488.952 780.015 489.531 779.7 490.04C779.334 490.531 779.151 491.134 779.182 491.746C779.213 492.357 779.456 492.939 779.87 493.39C779.99 493.55 780.08 493.72 780.19 493.88C780.231 493.924 780.278 493.961 780.33 493.99C780.584 493.913 780.806 493.755 780.961 493.54C781.117 493.325 781.197 493.065 781.19 492.8C781.184 492.477 781.302 492.165 781.52 491.927C781.737 491.689 782.038 491.543 782.36 491.52C784.146 491.134 785.964 490.916 787.79 490.87C788.094 490.869 788.396 490.923 788.68 491.03C789.757 491.407 790.918 491.473 792.03 491.22C792.546 491.125 793.074 491.125 793.59 491.22C795.3 491.54 797.06 491.49 798.78 491.78C799.002 491.807 799.227 491.772 799.43 491.68C800.301 491.411 801.15 491.076 801.97 490.68C802.288 490.546 802.626 490.465 802.97 490.44C804.973 490 807.045 489.97 809.06 490.35C809.715 490.463 810.355 490.647 810.97 490.9C811.214 490.996 811.429 491.154 811.592 491.36C811.756 491.565 811.862 491.81 811.9 492.07C811.993 492.558 812.227 493.008 812.574 493.363C812.921 493.719 813.365 493.965 813.85 494.07C815.217 494.416 816.602 494.683 818 494.87C818.491 494.936 818.952 495.14 819.33 495.46C819.8 495.87 820.5 496.05 820.77 496.66C821.232 497.51 821.842 498.272 822.57 498.91C822.879 499.337 823.112 499.814 823.26 500.32C823.433 500.756 823.68 501.158 823.99 501.51C824.29 501.82 824.56 502.1 825.05 501.98C825.36 501.9 825.57 502.09 825.73 502.34C826.31 503.28 826.98 504.17 827.6 505.08C828.45 506.464 828.733 508.123 828.39 509.71C828.321 510.176 828.196 510.633 828.02 511.07C827.732 511.905 827.637 512.793 827.74 513.67C827.758 513.936 827.842 514.194 827.983 514.421C828.124 514.648 828.319 514.836 828.55 514.97C828.972 515.214 829.29 515.604 829.445 516.066C829.599 516.528 829.58 517.031 829.39 517.48C829.219 518.045 829.223 518.648 829.401 519.21C829.58 519.772 829.925 520.267 830.39 520.63C830.872 521.049 831.175 521.635 831.24 522.27C831.401 523.297 831.791 524.274 832.381 525.129C832.972 525.984 833.747 526.695 834.65 527.21C835.081 527.408 835.547 527.516 836.02 527.53C836.171 527.522 836.322 527.551 836.459 527.613C836.597 527.676 836.717 527.771 836.81 527.89C836.897 528.017 837.031 528.105 837.182 528.135C837.334 528.165 837.491 528.135 837.62 528.05C837.92 527.91 838.23 527.79 838.54 527.66C838.972 527.47 839.431 527.349 839.9 527.3C840.25 527.3 840.65 527.2 840.9 527.58C840.992 527.745 841.021 527.938 840.98 528.122C840.94 528.306 840.833 528.469 840.68 528.58C840.573 528.688 840.507 528.83 840.492 528.981C840.478 529.132 840.516 529.284 840.6 529.41C840.72 529.66 840.86 529.9 840.97 530.15C841.057 530.31 841.108 530.486 841.12 530.667C841.132 530.849 841.105 531.03 841.04 531.2C840.911 531.429 840.863 531.694 840.902 531.953C840.942 532.212 841.068 532.451 841.26 532.63C841.54 532.93 841.47 533.24 841.13 533.48C840.873 533.693 840.572 533.847 840.249 533.932C839.926 534.017 839.589 534.03 839.26 533.97L838.78 533.84C838.53 533.77 838.3 533.72 838.11 533.98C838.048 534.085 838.016 534.204 838.016 534.325C838.016 534.446 838.048 534.565 838.11 534.67C838.26 535.03 838.38 535.4 838.51 535.76C838.566 535.887 838.603 536.022 838.62 536.16C838.68 536.77 838.33 537.03 837.77 536.83L837.53 536.74C836.63 536.38 836.63 536.38 836.18 537.26C836.135 537.392 836.048 537.505 835.932 537.582C835.817 537.66 835.679 537.698 835.54 537.69H833.8C833.384 537.687 832.976 537.569 832.623 537.348C832.27 537.127 831.985 536.813 831.8 536.44C831.64 536.15 831.51 535.93 831.14 535.91C830.77 535.89 830.72 535.67 830.54 535.49C829.93 534.89 829.32 534.29 828.7 533.7C828.27 533.3 828.26 533.29 827.7 533.7C827.457 533.884 827.168 533.998 826.865 534.03C826.562 534.062 826.256 534.01 825.98 533.88C825.628 533.711 825.254 533.59 824.87 533.52C824.64 533.52 824.52 533.52 824.51 533.81C824.471 534.581 824.309 535.34 824.03 536.06C823.886 536.652 823.832 537.262 823.87 537.87C823.854 538.365 823.678 538.842 823.37 539.23C822.55 540.37 821.78 541.55 820.96 542.7C820.461 543.426 819.909 544.114 819.31 544.76C818.882 545.272 818.35 545.687 817.75 545.98C817.671 546.006 817.598 546.047 817.536 546.102C817.473 546.156 817.422 546.223 817.386 546.297C817.349 546.372 817.328 546.453 817.324 546.536C817.319 546.619 817.332 546.702 817.36 546.78C817.43 547.21 817.48 547.65 817.55 548.09C817.637 548.431 817.593 548.791 817.426 549.101C817.259 549.41 816.982 549.645 816.65 549.76C816.509 549.813 816.382 549.897 816.278 550.006C816.174 550.115 816.096 550.247 816.05 550.39C816.003 550.554 815.895 550.693 815.748 550.779C815.6 550.865 815.426 550.89 815.26 550.85C814.99 550.85 814.71 550.85 814.44 550.8C813.36 550.686 812.27 550.873 811.29 551.34C811.138 551.428 810.966 551.474 810.79 551.474C810.614 551.474 810.442 551.428 810.29 551.34C809.95 551.15 809.56 551.05 809.22 550.88C808.699 550.614 808.109 550.516 807.53 550.6C807.004 550.687 806.464 550.598 805.994 550.347C805.524 550.095 805.15 549.696 804.93 549.21C804.357 548.078 803.688 546.997 802.93 545.98C801.895 544.681 800.631 543.583 799.2 542.74C798.87 542.53 798.39 542.35 798.57 541.9C798.75 541.45 798.85 540.9 799.43 540.78C800.31 540.54 801.17 540.24 802.06 540.05C803.061 539.908 804.081 539.966 805.06 540.22C805.219 540.262 805.366 540.341 805.49 540.45C805.904 540.777 806.371 541.03 806.87 541.2C807.488 541.353 808.071 541.621 808.59 541.99C808.74 542.13 808.96 542.06 809.15 542.08C810.596 542.306 812.067 542.333 813.52 542.16C814.015 542.095 814.515 542.095 815.01 542.16C815.82 542.23 815.96 542.04 815.7 541.3C815.53 540.791 815.255 540.324 814.894 539.928C814.532 539.531 814.091 539.215 813.6 539C812.722 538.585 811.739 538.446 810.78 538.6C810.042 538.748 809.276 538.66 808.59 538.35C808.508 538.297 808.416 538.261 808.32 538.244C808.224 538.227 808.125 538.229 808.03 538.25C807.652 538.348 807.254 538.34 806.88 538.227C806.506 538.114 806.171 537.901 805.91 537.61C805.509 537.294 805.178 536.9 804.935 536.451C804.693 536.002 804.545 535.508 804.5 535C804.481 534.912 804.48 534.821 804.498 534.732C804.515 534.644 804.55 534.56 804.6 534.485C804.65 534.41 804.715 534.347 804.791 534.298C804.867 534.249 804.951 534.215 805.04 534.2C806.27 533.89 807.51 533.56 808.75 533.28C809.3 533.15 809.63 533.56 809.5 534.12C809.5 534.25 809.39 534.37 809.36 534.51C809.347 534.606 809.364 534.704 809.409 534.79C809.454 534.876 809.524 534.945 809.61 534.99C809.685 535.032 809.772 535.047 809.857 535.03C809.941 535.014 810.017 534.967 810.07 534.9C810.656 534.283 811.185 533.613 811.65 532.9C811.696 532.83 811.714 532.745 811.701 532.662C811.689 532.578 811.645 532.503 811.58 532.45C811.374 532.184 811.086 531.994 810.76 531.91C809.913 531.772 809.087 531.531 808.3 531.19C807.773 531.025 807.207 531.025 806.68 531.19C806.54 531.19 806.41 531.26 806.28 531.31C805.394 531.612 804.466 531.778 803.53 531.8C801.959 531.953 800.404 532.238 798.88 532.65C798.34 532.77 797.8 532.89 797.27 533.06C795.871 533.43 794.399 533.43 793 533.06C792.079 532.901 791.145 532.83 790.21 532.85C790.07 532.86 789.93 532.86 789.79 532.85C789.17 532.75 788.97 532.29 789.34 531.78C789.508 531.523 789.726 531.302 789.98 531.13C790.2 531.011 790.376 530.824 790.483 530.597C790.589 530.37 790.619 530.116 790.57 529.87C790.57 529.54 790.57 529.2 790.51 528.87C790.434 528.32 790.521 527.761 790.76 527.26C790.957 526.741 791.028 526.182 790.97 525.63C790.936 525.162 790.984 524.692 791.11 524.24C791.31 523.75 791.39 523.72 791.88 523.91C792.37 524.1 792.88 524 792.98 523.36C792.98 523.17 793.08 522.99 793.13 522.8C793.28 522.408 793.302 521.979 793.195 521.573C793.087 521.168 792.855 520.806 792.53 520.54C792.469 520.507 792.415 520.462 792.371 520.407C792.328 520.352 792.297 520.289 792.279 520.221C792.261 520.154 792.257 520.083 792.268 520.014C792.278 519.945 792.303 519.879 792.34 519.82C793.34 517.97 792.97 516.17 792.11 514.42C791.98 514.152 791.905 513.861 791.889 513.564C791.874 513.267 791.918 512.97 792.02 512.69C792.47 511.18 793.02 509.69 793.38 508.18C793.748 507.017 794.397 505.962 795.27 505.11C795.713 504.726 796.266 504.491 796.85 504.44C797.226 504.35 797.594 504.23 797.95 504.08C797.95 504.08 798.24 503.98 798.77 503.86C799.568 503.761 800.378 503.825 801.15 504.05C802.89 504.56 807.27 502.94 807.76 500.81C808.41 497.94 802.4 493.08 799 494.25Z" fill="white"/>
<path d="M901.29 593.37C901.29 593.37 901.29 593.37 901.22 593.37C901.19 593.384 901.158 593.392 901.125 593.392C901.092 593.392 901.06 593.384 901.03 593.37C900.958 593.323 900.898 593.258 900.857 593.182C900.816 593.106 900.795 593.021 900.795 592.935C900.795 592.849 900.816 592.764 900.857 592.688C900.898 592.612 900.958 592.547 901.03 592.5C901.23 592.347 901.365 592.124 901.408 591.875C901.45 591.627 901.398 591.371 901.26 591.16C900.979 590.585 900.819 589.959 900.79 589.32C900.724 588.811 900.789 588.294 900.98 587.818C901.171 587.342 901.481 586.922 901.88 586.6C902.599 586.047 903.238 585.397 903.78 584.67C903.94 584.44 903.99 584.29 903.78 584.04C903.367 583.608 903.073 583.075 902.929 582.494C902.786 581.913 902.796 581.305 902.96 580.73C903.04 580.29 903.16 579.86 903.27 579.41C903.275 579.386 903.273 579.36 903.264 579.337C903.255 579.314 903.24 579.294 903.22 579.279C903.2 579.265 903.176 579.256 903.151 579.254C903.126 579.253 903.102 579.258 903.08 579.27C903.016 579.311 902.949 579.348 902.88 579.38C902.856 579.386 902.831 579.385 902.808 579.378C902.785 579.37 902.764 579.356 902.748 579.337C902.733 579.318 902.723 579.295 902.719 579.271C902.716 579.247 902.72 579.222 902.73 579.2C903.23 578.2 903.73 577.2 904.14 576.13C904.55 575.06 905.14 574.13 905.53 573.01C905.537 572.988 905.549 572.968 905.566 572.953C905.583 572.937 905.603 572.926 905.625 572.921C905.648 572.916 905.671 572.917 905.693 572.924C905.715 572.931 905.734 572.943 905.75 572.96C906.28 573.54 906.58 574.24 907.14 574.76C907.152 574.775 907.167 574.786 907.185 574.795C907.202 574.803 907.221 574.807 907.24 574.807C907.259 574.807 907.278 574.803 907.295 574.795C907.312 574.786 907.328 574.775 907.34 574.76C908.66 572.84 910 570.98 911.25 569.06C911.351 568.929 911.398 568.764 911.384 568.599C911.369 568.435 911.292 568.281 911.17 568.17C910.574 567.439 909.784 566.891 908.89 566.59C907.71 566.2 907.59 565.59 906.98 564.52C906.929 564.474 906.891 564.416 906.868 564.352C906.845 564.287 906.839 564.218 906.85 564.15C906.861 564.082 906.888 564.019 906.93 563.964C906.972 563.91 907.027 563.868 907.09 563.84C908.64 562.77 909.46 561.84 911.29 561.27C911.77 561.13 912.29 561.03 912.74 560.9C913.368 560.762 913.927 560.408 914.32 559.9C914.859 559.271 915.243 558.524 915.44 557.72C915.471 557.586 915.529 557.46 915.61 557.35C916.91 555.35 918.04 553.29 919.37 551.35C919.662 550.947 919.904 550.511 920.09 550.05C920.74 548.23 923.9 547.64 925.46 548.88C925.976 549.256 926.394 549.75 926.68 550.32C927.198 551.337 927.956 552.213 928.89 552.87C929.46 553.31 929.97 553.87 930.51 554.29C930.726 554.462 930.89 554.69 930.983 554.95C931.077 555.209 931.096 555.49 931.04 555.76C930.98 556.17 930.94 556.58 930.85 556.98C930.635 558.343 930.595 559.727 930.73 561.1C930.813 562.259 930.708 563.424 930.42 564.55C930.315 565.007 930.315 565.483 930.42 565.94C930.602 567.096 930.446 568.281 929.97 569.35C929.53 570.35 929.1 571.35 928.67 572.41C928.542 572.716 928.348 572.989 928.1 573.21C927.058 574.36 925.814 575.309 924.43 576.01C924.27 576.07 924.11 576.15 924.09 576.34C923.98 577.14 923.54 577.84 923.42 578.64C923.37 579 923.34 579.35 923.31 579.71C923.32 579.983 923.247 580.252 923.1 580.482C922.954 580.713 922.741 580.893 922.49 581C920.984 581.674 919.78 582.882 919.11 584.39C918.4 585.8 917.9 587.31 917.16 588.69C916.402 590.305 915.77 591.977 915.27 593.69C914.708 595.276 914.26 596.9 913.93 598.55C913.618 599.87 913.113 601.137 912.43 602.31C911.9 603.31 911.35 604.23 910.8 605.18C909.892 606.606 908.741 607.861 907.4 608.89C906.585 609.556 905.719 610.158 904.81 610.69C903.612 611.421 902.205 611.734 900.81 611.58C899.759 611.535 898.72 611.347 897.72 611.02C897.391 610.878 897.094 610.672 896.845 610.414C896.597 610.155 896.402 609.85 896.273 609.516C896.143 609.182 896.082 608.826 896.092 608.467C896.101 608.109 896.183 607.757 896.33 607.43C896.88 606.43 897.23 605.35 897.73 604.33C898.59 602.6 899.4 600.84 900.21 599.09C900.55 598.34 900.84 597.57 901.21 596.82C901.343 596.586 901.382 596.31 901.319 596.048C901.256 595.786 901.095 595.558 900.87 595.41C900.28 595.01 900.51 594.41 900.46 593.9C900.452 593.864 900.452 593.826 900.46 593.79C900.54 593.63 900.83 593.62 900.97 593.62C901 593.49 901.27 593.44 901.29 593.37Z" fill="white"/>
<path d="M905.83 564.66C905.73 565.12 905.64 565.58 905.5 566.03C905.306 566.545 905.058 567.038 904.76 567.5C903.54 569.5 901.76 571.1 900.25 572.89C899.628 573.594 899.062 574.346 898.56 575.14C898.436 575.325 898.338 575.527 898.27 575.74C898.267 575.834 898.244 575.925 898.203 576.01C898.162 576.094 898.104 576.168 898.032 576.229C897.96 576.289 897.877 576.334 897.787 576.36C897.697 576.386 897.603 576.393 897.51 576.38C897.124 576.439 896.771 576.63 896.51 576.92C896.118 577.274 895.668 577.558 895.18 577.76C894.65 577.95 894.52 577.86 894.56 577.32C894.579 576.909 894.649 576.503 894.77 576.11C895.293 574.325 895.962 572.585 896.77 570.91C897.49 569.47 897.98 567.91 898.71 566.51C899.58 564.82 900.26 563.02 901.17 561.36C902.482 558.933 904.07 556.665 905.9 554.6C906.434 553.963 907.005 553.359 907.61 552.79C907.726 552.675 907.85 552.568 907.98 552.47C908.23 552.31 908.45 552.41 908.42 552.69C908.388 555.027 907.59 557.289 906.15 559.13C905.588 559.69 905.243 560.432 905.175 561.222C905.107 562.013 905.322 562.802 905.78 563.45C905.832 563.55 905.875 563.653 905.91 563.76C906.08 564.07 905.84 564.36 905.83 564.66Z" fill="white"/>
<path d="M886.26 597.41C886.153 597.768 885.944 598.088 885.66 598.33C884.82 599.14 883.99 599.95 883.14 600.73C882.48 601.284 881.704 601.684 880.87 601.9C880.089 602.087 879.292 602.204 878.49 602.25C878.073 602.28 877.661 602.155 877.33 601.9C877.191 601.82 877.072 601.711 876.979 601.58C876.886 601.449 876.822 601.3 876.792 601.143C876.761 600.986 876.765 600.824 876.803 600.668C876.84 600.512 876.911 600.366 877.01 600.24C877.42 599.62 878.01 599.12 878.34 598.45C878.473 598.213 878.567 597.956 878.62 597.69C878.88 596.2 879.16 594.69 879.43 593.21C879.437 592.938 879.5 592.669 879.615 592.422C879.729 592.175 879.893 591.953 880.096 591.772C880.3 591.59 880.538 591.452 880.796 591.365C881.055 591.279 881.328 591.247 881.6 591.27C882.73 591.27 883.86 591.19 884.99 591.17C885.64 591.17 885.69 591.17 885.64 591.81C885.623 593.029 885.847 594.239 886.3 595.37C886.477 595.682 886.567 596.037 886.56 596.396C886.553 596.754 886.449 597.105 886.26 597.41Z" fill="white"/>
<path d="M789.7 565.29L789.65 565.34C789.444 565.482 789.218 565.593 788.98 565.67C788.65 565.79 788.13 565.77 788.25 565.41C788.255 565.377 788.255 565.343 788.25 565.31H788.33C788.769 565.136 789.256 565.129 789.7 565.29Z" fill="white"/>
<path d="M196.31 571.87V508.87H185.42V500H196.31V489.39C196.31 475.21 203.56 468.28 218.08 468.28C220.617 468.364 223.147 468.585 225.66 468.94V477.52C222.36 477.19 219.72 476.86 218.08 476.86C210.49 476.86 206.86 480.86 206.86 488.4V500H225.66V508.58H206.86V571.58H196.31V571.87Z" fill="#87959E"/>
<path d="M230 500H240.5L239.5 508.25L239.83 508.58C244.12 501.65 250.72 498.35 260.28 498.35C273.48 498.35 280.07 505.28 280.07 518.8V523.8H269.86L270.19 522.15C270.19 520.15 270.52 518.85 270.52 518.15C270.52 510.9 266.52 506.94 258.65 506.94C246.77 506.94 241.16 514.2 241.16 528.71V571.93H230.61V500H230Z" fill="#87959E"/>
<path d="M345.06 500V576.54C345.06 587.09 342.75 594.02 338.14 597.98C333.53 601.94 325.27 603.92 313.4 603.92C302.51 603.92 295.26 602.27 291.3 598.92C287.34 595.57 285.36 589.35 285.36 580.44H295.59C295.59 586.71 296.59 590.67 298.88 592.32C301.19 594.32 306.14 594.96 313.73 594.96C321.64 594.96 327.25 593.64 329.89 591.33C332.53 589.02 334.18 584.07 334.18 577.15V562.63H333.85C331.21 569.23 323.29 572.53 310.43 572.53C299.87 572.53 292.62 569.89 288.33 564.61C284.37 559.33 282.39 549.763 282.39 535.91C282.39 521.39 284.39 511.83 288.66 506.55C292.62 501.27 300.207 498.63 311.42 498.63C323.29 498.63 330.88 502.26 334.51 509.52H334.84L334.18 499.95L345.06 500ZM313.73 507.92C305.48 507.92 300.2 509.57 297.57 513.2C295.26 516.82 293.94 524.41 293.94 535.96C293.94 547.83 295.26 555.42 297.57 559.05C299.88 562.68 305.48 564.33 313.73 564.33C321.98 564.33 327.58 562.33 330.22 558.39C332.86 554.45 334.22 546.52 334.22 533.98C334.22 523.09 332.9 516.17 330.22 512.54C327.58 509.52 322 507.87 313.73 507.87V507.92Z" fill="#87959E"/>
<path d="M414 518.75H403.44C403.44 513.81 402.44 510.51 400.44 509.52C398.44 508.2 393.19 507.87 384.61 507.87C376.703 507.87 371.757 508.537 369.77 509.87C367.77 511.19 366.47 514.16 366.47 519.1C366.47 526.36 370.1 530.32 377.03 530.65L385.6 530.98L396.49 531.64C409.68 532.3 415.95 539.23 415.95 552.09C415.95 560.01 413.64 565.62 409.35 568.59C405.06 571.56 397.15 573.21 385.6 573.21C373.73 573.21 365.81 571.89 361.19 568.92C356.91 565.92 354.6 560.67 354.6 553.08V549.08H365.48V552.38C365.48 557 366.8 560.3 369.11 561.95C371.42 563.6 376.37 564.26 383.29 564.26C391.87 564.26 397.81 563.26 400.44 561.62C403.07 559.98 404.44 556.67 404.44 551.39C404.44 543.81 401.14 540.18 394.22 540.18C378.393 540.18 367.837 538.847 362.55 536.18C357.6 533.6 355 528 355 519.41C355 511.5 357 505.89 360.93 503.25C364.86 500.61 372.81 499.25 384.68 499.25C403.81 499.25 413.38 504.86 413.38 516.41V518.71L414 518.75Z" fill="#87959E"/>
<path d="M179 498.67C172.42 501.16 169.51 506.74 168.38 512.98C166.46 523.59 168 534.39 167.56 545.1C167.498 547.746 167.214 550.382 166.71 552.98C166.329 555.161 165.229 557.151 163.585 558.633C161.941 560.116 159.848 561.005 157.64 561.16C154.64 561.45 151.52 561.63 148.45 561.66C145.38 561.69 142.29 561.45 139.26 561.16C137.05 561.008 134.955 560.119 133.309 558.636C131.663 557.154 130.561 555.162 130.18 552.98C129.676 550.382 129.392 547.746 129.33 545.1C128.89 534.39 130.44 523.59 128.52 512.98C127.39 506.74 124.52 501.16 117.9 498.67V551.94C117.9 552.85 117.9 553.16 117.9 553.71C117.7 559.61 120.82 563.66 125.27 567.29C129.09 570.39 133.55 570.82 138.04 571.5H158.85C163.34 570.82 167.85 570.39 171.62 567.29C176.07 563.66 179.19 559.61 179 553.71C179 553.16 179 552.85 179 551.94V498.67Z" fill="#87959E"/>
<path d="M532 565.26C529.67 561.26 529.75 560.32 527.36 556.34C525.028 552.657 523.857 548.357 524 544C524.25 535.47 524.09 526.9 523.55 518.39C523.19 512.72 521.3 508.9 515.37 507.46C508.54 505.81 501.54 505.6 495.1 508.31C493.386 508.995 491.83 510.023 490.528 511.332C489.226 512.641 488.206 514.202 487.53 515.92C485.97 519.52 485.67 523.63 485.53 527.52C485.22 535.85 485.42 544.19 485.44 552.52C485.44 559.31 485.51 566.09 485.55 572.88H474.4C474.4 565.63 474.55 558.38 474.5 551.13C474.413 540.203 474.26 529.277 474.04 518.35C473.95 513.46 469.86 508.68 465.1 507.43C460.878 506.331 456.463 506.191 452.18 507.02C445.4 508.26 440.56 511.93 437.99 518.48C436.16 523.12 436.11 528 435.87 532.85C435.68 536.7 435.82 540.56 435.87 544.42C435.87 553.913 435.907 563.4 435.98 572.88H424.84V498.37L431.29 498.48C434.17 498.48 435.8 500.14 435.83 503.02C435.83 504.81 435.83 506.59 435.83 508.38C437.957 505.321 440.724 502.762 443.94 500.88C446.681 499.344 449.664 498.285 452.76 497.75C457.045 496.896 461.449 496.822 465.76 497.53C469.59 498.15 476.45 499.26 478.91 502.77C480.549 504.354 481.845 506.256 482.72 508.36C482.905 508.683 483.116 508.991 483.35 509.28C484.784 506.915 486.61 504.812 488.75 503.06C492.304 500.297 496.496 498.475 500.94 497.76C505.293 496.853 509.779 496.779 514.16 497.54C516.74 497.7 523.43 498.48 528.16 503.54C531.28 506.87 530.16 510.87 530.75 513.47C531.23 515.47 531.75 517.47 532.22 519.47L532 565.26Z" fill="#868E77"/>
<path d="M618.48 497.55C622.48 498.37 626.43 499.18 629.59 502.55C632.95 506.1 633.93 510.75 634.31 513.83C634.57 515.95 634.21 517.93 634.31 520.28C634.31 537.21 634.31 554.14 634.36 571.08C634.36 572.74 633.92 572.98 632.42 572.92C629.2 572.78 626.42 572.79 623.2 572.79V519.29C623.183 516.66 622.56 514.07 621.38 511.72C619.79 508.43 616.62 507.37 613.38 506.89C607.12 505.95 600.88 505.84 594.78 508.17C588.37 510.62 584.98 515.43 583.94 521.92C582.75 529.29 583.57 536.75 583.48 544.18C583.48 547.41 583.23 550.33 581.17 553.18C578.17 557.28 576.96 561.5 574.17 565.79C574.06 565.96 573.8 566.03 573.61 566.15V510.72C573.801 509.572 574.275 508.489 574.99 507.57C576.94 505.02 578.5 502.19 580.43 499.62C581.02 498.85 581.7 497.75 582.77 498.11C583.84 498.47 583.48 499.69 583.5 500.58C583.564 502.297 583.537 504.016 583.42 505.73C584.307 504.038 585.625 502.61 587.24 501.59C588.999 500.281 590.949 499.249 593.02 498.53C595.165 497.857 597.385 497.454 599.63 497.33C601.63 497.13 603.2 497.11 603.93 497.1C611.74 497 615.61 497 618.48 497.55Z" fill="#868E77"/>
<path d="M584 491.88C577.48 494.65 574.6 500.88 573.48 507.8C571.57 519.6 573.1 531.62 572.67 543.53C572.607 546.473 572.326 549.408 571.83 552.31C570.83 557.7 567.31 560.92 562.83 561.4C559.83 561.72 556.77 561.93 553.73 561.96C550.69 561.99 547.63 561.72 544.62 561.4C540.15 560.92 536.62 557.7 535.62 552.31C535.132 549.407 534.855 546.473 534.79 543.53C534.35 531.62 535.88 519.6 533.98 507.8C532.86 500.86 529.98 494.65 523.45 491.88V551.15C523.45 552.15 523.45 552.5 523.45 553.15C523.26 559.72 526.35 564.23 530.76 568.26C534.54 571.71 538.96 572.19 543.41 572.95H564C568.45 572.19 572.87 571.71 576.65 568.26C581.06 564.26 584.15 559.72 583.96 553.15C583.96 552.54 583.96 552.15 583.96 551.15L584 491.88Z" fill="#D3D6C7"/>
<path d="M543.34 597.74C538.89 600.9 533.46 603.47 533.46 606.74H549C549.796 606.74 550.559 607.056 551.121 607.619C551.684 608.181 552 608.944 552 609.74V611.23H528.72V609.69C528.72 604.07 530.4 601.99 533.02 599.87C538.79 595.22 546.35 592.06 546.35 587.87C546.35 584.8 543.49 582.87 540.08 582.87C537.746 582.936 535.46 583.553 533.41 584.67C533.074 584.839 532.699 584.919 532.323 584.9C531.947 584.882 531.582 584.766 531.264 584.565C530.945 584.364 530.685 584.083 530.507 583.751C530.329 583.419 530.241 583.047 530.25 582.67C530.245 582.254 530.358 581.846 530.576 581.492C530.794 581.138 531.107 580.853 531.48 580.67C534.222 579.227 537.271 578.462 540.37 578.44C546.7 578.44 551.24 581.85 551.24 587.23C551.24 591.72 548.08 594.38 543.34 597.74Z" fill="white"/>
<path d="M568.22 611.72C560.07 611.72 554.15 604.95 554.15 595.13C554.15 585.05 560.27 578.48 568.15 578.48C575.41 578.48 581.73 585.05 581.73 595.03C581.75 605.25 575.18 611.72 568.22 611.72ZM576.86 595C576.86 588.53 573.31 582.85 568.07 582.85C562.83 582.85 559.07 588.53 559.07 595.19C559.07 601.85 562.97 607.39 567.86 607.39C573.11 607.37 576.86 601.79 576.86 595Z" fill="white"/>
<path d="M598.54 597.74C594.09 600.9 588.66 603.47 588.66 606.74H604.54C605.241 606.743 605.913 607.023 606.407 607.52C606.902 608.016 607.18 608.689 607.18 609.39V611.19H583.92V609.65C583.92 604.03 585.6 601.95 588.22 599.83C593.99 595.18 601.55 592.02 601.55 587.83C601.55 584.76 598.69 582.83 595.28 582.83C592.946 582.895 590.66 583.512 588.61 584.63C588.274 584.799 587.899 584.879 587.523 584.86C587.147 584.842 586.782 584.727 586.464 584.525C586.145 584.324 585.885 584.043 585.707 583.711C585.529 583.379 585.441 583.007 585.45 582.63C585.445 582.215 585.558 581.806 585.776 581.452C585.994 581.098 586.307 580.813 586.68 580.63C589.422 579.187 592.471 578.422 595.57 578.4C601.9 578.4 606.44 581.81 606.44 587.19C606.44 591.72 603.28 594.38 598.54 597.74Z" fill="white"/>
<path d="M627 593.94V594.04C631.54 594.63 634.46 597.3 634.46 601.59C634.46 607.03 629.57 611.72 621.96 611.72C618.914 611.669 615.921 610.92 613.21 609.53C612.832 609.35 612.512 609.066 612.287 608.713C612.063 608.359 611.942 607.949 611.94 607.53C611.937 607.149 612.032 606.774 612.215 606.441C612.399 606.108 612.665 605.827 612.989 605.626C613.312 605.425 613.681 605.311 614.062 605.294C614.442 605.277 614.82 605.359 615.16 605.53C617.229 606.68 619.544 607.315 621.91 607.38C626.21 607.38 629.57 604.77 629.57 601.51C629.57 598.25 626.57 596.37 622.36 596.37H615V592.32H620.48C624.53 592.32 627.99 590.49 627.99 587.53C627.99 584.81 625.47 582.89 621.52 582.89C619.267 582.897 617.053 583.483 615.09 584.59C614.77 584.771 614.409 584.866 614.041 584.864C613.673 584.863 613.313 584.765 612.994 584.581C612.676 584.397 612.411 584.133 612.226 583.816C612.042 583.498 611.943 583.138 611.94 582.77C611.942 582.374 612.055 581.986 612.265 581.651C612.475 581.315 612.775 581.045 613.13 580.87C615.929 579.385 619.042 578.586 622.21 578.54C628.43 578.54 632.88 581.85 632.88 586.59C632.83 590 630.9 592.51 627 593.94Z" fill="white"/>
</svg>
