<svg width="261" height="57" viewBox="0 0 261 57" fill="none" xmlns="http://www.w3.org/2000/svg">
<path d="M217.071 6.99594C217.196 6.94054 217.318 6.87735 217.435 6.80675C218.241 6.39138 219.075 6.03232 219.93 5.73217C221.185 5.30121 222.473 4.97655 223.782 4.76164C224.35 4.66326 224.917 4.58191 225.485 4.52515C225.988 4.47407 226.493 4.4211 226.998 4.37948C227.289 4.35489 227.585 4.35299 227.876 4.33407C229.011 4.2565 230.146 4.27353 231.281 4.27164C231.862 4.27164 232.443 4.30191 233.024 4.33975C233.78 4.38704 234.537 4.46461 235.294 4.56677C236.918 4.78818 238.524 5.12708 240.099 5.58081C241.635 6.02355 243.135 6.58199 244.587 7.25134C245.826 7.8228 247.024 8.48025 248.172 9.21889C249.314 9.9534 250.4 10.7717 251.42 11.667C251.736 11.9413 252.043 12.2345 252.344 12.5202C252.56 12.7321 252.776 12.9471 252.989 13.1653C253.02 13.2076 253.06 13.2425 253.106 13.2675L253.208 13.4813C253.223 13.5693 253.25 13.6547 253.289 13.7348C253.668 14.8699 254.046 16.005 254.425 17.1402C254.602 17.6774 254.78 18.2147 254.952 18.7539C255.308 19.8663 255.685 20.9712 256.054 22.0798C256.159 22.3996 256.309 22.6985 256.445 23.005C256.823 23.8714 257.192 24.7474 257.516 25.6403C257.909 26.7233 258.237 27.8289 258.498 28.9511C258.632 29.5319 258.744 30.1165 258.836 30.7068C258.908 31.176 258.967 31.6527 259.011 32.1219C259.035 32.3754 259.043 32.6327 259.06 32.8881C259.082 33.2494 259.079 33.6108 259.086 33.9721C259.094 34.3335 259.073 34.7478 259.045 35.1337C258.998 35.7435 258.919 36.3504 258.808 36.9518C258.637 37.9019 258.375 38.8332 258.025 39.7329C257.715 40.5085 257.335 41.2544 256.89 41.9615C256.457 42.6552 255.97 43.3137 255.433 43.9309C255.075 44.346 254.696 44.7425 254.298 45.119C253.45 45.908 252.533 46.6196 251.558 47.2455C250.988 47.6125 250.406 47.9556 249.81 48.2747C249.432 48.4809 249.037 48.6739 248.647 48.865L248.573 48.8952C248.545 48.9047 248.531 48.8952 248.524 48.865C248.524 48.7912 248.577 48.7533 248.618 48.7098C248.997 48.3314 249.375 47.9758 249.712 47.5747C250.049 47.1736 250.423 46.7669 250.754 46.3412C251.406 45.5328 252.005 44.6835 252.548 43.7985C252.813 43.3672 253.066 42.9283 253.305 42.4742C253.466 42.1602 253.623 41.8449 253.776 41.5283C253.904 41.2748 254.016 41.0118 254.122 40.7488C254.232 40.515 254.331 40.2757 254.417 40.0318C254.422 40.0174 254.429 40.0035 254.436 39.9902C254.451 39.958 254.462 39.9221 254.476 39.888C254.511 39.808 254.541 39.7259 254.566 39.6421C254.613 39.5343 254.653 39.4237 254.686 39.311C254.699 39.2788 254.71 39.2448 254.722 39.2107L254.756 39.1142C254.767 39.0821 254.776 39.0499 254.788 39.0197C254.799 38.9894 254.809 38.9553 254.818 38.9251L254.85 38.8305C254.862 38.8002 254.871 38.768 254.882 38.7378C254.894 38.7075 254.899 38.6886 254.907 38.6621C254.915 38.6356 254.924 38.611 254.932 38.5845C254.959 38.511 254.981 38.4358 254.998 38.3594C255.001 38.3459 255.006 38.3326 255.011 38.3197C255.022 38.2951 255.034 38.2705 255.043 38.2459C255.062 38.2026 255.076 38.1576 255.085 38.1115C255.085 38.0851 255.085 38.0605 255.098 38.034C255.1 38.0217 255.103 38.0097 255.108 37.998C255.114 37.9675 255.114 37.9359 255.108 37.9053C255.106 37.8924 255.108 37.8792 255.115 37.8681C255.122 37.857 255.133 37.8487 255.145 37.8448C255.159 37.8448 255.164 37.8448 255.17 37.8637C255.176 37.8826 255.17 37.8259 255.17 37.807C255.181 37.7521 255.198 37.6972 255.208 37.6405C255.211 37.6153 255.211 37.59 255.208 37.5648C255.206 37.5527 255.207 37.5402 255.212 37.5288C255.216 37.5174 255.224 37.5075 255.234 37.5005C255.266 37.4835 255.234 37.4607 255.234 37.4399C255.231 37.4275 255.232 37.4145 255.237 37.4027C255.242 37.3908 255.25 37.3807 255.261 37.3737C255.293 37.3567 255.261 37.334 255.261 37.3132C255.258 37.301 255.259 37.2882 255.263 37.2764C255.268 37.2646 255.275 37.2544 255.285 37.247C255.319 37.2318 255.285 37.2091 255.285 37.1883C255.282 37.1761 255.283 37.1632 255.287 37.1514C255.292 37.1396 255.3 37.1294 255.31 37.1221C255.342 37.1051 255.31 37.0824 255.31 37.0616C255.307 37.0491 255.308 37.0361 255.313 37.0243C255.318 37.0125 255.326 37.0024 255.336 36.9954C255.369 36.9802 255.336 36.9556 255.336 36.9348C255.333 36.9224 255.334 36.9093 255.339 36.8974C255.344 36.8855 255.352 36.8754 255.363 36.8686C255.401 36.8421 255.363 36.8118 255.363 36.7835C255.36 36.7707 255.36 36.7572 255.365 36.7447C255.369 36.7322 255.377 36.7213 255.388 36.7135C255.42 36.6964 255.388 36.6718 255.388 36.651C255.384 36.6382 255.385 36.6245 255.391 36.6124C255.396 36.6003 255.406 36.5906 255.418 36.5848C255.473 36.5848 255.418 36.5318 255.444 36.5129C255.447 36.4995 255.45 36.4862 255.454 36.4732C255.467 36.4278 255.467 36.3805 255.478 36.3351C255.49 36.2897 255.494 36.2405 255.505 36.1932C255.521 36.1427 255.521 36.0885 255.505 36.0381C255.501 36.0252 255.5 36.0115 255.503 35.9983C255.505 35.985 255.511 35.9727 255.52 35.9624C255.526 35.9597 255.532 35.9583 255.539 35.9583C255.545 35.9583 255.552 35.9597 255.558 35.9624C255.558 35.9813 255.543 35.9851 255.558 35.9756C255.573 35.9662 255.558 35.9529 255.558 35.9416C255.558 35.9 255.573 35.8602 255.575 35.8186C255.576 35.7817 255.581 35.7451 255.588 35.7089C255.607 35.6502 255.601 35.5859 255.618 35.5197C255.635 35.4535 255.634 35.3948 255.649 35.3305C255.664 35.2662 255.664 35.2075 255.679 35.1413C255.691 35.1052 255.698 35.0677 255.7 35.0297C255.716 35.0014 255.735 34.9742 255.755 34.9483C255.77 34.8767 255.779 34.8039 255.783 34.7308C255.796 34.6926 255.802 34.6519 255.798 34.6116C255.796 34.5984 255.796 34.585 255.798 34.5719C255.804 34.5337 255.8 34.4946 255.787 34.4583C255.781 34.4395 255.781 34.4195 255.786 34.4005C255.791 34.3815 255.801 34.3642 255.815 34.3505C255.815 34.3505 255.842 34.3638 255.832 34.3373C255.83 34.3273 255.83 34.317 255.832 34.307C255.839 34.272 255.844 34.2366 255.847 34.2011C255.846 34.1885 255.846 34.1758 255.847 34.1632C255.855 34.1315 255.855 34.0985 255.847 34.0667C255.846 34.0535 255.846 34.0402 255.847 34.027C255.854 33.9798 255.849 33.9317 255.832 33.887C255.832 33.8359 255.819 33.7848 255.87 33.7508C255.896 33.7508 255.896 33.7754 255.914 33.783C255.931 33.7905 255.9 33.7584 255.887 33.7489C255.88 33.7409 255.876 33.7314 255.873 33.7212C255.871 33.711 255.871 33.7004 255.874 33.6902C255.882 33.6497 255.887 33.6086 255.889 33.5673C255.891 33.5462 255.895 33.5253 255.9 33.5048C255.916 33.4602 255.916 33.4114 255.9 33.3667C255.895 33.3386 255.895 33.3097 255.9 33.2816C255.912 33.2405 255.918 33.1977 255.917 33.1549C255.919 33.1255 255.923 33.0963 255.931 33.0678C255.949 33.0196 255.949 32.9666 255.931 32.9184C255.921 32.8722 255.921 32.8246 255.931 32.7784C255.946 32.7237 255.951 32.6666 255.946 32.61C255.944 32.536 255.948 32.462 255.957 32.3886C255.981 32.3279 255.981 32.2602 255.957 32.1994C255.931 31.7416 255.957 31.2857 255.946 30.8297C255.934 30.2168 255.883 29.6057 255.825 28.9946C255.73 28.0235 255.582 27.0584 255.38 26.1038C255.059 24.5518 254.615 23.0278 254.052 21.5463C253.708 20.6496 253.325 19.768 252.894 18.9091C251.984 17.0558 250.858 15.3164 249.54 13.7272C248.849 12.9297 248.108 12.1776 247.321 11.4759C246.543 10.7557 245.728 10.0774 244.878 9.44402C243.826 8.65792 242.695 7.98152 241.505 7.42539C240.018 6.73176 238.434 6.26862 236.807 6.05189C236.323 5.98757 235.839 5.95351 235.351 5.91946C234.869 5.88825 234.386 5.88257 233.903 5.90243C232.771 5.94739 231.644 6.08469 230.534 6.31297C228.9 6.66045 227.296 7.13291 225.734 7.7262C224.94 8.02204 224.162 8.35926 223.404 8.73646C222.039 9.41154 220.753 10.2364 219.571 11.1959C219.173 11.5213 218.791 11.8637 218.417 12.2175C216.899 13.6916 215.578 15.3543 214.483 17.1647C213.853 18.1712 213.273 19.2061 212.73 20.2617C211.973 21.7166 211.203 23.1582 210.412 24.5903C210.223 24.9498 210.034 25.313 209.824 25.6668C209.767 25.7633 209.809 25.8901 209.71 25.9657C209.627 25.9147 209.627 25.8295 209.621 25.7482C209.626 25.6551 209.62 25.5618 209.604 25.4701C209.574 25.1825 209.604 24.893 209.591 24.6036C209.578 24.036 209.591 23.4685 209.627 22.8896C209.693 21.8219 209.819 20.7588 210.005 19.7055C210.216 18.5377 210.512 17.3869 210.891 16.2623C211.597 14.1586 212.618 12.1737 213.918 10.3748C214.683 9.32104 215.542 8.33891 216.485 7.44053C216.557 7.37053 216.638 7.31377 216.716 7.25134C216.827 7.1566 216.946 7.07117 217.071 6.99594Z" fill="#87959E"/>
<path d="M206.606 32.5967C206.643 32.5465 206.668 32.4882 206.679 32.4264C206.935 31.6792 207.213 30.9413 207.529 30.2167C207.735 29.7419 207.951 29.2708 208.17 28.8016C208.435 28.2341 208.721 27.6816 209.001 27.1235C209.19 26.7452 209.398 26.3668 209.602 25.9884C209.63 25.9396 209.641 25.8833 209.635 25.8276C209.625 25.7027 209.635 25.576 209.635 25.4492C209.693 25.5249 209.661 25.61 209.663 25.6895C209.658 25.7826 209.679 25.8752 209.725 25.9562C209.783 26.085 209.808 26.2261 209.797 26.3668C209.829 26.9892 209.892 27.6097 209.967 28.2284C210.087 29.197 210.251 30.1581 210.454 31.1135C210.666 32.1048 210.927 33.0829 211.227 34.0516C211.58 35.1893 212.002 36.3044 212.491 37.3907C212.956 38.4384 213.498 39.4502 214.113 40.4177C214.533 41.0828 215.004 41.7153 215.52 42.3096C215.91 42.7561 216.324 43.1798 216.706 43.6339C217.03 44.0123 217.359 44.3906 217.69 44.7596C217.826 44.9128 217.964 45.0642 218.103 45.2155C219.251 46.464 220.527 47.5883 221.911 48.5698C222.579 49.0382 223.274 49.4671 223.992 49.8544C224.908 50.3455 225.863 50.7606 226.847 51.0954C227.995 51.4878 229.177 51.774 230.377 51.9506C231.026 52.0452 231.677 52.1189 232.331 52.1606C233.122 52.211 233.914 52.2217 234.706 52.1927C235.481 52.1662 236.253 52.0962 237.025 52.0035C237.046 52.0007 237.067 52.0007 237.087 52.0035C237.11 52.0149 237.135 52.0262 237.159 52.0035C237.224 51.9713 237.297 51.9619 237.367 51.977C237.39 51.9979 237.407 51.9941 237.422 51.977C237.545 51.9412 237.673 51.9227 237.801 51.9222C237.826 51.926 237.853 51.9221 237.876 51.9108C237.899 51.8974 237.925 51.8889 237.951 51.886C237.978 51.8831 238.004 51.8857 238.03 51.8938C238.047 51.9146 238.062 51.9146 238.073 51.8938C238.094 51.8783 238.118 51.868 238.144 51.8638C238.17 51.8595 238.196 51.8614 238.221 51.8692C238.246 51.8706 238.271 51.864 238.293 51.8503C238.31 51.8403 238.329 51.834 238.349 51.8317C238.369 51.8294 238.389 51.8312 238.408 51.8371C238.433 51.8391 238.457 51.8331 238.478 51.82C238.511 51.7981 238.551 51.7893 238.59 51.7954C238.614 51.803 238.641 51.803 238.665 51.7954C238.699 51.7742 238.739 51.7655 238.779 51.7708C238.802 51.7784 238.827 51.7784 238.851 51.7708C238.878 51.7547 238.91 51.7469 238.941 51.7481C238.966 51.7519 238.991 51.748 239.013 51.7368C239.046 51.7165 239.085 51.7079 239.123 51.7122C239.146 51.7161 239.17 51.7121 239.191 51.7008C239.218 51.6844 239.25 51.6777 239.282 51.6819C239.305 51.6894 239.331 51.6894 239.354 51.6819C239.381 51.6661 239.412 51.6582 239.443 51.6592C239.466 51.6658 239.49 51.6658 239.513 51.6592C239.539 51.6425 239.57 51.6346 239.602 51.6365C239.624 51.643 239.648 51.643 239.67 51.6365C239.696 51.6206 239.726 51.6127 239.757 51.6138C239.78 51.6159 239.804 51.6099 239.823 51.5968C239.849 51.5803 239.88 51.5736 239.91 51.5779C239.932 51.5852 239.956 51.5852 239.978 51.5779C239.998 51.5648 240.022 51.5588 240.046 51.5608C240.074 51.5721 240.104 51.5721 240.131 51.5608C240.147 51.5493 240.167 51.544 240.186 51.5457C240.213 51.5457 240.245 51.576 240.268 51.5343C240.276 51.5238 240.286 51.5157 240.299 51.511C240.311 51.5063 240.325 51.5052 240.338 51.5079C240.366 51.5079 240.396 51.5419 240.423 51.5079C240.43 51.4971 240.441 51.4887 240.453 51.484C240.465 51.4793 240.478 51.4784 240.491 51.4814C240.512 51.4814 240.534 51.5079 240.55 51.4814C240.556 51.4714 240.566 51.4636 240.577 51.4589C240.588 51.4542 240.6 51.4528 240.612 51.4549C240.635 51.4604 240.658 51.4642 240.682 51.4662C240.707 51.4641 240.731 51.459 240.754 51.4511C240.772 51.4453 240.79 51.4415 240.809 51.4398C240.841 51.4382 240.873 51.4318 240.903 51.4208L240.96 51.4076C240.987 51.402 241.012 51.3944 241.038 51.3849H241.079C241.156 51.3744 241.232 51.3573 241.306 51.3338L241.39 51.3149C241.424 51.3149 241.458 51.2979 241.492 51.2903L241.571 51.2695L241.694 51.2392C241.736 51.2279 241.777 51.2203 241.819 51.2071C241.847 51.1999 241.875 51.1948 241.904 51.1919C241.946 51.1919 241.987 51.1711 242.029 51.1635C242.071 51.156 242.11 51.1408 242.152 51.1333L242.235 51.1106C242.313 51.0917 242.388 51.0746 242.464 51.0519L242.506 51.0387C242.553 51.0254 242.602 51.0103 242.651 51.0008L242.714 50.9819C242.823 50.9581 242.931 50.9284 243.037 50.893C243.059 50.8862 243.08 50.8805 243.102 50.876C243.16 50.8642 243.217 50.8478 243.272 50.8268C243.384 50.8022 243.49 50.7625 243.599 50.7341L243.641 50.7208C243.707 50.7019 243.773 50.6887 243.83 50.666C243.993 50.6111 244.157 50.5676 244.318 50.5127L244.364 50.4976C244.785 50.3633 245.205 50.2176 245.625 50.0795L245.667 50.0644C245.716 50.0533 245.764 50.0362 245.809 50.0133C245.868 49.9925 245.928 49.9736 245.987 49.9509L246.027 49.9376C246.073 49.9239 246.118 49.9062 246.161 49.8846C246.22 49.8638 246.282 49.8468 246.339 49.8203L246.439 49.7787C246.549 49.739 246.657 49.6917 246.764 49.65C246.821 49.633 246.87 49.6046 246.925 49.5857C246.98 49.5668 247.056 49.5328 247.114 49.5082C247.147 49.4949 247.177 49.4817 247.211 49.4703L247.287 49.44C247.354 49.4069 247.424 49.3772 247.495 49.3511C247.544 49.3284 247.597 49.3114 247.646 49.2906L247.684 49.2736C247.741 49.2509 247.794 49.2206 247.848 49.1941C247.886 49.1822 247.924 49.1683 247.96 49.1525C248.015 49.1279 248.068 49.0995 248.123 49.073L248.178 49.0541L248.25 49.0276C248.284 49.0106 248.318 48.9936 248.35 48.9747C248.39 48.9537 248.432 48.9353 248.475 48.9198C248.481 48.9185 248.487 48.9186 248.494 48.9203C248.5 48.9219 248.506 48.925 248.511 48.9292L248.547 48.969C248.451 49.0226 248.365 49.0902 248.289 49.1695C247.741 49.7139 247.151 50.2154 246.526 50.6698C245.947 51.0898 245.347 51.4833 244.731 51.8446C244.708 51.8579 244.681 51.8654 244.668 51.89C244.658 51.9023 244.646 51.9137 244.634 51.9241C244.606 51.9411 244.583 51.9733 244.541 51.9581L244.509 51.9827C244.48 52.0092 244.448 52.0321 244.413 52.0508C244.384 52.0698 244.36 52.1 244.32 52.0868L244.286 52.1095C244.256 52.136 244.224 52.1594 244.19 52.1795C244.171 52.1965 244.146 52.2022 244.129 52.2211C244.112 52.24 244.08 52.2211 244.061 52.2438C244.014 52.2854 243.951 52.3024 243.902 52.3403C243.885 52.3611 243.855 52.3554 243.836 52.3724C243.815 52.388 243.794 52.4026 243.771 52.416C243.741 52.416 243.717 52.4538 243.681 52.4387L243.647 52.4633C243.509 52.5457 243.368 52.6209 243.223 52.6884C243.16 52.7036 243.1 52.732 243.049 52.7716C242.878 52.8643 242.701 52.9438 242.528 53.0346C242.506 53.0554 242.47 53.0346 242.449 53.0668C242.432 53.0876 242.402 53.0819 242.383 53.1008C242.286 53.1387 242.194 53.1916 242.099 53.2276C242.082 53.2484 242.054 53.2427 242.035 53.2616C241.97 53.2787 241.917 53.3316 241.846 53.3278L241.815 53.3487C241.802 53.377 241.768 53.3714 241.749 53.3884L241.528 53.483C241.49 53.5065 241.446 53.5183 241.401 53.517L241.369 53.536C241.298 53.5774 241.224 53.6122 241.147 53.64C241.098 53.6684 241.04 53.676 240.989 53.7043C240.937 53.7327 240.879 53.7422 240.828 53.7686C240.779 53.7989 240.72 53.8065 240.669 53.833C240.601 53.8686 240.526 53.8904 240.449 53.8973L240.417 53.9181C240.374 53.9635 240.307 53.9597 240.258 53.9919C240.254 53.9961 240.249 53.9994 240.244 54.0017C240.239 54.0039 240.233 54.0051 240.227 54.0051C240.221 54.0051 240.215 54.0039 240.21 54.0017C240.205 53.9994 240.2 53.9961 240.196 53.9919C240.189 53.9905 240.183 53.9915 240.177 53.9946C240.171 53.9977 240.166 54.0028 240.164 54.0089C240.099 54.0551 240.022 54.0814 239.942 54.0846C239.935 54.0844 239.929 54.0865 239.923 54.0906C239.918 54.0948 239.914 54.1006 239.912 54.1073C239.895 54.1338 239.874 54.1338 239.85 54.1186C239.843 54.1175 239.836 54.1185 239.83 54.1216C239.824 54.1246 239.819 54.1296 239.816 54.1357C239.703 54.1897 239.587 54.2352 239.467 54.2719C239.459 54.2799 239.448 54.2843 239.436 54.2843C239.425 54.2843 239.413 54.2799 239.405 54.2719C239.402 54.2711 239.398 54.2709 239.394 54.2715C239.391 54.2722 239.387 54.2735 239.384 54.2754C239.381 54.2774 239.379 54.2799 239.377 54.2829C239.375 54.2858 239.374 54.2892 239.373 54.2927C239.369 54.2978 239.365 54.3019 239.359 54.3048C239.354 54.3077 239.348 54.3092 239.342 54.3092C239.335 54.3092 239.329 54.3077 239.324 54.3048C239.319 54.3019 239.314 54.2978 239.31 54.2927C239.303 54.292 239.296 54.2939 239.29 54.2981C239.284 54.3023 239.28 54.3084 239.278 54.3154C239.275 54.3208 239.271 54.3254 239.266 54.3289C239.261 54.3324 239.255 54.3347 239.249 54.3356C239.243 54.3365 239.237 54.336 239.231 54.3341C239.226 54.3323 239.22 54.3291 239.216 54.3249C239.199 54.3249 239.187 54.3249 239.184 54.3476C239.18 54.3703 239.146 54.3722 239.121 54.3476C239.114 54.3464 239.107 54.3479 239.101 54.3517C239.095 54.3556 239.091 54.3615 239.089 54.3684C239.072 54.3949 239.051 54.3949 239.027 54.3684C239.019 54.3677 239.012 54.3696 239.006 54.3738C239 54.3779 238.996 54.3841 238.994 54.3911C238.977 54.4176 238.957 54.4157 238.932 54.4005C238.925 54.3999 238.918 54.4018 238.912 54.4059C238.906 54.4101 238.902 54.4162 238.9 54.4232C238.883 54.4478 238.862 54.4478 238.837 54.4232C238.831 54.422 238.824 54.4232 238.818 54.4267C238.812 54.4301 238.807 54.4356 238.805 54.4422C238.686 54.4989 238.558 54.5347 238.427 54.5481C238.42 54.5478 238.413 54.5499 238.407 54.554C238.401 54.5581 238.397 54.564 238.395 54.5708C238.392 54.5761 238.388 54.5807 238.383 54.5842C238.378 54.5877 238.373 54.5901 238.367 54.591C238.361 54.5919 238.355 54.5914 238.349 54.5896C238.344 54.5877 238.338 54.5845 238.334 54.5803C238.327 54.5789 238.32 54.5801 238.314 54.5835C238.308 54.587 238.303 54.5925 238.3 54.5992C238.234 54.6465 238.149 54.6389 238.079 54.673C238.07 54.681 238.059 54.6854 238.048 54.6854C238.036 54.6854 238.025 54.681 238.016 54.673C238.004 54.6702 237.991 54.6711 237.979 54.6755C237.967 54.6798 237.956 54.6875 237.948 54.6976C237.901 54.7222 237.856 54.76 237.795 54.7354C237.788 54.7348 237.782 54.7363 237.776 54.7397C237.77 54.7431 237.766 54.7482 237.763 54.7543C237.708 54.7921 237.64 54.8076 237.574 54.7978C237.561 54.7955 237.549 54.7965 237.537 54.8009C237.525 54.8052 237.515 54.8127 237.507 54.8224C237.492 54.8489 237.472 54.8451 237.451 54.8224C237.443 54.8207 237.436 54.8219 237.429 54.8258C237.423 54.8297 237.418 54.836 237.417 54.8432C237.414 54.8486 237.41 54.8532 237.405 54.8567C237.4 54.8602 237.395 54.8625 237.389 54.8634C237.383 54.8643 237.377 54.8638 237.371 54.862C237.365 54.8601 237.36 54.8569 237.356 54.8527C237.344 54.8492 237.33 54.8497 237.318 54.8541C237.306 54.8585 237.295 54.8666 237.288 54.8773C237.271 54.9019 237.25 54.9 237.229 54.8773C237.217 54.875 237.204 54.8761 237.192 54.8804C237.18 54.8847 237.169 54.8921 237.161 54.9019C237.146 54.9284 237.125 54.9246 237.104 54.9019C237.098 54.9004 237.091 54.9013 237.084 54.9044C237.078 54.9075 237.073 54.9126 237.07 54.9189C237.044 54.9586 237.012 54.9454 236.978 54.9322C236.944 54.9189 236.949 54.9322 236.946 54.9549C236.942 54.9776 236.896 54.9738 236.87 54.9776C236.85 54.9834 236.832 54.9923 236.815 55.004C236.805 55.0073 236.795 55.0081 236.785 55.0065C236.774 55.0048 236.765 55.0008 236.756 54.9946C236.744 54.9914 236.731 54.9923 236.719 54.997C236.707 55.0018 236.697 55.0102 236.69 55.0211C236.671 55.0438 236.652 55.0419 236.63 55.0211C236.617 55.0187 236.604 55.0199 236.593 55.0246C236.581 55.0293 236.571 55.0373 236.563 55.0476C236.56 55.0522 236.556 55.0561 236.551 55.0587C236.545 55.0613 236.54 55.0627 236.534 55.0627C236.528 55.0627 236.523 55.0613 236.518 55.0587C236.512 55.0561 236.508 55.0522 236.505 55.0476C236.493 55.0442 236.48 55.0443 236.468 55.048C236.456 55.0517 236.445 55.0588 236.437 55.0684C236.374 55.1106 236.297 55.1262 236.223 55.1119C236.215 55.1107 236.208 55.1124 236.201 55.1166C236.195 55.1208 236.191 55.1272 236.189 55.1346C236.16 55.1667 236.128 55.1592 236.094 55.1346C236.082 55.1322 236.069 55.1335 236.057 55.1382C236.046 55.1428 236.035 55.1508 236.028 55.1611C236.024 55.1654 236.02 55.1689 236.015 55.1713C236.01 55.1737 236.004 55.175 235.999 55.175C235.993 55.175 235.988 55.1737 235.982 55.1713C235.977 55.1689 235.973 55.1654 235.969 55.1611C235.957 55.1574 235.944 55.1576 235.932 55.1617C235.92 55.1657 235.909 55.1734 235.901 55.1838C235.877 55.2197 235.846 55.2046 235.816 55.1951C235.803 55.1906 235.789 55.1903 235.776 55.1944C235.763 55.1985 235.752 55.2067 235.744 55.2178C235.741 55.2222 235.736 55.2257 235.731 55.2281C235.726 55.2305 235.721 55.2318 235.715 55.2318C235.709 55.2318 235.704 55.2305 235.699 55.2281C235.694 55.2257 235.689 55.2222 235.686 55.2178C235.673 55.2147 235.66 55.2151 235.648 55.2191C235.636 55.2232 235.625 55.2306 235.617 55.2405C235.595 55.2765 235.563 55.2613 235.532 55.2538C235.52 55.2486 235.506 55.2481 235.493 55.2522C235.48 55.2564 235.469 55.265 235.462 55.2765C235.442 55.3049 235.409 55.2897 235.383 55.2954L235.303 55.3219C235.294 55.3265 235.284 55.3289 235.274 55.3289C235.264 55.3289 235.254 55.3265 235.245 55.3219C235.232 55.3182 235.219 55.3184 235.207 55.3225C235.195 55.3265 235.184 55.3342 235.177 55.3446C235.15 55.3805 235.118 55.3692 235.086 55.3446C235.074 55.342 235.061 55.343 235.049 55.3473C235.037 55.3517 235.027 55.3592 235.02 55.3692C234.993 55.4051 234.961 55.3938 234.929 55.3692C234.897 55.3446 234.878 55.3692 234.863 55.3919C234.847 55.4146 234.791 55.407 234.757 55.4165L234.67 55.443C234.647 55.4448 234.624 55.4448 234.602 55.443C234.543 55.443 234.488 55.4959 234.426 55.46C234.39 55.46 234.354 55.4505 234.327 55.4865C234.301 55.5224 234.286 55.5054 234.261 55.5054C234.194 55.5289 234.122 55.5405 234.051 55.5394C233.998 55.5527 233.947 55.5848 233.888 55.5565H233.76L232.895 55.4221C232.869 55.4203 232.843 55.4203 232.818 55.4221C232.62 55.422 232.424 55.3959 232.233 55.3446C231.377 55.193 230.529 54.9985 229.692 54.7619C229.149 54.6086 228.614 54.4289 228.08 54.2492C227.132 53.901 226.208 53.4914 225.312 53.0232C224.855 52.7811 224.395 52.5427 223.943 52.2892C223.85 52.2268 223.742 52.1908 223.649 52.1284C223.557 52.066 223.46 52.03 223.366 51.9695C223.271 51.9089 223.203 51.9033 223.15 51.8257C223.093 51.7788 223.029 51.74 222.961 51.7103C222.948 51.7197 222.94 51.7103 222.936 51.7103C222.879 51.6624 222.816 51.6235 222.747 51.5949C222.734 51.5949 222.724 51.5949 222.722 51.5949C222.71 51.5764 222.694 51.5612 222.674 51.5506C222.655 51.54 222.633 51.5344 222.611 51.5343C222.539 51.4946 222.456 51.4776 222.405 51.4076C222.348 51.359 222.284 51.3189 222.215 51.2884C222.167 51.2862 222.12 51.2652 222.087 51.2298C222.043 51.1825 221.964 51.19 221.935 51.1238C221.878 51.0755 221.815 51.0353 221.746 51.0046C221.729 51.0053 221.712 51.0021 221.696 50.9952C221.681 50.9883 221.667 50.9779 221.655 50.9649C221.604 50.9233 221.532 50.9157 221.497 50.8552C221.489 50.8437 221.479 50.8339 221.468 50.8265C221.457 50.819 221.444 50.8139 221.43 50.8117C221.415 50.8117 221.406 50.8117 221.402 50.7927C221.385 50.7712 221.361 50.7565 221.334 50.7511C221.322 50.7511 221.313 50.7511 221.309 50.7511C221.163 50.6403 221.011 50.5391 220.851 50.4484C219.797 49.78 218.773 49.0686 217.779 48.3144C216.981 47.7109 216.205 47.0809 215.458 46.4225C215.14 46.1406 214.822 45.8549 214.512 45.5636C214.179 45.2382 213.846 44.9109 213.517 44.5798C212.875 43.9347 212.276 43.2555 211.699 42.548C211.05 41.7607 210.444 40.9397 209.882 40.0885C209.484 39.4793 209.11 38.8544 208.762 38.2137C208.477 37.684 208.208 37.1454 207.955 36.598C207.943 36.5734 207.926 36.5545 207.913 36.5318C207.779 36.2697 207.659 36.0007 207.553 35.7259C207.522 35.6722 207.499 35.6142 207.485 35.5537C207.48 35.5319 207.47 35.5114 207.457 35.4932C207.417 35.4071 207.384 35.3179 207.359 35.2264C207.321 35.164 207.311 35.0883 207.272 35.0372C207.266 35.0161 207.26 34.9953 207.253 34.9748C207.231 34.9039 207.204 34.8349 207.171 34.7686C207.121 34.6405 207.083 34.5082 207.058 34.3732C207.058 34.3562 207.058 34.3448 207.041 34.3391C207.024 34.3335 207.01 34.3051 207.024 34.2805C207.026 34.2772 207.027 34.2735 207.027 34.2698C207.027 34.266 207.026 34.2623 207.025 34.2588C207.024 34.2553 207.021 34.2522 207.018 34.2497C207.016 34.2473 207.012 34.2455 207.009 34.2445C206.978 34.2313 206.98 34.2105 206.992 34.1859C206.993 34.1826 206.995 34.179 206.995 34.1752C206.995 34.1714 206.994 34.1677 206.993 34.1642C206.991 34.1607 206.989 34.1576 206.986 34.1552C206.983 34.1527 206.98 34.1509 206.976 34.1499C206.946 34.1367 206.948 34.1159 206.961 34.0913C206.964 34.0845 206.964 34.077 206.961 34.0703C206.958 34.0636 206.953 34.0583 206.946 34.0554C206.916 34.0421 206.916 34.0213 206.929 33.9967C206.942 33.9721 206.929 33.9683 206.912 33.9626C206.903 33.9575 206.895 33.9496 206.891 33.9402C206.886 33.9308 206.884 33.9201 206.886 33.9097C206.882 33.8962 206.878 33.8829 206.872 33.8699C206.864 33.8504 206.857 33.8301 206.852 33.8094C206.783 33.6202 206.744 33.431 206.674 33.2418C206.664 33.2154 206.674 33.1851 206.657 33.1567C206.64 33.1283 206.643 33.117 206.636 33.0981C206.636 33.0413 206.598 32.9959 206.594 32.9391C206.594 32.9202 206.583 32.9013 206.575 32.8824C206.571 32.8732 206.569 32.8632 206.569 32.8531C206.569 32.8429 206.571 32.8329 206.575 32.8237C206.578 32.8111 206.578 32.7979 206.574 32.7855C206.57 32.7731 206.563 32.7622 206.553 32.7537C206.541 32.7537 206.536 32.7537 206.538 32.7386C206.539 32.7235 206.538 32.7273 206.547 32.7273L206.606 32.5967Z" fill="#D3D6C7"/>
<path d="M253.208 13.4718C253.44 13.684 253.656 13.9122 253.855 14.1547C254.313 14.6674 254.742 15.2028 255.153 15.7534C255.762 16.5743 256.32 17.4324 256.823 18.3225C257.06 18.7368 257.287 19.1568 257.497 19.5844C258 20.6056 258.442 21.6555 258.821 22.7287C259.186 23.7718 259.495 24.8333 259.748 25.9089C259.968 26.8397 260.151 27.7787 260.299 28.7259C260.401 29.3767 260.488 30.0294 260.554 30.684C260.59 31.0492 260.62 31.4124 260.649 31.7775C260.666 31.9875 260.664 32.1956 260.677 32.4056C260.711 32.5305 260.66 32.661 260.704 32.784V34.9559C260.662 35.0694 260.704 35.1905 260.677 35.3059C260.677 35.5461 260.664 35.7864 260.641 36.0267C260.602 36.4902 260.554 36.9518 260.492 37.4134C260.429 37.875 260.354 38.3442 260.265 38.8058C260.071 39.8025 259.807 40.7843 259.476 41.7439C259.185 42.5859 258.838 43.4075 258.437 44.2033C257.895 45.268 257.258 46.2812 256.532 47.2303C255.909 48.0396 255.223 48.7987 254.481 49.5006C253.464 50.4631 252.35 51.3195 251.159 52.0565C250.389 52.5357 249.591 52.9684 248.77 53.3524C247.516 53.9378 246.215 54.4187 244.882 54.7902C243.999 55.0425 243.106 55.2443 242.203 55.3956C241.572 55.5041 240.946 55.593 240.324 55.6624C239.929 55.7078 239.532 55.7343 239.134 55.7608C238.822 55.7816 238.506 55.7873 238.189 55.8062C237.68 55.8346 237.171 55.8251 236.664 55.8175C236.308 55.8175 235.952 55.8024 235.597 55.774L234.938 55.7324C234.611 55.7078 234.284 55.67 233.955 55.6378C233.898 55.6094 233.909 55.581 233.955 55.5546C234 55.5281 234.06 55.5394 234.112 55.5205C234.163 55.5016 234.246 55.5092 234.301 55.4883C234.32 55.4865 234.34 55.4865 234.359 55.4883C234.373 55.4883 234.382 55.5148 234.397 55.4883C234.412 55.4619 234.373 55.477 234.376 55.46C234.38 55.4429 234.433 55.4202 234.469 55.4221C234.531 55.4416 234.597 55.4416 234.658 55.4221C234.7 55.4221 234.742 55.4108 234.783 55.3975C234.825 55.3843 234.874 55.407 234.91 55.3654C234.917 55.3545 234.927 55.3461 234.939 55.3413C234.951 55.3366 234.964 55.3357 234.976 55.3389C235.006 55.3389 235.04 55.3824 235.069 55.3389C235.077 55.3286 235.088 55.3209 235.1 55.3166C235.113 55.3122 235.126 55.3114 235.139 55.3143C235.167 55.3143 235.197 55.3484 235.224 55.3143C235.232 55.3042 235.242 55.2964 235.254 55.2917C235.266 55.2871 235.279 55.2857 235.292 55.2878C235.335 55.3011 235.381 55.3011 235.425 55.2878C235.451 55.2746 235.493 55.2992 235.508 55.2557C235.515 55.2445 235.526 55.2359 235.538 55.2309C235.551 55.2258 235.565 55.2246 235.578 55.2273C235.606 55.2273 235.638 55.2613 235.665 55.2273C235.672 55.2165 235.683 55.2081 235.695 55.2034C235.707 55.1987 235.72 55.1978 235.733 55.2008C235.754 55.2008 235.776 55.2254 235.793 55.2008C235.802 55.1907 235.813 55.1832 235.825 55.1792C235.838 55.1751 235.851 55.1748 235.863 55.1781C235.892 55.1781 235.922 55.2121 235.949 55.1781C235.956 55.1678 235.967 55.16 235.979 55.1556C235.991 55.1513 236.004 55.1505 236.017 55.1535C236.036 55.1535 236.058 55.1781 236.075 55.1535C236.082 55.1437 236.092 55.136 236.103 55.1313C236.114 55.1267 236.126 55.1252 236.138 55.127C236.167 55.1348 236.198 55.1307 236.225 55.1156C236.243 55.1052 236.263 55.1 236.283 55.1005C236.349 55.1082 236.415 55.095 236.473 55.0627C236.48 55.0516 236.491 55.0429 236.503 55.0379C236.516 55.0328 236.529 55.0316 236.543 55.0343C236.563 55.0343 236.586 55.0589 236.603 55.0343C236.611 55.0244 236.622 55.0169 236.634 55.0129C236.646 55.0089 236.659 55.0084 236.671 55.0116C236.69 55.0116 236.715 55.0343 236.73 55.0021C236.738 54.9924 236.748 54.9849 236.76 54.9806C236.771 54.9763 236.784 54.9752 236.796 54.9775C236.826 54.9849 236.857 54.9849 236.887 54.9775C236.916 54.97 236.944 54.9572 236.968 54.9397C236.984 54.9285 237.002 54.9213 237.021 54.9189C237.045 54.9222 237.07 54.9176 237.091 54.9056C237.108 54.8952 237.128 54.8899 237.148 54.8905C237.167 54.8905 237.192 54.9132 237.203 54.8773C237.21 54.8673 237.22 54.8597 237.231 54.8553C237.243 54.8509 237.255 54.85 237.267 54.8527C237.288 54.8527 237.309 54.8735 237.326 54.8527C237.332 54.8433 237.34 54.8357 237.35 54.8307C237.36 54.8258 237.371 54.8235 237.383 54.8243C237.405 54.8272 237.428 54.8232 237.449 54.8129C237.464 54.8046 237.481 54.8007 237.498 54.8016C237.519 54.8016 237.54 54.8016 237.551 54.7827C237.56 54.7739 237.571 54.7674 237.583 54.7638C237.596 54.7601 237.609 54.7595 237.621 54.7619C237.649 54.7671 237.678 54.7664 237.705 54.7599C237.733 54.7534 237.759 54.7412 237.782 54.724C237.799 54.7124 237.818 54.7052 237.839 54.7032C237.89 54.7032 237.943 54.7032 237.984 54.6692C237.99 54.6584 237.999 54.6496 238.01 54.6436C238.02 54.6376 238.033 54.6346 238.045 54.6351C238.07 54.6389 238.095 54.6389 238.12 54.6351L238.158 54.6257C238.21 54.6181 238.26 54.6008 238.306 54.5746C238.322 54.5643 238.34 54.5567 238.359 54.5519C238.383 54.549 238.407 54.5412 238.429 54.5292C238.446 54.5199 238.466 54.5153 238.486 54.5159C238.597 54.5023 238.705 54.4697 238.805 54.4194C238.821 54.409 238.838 54.4007 238.856 54.3948C238.879 54.393 238.902 54.3872 238.923 54.3778C238.937 54.3686 238.953 54.3627 238.97 54.3608C238.986 54.3575 239.002 54.3524 239.017 54.3457C239.031 54.3372 239.047 54.3315 239.063 54.3286C239.08 54.3271 239.096 54.3227 239.112 54.3154C239.125 54.3053 239.141 54.2987 239.157 54.2965C239.174 54.295 239.191 54.2905 239.206 54.2832C239.22 54.2737 239.235 54.2678 239.252 54.2662C239.268 54.265 239.284 54.2605 239.299 54.253C239.313 54.2431 239.329 54.2367 239.346 54.234C239.363 54.2325 239.379 54.228 239.394 54.2208C239.408 54.2123 239.424 54.2066 239.441 54.2038C239.464 54.2074 239.487 54.2074 239.509 54.2038L239.547 54.1905C239.641 54.1656 239.732 54.1301 239.817 54.0846C239.833 54.0728 239.85 54.0639 239.869 54.0581C239.893 54.0558 239.917 54.0487 239.939 54.0373C239.955 54.0261 239.974 54.0201 239.993 54.0203C240.055 54.0166 240.114 53.9956 240.164 53.9597C240.179 53.9473 240.196 53.9378 240.215 53.9313C240.24 53.9332 240.265 53.9332 240.29 53.9313L240.326 53.92C240.364 53.9093 240.398 53.8912 240.429 53.867C240.444 53.8536 240.463 53.845 240.483 53.8424C240.55 53.8366 240.614 53.8173 240.673 53.7857L240.709 53.7705C240.753 53.7593 240.795 53.7428 240.835 53.7213L240.871 53.7062C240.915 53.6954 240.957 53.6789 240.996 53.657L241.032 53.6419C241.075 53.6303 241.117 53.6138 241.157 53.5927L241.195 53.5757C241.257 53.56 241.316 53.5317 241.367 53.4924C241.383 53.4791 241.402 53.47 241.422 53.4659C241.461 53.4644 241.499 53.454 241.533 53.4357L241.569 53.4205C241.625 53.4026 241.68 53.3798 241.732 53.3524L241.764 53.3354C241.786 53.3244 241.807 53.3104 241.825 53.2938C241.841 53.2822 241.86 53.2751 241.88 53.273C241.929 53.2669 241.977 53.2501 242.02 53.2238L242.056 53.2049L242.112 53.1803C242.124 53.1735 242.137 53.1678 242.15 53.1632C242.222 53.1372 242.291 53.1055 242.358 53.0686L242.396 53.0516L242.449 53.027L242.485 53.0119L242.544 52.9892C242.716 52.9122 242.884 52.8237 243.045 52.7243C243.1 52.6776 243.164 52.644 243.234 52.6259C243.37 52.5852 243.498 52.5212 243.613 52.4368C243.627 52.4228 243.645 52.4119 243.664 52.4046C243.694 52.4042 243.724 52.3991 243.753 52.3895C243.773 52.3793 243.793 52.3673 243.811 52.3535C243.821 52.3455 243.831 52.3385 243.841 52.3327L243.891 52.3062L243.925 52.2873C243.961 52.2695 243.996 52.2486 244.029 52.2249L244.063 52.2059C244.087 52.1981 244.11 52.1886 244.133 52.1776L244.161 52.1586L244.191 52.1378C244.217 52.1233 244.241 52.104 244.26 52.0811C244.273 52.0676 244.29 52.0584 244.309 52.0546C244.333 52.0535 244.356 52.0463 244.377 52.0338C244.387 52.0264 244.398 52.0201 244.409 52.0149C244.435 51.9991 244.459 51.9793 244.479 51.9562C244.492 51.9423 244.509 51.9331 244.528 51.9297C244.554 51.9268 244.578 51.917 244.598 51.9014L244.625 51.8711L244.653 51.8389C245.005 51.61 245.364 51.3943 245.716 51.1635C246.644 50.5581 247.509 49.8609 248.297 49.0825C248.37 49.0148 248.452 48.9581 248.541 48.9141C249.76 48.3349 250.933 47.6619 252.048 46.9011C252.764 46.4042 253.446 45.8607 254.09 45.2741C255.058 44.3948 255.912 43.3969 256.631 42.3039C257.581 40.8506 258.26 39.2364 258.632 37.5402C258.803 36.7618 258.918 35.9721 258.976 35.1772C259.028 34.5075 259.038 33.8352 259.007 33.1643C258.91 31.2444 258.583 29.3432 258.03 27.5019C257.599 25.9754 257.061 24.481 256.421 23.0295C256.221 22.5978 256.044 22.1557 255.891 21.7052C255.414 20.2749 254.942 18.8447 254.476 17.4144C254.063 16.1507 253.645 14.8907 253.206 13.6307C253.189 13.5815 253.153 13.5247 253.208 13.4718Z" fill="#6C7983"/>
<path d="M205.726 36.8799C205.734 36.8738 205.742 36.8659 205.747 36.8567C205.752 36.8476 205.755 36.8374 205.756 36.8269C205.777 36.5507 205.792 36.2745 205.824 36.0002C205.866 35.6218 205.919 35.2435 205.991 34.8651C206.097 34.2975 206.231 33.7527 206.386 33.204C206.439 32.9967 206.502 32.7921 206.575 32.591C206.581 32.587 206.587 32.5849 206.594 32.5849C206.601 32.5849 206.608 32.587 206.613 32.591C206.621 32.6019 206.626 32.6143 206.628 32.6274C206.631 32.6405 206.63 32.6539 206.626 32.6667C206.64 32.68 206.564 32.7046 206.626 32.7121C206.636 32.7208 206.643 32.7318 206.647 32.7441C206.651 32.7564 206.652 32.7695 206.649 32.7821C206.643 32.8146 206.643 32.848 206.649 32.8805C206.683 32.9808 206.708 33.081 206.734 33.1832C206.799 33.3932 206.857 33.6051 206.923 33.8132C206.932 33.839 206.945 33.8632 206.961 33.8851C206.973 33.9001 206.982 33.9175 206.986 33.9362C206.989 33.9536 206.993 33.9707 206.999 33.9872C207.009 34.0014 207.015 34.0175 207.018 34.0345C207.02 34.0516 207.024 34.0682 207.031 34.0837C207.041 34.0979 207.048 34.114 207.05 34.131C207.052 34.1484 207.057 34.1652 207.065 34.1802C207.074 34.1954 207.08 34.2121 207.082 34.2294C207.087 34.2476 207.093 34.2654 207.101 34.2824C207.111 34.2998 207.115 34.3194 207.115 34.3391C207.135 34.4702 207.175 34.5977 207.232 34.7175C207.256 34.7913 207.279 34.867 207.309 34.9389L207.326 34.9786C207.35 35.047 207.377 35.1139 207.408 35.1791C207.441 35.2858 207.482 35.3896 207.533 35.4894C207.658 35.8317 207.805 36.1659 207.972 36.4902C208.049 36.5394 208.059 36.6302 208.095 36.7059C208.701 37.9864 209.403 39.2196 210.195 40.395C210.763 41.2274 211.372 42.0296 212.02 42.8015C212.463 43.3331 212.923 43.8515 213.403 44.349C213.674 44.6309 213.971 44.8996 214.241 45.1777C215.034 45.9685 215.878 46.6912 216.742 47.4063C217.978 48.4063 219.266 49.341 220.6 50.2063C220.846 50.369 221.105 50.509 221.336 50.6906C221.347 50.7038 221.336 50.7568 221.379 50.7227C221.395 50.7241 221.41 50.73 221.422 50.7398C221.435 50.7495 221.444 50.7627 221.449 50.7776C221.449 50.8192 221.466 50.7908 221.48 50.7776C221.512 50.7859 221.541 50.8061 221.559 50.8344C221.589 50.8692 221.628 50.8965 221.671 50.9138L221.705 50.9346C221.732 50.9524 221.763 50.9623 221.795 50.963C221.87 50.9825 221.936 51.0249 221.985 51.0841C222.005 51.139 222.062 51.1503 222.106 51.1787C222.151 51.2182 222.208 51.2415 222.268 51.2449C222.342 51.2652 222.408 51.3074 222.458 51.366C222.497 51.4417 222.573 51.4549 222.647 51.4776C222.694 51.4841 222.738 51.5085 222.768 51.5457C222.768 51.6138 222.804 51.5457 222.815 51.5646C222.882 51.5833 222.943 51.6207 222.989 51.6725C222.978 51.7387 223.021 51.6725 223.033 51.6895C223.107 51.7086 223.173 51.7502 223.222 51.8087C223.26 51.8862 223.347 51.8938 223.411 51.9354C223.501 51.9951 223.595 52.0476 223.693 52.0925C223.787 52.1523 223.884 52.206 223.984 52.2533C224.221 52.3989 224.471 52.5238 224.715 52.6543C225.807 53.2647 226.946 53.789 228.12 54.2227C229.405 54.6859 230.725 55.0428 232.068 55.2897C232.329 55.3389 232.592 55.3824 232.857 55.4203C233.124 55.4657 233.393 55.494 233.659 55.5338C233.71 55.5338 233.78 55.5205 233.792 55.6057C233.609 55.6485 233.424 55.6801 233.238 55.7003C232.954 55.7419 232.67 55.7816 232.384 55.8176C232.152 55.8459 231.917 55.8667 231.682 55.8913C231.387 55.9197 231.09 55.9538 230.795 55.9765C230.617 55.9897 230.439 56.003 230.262 56.0105L228.99 56.0559C228.591 56.073 228.194 56.0805 227.796 56.0711C227.429 56.0711 227.062 56.0578 226.697 56.0408C226.368 56.0257 226.041 56.0011 225.712 55.9784C225.275 55.9481 224.838 55.9084 224.402 55.8516C222.41 55.6094 220.463 55.0799 218.623 54.2795C218.084 54.0468 217.558 53.7857 217.039 53.5114C216.521 53.237 216.018 52.9324 215.526 52.6089C215.083 52.3195 214.648 52.0187 214.228 51.6971C213.906 51.453 213.592 51.2014 213.282 50.9403C212.917 50.6263 212.567 50.2933 212.211 49.9698C211.856 49.6463 211.564 49.3265 211.265 48.9936C210.573 48.2434 209.929 47.4497 209.338 46.6174C208.81 45.8741 208.321 45.1043 207.871 44.3112C207.578 43.7966 207.304 43.2744 207.043 42.7409C206.766 42.1766 206.525 41.5953 206.322 41.0004C206.135 40.4286 205.991 39.8437 205.891 39.2504C205.843 38.9629 205.821 38.6715 205.788 38.3802C205.752 38.2137 205.751 38.0434 205.726 37.8769V36.8799Z" fill="#868E77"/>
<path d="M217.071 6.99592C217.161 6.87336 217.271 6.76766 217.397 6.68376C217.673 6.44349 217.964 6.2108 218.241 5.98188C218.85 5.49378 219.487 5.03594 220.133 4.61595C220.755 4.20919 221.398 3.8365 222.055 3.48082C222.466 3.25884 222.882 3.04758 223.303 2.84705C224.018 2.51029 224.745 2.19813 225.483 1.91624C225.992 1.72706 226.504 1.53787 227.021 1.36571C227.753 1.12733 228.489 0.909765 229.234 0.714902C229.603 0.618417 229.972 0.525716 230.349 0.455717C230.625 0.404636 230.905 0.368694 231.185 0.33464C231.495 0.294911 231.807 0.264637 232.119 0.24761C232.317 0.225841 232.516 0.214476 232.715 0.213558C232.89 0.199691 233.066 0.195269 233.241 0.200313C233.298 0.209584 233.356 0.204379 233.41 0.185181H233.788C233.962 0.203449 234.137 0.208506 234.312 0.200313C234.369 0.195213 234.427 0.19969 234.482 0.213558C234.755 0.213558 235.025 0.238152 235.298 0.255179C235.57 0.272206 235.879 0.302476 236.17 0.332746C236.461 0.363016 236.783 0.398963 237.087 0.440585C237.605 0.511214 238.119 0.597609 238.631 0.69977C239.24 0.822742 239.846 0.962742 240.446 1.13301C241.104 1.3222 241.757 1.53408 242.398 1.78003C243.172 2.08245 243.93 2.426 244.668 2.80921C245.196 3.07974 245.707 3.37677 246.21 3.68893C246.735 4.01988 247.241 4.38121 247.724 4.77108C247.913 4.92621 248.102 5.10215 248.291 5.26296C248.48 5.42377 248.696 5.64134 248.891 5.83053C249.419 6.36765 249.9 6.95006 250.327 7.57105C250.758 8.19633 251.148 8.84916 251.494 9.52535C251.861 10.2386 252.187 10.9689 252.493 11.7105C252.694 12.1923 252.883 12.6797 253.061 13.1729C253.069 13.1969 253.075 13.2216 253.079 13.2467C252.991 13.2599 252.949 13.188 252.89 13.1388C252.557 12.821 252.236 12.4899 251.899 12.174C251.085 11.4133 250.224 10.7038 249.322 10.0494C248.197 9.2404 247.014 8.51572 245.783 7.88131C243.853 6.88484 241.824 6.0941 239.729 5.52215C238.119 5.07652 236.479 4.75272 234.821 4.55351C234.193 4.47784 233.561 4.42676 232.929 4.38135C231.592 4.28487 230.254 4.32082 228.918 4.33217C228.217 4.33217 227.515 4.38703 226.815 4.44379C225.827 4.52324 224.841 4.63297 223.863 4.79189C221.983 5.08409 220.148 5.61825 218.405 6.38106C218.048 6.53322 217.698 6.70436 217.359 6.89376C217.274 6.94862 217.189 7.02997 217.071 6.99592Z" fill="#6C7983"/>
<path d="M211.324 11.7899C211.468 11.6253 211.634 11.438 211.837 11.2224C212.236 10.791 212.556 10.477 212.707 10.3294C213.893 9.15582 215.216 8.12934 216.648 7.27212C216.669 7.25644 216.694 7.24665 216.72 7.24374C216.496 7.47077 216.273 7.70158 216.046 7.92482C215.438 8.5382 214.869 9.18969 214.343 9.87534C213.185 11.3736 212.23 13.0195 211.506 14.7696C211.279 15.3164 211.07 15.8688 210.885 16.4326C210.608 17.2775 210.378 18.1371 210.196 19.0074C210.062 19.6412 209.952 20.2806 209.865 20.922C209.818 21.2531 209.786 21.586 209.754 21.919C209.718 22.2974 209.691 22.6757 209.667 23.0428C209.616 23.8449 209.635 24.6471 209.636 25.4473C209.693 25.7752 209.626 26.1125 209.447 26.3933C209.008 27.1689 208.615 27.9692 208.233 28.7732C207.851 29.5773 207.512 30.334 207.198 31.1343C207.028 31.5675 206.867 32.0065 206.717 32.4473C206.698 32.5059 206.704 32.5892 206.609 32.5967H206.583C206.35 31.711 206.168 30.8128 206.038 29.9065C205.974 29.4499 205.921 28.9933 205.881 28.5368C205.853 28.2076 205.838 27.8784 205.817 27.5511C205.771 26.8644 205.779 26.1776 205.802 25.4909C205.822 24.8911 205.873 24.2933 205.94 23.6955C206.037 22.8273 206.179 21.9647 206.365 21.1112C206.524 20.3822 206.717 19.6626 206.944 18.9525C207.063 18.5742 207.168 18.2866 207.221 18.1409C207.332 17.8269 207.516 17.318 207.748 16.8034C207.989 16.2797 208.268 15.7739 208.581 15.2899C209.347 14.0583 210.104 13.1918 211.324 11.7899Z" fill="#6C7983"/>
<path d="M246.607 39.5891C246.498 39.6036 246.398 39.6582 246.327 39.7423C245.923 40.1795 245.48 40.5784 245.003 40.9342C244.95 40.9739 244.92 41.0364 244.873 41.0629C244.825 41.0893 244.759 41.0118 244.683 40.9929C244.376 40.8995 244.058 40.8411 243.737 40.8188C243.69 40.8188 243.641 40.8188 243.607 40.7753C243.529 40.6813 243.418 40.6215 243.297 40.6088C243.244 40.6014 243.195 40.5806 243.153 40.5483C243.073 40.4832 242.978 40.4409 242.876 40.4259C242.774 40.4109 242.671 40.4238 242.576 40.4631C242.474 40.4896 242.387 40.5199 242.271 40.5388C242.119 40.5471 241.968 40.5051 241.842 40.4193C241.716 40.3335 241.621 40.2086 241.573 40.0639C241.531 39.9183 241.537 39.9088 241.675 39.8558C241.747 39.8293 241.827 39.8085 241.9 39.7896C242.009 39.7716 242.115 39.7463 242.22 39.7139C242.547 39.579 242.839 39.3728 243.075 39.1104C243.137 39.0512 243.179 38.9754 243.198 38.8923C243.218 38.8093 243.212 38.7224 243.183 38.6423C243.154 38.5622 243.102 38.4923 243.034 38.4411C242.966 38.3899 242.884 38.3595 242.799 38.3537C242.758 38.3461 242.716 38.3423 242.674 38.3423C242.451 38.331 242.226 38.3272 242.001 38.3121C241.974 38.3097 241.948 38.3017 241.925 38.2887C241.902 38.2756 241.881 38.2578 241.866 38.2363C241.85 38.2149 241.838 38.1903 241.833 38.1642C241.827 38.1382 241.827 38.1112 241.832 38.085C241.848 38.0195 241.872 37.9561 241.902 37.8959C242.015 37.6831 242.146 37.4811 242.296 37.2924C242.492 37.0619 242.65 36.8012 242.763 36.5205C242.876 36.2302 242.888 35.9103 242.797 35.6124C242.747 35.4846 242.683 35.3623 242.608 35.2472C242.546 35.1462 242.458 35.0643 242.352 35.0105C242.247 34.9568 242.128 34.9333 242.01 34.9426C241.851 34.9426 241.808 34.884 241.821 34.7251C241.833 34.6206 241.862 34.5186 241.904 34.4224C241.973 34.2588 242.057 34.1022 242.156 33.9551C242.198 33.9021 242.223 33.8374 242.228 33.7698C242.232 33.7021 242.216 33.6347 242.18 33.5767C242.126 33.4689 242.067 33.3629 242.006 33.2608C241.707 32.7594 241.337 32.3148 241.019 31.8248C240.916 31.6714 240.774 31.548 240.608 31.4673C240.48 31.421 240.358 31.3573 240.247 31.2781C240.207 31.2384 240.141 31.2402 240.082 31.2308C239.927 31.2081 239.772 31.2005 239.617 31.1703C239.524 31.1598 239.439 31.114 239.379 31.0425C239.319 30.971 239.289 30.8793 239.295 30.7862C239.26 30.2375 239.183 29.6923 239.064 29.1554C239.02 28.9041 238.885 28.6775 238.686 28.5179C238.446 28.3154 238.189 28.1395 237.952 27.9276C237.883 27.8707 237.801 27.8319 237.714 27.8147C237.626 27.7976 237.536 27.8025 237.451 27.8292C237.415 27.8328 237.381 27.8493 237.356 27.8757C237.331 27.9021 237.316 27.9367 237.315 27.973C237.292 28.1281 237.275 28.2833 237.244 28.4365C237.21 28.6077 237.244 28.7857 237.339 28.9322C237.361 28.9616 237.382 28.9926 237.4 29.0249C237.479 29.1838 237.57 29.337 237.468 29.5224C237.443 29.5756 237.433 29.6344 237.439 29.6927C237.446 29.7975 237.419 29.9016 237.362 29.9897C237.129 30.4044 236.857 30.796 236.55 31.1589C236.524 31.1949 236.49 31.2248 236.45 31.2463C236.411 31.2679 236.368 31.2807 236.323 31.2838C236.228 31.2934 236.138 31.3302 236.064 31.3897C235.826 31.5697 235.619 31.7862 235.449 32.0311C235.266 32.2937 235.03 32.5143 234.755 32.6781C234.561 32.7803 234.357 32.8639 234.148 32.9278C233.86 33.0281 233.569 33.117 233.275 33.1889C233.246 33.201 233.214 33.2062 233.182 33.2041C233.15 33.202 233.119 33.1927 233.091 33.1768C233.064 33.161 233.04 33.139 233.022 33.1125C233.004 33.0861 232.992 33.0559 232.988 33.0243C232.977 32.9839 232.961 32.9451 232.94 32.9089C232.81 32.74 232.743 32.5302 232.751 32.3167C232.7 32.2846 232.649 32.3375 232.598 32.2959C232.421 32.1733 232.209 32.1116 231.995 32.12C231.943 32.1101 231.889 32.1112 231.838 32.1233C231.786 32.1354 231.738 32.1581 231.696 32.19C231.666 32.2123 231.63 32.2237 231.593 32.2221C231.429 32.2335 231.261 32.2562 231.096 32.2694C230.826 32.3103 230.553 32.3274 230.281 32.3205C230.29 32.3791 230.277 32.4391 230.245 32.4889C230.196 32.5625 230.161 32.6446 230.142 32.7311C230.105 32.9005 230.023 33.0567 229.904 33.1832C229.876 33.2182 229.836 33.2427 229.792 33.2526C229.749 33.2626 229.703 33.2575 229.662 33.2381C229.613 33.2196 229.566 33.1948 229.524 33.1643C229.499 33.1404 229.469 33.1218 229.436 33.1094C229.404 33.0971 229.369 33.0913 229.335 33.0924C229.281 33.0968 229.228 33.0806 229.186 33.0472C229.144 33.0138 229.117 32.9657 229.109 32.9127C229.167 32.8887 229.219 32.8531 229.262 32.8082C229.306 32.7633 229.339 32.71 229.361 32.6516C229.378 32.6156 229.41 32.6005 229.441 32.5778C229.519 32.5177 229.577 32.4353 229.608 32.3415C229.639 32.2476 229.64 32.1467 229.613 32.0519C229.566 31.9184 229.502 31.7913 229.424 31.6735C229.399 31.6288 229.365 31.5901 229.324 31.5599C229.282 31.5297 229.235 31.5089 229.185 31.4988C229.135 31.4887 229.083 31.4897 229.034 31.5015C228.984 31.5134 228.938 31.5359 228.898 31.5675C228.831 31.6111 228.771 31.6602 228.708 31.7038C228.646 31.7473 228.606 31.7284 228.591 31.7719C228.576 31.8154 228.601 31.8721 228.621 31.9194C228.621 31.9346 228.621 31.9497 228.635 31.9667C228.654 32.004 228.659 32.0472 228.648 32.0878C228.637 32.1284 228.611 32.1635 228.576 32.1862C228.517 32.2327 228.478 32.3006 228.468 32.3754C228.419 32.6213 228.235 32.714 228.076 32.9429C228.374 33.0905 228.218 33.8037 228.502 34.0383C228.562 34.0855 228.608 34.1474 228.636 34.2181C228.658 34.287 228.658 34.361 228.636 34.4299C228.565 34.7099 228.636 34.9824 228.65 35.2548C228.652 35.2935 228.664 35.331 228.685 35.3639C228.705 35.3969 228.734 35.4244 228.767 35.444C228.798 35.4692 228.836 35.4841 228.876 35.4864C228.915 35.4888 228.955 35.4786 228.988 35.4572C229.023 35.4407 229.051 35.4131 229.068 35.3789C229.085 35.3446 229.09 35.3056 229.083 35.268C229.068 35.0755 229.064 34.8822 229.072 34.6891C229.068 34.6318 229.082 34.5748 229.113 34.5264C229.118 34.5139 229.126 34.503 229.137 34.495C229.147 34.4869 229.16 34.4822 229.174 34.4812C229.187 34.4802 229.2 34.483 229.212 34.4893C229.224 34.4957 229.233 34.5053 229.24 34.517C229.258 34.539 229.272 34.5649 229.278 34.5928C229.285 34.6207 229.286 34.6497 229.28 34.6778C229.225 34.9176 229.219 35.1658 229.261 35.408C229.274 35.4567 229.276 35.5076 229.267 35.5572C229.259 35.6068 229.24 35.654 229.212 35.6956C229.191 35.7246 229.18 35.7587 229.178 35.794C229.176 35.8293 229.184 35.8645 229.201 35.8954C229.219 35.9263 229.244 35.9518 229.275 35.969C229.306 35.9862 229.341 35.9944 229.376 35.9926C229.414 35.9918 229.452 35.9986 229.487 36.0126C229.522 36.0265 229.554 36.0474 229.581 36.074C229.654 36.1502 229.699 36.2488 229.709 36.354C229.718 36.4215 229.711 36.4903 229.688 36.5545C229.656 36.6151 229.649 36.686 229.668 36.7518C229.688 36.8177 229.732 36.8732 229.792 36.9064C229.938 37.0161 230.078 37.1353 230.231 37.2356C230.286 37.2714 230.332 37.3194 230.364 37.3759C230.397 37.4324 230.416 37.4958 230.421 37.561C230.421 37.5837 230.436 37.6291 230.403 37.6253C230.303 37.6102 230.313 37.6934 230.29 37.7426C230.267 37.8006 230.23 37.852 230.182 37.8923C230.135 37.9325 230.078 37.9604 230.017 37.9733C229.956 37.9862 229.892 37.9838 229.832 37.9664C229.772 37.9489 229.718 37.9169 229.673 37.8732C229.621 37.8293 229.573 37.7819 229.528 37.7313C229.469 37.6651 229.422 37.6253 229.323 37.684C229.225 37.7426 229.038 37.6064 229.034 37.474C229.034 37.4313 229.019 37.39 228.992 37.3567C228.857 37.1863 228.73 37.0089 228.614 36.8251C228.531 36.7152 228.424 36.6269 228.3 36.5678C228.158 36.4845 228.01 36.4013 227.863 36.3237C227.815 36.2991 227.773 36.2643 227.741 36.2218C227.708 36.1793 227.685 36.1301 227.674 36.0778C227.632 35.917 227.575 35.758 227.545 35.5953C227.522 35.503 227.531 35.4058 227.568 35.3185C227.606 35.2311 227.671 35.1583 227.753 35.111C227.779 35.0978 227.802 35.0786 227.82 35.055C227.838 35.0314 227.849 35.0039 227.855 34.9749C227.86 34.9458 227.858 34.916 227.85 34.8877C227.841 34.8595 227.826 34.8336 227.806 34.8121L227.263 34.1405C227.191 34.0695 227.149 33.9744 227.144 33.8737C227.145 33.8163 227.161 33.7601 227.191 33.711C227.446 33.24 227.569 32.9978 227.814 32.9335C227.816 32.9242 227.816 32.9144 227.814 32.9051C227.814 32.7765 227.711 32.6743 227.668 32.557C227.653 32.5016 227.627 32.4501 227.589 32.4066C227.552 32.363 227.506 32.3285 227.453 32.3055C227.401 32.2826 227.344 32.2718 227.287 32.2741C227.229 32.2764 227.173 32.2916 227.123 32.3186C226.929 32.3998 226.74 32.4913 226.555 32.5929C226.445 32.6516 226.332 32.7047 226.217 32.7519C226.186 32.7672 226.152 32.7752 226.117 32.7752C226.083 32.7752 226.049 32.7672 226.018 32.7519C225.819 32.6593 225.607 32.5956 225.39 32.5627C225.318 32.5585 225.249 32.5341 225.191 32.4922C225.133 32.4504 225.088 32.3928 225.061 32.3262C225.057 32.3139 225.051 32.3025 225.043 32.293C225.034 32.2835 225.024 32.2761 225.012 32.2713C224.896 32.2183 224.785 32.1597 224.669 32.1124C224.48 32.0311 224.308 31.9497 224.134 31.8513C224.046 31.7913 223.942 31.7608 223.836 31.7642C223.729 31.7676 223.627 31.8047 223.544 31.8702C223.45 31.939 223.339 31.9815 223.224 31.9932C223.105 32.0195 222.98 31.9985 222.876 31.9346C222.846 31.9068 222.807 31.8913 222.766 31.8913C222.725 31.8913 222.686 31.9068 222.656 31.9346C222.61 31.9668 222.566 32.0029 222.526 32.0424C222.279 32.3027 222.072 32.5978 221.911 32.9183C221.846 33.0266 221.803 33.1469 221.786 33.2721C221.771 33.4764 221.754 33.6789 221.742 33.8813C221.724 34.1541 221.784 34.4264 221.915 34.6664C222.117 35.0448 222.316 35.4232 222.518 35.8016C222.55 35.8602 222.567 35.898 222.507 35.9472C222.446 35.9964 222.463 36.0153 222.52 36.0532C222.697 36.1667 222.833 36.3334 222.909 36.5293C222.984 36.7251 222.996 36.94 222.942 37.1429C222.93 37.1752 222.927 37.2104 222.935 37.2441C222.943 37.2778 222.96 37.3084 222.985 37.3321L223.133 37.4929C223.196 37.5629 223.253 37.6389 223.301 37.7199C223.324 37.7684 223.336 37.8213 223.337 37.8748C223.338 37.9284 223.327 37.9816 223.306 38.0308C223.285 38.08 223.253 38.1241 223.214 38.1602C223.174 38.1963 223.127 38.2235 223.076 38.2402C223.001 38.2591 222.929 38.295 222.855 38.3177C222.776 38.3395 222.706 38.3874 222.658 38.4537C222.609 38.52 222.585 38.6008 222.588 38.6829C222.588 38.908 222.565 39.1312 222.569 39.3564C222.573 39.492 222.532 39.625 222.452 39.7348C222.377 39.8415 222.314 39.9556 222.263 40.0753C222.127 40.3893 222.074 40.4291 221.722 40.4404C221.707 40.4414 221.691 40.4414 221.676 40.4404C221.519 40.4436 221.363 40.4652 221.211 40.5047C220.997 40.5729 220.938 40.6504 220.895 40.8831C220.878 40.9777 220.895 41.0723 220.88 41.1783C220.879 41.4294 220.814 41.6762 220.691 41.8953C220.62 41.9974 220.572 42.113 220.548 42.2348C220.525 42.3566 220.527 42.4819 220.554 42.6028C220.574 42.7051 220.582 42.809 220.581 42.9131C220.579 43.1905 220.545 43.4667 220.479 43.7361C220.458 43.8385 220.474 43.9452 220.524 44.0369C220.647 44.2455 220.823 44.4183 221.033 44.5382C221.364 44.7596 221.693 44.9809 222.011 45.2193C222.41 45.5438 222.871 45.7828 223.366 45.9212C223.733 46.0354 224.123 46.0569 224.501 45.9836C225.024 45.859 225.532 45.6762 226.014 45.4388C226.216 45.3267 226.446 45.273 226.677 45.2836C227 45.3082 227.322 45.3517 227.647 45.3612C227.721 45.3647 227.794 45.3524 227.863 45.3252C228.145 45.2079 228.43 44.7577 228.218 44.4474C228.17 44.3743 228.147 44.2875 228.151 44.1999C228.156 44.1124 228.189 44.0287 228.245 43.9612C228.293 43.8985 228.332 43.8298 228.362 43.7569C228.401 43.6556 228.469 43.5682 228.557 43.5061C228.646 43.444 228.751 43.4101 228.86 43.4088C229.032 43.391 229.202 43.3619 229.371 43.3217C229.885 43.2306 230.391 43.0971 230.884 42.9226C231.127 42.8353 231.344 42.689 231.516 42.4969C231.587 42.4188 231.628 42.3185 231.633 42.2131C231.633 42.1015 231.616 42.075 231.512 42.0447L230.517 41.7685C230.298 41.7061 230.258 41.6664 230.233 41.4355C230.224 41.3203 230.182 41.21 230.112 41.1177C230.052 41.0383 229.995 40.9569 229.923 40.8793C229.856 40.8005 229.812 40.704 229.798 40.6012C229.683 39.8918 229.633 39.1785 229.575 38.4634C229.575 38.4388 229.56 38.4104 229.599 38.401C229.639 38.3915 229.66 38.3877 229.681 38.4256C229.773 38.5585 229.851 38.7013 229.912 38.8513C230.014 39.2296 230.101 39.608 230.173 39.9977C230.226 40.2115 230.256 40.4303 230.263 40.6504C230.262 40.781 230.272 40.9114 230.294 41.0401C230.291 41.1027 230.303 41.165 230.327 41.2227C230.352 41.2803 230.389 41.3319 230.435 41.3738C230.482 41.4156 230.537 41.4468 230.597 41.465C230.657 41.4832 230.72 41.488 230.782 41.4791C231.043 41.4791 231.306 41.4583 231.565 41.4412C232.04 41.3999 232.509 41.3067 232.963 41.1631C233.465 41.0212 233.465 41.0231 233.862 40.6845L234.382 40.255C234.486 40.1654 234.613 40.1082 234.749 40.0904C234.843 40.0802 234.938 40.0888 235.029 40.1158C235.119 40.1428 235.204 40.1875 235.277 40.2475C235.542 40.463 235.794 40.6929 236.034 40.9361C236.222 41.1147 236.397 41.3076 236.556 41.5131C236.796 41.8072 237.057 42.0835 237.337 42.3399C237.356 42.3584 237.377 42.3743 237.4 42.3872C237.523 42.4666 237.576 42.4685 237.682 42.3701C237.822 42.2643 237.933 42.1232 238.002 41.9612C238.071 41.7991 238.096 41.6218 238.075 41.4469C238.059 41.3497 238.065 41.2501 238.094 41.1557C238.122 41.0613 238.171 40.9745 238.238 40.902C238.5 40.6173 238.715 40.2913 238.872 39.9372C238.881 39.9016 238.903 39.8707 238.934 39.8505C238.965 39.8303 239.002 39.822 239.038 39.8275C239.102 39.8275 239.157 39.7707 239.187 39.7064C239.246 39.5834 239.288 39.5531 239.411 39.5815C239.591 39.6182 239.764 39.682 239.925 39.7707C240.054 39.8483 240.184 39.9277 240.317 39.9996C240.766 40.2667 241.228 40.5111 241.702 40.7318C241.787 40.7663 241.876 40.7899 241.967 40.8018C242.224 40.8339 242.477 40.8869 242.733 40.9304C242.366 40.9762 242.006 41.0625 241.658 41.1877C241.658 41.2558 241.658 41.3183 241.762 41.2974C241.83 41.293 241.898 41.2987 241.965 41.3145C242.103 41.346 242.246 41.3492 242.385 41.3239C242.524 41.2996 242.667 41.3107 242.801 41.3561C242.991 41.415 243.189 41.4443 243.387 41.4431C243.435 41.4379 243.483 41.4444 243.527 41.462C243.622 41.5014 243.723 41.5217 243.825 41.5217C243.928 41.5217 244.029 41.5014 244.123 41.462C244.342 41.3902 244.555 41.3043 244.763 41.2047C244.776 41.2047 244.799 41.1877 244.803 41.1915C244.888 41.2766 244.948 41.1915 245.007 41.1593C245.529 40.8575 246.018 40.5025 246.467 40.0999C246.618 39.9705 246.755 39.8253 246.874 39.6666C246.925 39.6122 246.953 39.5404 246.952 39.4661C246.842 39.5192 246.726 39.5605 246.607 39.5891ZM231.202 36.9196C231.093 36.8298 230.995 36.7283 230.909 36.617C230.848 36.5377 230.771 36.4723 230.683 36.4251C230.595 36.3778 230.497 36.3497 230.398 36.3426C230.375 36.3443 230.352 36.3387 230.332 36.3264C230.312 36.3142 230.297 36.296 230.288 36.2745C230.267 36.232 230.235 36.196 230.195 36.1705C230.174 36.1602 230.157 36.142 230.149 36.1197C230.141 36.0975 230.142 36.0729 230.152 36.0513C230.173 36.0002 230.193 35.9567 230.256 35.9453C230.318 35.934 230.388 35.9226 230.445 35.9113C230.507 35.9057 230.567 35.8834 230.617 35.847C230.687 35.8029 230.77 35.783 230.852 35.7902C230.847 35.8835 230.847 35.9769 230.852 36.0702C230.852 36.1018 230.864 36.1321 230.887 36.1545C230.909 36.1768 230.939 36.1894 230.971 36.1894C231.035 36.1894 231.102 36.2121 231.16 36.2234C231.192 36.1724 231.147 36.127 231.16 36.0797C231.249 36.0812 231.337 36.1012 231.418 36.1383C231.368 36.1985 231.302 36.2431 231.228 36.2669C231.389 36.4761 231.505 36.7164 231.569 36.9726C231.509 37.0017 231.443 37.0122 231.377 37.0027C231.312 36.9933 231.251 36.9643 231.202 36.9196Z" fill="white"/>
<path d="M229.836 19.4823C229.442 19.6166 229.242 20.1747 228.826 20.1274C228.74 20.109 228.655 20.0843 228.572 20.0537C228.364 19.9837 228.162 19.8985 227.954 19.8285C227.871 19.8023 227.795 19.7574 227.733 19.6974C227.67 19.6374 227.622 19.5638 227.592 19.4823C227.554 19.3953 227.511 19.312 227.473 19.2269C227.465 19.2049 227.451 19.1854 227.433 19.1708C227.414 19.1561 227.392 19.1467 227.369 19.1437C227.257 19.1101 227.138 19.1101 227.026 19.1437C226.915 19.1774 226.815 19.2431 226.741 19.3329C226.646 19.4584 226.521 19.558 226.378 19.6223C226.344 19.6347 226.315 19.659 226.298 19.6907C226.281 19.7223 226.275 19.7592 226.283 19.7945C226.283 19.8834 226.283 19.9723 226.298 20.0612C226.33 20.3185 226.266 20.5785 226.118 20.7915C225.941 21.0817 225.721 21.3444 225.468 21.5709C224.925 22.0578 224.332 22.4841 223.697 22.8423C223.557 22.9236 223.411 22.9955 223.269 23.0731C223.125 23.1479 223.01 23.2692 222.944 23.4174C222.863 23.6088 222.74 23.7793 222.584 23.916C222.427 24.0527 222.242 24.152 222.041 24.2063C221.763 24.2777 221.496 24.3919 221.253 24.545C221.178 24.5948 221.113 24.6591 221.063 24.7342C220.795 25.1125 220.575 25.5363 220.335 25.9393C220.261 26.0541 220.197 26.1757 220.146 26.3025C220.007 26.6239 219.848 26.9361 219.669 27.2371C219.636 27.2968 219.61 27.3603 219.591 27.4263C219.589 27.4669 219.576 27.5062 219.553 27.5404C219.531 27.5745 219.501 27.6024 219.465 27.6214C219.429 27.6404 219.388 27.6498 219.348 27.6488C219.307 27.6477 219.267 27.6363 219.232 27.6155C219.204 27.6025 219.175 27.5911 219.145 27.5814C219.046 27.5567 218.955 27.5062 218.882 27.4351C218.808 27.3641 218.755 27.2749 218.727 27.1766C218.655 26.9849 218.569 26.7989 218.47 26.6203C218.425 26.5193 218.355 26.4314 218.266 26.3652C218.178 26.2989 218.074 26.2565 217.964 26.242C217.917 26.2386 217.872 26.2193 217.838 26.1871C217.657 26.0368 217.502 25.8579 217.38 25.6574C217.247 25.4159 217.203 25.1352 217.257 24.8647C217.338 24.3272 217.382 23.7849 217.391 23.2415C217.401 23.1789 217.39 23.1149 217.36 23.0592C217.33 23.0035 217.282 22.9592 217.225 22.9331C217.156 22.8941 217.1 22.8365 217.062 22.7669C217.025 22.6973 217.008 22.6185 217.013 22.5396C216.977 22.2649 217 21.9857 217.079 21.7204C217.104 21.6481 217.112 21.5713 217.103 21.4955C217.095 21.4196 217.07 21.3466 217.03 21.2815C216.977 21.1792 216.95 21.0655 216.952 20.9504C216.945 20.6155 216.961 20.2805 217 19.9477C217.034 19.6236 217.111 19.3055 217.229 19.0018C217.537 18.245 217.575 18.2867 217.607 17.8931C217.637 17.6094 217.607 17.3918 217.741 17.074C217.787 16.952 217.856 16.8397 217.944 16.7429C218.243 16.4232 218.536 16.5915 218.787 16.3248C218.863 16.2434 218.825 16.2396 219.083 15.5964C219.224 15.2426 219.219 15.288 219.24 15.218C219.323 14.9361 219.274 14.6978 219.007 13.7291C218.878 13.2637 218.84 13.1351 218.891 12.9421C218.967 12.6546 219.202 12.384 219.355 12.4181C219.465 12.4427 219.467 12.6073 219.643 13.0916C219.715 13.3285 219.811 13.5574 219.93 13.7745C220.12 14.0167 220.289 14.2743 220.435 14.5445C220.453 14.577 220.469 14.6105 220.483 14.6448C220.526 14.7678 220.524 14.8945 220.621 15.3429C220.643 15.4868 220.679 15.6281 220.728 15.7648C220.876 16.1167 221.067 16.0807 221.445 16.5461C221.622 16.7391 221.774 16.9525 221.9 17.1818C221.944 17.2798 222.008 17.3675 222.089 17.4391C222.172 17.5275 222.285 17.5815 222.407 17.5904C222.511 17.5784 222.607 17.5302 222.679 17.4542C222.951 17.248 223.303 17.265 223.969 17.265C224.096 17.2666 224.222 17.2754 224.348 17.2915C224.565 17.3237 224.781 17.3691 224.997 17.4069C225.136 17.4252 225.278 17.4284 225.418 17.4164C225.523 17.4107 225.628 17.4107 225.732 17.4164C225.811 17.4163 225.888 17.4407 225.952 17.4861C226.016 17.5315 226.064 17.5958 226.09 17.6699C226.132 17.7929 226.185 17.914 226.23 18.0369C226.276 18.1406 226.295 18.2539 226.288 18.367C226.28 18.4801 226.244 18.5895 226.185 18.6858C226.115 18.7787 226.081 18.8928 226.087 19.0085C226.092 19.1242 226.138 19.2342 226.217 19.3196C226.239 19.3499 226.257 19.382 226.277 19.4123C226.285 19.4206 226.294 19.4276 226.304 19.4331C226.352 19.4186 226.394 19.3887 226.423 19.3481C226.453 19.3074 226.468 19.2582 226.467 19.208C226.465 19.147 226.488 19.0878 226.529 19.0428C226.57 18.9977 226.627 18.9702 226.688 18.9658C227.026 18.8928 227.37 18.8516 227.715 18.8429C227.773 18.8426 227.83 18.8529 227.884 18.8731C228.087 18.9444 228.307 18.9569 228.517 18.9091C228.615 18.8911 228.715 18.8911 228.812 18.9091C229.136 18.9696 229.469 18.9602 229.794 19.015C229.836 19.0201 229.879 19.0135 229.917 18.9961C230.082 18.9452 230.243 18.8819 230.398 18.8069C230.458 18.7816 230.522 18.7663 230.587 18.7615C230.966 18.6783 231.358 18.6725 231.739 18.7445C231.863 18.7658 231.984 18.8007 232.101 18.8485C232.147 18.8667 232.187 18.8967 232.218 18.9356C232.249 18.9744 232.269 19.0208 232.276 19.0699C232.294 19.1622 232.338 19.2473 232.404 19.3146C232.47 19.3819 232.554 19.4284 232.645 19.4483C232.904 19.5138 233.166 19.5643 233.43 19.5996C233.523 19.612 233.611 19.6507 233.682 19.7112C233.771 19.7888 233.903 19.8229 233.955 19.9383C234.042 20.0992 234.157 20.2433 234.295 20.3639C234.353 20.4448 234.398 20.535 234.426 20.6307C234.458 20.7131 234.505 20.7893 234.564 20.8558C234.62 20.9145 234.672 20.9674 234.764 20.9447C234.823 20.9296 234.863 20.9655 234.893 21.0128C235.003 21.1907 235.129 21.3591 235.247 21.5312C235.408 21.793 235.461 22.1068 235.396 22.4071C235.383 22.4954 235.36 22.5817 235.326 22.6644C235.272 22.8223 235.254 22.9905 235.273 23.1563C235.277 23.2067 235.292 23.2555 235.319 23.2984C235.346 23.3413 235.383 23.377 235.426 23.4023C235.506 23.4485 235.566 23.5222 235.596 23.6097C235.625 23.6971 235.621 23.7922 235.585 23.8771C235.553 23.9839 235.554 24.0981 235.588 24.2044C235.621 24.3108 235.686 24.4045 235.775 24.4731C235.866 24.5523 235.923 24.6632 235.935 24.7833C235.966 24.9776 236.04 25.1624 236.151 25.3242C236.263 25.486 236.41 25.6206 236.58 25.7179C236.662 25.7553 236.75 25.7759 236.84 25.7785C236.868 25.777 236.897 25.7824 236.923 25.7942C236.949 25.8061 236.972 25.824 236.989 25.8466C237.006 25.8707 237.031 25.8873 237.06 25.893C237.088 25.8986 237.118 25.8928 237.142 25.8768C237.199 25.8504 237.258 25.8277 237.316 25.8031C237.398 25.7672 237.485 25.7442 237.574 25.735C237.64 25.735 237.716 25.716 237.763 25.7879C237.78 25.8191 237.786 25.8556 237.778 25.8904C237.77 25.9253 237.75 25.9562 237.721 25.9771C237.701 25.9976 237.689 26.0243 237.686 26.0529C237.683 26.0815 237.69 26.1102 237.706 26.1341C237.729 26.1814 237.755 26.2268 237.776 26.2741C237.793 26.3043 237.802 26.3377 237.804 26.372C237.807 26.4063 237.802 26.4407 237.789 26.4728C237.765 26.516 237.756 26.5662 237.763 26.6153C237.771 26.6643 237.795 26.7094 237.831 26.7433C237.884 26.8001 237.871 26.8587 237.806 26.9041C237.758 26.9444 237.701 26.9736 237.64 26.9896C237.579 27.0057 237.515 27.0081 237.453 26.9968L237.362 26.9722C237.315 26.959 237.271 26.9495 237.235 26.9987C237.223 27.0185 237.217 27.041 237.217 27.064C237.217 27.087 237.223 27.1095 237.235 27.1293C237.263 27.1974 237.286 27.2674 237.311 27.3355C237.321 27.3595 237.328 27.385 237.332 27.4111C237.343 27.5266 237.277 27.5757 237.171 27.5379L237.125 27.5209C236.955 27.4528 236.955 27.4528 236.87 27.6193C236.861 27.6441 236.845 27.6655 236.823 27.6802C236.801 27.6949 236.775 27.7021 236.749 27.7006H236.42C236.341 27.7001 236.264 27.6777 236.197 27.6359C236.13 27.5942 236.076 27.5347 236.041 27.4641C236.011 27.4093 235.986 27.3676 235.916 27.3639C235.846 27.3601 235.837 27.3184 235.803 27.2844C235.687 27.1709 235.572 27.0574 235.455 26.9458C235.373 26.8701 235.372 26.8682 235.266 26.9458C235.22 26.9806 235.165 27.0022 235.108 27.0082C235.05 27.0142 234.992 27.0044 234.94 26.9798C234.874 26.9478 234.803 26.9249 234.73 26.9117C234.687 26.9117 234.664 26.9117 234.662 26.9666C234.655 27.1124 234.624 27.2561 234.571 27.3922C234.544 27.5042 234.534 27.6196 234.541 27.7347C234.538 27.8284 234.505 27.9186 234.446 27.992C234.291 28.2076 234.146 28.4309 233.99 28.6484C233.896 28.7857 233.792 28.916 233.678 29.0382C233.597 29.135 233.497 29.2136 233.383 29.269C233.368 29.2739 233.354 29.2817 233.343 29.292C233.331 29.3023 233.321 29.3149 233.314 29.329C233.307 29.3432 233.303 29.3585 233.303 29.3742C233.302 29.3899 233.304 29.4056 233.309 29.4203C233.323 29.5017 233.332 29.5849 233.345 29.6682C233.362 29.7326 233.353 29.8008 233.322 29.8594C233.29 29.9179 233.238 29.9624 233.175 29.9841C233.148 29.9941 233.124 30.0101 233.105 30.0307C233.085 30.0513 233.07 30.0762 233.062 30.1033C233.053 30.1343 233.032 30.1606 233.004 30.1769C232.977 30.1931 232.943 30.1979 232.912 30.1903C232.861 30.1903 232.808 30.1903 232.757 30.1809C232.553 30.1592 232.346 30.1946 232.161 30.283C232.132 30.2996 232.1 30.3084 232.066 30.3084C232.033 30.3084 232.001 30.2996 231.972 30.283C231.908 30.2471 231.834 30.2282 231.769 30.196C231.671 30.1457 231.559 30.1272 231.45 30.143C231.35 30.1595 231.248 30.1426 231.159 30.0951C231.07 30.0475 230.999 29.9719 230.958 29.8801C230.849 29.6659 230.723 29.4614 230.579 29.269C230.384 29.0233 230.144 28.8156 229.874 28.656C229.811 28.6163 229.721 28.5822 229.755 28.4971C229.789 28.412 229.808 28.3079 229.917 28.2852C230.084 28.2398 230.246 28.183 230.415 28.1471C230.604 28.1202 230.797 28.1312 230.982 28.1792C231.013 28.1872 231.04 28.2021 231.064 28.2228C231.142 28.2846 231.23 28.3326 231.325 28.3647C231.442 28.3936 231.552 28.4443 231.65 28.5141C231.679 28.5406 231.72 28.5274 231.756 28.5311C232.03 28.574 232.308 28.5791 232.583 28.5463C232.677 28.534 232.771 28.534 232.865 28.5463C233.018 28.5595 233.045 28.5236 232.995 28.3836C232.963 28.2873 232.911 28.1989 232.843 28.1239C232.774 28.049 232.691 27.9892 232.598 27.9484C232.432 27.8699 232.246 27.8436 232.065 27.8728C231.925 27.9007 231.78 27.8842 231.65 27.8255C231.635 27.8155 231.617 27.8087 231.599 27.8054C231.581 27.8022 231.562 27.8026 231.544 27.8066C231.473 27.8251 231.398 27.8236 231.327 27.8022C231.256 27.7809 231.193 27.7405 231.143 27.6855C231.067 27.6257 231.005 27.5511 230.959 27.4662C230.913 27.3813 230.885 27.2878 230.876 27.1917C230.873 27.175 230.873 27.1578 230.876 27.1411C230.879 27.1243 230.886 27.1084 230.895 27.0943C230.905 27.0802 230.917 27.0681 230.932 27.0588C230.946 27.0496 230.962 27.0433 230.979 27.0403C231.211 26.9817 231.446 26.9193 231.681 26.8663C231.785 26.8417 231.847 26.9193 231.822 27.0252C231.822 27.0498 231.802 27.0725 231.796 27.099C231.793 27.1172 231.797 27.1356 231.805 27.1519C231.814 27.1681 231.827 27.1814 231.843 27.1898C231.857 27.1978 231.874 27.2005 231.89 27.1974C231.906 27.1943 231.92 27.1855 231.93 27.1728C232.041 27.056 232.141 26.9293 232.229 26.7944C232.238 26.7811 232.241 26.765 232.239 26.7493C232.236 26.7336 232.228 26.7193 232.216 26.7093C232.177 26.659 232.122 26.6231 232.061 26.6071C231.901 26.5811 231.744 26.5353 231.595 26.4709C231.496 26.4396 231.389 26.4396 231.289 26.4709C231.262 26.4709 231.238 26.4841 231.213 26.4936C231.046 26.5508 230.87 26.5821 230.693 26.5863C230.396 26.6153 230.101 26.6691 229.813 26.7471C229.711 26.7698 229.609 26.7925 229.509 26.8247C229.244 26.8947 228.966 26.8947 228.701 26.8247C228.527 26.7945 228.35 26.7812 228.173 26.7849C228.147 26.7868 228.12 26.7868 228.094 26.7849C227.976 26.766 227.938 26.679 228.008 26.5825C228.04 26.534 228.081 26.4922 228.129 26.4595C228.171 26.437 228.204 26.4017 228.225 26.3587C228.245 26.3158 228.25 26.2676 228.241 26.2212C228.241 26.1587 228.241 26.0944 228.23 26.032C228.215 25.928 228.232 25.8221 228.277 25.7274C228.314 25.6291 228.328 25.5235 228.317 25.419C228.31 25.3305 228.319 25.2415 228.343 25.156C228.381 25.0633 228.396 25.0577 228.489 25.0936C228.582 25.1296 228.678 25.1106 228.697 24.9896C228.697 24.9536 228.716 24.9196 228.725 24.8836C228.754 24.8094 228.758 24.7282 228.738 24.6515C228.717 24.5748 228.673 24.5064 228.612 24.456C228.6 24.4498 228.59 24.4412 228.582 24.4308C228.574 24.4205 228.568 24.4085 228.564 24.3957C228.561 24.383 228.56 24.3696 228.562 24.3566C228.564 24.3435 228.569 24.331 228.576 24.3198C228.765 23.9698 228.695 23.6293 228.532 23.2982C228.508 23.2476 228.494 23.1925 228.491 23.1363C228.488 23.0801 228.496 23.0238 228.515 22.9709C228.601 22.6853 228.705 22.4034 228.773 22.1177C228.842 21.8976 228.965 21.6982 229.13 21.5369C229.214 21.4642 229.319 21.4198 229.429 21.4101C229.5 21.3932 229.57 21.3704 229.637 21.342C229.637 21.342 229.692 21.3231 229.792 21.3004C229.943 21.2816 230.097 21.2939 230.243 21.3363C230.572 21.4328 231.401 21.1264 231.493 20.7234C231.616 20.1804 230.479 19.261 229.836 19.4823Z" fill="white"/>
<path d="M249.188 38.2346C249.188 38.2346 249.188 38.2346 249.175 38.2346C249.169 38.2372 249.163 38.2386 249.157 38.2386C249.15 38.2386 249.144 38.2372 249.139 38.2346C249.125 38.2256 249.114 38.2134 249.106 38.199C249.098 38.1847 249.094 38.1686 249.094 38.1523C249.094 38.1359 249.098 38.1199 249.106 38.1055C249.114 38.0911 249.125 38.0789 249.139 38.07C249.177 38.041 249.202 37.9988 249.21 37.9517C249.218 37.9047 249.208 37.8564 249.182 37.8164C249.129 37.7077 249.099 37.5892 249.093 37.4684C249.081 37.3721 249.093 37.2743 249.129 37.1842C249.165 37.0941 249.224 37.0147 249.3 36.9538C249.435 36.8491 249.556 36.7262 249.659 36.5886C249.689 36.5451 249.699 36.5167 249.659 36.4694C249.581 36.3876 249.525 36.2868 249.498 36.177C249.471 36.0671 249.473 35.9521 249.504 35.8432C249.519 35.76 249.542 35.6786 249.562 35.5935C249.563 35.5889 249.563 35.5841 249.561 35.5797C249.56 35.5754 249.557 35.5716 249.553 35.5688C249.549 35.566 249.545 35.5643 249.54 35.564C249.535 35.5637 249.531 35.5648 249.527 35.567C249.514 35.5748 249.502 35.5817 249.489 35.5878C249.484 35.589 249.48 35.5888 249.475 35.5874C249.471 35.5859 249.467 35.5833 249.464 35.5797C249.461 35.5762 249.459 35.5718 249.458 35.5673C249.458 35.5627 249.458 35.558 249.46 35.5538C249.555 35.3646 249.65 35.1754 249.727 34.973C249.805 34.7705 249.916 34.5946 249.99 34.3827C249.991 34.3786 249.994 34.3748 249.997 34.3719C250 34.3689 250.004 34.3669 250.008 34.3659C250.012 34.365 250.017 34.3651 250.021 34.3664C250.025 34.3677 250.029 34.3701 250.032 34.3733C250.132 34.483 250.189 34.6154 250.295 34.7138C250.297 34.7166 250.3 34.7188 250.303 34.7203C250.306 34.7219 250.31 34.7227 250.314 34.7227C250.317 34.7227 250.321 34.7219 250.324 34.7203C250.327 34.7188 250.33 34.7166 250.332 34.7138C250.582 34.3505 250.836 33.9987 251.072 33.6354C251.091 33.6106 251.1 33.5795 251.097 33.5483C251.095 33.5171 251.08 33.4881 251.057 33.467C250.944 33.3287 250.795 33.2251 250.626 33.1681C250.402 33.0943 250.38 32.9789 250.264 32.7765C250.255 32.7678 250.247 32.7569 250.243 32.7447C250.239 32.7324 250.238 32.7193 250.24 32.7065C250.242 32.6937 250.247 32.6816 250.255 32.6714C250.263 32.6612 250.273 32.6531 250.285 32.6479C250.578 32.4454 250.734 32.2695 251.08 32.1617C251.171 32.1352 251.269 32.1162 251.354 32.0917C251.473 32.0656 251.579 31.9986 251.653 31.9025C251.755 31.7835 251.828 31.6422 251.865 31.49C251.871 31.4647 251.882 31.4409 251.897 31.42C252.143 31.0417 252.357 30.6519 252.608 30.2849C252.664 30.2088 252.709 30.1262 252.745 30.039C252.868 29.6946 253.465 29.583 253.761 29.8176C253.858 29.8887 253.937 29.9821 253.991 30.0901C254.089 30.2825 254.233 30.4482 254.409 30.5725C254.517 30.6557 254.614 30.7617 254.716 30.8411C254.757 30.8736 254.788 30.9169 254.805 30.966C254.823 31.0151 254.827 31.0681 254.816 31.1192C254.805 31.1968 254.797 31.2744 254.78 31.35C254.74 31.6078 254.732 31.8698 254.758 32.1295C254.773 32.3488 254.753 32.5692 254.699 32.7822C254.679 32.8687 254.679 32.9586 254.699 33.0452C254.733 33.2639 254.704 33.488 254.614 33.6903C254.531 33.8795 254.449 34.0687 254.368 34.2692C254.344 34.3271 254.307 34.3788 254.26 34.4205C254.063 34.6381 253.828 34.8176 253.566 34.9503C253.535 34.9616 253.505 34.9768 253.501 35.0127C253.481 35.1641 253.397 35.2965 253.375 35.4478C253.365 35.5159 253.359 35.5822 253.354 35.6503C253.356 35.7019 253.342 35.7528 253.314 35.7964C253.286 35.8399 253.246 35.8741 253.199 35.8943C252.914 36.0219 252.686 36.2503 252.559 36.5357C252.425 36.8024 252.33 37.0881 252.19 37.3492C252.047 37.6548 251.927 37.971 251.833 38.2951C251.726 38.5951 251.642 38.9024 251.579 39.2145C251.52 39.4644 251.425 39.7041 251.295 39.9259C251.195 40.1151 251.091 40.2891 250.987 40.4689C250.815 40.7386 250.598 40.9761 250.344 41.1707C250.19 41.2968 250.026 41.4107 249.854 41.5113C249.627 41.6495 249.361 41.7087 249.097 41.6797C248.898 41.6711 248.702 41.6355 248.512 41.5737C248.45 41.5468 248.394 41.5078 248.347 41.459C248.3 41.4101 248.263 41.3524 248.239 41.2892C248.214 41.226 248.203 41.1585 248.204 41.0908C248.206 41.023 248.222 40.9563 248.25 40.8945C248.354 40.7053 248.42 40.501 248.514 40.3081C248.677 39.9808 248.83 39.6478 248.984 39.3167C249.048 39.1748 249.103 39.0291 249.173 38.8873C249.198 38.8429 249.205 38.7907 249.193 38.7411C249.181 38.6916 249.151 38.6485 249.108 38.6205C248.997 38.5448 249.04 38.4313 249.031 38.3348C249.029 38.328 249.029 38.3209 249.031 38.314C249.046 38.2837 249.101 38.2819 249.127 38.2819C249.133 38.2573 249.184 38.2478 249.188 38.2346Z" fill="white"/>
<path d="M250.047 32.803C250.028 32.89 250.011 32.977 249.984 33.0622C249.948 33.1595 249.901 33.2528 249.844 33.3403C249.614 33.7186 249.277 34.0213 248.991 34.36C248.873 34.4931 248.766 34.6355 248.671 34.7857C248.648 34.8207 248.629 34.8589 248.617 34.8992C248.616 34.9169 248.612 34.9342 248.604 34.9502C248.596 34.9661 248.585 34.9802 248.572 34.9916C248.558 35.003 248.542 35.0115 248.525 35.0164C248.508 35.0213 248.49 35.0226 248.473 35.0202C248.4 35.0314 248.333 35.0675 248.284 35.1224C248.209 35.1894 248.124 35.2432 248.032 35.2813C247.932 35.3173 247.907 35.3002 247.915 35.1981C247.918 35.1204 247.932 35.0435 247.954 34.9692C248.053 34.6314 248.18 34.3024 248.333 33.9854C248.469 33.713 248.562 33.4178 248.7 33.153C248.864 32.8332 248.993 32.4927 249.165 32.1787C249.413 31.7195 249.714 31.2903 250.06 30.8997C250.161 30.7793 250.269 30.6649 250.384 30.5573C250.406 30.5356 250.429 30.5154 250.454 30.4968C250.501 30.4665 250.542 30.4854 250.537 30.5384C250.531 30.9806 250.38 31.4085 250.107 31.7568C250.001 31.8628 249.936 32.003 249.923 32.1526C249.91 32.3022 249.951 32.4515 250.037 32.5741C250.047 32.5929 250.055 32.6125 250.062 32.6327C250.094 32.6914 250.049 32.7462 250.047 32.803Z" fill="white"/>
<path d="M246.344 38.9988C246.324 39.0665 246.285 39.127 246.231 39.1729C246.072 39.3261 245.915 39.4793 245.754 39.6269C245.629 39.7317 245.483 39.8074 245.325 39.8483C245.177 39.8837 245.026 39.9058 244.874 39.9145C244.796 39.9201 244.718 39.8965 244.655 39.8483C244.629 39.8331 244.606 39.8124 244.589 39.7877C244.571 39.763 244.559 39.7348 244.553 39.705C244.547 39.6753 244.548 39.6446 244.555 39.6151C244.562 39.5857 244.576 39.5581 244.594 39.5342C244.672 39.4169 244.784 39.3223 244.846 39.1956C244.871 39.1507 244.889 39.1022 244.899 39.0518C244.948 38.7699 245.001 38.4842 245.052 38.2042C245.054 38.1527 245.066 38.1019 245.087 38.0551C245.109 38.0083 245.14 37.9665 245.178 37.9321C245.217 37.8977 245.262 37.8716 245.311 37.8553C245.36 37.8389 245.411 37.8328 245.463 37.8372C245.677 37.8372 245.89 37.8221 246.104 37.8183C246.227 37.8183 246.237 37.8183 246.227 37.9394C246.224 38.1699 246.266 38.3988 246.352 38.6129C246.385 38.6719 246.402 38.739 246.401 38.8069C246.4 38.8748 246.38 38.9411 246.344 38.9988Z" fill="white"/>
<path d="M228.076 32.9221L228.067 32.9316C228.028 32.9584 227.985 32.9794 227.94 32.994C227.878 33.0167 227.779 33.0129 227.802 32.9448C227.803 32.9386 227.803 32.9322 227.802 32.9259H227.817C227.9 32.893 227.993 32.8916 228.076 32.9221Z" fill="white"/>
<path d="M29.7074 40.0333V16.7H25.6741V13.4148H29.7074V9.48518C29.7074 4.23333 32.3926 1.66666 37.7704 1.66666C38.7099 1.6979 39.647 1.7795 40.5778 1.9111V5.08887C39.3556 4.96665 38.3778 4.84443 37.7704 4.84443C34.9593 4.84443 33.6148 6.32591 33.6148 9.11851V13.4148H40.5778V16.5926H33.6148V39.9259H29.7074V40.0333Z" fill="#87959E"/>
<path d="M42.1852 13.4148H46.0741L45.7037 16.4704L45.8259 16.5926C47.4148 14.0259 49.8593 12.8037 53.4 12.8037C58.2889 12.8037 60.7296 15.3704 60.7296 20.3778V22.2296H56.9481L57.0704 21.6185C57.0704 20.8778 57.1926 20.3963 57.1926 20.1371C57.1926 17.4519 55.7111 15.9852 52.7963 15.9852C48.3963 15.9852 46.3185 18.6741 46.3185 24.0482V40.0556H42.4111V13.4148H42.1852Z" fill="#87959E"/>
<path d="M84.8 13.4148V41.763C84.8 45.6704 83.9445 48.237 82.237 49.7037C80.5296 51.1704 77.4704 51.9037 73.0741 51.9037C69.0407 51.9037 66.3556 51.2926 64.8889 50.0518C63.4222 48.8111 62.6889 46.5074 62.6889 43.2074H66.4778C66.4778 45.5296 66.8482 46.9963 67.6963 47.6074C68.5519 48.3482 70.3852 48.5852 73.1963 48.5852C76.1259 48.5852 78.2037 48.0963 79.1815 47.2407C80.1593 46.3852 80.7704 44.5519 80.7704 41.9889V36.6111H80.6482C79.6704 39.0556 76.737 40.2778 71.9741 40.2778C68.063 40.2778 65.3778 39.3 63.7889 37.3444C62.3222 35.3889 61.5889 31.8457 61.5889 26.7148C61.5889 21.337 62.3296 17.7963 63.9111 15.8407C65.3778 13.8852 68.1877 12.9074 72.3407 12.9074C76.737 12.9074 79.5482 14.2518 80.8926 16.9407H81.0148L80.7704 13.3963L84.8 13.4148ZM73.1963 16.3482C70.1407 16.3482 68.1852 16.9593 67.2111 18.3037C66.3556 19.6444 65.8667 22.4556 65.8667 26.7333C65.8667 31.1296 66.3556 33.9407 67.2111 35.2852C68.0667 36.6296 70.1407 37.2407 73.1963 37.2407C76.2519 37.2407 78.3259 36.5 79.3037 35.0407C80.2815 33.5815 80.7852 30.6444 80.7852 26C80.7852 21.9667 80.2963 19.4037 79.3037 18.0593C78.3259 16.9407 76.2593 16.3296 73.1963 16.3296V16.3482Z" fill="#87959E"/>
<path d="M110.333 20.3592H106.422C106.422 18.5296 106.052 17.3074 105.311 16.9407C104.57 16.4518 102.626 16.3296 99.4482 16.3296C96.5198 16.3296 94.6877 16.5765 93.9519 17.0704C93.2111 17.5592 92.7296 18.6592 92.7296 20.4889C92.7296 23.1778 94.0741 24.6444 96.6407 24.7667L99.8148 24.8889L103.848 25.1333C108.733 25.3778 111.056 27.9444 111.056 32.7074C111.056 35.6407 110.2 37.7185 108.611 38.8185C107.022 39.9185 104.093 40.5296 99.8148 40.5296C95.4185 40.5296 92.4852 40.0407 90.7741 38.9407C89.1889 37.8296 88.3333 35.8852 88.3333 33.0741V31.5926H92.363V32.8148C92.363 34.5259 92.8519 35.7481 93.7074 36.3593C94.563 36.9704 96.3963 37.2148 98.9593 37.2148C102.137 37.2148 104.337 36.8444 105.311 36.237C106.285 35.6296 106.793 34.4037 106.793 32.4481C106.793 29.6407 105.57 28.2963 103.007 28.2963C97.1457 28.2963 93.2358 27.8025 91.2778 26.8148C89.4444 25.8592 88.4815 23.7852 88.4815 20.6037C88.4815 17.6741 89.2222 15.5963 90.6778 14.6185C92.1333 13.6407 95.0778 13.137 99.4741 13.137C106.559 13.137 110.104 15.2148 110.104 19.4926V20.3444L110.333 20.3592Z" fill="#87959E"/>
<path d="M23.2963 12.9222C20.8593 13.8445 19.7815 15.9111 19.363 18.2222C18.6519 22.1519 19.2222 26.1519 19.0593 30.1185C19.0362 31.0985 18.9309 32.0747 18.7444 33.037C18.6033 33.8447 18.1959 34.5818 17.587 35.1309C16.9782 35.68 16.203 36.0094 15.3852 36.0667C14.2741 36.1741 13.1185 36.2407 11.9815 36.2519C10.8444 36.263 9.7 36.1741 8.57777 36.0667C7.75926 36.0102 6.98326 35.6811 6.37368 35.132C5.7641 34.5828 5.3561 33.8453 5.21481 33.037C5.02832 32.0747 4.92302 31.0985 4.9 30.1185C4.73704 26.1519 5.31111 22.1519 4.6 18.2222C4.18148 15.9111 3.11852 13.8445 0.666667 12.9222V32.6519C0.666667 32.9889 0.666667 33.1037 0.666667 33.3074C0.592593 35.4926 1.74815 36.9926 3.39629 38.337C4.81111 39.4852 6.46296 39.6445 8.12592 39.8963H15.8333C17.4963 39.6445 19.1667 39.4852 20.563 38.337C22.2111 36.9926 23.3667 35.4926 23.2963 33.3074C23.2963 33.1037 23.2963 32.9889 23.2963 32.6519V12.9222Z" fill="#87959E"/>
<path d="M154.037 37.5852C153.174 36.1037 153.204 35.7556 152.319 34.2815C151.455 32.9173 151.021 31.3249 151.074 29.7111C151.167 26.5518 151.107 23.3778 150.907 20.2259C150.774 18.1259 150.074 16.7111 147.878 16.1778C145.348 15.5667 142.756 15.4889 140.37 16.4926C139.735 16.7463 139.159 17.1272 138.677 17.6119C138.195 18.0966 137.817 18.6749 137.567 19.3111C136.989 20.6444 136.878 22.1667 136.826 23.6074C136.711 26.6926 136.785 29.7815 136.793 32.8667C136.793 35.3815 136.819 37.8926 136.833 40.4074H132.704C132.704 37.7222 132.759 35.037 132.741 32.3518C132.709 28.3049 132.652 24.258 132.57 20.2111C132.537 18.4 131.022 16.6296 129.259 16.1667C127.696 15.7596 126.06 15.7077 124.474 16.0148C121.963 16.4741 120.17 17.8333 119.219 20.2592C118.541 21.9778 118.522 23.7852 118.433 25.5815C118.363 27.0074 118.415 28.437 118.433 29.8667C118.433 33.3827 118.447 36.8963 118.474 40.4074H114.348V12.8111L116.737 12.8518C117.804 12.8518 118.407 13.4667 118.419 14.5333C118.419 15.1963 118.419 15.8555 118.419 16.5185C119.206 15.3855 120.231 14.4376 121.422 13.7407C122.437 13.1718 123.542 12.7797 124.689 12.5815C126.276 12.2653 127.907 12.2376 129.504 12.5C130.922 12.7296 133.463 13.1407 134.374 14.4407C134.981 15.0272 135.461 15.7318 135.785 16.5111C135.854 16.6307 135.932 16.7446 136.019 16.8518C136.55 15.976 137.226 15.197 138.019 14.5481C139.335 13.5249 140.887 12.8498 142.533 12.5852C144.146 12.2493 145.807 12.2217 147.43 12.5037C148.385 12.563 150.863 12.8518 152.615 14.7259C153.77 15.9593 153.356 17.4407 153.574 18.4037C153.752 19.1444 153.944 19.8852 154.119 20.6259L154.037 37.5852Z" fill="#868E77"/>
<path d="M186.067 12.5074C187.548 12.8111 189.011 13.1111 190.181 14.3593C191.426 15.6741 191.789 17.3963 191.93 18.5371C192.026 19.3223 191.893 20.0556 191.93 20.926C191.93 27.1963 191.93 33.4667 191.948 39.7408C191.948 40.3556 191.785 40.4445 191.23 40.4222C190.037 40.3704 189.007 40.3741 187.815 40.3741V20.5593C187.808 19.5853 187.578 18.626 187.141 17.7556C186.552 16.5371 185.378 16.1445 184.178 15.9667C181.859 15.6185 179.548 15.5778 177.289 16.4408C174.915 17.3482 173.659 19.1296 173.274 21.5333C172.833 24.263 173.137 27.0259 173.104 29.7778C173.104 30.9741 173.011 32.0556 172.248 33.1111C171.137 34.6296 170.689 36.1926 169.656 37.7815C169.615 37.8445 169.519 37.8704 169.448 37.9148V17.3852C169.519 16.9599 169.695 16.5589 169.959 16.2185C170.681 15.2741 171.259 14.2259 171.974 13.2741C172.193 12.9889 172.444 12.5815 172.841 12.7148C173.237 12.8482 173.104 13.3 173.111 13.6296C173.135 14.2655 173.125 14.9022 173.081 15.5371C173.41 14.9104 173.898 14.3815 174.496 14.0037C175.148 13.519 175.87 13.1368 176.637 12.8704C177.431 12.6211 178.254 12.4718 179.085 12.4259C179.826 12.3519 180.407 12.3445 180.678 12.3408C183.57 12.3037 185.004 12.3037 186.067 12.5074Z" fill="#868E77"/>
<path d="M173.296 10.4074C170.881 11.4333 169.815 13.7407 169.4 16.3037C168.693 20.674 169.259 25.1259 169.1 29.537C169.077 30.6272 168.973 31.7141 168.789 32.7889C168.419 34.7852 167.115 35.9778 165.456 36.1555C164.344 36.2741 163.211 36.3518 162.085 36.3629C160.959 36.3741 159.826 36.2741 158.711 36.1555C157.056 35.9778 155.748 34.7852 155.378 32.7889C155.197 31.7137 155.094 30.627 155.07 29.537C154.907 25.1259 155.474 20.674 154.77 16.3037C154.356 13.7333 153.289 11.4333 150.87 10.4074V32.3592C150.87 32.7296 150.87 32.8592 150.87 33.1C150.8 35.5333 151.944 37.2037 153.578 38.6963C154.978 39.974 156.615 40.1518 158.263 40.4333H165.889C167.537 40.1518 169.174 39.974 170.574 38.6963C172.207 37.2148 173.352 35.5333 173.281 33.1C173.281 32.8741 173.281 32.7296 173.281 32.3592L173.296 10.4074Z" fill="#D3D6C7"/>
<path d="M158.237 49.6148C156.589 50.7852 154.578 51.737 154.578 52.9482H160.333C160.628 52.9482 160.911 53.0652 161.119 53.2736C161.327 53.482 161.444 53.7646 161.444 54.0593V54.6111H152.822V54.0407C152.822 51.9593 153.444 51.1889 154.415 50.4037C156.552 48.6815 159.352 47.5111 159.352 45.9593C159.352 44.8222 158.293 44.1074 157.03 44.1074C156.165 44.1319 155.319 44.3603 154.559 44.7741C154.435 44.8368 154.296 44.8662 154.157 44.8594C154.017 44.8526 153.882 44.8098 153.764 44.7352C153.646 44.6606 153.55 44.5568 153.484 44.4337C153.418 44.3107 153.385 44.1728 153.389 44.0333C153.387 43.8794 153.429 43.7282 153.51 43.5971C153.59 43.466 153.706 43.3604 153.844 43.2926C154.86 42.758 155.989 42.4748 157.137 42.4667C159.481 42.4667 161.163 43.7296 161.163 45.7222C161.163 47.3852 159.993 48.3704 158.237 49.6148Z" fill="white"/>
<path d="M167.452 54.7926C164.433 54.7926 162.241 52.2852 162.241 48.6482C162.241 44.9148 164.507 42.4815 167.426 42.4815C170.115 42.4815 172.456 44.9148 172.456 48.6111C172.463 52.3963 170.03 54.7926 167.452 54.7926ZM170.652 48.6C170.652 46.2037 169.337 44.1 167.396 44.1C165.456 44.1 164.063 46.2037 164.063 48.6704C164.063 51.137 165.507 53.1889 167.319 53.1889C169.263 53.1815 170.652 51.1148 170.652 48.6Z" fill="white"/>
<path d="M178.681 49.6148C177.033 50.7852 175.022 51.737 175.022 52.9481H180.904C181.163 52.9491 181.412 53.053 181.595 53.2369C181.779 53.4209 181.881 53.67 181.881 53.9296V54.5963H173.267V54.0259C173.267 51.9444 173.889 51.1741 174.859 50.3889C176.996 48.6667 179.796 47.4963 179.796 45.9444C179.796 44.8074 178.737 44.0926 177.474 44.0926C176.61 44.1167 175.763 44.3451 175.004 44.7592C174.879 44.822 174.74 44.8514 174.601 44.8446C174.462 44.8378 174.327 44.795 174.209 44.7204C174.091 44.6458 173.994 44.5419 173.929 44.4189C173.863 44.2959 173.83 44.158 173.833 44.0185C173.832 43.8646 173.873 43.7134 173.954 43.5823C174.035 43.4512 174.151 43.3456 174.289 43.2778C175.305 42.7432 176.434 42.4599 177.581 42.4518C179.926 42.4518 181.607 43.7148 181.607 45.7074C181.607 47.3852 180.437 48.3703 178.681 49.6148Z" fill="white"/>
<path d="M189.222 48.2074V48.2444C190.904 48.463 191.985 49.4519 191.985 51.0407C191.985 53.0556 190.174 54.7926 187.356 54.7926C186.227 54.7738 185.119 54.4963 184.115 53.9815C183.975 53.9147 183.856 53.8097 183.773 53.6787C183.69 53.5477 183.645 53.3959 183.644 53.2407C183.643 53.0998 183.678 52.9609 183.746 52.8374C183.814 52.7139 183.913 52.61 184.033 52.5356C184.153 52.4612 184.289 52.4189 184.43 52.4126C184.571 52.4064 184.711 52.4365 184.837 52.5C185.603 52.9261 186.461 53.1611 187.337 53.1852C188.93 53.1852 190.174 52.2185 190.174 51.0111C190.174 49.8037 189.063 49.1074 187.504 49.1074H184.778V47.6074H186.807C188.307 47.6074 189.589 46.9296 189.589 45.8333C189.589 44.8259 188.656 44.1148 187.193 44.1148C186.358 44.1175 185.538 44.3343 184.811 44.7445C184.693 44.8116 184.559 44.8466 184.423 44.846C184.286 44.8454 184.153 44.8093 184.035 44.7412C183.917 44.673 183.819 44.5753 183.751 44.4577C183.682 44.34 183.645 44.2065 183.644 44.0704C183.645 43.9237 183.687 43.7801 183.765 43.6558C183.843 43.5315 183.954 43.4314 184.085 43.3667C185.122 42.8167 186.275 42.5209 187.448 42.5037C189.752 42.5037 191.4 43.7296 191.4 45.4852C191.382 46.7482 190.667 47.6778 189.222 48.2074Z" fill="white"/>
</svg>
