<svg width="1709" height="2138" viewBox="0 0 1709 2138" fill="none" xmlns="http://www.w3.org/2000/svg">
<g clip-path="url(#clip0_10_697)">
<mask id="mask0_10_697" style="mask-type:luminance" maskUnits="userSpaceOnUse" x="-327" y="1309" width="3310" height="3310">
<path d="M-326.957 2560.14L923.921 4618.29L2982.07 3367.42L1731.19 1309.26L-326.957 2560.14Z" fill="white"/>
</mask>
<g mask="url(#mask0_10_697)">
<g opacity="0.01">
<path d="M1174.92 1844.74C1184.09 1865.06 1193.58 1886.12 1215.34 1892.91C1228.01 1896.87 1240.99 1894.36 1253.52 1891.96C1264.9 1889.77 1275.66 1887.72 1285.95 1890.18C1307.83 1895.49 1319.58 1920.24 1322.99 1939.8C1324.54 1950.14 1325.47 1960.57 1325.76 1971.02C1326.31 1983.73 1326.98 1997.03 1329.98 2009.87C1331.75 2017.07 1334.14 2024.31 1336.5 2031.28C1341.9 2047.25 1347.01 2062.31 1343.7 2077.48C1341.29 2088.62 1334.66 2098.08 1327.62 2108.13C1324.14 2113.14 1320.48 2118.33 1317.41 2123.75C1302.28 2150.38 1300.85 2182.93 1299.62 2209.12C1298.38 2235.97 1296.99 2266.41 1283.46 2291.07C1270.97 2313.9 1242.75 2332.6 1217.09 2324.44C1209.51 2322 1202.71 2317.52 1195.61 2312.91C1188.45 2307.7 1180.6 2303.49 1172.3 2300.41C1138.29 2289.5 1102.99 2318.03 1092.57 2350.43C1085.9 2371.35 1088.49 2390.6 1090.99 2409.22C1092.77 2420.17 1093.66 2431.25 1093.65 2442.34C1093.2 2460.31 1089.8 2480.01 1086.52 2499.05C1085.11 2507.08 1083.81 2514.68 1082.73 2522.23C1073.7 2583.3 1058.15 2643.23 1036.35 2700.99C1024.85 2731.34 1009.81 2766.05 985.197 2793.22C962.142 2818.67 938.413 2828.44 903.276 2826.96C897.423 2826.74 891.204 2825.95 885.168 2825.21C866.896 2822.93 848.028 2820.56 832.7 2831.5C827.721 2835.03 823.669 2839.71 820.888 2845.15C818.107 2850.58 816.679 2856.6 816.726 2862.71C816.397 2875.3 820.91 2889.47 828.751 2902.37C834.48 2911.85 841.826 2920.24 850.455 2927.18C875.047 2946.6 904.311 2973.28 912.607 3007.54C921.811 3045.53 885.052 3081.57 844.953 3091.38C821.679 3097.1 797.025 3097.02 773.117 3096.89C755.315 3096.41 737.5 3097.07 719.783 3098.87C677.398 3104.02 629.362 3129.79 624.035 3174.18C622.085 3190.3 625.885 3206.99 629.635 3223.29C635.033 3247.07 640.19 3269.51 626.295 3286.28C606.041 3310.75 564.748 3296.65 542.023 3278.75C536.226 3274.24 530.396 3269.2 524.769 3264.32C504.391 3246.72 483.344 3228.53 456.233 3226.09C437.881 3224.41 420.173 3230.52 403.038 3236.42C384.17 3242.9 366.344 3249.04 348.256 3245.34C308.013 3237.05 293.938 3186.03 289.632 3164.56C288.364 3158.18 287.275 3151.66 286.175 3145.13C280.951 3114.38 275.488 3082.42 254.419 3059C236.213 3038.75 210.24 3029.25 185.031 3020.27C175.511 3016.85 165.608 3013.26 156.425 3009.19C114.493 2990.52 76.1204 2928.58 91.1852 2882.87C98.3692 2860.94 119.06 2842.86 147.729 2833.39C170.122 2825.97 194.107 2822.19 217.344 2818.56C251.685 2813.19 287.16 2807.63 319.104 2790.2C339.566 2779.04 353.39 2761.89 357.097 2743.18C358.983 2733.17 358.212 2722.84 354.861 2713.22C352.352 2706.37 349.291 2699.74 345.707 2693.39C344.102 2690.32 342.479 2687.26 340.969 2684.14C321.616 2643.71 326.014 2596.67 353.008 2554.95C363.453 2538.82 383.087 2530.59 396.962 2525.81C401.26 2524.29 405.544 2522.97 409.835 2521.61C423.525 2517.26 437.685 2512.78 450.204 2504.91C479.098 2486.67 484.914 2458.97 467.321 2424.7C462.53 2415.39 457.313 2406.04 452.244 2397.01C433.998 2364.28 415.111 2330.46 412.698 2293.51C410.841 2265 418.614 2237.73 426.937 2209C432.176 2192.06 436.392 2174.82 439.563 2157.38C442.751 2137.59 443.205 2117.3 443.606 2097.69C444.007 2078.08 444.446 2058.45 447.503 2039.27C453.137 2004.27 472.413 1962.65 509.788 1950.76C533.423 1943.23 558.124 1948.97 584.277 1955.07C610.43 1961.18 637.164 1967.29 662.934 1959.2C676.842 1954.82 688.911 1946.59 700.58 1938.61C708.871 1932.64 717.62 1927.32 726.745 1922.71C740.481 1916.24 755.204 1913.24 770.863 1910.2C782.745 1908.1 794.471 1905.2 805.962 1901.52C857.518 1883.6 889.379 1836.97 908.862 1803.42C913.448 1794.97 917.486 1786.24 920.952 1777.28C933.105 1747.55 945.797 1716.95 980.642 1726.28C993.988 1729.86 1000.49 1740.47 1007.44 1751.75C1010.35 1756.71 1013.57 1761.48 1017.09 1766.03C1035.03 1788.24 1061.87 1791.27 1083.26 1791.42L1088.8 1791.44C1110.2 1791.49 1132.34 1791.55 1148.35 1803.85C1160.74 1813.38 1167.98 1829.31 1174.92 1844.74ZM1153.29 1797.37C1135.07 1783.42 1111.55 1783.36 1088.81 1783.3L1083.27 1783.3C1062.49 1783.14 1039.09 1780.37 1023.37 1760.91C1020.08 1756.63 1017.06 1752.14 1014.33 1747.48C1006.97 1735.38 999.23 1722.94 982.759 1718.47C941.046 1707.29 925.659 1744.28 913.338 1774.02C909.988 1782.67 906.074 1791.09 901.621 1799.23C871.704 1850.74 840.395 1880.8 803.068 1893.76C791.926 1897.33 780.552 1900.13 769.028 1902.15C753.64 1905.22 737.709 1908.38 723.077 1915.26C713.555 1920.05 704.43 1925.6 695.788 1931.84C684.088 1939.82 673.062 1947.35 660.296 1951.38C636.668 1958.88 612.005 1953.12 585.864 1947.03C559.723 1940.95 532.87 1934.72 507.139 1942.92C466.225 1955.94 445.29 2000.5 439.296 2037.91C436.123 2057.64 435.702 2077.86 435.297 2097.42C434.893 2116.97 434.466 2136.75 431.355 2156.02C428.223 2173.13 424.077 2190.04 418.938 2206.66C410.822 2234.87 402.414 2264.01 404.378 2293.95C406.905 2332.76 426.236 2367.36 444.938 2400.88C449.953 2409.86 455.166 2419.17 459.914 2428.31C475.797 2459.08 471.165 2481.86 445.659 2497.99C434.036 2505.31 420.403 2509.63 407.19 2513.83C402.822 2515.23 398.409 2516.55 394.123 2518.09C379.034 2523.32 357.832 2532.31 345.988 2550.53C317.842 2594.04 313.15 2645.28 333.432 2687.62C334.968 2690.84 336.661 2694.01 338.324 2697.17C341.728 2703.11 344.627 2709.31 346.993 2715.73C349.89 2723.98 350.554 2732.85 348.918 2741.44C345.783 2757.75 333.366 2772.92 315.019 2782.92C284.331 2799.67 249.558 2805.14 215.897 2810.39C192.336 2814.08 168.015 2817.91 144.988 2825.53C113.77 2835.87 91.2988 2855.79 83.2568 2880.17C66.9819 2929.65 107.979 2996.46 153.009 3016.41C162.452 3020.61 172.447 3024.22 182.136 3027.75C207.48 3036.9 231.441 3045.54 248.284 3064.32C267.813 3086.06 273.029 3116.71 278.055 3146.41C279.19 3153 280.314 3159.57 281.586 3166C286.108 3189.12 301.504 3243.9 346.534 3253.2C366.77 3257.34 386.505 3250.57 405.594 3243.98C421.912 3238.36 438.814 3232.55 455.391 3234.07C479.9 3236.26 499.967 3253.61 519.365 3270.37C525 3275.35 530.991 3280.4 536.93 3285.06C566.653 3308.2 610.112 3318.35 632.477 3291.34C648.89 3271.5 643.062 3246.02 637.453 3221.38C633.895 3205.82 630.235 3189.75 632.007 3175.11C636.839 3135.01 681.369 3111.63 720.681 3106.83C738.061 3105.11 755.531 3104.47 772.991 3104.92C797.377 3105.03 822.585 3105.16 846.811 3099.2C890.724 3088.46 930.661 3048.24 920.39 3005.58C911.496 2968.92 881.001 2941.03 855.41 2920.77C837.176 2906.36 824.298 2882.04 824.771 2862.93C824.689 2858.09 825.793 2853.3 827.986 2848.99C830.18 2844.67 833.396 2840.96 837.354 2838.17C850.092 2829.07 866.614 2831.14 884.082 2833.25C890.278 2834 896.67 2834.82 902.825 2835.07C940.276 2836.58 966.569 2825.74 991.111 2798.66C1016.66 2770.5 1032.13 2734.93 1043.84 2703.83C1065.87 2645.51 1081.58 2585.01 1090.72 2523.35C1091.82 2515.92 1093.14 2508.39 1094.49 2500.39C1097.84 2481.05 1101.28 2461.06 1101.75 2442.48C1101.76 2430.97 1100.85 2419.49 1099.01 2408.13C1096.5 2389.56 1094.16 2372.07 1100.3 2352.88C1109.52 2324.13 1140.39 2298.62 1169.79 2308.04C1177.33 2310.45 1184.06 2314.87 1191.18 2319.54C1198.3 2324.22 1205.98 2329.26 1214.65 2332.01C1245.38 2341.82 1276.73 2320.16 1290.59 2294.83C1305 2268.51 1306.45 2237.07 1307.76 2209.34C1308.97 2182.69 1310.37 2152.48 1324.47 2127.6C1327.35 2122.51 1330.87 2117.47 1334.29 2112.63C1341.47 2102.37 1348.89 2091.78 1351.66 2079.08C1355.41 2061.72 1349.69 2044.87 1344.16 2028.55C1341.83 2021.77 1339.47 2014.75 1337.87 2007.9C1335.04 1995.78 1334.43 1982.92 1333.84 1970.52C1333.54 1959.75 1332.59 1949 1330.98 1938.34C1329.12 1927.32 1325.25 1916.74 1319.57 1907.12C1312.39 1895.3 1301.97 1885.64 1287.87 1882.23C1275.86 1879.35 1263.73 1881.66 1251.98 1883.92C1240.22 1886.19 1228.58 1888.36 1217.79 1885.08C1199.49 1879.37 1191.15 1860.87 1182.35 1841.37C1174.99 1824.97 1167.37 1808.13 1153.31 1797.33" fill="white"/>
<path d="M1277.92 1799.55C1301.77 1798.39 1324.29 1797.28 1342 1810.19C1359.71 1823.09 1365.59 1845.43 1371.55 1868.9C1376.15 1887.16 1380.92 1906.05 1392.08 1921.06C1400.22 1932 1411.25 1940.15 1421.91 1948.02C1431.01 1954.76 1440.45 1961.7 1447.77 1970.25C1471.63 1998.26 1469.55 2038.59 1459.63 2067.06C1455.2 2079.7 1447.39 2091.54 1439.83 2102.97C1429.7 2118.34 1419.21 2134.27 1416.21 2152.82C1413.71 2168.41 1417.41 2186.17 1420.97 2203.32C1426.75 2231.13 1432.76 2259.96 1412.81 2280.46C1401.57 2292.02 1385.76 2298.13 1370.48 2303.99C1356.26 2309.53 1338.51 2316.38 1326.29 2329.52C1309.2 2347.9 1306.11 2373.6 1302.97 2398.5C1302.58 2402.15 1302.06 2405.89 1301.56 2409.53C1298.83 2429.93 1290.03 2465.44 1262.35 2474.13C1252.96 2477.09 1242.17 2476.56 1231.74 2476.06C1216.24 2475.3 1200.24 2474.51 1188.24 2485.04C1179.73 2492.5 1176.21 2503.41 1172.81 2513.93L1172.43 2515.1C1153.56 2573.54 1129.01 2618.76 1099.41 2649.49C1067.43 2682.75 1053.15 2734.7 1064.03 2778.66C1068.97 2798.6 1079.37 2816.57 1089.44 2833.99C1094 2841.89 1098.74 2850.03 1102.85 2858.25C1112.09 2876.67 1125.27 2911.75 1109.44 2939.72C1096.64 2962.34 1071.38 2971.01 1044.69 2980.21C1021.54 2988.18 997.617 2996.4 981.592 3014.52C961.718 3037.04 959.058 3068.3 956.538 3098.59C953.886 3130.55 951.377 3160.73 930.262 3181.08C907.208 3203.26 873.85 3202.6 838.514 3201.87C805.161 3201.26 770.632 3200.49 745.031 3220.79C725.853 3236 716.96 3262.8 708.377 3288.74C695.194 3328.54 682.741 3366.14 635.222 3359.66C601.455 3355.03 575.391 3331.59 550.192 3308.94C521.737 3283.33 492.278 3256.85 451.502 3256.99C426.692 3257.09 403.444 3268.82 380.986 3280.17C353.627 3293.98 327.817 3307.03 300.494 3299.61C253.574 3286.81 243.823 3237.49 235.188 3193.91C232.856 3180.8 229.853 3167.82 226.189 3155.02C209.113 3100 170.708 3065.28 130.084 3028.54C118.432 3017.95 106.303 3007.06 94.9062 2995.69C52.1383 2953.1 9.31798 2865.69 53.2924 2813.18C79.6901 2781.68 126.566 2777.36 167.942 2773.56L172.193 2773.17C234.282 2767.43 271.605 2748.37 286.228 2714.98C297.177 2690.06 292.414 2662.21 287.873 2635.25C282.973 2606.1 278.338 2578.59 291.873 2555.05C304.335 2533.3 329.165 2521.95 353.282 2511.05C380.103 2498.84 407.832 2486.24 419.067 2459.09C434.014 2422.96 417.445 2390.42 401.436 2358.97C389.252 2335.06 376.751 2310.45 378.233 2284.55C379.599 2260.52 386.49 2236.74 393.155 2213.74C395.166 2206.83 397.165 2199.9 399.015 2192.98C410.176 2151.49 412.323 2112.09 414.598 2070.36C415.577 2052.17 416.606 2033.39 418.46 2014.54C423.508 1963.98 451.061 1888.83 506.557 1889.15C527.073 1889.29 547.761 1897.57 567.756 1905.56C597.03 1917.23 627.306 1929.39 658.813 1917.34C671.545 1912.52 682.52 1903.66 693.066 1895.16C705.667 1884.9 717.568 1875.37 732.477 1872.07C742.328 1869.95 752.392 1870.88 762.996 1871.79C772.677 1872.69 782.745 1873.67 792.618 1872.05C844.677 1863.72 860.392 1820.06 875.6 1777.88C880.26 1764.03 885.767 1750.48 892.09 1737.3C911.126 1699.92 954.994 1638.74 1034.05 1649.62C1101.48 1658.89 1147.7 1711.36 1169.24 1741.83L1174.55 1749.45C1185.88 1765.9 1197.52 1782.94 1215.65 1792.04C1234.51 1801.64 1256.61 1800.57 1277.92 1799.55ZM1218.4 1786.61C1201.72 1778.17 1190.48 1761.83 1179.56 1746.02C1177.8 1743.41 1176.02 1740.83 1174.2 1738.31C1152.1 1707.05 1104.59 1653.19 1034.86 1643.56C973.511 1635.16 920.9 1667.44 886.62 1734.57C880.226 1747.96 874.647 1761.72 869.912 1775.78C855.376 1816.27 840.19 1858.23 791.751 1866.16C782.626 1867.64 773.435 1866.86 763.635 1865.84C753.004 1864.84 742.011 1863.8 731.227 1866.15C714.844 1869.77 701.881 1880.25 689.207 1890.36C679.069 1898.58 668.542 1907.07 656.62 1911.63C627.299 1922.76 599.439 1911.75 570.041 1899.92C549.422 1891.75 528.285 1883.25 506.618 1883.11C447.049 1882.78 417.663 1961.19 412.51 2013.98C410.625 2032.95 409.612 2051.81 408.611 2070.08C406.368 2111.48 404.235 2150.56 393.254 2191.45C391.381 2198.33 389.396 2205.19 387.393 2212.08C380.684 2235.39 373.685 2259.55 372.253 2284.25C370.716 2311.77 383.566 2337.21 396.094 2361.77C412.207 2393.39 427.396 2423.28 413.535 2456.81C403.236 2481.73 377.803 2493.3 350.875 2505.54C325.916 2516.9 300.082 2528.58 286.681 2552.05C272.082 2577.49 277.148 2607.42 281.974 2636.27C286.349 2662.32 290.947 2689.38 280.803 2712.67C267.139 2743.86 231.477 2761.69 171.792 2767.23L167.522 2767.63C124.984 2771.54 76.7853 2775.96 48.777 2809.4C1.89649 2865.37 45.0411 2954.65 90.7397 3000.13C102.263 3011.57 114.4 3022.57 126.145 3033.18C166.16 3069.35 203.947 3103.48 220.544 3156.94C224.138 3169.55 227.092 3182.33 229.394 3195.24C238.318 3240.5 248.454 3291.83 299.078 3305.61C328.669 3313.72 356.722 3299.46 383.898 3285.74C405.723 3274.72 428.307 3263.31 451.667 3263.23C490.104 3263.1 517.379 3287.62 546.283 3313.59C572.213 3336.97 598.923 3360.95 634.531 3365.82C687.102 3373.02 700.939 3331.2 714.225 3290.85C722.481 3265.79 731.122 3239.82 748.872 3225.74C772.782 3206.77 806.175 3207.49 838.493 3208.15C873.469 3208.89 909.634 3209.61 934.457 3185.7C957.185 3163.8 959.943 3131.07 962.566 3099.36C965.008 3070.06 967.516 3039.75 986.08 3018.81C1001.05 3001.88 1024.22 2993.93 1046.62 2986.22C1073.21 2977.08 1100.73 2967.61 1114.68 2942.98C1131.9 2912.57 1118.04 2875.3 1108.26 2855.77C1104.05 2847.43 1099.26 2839.17 1094.66 2831.21C1084.83 2814.17 1074.65 2796.56 1069.85 2777.5C1059.45 2735.49 1073.05 2685.86 1103.71 2654.03C1133.95 2622.6 1158.97 2576.6 1178.13 2517.27L1178.5 2516.11C1181.65 2506.36 1184.87 2496.29 1192.14 2489.92C1202.42 2481.06 1216.38 2481.71 1231.33 2482.43C1242.31 2482.97 1253.63 2483.52 1263.96 2480.3C1294.87 2470.62 1304.44 2432.52 1307.4 2410.68C1307.82 2407.08 1308.35 2403.32 1308.81 2399.6C1311.72 2375.7 1314.73 2350.95 1330.47 2334.03C1341.76 2321.95 1358.75 2315.35 1372.42 2310.05C1388.29 2303.92 1404.71 2297.57 1416.9 2285.08C1439.1 2262.24 1432.79 2231.84 1426.69 2202.43C1423.08 2185.03 1419.67 2168.6 1422 2154.1C1424.75 2136.77 1434.43 2122.17 1444.68 2106.66C1452.44 2094.92 1460.45 2082.75 1465.12 2069.39C1474.47 2042.62 1477.17 2005.8 1459.61 1976.91C1457.42 1973.29 1454.94 1969.85 1452.19 1966.63C1444.42 1957.54 1434.71 1950.37 1425.33 1943.44C1414.55 1935.48 1404.34 1927.96 1396.7 1917.78C1386.22 1903.72 1381.61 1885.46 1377.15 1867.76C1371.23 1844.33 1365.1 1820.07 1345.27 1805.61C1325.78 1791.36 1301.18 1792.61 1277.32 1793.76C1256.8 1794.74 1235.61 1795.77 1218.09 1786.9" fill="white"/>
<path d="M1429.59 1734.93C1443.25 1723.62 1453.53 1708.97 1463.46 1694.79C1468.35 1687.8 1473.43 1680.57 1478.82 1673.9C1517.74 1625.56 1579.35 1602.59 1632.12 1616.72C1697.16 1634.08 1742.25 1708.97 1732.65 1783.59C1728.96 1812.22 1717.59 1836.09 1705.43 1861.44L1703.15 1866.27C1699.01 1875.72 1695.78 1885.55 1693.51 1895.61C1689.94 1909.37 1686.56 1922.41 1677.87 1934.29C1664.49 1952.86 1645.76 1966.86 1627.65 1980.47L1537.47 2048.07C1507.65 2070.42 1480.07 2095.72 1480.07 2129.12C1480.09 2144.61 1486.32 2158.93 1492.34 2172.84C1498.36 2186.74 1503.83 2199.34 1504.13 2213.24C1504.57 2234.79 1491.62 2255.08 1481.22 2271.38C1468.35 2291.54 1455.04 2312.42 1436.06 2327.52C1425.98 2335.11 1415.3 2341.85 1404.12 2347.7C1385.24 2358.23 1365.68 2369.13 1353.69 2387.69C1343.09 2404.05 1339.79 2424.21 1336.61 2443.71C1332.49 2468.87 1328.58 2492.59 1309.99 2506.87C1297.3 2516.61 1281.3 2518.87 1264.35 2521.26C1252.32 2522.94 1239.71 2524.73 1228.33 2529.46C1208.01 2537.87 1190.77 2556.1 1179.74 2580.81C1175.76 2590.38 1172.55 2600.26 1170.16 2610.35C1166.81 2622.82 1163.64 2634.61 1157.45 2645.58C1148.81 2660.91 1142.61 2673.18 1138.44 2687.01C1135.96 2695.29 1134.38 2703.8 1133.71 2712.41C1130.3 2756.6 1148.14 2802.8 1186.73 2849.63C1229.48 2901.47 1237.07 2945.34 1209.83 2983.87C1185.4 3018.47 1144.56 3036.72 1105.08 3054.37L1098.5 3057.27C1054.82 3076.88 1011.77 3100.75 992.5 3142.26C988.233 3152.18 984.68 3162.39 981.866 3172.81C976.167 3192.24 970.749 3210.59 956.728 3223.29C936.12 3241.9 906.723 3240.37 875.581 3238.68C844.44 3237 811.493 3235.39 789.442 3257.11C763.663 3282.41 770.402 3319.39 776.951 3355.15C780.741 3376.08 784.724 3397.74 782.522 3417.48C779.345 3446.6 757.698 3472.86 726.148 3485.95C694.597 3499.05 660.777 3495.83 637.871 3477.55C617.3 3461.14 603.053 3435.5 589.392 3410.66C567.984 3372.14 547.763 3335.73 505.959 3333.5C472.939 3331.73 447.588 3354.81 423.035 3377.14C413.544 3386.13 403.542 3394.56 393.079 3402.39C359.411 3426.56 315.81 3433.7 270.194 3422.28C216.912 3409.15 169.543 3372.04 146.582 3325.85C130.39 3293.15 122.184 3255.26 114.247 3218.67C101.528 3159.96 88.4165 3099.27 41.4885 3061.56C23.2883 3046.94 1.38747 3037.31 -19.7541 3028.03C-46.3975 3016.36 -71.5382 3005.3 -90.432 2985.08C-119.966 2953.45 -128.485 2900.01 -112.081 2849.07C-96.9613 2802.2 -65.9732 2762.8 -36.0295 2724.69C-14.3139 2697.09 8.13453 2668.54 38.0697 2649.1C61.8585 2633.62 97.978 2620.23 121.42 2633.25C127.693 2636.75 133.295 2640.47 138.734 2644.05C156.544 2655.88 171.908 2666.09 199.995 2661.2C214.544 2658.52 228.185 2652.22 239.662 2642.88C251.138 2633.54 260.082 2621.47 265.668 2607.77C273.43 2588 273.889 2565.82 274.337 2544.36C274.937 2515.29 275.514 2487.64 293.419 2467.34C299.709 2460.25 308.032 2454.41 316.051 2448.76C329.502 2439.33 343.364 2429.55 348.512 2413.5C354.457 2394.99 346.31 2376.69 338.441 2358.97C336.83 2355.46 335.311 2351.98 333.865 2348.52C315.397 2303.67 316.61 2248 337.478 2178.42C342.857 2160.57 349.169 2142.61 355.162 2125.17C368.107 2087.94 381.496 2049.43 387.178 2009.7C389.959 1990.19 390.892 1970.12 391.811 1950.72C393.223 1921.32 394.603 1890.91 402.613 1862.27C414.483 1819.67 440.323 1785.67 473.494 1768.93C516.309 1747.32 572.396 1760.59 594.668 1797.24L595.607 1798.78C598.203 1803.31 600.883 1808.63 603.611 1814.14C614.532 1835.98 626.911 1860.68 647.13 1865.83C657.2 1868.4 668.187 1865.61 679.787 1857.51C682.701 1855.48 685.542 1853.29 688.268 1851.16C694.821 1846.05 701.028 1841.24 708.336 1838.49C719.995 1834.02 732.64 1835.54 746.115 1837.06C749.789 1837.44 753.582 1837.92 757.212 1838.14C810.027 1842.35 828.703 1798.19 845.187 1759.23C847.614 1753.48 850.025 1747.78 852.507 1742.34C860.56 1724.63 874.381 1704.17 894.703 1679.82C916.246 1653.99 973.238 1594.69 1037.6 1601.11C1078.07 1605.22 1111.26 1634.06 1143.34 1661.95C1153.85 1671.07 1163.77 1679.7 1173.89 1687.43C1184.02 1695.16 1196.02 1704.31 1210.08 1707.35C1229.6 1711.56 1247.39 1704.32 1264.69 1697.28C1275.91 1692.73 1287.5 1688.01 1299.2 1686.74C1321.5 1684.31 1327.79 1697.19 1335.74 1713.49C1340.49 1723.24 1345.41 1733.27 1354.31 1741.17C1375.55 1759.94 1408.94 1751.97 1429.59 1734.93ZM1358.27 1736.52C1350.27 1729.42 1345.59 1719.96 1341.15 1710.72C1333.25 1694.5 1325.03 1677.67 1298.48 1680.61C1285.97 1681.97 1273.95 1686.85 1262.37 1691.57C1245.2 1698.53 1228.98 1705.13 1211.31 1701.33C1198.59 1698.62 1187.4 1690.03 1177.53 1682.51C1167.66 1674.99 1157.73 1666.33 1147.28 1657.26C1114.49 1628.78 1080.56 1599.27 1038.22 1595.07C973.376 1588.6 917.556 1642.96 890.05 1675.94C869.116 1701.13 855.456 1721.47 847.013 1739.91C844.524 1745.39 842.085 1751.12 839.618 1756.98C823.198 1795.87 806.193 1836.04 757.729 1832.17C754.055 1831.79 750.42 1831.39 746.765 1831C733.229 1829.47 719.214 1827.84 706.116 1832.82C697.946 1835.91 691.08 1841.23 684.451 1846.38C681.725 1848.51 679.025 1850.59 676.213 1852.54C665.997 1859.68 656.938 1862.08 648.516 1859.95C631.016 1855.5 618.787 1831.04 608.98 1811.43C606.153 1805.79 603.46 1800.46 600.833 1795.79C577.644 1755.45 516.881 1740.18 470.644 1763.51C435.986 1781.03 409.022 1816.44 396.733 1860.62C388.585 1889.9 387.153 1920.65 385.732 1950.43C384.809 1969.65 383.863 1989.56 381.13 2008.81C375.62 2047.96 362.337 2086.18 349.509 2123.12C343.436 2140.56 337.163 2158.63 331.754 2176.61C310.366 2247.64 309.241 2304.62 328.29 2350.82C329.741 2354.32 331.294 2357.86 332.891 2361.43C340.39 2378.07 347.98 2395.32 342.772 2411.61C338.293 2425.71 325.799 2434.48 312.691 2443.7C304.367 2449.54 295.762 2455.61 289.052 2463.29C269.622 2485.25 268.997 2515.22 268.42 2544.2C268.053 2565.06 267.553 2586.74 260.144 2605.47C254.956 2618.22 246.641 2629.47 235.964 2638.16C225.287 2646.86 212.592 2652.73 199.05 2655.23C173.359 2659.67 159.63 2650.48 142.197 2638.97C136.673 2635.33 130.957 2631.55 124.492 2627.91C98.6898 2613.59 61.2079 2626.84 34.8547 2643.98C4.13074 2663.93 -18.6252 2692.87 -40.6178 2720.88C-69.5062 2757.59 -102.241 2799.22 -117.683 2847.15C-131.212 2889.3 -132.376 2948.83 -94.6769 2989.17C-75.1311 3010.38 -48.2112 3022.26 -22.2235 3033.63C-1.40812 3042.72 20.125 3052.26 37.668 3066.31C82.9206 3102.64 95.235 3159.61 108.288 3219.94C116.319 3256.95 124.584 3295.19 141.151 3328.55C164.986 3376.35 213.707 3414.57 268.614 3428.22C315.972 3440.02 361.396 3432.66 396.538 3407.44C407.191 3399.46 417.38 3390.88 427.058 3381.74C451.789 3359.27 475.102 3338.03 505.539 3339.68C543.946 3341.73 563.367 3376.69 583.952 3413.74C598.056 3439.09 612.6 3465.17 634.1 3482.42C658.743 3502.1 694.933 3505.66 728.487 3491.73C762.041 3477.81 785.092 3449.66 788.535 3418.31C790.862 3397.67 786.804 3375.57 782.908 3354.22C776.371 3318.48 770.224 3284.66 793.663 3261.57C813.851 3241.76 843.68 3243.3 875.276 3244.92C906.23 3246.52 938.259 3248.16 960.727 3227.85C976.027 3214.04 981.953 3194.08 987.648 3174.59C990.349 3164.44 993.795 3154.49 997.958 3144.84C1016.36 3105.13 1058.33 3082.05 1100.88 3062.87L1107.46 3059.92C1147.72 3041.95 1189.35 3023.38 1214.74 2987.38C1243.72 2946.28 1236.12 2899.99 1191.32 2845.8C1153.76 2800.2 1136.4 2755.45 1139.67 2712.91C1140.3 2704.73 1141.8 2696.65 1144.18 2688.8C1148.13 2675.51 1154.2 2663.55 1162.65 2648.61C1169.23 2636.98 1172.63 2624.27 1175.92 2611.96C1178.28 2602.11 1181.41 2592.47 1185.3 2583.12C1195.68 2559.84 1211.8 2542.74 1230.66 2534.91C1241.36 2530.49 1253.51 2528.85 1265.23 2527.13C1282.16 2524.67 1299.74 2522.25 1313.72 2511.54C1334.22 2495.77 1338.48 2469.72 1342.55 2444.43C1345.65 2425.56 1348.84 2406.03 1358.73 2390.76C1369.95 2373.5 1387.95 2363.39 1407.03 2352.74C1418.51 2346.74 1429.49 2339.81 1439.85 2332.04C1459.55 2316.28 1473.14 2294.97 1486.32 2274.36C1497.1 2257.36 1510.64 2236.22 1510.18 2212.88C1509.87 2197.78 1503.76 2183.77 1497.9 2170.22C1491.85 2156.28 1486.14 2143.1 1486.15 2128.9C1486.13 2098.17 1512.54 2074.13 1541.1 2052.72L1631.26 1985.14C1649.72 1971.32 1668.85 1957.07 1682.76 1937.71C1692 1924.92 1695.69 1910.76 1699.28 1897.04C1701.49 1887.39 1704.61 1877.97 1708.59 1868.91L1710.88 1864.1C1723.19 1838.35 1734.81 1813.98 1738.61 1784.38C1743.31 1746.33 1735.04 1707.82 1715.14 1675.05C1696.14 1643.78 1667.47 1619.89 1633.63 1610.84C1578.6 1596.11 1514.45 1619.94 1473.96 1670.15C1468.46 1676.99 1463.41 1684.39 1458.39 1691.38C1448.62 1705.14 1438.62 1719.52 1425.57 1730.3C1406.65 1745.97 1376.27 1752.61 1358.2 1736.67" fill="white"/>
<path d="M108.695 1218.17C119.637 1220.75 130.015 1223.19 137.628 1230.18C142.711 1234.68 146.002 1240.87 146.898 1247.6C147.795 1254.34 146.237 1261.17 142.51 1266.85C137.019 1275.72 125.16 1283.94 109.885 1277.96C99.3243 1273.81 88.6511 1269.99 78.2686 1266.17C53.1581 1257.06 27.2005 1247.63 2.88875 1234.38C-13.4469 1225.49 -29.9207 1215.17 -40.2032 1199.37C-49.0972 1185.6 -53.266 1164.09 -41.4271 1148.97C-31.479 1136.27 -13.7355 1133.13 -0.414503 1134.48C10.027 1135.54 20.1061 1138.89 29.1044 1144.29C38.1027 1149.69 45.7986 1157.01 51.6438 1165.73C54.5457 1170.24 57.2023 1174.89 59.6019 1179.68C64.7641 1189.59 70.1505 1199.92 79.4914 1206.87C88.0335 1213.24 98.5387 1215.75 108.695 1218.17ZM64.9938 1176.88C62.4864 1171.89 59.7205 1167.04 56.7073 1162.34C50.3439 1152.89 41.9835 1144.96 32.2168 1139.1C22.4502 1133.24 11.5157 1129.6 0.185891 1128.42C-18.833 1126.54 -36.6035 1132.99 -46.1985 1145.24C-59.8826 1162.74 -55.3291 1187.32 -45.2137 1202.68C-34.2752 1219.52 -16.9793 1230.46 0.0467999 1239.71C24.746 1253.17 50.9371 1262.64 76.2472 1271.86C86.5759 1275.63 97.2531 1279.51 107.71 1283.61C125.281 1290.5 140.51 1281.76 147.768 1270.05C151.243 1264.66 153.154 1258.42 153.287 1252.01C153.42 1245.6 151.77 1239.28 148.521 1233.76C146.684 1230.75 144.412 1228.02 141.778 1225.67C132.978 1217.63 121.393 1214.89 110.126 1212.23C100.134 1209.88 90.671 1207.62 83.162 1202C74.9386 1195.86 70.1246 1186.65 65.0128 1176.87" fill="white"/>
<path d="M343.83 1425.78C331.917 1425.85 321.865 1432.32 312.163 1438.56C309.171 1440.38 306.18 1442.46 303.13 1444.05C290.992 1450.96 274.438 1452.87 267.607 1442.75C264.027 1437.33 264.224 1430.27 264.831 1423.93C266.094 1413.67 267.902 1403.49 270.245 1393.42C272.23 1384.15 274.26 1374.56 275.421 1364.88C277.45 1347.65 276.848 1323.3 262.618 1305.39C256.004 1297.04 247.254 1291.05 238.769 1285.25L235.213 1282.79C224.608 1275.43 216.599 1268.74 211.961 1259.61C207.525 1250.85 207.032 1238.23 214.678 1230.97C224.511 1221.6 241.34 1226.41 248.113 1228.92C250.833 1229.88 253.613 1231.06 256.369 1232.2C265.85 1236.12 275.656 1240.1 286.258 1239.56C306.507 1238.52 321.705 1220.2 326.141 1202.69C331.053 1183.42 326.417 1163.17 321.763 1147.65C320.55 1143.51 319.29 1139.29 317.882 1135.21C313.782 1122.41 309.496 1109.17 308.2 1095.79C306.213 1075.99 311.488 1058.69 322.654 1048.25C332.663 1038.96 347.88 1034.67 364.428 1036.57C379.848 1038.36 394.48 1044.92 408.039 1051.81C441.56 1068.75 473.011 1089.51 501.764 1113.67C528.423 1136.06 559.934 1166.44 567.554 1202.34C572.637 1226.54 571.435 1261.28 557.312 1284.24C548.801 1298.1 536.186 1309.29 524.013 1320.14C512.711 1330.14 500.998 1340.49 492.227 1353.16C485.004 1363.47 479.268 1377.13 473.174 1391.54C464.117 1413.09 454.706 1435.43 439.952 1447.01C427.356 1456.86 412.024 1457.56 393.063 1449.12C387.381 1446.4 381.94 1443.19 376.8 1439.54C366.66 1432.6 356.256 1425.75 343.83 1425.78ZM373.385 1444.36C378.812 1448.21 384.558 1451.58 390.562 1454.45C411.765 1463.88 429.119 1462.94 443.611 1451.57C459.626 1439.02 469.351 1415.99 478.735 1393.69C484.717 1379.61 490.286 1366.24 497.13 1356.41C505.472 1344.38 516.926 1334.28 528.004 1324.6C540.566 1313.49 553.463 1302.08 562.527 1287.41C578.599 1261.39 578.493 1224.63 573.575 1201.08C570.918 1189.25 566.283 1177.95 559.865 1167.66C545.862 1144.62 524.584 1124.85 505.742 1109.01C476.618 1084.56 444.775 1063.54 410.842 1046.38C396.803 1039.25 381.559 1032.55 365.247 1030.61C346.931 1028.52 329.889 1033.37 318.533 1043.92C305.963 1055.66 300.003 1074.83 302.165 1096.51C303.576 1110.55 307.887 1124.09 312.103 1137.21C313.412 1141.29 314.713 1145.41 315.964 1149.53C320.366 1164.29 324.835 1183.49 320.286 1201.34C316.415 1216.74 303.365 1232.71 285.987 1233.61C276.696 1234.04 267.979 1230.52 258.717 1226.7C255.899 1225.54 253.093 1224.4 250.276 1223.38C233.712 1217.29 219.231 1218.5 210.519 1226.66C200.709 1235.94 201.101 1251.7 206.55 1262.43C212 1273.15 221.932 1281.08 231.804 1287.92L235.336 1290.34C243.418 1295.86 251.831 1301.63 257.883 1309.23C270.83 1325.55 271.311 1348.2 269.398 1364.29C268.281 1373.66 266.293 1383.14 264.325 1392.27C261.968 1402.59 260.152 1413.03 258.885 1423.55C258.166 1430.95 258.05 1439.35 262.671 1446.35C271.605 1459.63 291.369 1458.06 306.248 1449.56C309.404 1447.8 312.517 1445.75 315.566 1443.9C324.944 1437.86 333.838 1432.14 343.95 1432.08C354.594 1432.03 363.712 1438.1 373.394 1444.59" fill="white"/>
<path d="M394.995 1361.96C389.376 1359.96 384.656 1356.02 381.688 1350.84C376.793 1342.03 374.898 1331.86 376.291 1321.87C377.759 1312.66 380.132 1303.62 383.377 1294.88C386.061 1287.32 388.24 1279.59 389.9 1271.74C394.063 1248.95 389.445 1225.43 376.973 1205.9C374.529 1201.88 371.555 1198.1 368.746 1194.38C361.893 1185.21 355.258 1176.48 353.569 1166.1C352.795 1159.66 352.95 1153.13 354.029 1146.72C354.483 1142.53 355.033 1138.28 355.035 1133.95C354.843 1126.14 353.892 1118.36 352.195 1110.73C351.283 1105.75 350.317 1100.6 349.836 1095.51C349.17 1088.66 348.868 1071.81 360.093 1063.18C371.319 1054.56 388.869 1059 400.195 1068.06C407.591 1074.01 413.378 1081.42 419.526 1089.22C423.252 1093.98 427.112 1098.91 431.318 1103.43C439.123 1111.36 447.536 1118.67 456.482 1125.3C461.376 1129.05 466.374 1132.98 471.025 1137.07C486.699 1150.67 495.541 1163.93 498.116 1177.65C499.706 1186.24 498.857 1194.98 497.988 1204.19C497.118 1211.21 496.803 1218.29 497.045 1225.36C497.532 1231.2 498.393 1237 499.623 1242.74C500.765 1247.97 501.575 1253.28 502.046 1258.62C503.278 1273.53 499.777 1279.36 488.28 1282.64C481.122 1284.46 474.403 1287.7 468.525 1292.17C462.646 1296.64 457.728 1302.24 454.065 1308.66C450.946 1313.66 448.191 1318.96 445.532 1324.07C441.635 1332.36 436.885 1340.21 431.358 1347.51C422.835 1357.96 408.239 1366.49 394.995 1361.96ZM450.952 1326.94C453.578 1321.9 456.241 1316.7 459.246 1311.9C462.55 1306.15 466.977 1301.11 472.263 1297.1C477.549 1293.09 483.588 1290.18 490.02 1288.55C506.515 1283.75 509.21 1272.9 508.094 1258.18C507.545 1252.57 506.683 1246.99 505.513 1241.48C504.315 1236.03 503.484 1230.5 503.025 1224.93C502.796 1218.18 503.1 1211.41 503.934 1204.7C504.853 1195.48 505.763 1185.9 503.984 1176.49C502.617 1169.42 499.962 1162.67 496.153 1156.56C490.358 1147.47 483.205 1139.32 474.942 1132.4C470.103 1128.21 465.024 1124.28 460.092 1120.41C451.438 1113.98 443.285 1106.89 435.704 1099.22C431.633 1094.89 427.861 1090.05 424.189 1085.34C418.279 1077.2 411.457 1069.77 403.854 1063.18C390.679 1052.58 370.063 1047.47 356.21 1058.21C346.649 1065.66 342.061 1079.41 343.67 1095.97C344.175 1101.35 345.173 1106.65 346.139 1111.8C347.762 1119.03 348.666 1126.4 348.838 1133.8C348.777 1137.78 348.311 1141.95 347.84 1145.94C346.711 1152.92 346.591 1160.03 347.482 1167.04C349.462 1178.88 356.78 1188.61 363.798 1197.96C366.496 1201.54 369.351 1205.34 371.732 1209.09C383.326 1227.32 387.592 1249.26 383.674 1270.51C382.071 1278.1 379.96 1285.57 377.357 1292.88C374.031 1301.98 371.597 1311.37 370.09 1320.94C367.766 1339.45 374.856 1361.42 392.847 1367.57C408.881 1373.04 426.028 1363.3 435.952 1351.16C441.741 1343.57 446.717 1335.4 450.798 1326.77" fill="white"/>
<path d="M1477.66 1149.13C1486.63 1159.6 1489.72 1174.05 1492.76 1187.94L1493.72 1192.26C1497.31 1208.09 1502.84 1225.61 1516.88 1235.6C1524.34 1240.88 1533.11 1243.2 1541.58 1245.46C1550.05 1247.72 1557.6 1249.71 1564.12 1254.2C1571.6 1259.39 1575.88 1265.66 1576.78 1272.76C1578.37 1285.13 1570.06 1297.73 1562.89 1306.2C1554.46 1316.08 1549.35 1328.06 1544.37 1339.62C1538.03 1354.27 1532.12 1368.15 1519.95 1378.18C1503.13 1392.08 1476.12 1393.83 1454.16 1382.36C1440.28 1375.14 1428 1363 1418.48 1347.34C1414.92 1341.47 1411.84 1335.32 1409.26 1328.96C1400.02 1306.42 1396.37 1281.99 1392.67 1258.38C1390.55 1244.66 1388.45 1230.52 1389.84 1216.62C1391.36 1201.48 1397.21 1188.65 1406.45 1180.79C1409.15 1178.56 1411.98 1176.5 1414.94 1174.62C1420.28 1171.46 1425.05 1167.41 1429.04 1162.66C1431.06 1159.76 1432.81 1156.69 1434.27 1153.48C1435.75 1149.97 1437.75 1146.7 1440.19 1143.77C1442.07 1141.81 1444.35 1140.27 1446.88 1139.27C1449.41 1138.27 1452.13 1137.82 1454.85 1137.97C1459.21 1138.19 1463.48 1139.29 1467.4 1141.21C1471.32 1143.13 1474.81 1145.82 1477.66 1149.13ZM1454.96 1131.97C1451.39 1131.79 1447.82 1132.37 1444.5 1133.68C1441.17 1134.99 1438.16 1137 1435.68 1139.57C1432.83 1142.94 1430.51 1146.71 1428.78 1150.76C1427.46 1153.59 1425.88 1156.3 1424.06 1158.84C1420.49 1163.05 1416.24 1166.61 1411.47 1169.39C1408.32 1171.39 1405.3 1173.6 1402.43 1175.98C1392.04 1184.91 1385.42 1199.13 1383.75 1215.83C1382.25 1230.55 1384.49 1245.08 1386.6 1259.17C1390.28 1283.16 1394.08 1307.94 1403.57 1331.14C1414.13 1357.11 1431.15 1377.16 1451.3 1387.65C1475.35 1400.17 1505.14 1398.17 1523.77 1382.75C1537.05 1371.8 1543.58 1356.56 1549.88 1341.82C1554.89 1330.14 1559.58 1319.13 1567.41 1309.98C1575.24 1300.84 1584.64 1286.46 1582.73 1271.78C1582.21 1267.78 1580.85 1263.94 1578.75 1260.5C1575.84 1255.94 1572.02 1252.05 1567.51 1249.06C1560.13 1243.95 1551.47 1241.64 1543.1 1239.42C1534.73 1237.2 1526.88 1235.11 1520.35 1230.49C1508.02 1221.76 1502.96 1205.54 1499.66 1190.87L1498.7 1186.55C1495.47 1171.92 1492.13 1156.8 1482.29 1145.12C1478.89 1141.15 1474.7 1137.93 1470 1135.65C1465.29 1133.38 1460.17 1132.1 1454.95 1131.9" fill="white"/>
<path d="M1584.87 1232.8C1595.74 1242.39 1609 1248.48 1621.85 1254.35C1626.21 1256.37 1630.55 1258.35 1634.8 1260.46C1655.71 1270.9 1668.1 1282.87 1672.67 1297C1675.41 1305.54 1675.19 1314.59 1674.98 1324.17C1674.75 1334.22 1674.54 1344.61 1677.96 1354.4C1679.19 1357.82 1680.76 1361.11 1682.67 1364.2C1686.24 1369.75 1690.23 1375.02 1694.6 1379.97C1699.84 1385.73 1704.4 1392.08 1708.19 1398.9C1712.04 1406.84 1713.66 1415.68 1712.89 1424.47C1712.12 1433.26 1708.98 1441.68 1703.8 1448.83C1683.22 1476.58 1643.3 1468.09 1611.22 1461.25C1607.02 1460.39 1602.94 1459.52 1599.1 1458.78C1556.9 1450.61 1515.53 1438.6 1475.52 1422.9C1439.29 1408.64 1388.92 1384.41 1368.9 1339.19C1360.67 1320.55 1359.89 1302.31 1359.07 1283L1358.75 1278.18C1357.57 1259.87 1355.46 1241.62 1352.43 1223.52C1351.1 1214.67 1349.73 1205.54 1348.6 1196.64C1345.72 1173.27 1342.42 1146.8 1350.59 1123.15C1362.59 1088.48 1396.76 1066.01 1431.96 1046.89C1446.17 1039.14 1460.16 1032.18 1474.78 1031.99C1501.76 1031.64 1523.81 1054.64 1533.76 1077.51C1541.9 1096.44 1544.81 1117.53 1547.56 1137.96C1548.48 1144.45 1549.37 1150.93 1550.4 1157.35C1554.08 1179.93 1561.66 1212.33 1584.87 1232.8ZM1553.64 1137.14C1550.78 1116.33 1547.82 1094.8 1539.4 1075.07C1528.69 1050.27 1504.62 1025.44 1474.81 1025.81C1458.82 1026.03 1444.1 1033.33 1429.2 1041.45C1392.95 1061.15 1357.67 1084.43 1344.98 1121.08C1336.35 1146.05 1339.72 1173.28 1342.72 1197.32C1343.83 1206.27 1345.18 1215.45 1346.55 1224.35C1349.51 1242.23 1351.56 1260.25 1352.69 1278.34L1353 1283.14C1353.85 1303.06 1354.68 1321.81 1363.38 1341.53C1384.3 1388.83 1436.02 1413.82 1473.32 1428.39C1513.68 1444.24 1555.4 1456.37 1597.96 1464.64C1601.78 1465.37 1605.79 1466.22 1609.93 1467.15C1643.69 1474.45 1685.67 1483.41 1708.64 1452.49C1714.47 1444.43 1718 1434.94 1718.87 1425.03C1719.74 1415.12 1717.91 1405.16 1713.57 1396.2C1709.58 1388.95 1704.76 1382.2 1699.2 1376.07C1692.78 1368.44 1686.75 1361.22 1683.67 1352.42C1680.59 1343.62 1680.79 1334.29 1681.01 1324.37C1681.22 1314.46 1681.46 1304.68 1678.42 1295.17C1677.25 1291.51 1675.64 1288 1673.64 1284.72C1666.78 1273.44 1654.86 1263.67 1637.52 1255C1633.2 1252.85 1628.83 1250.84 1624.43 1248.81C1611.98 1243.09 1599.13 1237.23 1588.93 1228.22C1567.16 1209.06 1559.94 1177.99 1556.43 1156.37C1555.39 1149.98 1554.51 1143.55 1553.68 1137.16" fill="white"/>
<path d="M1547.95 1223.53C1561.1 1241.47 1579.49 1253.95 1597.35 1266.16C1612.18 1276.27 1627.5 1286.69 1639.19 1299.97C1653.41 1316.14 1659.87 1335.83 1656.44 1352.69C1655.37 1357.39 1653.95 1362 1652.19 1366.49C1649.39 1374.25 1646.49 1382.3 1646.79 1391.04C1647.02 1394.49 1647.49 1397.92 1648.2 1401.31C1649.25 1406.77 1650.21 1411.93 1648.68 1416.44C1644.57 1428.4 1626.32 1428.98 1615.82 1428.24C1591.6 1426.54 1567.52 1423.3 1543.72 1418.54C1535.46 1416.9 1527.24 1415.9 1519.31 1414.92C1507.1 1413.79 1495.01 1411.59 1483.19 1408.35C1459.91 1401.39 1427.44 1387.04 1405.09 1358.37C1377.67 1323.18 1372.02 1274.21 1367.54 1234.77C1365.53 1217.72 1363.33 1198.52 1368.52 1181.33C1372.57 1167.77 1381.03 1155.8 1389.19 1144.18C1401.47 1126.78 1416.72 1105.16 1438.82 1096.69C1464.89 1086.69 1498.48 1099.03 1513.78 1124.2L1513.88 1124.35C1522.12 1137.92 1525.49 1154.37 1528.75 1170.3C1532.53 1188.8 1536.49 1207.89 1547.95 1223.53ZM1520.65 1120.08C1503.14 1091.27 1465.91 1077.67 1435.87 1089.22C1411.46 1098.57 1395.37 1121.35 1382.5 1139.63C1373.94 1151.78 1365.11 1164.3 1360.6 1179.04C1354.97 1197.86 1357.4 1218.07 1359.39 1235.78C1364.01 1276.19 1369.93 1326.46 1398.72 1363.36C1422.38 1393.69 1456.47 1408.78 1480.91 1416.1C1493.19 1419.46 1505.75 1421.74 1518.43 1422.92C1526.23 1423.86 1534.31 1424.88 1542.27 1426.46C1566.38 1431.27 1590.77 1434.56 1615.29 1436.31C1637.46 1437.87 1652.06 1431.71 1656.46 1419.12C1658.68 1412.55 1657.47 1406.08 1656.26 1399.85C1655.63 1396.86 1655.21 1393.84 1655.01 1390.79C1654.75 1383.62 1657.28 1376.66 1659.92 1369.28C1661.82 1364.43 1663.34 1359.43 1664.49 1354.35C1667.56 1339.3 1663.88 1322.43 1654.63 1307.21C1651.91 1302.74 1648.81 1298.51 1645.36 1294.57C1632.98 1280.52 1617.24 1269.78 1601.96 1259.41C1584.7 1247.67 1566.87 1235.54 1554.55 1218.71C1544.1 1204.44 1540.51 1187.03 1536.67 1168.59C1533.22 1152.05 1529.67 1134.93 1520.74 1120.15L1520.64 1119.98" fill="white"/>
<path d="M-529.918 1596.9C-518.432 1583.08 -506.53 1568.83 -494.507 1555.81C-454.158 1512.1 -390.61 1483.68 -333.252 1534.99C-320.316 1546.57 -312.53 1560.5 -304.082 1575.17C-298.653 1585.2 -292.52 1594.83 -285.729 1604C-262.65 1633.81 -227.012 1645.35 -192.596 1656.5L-190.726 1657.09C-158.533 1667.51 -131.047 1680.06 -109.069 1694.36C-87.0923 1708.67 -72.9019 1732.4 -59.4404 1755.07C-55.6414 1761.32 -51.8791 1767.85 -47.9276 1774.01C-38.2146 1789.22 -2.86857 1838.14 43.1384 1828.27C66.3519 1823.26 82.1468 1805.03 97.4253 1787.44C107.768 1775.52 118.475 1763.17 131.379 1754.99C146.1 1745.67 163.854 1741.69 181.001 1737.87C198.148 1734.06 216.559 1729.91 232.043 1720.27C248.72 1709.92 260.589 1694.67 272.059 1679.92C278.951 1670.65 286.47 1661.86 294.562 1653.62C333.21 1616.09 385.47 1613.45 435.962 1610.87L445.234 1610.45C505.591 1607.22 576.031 1600.32 640.89 1573.71C753.929 1527.32 843.773 1420.66 859.391 1314.32L859.333 1314.23C877.239 1191.73 855.447 1064.89 797.95 957.063C796.648 954.619 795.291 952.129 793.846 949.537C783.222 930.211 770.074 906.129 775.874 885.616C779.868 871.836 790.802 862.947 802.421 853.51C810.629 846.878 819.138 840.01 824.855 831.212C827.979 825.977 830.503 820.408 832.379 814.608C834.928 807.553 837.38 800.896 841.986 795.721C848.667 788.294 858.141 784.389 870.122 784.049C899.326 783.367 936.162 804.429 951.541 819.9C965.481 833.949 976.332 851.545 986.79 868.493C1003.78 896.11 1021.35 924.629 1053.02 939.594C1057.78 941.792 1062.66 943.73 1067.64 945.401C1073.17 947.267 1078.59 949.476 1083.85 952.017C1094.67 957.627 1101.66 965.695 1103.04 974.277C1104.77 984.862 1097.99 995.039 1093.81 1000.22C1090.82 1003.89 1087.45 1007.29 1084.18 1010.61C1080.15 1014.53 1076.36 1018.69 1072.83 1023.07C1057.14 1043.51 1052.86 1066.99 1048.74 1089.71C1043.77 1117.03 1039.06 1142.83 1015.87 1163.53C1008.51 1170.06 1000.44 1176.14 992.64 1182.03C979.989 1191.57 966.927 1201.47 956.268 1213.69C926.35 1248.11 917.603 1301.86 933.974 1350.65C939.518 1367.32 946.906 1383.32 956 1398.35C1019.12 1501.95 1152.53 1530.64 1289.96 1545.08C1299.81 1546.13 1310.6 1546.75 1322 1547.44C1358.73 1549.6 1400.32 1552.04 1427.65 1569.35C1442.82 1578.89 1452.71 1594.23 1453.52 1609.26C1454.4 1625.77 1441.59 1637.24 1433.89 1642.62C1415.73 1655.25 1390.35 1659.72 1374.72 1653.03C1367.91 1649.67 1361.61 1645.37 1356.01 1640.24C1349.22 1634.6 1342.21 1628.82 1333.62 1625.72C1313.83 1618.59 1294.53 1627.74 1275.83 1636.6C1262.21 1643.1 1248.13 1649.77 1233.91 1650.2C1208.28 1650.98 1188.72 1633.04 1167.93 1614.07C1160.52 1607.43 1153.07 1600.61 1145.31 1594.76C1097.68 1558.47 1026.83 1553.53 964.877 1582.39C914.278 1605.97 868.756 1651.25 833.257 1713.33C832.125 1715.24 831.1 1717.25 829.97 1719.08C823.23 1731.01 816.306 1743.36 806.754 1753.1C794.532 1765.54 779.238 1771.55 765.815 1769.22C761.387 1768.28 757.049 1766.96 752.851 1765.27C744.802 1762.34 736.481 1759.25 727.666 1761.32C719.844 1763.18 714.103 1768.55 708.568 1773.74C705.095 1777.34 701.165 1780.47 696.88 1783.06C681.327 1791.39 661.803 1782.07 650.229 1769.89C643.641 1762.52 637.738 1754.56 632.592 1746.11C627.977 1738.68 622.869 1731.57 617.303 1724.82C576.419 1677.3 500.818 1681.08 454.187 1711.74C404.673 1744.45 374.559 1793.7 369.471 1850.55C368.264 1863.68 367.111 1876.72 366.136 1889.5C359.365 1971.15 352.996 2048.22 323.091 2128.09C318.394 2140.75 312.558 2153.69 306.877 2166.2C288.669 2206.58 269.871 2248.3 280.297 2293.92C281.948 2301.19 284.072 2308.72 286.232 2315.96C293.489 2341.17 301.038 2367.25 290.809 2391.68C285.655 2404.02 276.619 2413.85 267.091 2424.36C258.904 2433.3 250.431 2442.55 244.631 2453.49C235.762 2470.28 233.931 2489.43 232.186 2508.02C231.716 2512.75 231.284 2517.45 230.698 2522.11C225.528 2565.13 202.433 2586.94 160.201 2588.86C143.213 2589.63 127.129 2585.24 110.083 2580.59C93.8874 2576.19 77.1405 2571.65 59.7028 2572.07C21.6876 2572.94 -7.67587 2599.42 -35.9927 2625.01C-61.9659 2648.44 -88.7488 2672.73 -121.991 2676.99C-175.392 2683.97 -219.955 2637.1 -238.761 2590.57C-250.045 2562.77 -255.744 2532.57 -261.249 2503.38C-265.623 2480.72 -269.986 2457.35 -276.925 2435.03C-310.022 2329.05 -405.731 2245.13 -515.172 2226.33C-539.29 2222.2 -564.099 2220.97 -588.094 2219.79C-616.227 2218.41 -645.318 2216.96 -673.096 2210.8C-722.255 2199.87 -775.22 2165.88 -782.779 2114.49C-787.335 2083.34 -775.214 2053.95 -762.273 2022.85C-750.242 1993.83 -737.787 1963.87 -740.57 1932.5C-743.591 1898.37 -778.64 1861.27 -810.528 1837.96C-819.83 1831.24 -829.694 1825.1 -839.247 1819.22C-848.8 1813.33 -859.005 1807.06 -868.23 1800.3C-889.846 1784.31 -903.339 1766.83 -908.355 1748.27C-913.582 1728.98 -908.26 1702.57 -888.025 1691.56C-867.094 1680.01 -841.998 1689.91 -817.73 1699.49C-814.242 1700.84 -810.792 1702.23 -807.381 1703.63C-748.625 1725.6 -681.093 1723.1 -635.382 1696.93C-593.093 1672.82 -560.922 1634.17 -529.918 1596.9ZM-805.183 1697.89C-808.583 1696.59 -812.029 1695.21 -815.476 1693.83C-839.859 1684.2 -867.511 1673.27 -891.062 1686.17C-911.151 1697.13 -921.131 1724.46 -914.221 1749.83C-908.876 1769.7 -894.673 1788.26 -871.92 1805.18C-862.456 1812.16 -852.305 1818.39 -842.499 1824.43C-833.011 1830.25 -823.251 1836.22 -814.153 1842.9C-783.351 1865.41 -749.462 1900.95 -746.583 1933.13C-744.004 1962.87 -756.16 1992.21 -767.908 2020.54C-780.52 2051.01 -793.628 2082.52 -788.801 2115.36C-780.26 2173.3 -721.863 2206.18 -674.405 2216.77C-646.124 2223.06 -616.755 2224.5 -588.361 2225.88C-564.566 2227.07 -539.928 2228.28 -516.204 2232.36C-408.958 2250.77 -315.155 2332.93 -282.797 2436.75C-275.979 2458.7 -271.579 2481.91 -267.355 2504.32C-261.729 2533.89 -255.987 2564.37 -244.505 2592.76C-224.807 2641.35 -177.891 2690.29 -121.273 2682.89C-86.2042 2678.33 -58.6291 2653.46 -31.9938 2629.44C-3.14406 2603.4 24.1037 2578.8 59.8553 2578.03C76.3753 2577.64 92.7238 2582.09 108.509 2586.38C125.249 2590.95 142.559 2595.64 160.591 2594.78C205.655 2592.76 231.31 2568.5 236.832 2522.71C237.414 2518 237.88 2513.23 238.327 2508.47C240.038 2490.54 241.818 2472 250.116 2456.29C255.561 2446.01 263.767 2437.06 271.7 2428.42C281.21 2418.05 291.013 2407.34 296.597 2394.03C307.592 2367.6 299.731 2340.54 292.181 2314.33C290.02 2306.83 287.971 2299.72 286.344 2292.62C276.401 2249.08 294.778 2208.21 312.533 2168.77C318.248 2156.19 324.125 2143.14 328.917 2130.29C359.046 2049.63 365.47 1972.14 372.278 1890.07C373.348 1877.24 374.418 1864.27 375.617 1851.17C380.547 1796.16 409.748 1748.46 457.593 1716.87C502.063 1687.55 574.001 1683.76 612.705 1728.76C618.114 1735.3 623.067 1742.21 627.532 1749.42C632.885 1758.18 639.02 1766.44 645.862 1774.09C658.96 1787.86 681.412 1798.23 699.736 1788.32C704.492 1785.49 708.86 1782.05 712.731 1778.1C717.931 1773.21 722.816 1768.63 729.069 1767.15C736.077 1765.5 743.198 1768.11 750.752 1770.88C755.281 1772.71 759.966 1774.13 764.751 1775.11C780.164 1777.8 797.467 1771.14 811.138 1757.35C821.264 1747.05 828.458 1734.33 835.323 1722.09C836.413 1720.15 837.442 1718.19 838.572 1716.36C873.456 1655.33 918.043 1610.96 967.494 1587.9C1027.42 1560.01 1095.85 1564.69 1141.58 1599.53C1149.06 1605.23 1156.46 1611.99 1163.57 1618.55C1184.37 1637.56 1205.96 1657.19 1233.95 1656.28C1249.45 1655.81 1264.12 1648.85 1278.33 1642.09C1296.69 1633.39 1314.02 1625.16 1331.43 1631.43C1339.02 1634.18 1345.31 1639.41 1352.04 1645C1358.1 1650.53 1364.92 1655.18 1372.3 1658.79C1389.93 1666.33 1417.31 1661.75 1437.34 1647.78C1452.42 1637.25 1460.27 1623.4 1459.57 1609.11C1458.67 1591.88 1447.95 1575.15 1430.86 1564.37C1402.28 1546.28 1359.82 1543.79 1322.36 1541.59C1311.05 1540.92 1300.34 1540.3 1290.61 1539.28C1136.21 1522.99 986.874 1488.7 939.953 1348.76C924.239 1302 932.479 1250.59 961.057 1217.75C971.282 1205.97 984.104 1196.33 996.481 1186.98C1004.38 1181 1012.58 1174.82 1020.12 1168.12C1044.87 1146.06 1049.99 1118 1054.94 1090.88C1058.92 1068.84 1063.06 1046.12 1077.86 1026.84C1081.25 1022.69 1084.88 1018.74 1088.73 1015.02C1092.13 1011.59 1095.6 1008.03 1098.77 1004.17C1104.77 996.871 1111.3 985.723 1109.3 973.419C1108.66 969.728 1107.32 966.193 1105.35 963.008C1100.78 955.985 1094.38 950.347 1086.83 946.706C1081.34 944.026 1075.68 941.702 1069.89 939.75C1065.21 938.056 1060.31 936.309 1055.78 934.182C1025.8 919.968 1009.46 893.469 992.164 865.357C981.51 848.085 970.508 830.241 956.057 815.694C940.536 800.075 902.485 777.271 870.176 778.04C856.474 778.382 845.524 782.95 837.63 791.688C832.237 797.758 829.454 805.243 826.814 812.536C825.09 817.907 822.775 823.069 819.91 827.928C814.704 835.893 806.957 842.168 798.692 848.835C786.887 858.437 774.685 868.332 770.185 883.985C763.543 907.019 777.416 932.252 788.57 952.535C789.996 955.139 791.402 957.624 792.628 959.985C849.522 1066.69 871.134 1192.21 853.45 1313.39C838.157 1417.73 749.885 1522.48 638.689 1568.03C574.673 1594.31 504.837 1601.13 445.027 1604.31L435.774 1604.72C384.138 1607.39 330.732 1610.08 290.426 1649.21C282.138 1657.68 274.452 1666.71 267.422 1676.24C255.651 1691.23 244.74 1705.35 229.054 1715.22C214.404 1724.31 196.856 1728.24 179.889 1732.05C162.192 1736 143.927 1740.08 128.314 1749.98C114.671 1758.67 103.66 1771.34 93.0243 1783.59C77.6852 1801.29 63.3076 1817.91 42.0342 1822.41C-0.0912594 1831.55 -33.3719 1785.33 -42.5794 1770.91C-46.4539 1764.84 -50.2237 1758.34 -53.9879 1752.14C-67.7744 1728.81 -82.0433 1704.74 -105.498 1689.5C-127.909 1674.91 -155.874 1662.13 -188.593 1651.54L-190.463 1650.95C-224.047 1640.05 -258.696 1628.85 -280.669 1600.56C-287.278 1591.61 -293.245 1582.21 -298.526 1572.42C-306.739 1557.92 -315.25 1542.97 -328.973 1530.7C-378.928 1486.03 -445.57 1494.33 -498.752 1551.91C-510.873 1565.08 -522.809 1579.4 -534.334 1593.24C-565.064 1630.19 -596.828 1668.31 -638.149 1691.91C-682.351 1717.21 -747.817 1719.63 -804.884 1698.12" fill="white"/>
<path d="M864.109 1411.48C868.342 1404.47 874.482 1398.8 881.812 1395.14C884.964 1393.58 888.457 1392.84 891.969 1392.99C895.482 1393.13 898.902 1394.16 901.915 1395.97C910.84 1405.76 917.038 1417.68 923.036 1429.22C926.129 1435.17 929.331 1441.34 932.899 1447.21C939.141 1457.48 949.493 1463.95 959.495 1470.19C970.711 1477.17 981.308 1483.83 985.871 1495.21C987.948 1500.07 988.903 1505.33 988.666 1510.61C988.429 1515.9 987.004 1521.06 984.499 1525.71C981.313 1531.82 976.858 1537.19 971.431 1541.44C966.004 1545.69 959.732 1548.74 953.033 1550.37C872.697 1562.97 829.788 1626.68 801.248 1680.8C792.955 1695.36 778.642 1713.25 765.587 1715.73C757.026 1717.35 747.853 1715.83 739.002 1714.32L736.066 1713.78C726.055 1712.04 714.577 1710.72 704.042 1714.98C700.347 1716.56 696.795 1718.46 693.423 1720.65C689.212 1723.7 684.442 1725.89 679.385 1727.09C667.165 1729.01 655.864 1718.45 648.582 1710.25C643.293 1704.38 634.028 1698.71 624.215 1692.7C611.377 1684.84 597.122 1676.07 591.169 1666.28C589.623 1663.86 588.659 1661.11 588.354 1658.25C587.672 1649.87 591.476 1634.15 595.959 1626.88C605.851 1616.45 618.352 1608.85 632.167 1604.88C717.789 1597.75 782.084 1566.87 818.144 1515.33C820.517 1511.59 823.796 1507.2 826.977 1502.94C830.158 1498.69 833.623 1494.13 836.087 1490.15C844.323 1477.08 848.205 1462.3 852.419 1446.69C855.298 1434.64 859.209 1422.86 864.109 1411.48ZM822.042 1499.42C818.77 1503.78 815.4 1508.28 813.012 1512.08C768.791 1575.05 689.791 1594.02 631.28 1598.87L630.844 1598.92C617.674 1601.94 599.837 1612.78 591.073 1623.09L590.822 1623.45C585.675 1631.65 581.407 1649.14 582.204 1658.78C583.55 1674.95 603.412 1687.15 620.94 1697.87C630.385 1703.66 639.281 1709.11 643.985 1714.32C652.226 1723.58 665.064 1735.43 680.241 1733.1C686.103 1731.8 691.639 1729.32 696.512 1725.82C699.575 1723.81 702.802 1722.07 706.158 1720.61C715.309 1717.03 725.853 1718.32 735.026 1719.84L737.951 1720.36C747.318 1721.95 757.042 1723.61 766.696 1721.76C786.127 1718.09 803.252 1689.55 806.546 1683.76C834.406 1630.84 876.275 1568.6 954.142 1556.4C961.74 1554.57 968.86 1551.14 975.023 1546.34C981.187 1541.54 986.251 1535.47 989.877 1528.55C992.775 1523.11 994.418 1517.08 994.688 1510.92C994.958 1504.76 993.848 1498.62 991.438 1492.94C990.706 1491.05 989.802 1489.24 988.737 1487.51C982.691 1477.57 972.562 1471.25 962.675 1465.07C952.788 1458.89 943.58 1453.19 938.044 1444.08C934.569 1438.36 931.476 1432.41 928.382 1426.46C922.145 1414.44 915.706 1402.04 906.085 1391.58L905.474 1391.09C901.604 1388.62 897.161 1387.18 892.573 1386.92C887.986 1386.66 883.409 1387.58 879.283 1389.6C870.717 1393.8 863.568 1400.41 858.719 1408.63C853.59 1420.39 849.508 1432.58 846.52 1445.06C842.449 1460.22 838.618 1474.52 830.81 1486.97C828.475 1490.68 825.165 1495.07 821.984 1499.32" fill="white"/>
<path d="M900.006 1491.28C910.264 1486.69 918.788 1485.09 926.128 1486.6C933.468 1488.12 941.559 1494.47 941.872 1502.5C942.459 1517.47 924.28 1522.72 900.426 1528.09C890.678 1530.25 881.434 1532.35 875.399 1535.73C844.411 1553.08 819.656 1579.73 804.631 1611.91C802.59 1616.28 800.715 1620.84 798.904 1625.2C795.572 1634.04 791.454 1642.57 786.601 1650.68C782.551 1656.9 771.638 1671.36 755.209 1672.37C750.595 1672.49 745.982 1672.1 741.453 1671.21C737.356 1670.42 733.202 1669.96 729.031 1669.83C719.576 1669.73 710.754 1672.69 702.184 1675.55C696.277 1677.75 690.184 1679.41 683.981 1680.51C675.543 1681.7 665.536 1678.67 660.12 1673.2C659.245 1672.34 658.476 1671.38 657.832 1670.33C656.355 1668.02 655.75 1665.26 656.128 1662.55C657.269 1654.81 665.77 1649.9 673.159 1648.62C679.174 1647.82 685.263 1647.75 691.294 1648.4C694.443 1648.6 697.714 1648.83 700.969 1648.87C737.702 1649.19 773.4 1626.82 810.088 1580.35C814.057 1575.33 818.006 1570.32 821.907 1565.11C844.158 1536.11 867.252 1506.05 900.006 1491.28ZM803.738 1575.45C768.671 1619.72 735.063 1641.11 700.954 1640.81C697.94 1640.79 694.791 1640.59 691.773 1640.39C685.103 1639.66 678.369 1639.76 671.722 1640.68C661.215 1642.49 649.835 1649.62 648.097 1661.4C647.62 1664.61 647.928 1667.89 648.995 1670.95C650.062 1674.02 651.857 1676.78 654.225 1679C661.418 1686.24 674.061 1690.17 684.991 1688.61C691.696 1687.45 698.282 1685.68 704.669 1683.33C712.907 1680.57 720.736 1677.95 728.837 1678.01C732.679 1678.14 736.506 1678.56 740.287 1679.25C745.388 1680.28 750.593 1680.72 755.795 1680.55C769.918 1679.61 783.534 1670.37 793.437 1655.06C798.551 1646.55 802.892 1637.6 806.407 1628.31C808.191 1623.99 810.017 1619.57 811.978 1615.32C826.286 1584.7 849.852 1559.34 879.348 1542.83C884.358 1539.99 893.055 1538.07 902.211 1536C923.941 1531.1 950.909 1525.14 949.994 1502.21C949.808 1498.48 948.675 1494.86 946.702 1491.69C944.595 1488.34 941.825 1485.46 938.563 1483.23C935.301 1480.99 931.616 1479.44 927.735 1478.69C918.775 1476.82 908.543 1478.58 896.656 1483.93C862.067 1499.49 838.362 1530.39 815.443 1560.27C811.494 1565.28 807.645 1570.41 803.742 1575.36" fill="white"/>
<path d="M-631.38 1760.97C-597.191 1755.19 -565.195 1740.3 -538.765 1717.86C-526.869 1708.02 -515.652 1697.1 -504.762 1686.6C-491.621 1673.44 -477.765 1661.02 -463.256 1649.39C-425.923 1620.65 -371.45 1599.15 -330.311 1624.93C-311.235 1636.83 -299.735 1656.95 -288.625 1676.35C-285.032 1682.65 -281.301 1689.17 -277.384 1695.27C-258.109 1725.31 -234.613 1736.45 -203.013 1744.65C-153.194 1757.53 -124.434 1792.87 -93.9571 1830.35C-83.9438 1842.53 -73.5831 1855.28 -62.4542 1867.28C-40.0008 1891.35 -2.19823 1916.96 36.1154 1916.8C46.6438 1916.85 57.0598 1914.63 66.6602 1910.31C76.2606 1905.99 84.8218 1899.66 91.7658 1891.74C104.492 1877.9 113.165 1861.65 121.581 1845.91C137.285 1816.4 152.165 1788.54 191.678 1782.06C197.62 1781.06 203.65 1780.29 209.414 1779.56C233.277 1776.48 255.783 1773.58 276.598 1756.99C288.953 1747.26 299.231 1735.41 309.321 1724.06C318.323 1713.25 328.144 1703.15 338.697 1693.86C349.621 1684.61 378.338 1670.16 391.682 1676.14C396.36 1678.25 398.803 1682.88 399.025 1690.28C399.514 1704.91 385.946 1713.89 372.602 1720.75C359.602 1727.4 346.004 1735.03 335.29 1748.28C299.248 1792.76 307.264 1851.85 314.345 1903.99C315.374 1911.35 316.356 1918.63 317.147 1925.77C322.928 1973.93 313.438 2028.13 289.02 2086.84C280.659 2107.01 269.922 2126.14 259.532 2144.64C241.616 2176.56 223.098 2209.55 216.162 2248.76C214.89 2255.9 213.89 2263.53 213.078 2272.12C212.077 2283.01 211.501 2294.08 210.97 2304.84C210.389 2322.49 208.83 2340.1 206.302 2357.58C192.995 2438.73 120.214 2482.44 56.6631 2496.3C33.24 2501.43 12.015 2509.06 -10.4046 2517.13C-18.0841 2519.86 -25.7711 2522.63 -33.5847 2525.32C-65.4388 2536.2 -91.7429 2535.77 -113.927 2524.04C-132.547 2514.03 -148.023 2499.04 -158.634 2480.75C-174.421 2454.78 -182.981 2423.13 -191.33 2392.09C-193.694 2383.35 -195.929 2375.08 -198.316 2366.9C-214.636 2310.51 -246.951 2260.05 -291.35 2221.64C-335.157 2183.91 -389.603 2159.12 -444.486 2151.69C-468.094 2148.53 -492.599 2148.44 -516.311 2148.37C-554.597 2148.15 -594.07 2148.08 -630.364 2134.91C-678.481 2117.44 -724.724 2073.13 -712.551 2017.24C-709.832 2006.08 -706.263 1995.15 -701.876 1984.53C-696.468 1970.41 -690.841 1955.8 -689.124 1940.24C-686.538 1916.2 -696.037 1894.86 -705.23 1874.2C-706.679 1870.96 -708.132 1867.66 -709.524 1864.39C-718.865 1842.66 -726.405 1817.55 -711.563 1796.37C-694.578 1772.19 -663 1766.56 -635.121 1761.6L-631.38 1760.97ZM-636.183 1755.64C-665.221 1760.76 -698.152 1766.61 -716.525 1792.88C-733.115 1816.51 -725.121 1843.49 -715.148 1866.81L-710.789 1876.69C-701.917 1896.61 -692.739 1917.21 -695.186 1939.54C-696.815 1954.34 -702.177 1968.53 -707.502 1982.44C-711.984 1993.33 -715.64 2004.54 -718.441 2015.97C-731.385 2075.48 -682.936 2122.26 -632.37 2140.67C-595.095 2154.21 -555.085 2154.35 -516.326 2154.49C-492.793 2154.56 -468.499 2154.64 -445.262 2157.8C-391.554 2165.06 -338.3 2189.35 -295.285 2226.33C-251.761 2263.96 -220.093 2313.41 -204.123 2368.68C-201.79 2376.81 -199.456 2384.95 -197.18 2393.72C-183.42 2444.7 -167.858 2502.46 -116.765 2529.42C-93.0002 2541.99 -65.1929 2542.44 -31.6282 2531.07C-23.7649 2528.38 -16.0282 2525.61 -8.3719 2522.83C13.8414 2514.81 34.929 2507.22 58.005 2502.25C123.53 2487.94 198.475 2442.68 212.346 2358.55C214.92 2340.86 216.498 2323.04 217.072 2305.18C217.642 2294.52 218.249 2283.59 219.193 2272.73C220.025 2264.4 220.942 2256.84 222.188 2249.88C228.904 2211.63 247.168 2179.08 264.812 2147.61C275.3 2128.97 286.113 2109.67 294.655 2089.16C319.504 2029.48 329.092 1974.28 323.047 1925.01C322.227 1917.86 321.167 1910.49 320.246 1903.22C313.329 1852.34 305.466 1794.61 339.875 1752.17C349.875 1739.86 362.825 1732.61 375.234 1726.19C384.337 1721.55 405.639 1710.61 404.979 1690.16C404.989 1685.69 403.836 1681.29 401.633 1677.4C399.845 1674.42 397.184 1672.07 394.01 1670.65C376.882 1662.95 345.028 1680.62 334.644 1689.25C323.842 1698.74 313.797 1709.06 304.602 1720.11C294.722 1731.34 284.565 1742.96 272.731 1752.35C253.26 1767.76 231.583 1770.52 208.546 1773.53C202.695 1774.3 196.664 1775.07 190.592 1776.07C148.118 1783.04 132.565 1812.2 116.092 1843.06C107.9 1858.48 99.3964 1874.37 87.1835 1887.64C80.7944 1894.92 72.9171 1900.76 64.0831 1904.74C55.2491 1908.72 45.6639 1910.76 35.9738 1910.73C-0.458156 1910.89 -36.4691 1886.25 -58.1827 1863.15C-69.1917 1851.39 -79.483 1838.75 -89.42 1826.52C-120.491 1788.28 -149.885 1752.15 -201.624 1738.82C-231.806 1731.06 -254.186 1720.48 -272.403 1692.09C-276.274 1686.07 -279.978 1679.63 -283.505 1673.39C-294.998 1653.37 -306.849 1632.62 -327.311 1619.82C-371.056 1592.42 -428.229 1614.66 -467.13 1644.65C-481.839 1656.4 -495.878 1668.97 -509.181 1682.29C-519.988 1692.72 -531.167 1703.48 -542.853 1713.19C-568.476 1734.95 -599.498 1749.39 -632.646 1754.98L-636.351 1755.66" fill="white"/>
<path d="M-536.66 1821.54C-523.774 1815.56 -510.102 1812.81 -496.892 1810.15C-476.553 1806.09 -455.538 1801.85 -438.375 1785.39C-429.584 1775.04 -398.516 1740.97 -367.149 1738.61C-361.919 1738.14 -356.649 1738.76 -351.667 1740.42C-346.686 1742.08 -342.099 1744.75 -338.191 1748.25C-332.047 1753.97 -326.775 1760.56 -322.545 1767.81C-316.668 1776.93 -310.568 1786.32 -298.806 1793.99C-276.892 1808.21 -252.652 1818.48 -227.19 1824.32C-190.314 1832.91 -167.086 1855.33 -151.96 1896.92C-145.04 1915.99 -143.518 1934.17 -142.099 1951.57C-140.866 1997.48 -128.849 2105.71 -44.0363 2119.66L-43.2942 2119.68C19.3344 2114.52 52.1758 2062.08 83.777 2011.45C89.3711 2002.49 95.1625 1993.26 100.945 1984.52C120.795 1952.99 159.498 1925.08 201.358 1933.93C219.36 1937.79 231.637 1945.88 237.573 1958.01C245.447 1974.1 242.468 1998.22 229.066 2025.81C219.797 2044.91 205.907 2064.52 192.829 2076.88C189.306 2080.27 185.681 2083.62 182.112 2086.94C167.575 2100.42 152.555 2114.35 140.719 2130.73C116.77 2163.76 110.962 2212.39 105.352 2259.4C95.8303 2339.02 86.8611 2414.17 0.274775 2428.64C-10.4726 2430.36 -21.472 2429.57 -31.8638 2426.34C-42.2556 2423.1 -51.7581 2417.5 -59.6287 2409.99C-66.6618 2403.54 -72.063 2395.52 -75.3874 2386.58C-78.7118 2377.64 -79.8643 2368.03 -78.7498 2358.56C-72.7969 2272.22 -103.693 2199.53 -168.341 2148.16C-177.071 2142.93 -185.371 2137.01 -193.16 2130.47L-193.533 2130.2C-253.539 2094.07 -318.233 2077.02 -386.773 2058.97C-412.122 2052.3 -438.303 2045.37 -463.857 2037.55C-507.768 2019.87 -534.832 1995.48 -546.76 1962.67C-547.949 1958.83 -549.237 1954.86 -550.545 1950.78C-565.474 1904.19 -584.059 1846.17 -536.66 1821.54ZM-556.344 1952.66C-555.005 1956.75 -553.752 1960.66 -552.501 1964.65C-539.913 1999.27 -511.683 2024.94 -465.905 2043.28C-439.99 2051.23 -413.73 2058.15 -388.308 2064.86C-320.32 2082.78 -256.047 2099.69 -196.896 2135.27C-189.021 2141.86 -180.645 2147.84 -171.843 2153.13C-109.131 2202.99 -79.0718 2273.79 -84.7996 2358.01C-86.0173 2368.4 -84.751 2378.93 -81.1047 2388.74C-77.4585 2398.54 -71.5365 2407.35 -63.8258 2414.42C-55.2698 2422.58 -44.942 2428.66 -33.6493 2432.17C-22.3565 2435.68 -10.4046 2436.54 1.27283 2434.66C92.3487 2419.42 102.046 2338.55 111.387 2260.15C116.91 2213.89 122.643 2166.04 145.665 2134.14C157.128 2118.23 172.004 2104.49 186.229 2091.22C189.854 2087.87 193.461 2084.53 197.033 2081.13C210.602 2068.29 224.959 2048.03 234.523 2028.39C244.579 2007.67 254.229 1978.16 243.076 1955.34C242.5 1954.18 241.862 1953 241.19 1951.9C233.893 1939.89 220.932 1931.87 202.652 1928.03C157.966 1918.66 116.847 1948.08 95.9589 1981.34C90.1571 1990.09 84.3086 1999.36 78.707 2008.35C47.8977 2057.66 16.004 2108.62 -43.2704 2113.8C-123.357 2100.36 -134.756 1995.99 -135.961 1951.5C-137.455 1933.54 -138.973 1914.94 -146.207 1895.09C-162.107 1851.28 -186.649 1827.73 -225.757 1818.65C-250.527 1812.96 -274.108 1802.98 -295.433 1789.15C-306.086 1782.19 -311.569 1773.72 -317.372 1764.78C-321.899 1757.02 -327.549 1749.98 -334.139 1743.89C-338.65 1739.84 -343.946 1736.76 -349.698 1734.84C-355.45 1732.93 -361.534 1732.22 -367.572 1732.76C-401.252 1735.35 -433.78 1770.88 -442.742 1781.47C-458.395 1796.47 -477.649 1800.34 -498.007 1804.41C-511.58 1807.16 -525.631 1809.93 -539.206 1816.4C-591.337 1843.47 -571.024 1906.78 -556.228 1952.98" fill="white"/>
<path d="M-439.396 1835.15C-431.24 1830.8 -423.629 1826.75 -417.238 1822.71C-399.815 1811.7 -379.813 1801.63 -363.424 1810.43C-352.471 1816.3 -347.645 1828.32 -342.57 1841.05C-338.447 1851.23 -334.222 1861.79 -326.535 1869.67C-313.336 1883.23 -294.228 1885.34 -275.759 1887.35C-260.723 1888.99 -245.128 1890.73 -233.161 1898.7C-212.66 1912.33 -207.835 1938.99 -203.141 1964.79C-202.423 1968.64 -201.74 1972.42 -201.003 1976.12C-187.848 2041.19 -150.317 2098.76 -96.097 2137.05C-54.5913 2166.19 -8.59964 2170.41 30.146 2148.72C69.7343 2126.56 110.089 2070.33 122.914 2031.66C123.52 2029.91 124.117 2028.06 124.78 2026.14C132.534 2002.28 142.156 1972.55 170.241 1972.13C175.918 1972.15 181.474 1973.77 186.274 1976.8C191.074 1979.83 194.924 1984.15 197.386 1989.27C204.64 2005.11 196.645 2023.65 188.786 2036.56C174.961 2058.9 153.136 2072.58 132.011 2085.79C110.887 2098.99 89.5492 2112.4 76.123 2134.24C54.354 2169.94 42.0144 2210.58 40.263 2252.35C40.1373 2255.8 40.0769 2259.3 40.0431 2262.77C39.6765 2276.98 39.5606 2291.56 34.0078 2304.41C27.603 2319.42 10.1108 2331.77 -4.78788 2325.38C-20.9245 2318.54 -22.5454 2297.83 -24.0897 2277.82C-24.4456 2273.75 -24.7361 2269.76 -25.1592 2265.97C-30.4446 2218.97 -66.3155 2181.98 -102.589 2148.1C-140.39 2112.83 -183.192 2072.84 -234.271 2046.42C-267.39 2029.29 -303.726 2018.02 -338.833 2007.1C-383.491 1993.22 -429.713 1978.83 -468.598 1952.46C-483.99 1942.03 -493.716 1932.6 -499.752 1921.81C-506.114 1910.7 -507.828 1900.49 -504.986 1890.57C-498.157 1866.77 -465.553 1849.22 -439.396 1835.15ZM-505.062 1924.88C-498.398 1936.49 -488.206 1946.6 -472.091 1957.66C-432.273 1984.53 -385.707 1999.11 -340.642 2013.05C-305.797 2023.84 -269.762 2035.22 -237.12 2051.91C-186.781 2077.97 -144.294 2117.65 -106.739 2152.73C-69.7164 2187.2 -36.2655 2221.67 -31.1287 2266.75C-30.7213 2270.47 -30.4274 2274.39 -30.1179 2278.38C-28.4963 2299.21 -26.6181 2322.78 -7.09999 2331.06C11.0378 2338.75 32.091 2324.44 39.6091 2306.8C45.5726 2292.86 45.7768 2277.66 46.026 2263C46.0714 2259.55 46.1284 2256.12 46.2467 2252.71C47.9594 2211.97 59.9853 2172.34 81.1978 2137.52C93.7966 2116.82 113.904 2104.39 135.139 2091.06C156.843 2077.48 179.278 2063.43 193.853 2039.88C202.547 2025.8 211.157 2005.14 202.78 1986.85C202.256 1985.7 201.662 1984.58 201.002 1983.5C197.74 1978.21 193.184 1973.85 187.767 1970.82C182.349 1967.79 176.247 1966.19 170.039 1966.17C137.643 1966.63 126.822 2000.01 118.918 2024.36L117.148 2029.82C104.908 2066.61 64.9525 2122.34 27.076 2143.54C-9.52706 2164.03 -53.189 2159.91 -92.6864 2132.19C-145.613 2094.77 -182.247 2038.55 -195.101 1975.02C-195.837 1971.31 -196.528 1967.56 -197.211 1963.77C-202.173 1936.67 -207.231 1908.64 -229.855 1893.66C-243.042 1884.84 -259.41 1883.07 -275.162 1881.37C-293.359 1879.38 -310.6 1877.47 -322.249 1865.47C-329.135 1858.43 -333.054 1848.55 -336.968 1838.85C-342.252 1825.64 -347.742 1812.02 -360.674 1805.08C-379.955 1794.83 -402.767 1806.37 -420.572 1817.61C-426.677 1821.47 -434.288 1825.53 -442.333 1829.89C-469.515 1844.51 -503.309 1862.67 -510.896 1889.05C-514.196 1900.45 -512.253 1912.58 -505.115 1924.97" fill="white"/>
</g>
</g>
<path d="M-75.6435 1094.79C-115.116 1186.27 -136.057 1285.48 -133.737 1385.35C-131.874 1462.74 -116.855 1541.29 -78.1777 1608.36C-39.5004 1675.44 24.9746 1729.91 100.887 1745.15C247.448 1774.53 381.34 1657.77 472.49 1539.42C588.968 1388.26 683.174 1213.41 704.131 1023.72C725.088 834.02 662.609 628.254 513.032 509.714C378.638 403.188 198.201 380.074 40.4818 312.673C-101.492 251.985 -224.691 155.462 -358.092 77.6647C-491.492 -0.132729 -645.088 -60.1495 -797.591 -36.2268C-950.094 -12.3042 -1093.44 120.509 -1082.37 274.535" stroke="#6C7983" stroke-miterlimit="10"/>
<path d="M-71.5916 1101.8C-92.0624 1152.46 -106.679 1205.3 -115.156 1259.28C-121.792 1301.65 -124.261 1344.58 -122.527 1387.43C-119.314 1464.81 -102.386 1542.73 -62.692 1609.03C-23.6159 1674.27 39.8686 1727.41 114.757 1742.13C255.679 1769.87 384.965 1662.4 474.57 1548.73C476.852 1545.83 479.134 1542.93 481.374 1540C596.012 1390.92 687.092 1217.71 704.796 1031.04C716.346 909.376 692.31 782.02 634.299 675.106C602.423 616.346 560.06 563.648 507.405 521.537C462.952 485.923 413.78 459.205 362.36 436.646C259.156 391.358 147.295 363.126 44.8301 316.006C-2.96833 294.038 -48.6751 267.954 -93.5665 239.992C-178.536 187.092 -260.709 127.587 -347.6 76.5073C-436.056 24.5261 -533.637 -19.1955 -633.946 -35.7624C-684.236 -44.4202 -735.584 -45.0137 -786.06 -37.5203C-938.274 -13.9817 -1081.35 116.658 -1074.08 269.057" stroke="#6F7C85" stroke-miterlimit="10"/>
<path d="M-67.404 1109.12C-85.7984 1158.29 -98.7648 1209.32 -106.072 1261.3C-112.047 1303.8 -113.8 1346.78 -111.308 1389.62C-106.707 1466.96 -87.9395 1544.26 -47.1906 1609.76C-7.74641 1673.15 54.7858 1724.95 128.567 1739.21C267.532 1766.05 395.316 1661.36 483.523 1549.29C485.781 1546.42 488.006 1543.56 490.198 1540.69C602.997 1393.69 690.956 1222.1 705.493 1038.62C715.089 917.655 688.245 792.033 629.138 686.28C596.85 627.7 553.636 575.85 501.832 533.536C457.704 497.855 409.114 470.549 358.629 447.082C257.385 399.95 148.922 368.766 49.2332 319.515C2.71427 296.561 -41.8193 269.66 -85.8423 241.065C-169.106 186.894 -250.548 126.788 -337.085 75.3883C-425.122 23.1524 -522.469 -20.5286 -622.613 -36.909C-672.792 -45.453 -724.003 -46.0327 -774.363 -38.6268C-926.257 -15.3348 -1069.13 113.017 -1065.6 263.643" stroke="#738189" stroke-miterlimit="10"/>
<path d="M-62.9525 1116.49C-79.3863 1164.07 -90.8205 1213.24 -97.0701 1263.19C-102.366 1305.81 -103.401 1348.86 -100.159 1391.69C-94.2121 1468.97 -73.5742 1545.65 -31.7588 1610.37C8.01542 1671.95 69.6258 1722.4 142.325 1736.17C279.335 1762.12 405.593 1660.15 492.425 1549.73C494.648 1546.91 496.846 1544.09 499.02 1541.25C609.968 1396.32 694.748 1226.32 706.132 1045.99C713.724 925.714 684.093 801.863 623.888 697.221C590.925 639.313 547.658 587.914 496.221 545.558C452.382 509.753 404.397 481.896 354.879 457.529C255.506 408.581 150.434 374.475 53.5673 323.039C8.37746 299.095 -35.0209 271.399 -78.1374 242.15C-159.733 186.729 -240.413 126.03 -326.461 74.4901C-414.098 22.011 -511.215 -21.5488 -611.297 -37.7843C-661.39 -46.3211 -712.511 -46.9516 -762.799 -39.6527C-914.359 -16.6686 -1057.02 109.414 -1057.33 258.585" stroke="#76838B" stroke-miterlimit="10"/>
<path d="M-58.2284 1124C-72.8161 1169.94 -82.8001 1217.22 -88.0331 1265.13C-92.6522 1307.88 -92.9718 1350.98 -88.9873 1393.8C-81.6171 1471.1 -59.1856 1547.08 -16.2922 1611.05C23.7814 1670.8 84.4892 1719.89 156.184 1733.26C291.181 1758.21 416.028 1659.02 501.381 1550.21C503.584 1547.43 505.801 1544.6 507.866 1541.85C616.963 1398.98 698.524 1230.6 706.824 1053.39C712.419 933.787 679.984 811.719 618.703 708.227C585.058 650.897 541.68 599.867 490.517 557.427C446.999 521.506 399.608 493.08 351.049 467.842C253.573 417.037 152.053 380.016 57.8585 326.407C13.9978 301.472 -28.2959 272.975 -70.5059 243.07C-150.403 186.408 -230.341 125.127 -315.989 73.3444C-403.199 20.5798 -500.112 -22.8168 -599.96 -39.0116C-649.938 -47.4765 -700.931 -48.0934 -751.099 -40.8399C-902.312 -18.1447 -1044.79 105.661 -1048.86 253.202" stroke="#7A878E" stroke-miterlimit="10"/>
<path d="M-53.2551 1131.63C-66.1176 1175.86 -74.733 1221.23 -78.9844 1267.1C-82.9741 1309.98 -82.604 1353.16 -77.8798 1395.97C-69.1405 1473.25 -44.9114 1548.58 -0.901884 1611.76C39.5093 1669.67 99.2879 1717.45 169.874 1730.23C303.038 1754.31 426.329 1657.98 510.337 1550.69C512.483 1547.95 514.628 1545.21 516.712 1542.45C623.916 1401.62 702.277 1234.84 707.479 1060.83C711.028 941.888 675.884 821.675 613.488 719.226C579.175 662.526 535.733 611.882 484.917 569.338C441.689 533.293 394.902 504.316 347.267 478.152C251.706 425.557 153.53 385.538 62.2533 329.817C19.634 303.918 -21.4674 274.592 -62.7824 244.013C-141.011 186.103 -220.188 124.228 -305.493 72.2366C-392.291 19.2478 -488.974 -24.0277 -588.654 -40.1163C-638.528 -48.5044 -689.399 -49.1268 -739.463 -41.9617C-890.273 -19.59 -1032.62 101.974 -1040.45 247.964" stroke="#7E8A8F" stroke-miterlimit="10"/>
<path d="M-48.044 1139.34C-59.2275 1181.83 -66.5583 1225.24 -69.9472 1269.04C-73.232 1312.05 -72.1171 1355.27 -66.6199 1398.05C-56.4462 1475.38 -30.4963 1549.98 14.641 1612.39C55.2719 1668.6 114.246 1714.88 183.763 1727.2C314.971 1750.37 436.649 1656.8 519.293 1551.17C521.412 1548.47 523.5 1545.77 525.558 1543.05C630.958 1404.36 705.969 1239.07 708.152 1068.25C709.62 949.92 671.74 831.475 608.284 730.244C573.31 674.168 529.789 623.901 479.298 581.261C436.417 545.057 390.19 515.584 343.533 488.538C249.819 434.09 155.168 391.066 66.5148 333.307C25.2055 306.43 -14.7417 276.298 -55.1576 245.094C-131.669 185.931 -210.019 123.398 -294.931 71.1938C-381.322 17.9311 -477.782 -25.1926 -577.259 -41.2479C-627.03 -49.5889 -677.788 -50.2236 -727.751 -43.1297C-878.279 -20.9814 -1020.41 98.2021 -1032.02 242.554" stroke="#828D91" stroke-miterlimit="10"/>
<path d="M-42.6038 1147.05C-52.2614 1187.73 -58.4055 1229.16 -60.9681 1270.89C-63.5783 1314.03 -61.7542 1357.31 -55.5247 1400.08C-43.9976 1477.31 -16.2725 1551.35 30.0306 1612.98C70.8881 1667.33 129.033 1712.28 197.491 1724.15C326.752 1746.53 446.984 1655.68 528.242 1551.68C530.315 1549.04 532.377 1546.37 534.396 1543.68C637.938 1407.09 709.611 1243.3 708.799 1075.71C708.24 958.04 667.616 841.392 603.061 741.273C567.439 685.825 523.843 635.926 473.678 593.184C431.011 556.902 385.431 526.775 339.744 498.878C247.951 442.61 156.73 396.641 70.9052 336.667C30.8944 308.792 -7.91742 277.866 -47.4385 245.987C-122.293 185.557 -199.942 122.545 -284.328 70.0473C-370.307 16.5604 -466.537 -26.4422 -565.926 -42.3947C-615.597 -50.645 -666.236 -51.275 -716.097 -44.263C-866.309 -22.411 -1008.16 94.5679 -1023.62 237.236" stroke="#859094" stroke-miterlimit="10"/>
<path d="M-36.7835 1154.99C-45.0173 1193.84 -50.0602 1233.29 -51.8616 1272.95C-53.8033 1316.21 -51.2572 1359.55 -44.264 1402.29C-31.2917 1479.45 -1.92545 1552.89 45.5741 1613.74C86.5861 1666.32 143.985 1709.88 211.381 1721.24C338.597 1742.62 457.339 1654.56 537.186 1552.14C539.252 1549.53 541.256 1546.9 543.261 1544.27C644.94 1409.72 713.218 1247.47 709.491 1083.12C706.832 966.072 663.508 851.249 597.877 752.279C561.598 697.488 517.92 647.974 468.082 605.144C425.705 568.738 380.787 538.157 335.99 509.276C246.088 451.18 158.315 402.254 75.266 340.149C36.5537 311.276 -1.07324 279.552 -39.7184 247.01C-112.851 185.377 -189.839 121.65 -273.79 68.9661C-359.361 15.2054 -455.35 -27.6571 -554.6 -43.5111C-604.179 -51.6942 -654.713 -52.3221 -704.48 -45.3733C-854.365 -23.7986 -996.013 90.8922 -1015.25 231.941" stroke="#899496" stroke-miterlimit="10"/>
<path d="M-30.7875 1162.88C-37.6701 1199.86 -41.6943 1237.31 -42.8245 1274.9C-44.1057 1318.29 -40.8398 1361.7 -33.0804 1404.42C-18.7961 1481.59 12.3099 1554.28 61.0217 1614.42C102.207 1665.23 158.848 1707.37 225.17 1718.21C350.408 1738.65 467.632 1653.42 546.119 1552.58C548.128 1550.01 550.164 1547.52 552.065 1544.85C651.924 1412.36 716.765 1251.63 710.118 1090.46C705.34 974.051 659.402 861.024 592.627 763.22C555.705 709.077 511.936 659.936 462.409 617.021C420.341 580.48 375.993 549.29 332.19 519.597C244.166 459.654 159.83 407.753 79.5879 343.525C42.1551 313.665 5.67069 281.116 -32.0564 247.938C-103.502 185.044 -179.77 120.827 -263.279 67.797C-348.324 13.7427 -444.216 -28.9176 -543.29 -44.6961C-592.75 -52.8256 -643.152 -53.4669 -692.803 -46.5987C-842.341 -25.3127 -983.807 87.1014 -1006.82 226.531" stroke="#8D989A" stroke-miterlimit="10"/>
<path d="M-24.5083 1170.81C-30.1701 1205.89 -33.2675 1241.33 -33.7758 1276.86C-34.3832 1320.38 -30.3989 1363.83 -21.8892 1406.51C-6.28143 1483.72 26.5882 1555.83 76.4883 1615.1C117.809 1664.15 173.684 1704.77 238.987 1715.27C362.311 1734.83 478.028 1652.32 555.175 1553.06C557.157 1550.52 559.124 1548.05 560.991 1545.45C658.991 1415.06 720.341 1255.8 710.871 1097.88C703.921 982.064 655.328 870.938 587.522 774.229C549.942 720.748 506.077 671.972 456.87 628.947C415.104 592.301 371.361 560.561 328.512 529.948C242.379 468.178 161.502 413.339 84.0131 346.942C47.8904 316.103 12.5412 282.759 -24.2984 248.938C-94.0567 184.784 -169.506 119.939 -252.649 66.7382C-337.451 12.4836 -433.081 -30.0482 -531.941 -45.7744C-581.3 -53.8318 -631.585 -54.4852 -681.137 -47.7132C-830.329 -26.716 -971.582 83.4288 -998.388 221.251" stroke="#919B9C" stroke-miterlimit="10"/>
<path d="M-17.9691 1178.74C-22.5197 1211.9 -24.7816 1245.33 -24.7388 1278.81C-24.6808 1322.45 -19.9843 1365.96 -10.7287 1408.6C6.30532 1485.75 40.8128 1557.34 91.9317 1615.73C133.369 1663.04 188.582 1702.32 252.777 1712.23C374.168 1730.94 488.364 1651.2 564.055 1553.58C565.991 1551.1 567.927 1548.62 569.779 1546.08C666.036 1417.72 723.731 1260.01 711.488 1105.34C702.357 990.139 651.143 880.841 582.212 785.286C544.006 732.42 500.045 683.964 451.136 640.809C409.659 604.039 366.503 571.76 324.62 540.247C240.366 476.63 162.968 418.842 88.2356 350.325C53.4113 318.489 19.2164 284.339 -16.7167 249.862C-84.7763 184.467 -159.495 119.022 -242.219 65.5659C-326.551 11.0524 -421.895 -31.3932 -520.677 -47.0356C-569.931 -55.0255 -620.097 -55.6847 -669.544 -48.9916C-818.428 -28.2602 -959.385 79.5386 -990.063 215.799" stroke="#949E9D" stroke-miterlimit="10"/>
<path d="M-11.1813 1186.64C-14.7097 1217.87 -16.2172 1249.3 -15.6942 1280.72C-14.9877 1324.52 -9.56958 1368.11 0.466601 1410.75C18.8887 1487.86 54.9529 1558.79 107.41 1616.42C149.032 1661.98 203.392 1699.89 266.536 1709.33C386.025 1727.05 498.718 1650.08 573.011 1554.06C574.92 1551.62 576.788 1549.16 578.625 1546.68C672.947 1420.46 727.128 1264.18 712.142 1112.77C700.731 998.199 647.046 890.716 577.046 796.281C538.187 744.132 494.117 696.078 445.517 652.862C404.331 615.967 361.779 583.138 320.825 550.748C238.484 485.342 164.511 424.558 92.5739 353.9C59.0291 321.077 25.9885 286.121 -9.0952 251.024C-75.4867 184.38 -149.432 118.36 -231.767 64.6421C-315.681 9.8738 -410.801 -32.4199 -509.403 -47.9372C-558.51 -55.9027 -608.52 -56.6077 -657.832 -50.0295C-806.369 -29.5869 -947.208 76.0006 -981.579 210.565" stroke="#98A1A0" stroke-miterlimit="10"/>
<path d="M-4.13353 1194.55C-6.75301 1223.85 -7.5881 1253.29 -6.63405 1282.7C-5.2509 1326.63 0.883503 1370.29 11.6619 1412.9C31.4531 1489.99 69.1202 1560.34 122.888 1617.11C164.462 1661 218.386 1697.38 280.406 1706.3C397.882 1723.16 509.11 1648.93 581.967 1554.54C583.819 1552.14 585.649 1549.7 587.471 1547.28C679.97 1423.22 730.494 1268.34 712.815 1120.19C699.227 1006.16 642.918 900.584 571.831 807.279C532.368 755.796 488.214 708.086 439.936 664.761C399.039 627.743 357.112 594.352 317.143 561.049C236.693 493.816 166.149 430.087 96.976 357.278C64.7529 323.496 32.874 287.703 -1.26507 251.927C-65.996 184.065 -139.172 117.422 -221.077 63.4682C-304.59 8.4566 -399.481 -33.7161 -497.925 -49.1462C-546.976 -57.008 -596.911 -57.6747 -646.154 -51.1251C-794.345 -30.9713 -935.029 72.2518 -973.111 205.262" stroke="#9CA4A2" stroke-miterlimit="10"/>
<path d="M3.15863 1202.38C1.35759 1229.77 1.10532 1257.23 2.40307 1284.65C4.45715 1328.71 11.3079 1372.42 22.834 1415C44.0249 1492.08 83.2379 1561.88 138.278 1617.83C179.962 1660.01 233.226 1694.84 294.2 1703.32C409.697 1719.24 519.377 1647.83 590.885 1555.05C592.73 1552.67 594.491 1550.25 596.309 1547.91C686.911 1425.83 733.761 1272.52 713.469 1127.62C697.579 1014.18 638.878 910.425 566.627 818.297C526.537 767.494 482.274 720.129 434.298 676.695C393.703 639.572 352.38 605.631 313.358 571.439C238.265 505.786 167.446 435.4 101.333 360.711C70.4082 325.931 39.6835 289.332 6.41283 252.924C-56.5167 183.732 -129.046 116.565 -210.55 62.3682C-293.701 7.13659 -388.293 -34.9308 -486.599 -50.2623C-535.541 -58.0691 -585.354 -58.7516 -634.492 -52.2888C-782.355 -32.4122 -922.8 68.6294 -964.742 199.967" stroke="#9FA8A5" stroke-miterlimit="10"/>
<path d="M10.6761 1210.15C9.59229 1235.64 9.85126 1261.16 11.4518 1286.61C14.2081 1330.8 21.8073 1374.55 34.1131 1417.07C56.673 1494.13 97.4318 1563.38 153.821 1618.33C195.429 1658.88 248.1 1692.22 307.973 1700.22C421.508 1715.27 529.673 1646.61 599.802 1555.42C601.602 1553.1 603.313 1550.68 605.116 1548.41C693.955 1428.36 736.959 1276.57 714.104 1134.93C695.891 1022.1 634.616 920.244 561.373 829.188C521.521 779.505 476.269 732.529 428.64 688.511C388.335 651.264 347.617 616.772 309.542 581.692C232.915 510.83 169.29 441.096 105.632 364.049C76.0436 328.247 46.3969 290.889 14.0518 253.814C-47.2553 183.427 -118.977 115.613 -200.051 61.1803C-282.667 5.75445 -377.124 -36.1339 -475.254 -51.3899C-524.097 -59.1277 -573.799 -59.8121 -622.837 -53.4221C-770.373 -33.8227 -910.597 64.9191 -956.335 194.649" stroke="#A3ABA7" stroke-miterlimit="10"/>
<path d="M18.4454 1217.83C18.0021 1241.4 18.6222 1265.01 20.4888 1288.56C23.8559 1332.91 32.1247 1376.76 45.1443 1419.3C69.0923 1496.31 111.351 1565.07 169.231 1619.17C210.834 1658.08 262.907 1689.87 321.787 1697.35C433.384 1711.5 540.029 1645.61 608.759 1556.03C610.532 1553.75 612.244 1551.46 613.944 1549.15C700.866 1431.11 740.203 1280.84 714.835 1142.45C694.24 1030.2 630.518 930.119 556.227 840.301C515.798 791.255 470.349 744.686 423.078 700.529C383.063 663.157 342.95 628.115 305.842 592.135C231.063 519.419 170.872 446.789 110.015 367.569C81.6803 330.823 53.2451 292.624 21.7949 254.875C-37.8134 183.247 -108.793 114.851 -189.466 60.175C-271.721 4.39903 -365.937 -37.3491 -463.94 -52.5255C-512.675 -60.1977 -562.254 -60.8814 -611.182 -54.5559C-758.372 -35.2453 -898.357 61.1852 -947.963 189.273" stroke="#A6AEAA" stroke-miterlimit="10"/>
<path d="M26.4244 1225.37C26.5201 1247.11 27.5413 1268.83 29.4878 1290.53C33.5511 1335.01 42.5559 1378.9 56.3355 1421.39C81.6642 1498.41 125.404 1566.68 184.754 1619.81C226.387 1657.13 277.953 1687.28 335.668 1694.35C445.318 1707.56 550.44 1644.45 617.791 1556.47C619.507 1554.22 621.211 1551.96 622.866 1549.7C707.95 1433.87 743.359 1285 715.508 1149.87C692.511 1038.22 626.467 940.071 551.031 851.288C510.054 802.888 464.378 756.718 417.459 712.452C377.764 674.963 338.245 639.352 302.096 602.501C229.207 527.959 172.475 452.39 114.422 370.997C87.3851 333.253 59.9898 294.318 29.5414 255.856C-28.3989 182.979 -98.6169 113.99 -178.802 59.0435C-260.764 3.06312 -354.726 -38.5259 -452.633 -53.6302C-501.256 -61.2365 -550.71 -61.9297 -599.528 -55.6893C-746.371 -36.6675 -886.178 57.4366 -939.503 184.001" stroke="#ABB2AC" stroke-miterlimit="10"/>
<path d="M34.636 1232.83C35.1394 1252.72 36.4522 1272.6 38.5745 1292.47C43.3219 1337.12 53.059 1381.09 67.6035 1423.57C94.3204 1500.55 139.515 1568.39 200.248 1620.57C241.795 1656.25 292.768 1684.9 349.508 1691.44C457.155 1703.68 560.775 1643.34 626.774 1557.03C628.464 1554.83 630.123 1552.62 631.739 1550.39C714.972 1436.62 746.466 1289.3 716.209 1157.37C690.74 1046.34 622.367 950.027 545.854 862.394C504.277 814.594 458.428 768.868 411.867 724.462C372.462 686.85 333.56 650.707 298.334 612.93C227.355 536.548 174.072 458.023 118.756 374.522C93.0176 335.78 66.8909 295.97 37.2736 257.028C-18.949 182.899 -88.4361 113.309 -168.267 58.1727C-249.695 1.86806 -343.476 -39.5957 -441.165 -54.598C-489.693 -62.1367 -539.038 -62.8381 -587.761 -56.6817C-734.277 -37.9372 -873.894 53.9896 -930.992 178.854" stroke="#AFB6AF" stroke-miterlimit="10"/>
<path d="M43.0343 1240.12C43.9024 1258.25 45.3785 1276.35 47.6115 1294.41C53.0092 1339.17 63.4546 1383.18 78.7484 1425.59C106.8 1502.49 153.457 1569.99 215.657 1621.15C257.164 1655.26 307.547 1682.34 363.416 1688.39C469.154 1699.8 571.252 1642.24 635.826 1557.46C637.47 1555.31 639.09 1553.12 640.68 1550.93C722.055 1439.26 749.592 1293.45 716.977 1164.74C689.019 1054.33 618.365 959.844 540.754 873.323C498.614 826.23 452.51 780.815 406.343 736.327C367.228 698.59 328.93 661.897 294.664 623.25C225.564 545.022 175.728 463.54 123.15 377.801C98.7026 338.092 73.7302 297.476 44.9805 257.772C-9.57398 182.394 -78.2996 112.21 -157.711 56.8198C-238.727 0.290927 -332.279 -41.0518 -429.81 -55.967C-478.268 -63.4022 -527.526 -64.0563 -576.165 -57.9106C-722.388 -39.5005 -861.769 50.1952 -922.597 173.517" stroke="#B3B8B0" stroke-miterlimit="10"/>
<path d="M51.6421 1247.29C52.7629 1263.67 54.4433 1280.05 56.6833 1296.41C62.7545 1341.32 73.921 1385.4 89.9668 1427.78C119.433 1504.73 167.458 1571.81 231.17 1621.89C272.553 1654.39 322.46 1679.83 377.033 1685.33C480.816 1695.85 581.43 1641.04 644.586 1557.87C646.223 1555.76 647.798 1553.63 649.361 1551.48C728.885 1441.87 752.377 1297.61 717.463 1172.06C686.938 1062.32 614.06 969.637 535.373 884.265C492.656 837.81 446.379 792.84 400.49 748.208C361.677 710.367 323.973 673.105 290.673 633.557C223.455 553.532 177.057 469.074 127.319 381.269C104.159 340.543 80.3333 299.152 52.4711 258.804C-1.7432 179.951 -69.3878 111.233 -147.379 55.7857C-227.988 -1.01699 -321.316 -42.208 -418.69 -57.0362C-467.008 -64.4444 -516.117 -65.1571 -564.629 -59.1542C-710.49 -40.9641 -849.763 46.2908 -914.375 168.024" stroke="#B6BCB3" stroke-miterlimit="10"/>
<path d="M60.4249 1254.27C61.7401 1268.97 63.5039 1283.65 65.7164 1298.31C72.464 1343.36 84.3475 1387.49 101.135 1429.84C131.99 1506.75 181.359 1573.51 246.621 1622.5C287.942 1653.52 337.342 1677.31 390.9 1682.39C492.696 1691.99 591.8 1639.98 653.577 1558.41C655.156 1556.33 656.705 1554.24 658.242 1552.13C735.908 1444.62 755.346 1301.93 718.171 1179.54C685.03 1070.48 609.979 979.581 530.193 895.321C486.929 849.511 440.436 804.96 394.944 760.165C356.421 722.2 319.34 684.376 287.098 643.95C221.714 562.132 178.84 474.671 131.86 384.747C110.021 343.061 87.3267 300.825 60.3519 259.834C7.88706 179.909 -58.8948 110.366 -136.63 54.7075C-216.827 -2.31941 -309.984 -43.4846 -407.161 -58.1188C-455.377 -65.4742 -504.371 -66.1991 -552.783 -60.2732C-698.263 -42.3148 -837.281 42.6976 -905.746 162.728" stroke="#B9BFB5" stroke-miterlimit="10"/>
<path d="M69.3369 1261.11C70.7625 1274.17 72.5617 1287.22 74.7344 1300.27C82.1586 1345.47 94.7633 1389.66 112.299 1431.98C144.558 1508.93 195.271 1575.37 262.068 1623.18C303.305 1652.69 352.217 1674.81 404.693 1679.4C504.553 1688.1 602.117 1638.88 662.487 1558.82C664.04 1556.78 665.543 1554.74 667.022 1552.67C742.914 1447.3 758.231 1306.21 718.882 1186.93C683.087 1078.57 605.908 989.414 525.027 906.315C481.185 861.144 434.465 816.991 389.409 772.141C351.164 734.032 314.689 695.658 283.283 654.332C219.866 570.64 180.364 480.269 136.167 388.184C115.619 345.53 94.0789 302.489 68.0106 260.842C17.2908 179.884 -48.6383 109.522 -126.13 53.6495C-205.981 -3.66621 -298.868 -44.6035 -396.004 -59.2111C-444.121 -66.4915 -493.003 -67.2181 -541.315 -61.3711C-686.484 -43.7586 -825.304 39.0458 -897.526 157.445" stroke="#BDC2B8" stroke-miterlimit="10"/>
<path d="M78.4196 1267.73C79.9385 1279.24 81.7136 1290.75 83.7449 1302.25C91.8261 1347.6 105.149 1391.86 123.445 1434.13C157.095 1510.96 209.108 1577.27 277.497 1623.88C318.621 1651.91 366.985 1672.36 418.502 1676.49C516.375 1684.15 612.478 1637.72 671.489 1559.37C672.92 1557.43 674.48 1555.36 675.915 1553.34C749.909 1449.97 761.071 1310.54 719.498 1194.39C680.992 1086.76 601.742 999.305 519.793 917.325C475.366 872.823 428.449 829.077 383.717 784.029C345.762 745.797 309.903 706.891 279.487 664.703C217.96 579.184 181.906 485.855 140.478 391.67C121.229 348.019 100.831 304.152 75.6808 261.869C26.7187 179.893 -38.3562 108.696 -115.611 52.5797C-194.951 -4.96833 -287.596 -45.7655 -384.555 -60.2977C-432.533 -67.5312 -481.265 -68.283 -529.443 -62.5326C-674.303 -45.1859 -812.91 35.3495 -888.921 152.11" stroke="#C0C5BB" stroke-miterlimit="10"/>
<path d="M87.6003 1274.08C89.1108 1284.12 90.8455 1294.13 92.8044 1304.11C101.572 1349.6 115.612 1393.91 134.64 1436.15C169.651 1512.99 223.002 1579.13 292.94 1624.38C333.964 1650.97 381.901 1669.64 432.256 1673.27C528.235 1680.18 622.771 1636.45 680.402 1559.7C681.883 1557.75 683.302 1555.79 684.66 1553.82C756.808 1452.56 763.791 1314.76 720.072 1201.69C678.797 1094.83 597.526 1009.07 514.489 928.221C469.553 884.341 422.352 841.029 377.997 795.83C340.344 757.493 305.079 718.017 275.587 674.902C215.95 587.556 183.333 491.251 144.688 394.905C126.737 350.255 107.494 305.583 83.2197 262.637C36.0107 179.681 -28.2197 107.655 -105.25 51.2931C-184.07 -6.38793 -276.37 -47.0035 -373.257 -61.5017C-421.163 -68.6612 -469.81 -69.3992 -517.911 -63.696C-662.425 -46.638 -800.831 31.6091 -880.618 146.751" stroke="#C5C9BC" stroke-miterlimit="10"/>
<path d="M96.9757 1280.36C98.4474 1288.96 100.071 1297.54 101.846 1306.1C111.286 1351.74 126.048 1396.12 145.827 1438.32C182.208 1515.14 236.87 1581.16 308.437 1625.2C349.374 1650.34 396.826 1667.28 446.1 1670.42C540.124 1676.43 633.168 1635.48 689.382 1560.35C690.825 1558.43 692.256 1556.49 693.675 1554.53C763.884 1455.36 766.666 1319.27 720.891 1209.17C676.802 1103.14 593.543 1019.01 509.419 939.288C463.879 896.088 416.527 853.129 372.505 807.832C335.161 769.359 300.5 729.334 271.955 685.33C214.209 596.156 185.059 496.883 149.179 398.386C132.519 352.77 114.43 307.291 91.0548 263.721C45.651 179.798 -17.7076 106.924 -94.5046 50.2951C-173.044 -7.73944 -265.255 -48.2522 -361.874 -62.6525C-409.675 -69.7339 -458.202 -70.4774 -506.199 -64.8639C-650.366 -48.0947 -788.56 27.8832 -872.142 141.417" stroke="#C8CDBF" stroke-miterlimit="10"/>
<path d="M106.418 1286.36C107.798 1293.61 109.3 1300.85 110.925 1308.07C121.02 1353.87 136.494 1398.31 157.023 1440.47C194.791 1517.25 250.723 1583.26 323.916 1625.89C365.359 1650.23 411.954 1664.47 459.925 1667.44C551.981 1672.53 643.408 1634.43 698.338 1560.83C699.792 1558.93 701.109 1557.05 702.464 1555.16C770.91 1458.03 769.338 1323.75 721.518 1216.65C674.558 1111.47 589.401 1028.94 504.17 950.359C458.052 907.798 410.504 865.245 366.851 819.828C329.797 781.231 295.742 740.655 268.163 695.75C212.307 604.749 186.633 502.607 153.482 401.903C138.178 355.254 121.186 309.005 98.8012 264.702C56.1028 180.579 -7.42942 106.273 -83.9284 49.1906C-162.06 -9.11782 -254.03 -49.4905 -350.491 -63.8037C-398.224 -70.8197 -446.67 -71.5558 -494.594 -65.9933C-638.51 -49.455 -776.426 24.1881 -863.804 136.115" stroke="#CCCFC1" stroke-miterlimit="10"/>
<path d="M115.951 1292.13C117.217 1298.12 118.54 1304.07 119.962 1310.02C130.728 1355.94 146.907 1400.42 168.16 1442.52C207.31 1519.3 264.503 1585.33 339.348 1626.5C380.672 1649.17 426.615 1662.14 473.695 1664.42C563.791 1668.57 653.846 1633.22 707.26 1561.25C708.725 1559.37 709.958 1557.57 711.275 1555.7C777.863 1460.67 772.034 1328.27 722.157 1224.01C672.28 1119.75 585.273 1038.8 498.99 961.415C452.305 919.511 404.56 877.364 361.255 831.789C324.503 793.087 291.052 751.96 264.409 706.148C210.444 613.319 188.183 508.163 157.862 405.374C143.799 357.762 128 310.683 106.426 265.783C65.4073 180.43 2.62496 105.512 -73.4432 48.1939C-151.155 -10.3693 -242.933 -50.5976 -339.237 -64.8237C-386.828 -71.7746 -435.119 -72.5295 -482.904 -67.0695C-626.417 -50.8548 -764.208 20.5465 -855.374 130.835" stroke="#CFD2C4" stroke-miterlimit="10"/>
<path d="M125.556 1297.67C126.662 1302.45 127.806 1307.21 129.03 1311.97C161.418 1441.22 236.542 1565.94 354.925 1627.19C473.308 1688.43 636.98 1668.89 716.251 1561.79C785.277 1468.53 775.704 1334.79 722.88 1231.56C670.057 1128.32 581.156 1048.69 493.793 972.402C406.43 896.113 316.549 818.171 260.632 716.507C184.439 578.002 179.455 410.674 114.111 266.749C34.6037 91.6611 -137.648 -37.9944 -327.903 -65.9706C-518.159 -93.9467 -720.429 -19.3175 -846.979 125.498" stroke="#D3D6C7" stroke-miterlimit="10"/>
</g>
<defs>
<clipPath id="clip0_10_697">
<rect width="2408.46" height="2408.46" fill="white" transform="translate(-350.121 2522.03) rotate(-121.29)"/>
</clipPath>
</defs>
</svg>
