<svg width="360" height="49" viewBox="0 0 360 49" fill="none" xmlns="http://www.w3.org/2000/svg">
<mask id="mask0_212_3" style="mask-type:alpha" maskUnits="userSpaceOnUse" x="0" y="0" width="360" height="49">
<path d="M261 0C309 0 359.5 8.5 359.5 8.5V49H0V6.5C94.5 6.5 173.477 0 261 0Z" fill="#1B291F"/>
</mask>
<g mask="url(#mask0_212_3)">
<path d="M74.5 12C-26 12 -76.3333 35.5601 -108 46.3584L-105.5 547.5H350.5V60.5926C256 60.5926 162.023 12 74.5 12Z" stroke="#1B291F" stroke-width="0.5"/>
<path d="M74.5 14C-26 14 -76.3333 37.5601 -108 48.3584L-105.5 549.5H350.5V62.5926C256 62.5926 162.023 14 74.5 14Z" stroke="#1B291F" stroke-width="0.5"/>
<path d="M74.5 16C-26 16 -76.3333 39.5601 -108 50.3584L-105.5 551.5H350.5V64.5926C256 64.5926 162.023 16 74.5 16Z" stroke="#1B291F" stroke-width="0.5"/>
<path d="M74.5 18C-26 18 -76.3333 41.5601 -108 52.3584L-105.5 553.5H350.5V66.5926C256 66.5926 162.023 18 74.5 18Z" stroke="#1B291F" stroke-width="0.5"/>
<path d="M74.5 20C-26 20 -76.3333 43.5601 -108 54.3584L-105.5 555.5H350.5V68.5926C256 68.5926 162.023 20 74.5 20Z" stroke="#1B291F" stroke-width="0.5"/>
<path d="M74.5 22C-26 22 -76.3333 45.5601 -108 56.3584L-105.5 557.5H350.5V70.5926C256 70.5926 162.023 22 74.5 22Z" stroke="#1B291F" stroke-width="0.5"/>
<path d="M74.5 24C-26 24 -76.3333 47.5601 -108 58.3584L-105.5 559.5H350.5V72.5926C256 72.5926 162.023 24 74.5 24Z" stroke="#1B291F" stroke-width="0.5"/>
<path d="M74.5 26C-26 26 -76.3333 49.5601 -108 60.3584L-105.5 561.5H350.5V74.5926C256 74.5926 162.023 26 74.5 26Z" stroke="#1B291F" stroke-width="0.5"/>
<path d="M74.5 28C-26 28 -76.3333 51.5601 -108 62.3584L-105.5 563.5H350.5V76.5926C256 76.5926 162.023 28 74.5 28Z" stroke="#1B291F" stroke-width="0.5"/>
<path d="M74.5 30C-26 30 -76.3333 53.5601 -108 64.3584L-105.5 565.5H350.5V78.5926C256 78.5926 162.023 30 74.5 30Z" stroke="#1B291F" stroke-width="0.5"/>
<path d="M74.5 32C-26 32 -76.3333 55.5601 -108 66.3584L-105.5 567.5H350.5V80.5926C256 80.5926 162.023 32 74.5 32Z" stroke="#1B291F" stroke-width="0.5"/>
<path d="M74.5 34C-26 34 -76.3333 57.5601 -108 68.3584L-105.5 569.5H350.5V82.5926C256 82.5926 162.023 34 74.5 34Z" stroke="#1B291F" stroke-width="0.5"/>
<path d="M74.5 36C-26 36 -76.3333 59.5601 -108 70.3584L-105.5 571.5H350.5V84.5926C256 84.5926 162.023 36 74.5 36Z" stroke="#1B291F" stroke-width="0.5"/>
<path d="M74.5 38C-26 38 -76.3333 61.5601 -108 72.3584L-105.5 573.5H350.5V86.5926C256 86.5926 162.023 38 74.5 38Z" stroke="#1B291F" stroke-width="0.5"/>
<path d="M74.5 40C-26 40 -76.3333 63.5601 -108 74.3584L-105.5 575.5H350.5V88.5926C256 88.5926 162.023 40 74.5 40Z" stroke="#1B291F" stroke-width="0.5"/>
<path d="M74.5 42C-26 42 -76.3333 65.5601 -108 76.3584L-105.5 577.5H350.5V90.5926C256 90.5926 162.023 42 74.5 42Z" stroke="#1B291F" stroke-width="0.5"/>
<path d="M74.5 44C-26 44 -76.3333 67.5601 -108 78.3584L-105.5 579.5H350.5V92.5926C256 92.5926 162.023 44 74.5 44Z" stroke="#1B291F" stroke-width="0.5"/>
<path d="M261 0C309 0 359.5 8.5 359.5 8.5V49H0V47C94.5 47 173.477 0 261 0Z" fill="#1B291F"/>
</g>
</svg>
