<svg width="141" height="109" viewBox="0 0 141 109" fill="none" xmlns="http://www.w3.org/2000/svg">
<path d="M72.067 102.994C70.5168 100.321 70.5754 99.7005 68.9833 97.0525C67.4267 94.6088 66.6412 91.7533 66.7292 88.8572C66.8968 83.1842 66.7879 77.4777 66.4275 71.8047C66.1929 68.0339 64.936 65.4865 60.9808 64.5312C56.4306 63.4335 51.7632 63.291 47.4812 65.0926C46.3461 65.5461 45.3151 66.2257 44.4507 67.09C43.5864 67.9543 42.9069 68.9853 42.4534 70.1204C41.5371 72.5917 41.0854 75.211 41.121 77.8464C40.9199 83.3937 41.0456 88.9494 41.0624 94.4968C41.0624 99.0218 41.1126 103.538 41.1378 108.063H33.7302C33.7302 103.228 33.8391 98.4016 33.7972 93.575C33.747 86.3015 33.6296 79.0196 33.4956 71.7879C33.4369 68.5283 30.7135 65.3524 27.546 64.5144C24.7338 63.7827 21.7936 63.6882 18.9402 64.2379C14.4235 65.0758 11.1974 67.5144 9.48793 71.8718C8.27289 74.9638 8.23937 78.2151 8.08016 81.4413C7.95447 84.0055 8.08016 86.578 8.08016 89.1506L8.15558 108.105H0.756348V58.4476L5.0551 58.523C5.4617 58.4856 5.87156 58.5382 6.25556 58.677C6.63955 58.8158 6.98828 59.0374 7.277 59.3262C7.56572 59.6149 7.78736 59.9636 7.92616 60.3476C8.06497 60.7316 8.11754 61.1415 8.08016 61.5481C8.08016 62.738 8.08016 63.9279 8.08016 65.1178C9.49087 63.0684 11.3327 61.3524 13.4766 60.09C15.2995 59.067 17.283 58.3614 19.3424 58.0034C22.1933 57.4392 25.1222 57.391 27.9901 57.861C30.504 58.2716 35.1045 59.009 36.7385 61.3469C37.8256 62.4025 38.6816 63.6722 39.2524 65.0758C39.3773 65.2868 39.5173 65.4885 39.6714 65.6792C40.6309 64.1064 41.8491 62.7068 43.2746 61.5397C45.6372 59.6977 48.4277 58.484 51.3861 58.0118C54.2858 57.4048 57.2743 57.3536 60.1931 57.861C61.869 57.9699 66.3689 58.4894 69.528 61.8748C71.6061 64.087 70.8352 66.7602 71.2542 68.4864L72.2346 72.45L72.067 102.994Z" fill="#D3D6C7"/>
<path d="M129.669 57.9113C132.325 58.4476 134.964 58.9922 137.068 61.2631C138.892 63.378 139.993 66.0203 140.21 68.8048C140.386 70.221 140.143 71.5366 140.21 73.1035C140.21 84.3741 140.21 95.6531 140.21 106.932C140.21 108.038 139.917 108.197 138.92 108.156C136.783 108.063 134.931 108.072 132.786 108.072V72.3661C132.771 70.6193 132.355 68.8991 131.571 67.3384C130.507 65.1429 128.403 64.439 126.266 64.1206C122.077 63.4921 117.945 63.4167 113.881 64.9586C109.608 66.5926 107.362 69.7936 106.666 74.1175C105.879 79.028 106.423 83.9971 106.365 88.9411C106.365 91.0946 106.189 93.0387 104.823 94.9074C102.829 97.6391 102.016 100.446 100.189 103.287C100.122 103.396 99.946 103.446 99.8203 103.53V66.6596C99.9495 65.8973 100.263 65.1781 100.734 64.5647C102.041 62.8888 103.072 60.9782 104.362 59.2688C104.748 58.7576 105.2 58.0202 105.921 58.2632C106.641 58.5062 106.39 59.3107 106.407 59.9391C106.45 61.0818 106.431 62.226 106.348 63.3664C106.929 62.2449 107.797 61.2967 108.862 60.6179C110.033 59.7449 111.33 59.0554 112.708 58.5732C114.136 58.1089 115.617 57.8273 117.116 57.7353C118.465 57.6012 119.487 57.5845 119.973 57.5761C125.185 57.551 127.758 57.551 129.669 57.9113Z" fill="#D3D6C7"/>
<path d="M106.675 54.132C102.334 55.9755 100.415 60.1067 99.6695 64.7323C98.4042 72.5924 99.4181 80.5949 99.1248 88.5221C99.0892 90.4885 98.9044 92.4494 98.5717 94.3878C97.893 97.9743 95.5634 100.119 92.5803 100.438C90.5776 100.656 88.5497 100.79 86.5134 100.815C84.4772 100.84 82.4577 100.656 80.455 100.438C77.4718 100.119 75.1423 97.9743 74.4635 94.3878C74.1309 92.4494 73.946 90.4885 73.9105 88.5221C73.6172 80.5949 74.6311 72.6007 73.3658 64.7323C72.62 60.1067 70.7011 55.9755 66.3605 54.132V93.5833C66.3605 94.2537 66.3605 94.4883 66.3605 94.8906C66.2348 99.2647 68.2878 102.273 71.229 104.946C73.7429 107.242 76.6842 107.569 79.6086 108.063H93.3429C96.3093 107.569 99.2505 107.225 101.764 104.946C104.706 102.265 106.792 99.2563 106.633 94.8906C106.633 94.4883 106.633 94.2537 106.633 93.5833L106.675 54.132Z" fill="#D3D6C7"/>
<path d="M37.4256 48.9032V19.4237H32.3308V15.2338H37.4256V10.2898C37.4256 3.65318 40.8194 0.410278 47.6069 0.410278C48.7958 0.451849 49.9817 0.555334 51.1598 0.720321V4.75931C49.618 4.60847 48.3778 4.44927 47.6069 4.44927C44.0623 4.44927 42.3612 6.30117 42.3612 9.85414V15.259H51.1598V19.2728H42.3612V48.7524H37.4256V48.9032Z" fill="#D3D6C7"/>
<path d="M53.1626 15.259H58.0982L57.6373 19.1136L57.7966 19.2728C59.7993 16.0299 62.883 14.488 67.3577 14.488C73.5335 14.488 76.5753 17.7226 76.5753 24.0576V26.3703H71.7989L71.9497 25.5994C71.9497 24.6693 72.1005 24.0576 72.1005 23.7475C72.1005 20.3957 70.2487 18.5019 66.5449 18.5019C60.9892 18.5019 58.3664 21.8956 58.3664 28.6831V48.9032H53.4308V15.259H53.1626Z" fill="#D3D6C7"/>
<path d="M107.018 15.259V51.0651C107.018 56.0008 105.937 59.2437 103.784 61.1207C101.63 62.9977 97.7589 63.9027 92.2033 63.9027C87.1168 63.9027 83.7231 63.1318 81.8712 61.59C80.0193 60.0481 79.0891 57.1069 79.0891 52.9422H83.9074C83.9074 55.875 84.3683 57.727 85.4493 58.4979C86.5302 59.428 88.843 59.738 92.396 59.738C96.0998 59.738 98.7226 59.118 99.9376 58.0621C101.153 57.0063 101.949 54.7103 101.949 51.4255V44.6296H101.79C100.558 47.7217 96.8539 49.2635 90.8374 49.2635C85.8934 49.2635 82.4577 48.0317 80.4969 45.5597C78.6478 43.0849 77.7204 38.6158 77.7148 32.1523C77.7148 25.3648 78.645 20.8901 80.6477 18.4181C82.4968 15.9433 86.047 14.7087 91.2982 14.7143C96.8539 14.7143 100.407 16.3903 102.1 19.8091H102.259L101.949 15.3344L107.018 15.259ZM92.3625 19.0047C88.4995 19.0047 86.0359 19.7756 84.8208 21.4767C83.7482 23.1526 83.1449 26.7223 83.1449 32.1188C83.1449 37.6829 83.765 41.2274 84.8208 42.9285C85.8766 44.6296 88.5246 45.4424 92.3625 45.4424C96.2003 45.4424 98.8399 44.5123 100.08 42.6604C101.32 40.8085 101.932 37.1047 101.932 31.2389C101.932 26.1441 101.312 22.8593 100.08 21.1834C98.8399 19.7337 96.2171 19.0047 92.3625 19.0047Z" fill="#D3D6C7"/>
<path d="M139.272 24.0324H134.336C134.336 21.7112 133.875 20.1694 132.945 19.7085C132.023 19.0884 129.593 18.9376 125.537 18.9376C121.834 18.9376 119.521 19.2448 118.599 19.8593C117.669 20.4794 117.049 21.8704 117.049 24.1832C117.049 27.5351 118.725 29.4289 121.993 29.5881L126.007 29.7389L131.093 30.049C137.269 30.359 140.202 33.6019 140.202 39.6185C140.202 43.3223 139.121 45.9451 137.118 47.3361C135.115 48.7272 131.403 49.4981 126.007 49.4981C120.451 49.4981 116.789 48.878 114.585 47.487C112.574 46.1043 111.493 43.6324 111.493 40.0794V38.2778H116.588V39.8196C116.588 41.9816 117.208 43.5234 118.264 44.3027C119.32 45.082 121.658 45.3837 124.901 45.3837C128.914 45.3837 131.688 44.9144 132.92 44.1435C134.152 43.3726 134.772 41.8307 134.772 39.3587C134.772 35.8057 133.23 34.1131 129.987 34.1131C122.579 34.1131 117.641 33.4958 115.172 32.2612C112.859 31.021 111.627 28.3982 111.627 24.3843C111.627 20.6805 112.549 18.0577 114.401 16.8426C116.253 15.6276 119.957 14.9908 125.512 14.9908C134.462 14.9908 138.92 17.6136 138.92 23.0184V24.0324H139.272Z" fill="#D3D6C7"/>
<path d="M29.3141 14.6556C26.2388 15.8204 24.8729 18.4349 24.345 21.3593C23.4484 26.3201 24.169 31.4149 23.9595 36.384C23.9337 37.6248 23.802 38.8611 23.5657 40.0795C23.3892 41.1008 22.8742 42.033 22.1035 42.7261C21.3329 43.4192 20.3515 43.8329 19.3172 43.9006C17.9011 44.0346 16.4598 44.1268 15.0185 44.1352C13.5772 44.1435 12.1443 44.0346 10.7197 43.9006C9.68592 43.8315 8.70526 43.4173 7.93491 42.7244C7.16456 42.0316 6.64912 41.1002 6.47124 40.0795C6.23884 38.8605 6.10711 37.6245 6.07739 36.384C5.87628 31.3562 6.59695 26.3285 5.70033 21.3593C5.16403 18.4432 3.80651 15.8288 0.731186 14.6556V39.585C0.731186 40.004 0.731186 40.1549 0.731186 40.423C0.63901 43.1883 2.09708 45.0821 4.17523 46.7748C5.96009 48.2328 8.055 48.4507 10.1499 48.7524H19.887C21.9903 48.4339 24.0768 48.2328 25.8617 46.7748C27.9482 45.0988 29.4063 43.1883 29.3141 40.423C29.3141 40.1716 29.3141 40.0208 29.3141 39.585V14.6556Z" fill="#D3D6C7"/>
</svg>
