<svg width="360" height="242" viewBox="0 0 360 242" fill="none" xmlns="http://www.w3.org/2000/svg">
<mask id="mask0_212_59" style="mask-type:alpha" maskUnits="userSpaceOnUse" x="-6" y="0" width="382" height="242">
<rect x="-6" width="382" height="242" fill="#D9D9D9"/>
</mask>
<g mask="url(#mask0_212_59)">
<g style="mix-blend-mode:soft-light">
<path d="M269.682 460.601C276.436 512.959 274.228 562.69 261.807 605.202C252.154 638.125 236.633 667.309 212.113 683.887C187.593 700.465 153.269 703.264 118.442 685.379C51.2082 650.828 6.19183 557.06 -20.0155 476.394C-53.5113 373.339 -74.5952 267.212 -62.0575 178.28C-49.5198 89.348 1.21908 20.3691 79.9539 17.2697C150.699 14.477 231.982 62.6689 308.423 84.3481C377.234 103.857 441.957 101.786 508.987 111.117C576.017 120.448 649.817 143.997 713.551 203.552C777.285 263.108 824.587 366.878 802.166 430.028" stroke="#6C7983" stroke-miterlimit="10"/>
<path d="M267.115 462.331C270.249 490.881 270.584 518.483 268.111 544.6C266.163 565.096 262.335 584.485 256.683 602.49C246.443 634.972 230.163 663.264 205.289 679.179C180.804 694.834 147.063 697.376 112.743 679.593C48.1537 646.153 4.08245 557.897 -21.985 479.753C-22.6482 477.761 -23.3115 475.768 -23.9533 473.778C-56.8855 372.219 -76.7938 267.811 -63.1835 181.236C-54.3184 124.81 -29.2928 77.3963 8.2057 49.7964C28.8115 34.6256 53.2955 25.4628 81.0561 24.2066C104.499 23.1189 128.983 27.4068 153.971 34.2213C204.126 47.8942 256.105 71.7485 306.147 84.3893C329.489 90.2918 352.39 93.7368 375.15 96.105C418.227 100.599 460.84 101.329 504.547 107.231C549.038 113.248 596.563 125.786 642.175 150.966C665.083 163.438 687.53 179.744 708.673 199.272C772.326 258.569 819.758 361.31 799.182 424.983" stroke="#6F7C85" stroke-miterlimit="10"/>
<path d="M264.454 464.151C266.854 491.383 266.675 517.67 263.921 542.546C261.671 562.881 257.525 582.064 251.544 599.818C240.702 631.837 223.692 659.266 198.449 674.495C174.015 689.233 140.843 691.497 107.057 673.877C43.4229 640.678 -0.309448 554.106 -25.951 477.109C-26.6074 475.138 -27.2497 473.179 -27.8779 471.231C-60.2465 371.168 -78.9791 268.463 -64.3543 184.299C-54.7164 128.803 -28.6647 83.0453 9.17832 56.3016C29.9431 41.3412 54.7015 32.8209 82.1141 31.202C105.423 29.9805 129.721 33.8259 154.405 39.9453C203.916 52.1879 254.752 73.6669 303.827 84.4892C326.724 89.5517 349.207 92.2641 371.661 94.0783C414.14 97.471 456.503 97.7055 500.091 103.355C544.429 109.126 591.848 121.606 637.366 146.814C660.212 159.299 682.599 175.568 703.702 195.02C767.243 254.107 814.849 355.792 796.105 419.903" stroke="#738189" stroke-miterlimit="10"/>
<path d="M261.672 465.907C263.399 491.82 262.765 516.806 259.782 540.46C257.221 560.632 252.754 579.612 246.448 597.118C235.027 628.677 217.272 655.236 191.653 669.784C167.282 683.628 134.666 685.607 101.407 668.123C38.7283 635.165 -4.65066 550.266 -29.8808 474.425C-30.5282 472.49 -31.1638 470.558 -31.7874 468.629C-63.5852 370.057 -81.1136 269.068 -65.4737 187.282C-55.042 132.734 -27.9785 88.6424 10.2165 62.7347C31.1991 48.2832 55.9284 39.9751 83.1863 38.2196C106.383 36.8509 130.48 40.2627 154.846 45.6803C203.749 56.5326 253.44 75.652 301.535 84.6178C323.967 88.8225 346.046 90.8246 368.179 92.0625C410.074 94.3762 452.172 94.1081 495.564 99.539C539.755 105.075 587.06 117.534 632.534 142.785C655.342 155.245 677.695 171.462 698.779 190.846C762.209 249.691 809.982 350.324 793.075 415.042" stroke="#76838B" stroke-miterlimit="10"/>
<path d="M258.755 467.638C259.864 492.244 258.814 515.943 255.621 538.387C252.751 558.394 247.966 577.168 241.338 594.428C229.294 625.537 210.837 651.215 184.835 665.086C160.542 678.043 128.475 679.725 95.6999 662.389C34.0124 629.65 -9.07032 546.414 -33.8391 471.745C-34.4822 469.833 -35.1247 467.889 -35.7114 466.035C-66.9383 368.954 -83.2486 269.704 -66.6219 190.267C-55.396 136.652 -27.3138 94.2372 11.2188 69.1746C32.4327 55.1934 57.1683 47.0809 84.316 45.2009C107.387 43.6783 131.29 46.652 155.337 51.3836C203.625 60.8188 252.102 77.5296 299.28 84.6924C321.245 88.0393 342.934 89.3378 364.748 89.9994C406.044 91.2275 447.885 90.4679 491.13 95.6644C535.168 100.94 582.365 113.403 627.734 138.596C650.483 151.051 672.778 167.232 693.815 186.557C757.128 245.165 805.081 344.754 789.997 409.977" stroke="#7A878E" stroke-miterlimit="10"/>
<path d="M255.716 469.337C256.268 492.648 254.841 515.077 251.453 536.319C248.293 556.182 243.198 574.767 236.249 591.787C223.611 622.445 204.444 647.261 178.045 660.433C153.817 672.48 122.304 673.893 90.0785 656.663C29.2892 624.139 -13.4411 542.64 -37.7975 469.064C-38.4196 467.185 -39.0417 465.307 -39.6353 463.442C-70.27 367.854 -85.3692 270.332 -67.756 193.275C-55.7148 140.61 -26.6639 99.8726 12.2353 75.6212C33.6681 62.1286 58.3876 54.2039 85.3961 52.167C108.355 50.4971 132.057 53.0373 155.807 57.0693C203.466 65.1122 250.827 79.4451 296.975 84.7517C318.509 87.2809 339.774 87.8357 361.274 87.9165C401.985 88.0657 443.563 86.8033 486.682 91.7988C530.566 96.8441 577.649 109.286 622.932 134.47C645.627 146.925 667.87 163.065 688.872 182.318C752.046 240.656 800.2 339.233 786.933 404.997" stroke="#7E8A8F" stroke-miterlimit="10"/>
<path d="M252.563 470.998C252.584 493.01 250.819 514.179 247.292 534.247C243.811 553.934 238.386 572.299 231.103 589.056C217.835 619.27 198.002 643.214 171.199 655.691C147.069 666.931 116.078 667.955 84.3724 650.867C24.5382 618.584 -17.8037 538.799 -41.7559 466.383C-42.3712 464.531 -42.9724 462.686 -43.5593 460.848C-73.652 366.77 -87.4613 270.972 -68.8972 196.272C-56.019 144.543 -25.9775 105.454 13.2445 82.0724C34.8943 69.0638 59.605 61.3278 86.483 59.1442C109.308 57.2936 132.823 59.4383 156.248 62.773C203.313 69.4166 249.481 81.3117 294.719 84.8891C315.794 86.5718 336.647 86.4051 357.827 85.9254C397.933 84.9777 439.226 83.1635 482.198 87.9403C525.936 92.7354 572.904 105.171 618.095 130.304C640.74 142.746 662.935 158.844 683.901 178.034C746.977 236.184 795.306 333.658 783.877 399.935" stroke="#828D91" stroke-miterlimit="10"/>
<path d="M249.312 472.581C248.874 493.318 246.818 513.248 243.167 532.152C239.377 551.678 233.637 569.841 226.036 586.354C212.189 616.091 191.646 639.222 164.424 650.982C140.408 661.343 109.93 662.063 78.7371 645.119C19.843 613.118 -22.1809 534.982 -45.7144 463.718C-46.316 461.904 -46.9104 460.086 -47.4834 458.27C-77.0055 365.699 -89.5321 271.631 -70.0314 199.296C-56.3449 148.506 -25.3131 111.081 14.261 88.5349C36.1214 76.0069 60.8229 68.4547 87.5702 66.1216C110.311 64.1683 133.619 65.8212 156.718 68.4743C203.154 73.7099 248.164 83.2231 292.422 84.9283C313.045 85.7598 333.494 84.8829 354.361 83.8223C393.89 81.7912 434.931 79.5436 477.708 84.0235C521.292 88.5887 568.146 101.002 613.286 126.152C635.878 138.601 658.02 154.662 678.951 173.784C741.923 231.704 790.383 328.133 780.821 394.919" stroke="#859094" stroke-miterlimit="10"/>
<path d="M245.867 474.145C245.018 493.627 242.709 512.343 238.963 530.106C234.867 549.471 228.806 567.425 220.876 583.68C206.406 612.921 185.217 635.259 157.563 646.296C133.681 655.843 103.688 656.197 73.0156 639.378C15.1269 607.602 -26.5653 531.154 -49.6657 461.033C-50.2676 459.235 -50.841 457.45 -51.4145 455.665C-80.3585 364.581 -91.5816 272.276 -71.1797 202.282C-56.6492 152.439 -24.6485 116.675 15.2631 94.9746C37.3344 82.9428 62.028 75.5841 88.6426 73.1076C111.272 71.0071 134.342 72.2491 157.167 74.189C202.987 78.0232 246.832 85.1431 290.123 85.0299C310.294 85.0102 330.318 83.4052 350.879 81.775C389.795 78.6673 430.63 75.8967 473.238 80.1557C516.676 84.4707 563.409 96.8669 608.477 122.015C631.021 134.463 653.118 150.492 674.015 169.555C736.876 227.25 785.51 322.623 777.778 389.926" stroke="#899496" stroke-miterlimit="10"/>
<path d="M242.353 475.629C241.128 493.865 238.604 511.385 234.802 528.033C230.403 547.244 224.02 564.994 215.758 580.994C200.716 609.817 178.854 631.272 150.752 641.609C126.998 650.331 97.4966 650.316 67.352 633.617C10.4329 602.074 -30.921 527.34 -53.6095 458.343C-54.1904 456.578 -54.7932 454.843 -55.3168 453.074C-83.7043 363.474 -93.6022 272.934 -72.2918 205.26C-56.9103 156.376 -23.9759 122.234 16.3015 101.408C38.579 89.8642 63.2694 82.6963 89.7584 80.0825C112.268 77.8236 135.16 78.6184 157.644 79.8859C202.856 82.3141 245.543 87.0364 287.854 85.0981C307.58 84.2384 327.2 81.9075 347.434 79.7055C385.758 75.5077 426.336 72.2926 468.791 76.2589C512.033 80.277 558.7 92.7296 603.683 117.853C626.169 130.286 648.21 146.267 669.065 165.258C731.809 222.715 780.623 317.044 774.723 384.864" stroke="#8D989A" stroke-miterlimit="10"/>
<path d="M238.71 477.037C237.171 494.058 234.471 510.411 230.634 525.965C225.927 545.011 219.226 562.55 210.641 578.292C195.018 606.702 172.453 627.338 143.934 636.912C120.321 644.831 91.3272 644.405 61.6663 627.885C5.68082 596.581 -35.3266 523.51 -57.6102 455.626C-58.1844 453.889 -58.759 452.182 -59.2761 450.456C-87.093 362.363 -95.6372 273.585 -73.4683 208.233C-57.2072 160.305 -23.3328 127.843 17.2683 107.823C39.7574 96.779 64.448 89.7997 90.8101 87.0352C113.2 84.6336 135.891 84.9948 158.064 85.556C202.662 86.5829 244.176 88.9165 285.535 85.1507C304.802 83.4444 324.018 80.4031 343.938 77.636C381.671 72.3481 421.964 68.5969 464.279 72.3712C507.437 76.224 553.976 88.6481 598.86 113.725C621.294 126.157 643.285 142.094 664.108 161.012C726.733 218.233 775.714 311.509 771.652 379.857" stroke="#919B9C" stroke-miterlimit="10"/>
<path d="M234.955 478.361C233.15 494.194 230.316 509.407 226.473 523.893C221.462 542.778 214.444 560.11 205.538 575.598C189.3 603.522 166.081 623.402 137.131 632.205C113.666 639.333 85.1141 638.537 56.0026 622.124C0.95773 591.07 -39.7039 519.693 -61.5406 452.99C-62.1011 451.291 -62.6615 449.591 -63.1791 447.896C-90.4673 361.243 -97.5947 274.313 -74.5884 211.263C-57.4479 164.308 -22.6401 133.483 18.3198 114.326C41.011 103.75 65.7073 96.9405 91.9541 94.0234C114.232 91.4745 136.729 91.4133 158.584 91.2727C202.573 90.8937 242.909 90.8275 283.308 85.2544C302.123 82.697 320.928 78.9343 340.528 75.5909C377.663 69.2174 417.705 64.9701 459.867 68.4989C502.85 72.0883 549.254 84.4571 594.095 109.546C616.475 121.973 638.415 137.869 659.201 156.719C721.723 213.725 770.843 305.89 768.646 374.81" stroke="#949E9D" stroke-miterlimit="10"/>
<path d="M231.093 479.596C229.063 494.262 226.13 508.361 222.312 521.805C217.001 540.548 209.659 557.684 200.413 572.916C183.575 600.378 159.753 619.47 130.306 627.512C106.961 633.819 78.9362 632.709 50.3378 616.426C-3.76545 585.56 -44.0881 515.866 -65.499 450.31C-66.0527 448.637 -66.5849 446.966 -67.103 445.302C-93.7927 360.201 -99.552 275.024 -75.7226 214.271C-57.6603 168.323 -21.9825 139.082 19.3151 120.755C42.2093 110.7 66.9071 104.1 93.026 101.057C115.192 98.3605 137.488 97.8659 159.038 97.0458C202.398 95.2744 241.583 92.806 281.009 85.4033C299.379 82.0058 317.773 77.5218 337.074 73.6355C373.624 66.183 413.395 61.4376 455.417 64.7274C498.247 68.0711 544.537 80.4339 589.285 105.518C611.597 117.908 633.475 133.735 654.215 152.491C716.619 209.26 765.94 300.429 765.547 369.806" stroke="#98A1A0" stroke-miterlimit="10"/>
<path d="M227.119 480.746C224.912 494.287 221.912 507.309 218.137 519.741C212.515 538.324 204.854 555.254 195.289 570.235C177.856 597.245 153.402 615.568 123.481 622.819C100.347 628.419 72.6882 626.785 44.6387 610.64C-8.48857 580.049 -48.4863 512.015 -69.4573 447.629C-69.9901 445.989 -70.5084 444.341 -71.027 442.708C-97.1677 359.128 -101.495 275.742 -76.8637 217.268C-57.9144 172.256 -21.3108 144.688 20.3316 127.201C43.4129 117.63 68.1079 111.206 94.099 108.011C116.153 105.168 138.241 104.229 159.466 102.696C202.211 99.5228 240.238 94.6724 278.704 85.4467C296.608 81.2072 314.591 75.986 333.558 71.5011C369.523 62.9853 409.03 57.7216 450.892 60.7703C493.575 63.8796 539.751 76.2205 584.42 101.292C606.697 113.709 628.537 129.528 649.251 148.249C711.536 204.782 761.06 294.877 762.462 364.777" stroke="#9CA4A2" stroke-miterlimit="10"/>
<path d="M223.045 481.787C220.702 494.231 217.673 506.211 213.976 517.668C208.046 536.094 200.067 552.818 190.179 567.545C172.137 594.096 147.072 611.683 116.691 618.166C93.7048 622.991 66.5112 620.895 38.9674 604.9C-13.1903 574.54 -52.8354 508.228 -73.4017 444.97C-73.9347 443.347 -74.4249 441.727 -74.9512 440.131C-100.492 358.023 -103.396 276.496 -77.9978 220.276C-58.1123 176.263 -20.6742 150.254 21.3409 133.652C44.6178 124.578 69.3211 118.339 95.193 115C117.127 112.014 139.015 110.641 159.929 108.417C200.158 104.201 239.066 96.5557 276.413 85.5284C293.865 80.4377 311.437 74.4951 330.098 69.4563C365.43 59.7834 404.715 54.084 446.43 56.8983C488.98 59.7954 535.013 72.0856 579.611 97.1552C601.834 109.561 623.623 125.334 644.301 143.983C706.475 200.29 756.144 289.363 759.419 359.784" stroke="#9FA8A5" stroke-miterlimit="10"/>
<path d="M218.881 482.73C216.442 494.118 213.413 505.09 209.808 515.6C203.558 533.851 195.248 550.351 185.026 564.803C166.391 590.903 140.715 607.754 109.86 613.368C87.0921 617.512 60.3278 614.962 33.3184 599.114C-17.8845 569.012 -57.1835 504.377 -77.3309 442.256C-77.8502 440.67 -78.3191 439.069 -78.8459 437.503C-103.851 356.847 -105.253 277.223 -79.1098 223.239C-58.2811 180.236 -19.9384 155.882 22.3866 140.065C45.4319 131.398 70.5215 125.647 96.3092 121.943C118.131 118.81 139.818 117.003 160.421 114.089C201.914 108.111 237.611 98.4277 274.158 85.5873C291.144 79.6232 308.334 73.0038 326.667 67.3775C361.428 56.6637 400.435 50.4236 441.989 52.9967C484.329 55.6374 530.283 67.9616 574.795 93.007C596.967 105.411 618.708 121.147 639.351 139.733C701.414 195.814 751.249 283.819 756.363 354.769" stroke="#A3ABA7" stroke-miterlimit="10"/>
<path d="M214.618 483.548C212.118 493.902 209.151 503.927 205.647 513.528C199.112 531.655 190.499 547.981 179.965 562.207C160.728 587.843 134.455 603.996 103.048 608.76C80.4699 612.196 54.1422 609.17 27.625 593.418C-22.6298 563.546 -61.583 500.606 -81.3045 439.631C-81.817 438.072 -82.3011 436.527 -82.778 434.977C-107.177 355.805 -107.154 278.024 -80.287 226.259C-58.4867 184.279 -19.2808 161.482 23.3598 146.539C46.584 138.335 71.7128 132.823 97.3602 128.943C119.07 125.662 140.556 123.422 160.84 119.806C201.74 112.43 236.271 100.384 271.846 85.6983C288.393 78.921 305.151 71.5466 323.171 65.3395C357.334 53.5401 396.084 46.8085 437.491 49.1472C479.713 51.5196 525.546 63.8266 569.994 88.8657C592.111 101.263 613.798 116.96 634.4 135.483C696.346 191.327 746.341 278.254 753.328 349.74" stroke="#A6AEAA" stroke-miterlimit="10"/>
<path d="M210.278 484.243C207.753 493.629 204.826 502.708 201.5 511.477C194.647 529.436 185.707 545.544 174.847 559.505C155.01 584.695 128.146 600.161 96.209 604.029C73.7991 606.769 47.8807 603.192 21.9185 587.637C-27.3809 557.991 -65.9882 496.744 -85.2908 436.906C-85.7824 435.38 -86.2667 433.851 -86.7299 432.339C-110.58 354.718 -109.005 278.809 -81.4282 229.255C-58.6493 188.31 -18.6522 167.099 24.3693 152.975C47.7582 145.227 72.9404 139.961 98.4471 135.92C120.031 132.486 141.323 129.808 161.289 125.506C201.573 116.727 234.932 102.293 269.533 85.762C285.629 78.1336 302.017 70.1048 319.682 63.2656C353.261 50.3872 391.747 43.153 432.972 45.2171C475.09 47.4064 520.794 59.7005 565.192 84.7398C587.253 97.1295 608.887 112.782 629.45 131.232C691.278 186.839 741.461 272.701 750.243 344.727" stroke="#ABB2AC" stroke-miterlimit="10"/>
<path d="M205.847 484.824C203.355 493.279 200.512 501.466 197.317 509.387C190.147 527.197 180.879 543.105 169.687 556.815C149.248 581.542 121.801 596.348 89.3691 599.361C67.1845 601.416 41.6953 597.385 16.2184 581.914C-32.0971 552.491 -70.3655 492.928 -89.2711 434.254C-89.756 432.756 -90.2266 431.264 -90.6758 429.774C-113.955 353.645 -110.851 279.668 -82.5912 232.281C-58.8056 192.399 -18.0025 172.734 25.3566 159.455C48.9388 152.161 74.1458 147.143 99.5122 142.927C120.983 139.345 142.068 136.238 161.737 131.236C201.399 121.045 233.593 104.218 267.242 85.8906C282.886 77.411 298.821 68.5938 316.178 61.279C349.151 47.3038 387.387 39.5736 428.48 41.4413C470.402 43.318 516.013 55.6081 560.304 80.6211C582.316 93.0094 603.903 108.623 624.435 127.007C686.152 182.388 736.501 267.245 747.121 339.752" stroke="#AFB6AF" stroke-miterlimit="10"/>
<path d="M201.354 485.274C198.904 492.848 196.193 500.212 193.157 507.314C185.69 524.963 176.11 540.656 164.599 554.095C143.588 578.357 115.541 592.544 82.5874 594.641C60.5992 596.03 35.5468 591.507 10.5054 576.106C-36.884 546.943 -74.8065 489.073 -93.2643 431.518C-93.7354 430.057 -94.1921 428.588 -94.6346 427.125C-117.343 352.503 -112.687 280.459 -83.7671 235.222C-58.9677 196.415 -17.3797 178.278 26.3313 165.834C50.0777 159.028 75.3601 154.227 100.564 149.848C121.923 146.119 142.807 142.578 162.157 136.891C201.211 125.294 232.241 106.073 264.952 85.894C280.144 76.5789 295.668 67.0403 312.734 59.1154C345.123 44.0613 383.095 35.8284 424.034 37.4504C465.803 39.0972 511.299 51.3655 555.512 76.3655C577.481 88.7761 599.025 104.382 619.521 122.734C681.149 177.876 731.65 261.691 744.072 334.732" stroke="#B3B8B0" stroke-miterlimit="10"/>
<path d="M196.784 485.6C194.423 492.337 191.82 498.888 188.974 505.255C181.197 522.751 171.295 538.24 159.46 551.423C137.826 575.251 109.231 588.818 75.7406 589.961C53.9916 590.688 29.3343 585.608 4.91961 570.389C-41.5146 541.467 -79.1053 485.27 -97.1302 428.872C-97.6015 427.427 -98.0445 425.996 -98.4802 424.56C-120.618 351.429 -114.376 281.36 -84.8155 238.239C-58.9744 200.55 -16.6224 183.909 27.4262 172.31C51.3514 165.966 76.6586 161.414 101.758 156.883C122.998 153.011 143.688 149.032 162.72 142.643C201.158 129.66 231.03 108.042 262.739 86.0512C277.486 75.8804 292.599 65.6361 309.352 57.1461C341.989 40.4767 379.322 32.5304 419.649 33.6696C461.271 35.0662 506.654 47.3284 550.787 72.3154C572.693 84.6923 594.178 100.225 614.636 118.474C676.13 173.404 726.863 256.126 741.116 329.7" stroke="#B6BCB3" stroke-miterlimit="10"/>
<path d="M192.158 485.791C189.906 491.735 187.46 497.525 184.82 503.163C176.733 520.501 166.512 535.784 154.357 548.712C132.122 572.078 102.978 585.072 68.9374 585.239C47.3839 585.346 23.1358 579.715 -0.787307 564.64C-46.2523 535.966 -83.5042 481.467 -101.11 426.205C-101.561 424.794 -101.997 423.389 -102.426 421.98C-123.993 350.356 -116.164 282.277 -85.9784 241.249C-59.0745 204.697 -15.9797 189.533 28.4209 178.77C52.5108 172.882 77.8642 168.581 102.809 163.851C123.937 159.832 144.419 155.409 163.09 148.298C200.934 133.947 229.613 109.891 260.362 86.093C274.643 75.0801 289.359 64.1053 305.799 55.0502C337.797 37.3521 374.848 28.7698 415.087 29.7353C456.556 30.902 501.86 43.1198 545.886 68.1276C567.741 80.4943 589.178 95.9846 609.601 114.168C670.955 168.875 721.833 250.543 737.96 324.623" stroke="#B9BFB5" stroke-miterlimit="10"/>
<path d="M187.492 485.882C185.379 491.076 183.104 496.149 180.666 501.101C172.267 518.286 161.724 533.364 149.247 546.038C126.396 568.965 96.7023 581.386 62.1264 580.552C40.7831 580.032 16.9372 573.838 -6.45853 558.899C-50.9754 530.455 -87.8745 477.661 -105.04 423.506C-105.483 422.122 -105.906 420.755 -106.314 419.379C-127.354 349.258 -117.91 283.198 -87.1335 244.224C-59.1527 208.831 -15.3288 195.105 29.4162 185.199C53.6851 179.774 79.0919 175.719 103.853 170.825C124.876 166.654 145.157 161.796 163.567 154.026C200.768 138.229 228.309 111.825 258.093 86.1925C271.921 74.3441 286.226 62.6478 302.346 53.0164C333.701 34.308 370.474 25.096 410.632 25.89C451.982 26.8198 497.143 39.0496 541.148 64.0552C562.951 76.4228 584.339 91.8761 604.728 109.993C665.987 164.45 717.03 245.098 734.981 319.683" stroke="#BDC2B8" stroke-miterlimit="10"/>
<path d="M182.777 485.818C180.8 490.316 178.711 494.729 176.512 499.055C167.809 516.092 156.947 530.965 144.143 543.374C120.699 565.803 90.4548 577.745 55.3225 575.877C34.1959 574.755 10.7807 568.013 -12.1445 553.183C-55.6769 524.931 -92.2585 473.818 -109.027 420.843C-109.429 419.542 -109.872 418.141 -110.267 416.804C-130.707 348.156 -119.642 284.157 -88.2536 247.254C-59.175 213.054 -14.6431 200.734 30.4398 191.657C54.8872 186.71 80.3333 182.894 104.976 177.81C125.886 173.492 145.96 168.206 164.036 159.743C200.623 142.545 226.999 113.747 255.815 86.312C269.192 73.6126 283.094 61.1904 298.886 50.9872C329.591 31.271 366.087 21.4213 406.169 22.0335C447.323 22.6978 492.363 34.9103 536.282 59.8916C558.02 72.2345 579.345 87.6285 599.686 105.66C660.841 159.902 712.051 239.499 731.84 314.596" stroke="#C0C5BB" stroke-miterlimit="10"/>
<path d="M178.051 485.606C176.246 489.468 174.346 493.245 172.352 496.936C163.334 513.812 152.152 528.478 139.034 540.637C114.995 562.63 84.1864 574.071 48.5343 571.115C27.6173 569.395 4.5911 562.021 -17.7713 547.352C-60.3922 519.384 -96.5991 469.947 -112.949 418.108C-113.372 416.789 -113.767 415.483 -114.133 414.19C-134.01 347.053 -121.31 285.107 -89.3371 250.23C-59.1398 217.257 -13.9209 206.324 31.5067 198.087C56.1048 193.575 81.6253 190.039 106.121 184.767C126.911 180.306 146.792 174.582 164.571 165.419C200.542 146.82 225.761 115.624 253.611 86.3551C266.535 72.8044 280.026 59.6608 295.512 48.888C325.565 28.1818 361.788 17.7008 401.8 18.1338C442.743 18.573 487.612 30.7528 531.496 55.7254C553.193 68.0773 574.48 83.4498 594.793 101.436C655.83 155.442 707.214 233.982 728.834 309.596" stroke="#C5C9BC" stroke-miterlimit="10"/>
<path d="M173.247 485.302C171.623 488.554 169.935 491.748 168.184 494.883C158.854 511.609 147.351 526.07 133.909 537.971C109.276 559.512 77.9094 570.479 41.6869 566.466C20.9723 564.155 -1.64397 556.183 -23.479 541.649C-65.1448 513.923 -101.02 466.173 -116.937 415.493C-117.346 414.196 -117.748 412.894 -118.143 411.588C-137.413 345.982 -123.079 286.135 -90.5496 253.21C-59.2199 221.5 -13.3205 211.912 32.4518 204.516C57.2356 200.493 82.7815 197.159 107.143 191.738C127.815 187.119 147.494 180.961 164.962 171.107C200.318 151.107 224.365 117.507 251.256 86.4146C263.728 72.0285 276.808 58.1634 291.973 46.83C321.35 25.1225 357.29 13.9931 397.231 14.2353C438.092 14.4307 482.91 26.6265 526.666 51.555C548.309 63.9071 569.544 79.2385 589.822 97.1525C650.74 150.921 702.291 228.41 725.749 304.552" stroke="#C8CDBF" stroke-miterlimit="10"/>
<path d="M168.446 484.857C167.016 487.553 165.535 490.203 164.001 492.809C154.369 509.389 142.548 523.649 128.784 535.29C103.55 556.368 71.632 566.919 34.8618 561.773C14.0181 558.949 -7.91639 550.086 -29.1644 535.902C-69.8679 508.412 -105.362 462.413 -120.895 412.812C-121.311 411.519 -121.672 410.285 -122.046 409.028C-140.781 344.873 -124.755 287.215 -91.677 256.245C-59.1938 225.833 -12.6492 217.55 33.4749 211.006C58.4375 207.446 84.0227 204.35 108.237 198.758C128.796 193.991 148.275 187.4 165.425 176.845C200.166 155.442 223.025 119.479 248.978 86.55C260.978 71.2793 273.667 56.7262 288.485 44.7562C316.706 22.0893 352.885 10.3956 392.748 10.3454C433.462 10.2907 478.159 22.4692 521.836 47.3846C543.442 59.7428 564.641 75.0514 584.893 92.9199C645.728 146.507 697.425 222.896 722.721 299.565" stroke="#CCCFC1" stroke-miterlimit="10"/>
<path d="M163.632 484.28C162.396 486.466 161.139 488.619 159.84 490.736C149.902 507.155 137.769 521.203 123.696 532.586C97.8607 553.217 65.3903 563.368 28.0656 557.062C7.46439 553.553 -14.041 544.35 -34.8212 530.152C-74.5622 502.883 -109.774 458.524 -124.832 410.118C-125.255 408.83 -125.588 407.655 -125.948 406.42C-144.112 343.773 -126.447 288.304 -92.7963 259.228C-59.1461 230.152 -11.9775 223.156 34.4698 217.466C59.6041 214.373 85.2285 211.517 109.309 205.744C129.749 200.835 149.027 193.81 165.873 182.559C199.999 159.756 221.715 121.385 246.673 86.6406C258.242 70.5522 270.506 55.2553 285.038 42.7648C312.667 19.0235 348.59 6.82266 388.292 6.53134C428.853 6.23098 473.449 18.4101 517.048 43.3125C538.584 55.6531 559.718 70.9036 579.921 88.6829C640.618 142 692.516 217.377 719.65 294.559" stroke="#CFD2C4" stroke-miterlimit="10"/>
<path d="M158.813 483.582C157.785 485.296 156.743 486.989 155.665 488.657C126.783 534.196 79.7914 563.99 21.198 552.334C-37.3953 540.677 -106.498 479.416 -128.812 407.451C-148.242 344.787 -128.79 289.941 -93.9739 262.263C-59.1575 234.586 -11.313 228.767 35.4792 223.901C82.2715 219.036 130.35 214.266 166.336 188.265C215.368 152.846 236.656 81.9712 281.579 40.7042C336.234 -9.49265 426.121 -10.0928 512.239 39.1599C598.357 88.4127 677.989 185.987 716.601 289.539" stroke="#D3D6C7" stroke-miterlimit="10"/>
</g>
</g>
</svg>
