<svg width="1109" height="1081" viewBox="0 0 1109 1081" fill="none" xmlns="http://www.w3.org/2000/svg">
<g style="mix-blend-mode:soft-light">
<path d="M579.178 695.602C572.425 747.959 574.632 797.69 587.053 840.202C596.706 873.125 612.227 902.309 636.747 918.887C661.267 935.466 695.591 938.264 730.418 920.379C797.652 885.828 842.668 792.06 868.876 711.394C902.371 608.339 923.455 502.212 910.918 413.28C898.38 324.348 847.641 255.369 768.906 252.27C698.162 249.477 616.878 297.669 540.437 319.348C471.626 338.857 406.903 336.786 339.873 346.117C272.844 355.449 199.043 378.997 135.309 438.553C71.5746 498.108 24.273 601.878 46.6941 665.028" stroke="#6C7983" stroke-miterlimit="10"/>
<path d="M581.745 697.331C578.611 725.881 578.276 753.483 580.749 779.601C582.697 800.096 586.525 819.485 592.177 837.49C602.417 869.972 618.697 898.264 643.572 914.179C668.056 929.834 701.797 932.376 736.118 914.594C800.706 881.153 844.778 792.897 870.845 714.753C871.508 712.761 872.172 710.768 872.813 708.778C905.746 607.219 925.654 502.811 912.044 416.237C903.178 359.81 878.153 312.396 840.654 284.796C820.049 269.626 795.565 260.463 767.804 259.207C744.361 258.119 719.877 262.407 694.889 269.221C644.734 282.894 592.755 306.749 542.713 319.389C519.371 325.292 496.47 328.737 473.71 331.105C430.633 335.599 388.02 336.329 344.314 342.231C299.822 348.248 252.297 360.786 206.685 385.966C183.778 398.438 161.33 414.744 140.187 434.273C76.5342 493.569 29.1023 596.31 49.6782 659.983" stroke="#6F7C85" stroke-miterlimit="10"/>
<path d="M584.406 699.151C582.006 726.383 582.185 752.67 584.939 777.546C587.19 797.881 591.336 817.065 597.316 834.818C608.158 866.837 625.168 894.266 650.411 909.495C674.845 924.233 708.017 926.497 741.803 908.877C805.437 875.678 849.17 789.106 874.811 712.109C875.468 710.138 876.11 708.179 876.738 706.231C909.107 606.168 927.839 503.463 913.214 419.299C903.577 363.803 877.525 318.045 839.682 291.302C818.917 276.341 794.159 267.821 766.746 266.202C743.437 264.981 719.139 268.826 694.455 274.945C644.944 287.188 594.109 308.667 545.033 319.489C522.136 324.552 499.653 327.264 477.199 329.078C434.72 332.471 392.357 332.705 348.769 338.355C304.431 344.126 257.012 356.606 211.494 381.814C188.648 394.299 166.261 410.568 145.158 430.02C81.6172 489.107 34.0115 590.792 52.7553 654.903" stroke="#738189" stroke-miterlimit="10"/>
<path d="M587.188 700.907C585.462 726.82 586.095 751.806 589.078 775.46C591.639 795.632 596.106 814.612 602.412 832.118C613.833 863.677 631.588 890.236 657.207 904.784C681.578 918.628 714.194 920.607 747.453 903.123C810.132 870.165 853.511 785.266 878.741 709.425C879.388 707.49 880.024 705.558 880.648 703.629C912.445 605.057 929.974 504.068 914.334 422.282C903.902 367.734 876.839 323.642 838.644 297.735C817.661 283.283 792.932 274.975 765.674 273.22C742.477 271.851 718.38 275.263 694.014 280.68C645.111 291.533 595.42 310.652 547.325 319.618C524.893 323.822 502.815 325.825 480.681 327.063C438.787 329.376 396.688 329.108 353.296 334.539C309.105 340.075 261.801 352.534 216.326 377.785C193.518 390.245 171.165 406.462 150.081 425.846C86.6506 484.691 38.8783 585.324 55.7855 650.042" stroke="#76838B" stroke-miterlimit="10"/>
<path d="M590.106 702.638C588.996 727.244 590.046 750.943 593.239 773.387C596.109 793.394 600.894 812.168 607.522 829.428C619.566 860.537 638.023 886.215 664.025 900.086C688.318 913.043 720.385 914.725 753.16 897.389C814.848 864.65 857.93 781.414 882.699 706.745C883.342 704.833 883.985 702.889 884.572 701.035C915.798 603.954 932.109 504.704 915.482 425.267C904.256 371.652 876.174 329.237 837.641 304.175C816.427 290.193 791.692 282.081 764.544 280.201C741.473 278.678 717.571 281.652 693.523 286.384C645.235 295.819 596.759 312.53 549.58 319.692C527.615 323.039 505.926 324.338 484.112 324.999C442.817 326.228 400.975 325.468 357.73 330.664C313.692 335.94 266.495 348.403 221.127 373.596C198.377 386.051 176.082 402.232 155.045 421.557C91.7326 480.165 43.7796 579.754 58.8628 644.977" stroke="#7A878E" stroke-miterlimit="10"/>
<path d="M593.144 704.337C592.592 727.648 594.019 750.077 597.407 771.319C600.568 791.182 605.662 809.767 612.611 826.787C625.25 857.445 644.416 882.261 670.815 895.433C695.043 907.48 726.556 908.893 758.782 891.664C819.571 859.139 862.301 777.64 886.658 704.064C887.28 702.185 887.902 700.307 888.495 698.442C919.13 602.854 934.229 505.332 916.616 428.275C904.575 375.61 875.524 334.873 836.625 310.621C815.192 297.129 790.472 289.204 763.464 287.167C740.505 285.497 716.803 288.037 693.053 292.069C645.394 300.112 598.033 314.445 551.885 319.752C530.351 322.281 509.087 322.836 487.586 322.917C446.875 323.066 405.297 321.803 362.178 326.799C318.294 331.844 271.211 344.286 225.928 369.47C203.233 381.925 180.99 398.065 159.988 417.318C96.8146 475.656 48.6599 574.233 61.9269 639.997" stroke="#7E8A8F" stroke-miterlimit="10"/>
<path d="M596.297 705.998C596.277 728.01 598.041 749.179 601.568 769.247C605.049 788.934 610.474 807.299 617.757 824.056C631.025 854.27 650.858 878.214 677.661 890.691C701.791 901.931 732.782 902.955 764.488 885.867C824.322 853.584 866.664 773.799 890.616 701.383C891.231 699.531 891.832 697.686 892.419 695.848C922.512 601.77 936.321 505.972 917.757 431.272C904.879 379.543 874.838 340.454 835.616 317.072C813.966 304.064 789.255 296.328 762.377 294.144C739.552 292.294 716.037 294.438 692.612 297.773C645.547 304.417 599.379 316.312 554.141 319.889C533.066 321.572 512.213 321.405 491.033 320.925C450.927 319.978 409.634 318.164 366.662 322.94C322.924 327.735 275.956 340.171 230.765 365.304C208.12 377.746 185.925 393.844 164.959 413.034C101.883 471.184 53.5538 568.658 64.9826 634.935" stroke="#828D91" stroke-miterlimit="10"/>
<path d="M599.548 707.581C599.986 728.318 602.042 748.248 605.693 767.151C609.483 786.678 615.223 804.841 622.824 821.354C636.671 851.091 657.214 874.222 684.436 885.982C708.452 896.343 738.93 897.063 770.123 880.119C829.017 848.118 871.041 769.982 894.575 698.718C895.176 696.904 895.771 695.086 896.343 693.27C925.866 600.699 938.392 506.631 918.892 434.296C905.205 383.506 874.173 346.08 834.599 323.535C812.739 311.007 788.037 303.455 761.29 301.122C738.549 299.168 715.241 300.821 692.142 303.474C645.706 308.71 600.696 318.223 556.438 319.928C535.815 320.76 515.366 319.883 494.499 318.822C454.97 316.791 413.929 314.544 371.152 319.023C327.568 323.589 280.714 336.002 235.574 361.152C212.982 373.601 190.84 389.662 169.909 408.784C106.937 466.704 58.477 563.133 68.039 629.919" stroke="#859094" stroke-miterlimit="10"/>
<path d="M602.993 709.145C603.842 728.627 606.151 747.343 609.897 765.106C613.993 784.471 620.055 802.425 627.985 818.68C642.454 847.921 663.643 870.259 691.297 881.296C715.179 890.843 745.172 891.197 775.844 874.378C833.733 842.602 875.425 766.154 898.526 696.033C899.128 694.235 899.701 692.45 900.275 690.665C929.219 599.581 940.442 507.276 920.04 437.282C905.509 387.439 873.509 351.675 833.597 329.975C811.526 317.943 786.832 310.584 760.218 308.108C737.589 306.007 714.518 307.249 691.694 309.189C645.873 313.023 602.028 320.143 558.737 320.03C538.566 320.01 518.542 318.405 497.981 316.775C459.065 313.667 418.23 310.897 375.622 315.156C332.184 319.471 285.451 331.867 240.383 357.015C217.839 369.463 195.743 385.492 174.846 404.555C111.984 462.25 63.3505 557.623 71.0816 624.926" stroke="#899496" stroke-miterlimit="10"/>
<path d="M606.507 710.629C607.732 728.865 610.256 746.385 614.058 763.033C618.457 782.244 624.84 799.994 633.102 815.994C648.144 844.817 670.006 866.271 698.108 876.609C721.862 885.331 751.363 885.316 781.508 868.617C838.427 837.074 879.781 762.34 902.47 693.343C903.05 691.578 903.653 689.843 904.177 688.074C932.564 598.474 942.462 507.934 921.152 440.26C905.77 391.376 872.836 357.234 832.559 336.408C810.281 324.864 785.591 317.696 759.102 315.082C736.592 312.824 713.7 313.618 691.216 314.886C646.004 317.314 603.317 322.036 561.006 320.098C541.28 319.238 521.66 316.907 501.426 314.705C463.102 310.508 422.525 307.293 380.069 311.259C336.827 315.277 290.16 327.73 245.177 352.853C222.691 365.286 200.65 381.267 179.795 400.258C117.051 457.715 68.237 552.044 74.1372 619.864" stroke="#8D989A" stroke-miterlimit="10"/>
<path d="M610.15 712.037C611.69 729.059 614.389 745.411 618.226 760.965C622.933 780.011 629.634 797.55 638.219 813.292C653.842 841.702 676.407 862.338 704.926 871.912C728.539 879.831 757.533 879.405 787.194 862.885C843.179 831.581 884.187 758.51 906.47 690.626C907.044 688.889 907.619 687.182 908.136 685.456C935.953 597.363 944.497 508.585 922.328 443.233C906.067 395.305 872.193 362.843 831.592 342.823C809.103 331.779 784.412 324.8 758.05 322.035C735.66 319.634 712.969 319.995 690.796 320.556C646.198 321.583 604.684 323.917 563.325 320.151C544.058 318.444 524.842 315.403 504.922 312.636C467.189 307.348 426.896 303.597 384.581 307.371C341.423 311.224 294.884 323.648 250 348.725C227.566 361.157 205.575 377.094 184.752 396.012C122.127 453.233 73.1458 546.509 77.2081 614.857" stroke="#919B9C" stroke-miterlimit="10"/>
<path d="M613.905 713.361C615.71 729.194 618.545 744.407 622.387 758.893C627.398 777.778 634.416 795.11 643.322 810.598C659.56 838.522 682.779 858.402 711.729 867.205C735.194 874.333 763.746 873.537 792.857 857.124C847.902 826.07 888.564 754.693 910.401 687.99C910.961 686.291 911.522 684.591 912.039 682.896C939.327 596.243 946.455 509.313 923.448 446.263C906.308 399.308 871.5 368.483 830.54 349.326C807.849 338.75 783.153 331.94 756.906 329.023C734.628 326.474 712.131 326.413 690.276 326.273C646.287 325.894 605.951 325.827 565.552 320.254C546.737 317.697 527.932 313.934 508.332 310.591C471.197 304.217 431.155 299.97 388.993 303.499C346.01 307.088 299.606 319.457 254.765 344.546C232.385 356.973 210.445 372.869 189.659 391.719C127.137 448.725 78.0175 540.89 80.214 609.81" stroke="#949E9D" stroke-miterlimit="10"/>
<path d="M617.767 714.596C619.797 729.262 622.73 743.361 626.548 756.804C631.86 775.548 639.201 792.684 648.447 807.916C665.286 835.378 689.108 854.47 718.554 862.512C741.899 868.819 769.924 867.709 798.522 851.426C852.626 820.56 892.948 750.866 914.359 685.31C914.913 683.637 915.445 681.966 915.963 680.302C942.653 595.201 948.412 510.024 924.583 449.271C906.52 403.323 870.843 374.082 829.545 355.755C806.651 345.7 781.953 339.1 755.834 336.057C733.668 333.361 711.372 332.866 689.822 332.046C646.462 330.274 607.277 327.806 567.851 320.403C549.481 317.006 531.087 312.522 511.786 308.635C475.236 301.183 435.465 296.438 393.443 299.727C350.613 303.071 304.323 315.434 259.575 340.518C237.263 352.908 215.385 368.735 194.645 387.491C132.241 444.26 82.9203 535.429 83.3135 604.806" stroke="#98A1A0" stroke-miterlimit="10"/>
<path d="M621.741 715.746C623.948 729.287 626.948 742.309 630.723 754.741C636.345 773.324 644.006 790.254 653.571 805.235C671.004 832.245 695.458 850.568 725.379 857.819C748.513 863.419 776.172 861.785 804.221 845.64C857.349 815.049 897.346 747.015 918.317 682.629C918.85 680.989 919.368 679.341 919.887 677.708C946.028 594.128 950.355 510.742 925.724 452.268C906.774 407.256 870.171 379.688 828.528 362.201C805.447 352.63 780.752 346.206 754.761 343.011C732.707 340.168 710.619 339.229 689.394 337.696C646.649 334.523 608.622 329.672 570.156 320.447C552.252 316.207 534.269 310.986 515.302 306.501C479.337 297.985 439.83 292.722 397.968 295.77C355.285 298.88 309.109 311.221 264.44 336.292C242.164 348.709 220.324 364.528 199.61 383.249C137.324 439.782 87.8002 529.877 86.3984 599.777" stroke="#9CA4A2" stroke-miterlimit="10"/>
<path d="M625.815 716.787C628.159 729.231 631.187 741.211 634.884 752.668C640.814 771.094 648.793 787.818 658.681 802.545C676.723 829.096 701.788 846.683 732.169 853.166C755.155 857.991 782.349 855.895 809.893 839.9C862.05 809.54 901.695 743.228 922.262 679.97C922.795 678.347 923.285 676.727 923.811 675.131C949.352 593.023 952.256 511.496 926.858 455.276C906.972 411.263 869.534 385.254 827.519 368.652C804.242 359.578 779.539 353.339 753.667 350C731.733 347.014 709.845 345.641 688.931 343.417C648.702 339.201 609.794 331.556 572.447 320.528C554.995 315.438 537.423 309.495 518.762 304.456C483.43 294.783 444.145 289.084 402.43 291.898C359.88 294.795 313.847 307.086 269.249 332.155C247.026 344.561 225.237 360.334 204.559 378.983C142.385 435.29 92.7165 524.363 89.4409 594.784" stroke="#9FA8A5" stroke-miterlimit="10"/>
<path d="M629.979 717.73C632.418 729.118 635.447 740.09 639.053 750.6C645.302 768.851 653.612 785.351 663.834 799.803C682.469 825.903 708.145 842.754 739 848.368C761.768 852.512 788.532 849.962 815.542 834.114C866.745 804.012 906.044 739.377 926.191 677.256C926.71 675.67 927.179 674.069 927.706 672.503C952.711 591.847 954.113 512.223 927.97 458.239C907.141 415.236 868.798 390.882 826.473 375.065C803.428 366.398 778.339 360.647 752.551 356.943C730.729 353.81 709.042 352.003 688.439 349.089C646.946 343.112 611.249 333.428 574.702 320.587C557.716 314.623 540.526 308.004 522.193 302.378C487.432 291.664 448.425 285.424 406.871 287.997C364.531 290.637 318.577 302.962 274.065 328.007C251.893 340.411 230.152 356.147 209.51 374.733C147.446 430.814 97.6109 518.819 92.4974 589.769" stroke="#A3ABA7" stroke-miterlimit="10"/>
<path d="M634.242 718.548C636.742 728.902 639.709 738.927 643.213 748.528C649.748 766.655 658.361 782.981 668.895 797.207C688.132 822.843 714.405 838.996 745.812 843.76C768.39 847.196 794.718 844.17 821.235 828.418C871.49 798.546 910.443 735.606 930.165 674.631C930.677 673.072 931.161 671.527 931.638 669.977C956.037 590.805 956.014 513.024 929.147 461.258C907.347 419.279 868.141 396.482 825.5 381.539C802.276 373.335 777.147 367.823 751.5 363.943C729.79 360.662 708.304 358.422 688.02 354.806C647.121 347.429 612.589 335.384 577.014 320.698C560.467 313.921 543.709 306.547 525.689 300.339C491.526 288.54 452.777 281.808 411.369 284.147C369.147 286.52 323.314 298.827 278.866 323.866C256.749 336.263 235.062 351.96 214.46 370.482C152.514 426.327 102.519 513.253 95.5321 584.74" stroke="#A6AEAA" stroke-miterlimit="10"/>
<path d="M638.582 719.243C641.107 728.629 644.034 737.708 647.36 746.477C654.213 764.436 663.153 780.544 674.013 794.505C693.85 819.695 720.714 835.161 752.651 839.029C775.061 841.769 800.979 838.192 826.942 822.637C876.241 792.991 914.848 731.744 934.151 671.906C934.642 670.38 935.127 668.851 935.59 667.339C959.44 589.718 957.866 513.809 930.288 464.255C907.509 423.31 867.512 402.099 824.491 387.975C801.102 380.227 775.92 374.961 750.413 370.92C728.83 367.486 707.537 364.808 687.571 360.506C647.287 351.727 613.928 337.293 579.327 320.762C563.231 313.134 546.843 305.105 529.178 298.266C495.599 285.387 457.113 278.153 415.888 280.217C373.77 282.406 328.066 294.7 283.668 319.74C261.607 332.129 239.973 347.782 219.41 366.232C157.582 421.839 107.399 507.701 98.6173 579.727" stroke="#ABB2AC" stroke-miterlimit="10"/>
<path d="M643.013 719.824C645.505 728.279 648.348 736.466 651.543 744.387C658.713 762.197 667.981 778.105 679.173 791.815C699.612 816.542 727.059 831.348 759.491 834.361C781.676 836.416 807.165 832.385 832.642 816.914C880.957 787.491 919.226 727.928 938.131 669.254C938.616 667.756 939.087 666.264 939.536 664.774C962.815 588.645 959.711 514.668 931.451 467.281C907.666 427.399 866.863 407.734 823.504 394.455C799.921 387.161 774.714 382.143 749.348 377.927C727.877 374.345 706.792 371.238 687.123 366.236C647.461 356.045 615.267 339.218 581.618 320.891C565.975 312.411 550.039 303.594 532.682 296.279C499.709 282.304 461.473 274.574 420.38 276.441C378.458 278.318 332.847 290.608 288.556 315.621C266.544 328.009 244.957 343.623 224.425 362.007C162.708 417.388 112.359 502.245 101.739 574.752" stroke="#AFB6AF" stroke-miterlimit="10"/>
<path d="M647.506 720.274C649.956 727.848 652.667 735.212 655.704 742.314C663.17 759.963 672.75 775.656 684.261 789.095C705.272 813.357 733.319 827.544 766.273 829.641C788.261 831.03 813.313 826.507 838.355 811.106C885.744 781.943 923.667 724.073 942.124 666.517C942.595 665.057 943.052 663.588 943.495 662.125C966.203 587.503 961.547 515.459 932.627 470.222C907.828 431.414 866.24 413.278 822.529 400.834C798.782 394.028 773.5 389.227 748.296 384.848C726.937 381.119 706.053 377.578 686.703 371.891C647.649 360.294 616.619 341.073 583.908 320.894C568.716 311.579 553.192 302.04 536.126 294.115C503.737 279.061 465.765 270.828 424.826 272.45C383.058 274.097 337.561 286.366 293.348 311.365C271.379 323.776 249.835 339.382 229.339 357.734C167.711 412.876 117.21 496.691 104.788 569.732" stroke="#B3B8B0" stroke-miterlimit="10"/>
<path d="M652.076 720.6C654.437 727.337 657.04 733.888 659.886 740.255C667.663 757.751 677.565 773.24 689.4 786.423C711.034 810.251 739.629 823.818 773.12 824.961C794.869 825.688 819.526 820.608 843.941 805.389C890.375 776.467 927.965 720.27 945.99 663.872C946.462 662.427 946.905 660.996 947.34 659.56C969.478 586.429 963.236 516.36 933.676 473.239C907.835 435.55 865.483 418.909 821.434 407.31C797.509 400.966 772.202 396.414 747.102 391.883C725.863 388.011 705.172 384.032 686.141 377.643C647.702 364.66 617.83 343.042 586.122 321.051C571.375 310.88 556.262 300.636 539.508 292.146C506.871 275.477 469.538 267.53 429.211 268.67C387.589 270.066 342.207 282.328 298.073 307.315C276.167 319.692 254.682 335.225 234.224 353.474C172.73 408.404 121.997 491.126 107.744 564.7" stroke="#B6BCB3" stroke-miterlimit="10"/>
<path d="M656.702 720.791C658.954 726.735 661.4 732.526 664.04 738.163C672.127 755.501 682.348 770.784 694.503 783.713C716.738 807.078 745.882 820.072 779.923 820.239C801.476 820.346 825.724 814.715 849.647 799.64C895.112 770.966 932.364 716.467 949.97 661.205C950.421 659.794 950.857 658.389 951.286 656.98C972.853 585.356 965.024 517.277 934.838 476.249C907.935 439.697 864.84 424.533 820.439 413.77C796.349 407.882 770.996 403.581 746.051 398.852C724.924 394.832 704.441 390.409 685.77 383.298C647.926 368.947 619.247 344.891 588.498 321.093C574.217 310.08 559.501 299.105 543.061 290.05C511.063 272.352 474.012 263.77 433.773 264.735C392.304 265.902 347 278.12 302.974 303.128C281.119 315.494 259.682 330.985 239.26 349.168C177.905 403.875 127.027 485.544 110.9 559.623" stroke="#B9BFB5" stroke-miterlimit="10"/>
<path d="M661.368 720.883C663.481 726.076 665.756 731.149 668.194 736.101C676.593 753.286 687.136 768.364 699.614 781.038C722.464 803.965 752.158 816.386 786.734 815.552C808.077 815.032 831.923 808.838 855.319 793.899C899.835 765.455 936.735 712.661 953.9 658.506C954.343 657.122 954.766 655.755 955.174 654.379C976.214 584.258 966.77 518.198 935.994 479.224C908.013 443.831 864.189 430.105 819.444 420.199C795.175 414.774 769.768 410.719 745.007 405.825C723.984 401.654 703.703 396.797 685.294 389.026C648.092 373.229 620.551 346.825 590.768 321.192C576.939 309.344 562.634 297.648 546.514 288.016C515.159 269.308 478.386 260.096 438.228 260.89C396.878 261.82 351.717 274.05 307.712 299.055C285.909 311.423 264.521 326.876 244.132 344.993C182.874 399.45 131.83 480.098 113.879 554.683" stroke="#BDC2B8" stroke-miterlimit="10"/>
<path d="M666.083 720.818C668.06 725.316 670.149 729.729 672.348 734.055C681.051 751.092 691.913 765.965 704.717 778.374C728.161 800.803 758.405 812.745 793.538 810.877C814.664 809.755 838.079 803.013 861.005 788.183C904.537 759.931 941.119 708.818 957.887 655.843C958.289 654.542 958.733 653.141 959.127 651.804C979.567 583.156 968.502 519.157 937.114 482.254C908.035 448.054 863.503 435.734 818.42 426.657C793.973 421.71 768.527 417.894 743.884 412.81C722.974 408.492 702.9 403.206 684.824 394.743C648.238 377.545 621.861 348.747 593.045 321.312C579.668 308.613 565.767 296.19 549.974 285.987C519.269 266.271 482.773 256.421 442.691 257.033C401.537 257.698 356.497 269.91 312.578 294.892C290.841 307.234 269.515 322.629 249.174 340.66C188.019 394.902 136.809 474.499 117.02 549.596" stroke="#C0C5BB" stroke-miterlimit="10"/>
<path d="M670.809 720.606C672.615 724.468 674.514 728.245 676.508 731.936C685.526 748.812 696.708 763.478 709.826 775.637C733.865 797.63 764.674 809.071 800.326 806.115C821.243 804.395 844.269 797.021 866.631 782.352C909.252 754.384 945.459 704.947 961.809 653.108C962.232 651.789 962.627 650.483 962.993 649.19C982.87 582.053 970.17 520.107 938.197 485.23C908 452.257 862.781 441.324 817.353 433.087C792.755 428.575 767.235 425.039 742.739 419.767C721.949 415.306 702.069 409.582 684.289 400.419C648.318 381.82 623.1 350.624 595.249 321.355C582.325 307.804 568.834 294.661 553.348 283.888C523.295 263.182 487.072 252.701 447.06 253.134C406.117 253.573 361.248 265.753 317.364 290.725C295.667 303.077 274.38 318.45 254.067 336.436C193.03 390.442 141.647 468.982 120.026 544.596" stroke="#C5C9BC" stroke-miterlimit="10"/>
<path d="M675.613 720.302C677.237 723.554 678.925 726.748 680.677 729.883C690.006 746.609 701.509 761.07 714.951 772.971C739.584 794.512 770.951 805.479 807.173 801.466C827.888 799.155 850.504 791.183 872.339 776.649C914.005 748.923 949.88 701.173 965.797 650.493C966.206 649.196 966.608 647.894 967.003 646.588C986.274 580.982 971.939 521.135 939.41 488.21C908.08 456.5 862.181 446.913 816.408 439.516C791.625 435.494 766.079 432.159 741.717 426.738C721.045 422.119 701.366 415.961 683.898 406.107C648.542 386.107 624.496 352.507 597.604 321.415C585.132 307.029 572.052 293.163 556.887 281.83C527.51 260.123 491.57 248.993 451.629 249.235C410.768 249.431 365.95 261.627 322.194 286.555C300.551 298.907 279.316 314.239 259.039 332.153C198.12 385.921 146.569 463.41 123.111 539.552" stroke="#C8CDBF" stroke-miterlimit="10"/>
<path d="M680.414 719.857C681.844 722.553 683.326 725.203 684.859 727.809C694.491 744.389 706.312 758.649 720.076 770.29C745.31 791.368 777.228 801.919 813.998 796.773C834.842 793.949 856.777 785.086 878.025 770.902C918.728 743.412 954.222 697.412 969.755 647.812C970.172 646.519 970.532 645.285 970.906 644.028C989.641 579.873 973.616 522.215 940.537 491.245C908.054 460.833 861.509 452.55 815.385 446.006C790.423 442.445 764.837 439.35 740.623 433.758C720.064 428.991 700.585 422.4 683.435 411.845C648.695 390.442 625.835 354.479 599.882 321.55C587.882 306.279 575.193 291.726 560.375 279.756C532.155 257.089 495.975 245.396 456.112 245.345C415.398 245.291 370.701 257.469 327.024 282.385C305.418 294.743 284.219 310.051 263.967 327.92C203.132 381.507 151.435 457.896 126.139 534.565" stroke="#CCCFC1" stroke-miterlimit="10"/>
<path d="M685.228 719.28C686.464 721.466 687.721 723.619 689.02 725.736C698.958 742.155 711.091 756.203 725.165 767.586C750.999 788.217 783.47 798.368 820.794 792.062C841.396 788.553 862.901 779.35 883.681 765.152C923.422 737.883 958.634 693.524 973.692 645.118C974.115 643.83 974.448 642.655 974.808 641.42C992.972 578.773 975.307 523.304 941.656 494.228C908.006 465.152 860.838 458.156 814.39 452.466C789.256 449.373 763.632 446.517 739.551 440.744C719.111 435.835 699.833 428.81 682.987 417.559C648.861 394.756 627.146 356.385 602.187 321.641C590.619 305.552 578.354 290.255 563.822 277.765C536.193 254.024 500.27 241.823 460.568 241.531C420.007 241.231 375.411 253.41 331.812 278.313C310.276 290.653 289.142 305.904 268.939 323.683C208.242 377 156.344 452.377 129.21 529.559" stroke="#CFD2C4" stroke-miterlimit="10"/>
<path d="M690.047 718.582C691.075 720.296 692.117 721.989 693.195 723.657C722.077 769.196 769.069 798.99 827.662 787.334C886.255 775.677 955.358 714.416 977.672 642.45C997.102 579.787 977.65 524.941 942.834 497.263C908.017 469.585 860.173 463.767 813.381 458.901C766.589 454.036 718.51 449.266 682.524 423.265C633.492 387.846 612.204 316.971 567.282 275.704C512.626 225.507 422.739 224.907 336.621 274.16C250.503 323.413 170.871 420.987 132.26 524.539" stroke="#D3D6C7" stroke-miterlimit="10"/>
</g>
</svg>
