<svg width="20" height="20" viewBox="0 0 20 20" fill="none" xmlns="http://www.w3.org/2000/svg">
<circle cx="9.56714" cy="9.56714" r="9.56714" fill="#1B291F"/>
<path d="M5 8.72968C5 7.7744 5.77425 7 6.72934 7H12.2707C13.2257 7 14 7.7744 14 8.72968V11.4823C14 12.4376 13.2257 13.212 12.2707 13.212H6.72934C5.77425 13.212 5 12.4376 5 11.4823V8.72968Z" fill="white"/>
<path d="M8.59511 11.2848V8.92714C8.59511 8.85543 8.67302 8.81083 8.73488 8.84714L10.7504 10.03C10.8116 10.066 10.8114 10.1545 10.7501 10.1902L8.73464 11.3649C8.67278 11.401 8.59511 11.3564 8.59511 11.2848Z" fill="#1B291F"/>
<path fill-rule="evenodd" clip-rule="evenodd" d="M8.73985 8.84002C8.68403 8.80727 8.61372 8.8475 8.61372 8.91219V11.2752C8.61372 11.3398 8.68381 11.3801 8.73963 11.3475L10.7605 10.1701C10.8158 10.1379 10.8159 10.058 10.7607 10.0256L8.73985 8.84002ZM8.59511 8.91219C8.59511 8.83313 8.68104 8.78396 8.74927 8.82398L10.7701 10.0096C10.8376 10.0492 10.8375 10.1468 10.7699 10.1862L8.749 11.3636C8.68077 11.4034 8.59511 11.3542 8.59511 11.2752V8.91219Z" fill="white"/>
</svg>
