<svg width="20" height="20" viewBox="0 0 20 20" fill="none" xmlns="http://www.w3.org/2000/svg">
<circle cx="9.56714" cy="9.56714" r="9.56714" fill="#1B291F"/>
<path d="M10.1569 15H8.55935C8.50722 15 8.46494 14.9564 8.46483 14.9025L8.45578 10.5172C8.45567 10.4633 8.41338 10.4197 8.36126 10.4197H7.09452C7.04232 10.4197 7 10.376 7 10.3221V8.77906C7 8.72512 7.04232 8.6814 7.09452 8.6814H8.36263C8.41422 8.6814 8.45626 8.63926 8.4571 8.58597C8.46159 8.3006 8.47448 7.45461 8.47448 7.14814C8.47448 6.78698 8.5998 6.40733 8.60652 6.38722C8.60674 6.38657 8.6069 6.3861 8.6071 6.38545C8.70837 6.066 9.08576 5.37245 9.78828 5.14611C10.4523 4.93215 11.4384 4.99746 11.9202 5.0657C11.9664 5.07224 12 5.11322 12 5.16135V6.55844C12 6.60996 11.9613 6.65266 11.9114 6.65454C11.45 6.67192 10.682 6.62514 10.4783 6.83562C10.2609 7.06024 10.264 7.21975 10.2514 7.36299V8.58374C10.2514 8.63767 10.2937 8.6814 10.3459 8.6814H11.8434C11.9011 8.6814 11.9453 8.73424 11.9369 8.79317L11.7188 10.3362C11.712 10.3842 11.6722 10.4197 11.6253 10.4197H10.3459C10.2937 10.4197 10.2514 10.4635 10.2514 10.5174V14.9023C10.2514 14.9563 10.2091 15 10.1569 15Z" fill="white"/>
</svg>
