<svg width="20" height="20" viewBox="0 0 20 20" fill="none" xmlns="http://www.w3.org/2000/svg">
<circle cx="9.56714" cy="9.56714" r="9.56714" fill="#1B291F"/>
<path fill-rule="evenodd" clip-rule="evenodd" d="M11.4432 5.78409H7.55682C6.57777 5.78409 5.78409 6.57777 5.78409 7.55682V11.4432C5.78409 12.4222 6.57777 13.2159 7.55682 13.2159H11.4432C12.4222 13.2159 13.2159 12.4222 13.2159 11.4432V7.55682C13.2159 6.57777 12.4222 5.78409 11.4432 5.78409ZM7.55682 5C6.14473 5 5 6.14473 5 7.55682V11.4432C5 12.8553 6.14473 14 7.55682 14H11.4432C12.8553 14 14 12.8553 14 11.4432V7.55682C14 6.14473 12.8553 5 11.4432 5H7.55682Z" fill="white"/>
<path fill-rule="evenodd" clip-rule="evenodd" d="M9.5 11C10.3284 11 11 10.3284 11 9.50001C11 8.67158 10.3284 8.00001 9.5 8.00001C8.67157 8.00001 8 8.67158 8 9.50001C8 10.3284 8.67157 11 9.5 11ZM9.5 11.8182C10.7803 11.8182 11.8182 10.7803 11.8182 9.50001C11.8182 8.21971 10.7803 7.18182 9.5 7.18182C8.2197 7.18182 7.18182 8.21971 7.18182 9.50001C7.18182 10.7803 8.2197 11.8182 9.5 11.8182Z" fill="white"/>
<path d="M12.4659 7.09656C12.4659 7.40722 12.2141 7.65906 11.9034 7.65906C11.5927 7.65906 11.3409 7.40722 11.3409 7.09656C11.3409 6.7859 11.5927 6.53406 11.9034 6.53406C12.2141 6.53406 12.4659 6.7859 12.4659 7.09656Z" fill="white"/>
</svg>
