<svg width="85" height="42" viewBox="0 0 85 42" fill="none" xmlns="http://www.w3.org/2000/svg">
<path d="M55.475 8.35282C55.5595 8.31533 55.6416 8.27257 55.7208 8.2248C56.2662 7.94372 56.8304 7.70076 57.4094 7.49765C58.2582 7.20603 59.1301 6.98634 60.0158 6.84091C60.3999 6.77434 60.784 6.7193 61.168 6.68089C61.5085 6.64633 61.8504 6.61048 62.1922 6.58232C62.3893 6.56567 62.589 6.56439 62.7862 6.55159C63.5543 6.4991 64.3224 6.51063 65.0905 6.50935C65.4835 6.50935 65.8765 6.52983 66.2696 6.55543C66.7816 6.58744 67.2937 6.63992 67.8058 6.70905C68.9048 6.85887 69.9916 7.0882 71.0575 7.39523C72.0968 7.69482 73.1119 8.07271 74.0941 8.52564C74.9328 8.91234 75.7434 9.35722 76.52 9.85704C77.2927 10.3541 78.0274 10.9078 78.7181 11.5136C78.9319 11.6992 79.1393 11.8977 79.3429 12.091C79.4896 12.2344 79.6352 12.3799 79.7794 12.5275C79.8005 12.5561 79.8276 12.5797 79.8588 12.5966L79.9279 12.7413C79.9379 12.8008 79.9564 12.8586 79.9829 12.9129C80.239 13.681 80.495 14.4491 80.7511 15.2172C80.8714 15.5808 80.9917 15.9443 81.1082 16.3092C81.3489 17.0619 81.6037 17.8096 81.8533 18.5598C81.925 18.7761 82.0261 18.9784 82.1183 19.1858C82.3743 19.7721 82.624 20.3648 82.8429 20.9691C83.109 21.7019 83.3309 22.45 83.5073 23.2094C83.5982 23.6024 83.6737 23.998 83.7365 24.3974C83.7851 24.7149 83.8248 25.0375 83.8542 25.355C83.8709 25.5266 83.876 25.7007 83.8875 25.8735C83.9029 26.118 83.9003 26.3625 83.9054 26.607C83.9106 26.8516 83.8965 27.1319 83.8773 27.3931C83.8457 27.8057 83.7923 28.2164 83.7173 28.6233C83.6016 29.2662 83.4241 29.8964 83.1873 30.5052C82.9773 31.0301 82.7202 31.5348 82.4191 32.0133C82.1261 32.4827 81.7965 32.9283 81.4334 33.3459C81.1912 33.6268 80.9348 33.8951 80.6653 34.1499C80.0914 34.6837 79.4711 35.1653 78.8116 35.5888C78.4258 35.8372 78.0315 36.0693 77.6287 36.2853C77.3726 36.4248 77.1051 36.5554 76.8414 36.6847L76.7914 36.7052C76.7722 36.7116 76.7633 36.7052 76.7582 36.6847C76.7582 36.6348 76.794 36.6091 76.8222 36.5797C77.0782 36.3237 77.3342 36.083 77.5621 35.8116C77.79 35.5402 78.0435 35.2649 78.2675 34.9769C78.7083 34.4299 79.1137 33.8552 79.4811 33.2563C79.6603 32.9645 79.8319 32.6675 79.9932 32.3602C80.1024 32.1477 80.2087 31.9343 80.312 31.7201C80.399 31.5486 80.4745 31.3706 80.5462 31.1927C80.621 31.0344 80.6877 30.8725 80.7459 30.7075C80.7494 30.6978 80.7537 30.6883 80.7587 30.6793C80.769 30.6576 80.7767 30.6332 80.7856 30.6102C80.8095 30.556 80.8301 30.5005 80.8471 30.4438C80.8785 30.3708 80.9054 30.296 80.9277 30.2197C80.9367 30.198 80.9444 30.1749 80.9521 30.1519L80.9751 30.0866C80.9828 30.0648 80.9892 30.0431 80.9969 30.0226C81.0045 30.0021 81.0109 29.9791 81.0173 29.9586L81.0391 29.8946C81.0468 29.8741 81.0532 29.8523 81.0609 29.8318C81.0686 29.8114 81.0724 29.7985 81.0775 29.7806C81.0826 29.7627 81.089 29.7461 81.0942 29.7281C81.1124 29.6784 81.1273 29.6275 81.139 29.5758C81.1414 29.5667 81.1444 29.5577 81.1479 29.5489C81.1556 29.5323 81.1633 29.5156 81.1697 29.499C81.1821 29.4697 81.1916 29.4393 81.1979 29.4081C81.1979 29.3902 81.1979 29.3735 81.2068 29.3556C81.2082 29.3473 81.2103 29.3392 81.2132 29.3313C81.2177 29.3106 81.2177 29.2892 81.2132 29.2685C81.2119 29.2598 81.2137 29.2508 81.2184 29.2433C81.2231 29.2358 81.2304 29.2302 81.2388 29.2276C81.2478 29.2276 81.2516 29.2276 81.2555 29.2404C81.2593 29.2532 81.2555 29.2148 81.2555 29.202C81.2631 29.1649 81.2747 29.1277 81.2811 29.0893C81.283 29.0723 81.283 29.0551 81.2811 29.0381C81.2796 29.0299 81.2805 29.0214 81.2836 29.0137C81.2868 29.006 81.2921 28.9994 81.299 28.9946C81.3207 28.9831 81.299 28.9677 81.299 28.9536C81.297 28.9452 81.2977 28.9364 81.3009 28.9284C81.3041 28.9204 81.3097 28.9136 81.3169 28.9088C81.3387 28.8973 81.3169 28.8819 81.3169 28.8678C81.315 28.8596 81.3156 28.8509 81.3185 28.843C81.3215 28.835 81.3267 28.8281 81.3336 28.823C81.3566 28.8128 81.3336 28.7974 81.3336 28.7834C81.3315 28.7751 81.332 28.7664 81.3349 28.7584C81.3379 28.7504 81.3432 28.7435 81.3502 28.7385C81.372 28.727 81.3502 28.7117 81.3502 28.6976C81.3482 28.6892 81.3489 28.6804 81.3521 28.6724C81.3553 28.6644 81.3609 28.6575 81.3681 28.6528C81.3899 28.6425 81.3681 28.6259 81.3681 28.6118C81.366 28.6034 81.3666 28.5945 81.3698 28.5865C81.373 28.5784 81.3787 28.5716 81.386 28.567C81.4116 28.5491 81.386 28.5286 81.386 28.5094C81.3838 28.5007 81.3841 28.4916 81.3871 28.4832C81.3901 28.4747 81.3955 28.4674 81.4027 28.462C81.4244 28.4505 81.4027 28.4339 81.4027 28.4198C81.4003 28.4111 81.401 28.4019 81.4048 28.3937C81.4085 28.3855 81.415 28.3789 81.4232 28.375C81.4603 28.375 81.4232 28.3391 81.4411 28.3263C81.4426 28.3172 81.4447 28.3083 81.4475 28.2994C81.4564 28.2687 81.4564 28.2367 81.4641 28.206C81.4718 28.1753 81.4744 28.142 81.4821 28.11C81.4929 28.0758 81.4929 28.0391 81.4821 28.005C81.4793 27.9963 81.4787 27.987 81.4805 27.9781C81.4823 27.9691 81.4864 27.9608 81.4923 27.9538C81.4963 27.952 81.5007 27.951 81.5051 27.951C81.5095 27.951 81.5139 27.952 81.5179 27.9538C81.5179 27.9666 81.5077 27.9692 81.5179 27.9628C81.5281 27.9564 81.5179 27.9474 81.5179 27.9397C81.5179 27.9115 81.5281 27.8847 81.5294 27.8565C81.5305 27.8316 81.5335 27.8067 81.5384 27.7823C81.5512 27.7426 81.5473 27.699 81.5589 27.6542C81.5704 27.6094 81.5691 27.5697 81.5793 27.5262C81.5896 27.4827 81.5896 27.443 81.5998 27.3982C81.6078 27.3737 81.6126 27.3483 81.6139 27.3227C81.6251 27.3035 81.6375 27.2851 81.651 27.2676C81.6613 27.2191 81.6677 27.1699 81.6702 27.1204C81.6793 27.0945 81.6828 27.067 81.6805 27.0397C81.6792 27.0308 81.6792 27.0218 81.6805 27.0129C81.6844 26.987 81.6818 26.9606 81.6728 26.936C81.669 26.9233 81.6689 26.9097 81.6722 26.8969C81.6756 26.884 81.6825 26.8723 81.692 26.8631C81.692 26.8631 81.7099 26.872 81.7035 26.8541C81.7022 26.8473 81.7022 26.8404 81.7035 26.8336C81.7082 26.8099 81.7116 26.786 81.7138 26.7619C81.713 26.7534 81.713 26.7448 81.7138 26.7363C81.7189 26.7149 81.7189 26.6925 81.7138 26.671C81.7131 26.6621 81.7131 26.6531 81.7138 26.6442C81.7181 26.6122 81.7146 26.5797 81.7035 26.5494C81.7035 26.5149 81.6946 26.4803 81.7291 26.4572C81.747 26.4572 81.7471 26.4739 81.7586 26.479C81.7701 26.4841 81.7496 26.4624 81.7406 26.456C81.7361 26.4505 81.733 26.4441 81.7314 26.4372C81.7299 26.4303 81.7299 26.4231 81.7317 26.4163C81.7371 26.3888 81.7405 26.361 81.7419 26.3331C81.7432 26.3188 81.7458 26.3047 81.7496 26.2908C81.7605 26.2606 81.7605 26.2276 81.7496 26.1974C81.7458 26.1784 81.7458 26.1588 81.7496 26.1398C81.7578 26.1119 81.7617 26.083 81.7611 26.054C81.7621 26.0341 81.7651 26.0144 81.7701 25.9951C81.7823 25.9625 81.7823 25.9266 81.7701 25.894C81.7637 25.8627 81.7637 25.8305 81.7701 25.7992C81.7805 25.7622 81.784 25.7236 81.7803 25.6853C81.7791 25.6352 81.7816 25.5852 81.788 25.5355C81.8044 25.4944 81.8044 25.4486 81.788 25.4075C81.7701 25.0977 81.788 24.7892 81.7803 24.4806C81.7727 24.0659 81.7381 23.6524 81.6984 23.2389C81.6347 22.5817 81.5343 21.9286 81.3976 21.2827C81.1805 20.2325 80.8799 19.2012 80.4989 18.1988C80.2659 17.5919 80.0073 16.9954 79.7154 16.4142C79.0995 15.1601 78.3376 13.9831 77.4456 12.9077C76.9785 12.368 76.4769 11.8592 75.944 11.3843C75.4179 10.897 74.8662 10.438 74.2912 10.0094C73.5789 9.47744 72.8141 9.01974 72.0087 8.64342C71.0024 8.17405 69.9305 7.86066 68.8299 7.714C68.5022 7.67048 68.1745 7.64743 67.8442 7.62439C67.5182 7.60327 67.1913 7.59943 66.8649 7.61287C66.0986 7.64329 65.336 7.7362 64.5848 7.89067C63.4793 8.1258 62.3935 8.44551 61.337 8.84697C60.7997 9.04716 60.2732 9.27535 59.7598 9.53059C58.8362 9.9874 57.9663 10.5456 57.1661 11.1948C56.8973 11.415 56.6387 11.6467 56.3852 11.8861C55.3586 12.8836 54.4641 14.0087 53.7237 15.2338C53.2974 15.9149 52.9044 16.6152 52.537 17.3295C52.0249 18.314 51.5039 19.2895 50.9688 20.2586C50.8407 20.5018 50.7127 20.7476 50.5706 20.987C50.5322 21.0523 50.5604 21.1381 50.4938 21.1893C50.4375 21.1547 50.4375 21.0971 50.4336 21.0421C50.4369 20.9791 50.433 20.916 50.4221 20.8539C50.4016 20.6593 50.4221 20.4634 50.4131 20.2675C50.4042 19.8835 50.4131 19.4994 50.4375 19.1077C50.4818 18.3852 50.5673 17.6659 50.6935 16.9531C50.836 16.1629 51.0362 15.3841 51.2926 14.6232C51.7708 13.1996 52.4614 11.8565 53.3409 10.6392C53.8587 9.92616 54.4402 9.26158 55.0782 8.65366C55.1268 8.6063 55.1819 8.56789 55.2343 8.52564C55.3097 8.46153 55.3902 8.40373 55.475 8.35282Z" fill="#87959E"/>
<path d="M48.393 25.6762C48.4184 25.6422 48.4355 25.6028 48.4429 25.561C48.6157 25.0553 48.8039 24.5561 49.0177 24.0657C49.1573 23.7444 49.3032 23.4256 49.4517 23.1082C49.6309 22.7241 49.8242 22.3503 50.0137 21.9726C50.1417 21.7166 50.2826 21.4606 50.4208 21.2045C50.4395 21.1715 50.4471 21.1334 50.4426 21.0957C50.4362 21.0112 50.4426 20.9254 50.4426 20.8397C50.4823 20.8909 50.4605 20.9485 50.4618 21.0022C50.4582 21.0652 50.4729 21.1279 50.504 21.1828C50.543 21.2699 50.5597 21.3654 50.5527 21.4606C50.5744 21.8817 50.6167 22.3016 50.6679 22.7203C50.7485 23.3757 50.8599 24.0261 50.9969 24.6725C51.1403 25.3434 51.3169 26.0052 51.5205 26.6607C51.7593 27.4306 52.0448 28.1852 52.3757 28.9202C52.6902 29.6292 53.0569 30.3138 53.4728 30.9685C53.7576 31.4186 54.076 31.8465 54.4252 32.2487C54.689 32.5508 54.9693 32.8376 55.2279 33.1448C55.4468 33.4009 55.6696 33.6569 55.8936 33.9065C55.9858 34.0102 56.0792 34.1127 56.1727 34.2151C56.9498 35.0599 57.8135 35.8207 58.7497 36.4849C59.2018 36.8018 59.672 37.0921 60.1579 37.3541C60.7778 37.6864 61.4239 37.9673 62.0897 38.1939C62.8666 38.4594 63.6663 38.6531 64.4786 38.7725C64.9177 38.8366 65.3581 38.8865 65.801 38.9146C66.3358 38.9488 66.8721 38.956 67.4076 38.9364C67.9325 38.9185 68.4548 38.8711 68.9772 38.8084C68.9912 38.8065 69.0054 38.8065 69.0194 38.8084C69.0348 38.8161 69.0514 38.8238 69.068 38.8084C69.1116 38.7866 69.1613 38.7802 69.2089 38.7905C69.2242 38.8046 69.2357 38.802 69.246 38.7905C69.3292 38.7662 69.4154 38.7537 69.502 38.7533C69.5195 38.756 69.5373 38.7533 69.5532 38.7457C69.5687 38.7366 69.586 38.7308 69.6039 38.7289C69.6217 38.7269 69.6398 38.7287 69.6569 38.7341C69.6685 38.7482 69.6787 38.7482 69.6864 38.7341C69.7005 38.7237 69.7169 38.7167 69.7343 38.7138C69.7517 38.7109 69.7695 38.7122 69.7862 38.7175C69.8034 38.7184 69.8204 38.714 69.8349 38.7047C69.8466 38.6979 69.8596 38.6936 69.873 38.6921C69.8864 38.6906 69.9 38.6918 69.913 38.6957C69.9296 38.6971 69.9462 38.6931 69.9603 38.6842C69.9825 38.6694 70.0095 38.6634 70.0359 38.6676C70.0526 38.6727 70.0704 38.6727 70.0871 38.6676C70.1099 38.6532 70.1371 38.6473 70.1639 38.6509C70.1797 38.656 70.1967 38.656 70.2125 38.6509C70.2311 38.64 70.2525 38.6347 70.274 38.6356C70.2906 38.6381 70.3076 38.6355 70.3226 38.6279C70.3448 38.6142 70.371 38.6083 70.3969 38.6112C70.4127 38.6139 70.4289 38.6112 70.443 38.6036C70.4614 38.5924 70.4831 38.5879 70.5044 38.5908C70.5202 38.5959 70.5372 38.5959 70.5531 38.5908C70.5713 38.58 70.5921 38.5747 70.6132 38.5754C70.6287 38.5798 70.6451 38.5798 70.6606 38.5754C70.6786 38.5641 70.6996 38.5587 70.7208 38.56C70.7358 38.5645 70.7518 38.5645 70.7669 38.56C70.7846 38.5493 70.805 38.5439 70.8257 38.5447C70.8416 38.5461 70.8574 38.542 70.8705 38.5332C70.888 38.522 70.9089 38.5175 70.9294 38.5204C70.9444 38.5253 70.9606 38.5253 70.9755 38.5204C70.9892 38.5115 71.0054 38.5074 71.0216 38.5088C71.0401 38.5164 71.0608 38.5164 71.0792 38.5088C71.09 38.5011 71.1031 38.4974 71.1163 38.4986C71.1343 38.4986 71.156 38.5191 71.1714 38.4909C71.1768 38.4837 71.1841 38.4783 71.1925 38.4751C71.2009 38.4719 71.21 38.4712 71.2188 38.473C71.238 38.473 71.2585 38.496 71.2764 38.473C71.2813 38.4657 71.2884 38.46 71.2966 38.4568C71.3048 38.4536 71.3139 38.453 71.3225 38.4551C71.3365 38.4551 71.3519 38.473 71.3621 38.4551C71.3667 38.4483 71.3731 38.443 71.3806 38.4399C71.3881 38.4367 71.3964 38.4357 71.4044 38.4371C71.42 38.4408 71.4358 38.4434 71.4518 38.4448C71.4683 38.4434 71.4847 38.4399 71.5004 38.4346C71.5125 38.4307 71.5249 38.4281 71.5375 38.4269C71.5594 38.4259 71.581 38.4215 71.6015 38.4141L71.6399 38.4051C71.6578 38.4014 71.6754 38.3962 71.6924 38.3898H71.7206C71.7727 38.3827 71.8241 38.3711 71.8742 38.3552L71.9305 38.3424C71.9536 38.3424 71.9766 38.3309 71.9997 38.3258L72.0534 38.3117L72.1367 38.2912C72.1648 38.2835 72.193 38.2784 72.2212 38.2694C72.2401 38.2646 72.2593 38.2611 72.2788 38.2592C72.3069 38.2592 72.3351 38.2451 72.3633 38.24C72.3914 38.2349 72.4183 38.2246 72.4465 38.2195L72.5028 38.2041C72.5553 38.1913 72.6065 38.1798 72.6577 38.1645L72.6859 38.1555C72.7179 38.1465 72.7511 38.1363 72.7844 38.1299L72.8267 38.1171C72.9007 38.1009 72.9737 38.0809 73.0456 38.0569C73.0599 38.0523 73.0744 38.0485 73.0891 38.0454C73.1284 38.0374 73.1669 38.0263 73.2043 38.0121C73.2799 37.9955 73.3516 37.9686 73.4258 37.9494L73.454 37.9404C73.4988 37.9276 73.5436 37.9187 73.582 37.9033C73.6921 37.8662 73.8035 37.8367 73.9123 37.7996L73.943 37.7894C74.2285 37.6985 74.5127 37.5999 74.7969 37.5064L74.8251 37.4962C74.8584 37.4887 74.8906 37.4771 74.9211 37.4616C74.9608 37.4476 75.0017 37.4347 75.0414 37.4194L75.0683 37.4104C75.0996 37.4012 75.13 37.3892 75.1592 37.3746C75.1989 37.3605 75.2411 37.349 75.2795 37.3311L75.3474 37.3029C75.4216 37.276 75.4946 37.244 75.5676 37.2158C75.606 37.2043 75.6393 37.1851 75.6764 37.1723C75.7135 37.1595 75.7647 37.1365 75.8044 37.1198C75.8262 37.1109 75.8466 37.1019 75.8697 37.0942L75.9209 37.0737C75.9668 37.0513 76.0138 37.0312 76.0617 37.0136C76.095 36.9982 76.1308 36.9867 76.1641 36.9726L76.1897 36.9611C76.2281 36.9457 76.264 36.9252 76.3011 36.9073C76.3268 36.8993 76.352 36.8899 76.3766 36.8792C76.4138 36.8625 76.4496 36.8433 76.4867 36.8254L76.5239 36.8126L76.5725 36.7947C76.5956 36.7831 76.6186 36.7716 76.6404 36.7588C76.6677 36.7446 76.6959 36.7322 76.7249 36.7217C76.7291 36.7208 76.7336 36.7209 76.7378 36.722C76.742 36.7231 76.7459 36.7252 76.7492 36.7281L76.7735 36.755C76.709 36.7913 76.6503 36.837 76.5994 36.8907C76.2282 37.259 75.8293 37.5984 75.4063 37.9059C75.0145 38.1901 74.6087 38.4563 74.1914 38.7009C74.176 38.7098 74.1581 38.7149 74.1491 38.7316C74.1421 38.7399 74.1344 38.7476 74.1261 38.7546C74.1069 38.7661 74.0915 38.7879 74.0633 38.7777L74.0416 38.7943C74.0217 38.8122 73.9998 38.8277 73.9763 38.8404C73.9571 38.8532 73.9404 38.8737 73.9136 38.8647L73.8905 38.8801C73.8704 38.898 73.8485 38.9139 73.8252 38.9275C73.8124 38.939 73.7958 38.9428 73.7843 38.9556C73.7727 38.9684 73.751 38.9556 73.7382 38.971C73.7062 38.9991 73.6639 39.0107 73.6306 39.0363C73.6191 39.0503 73.5986 39.0465 73.5858 39.058C73.5718 39.0686 73.5573 39.0784 73.5423 39.0875C73.5218 39.0875 73.5052 39.1131 73.4809 39.1028L73.4578 39.1195C73.365 39.1753 73.2693 39.2261 73.1711 39.2718C73.1283 39.2821 73.0882 39.3013 73.0533 39.3282C72.9381 39.3909 72.8177 39.4446 72.7012 39.5061C72.6859 39.5202 72.6615 39.5061 72.6475 39.5279C72.6359 39.5419 72.6154 39.5381 72.6026 39.5509C72.5374 39.5765 72.4746 39.6124 72.4106 39.6367C72.3991 39.6508 72.3799 39.6469 72.3671 39.6597C72.3236 39.6712 72.2877 39.7071 72.2391 39.7045L72.2186 39.7186C72.2096 39.7378 72.1866 39.734 72.1738 39.7455L72.024 39.8095C71.9983 39.8254 71.9685 39.8334 71.9382 39.8325L71.9165 39.8453C71.8688 39.8734 71.8187 39.897 71.7667 39.9158C71.7334 39.935 71.6937 39.9401 71.6591 39.9593C71.6246 39.9785 71.5849 39.9849 71.5503 40.0028C71.517 40.0233 71.4774 40.0284 71.4428 40.0463C71.3966 40.0704 71.3462 40.0852 71.2943 40.0899L71.2725 40.1039C71.2431 40.1347 71.1983 40.1321 71.165 40.1539C71.1623 40.1567 71.159 40.1589 71.1553 40.1605C71.1517 40.162 71.1478 40.1628 71.1439 40.1628C71.1399 40.1628 71.136 40.162 71.1324 40.1605C71.1288 40.1589 71.1255 40.1567 71.1227 40.1539C71.1183 40.1529 71.1138 40.1536 71.1098 40.1557C71.1058 40.1578 71.1027 40.1612 71.101 40.1654C71.0571 40.1966 71.005 40.2144 70.9512 40.2166C70.9465 40.2165 70.942 40.2179 70.9383 40.2207C70.9345 40.2235 70.9319 40.2275 70.9307 40.232C70.9192 40.2499 70.9051 40.2499 70.8885 40.2396C70.8839 40.2389 70.8792 40.2396 70.8751 40.2416C70.8709 40.2437 70.8675 40.247 70.8654 40.2512C70.7893 40.2877 70.7106 40.3185 70.6299 40.3433C70.6242 40.3487 70.6166 40.3517 70.6088 40.3517C70.6009 40.3517 70.5933 40.3487 70.5876 40.3433C70.5853 40.3428 70.5828 40.3427 70.5804 40.3431C70.578 40.3435 70.5758 40.3444 70.5737 40.3457C70.5717 40.347 70.57 40.3488 70.5686 40.3508C70.5673 40.3528 70.5663 40.355 70.5659 40.3574C70.5635 40.3609 70.5604 40.3637 70.5567 40.3656C70.553 40.3675 70.5489 40.3686 70.5447 40.3686C70.5406 40.3686 70.5365 40.3675 70.5328 40.3656C70.5291 40.3637 70.526 40.3609 70.5236 40.3574C70.5188 40.357 70.5139 40.3583 70.5099 40.3611C70.5059 40.3639 70.5031 40.368 70.5019 40.3728C70.4999 40.3764 70.4971 40.3795 70.4937 40.3819C70.4903 40.3843 70.4864 40.3858 70.4823 40.3864C70.4782 40.3871 70.4741 40.3867 70.4701 40.3855C70.4662 40.3842 70.4626 40.3821 70.4596 40.3792C70.4481 40.3792 70.4404 40.3792 70.4378 40.3945C70.4353 40.4099 70.4122 40.4112 70.3956 40.3945C70.3909 40.3937 70.386 40.3948 70.382 40.3974C70.378 40.4 70.375 40.404 70.3738 40.4086C70.3623 40.4266 70.3482 40.4266 70.3316 40.4086C70.3267 40.4082 70.3219 40.4095 70.3179 40.4123C70.3139 40.4151 70.311 40.4193 70.3098 40.424C70.2983 40.4419 70.2842 40.4406 70.2676 40.4304C70.2627 40.4299 70.2579 40.4312 70.2539 40.4341C70.2499 40.4369 70.247 40.441 70.2458 40.4458C70.2343 40.4624 70.2202 40.4624 70.2036 40.4458C70.199 40.4449 70.1943 40.4457 70.1903 40.4481C70.1863 40.4504 70.1833 40.4542 70.1818 40.4586C70.1012 40.4969 70.0146 40.5212 69.9258 40.5302C69.921 40.53 69.9162 40.5314 69.9123 40.5342C69.9083 40.537 69.9054 40.541 69.904 40.5456C69.9022 40.5492 69.8995 40.5523 69.8962 40.5547C69.8929 40.5571 69.8892 40.5586 69.8852 40.5593C69.8812 40.5599 69.8771 40.5596 69.8732 40.5583C69.8694 40.557 69.8659 40.5549 69.863 40.552C69.8583 40.5511 69.8534 40.5519 69.8492 40.5542C69.845 40.5566 69.8417 40.5603 69.84 40.5648C69.7952 40.5968 69.7376 40.5917 69.6902 40.6147C69.6845 40.6201 69.677 40.6232 69.6691 40.6232C69.6612 40.6232 69.6537 40.6201 69.648 40.6147C69.6395 40.6129 69.6307 40.6135 69.6225 40.6164C69.6144 40.6194 69.6072 40.6246 69.6019 40.6314C69.5699 40.648 69.5392 40.6736 69.4982 40.657C69.4937 40.6566 69.4892 40.6576 69.4853 40.6599C69.4814 40.6622 69.4783 40.6657 69.4764 40.6698C69.439 40.6953 69.3933 40.7058 69.3484 40.6992C69.3401 40.6976 69.3316 40.6984 69.3237 40.7013C69.3158 40.7042 69.3088 40.7093 69.3036 40.7159C69.2934 40.7338 69.2793 40.7312 69.2652 40.7159C69.2603 40.7147 69.2551 40.7155 69.2508 40.7182C69.2465 40.7208 69.2434 40.725 69.2422 40.73C69.2403 40.7336 69.2376 40.7367 69.2344 40.7391C69.2311 40.7414 69.2273 40.743 69.2233 40.7436C69.2193 40.7442 69.2152 40.7439 69.2114 40.7426C69.2075 40.7414 69.204 40.7392 69.2012 40.7364C69.1927 40.734 69.1837 40.7343 69.1755 40.7373C69.1672 40.7403 69.1601 40.7458 69.1551 40.753C69.1436 40.7696 69.1295 40.7684 69.1154 40.753C69.1069 40.7515 69.0982 40.7522 69.0901 40.7551C69.082 40.758 69.0748 40.763 69.0693 40.7696C69.0591 40.7876 69.045 40.785 69.0309 40.7696C69.0263 40.7686 69.0216 40.7692 69.0174 40.7713C69.0132 40.7734 69.0098 40.7769 69.0079 40.7812C68.99 40.808 68.9682 40.7991 68.9451 40.7901C68.9221 40.7812 68.9259 40.7901 68.9234 40.8055C68.9208 40.8209 68.8901 40.8183 68.8722 40.8209C68.8589 40.8248 68.8464 40.8308 68.8351 40.8388C68.8284 40.841 68.8213 40.8415 68.8144 40.8404C68.8075 40.8393 68.801 40.8366 68.7954 40.8324C68.787 40.8302 68.7781 40.8308 68.77 40.834C68.762 40.8373 68.7552 40.8429 68.7506 40.8503C68.7378 40.8657 68.725 40.8644 68.7096 40.8503C68.7012 40.8487 68.6925 40.8495 68.6846 40.8527C68.6766 40.8559 68.6698 40.8613 68.6648 40.8682C68.6625 40.8714 68.6596 40.874 68.6561 40.8758C68.6527 40.8775 68.6488 40.8785 68.6449 40.8785C68.6411 40.8785 68.6372 40.8775 68.6338 40.8758C68.6303 40.874 68.6273 40.8714 68.6251 40.8682C68.6169 40.8659 68.6082 40.866 68.6 40.8685C68.5918 40.871 68.5846 40.8758 68.579 40.8823C68.5366 40.9109 68.4846 40.9215 68.4344 40.9117C68.4293 40.911 68.4241 40.9121 68.4198 40.9149C68.4156 40.9178 68.4125 40.9221 68.4113 40.9271C68.3921 40.9489 68.3703 40.9438 68.3473 40.9271C68.3389 40.9255 68.3302 40.9263 68.3223 40.9295C68.3143 40.9327 68.3075 40.9381 68.3025 40.945C68.3001 40.948 68.2971 40.9504 68.2936 40.952C68.2902 40.9536 68.2864 40.9545 68.2826 40.9545C68.2789 40.9545 68.2751 40.9536 68.2717 40.952C68.2682 40.9504 68.2652 40.948 68.2628 40.945C68.2545 40.9425 68.2456 40.9427 68.2373 40.9454C68.2291 40.9482 68.2219 40.9534 68.2167 40.9604C68.2001 40.9847 68.1796 40.9745 68.1591 40.9681C68.1504 40.965 68.141 40.9648 68.1322 40.9676C68.1234 40.9704 68.1158 40.9759 68.1105 40.9834C68.1081 40.9864 68.105 40.9888 68.1016 40.9904C68.0982 40.992 68.0944 40.9929 68.0906 40.9929C68.0868 40.9929 68.0831 40.992 68.0796 40.9904C68.0762 40.9888 68.0732 40.9864 68.0708 40.9834C68.0624 40.9813 68.0536 40.9816 68.0455 40.9843C68.0373 40.9871 68.0301 40.9921 68.0247 40.9988C68.0093 41.0231 67.9876 41.0129 67.9671 41.0078C67.9586 41.0043 67.9492 41.0039 67.9406 41.0067C67.9319 41.0095 67.9245 41.0154 67.9197 41.0231C67.9056 41.0423 67.8839 41.0321 67.8659 41.0359L67.8122 41.0538C67.806 41.057 67.7992 41.0586 67.7923 41.0586C67.7854 41.0586 67.7786 41.057 67.7725 41.0538C67.7642 41.0514 67.7553 41.0515 67.747 41.0542C67.7388 41.057 67.7316 41.0622 67.7264 41.0692C67.7085 41.0935 67.6867 41.0859 67.665 41.0692C67.6567 41.0675 67.6481 41.0681 67.6401 41.0711C67.6322 41.074 67.6253 41.0791 67.6202 41.0858C67.6022 41.1102 67.5805 41.1025 67.5587 41.0858C67.5369 41.0692 67.5241 41.0858 67.5139 41.1012C67.5037 41.1166 67.4653 41.1115 67.4422 41.1179L67.3833 41.1358C67.368 41.1371 67.3526 41.1371 67.3372 41.1358C67.2975 41.1358 67.2604 41.1716 67.2182 41.1473C67.1938 41.1473 67.1695 41.1409 67.1516 41.1652C67.1337 41.1895 67.1234 41.178 67.1068 41.178C67.0611 41.194 67.013 41.2018 66.9647 41.2011C66.9289 41.21 66.8943 41.2318 66.8546 41.2126H66.7675L66.1825 41.1217C66.165 41.1204 66.1475 41.1204 66.13 41.1217C65.9964 41.1216 65.8634 41.1039 65.7344 41.0692C65.1551 40.9666 64.5813 40.835 64.0151 40.6749C63.6477 40.5712 63.2854 40.4496 62.9244 40.328C62.2828 40.0923 61.6572 39.8152 61.0515 39.4984C60.7417 39.3345 60.4306 39.1732 60.1246 39.0017C60.0619 38.9595 59.9889 38.9351 59.9262 38.8929C59.8635 38.8506 59.7982 38.8263 59.7342 38.7853C59.6702 38.7444 59.6241 38.7405 59.5882 38.6881C59.5493 38.6563 59.5063 38.63 59.4602 38.61C59.4513 38.6164 59.4461 38.61 59.4436 38.61C59.4052 38.5775 59.362 38.5512 59.3156 38.5319C59.3066 38.5319 59.3002 38.5319 59.2989 38.5319C59.2907 38.5193 59.2795 38.509 59.2663 38.5019C59.2531 38.4948 59.2384 38.491 59.2234 38.4909C59.1747 38.464 59.1184 38.4525 59.0838 38.4051C59.0453 38.3723 59.0021 38.3451 58.9558 38.3245C58.9228 38.323 58.8916 38.3088 58.8688 38.2848C58.8393 38.2528 58.7856 38.2579 58.7664 38.2131C58.7277 38.1804 58.6846 38.1532 58.6383 38.1325C58.6267 38.1329 58.6152 38.1307 58.6045 38.1261C58.5939 38.1214 58.5844 38.1144 58.5769 38.1056C58.5423 38.0774 58.4937 38.0723 58.4694 38.0313C58.4643 38.0236 58.4578 38.017 58.4501 38.0119C58.4423 38.0068 58.4337 38.0034 58.4246 38.0019C58.4143 38.0019 58.4079 38.0019 58.4053 37.9891C58.3938 37.9745 58.3775 37.9645 58.3593 37.9609C58.3516 37.9609 58.3452 37.9609 58.3426 37.9609C58.244 37.8859 58.1405 37.8175 58.0328 37.7561C57.3193 37.3037 56.6263 36.8224 55.9538 36.312C55.4136 35.9036 54.8887 35.4773 54.383 35.0318C54.1679 34.8411 53.9529 34.6478 53.7429 34.4506C53.5176 34.2304 53.2923 34.009 53.0695 33.7849C52.6355 33.3484 52.2297 32.8888 51.8393 32.41C51.4006 31.8773 50.9904 31.3218 50.6103 30.7458C50.3406 30.3335 50.088 29.9107 49.8524 29.4771C49.6595 29.1186 49.4773 28.7542 49.3058 28.3838C49.2981 28.3672 49.2866 28.3544 49.2776 28.339C49.1869 28.1617 49.1057 27.9796 49.0344 27.7936C49.0132 27.7574 48.9977 27.7181 48.9883 27.6772C48.9845 27.6624 48.978 27.6485 48.9691 27.6362C48.942 27.5779 48.9197 27.5176 48.9025 27.4557C48.8769 27.4134 48.8705 27.3622 48.8436 27.3277C48.8401 27.3134 48.8358 27.2993 48.8308 27.2854C48.8165 27.2374 48.7981 27.1907 48.7758 27.1459C48.742 27.0592 48.7163 26.9697 48.699 26.8783C48.699 26.8668 48.699 26.8591 48.6874 26.8553C48.6759 26.8514 48.667 26.8322 48.6759 26.8156C48.6772 26.8134 48.6779 26.8109 48.6781 26.8083C48.6782 26.8058 48.6778 26.8033 48.6768 26.8009C48.6758 26.7985 48.6743 26.7965 48.6724 26.7948C48.6704 26.7931 48.6681 26.7919 48.6657 26.7913C48.6452 26.7823 48.6465 26.7682 48.6542 26.7516C48.6554 26.7494 48.6562 26.7469 48.6563 26.7443C48.6565 26.7418 48.656 26.7392 48.655 26.7369C48.654 26.7345 48.6525 26.7325 48.6506 26.7308C48.6487 26.7291 48.6464 26.7279 48.6439 26.7273C48.6234 26.7183 48.6247 26.7042 48.6337 26.6876C48.6354 26.683 48.6353 26.6779 48.6334 26.6734C48.6315 26.6688 48.6279 26.6652 48.6234 26.6632C48.6029 26.6543 48.6029 26.6402 48.6119 26.6236C48.6209 26.6069 48.6119 26.6044 48.6004 26.6005C48.5942 26.597 48.5891 26.5917 48.5859 26.5853C48.5828 26.5789 48.5815 26.5717 48.5825 26.5647C48.5801 26.5555 48.5771 26.5465 48.5735 26.5378C48.5677 26.5245 48.5629 26.5108 48.5594 26.4968C48.5133 26.3688 48.4864 26.2408 48.4391 26.1128C48.4327 26.0948 48.4391 26.0744 48.4276 26.0552C48.416 26.036 48.4186 26.0283 48.4135 26.0155C48.4135 25.9771 48.3879 25.9463 48.3853 25.9079C48.3853 25.8951 48.3776 25.8823 48.3725 25.8695C48.3696 25.8633 48.3682 25.8565 48.3682 25.8497C48.3682 25.8428 48.3696 25.8361 48.3725 25.8298C48.3746 25.8213 48.3743 25.8123 48.3716 25.804C48.3688 25.7956 48.3639 25.7882 48.3571 25.7825C48.3495 25.7825 48.3456 25.7825 48.3469 25.7722C48.3482 25.762 48.3469 25.7646 48.3533 25.7646L48.393 25.6762Z" fill="#D3D6C7"/>
<path d="M79.9279 12.7348C80.0845 12.8784 80.2308 13.0328 80.3657 13.1969C80.6755 13.5439 80.9661 13.9062 81.2439 14.2787C81.6564 14.8342 82.0339 15.4148 82.3743 16.0172C82.5344 16.2976 82.688 16.5818 82.8301 16.8711C83.1703 17.5621 83.4696 18.2726 83.7262 18.9988C83.9729 19.7046 84.1823 20.4229 84.3535 21.1508C84.502 21.7806 84.6262 22.416 84.726 23.057C84.7952 23.4973 84.8541 23.939 84.8989 24.382C84.9232 24.629 84.9437 24.8748 84.9629 25.1219C84.9744 25.264 84.9731 25.4048 84.9821 25.5469C85.0051 25.6314 84.9706 25.7198 85 25.803V27.2726C84.9718 27.3494 85 27.4314 84.9821 27.5095C84.9821 27.672 84.9731 27.8346 84.9578 27.9972C84.9309 28.3109 84.8989 28.6232 84.8566 28.9356C84.8144 29.248 84.7632 29.5654 84.703 29.8778C84.5719 30.5522 84.3935 31.2166 84.1692 31.8659C83.9722 32.4357 83.7374 32.9917 83.4663 33.5302C83.0996 34.2506 82.6681 34.9362 82.1772 35.5785C81.7556 36.1261 81.2916 36.6398 80.7895 37.1147C80.1008 37.7661 79.3476 38.3456 78.5415 38.8443C78.0204 39.1685 77.4805 39.4613 76.9246 39.7212C76.0759 40.1173 75.196 40.4427 74.2938 40.6941C73.6964 40.8648 73.0921 41.0014 72.481 41.1038C72.0543 41.1772 71.6306 41.2374 71.2098 41.2843C70.9422 41.315 70.6734 41.3329 70.4046 41.3509C70.1933 41.365 69.9795 41.3688 69.7645 41.3816C69.4201 41.4008 69.0757 41.3944 68.7326 41.3893C68.492 41.3893 68.2513 41.379 68.0106 41.3598L67.5651 41.3317C67.3436 41.315 67.1222 41.2894 66.8994 41.2677C66.861 41.2485 66.8687 41.2292 66.8994 41.2113C66.9301 41.1934 66.9711 41.2011 67.0057 41.1883C67.0402 41.1755 67.0966 41.1806 67.1337 41.1665C67.1469 41.1653 67.1602 41.1653 67.1734 41.1665C67.1823 41.1665 67.1887 41.1844 67.199 41.1665C67.2092 41.1486 67.1823 41.1588 67.1849 41.1473C67.1875 41.1358 67.2233 41.1204 67.2476 41.1217C67.2893 41.1349 67.334 41.1349 67.3756 41.1217C67.4038 41.1217 67.432 41.114 67.4601 41.1051C67.4883 41.0961 67.5216 41.1115 67.5459 41.0833C67.5505 41.076 67.5573 41.0703 67.5654 41.067C67.5734 41.0638 67.5823 41.0633 67.5907 41.0654C67.6112 41.0654 67.6342 41.0948 67.6534 41.0654C67.659 41.0585 67.6664 41.0532 67.6747 41.0503C67.6831 41.0473 67.6922 41.0468 67.7008 41.0487C67.72 41.0487 67.7405 41.0718 67.7584 41.0487C67.7638 41.0419 67.7709 41.0366 67.779 41.0335C67.7871 41.0303 67.7959 41.0294 67.8045 41.0308C67.8337 41.0398 67.8649 41.0398 67.8941 41.0308C67.912 41.0219 67.9402 41.0385 67.9504 41.0091C67.9556 41.0015 67.9628 40.9957 67.9712 40.9923C67.9797 40.9889 67.9889 40.988 67.9978 40.9899C68.017 40.9899 68.0388 41.0129 68.0567 40.9899C68.0617 40.9825 68.0687 40.9769 68.077 40.9737C68.0852 40.9705 68.0942 40.9699 68.1028 40.9719C68.1169 40.9719 68.1322 40.9886 68.1438 40.9719C68.1493 40.9651 68.1568 40.96 68.1652 40.9573C68.1736 40.9546 68.1826 40.9543 68.1911 40.9566C68.2103 40.9566 68.2308 40.9796 68.2487 40.9566C68.254 40.9496 68.2611 40.9443 68.2693 40.9414C68.2775 40.9384 68.2863 40.9379 68.2948 40.9399C68.3076 40.9399 68.323 40.9566 68.3345 40.9399C68.3392 40.9333 68.3456 40.9281 68.3531 40.9249C68.3605 40.9218 68.3687 40.9208 68.3767 40.922C68.3966 40.9273 68.4178 40.9245 68.4356 40.9143C68.4476 40.9073 68.4614 40.9037 68.4753 40.9041C68.5196 40.9093 68.5644 40.9003 68.6033 40.8785C68.6085 40.871 68.6157 40.8651 68.6241 40.8617C68.6326 40.8583 68.6418 40.8574 68.6507 40.8593C68.6648 40.8593 68.6802 40.8759 68.6917 40.8593C68.6971 40.8526 68.7043 40.8475 68.7125 40.8448C68.7206 40.8421 68.7294 40.8418 68.7378 40.8439C68.7506 40.8439 68.7672 40.8593 68.7774 40.8375C68.7827 40.8309 68.7896 40.8259 68.7975 40.8229C68.8054 40.82 68.814 40.8193 68.8223 40.8209C68.8424 40.8259 68.8635 40.8259 68.8837 40.8209C68.9035 40.8158 68.9221 40.8071 68.9388 40.7953C68.9493 40.7877 68.9617 40.7828 68.9746 40.7812C68.9909 40.7835 69.0076 40.7803 69.022 40.7722C69.0335 40.7651 69.0468 40.7616 69.0604 40.762C69.0732 40.762 69.0898 40.7773 69.0975 40.753C69.1023 40.7463 69.109 40.7411 69.1168 40.7382C69.1245 40.7352 69.1329 40.7346 69.141 40.7364C69.1551 40.7364 69.1692 40.7505 69.1807 40.7364C69.1848 40.73 69.1905 40.7249 69.1973 40.7215C69.204 40.7182 69.2116 40.7167 69.2191 40.7172C69.2345 40.7191 69.2501 40.7164 69.2639 40.7095C69.2741 40.7038 69.2856 40.7012 69.2972 40.7018C69.3113 40.7018 69.3254 40.7018 69.3331 40.689C69.3392 40.6831 69.3468 40.6787 69.355 40.6762C69.3633 40.6738 69.372 40.6733 69.3804 40.6749C69.3993 40.6785 69.4188 40.678 69.4375 40.6736C69.4563 40.6692 69.4739 40.6609 69.4892 40.6493C69.5006 40.6415 69.5139 40.6366 69.5276 40.6352C69.5622 40.6352 69.5981 40.6352 69.6262 40.6122C69.6302 40.6049 69.6362 40.5989 69.6434 40.5949C69.6507 40.5908 69.6589 40.5888 69.6672 40.5892C69.6842 40.5917 69.7014 40.5917 69.7184 40.5892L69.744 40.5828C69.7792 40.5776 69.813 40.5659 69.8438 40.5482C69.8549 40.5413 69.867 40.5361 69.8797 40.5328C69.8963 40.5309 69.9124 40.5256 69.9271 40.5175C69.9389 40.5112 69.9521 40.5081 69.9655 40.5085C70.0408 40.4993 70.114 40.4772 70.1818 40.4432C70.1925 40.4361 70.2042 40.4305 70.2164 40.4266C70.2319 40.4253 70.247 40.4214 70.2612 40.4151C70.2708 40.4088 70.2818 40.4048 70.2932 40.4035C70.3042 40.4013 70.3149 40.3979 70.3252 40.3933C70.3346 40.3876 70.3451 40.3837 70.3559 40.3818C70.3675 40.3808 70.3787 40.3777 70.3892 40.3728C70.3982 40.366 70.4088 40.3615 70.4199 40.36C70.4315 40.359 70.4427 40.356 70.4532 40.351C70.4623 40.3446 70.4729 40.3406 70.4839 40.3395C70.4951 40.3387 70.506 40.3356 70.5159 40.3306C70.5255 40.3239 70.5365 40.3195 70.548 40.3178C70.5591 40.3167 70.5699 40.3137 70.58 40.3088C70.5899 40.3031 70.6007 40.2992 70.612 40.2973C70.6272 40.2998 70.6428 40.2998 70.658 40.2973L70.6837 40.2883C70.7472 40.2715 70.8086 40.2474 70.8667 40.2166C70.8771 40.2087 70.8888 40.2026 70.9013 40.1987C70.9178 40.1971 70.9339 40.1923 70.9487 40.1846C70.9595 40.177 70.9725 40.173 70.9858 40.1731C71.0273 40.1706 71.0672 40.1564 71.101 40.1321C71.1113 40.1238 71.123 40.1173 71.1356 40.1129C71.1526 40.1142 71.1697 40.1142 71.1868 40.1129L71.2111 40.1052C71.2363 40.098 71.2598 40.0858 71.2802 40.0694C71.2907 40.0603 71.3036 40.0545 71.3173 40.0528C71.3622 40.0488 71.4058 40.0358 71.4454 40.0144L71.4697 40.0041C71.4995 39.9965 71.5283 39.9853 71.5555 39.9708L71.5798 39.9606C71.6093 39.9533 71.6377 39.9421 71.6643 39.9273L71.6886 39.9171C71.7179 39.9092 71.7463 39.898 71.7731 39.8838L71.7987 39.8723C71.841 39.8617 71.8806 39.8425 71.9152 39.8159C71.9259 39.8069 71.9386 39.8008 71.9523 39.798C71.9787 39.7969 72.0045 39.7899 72.0279 39.7775L72.0522 39.7673C72.0901 39.7551 72.127 39.7397 72.1623 39.7212L72.184 39.7097C72.1989 39.7022 72.2127 39.6927 72.225 39.6815C72.236 39.6737 72.2487 39.6688 72.2621 39.6674C72.2957 39.6633 72.3281 39.652 72.3569 39.6341L72.3812 39.6213L72.4196 39.6047C72.4278 39.6001 72.4363 39.5962 72.4452 39.5932C72.4937 39.5755 72.5408 39.5541 72.586 39.5292L72.6116 39.5176L72.6475 39.501L72.6718 39.4908L72.7115 39.4754C72.8284 39.4233 72.9418 39.3634 73.0507 39.2962C73.0878 39.2646 73.1316 39.2418 73.1787 39.2296C73.2708 39.202 73.3575 39.1587 73.4348 39.1016C73.4448 39.0922 73.4565 39.0848 73.4693 39.0798C73.4898 39.0795 73.5101 39.0761 73.5295 39.0696C73.5435 39.0627 73.5567 39.0545 73.5692 39.0452C73.5755 39.0398 73.5824 39.0351 73.5897 39.0312L73.623 39.0132L73.646 39.0004C73.6706 38.9884 73.6942 38.9742 73.7164 38.9582L73.7395 38.9454C73.7557 38.9401 73.7715 38.9337 73.7868 38.9262L73.806 38.9134L73.8265 38.8993C73.8441 38.8894 73.8597 38.8764 73.8726 38.8609C73.8817 38.8518 73.8933 38.8455 73.9059 38.843C73.9222 38.8422 73.938 38.8374 73.952 38.8289C73.9588 38.8239 73.9661 38.8196 73.9737 38.8161C73.9915 38.8054 74.0075 38.792 74.0211 38.7764C74.03 38.767 74.0417 38.7607 74.0544 38.7585C74.0716 38.7565 74.088 38.7498 74.1018 38.7393L74.1197 38.7188L74.1389 38.697C74.377 38.5421 74.6202 38.3962 74.8583 38.24C75.4861 37.8303 76.0711 37.3585 76.6045 36.8318C76.6537 36.786 76.7094 36.7476 76.7697 36.7179C77.5949 36.3259 78.3884 35.8705 79.1431 35.3557C79.6273 35.0195 80.0887 34.6517 80.5245 34.2548C81.1798 33.6598 81.7575 32.9845 82.2438 32.2449C82.8871 31.2615 83.3461 30.1692 83.5982 29.0214C83.7141 28.4947 83.792 27.9603 83.8312 27.4224C83.8662 26.9692 83.873 26.5143 83.8517 26.0603C83.7865 24.7612 83.5647 23.4746 83.1911 22.2287C82.8989 21.1958 82.5349 20.1845 82.1017 19.2023C81.9664 18.9102 81.8467 18.611 81.7432 18.3062C81.4206 17.3384 81.1014 16.3705 80.7856 15.4027C80.5065 14.5475 80.2236 13.6949 79.9266 12.8423C79.9151 12.8091 79.8908 12.7706 79.9279 12.7348Z" fill="#6C7983"/>
<path d="M47.7977 28.5746C47.8035 28.5705 47.8083 28.5651 47.8118 28.5589C47.8154 28.5527 47.8175 28.5459 47.8182 28.5388C47.8323 28.3519 47.8425 28.165 47.8643 27.9793C47.8925 27.7233 47.9283 27.4673 47.9769 27.2112C48.0486 26.8272 48.1395 26.4585 48.2445 26.0872C48.2802 25.9469 48.3229 25.8085 48.3725 25.6724C48.3762 25.6697 48.3807 25.6683 48.3853 25.6683C48.3899 25.6683 48.3944 25.6697 48.3981 25.6724C48.4034 25.6798 48.4069 25.6882 48.4084 25.697C48.41 25.7059 48.4095 25.715 48.4071 25.7236C48.416 25.7326 48.3648 25.7492 48.4071 25.7544C48.4136 25.7602 48.4184 25.7677 48.4211 25.776C48.4238 25.7843 48.4243 25.7932 48.4224 25.8017C48.418 25.8237 48.418 25.8463 48.4224 25.8683C48.4455 25.9362 48.4621 26.004 48.4801 26.0731C48.5236 26.2152 48.5633 26.3586 48.6081 26.4994C48.614 26.5169 48.6227 26.5333 48.6337 26.5481C48.6417 26.5582 48.6474 26.57 48.6503 26.5827C48.6521 26.5945 48.6551 26.606 48.6593 26.6172C48.6659 26.6268 48.6703 26.6377 48.6721 26.6492C48.6731 26.6608 48.6761 26.672 48.681 26.6825C48.6877 26.6921 48.6921 26.703 48.6938 26.7145C48.6947 26.7262 48.6982 26.7376 48.7041 26.7478C48.71 26.7581 48.7139 26.7694 48.7156 26.7811C48.7187 26.7934 48.723 26.8054 48.7284 26.8169C48.7347 26.8287 48.7378 26.842 48.7374 26.8553C48.7514 26.944 48.7781 27.0303 48.8167 27.1114C48.8334 27.1613 48.8488 27.2125 48.8692 27.2611L48.8808 27.288C48.8964 27.3343 48.9148 27.3796 48.9358 27.4237C48.9581 27.4959 48.9863 27.5662 49.0203 27.6337C49.1053 27.8653 49.2045 28.0915 49.3173 28.3109C49.3698 28.3442 49.3762 28.4056 49.4005 28.4568C49.811 29.3234 50.286 30.1578 50.8215 30.9532C51.2064 31.5165 51.6182 32.0593 52.0569 32.5816C52.3565 32.9413 52.6676 33.2921 52.9927 33.6288C53.1758 33.8196 53.3768 34.0013 53.5598 34.1895C54.0962 34.7246 54.6672 35.2137 55.2523 35.6976C56.0887 36.3743 56.96 37.0067 57.8626 37.5923C58.029 37.7024 58.2044 37.7971 58.3606 37.92C58.3682 37.929 58.3606 37.9648 58.39 37.9418C58.4006 37.9427 58.4108 37.9467 58.4192 37.9533C58.4276 37.9599 58.4339 37.9688 58.4374 37.9789C58.4374 38.0071 58.4489 37.9878 58.4579 37.9789C58.48 37.9845 58.4991 37.9982 58.5116 38.0173C58.5322 38.0409 58.5581 38.0593 58.5872 38.0711L58.6102 38.0851C58.6285 38.0972 58.6498 38.1038 58.6716 38.1043C58.7219 38.1175 58.7667 38.1462 58.7997 38.1863C58.8137 38.2234 58.8522 38.2311 58.8816 38.2503C58.9123 38.2771 58.951 38.2928 58.9917 38.2951C59.0417 38.3088 59.0863 38.3374 59.1197 38.377C59.1466 38.4282 59.1978 38.4372 59.2477 38.4526C59.2799 38.457 59.3092 38.4734 59.3297 38.4986C59.3297 38.5447 59.354 38.4986 59.3617 38.5114C59.4071 38.5241 59.4479 38.5494 59.4794 38.5844C59.4718 38.6292 59.5012 38.5844 59.5089 38.5959C59.5589 38.6089 59.6037 38.637 59.6369 38.6766C59.6625 38.7291 59.7214 38.7342 59.7649 38.7624C59.8256 38.8027 59.8894 38.8383 59.9557 38.8686C60.019 38.9091 60.0848 38.9454 60.1528 38.9774C60.3128 39.076 60.4818 39.1605 60.647 39.2488C61.3864 39.6618 62.1568 40.0166 62.9513 40.3101C63.8206 40.6235 64.7142 40.865 65.6231 41.0321C65.7997 41.0654 65.9777 41.0949 66.1569 41.1205C66.3374 41.1512 66.5192 41.1704 66.6997 41.1973C66.7343 41.1973 66.7816 41.1883 66.7893 41.2459C66.6657 41.2749 66.5404 41.2963 66.4142 41.3099C66.2222 41.3381 66.0302 41.365 65.8369 41.3893C65.6794 41.4085 65.5207 41.4226 65.3619 41.4392C65.1622 41.4584 64.9612 41.4815 64.7615 41.4968C64.6412 41.5058 64.5208 41.5148 64.4005 41.5199L63.5402 41.5506C63.2701 41.5621 63.0012 41.5673 62.7324 41.5609C62.484 41.5609 62.2357 41.5519 61.9886 41.5404C61.7659 41.5301 61.5444 41.5135 61.3216 41.4981C61.0259 41.4776 60.7302 41.4508 60.4357 41.4124C59.0876 41.2485 57.7702 40.8901 56.5248 40.3485C56.1599 40.1911 55.804 40.0144 55.4532 39.8288C55.1025 39.6431 54.7619 39.437 54.4291 39.2181C54.1295 39.0222 53.8351 38.8187 53.5509 38.6011C53.3333 38.4359 53.1207 38.2657 52.9108 38.089C52.6637 37.8765 52.4269 37.6512 52.1862 37.4323C51.9455 37.2133 51.7484 36.997 51.5461 36.7717C51.0775 36.264 50.6418 35.727 50.2416 35.1638C49.8846 34.6608 49.5534 34.1399 49.2495 33.6032C49.051 33.255 48.8654 32.9017 48.6887 32.5406C48.5014 32.1588 48.3385 31.7654 48.201 31.3629C48.0744 30.9759 47.9769 30.5801 47.9091 30.1787C47.8771 29.9841 47.8617 29.787 47.84 29.5898C47.8156 29.4772 47.8144 29.3619 47.7977 29.2493V28.5746Z" fill="#868E77"/>
<path d="M55.475 8.3527C55.5353 8.26977 55.6099 8.19824 55.6952 8.14147C55.8821 7.97888 56.0793 7.82142 56.2662 7.66652C56.6784 7.33623 57.1098 7.02643 57.5464 6.74222C57.9676 6.46698 58.4028 6.21479 58.847 5.97411C59.1253 5.8239 59.4069 5.68095 59.692 5.54525C60.1759 5.31737 60.6675 5.10614 61.1667 4.91539C61.5111 4.78737 61.858 4.65935 62.2075 4.54286C62.703 4.38155 63.201 4.23433 63.7054 4.10247C63.955 4.03718 64.2046 3.97445 64.4594 3.92708C64.6463 3.89252 64.8358 3.8682 65.0252 3.84515C65.2352 3.81827 65.4464 3.79778 65.6576 3.78626C65.7916 3.77153 65.9262 3.76384 66.0609 3.76322C66.1793 3.75384 66.2981 3.75085 66.4168 3.75426C66.455 3.76053 66.4942 3.75701 66.5307 3.74402H66.7868C66.9046 3.75638 67.0231 3.7598 67.1414 3.75426C67.18 3.75081 67.219 3.75384 67.2566 3.76322C67.4409 3.76322 67.624 3.77986 67.8084 3.79138C67.9927 3.80291 68.2014 3.82339 68.3985 3.84387C68.5957 3.86436 68.8133 3.88868 69.0194 3.91684C69.3693 3.96464 69.7176 4.0231 70.0641 4.09223C70.4763 4.17544 70.8859 4.27018 71.2918 4.38539C71.7373 4.51341 72.1789 4.65679 72.6129 4.82322C73.137 5.02786 73.6498 5.26033 74.1491 5.51964C74.5063 5.70271 74.852 5.9037 75.1925 6.11493C75.5478 6.33888 75.8898 6.58338 76.2166 6.8472C76.3447 6.95217 76.4727 7.07123 76.6007 7.18005C76.7287 7.28886 76.8747 7.43608 77.0065 7.5641C77.3642 7.92757 77.6893 8.32166 77.9782 8.74188C78.27 9.16499 78.5339 9.60675 78.7681 10.0643C79.0164 10.5469 79.2366 11.0411 79.444 11.5429C79.5797 11.869 79.7077 12.1988 79.8281 12.5325C79.8337 12.5488 79.838 12.5655 79.8409 12.5824C79.7807 12.5914 79.7525 12.5428 79.7128 12.5095C79.4875 12.2944 79.2699 12.0704 79.042 11.8566C78.491 11.3419 77.9087 10.8617 77.2984 10.4189C76.5373 9.87149 75.7367 9.38111 74.9032 8.95183C73.5974 8.27754 72.2243 7.74246 70.8066 7.35543C69.7177 7.05388 68.6076 6.83478 67.4858 6.69997C67.0607 6.64877 66.6331 6.6142 66.2056 6.58348C65.3005 6.51819 64.3954 6.54251 63.4916 6.55019C63.0166 6.55019 62.5417 6.58732 62.068 6.62573C61.3997 6.67949 60.7328 6.75374 60.0709 6.86128C58.7986 7.05901 57.5572 7.42046 56.3776 7.93664C56.1356 8.0396 55.8992 8.15541 55.6696 8.28357C55.612 8.32069 55.5544 8.37574 55.475 8.3527Z" fill="#6C7983"/>
<path d="M51.5858 11.5967C51.6831 11.4854 51.7958 11.3586 51.9327 11.2127C52.2029 10.9208 52.4192 10.7083 52.5216 10.6084C53.3242 9.81431 54.2196 9.11971 55.1883 8.53965C55.2025 8.52904 55.2193 8.52241 55.2369 8.52045C55.0858 8.67407 54.9348 8.83025 54.7812 8.98132C54.3695 9.39638 53.9846 9.83723 53.629 10.3012C52.8448 11.315 52.199 12.4288 51.7087 13.613C51.5551 13.983 51.4143 14.3568 51.2888 14.7383C51.1015 15.3101 50.9459 15.8917 50.8228 16.4807C50.7319 16.9095 50.6577 17.3422 50.5988 17.7762C50.5668 18.0002 50.545 18.2256 50.5232 18.4509C50.4989 18.7069 50.481 18.9629 50.4644 19.2113C50.4298 19.7541 50.4426 20.2969 50.4439 20.8384C50.4824 21.0603 50.4368 21.2886 50.3159 21.4785C50.0189 22.0034 49.7526 22.5449 49.494 23.089C49.2354 23.6331 49.0062 24.1452 48.7937 24.6867C48.6785 24.9798 48.5697 25.2768 48.4685 25.5751C48.4557 25.6148 48.4596 25.6711 48.3956 25.6763H48.3777C48.2203 25.0769 48.0972 24.4691 48.009 23.8558C47.9654 23.5469 47.93 23.2379 47.9027 22.929C47.8835 22.7062 47.8733 22.4835 47.8592 22.262C47.8284 21.7973 47.8336 21.3326 47.8489 20.8679C47.863 20.4621 47.8976 20.0575 47.9424 19.653C48.0081 19.0655 48.1043 18.4818 48.2304 17.9042C48.338 17.4109 48.4685 16.924 48.6222 16.4435C48.7028 16.1875 48.7732 15.9929 48.8091 15.8943C48.8846 15.6818 49.0088 15.3375 49.1662 14.9892C49.3294 14.6349 49.5177 14.2926 49.7295 13.9651C50.248 13.1317 50.7601 12.5454 51.5858 11.5967Z" fill="#6C7983"/>
<path d="M75.4613 30.4078C75.3875 30.4176 75.3199 30.4545 75.2718 30.5115C74.9985 30.8073 74.6986 31.0772 74.3757 31.318C74.3399 31.3449 74.3194 31.3871 74.2874 31.405C74.2554 31.423 74.2106 31.3705 74.1594 31.3577C73.9511 31.2945 73.7364 31.255 73.5193 31.2399C73.4873 31.2399 73.454 31.2399 73.4309 31.2104C73.3784 31.1468 73.303 31.1064 73.221 31.0978C73.1856 31.0928 73.152 31.0787 73.1237 31.0568C73.0699 31.0128 73.0052 30.9842 72.9364 30.974C72.8677 30.9639 72.7974 30.9726 72.7332 30.9992C72.6641 31.0171 72.6052 31.0376 72.5271 31.0504C72.4241 31.056 72.322 31.0276 72.2367 30.9695C72.1513 30.9115 72.0874 30.827 72.0547 30.7291C72.0266 30.6305 72.0304 30.6241 72.1239 30.5883C72.1725 30.5703 72.2263 30.5563 72.2762 30.5435C72.3494 30.5312 72.4217 30.5141 72.4926 30.4923C72.7135 30.4009 72.9112 30.2614 73.0712 30.0839C73.1127 30.0438 73.1417 29.9925 73.1546 29.9363C73.1675 29.8801 73.1639 29.8213 73.1441 29.7671C73.1243 29.7129 73.0893 29.6656 73.0432 29.631C72.997 29.5963 72.9419 29.5757 72.8843 29.5718C72.8564 29.5666 72.8281 29.5641 72.7998 29.5641C72.6487 29.5564 72.4964 29.5539 72.3441 29.5436C72.3261 29.542 72.3086 29.5366 72.2929 29.5278C72.2771 29.519 72.2634 29.5069 72.2526 29.4924C72.2419 29.4779 72.2343 29.4612 72.2304 29.4436C72.2265 29.426 72.2264 29.4077 72.2301 29.39C72.241 29.3457 72.2569 29.3027 72.2775 29.262C72.3536 29.118 72.4427 28.9813 72.5438 28.8536C72.6766 28.6976 72.7833 28.5213 72.86 28.3313C72.9366 28.1349 72.9447 27.9184 72.883 27.7168C72.8488 27.6303 72.8059 27.5476 72.755 27.4697C72.7132 27.4014 72.6532 27.3459 72.5818 27.3095C72.5104 27.2732 72.4303 27.2573 72.3505 27.2636C72.2429 27.2636 72.2135 27.2239 72.2224 27.1164C72.2309 27.0457 72.2499 26.9767 72.2788 26.9116C72.325 26.8008 72.3821 26.6949 72.449 26.5954C72.4777 26.5595 72.4947 26.5157 72.4976 26.47C72.5006 26.4242 72.4895 26.3786 72.4657 26.3393C72.4286 26.2663 72.3889 26.1947 72.3479 26.1255C72.1456 25.7863 71.8947 25.4854 71.6796 25.1539C71.6101 25.05 71.5142 24.9665 71.4018 24.9119C71.3149 24.8806 71.2326 24.8375 71.1573 24.7839C71.1304 24.757 71.0856 24.7583 71.0459 24.7519C70.941 24.7365 70.836 24.7314 70.731 24.7109C70.6683 24.7038 70.6108 24.6729 70.5702 24.6245C70.5297 24.5761 70.5094 24.514 70.5134 24.451C70.4895 24.0798 70.4373 23.7108 70.3572 23.3475C70.3269 23.1774 70.236 23.0241 70.1012 22.9161C69.9386 22.7791 69.7645 22.6601 69.6045 22.5167C69.5579 22.4782 69.5025 22.4519 69.4433 22.4403C69.384 22.4287 69.3228 22.4321 69.2652 22.4501C69.2407 22.4525 69.2179 22.4637 69.201 22.4816C69.1841 22.4995 69.1741 22.5228 69.173 22.5474C69.1577 22.6524 69.1461 22.7574 69.1257 22.861C69.1023 22.9769 69.1253 23.0973 69.1897 23.1965C69.2048 23.2164 69.2185 23.2373 69.2306 23.2592C69.2844 23.3667 69.3459 23.4704 69.2767 23.5959C69.2601 23.6319 69.2534 23.6717 69.2575 23.7111C69.2621 23.782 69.2437 23.8525 69.205 23.9121C69.0476 24.1927 68.8637 24.4576 68.6558 24.7032C68.6379 24.7276 68.6149 24.7478 68.5883 24.7624C68.5618 24.777 68.5324 24.7856 68.5022 24.7877C68.4381 24.7943 68.3772 24.8192 68.3268 24.8594C68.1661 24.9812 68.0257 25.1277 67.9108 25.2934C67.7871 25.4711 67.6269 25.6204 67.4409 25.7312C67.3096 25.8004 67.172 25.857 67.03 25.9002C66.8354 25.9681 66.6383 26.0282 66.4398 26.0769C66.4198 26.0851 66.3982 26.0886 66.3766 26.0872C66.3551 26.0858 66.3341 26.0795 66.3153 26.0687C66.2966 26.058 66.2805 26.0431 66.2683 26.0252C66.2562 26.0073 66.2483 25.9869 66.2452 25.9655C66.238 25.9382 66.2273 25.9119 66.2132 25.8874C66.1246 25.7731 66.0793 25.6312 66.0852 25.4867C66.0506 25.465 66.0161 25.5008 65.9815 25.4726C65.8619 25.3897 65.7186 25.3479 65.5731 25.3536C65.538 25.3469 65.5018 25.3477 65.467 25.3558C65.4321 25.364 65.3994 25.3793 65.3709 25.4009C65.3511 25.4161 65.3266 25.4238 65.3017 25.4227C65.1904 25.4304 65.0764 25.4457 64.965 25.4547C64.7825 25.4824 64.5979 25.4939 64.4133 25.4893C64.4195 25.529 64.4109 25.5695 64.389 25.6032C64.3558 25.653 64.3324 25.7086 64.3198 25.7671C64.2946 25.8817 64.2389 25.9874 64.1585 26.073C64.1394 26.0967 64.1128 26.1133 64.083 26.12C64.0533 26.1267 64.0222 26.1233 63.9947 26.1102C63.9615 26.0977 63.9301 26.0809 63.9012 26.0602C63.8841 26.0441 63.864 26.0315 63.8421 26.0231C63.8201 26.0148 63.7967 26.0108 63.7732 26.0116C63.7371 26.0146 63.7012 26.0036 63.6729 25.981C63.6446 25.9584 63.6259 25.9258 63.6208 25.89C63.6598 25.8737 63.695 25.8497 63.7243 25.8193C63.7536 25.7889 63.7763 25.7528 63.7911 25.7133C63.8026 25.689 63.8244 25.6787 63.8449 25.6634C63.8979 25.6227 63.9374 25.567 63.9582 25.5035C63.979 25.4399 63.9801 25.3716 63.9614 25.3075C63.9295 25.2172 63.8865 25.1311 63.8334 25.0514C63.8166 25.0212 63.7936 24.995 63.7657 24.9746C63.7378 24.9542 63.7059 24.9401 63.672 24.9333C63.6381 24.9264 63.6032 24.9271 63.5696 24.9351C63.536 24.9431 63.5046 24.9584 63.4775 24.9798C63.4327 25.0092 63.3917 25.0425 63.3494 25.0719C63.3072 25.1014 63.2803 25.0886 63.2701 25.118C63.2598 25.1475 63.2765 25.1859 63.2906 25.2179C63.2906 25.2281 63.2906 25.2384 63.2995 25.2499C63.3126 25.2751 63.3158 25.3043 63.3085 25.3318C63.3012 25.3593 63.2838 25.3831 63.2598 25.3984C63.2197 25.4298 63.1935 25.4758 63.1869 25.5264C63.1536 25.6928 63.0294 25.7556 62.9219 25.9105C63.1229 26.0103 63.0179 26.4929 63.2099 26.6517C63.2503 26.6836 63.2817 26.7255 63.3008 26.7733C63.3155 26.82 63.3155 26.87 63.3008 26.9167C63.2522 27.1062 63.3008 27.2905 63.3098 27.4748C63.3116 27.501 63.3198 27.5264 63.3336 27.5487C63.3474 27.571 63.3665 27.5896 63.3891 27.6029C63.41 27.6199 63.4357 27.63 63.4626 27.6316C63.4895 27.6332 63.5162 27.6263 63.5389 27.6118C63.5623 27.6007 63.5813 27.582 63.5929 27.5588C63.6045 27.5356 63.608 27.5092 63.6029 27.4838C63.5927 27.3535 63.5901 27.2227 63.5953 27.0921C63.5925 27.0533 63.6024 27.0147 63.6234 26.982C63.6266 26.9735 63.6321 26.9661 63.6394 26.9607C63.6466 26.9553 63.6552 26.952 63.6643 26.9513C63.6733 26.9507 63.6823 26.9526 63.6903 26.9569C63.6982 26.9612 63.7048 26.9677 63.7092 26.9756C63.7216 26.9905 63.7305 27.008 63.7352 27.0269C63.7398 27.0457 63.7401 27.0654 63.7361 27.0844C63.6992 27.2466 63.6949 27.4146 63.7233 27.5785C63.732 27.6115 63.7335 27.6459 63.7277 27.6794C63.722 27.713 63.7091 27.745 63.69 27.7731C63.6763 27.7928 63.6684 27.8158 63.6672 27.8397C63.666 27.8636 63.6715 27.8874 63.6831 27.9083C63.6947 27.9292 63.7119 27.9465 63.7328 27.9581C63.7537 27.9698 63.7775 27.9753 63.8014 27.9741C63.8269 27.9736 63.8523 27.9781 63.8761 27.9876C63.8998 27.9971 63.9214 28.0112 63.9396 28.0292C63.9891 28.0807 64.0198 28.1475 64.0267 28.2186C64.033 28.2643 64.0281 28.3109 64.0126 28.3543C63.9906 28.3953 63.9857 28.4433 63.9989 28.4878C64.0121 28.5324 64.0423 28.57 64.083 28.5924C64.1816 28.6667 64.2763 28.7474 64.38 28.8152C64.417 28.8394 64.4478 28.8719 64.4701 28.9102C64.4923 28.9484 64.5053 28.9913 64.508 29.0354C64.508 29.0508 64.5183 29.0815 64.4965 29.0789C64.4287 29.0687 64.4351 29.125 64.4197 29.1583C64.4041 29.1976 64.3791 29.2323 64.3468 29.2596C64.3145 29.2868 64.276 29.3056 64.2347 29.3144C64.1934 29.3231 64.1506 29.3215 64.11 29.3097C64.0695 29.2979 64.0325 29.2762 64.0023 29.2466C63.9673 29.2169 63.9344 29.1848 63.9038 29.1506C63.8641 29.1058 63.8321 29.0789 63.7655 29.1186C63.6989 29.1583 63.5722 29.0661 63.5696 28.9765C63.5695 28.9476 63.5595 28.9197 63.5415 28.8971C63.4498 28.7819 63.3643 28.6618 63.2854 28.5374C63.2297 28.463 63.1568 28.4033 63.0729 28.3633C62.9769 28.307 62.8771 28.2506 62.7772 28.1982C62.745 28.1815 62.7168 28.158 62.6946 28.1292C62.6725 28.1005 62.657 28.0672 62.6492 28.0317C62.621 27.9229 62.5826 27.8154 62.5621 27.7053C62.547 27.6428 62.5525 27.577 62.5779 27.5179C62.6033 27.4588 62.6472 27.4096 62.703 27.3776C62.7208 27.3686 62.7363 27.3556 62.7482 27.3396C62.7602 27.3236 62.7682 27.3051 62.7717 27.2854C62.7752 27.2658 62.774 27.2456 62.7683 27.2264C62.7626 27.2073 62.7525 27.1898 62.7388 27.1753L62.3714 26.7208C62.323 26.6728 62.2942 26.6084 62.2907 26.5403C62.2915 26.5014 62.3025 26.4634 62.3227 26.4302C62.4956 26.1114 62.5788 25.9476 62.7439 25.9041C62.7458 25.8978 62.7458 25.8911 62.7439 25.8849C62.7439 25.7978 62.6748 25.7287 62.6453 25.6493C62.6356 25.6118 62.6175 25.577 62.5923 25.5475C62.5672 25.518 62.5357 25.4947 62.5002 25.4791C62.4647 25.4636 62.4261 25.4563 62.3874 25.4579C62.3487 25.4594 62.3108 25.4697 62.2766 25.488C62.1454 25.5429 62.0172 25.6049 61.8926 25.6736C61.8181 25.7133 61.7416 25.7492 61.6634 25.7812C61.6426 25.7915 61.6195 25.7969 61.5962 25.7969C61.5729 25.7969 61.5499 25.7915 61.529 25.7812C61.3942 25.7185 61.251 25.6754 61.104 25.6531C61.0555 25.6503 61.0088 25.6338 60.9694 25.6055C60.9299 25.5771 60.8994 25.5382 60.8812 25.4931C60.8789 25.4848 60.8747 25.4771 60.8689 25.4707C60.8632 25.4642 60.856 25.4592 60.848 25.456C60.7699 25.4201 60.6943 25.3805 60.6162 25.3485C60.4882 25.2934 60.3717 25.2384 60.254 25.1718C60.1947 25.1312 60.124 25.1105 60.0521 25.1128C59.9803 25.1151 59.9111 25.1403 59.8545 25.1846C59.7911 25.2311 59.7164 25.2599 59.6382 25.2678C59.5575 25.2856 59.473 25.2714 59.4026 25.2281C59.3825 25.2093 59.3559 25.1988 59.3284 25.1988C59.3008 25.1988 59.2743 25.2093 59.2541 25.2281C59.2227 25.2499 59.1932 25.2743 59.1658 25.3011C58.9988 25.4772 58.8586 25.6769 58.7497 25.8938C58.7056 25.9671 58.6769 26.0485 58.6652 26.1332C58.655 26.2715 58.6435 26.4084 58.6358 26.5454C58.6233 26.73 58.6637 26.9143 58.7523 27.0767C58.8893 27.3327 59.0237 27.5888 59.1607 27.8448C59.1824 27.8845 59.194 27.9101 59.153 27.9434C59.112 27.9767 59.1235 27.9895 59.162 28.0151C59.2815 28.0919 59.3736 28.2047 59.4249 28.3372C59.4762 28.4698 59.4841 28.6152 59.4474 28.7525C59.4391 28.7743 59.4374 28.7982 59.4427 28.821C59.4479 28.8438 59.4598 28.8645 59.4769 28.8805L59.5767 28.9893C59.6197 29.0367 59.6578 29.0881 59.6907 29.1429C59.7061 29.1758 59.7143 29.2115 59.7148 29.2478C59.7154 29.284 59.7082 29.32 59.6938 29.3533C59.6794 29.3866 59.6581 29.4164 59.6313 29.4408C59.6045 29.4653 59.5728 29.4837 59.5383 29.495C59.4871 29.5078 59.4385 29.5321 59.3885 29.5475C59.335 29.5622 59.2879 29.5946 59.2552 29.6395C59.2224 29.6844 59.2058 29.739 59.208 29.7945C59.208 29.9469 59.1927 30.098 59.1952 30.2503C59.1977 30.342 59.1698 30.432 59.1159 30.5063C59.0654 30.5785 59.0225 30.6558 58.9878 30.7368C58.8957 30.9493 58.8598 30.9762 58.6217 30.9838C58.6115 30.9845 58.6012 30.9845 58.591 30.9838C58.4847 30.986 58.379 31.0006 58.2761 31.0274C58.1314 31.0735 58.0917 31.1259 58.0623 31.2834C58.0507 31.3474 58.0623 31.4114 58.052 31.4831C58.0512 31.6531 58.0072 31.8201 57.924 31.9683C57.8764 32.0374 57.8437 32.1157 57.8278 32.1981C57.812 32.2805 57.8133 32.3653 57.8318 32.4471C57.8448 32.5163 57.8508 32.5866 57.8498 32.657C57.8486 32.8447 57.8254 33.0317 57.7806 33.2139C57.7663 33.2833 57.7772 33.3555 57.8114 33.4175C57.8946 33.5586 58.0133 33.6756 58.1557 33.7567C58.3798 33.9065 58.6025 34.0563 58.8176 34.2176C59.0872 34.4372 59.3993 34.5989 59.7342 34.6926C59.9828 34.7699 60.2467 34.7844 60.5023 34.7348C60.8564 34.6505 61.1999 34.5268 61.5265 34.3661C61.6632 34.2903 61.8183 34.2539 61.9745 34.2611C62.1934 34.2778 62.4111 34.3072 62.6313 34.3136C62.6811 34.316 62.7308 34.3077 62.7772 34.2893C62.968 34.2099 63.1613 33.9052 63.0179 33.6953C62.9852 33.6458 62.9693 33.5871 62.9725 33.5278C62.9757 33.4686 62.9979 33.4119 63.0358 33.3663C63.0681 33.3238 63.0948 33.2773 63.1152 33.228C63.1411 33.1595 63.1872 33.1003 63.2472 33.0583C63.3073 33.0163 63.3786 32.9934 63.4519 32.9925C63.5683 32.9804 63.6837 32.9608 63.7975 32.9336C64.1458 32.8719 64.4883 32.7816 64.8217 32.6635C64.9859 32.6044 65.1328 32.5054 65.2493 32.3754C65.2972 32.3226 65.3253 32.2547 65.3286 32.1834C65.3286 32.1079 65.3171 32.0899 65.2467 32.0694L64.5733 31.8825C64.4248 31.8403 64.3979 31.8134 64.3813 31.6572C64.3749 31.5792 64.3465 31.5046 64.2994 31.4421C64.2584 31.3884 64.22 31.3333 64.1713 31.2808C64.1258 31.2275 64.0965 31.1622 64.0868 31.0927C64.0087 30.6126 63.9755 30.13 63.9358 29.646C63.9358 29.6294 63.9255 29.6102 63.9524 29.6038C63.9793 29.5974 63.9934 29.5948 64.0075 29.6204C64.07 29.7104 64.1223 29.807 64.1637 29.9085C64.2328 30.1645 64.2917 30.4206 64.3403 30.6843C64.3762 30.829 64.3968 30.977 64.4018 31.1259C64.4008 31.2143 64.4076 31.3025 64.4222 31.3897C64.4207 31.432 64.4285 31.4742 64.445 31.5132C64.4615 31.5522 64.4864 31.5871 64.5179 31.6154C64.5494 31.6438 64.5868 31.6648 64.6273 31.6771C64.6678 31.6894 64.7106 31.6927 64.7525 31.6867C64.9292 31.6867 65.1072 31.6726 65.2825 31.6611C65.6038 31.6331 65.9211 31.57 66.2286 31.4729C66.5678 31.3769 66.5678 31.3781 66.8367 31.149L67.1887 30.8584C67.2588 30.7978 67.3452 30.759 67.4371 30.747C67.5007 30.7401 67.565 30.7459 67.6264 30.7642C67.6877 30.7824 67.7448 30.8127 67.7943 30.8533C67.9734 30.9991 68.1443 31.1547 68.3063 31.3193C68.434 31.4401 68.5522 31.5706 68.6597 31.7097C68.8222 31.9087 68.9989 32.0956 69.1884 32.2692C69.2009 32.2817 69.2152 32.2925 69.2306 32.3012C69.3138 32.3549 69.3497 32.3562 69.4214 32.2896C69.5166 32.218 69.5914 32.1226 69.6381 32.0129C69.6849 31.9033 69.7019 31.7832 69.6877 31.6649C69.6768 31.5991 69.6811 31.5317 69.7002 31.4679C69.7193 31.404 69.7526 31.3453 69.7978 31.2962C69.9755 31.1035 70.1204 30.883 70.2266 30.6433C70.233 30.6192 70.248 30.5984 70.2688 30.5847C70.2896 30.571 70.3147 30.5654 70.3393 30.5691C70.3828 30.5691 70.4199 30.5307 70.4404 30.4871C70.4801 30.4039 70.5083 30.3834 70.5915 30.4026C70.7134 30.4275 70.8308 30.4706 70.9397 30.5307C71.0267 30.5831 71.1151 30.6369 71.2047 30.6856C71.5086 30.8663 71.8213 31.0317 72.1418 31.181C72.1993 31.2044 72.2595 31.2203 72.321 31.2284C72.4951 31.2501 72.6667 31.286 72.8395 31.3154C72.5914 31.3464 72.3475 31.4048 72.1123 31.4895C72.1123 31.5356 72.1123 31.5779 72.1828 31.5638C72.2287 31.5608 72.2749 31.5646 72.3197 31.5753C72.4131 31.5966 72.5097 31.5988 72.6039 31.5817C72.6982 31.5652 72.795 31.5727 72.8856 31.6035C73.0141 31.6433 73.1479 31.6632 73.2824 31.6623C73.3146 31.6588 73.3471 31.6632 73.3772 31.6751C73.441 31.7018 73.5096 31.7155 73.5788 31.7155C73.648 31.7155 73.7166 31.7018 73.7804 31.6751C73.9283 31.6265 74.0728 31.5684 74.2131 31.501C74.2221 31.501 74.2375 31.4895 74.24 31.4921C74.2976 31.5497 74.3386 31.4921 74.3783 31.4703C74.7316 31.2661 75.0628 31.0258 75.3666 30.7534C75.4686 30.6659 75.5609 30.5676 75.6418 30.4602C75.6761 30.4234 75.6949 30.3748 75.6943 30.3245C75.6198 30.3605 75.5417 30.3884 75.4613 30.4078ZM65.0367 28.6014C64.9633 28.5406 64.8968 28.4719 64.8383 28.3966C64.7971 28.343 64.7449 28.2987 64.6854 28.2667C64.6258 28.2347 64.5601 28.2157 64.4927 28.211C64.477 28.2121 64.4614 28.2083 64.448 28.2C64.4347 28.1917 64.4243 28.1794 64.4184 28.1649C64.4044 28.1361 64.3827 28.1117 64.3557 28.0945C64.3412 28.0875 64.33 28.0752 64.3245 28.0601C64.319 28.0451 64.3196 28.0284 64.3262 28.0138C64.3403 27.9792 64.3544 27.9498 64.3966 27.9421C64.4389 27.9344 64.4863 27.9268 64.5247 27.9191C64.5667 27.9153 64.6069 27.9002 64.6412 27.8755C64.6885 27.8458 64.7442 27.8323 64.7999 27.8371C64.7967 27.9003 64.7967 27.9635 64.7999 28.0266C64.7999 28.048 64.8084 28.0685 64.8235 28.0836C64.8387 28.0988 64.8592 28.1073 64.8806 28.1073C64.9241 28.1073 64.9689 28.1226 65.0086 28.1303C65.0303 28.0957 64.9996 28.065 65.0086 28.033C65.0687 28.0341 65.128 28.0476 65.1827 28.0727C65.1493 28.1134 65.1048 28.1436 65.0547 28.1597C65.1637 28.3013 65.2421 28.4639 65.2851 28.6373C65.2449 28.6569 65.1997 28.664 65.1554 28.6576C65.1111 28.6512 65.0697 28.6316 65.0367 28.6014Z" fill="#3D3D3D"/>
<path d="M64.1124 16.802C63.8462 16.8929 63.7105 17.2706 63.4288 17.2386C63.3705 17.2261 63.3132 17.2094 63.2573 17.1886C63.1165 17.1413 62.9795 17.0837 62.8387 17.0363C62.7827 17.0185 62.7316 16.9882 62.6892 16.9476C62.6468 16.907 62.6143 16.8572 62.5941 16.802C62.5685 16.7431 62.5391 16.6868 62.5135 16.6292C62.508 16.6143 62.4986 16.6011 62.4861 16.5912C62.4737 16.5813 62.4588 16.5749 62.4431 16.5729C62.3675 16.5501 62.2869 16.5501 62.2113 16.5729C62.1357 16.5957 62.0685 16.6402 62.0181 16.7009C61.954 16.7859 61.8694 16.8532 61.7723 16.8968C61.7493 16.9052 61.7302 16.9216 61.7184 16.943C61.7067 16.9644 61.703 16.9894 61.7083 17.0133C61.7083 17.0734 61.7083 17.1336 61.7185 17.1938C61.7402 17.3678 61.6969 17.5438 61.5969 17.6879C61.4767 17.8843 61.3283 18.062 61.1565 18.2154C60.7895 18.5448 60.3877 18.8333 59.9582 19.0756C59.8635 19.1307 59.7649 19.1793 59.6689 19.2318C59.5714 19.2825 59.4938 19.3646 59.4487 19.4648C59.3941 19.5943 59.3108 19.7097 59.205 19.8022C59.0992 19.8947 58.9737 19.9619 58.8381 19.9987C58.6493 20.0469 58.4692 20.1242 58.3042 20.2278C58.2535 20.2616 58.2099 20.3051 58.1762 20.3558C57.9944 20.6119 57.8459 20.8986 57.6833 21.1713C57.633 21.249 57.5902 21.3313 57.5553 21.4171C57.4614 21.6346 57.3537 21.8458 57.2327 22.0495C57.2101 22.0899 57.1925 22.1329 57.1802 22.1775C57.1784 22.205 57.1695 22.2316 57.1545 22.2547C57.1395 22.2779 57.1188 22.2967 57.0944 22.3096C57.07 22.3224 57.0427 22.3288 57.0152 22.3281C56.9876 22.3274 56.9607 22.3196 56.937 22.3056C56.9178 22.2968 56.8981 22.2891 56.8781 22.2825C56.811 22.2658 56.7495 22.2316 56.6998 22.1835C56.6502 22.1354 56.6141 22.0751 56.5952 22.0086C56.5469 21.8788 56.4886 21.753 56.4211 21.6322C56.3908 21.5638 56.3435 21.5043 56.2836 21.4595C56.2238 21.4147 56.1534 21.386 56.0793 21.3761C56.0473 21.3739 56.017 21.3608 55.9935 21.339C55.8713 21.2373 55.7666 21.1162 55.6837 20.9806C55.5937 20.8171 55.5642 20.6272 55.6005 20.4442C55.6551 20.0805 55.6854 19.7135 55.6914 19.3458C55.698 19.3034 55.6905 19.2601 55.6702 19.2224C55.6499 19.1848 55.6177 19.1548 55.5787 19.1371C55.5322 19.1107 55.494 19.0717 55.4687 19.0246C55.4433 18.9775 55.4317 18.9242 55.4353 18.8708C55.411 18.6849 55.4263 18.496 55.4801 18.3165C55.4967 18.2676 55.5023 18.2156 55.4966 18.1643C55.4908 18.113 55.4738 18.0635 55.4468 18.0195C55.4112 17.9503 55.3931 17.8733 55.3944 17.7955C55.3896 17.5688 55.4003 17.3421 55.4264 17.117C55.4494 16.8977 55.5015 16.6824 55.5813 16.4769C55.7899 15.9648 55.8155 15.993 55.8373 15.7267C55.8578 15.5346 55.8373 15.3874 55.9282 15.1723C55.9595 15.0898 56.006 15.0138 56.0652 14.9483C56.2675 14.732 56.4659 14.8459 56.6361 14.6654C56.6873 14.6103 56.6617 14.6078 56.8359 14.1725C56.9319 13.9331 56.928 13.9638 56.9421 13.9165C56.9984 13.7257 56.9652 13.5644 56.7846 12.909C56.6976 12.594 56.672 12.507 56.7066 12.3764C56.7578 12.1818 56.9165 11.9988 57.0202 12.0218C57.0944 12.0384 57.0957 12.1498 57.2148 12.4776C57.2636 12.6379 57.3288 12.7928 57.4094 12.9397C57.5376 13.1036 57.6519 13.2779 57.7512 13.4607C57.7632 13.4827 57.7739 13.5053 57.7832 13.5286C57.8126 13.6118 57.8114 13.6976 57.8766 14.001C57.8914 14.0983 57.9159 14.194 57.9496 14.2865C58.0495 14.5246 58.1788 14.5003 58.4348 14.8152C58.5541 14.9457 58.6572 15.0902 58.7421 15.2453C58.7721 15.3117 58.8157 15.371 58.8701 15.4194C58.9265 15.4792 59.0032 15.5158 59.0851 15.5218C59.1555 15.5137 59.2207 15.481 59.2695 15.4297C59.4538 15.2901 59.692 15.3016 60.1426 15.3016C60.2282 15.3027 60.3137 15.3087 60.3986 15.3196C60.5458 15.3413 60.6918 15.3721 60.8377 15.3977C60.9324 15.41 61.0281 15.4122 61.1232 15.4041C61.194 15.4002 61.2649 15.4002 61.3357 15.4041C61.3889 15.404 61.4407 15.4205 61.4841 15.4512C61.5274 15.482 61.5601 15.5254 61.5777 15.5756C61.6058 15.6588 61.6417 15.7408 61.6724 15.824C61.7033 15.8942 61.7167 15.9708 61.7113 16.0473C61.706 16.1238 61.6821 16.1979 61.6417 16.2631C61.5948 16.3259 61.5714 16.4031 61.5753 16.4814C61.5793 16.5597 61.6105 16.6342 61.6634 16.6919C61.6788 16.7124 61.6903 16.7342 61.7044 16.7547C61.7096 16.7603 61.7157 16.765 61.7223 16.7687C61.7549 16.7589 61.7832 16.7387 61.8031 16.7112C61.823 16.6837 61.8333 16.6504 61.8324 16.6164C61.8317 16.5751 61.8468 16.5351 61.8746 16.5046C61.9025 16.4741 61.941 16.4555 61.9822 16.4525C62.2108 16.4031 62.4435 16.3752 62.6774 16.3693C62.7163 16.3692 62.7549 16.3761 62.7913 16.3898C62.9291 16.4381 63.0778 16.4465 63.2202 16.4141C63.2862 16.402 63.3539 16.402 63.4199 16.4141C63.6388 16.4551 63.8641 16.4487 64.0843 16.4858C64.1127 16.4893 64.1415 16.4848 64.1675 16.473C64.2789 16.4386 64.3876 16.3958 64.4927 16.345C64.5334 16.3279 64.5766 16.3175 64.6207 16.3143C64.8771 16.258 65.1423 16.2541 65.4003 16.3028C65.4842 16.3172 65.5662 16.3408 65.6448 16.3732C65.6761 16.3854 65.7036 16.4057 65.7245 16.432C65.7454 16.4584 65.759 16.4897 65.7639 16.5229C65.7758 16.5854 65.8058 16.643 65.8502 16.6885C65.8946 16.7341 65.9514 16.7655 66.0135 16.779C66.1885 16.8233 66.3659 16.8575 66.5448 16.8814C66.6076 16.8898 66.6667 16.916 66.7151 16.9569C66.7752 17.0094 66.8649 17.0325 66.8994 17.1106C66.9586 17.2194 67.0366 17.317 67.1299 17.3986C67.1694 17.4533 67.1992 17.5143 67.2182 17.5791C67.2403 17.6349 67.2719 17.6864 67.3116 17.7314C67.35 17.7711 67.3846 17.807 67.4473 17.7916C67.487 17.7814 67.5139 17.8057 67.5344 17.8377C67.6086 17.958 67.6944 18.072 67.7738 18.1885C67.8826 18.3656 67.9189 18.578 67.8749 18.7812C67.866 18.8409 67.8501 18.8993 67.8276 18.9553C67.7907 19.0622 67.7785 19.1759 67.7917 19.2882C67.794 19.3223 67.8047 19.3553 67.8228 19.3843C67.8409 19.4133 67.8658 19.4375 67.8954 19.4546C67.9494 19.4858 67.9901 19.5357 68.0099 19.5949C68.0297 19.6541 68.0272 19.7184 68.0029 19.7759C67.981 19.8482 67.9816 19.9254 68.0044 19.9974C68.0273 20.0694 68.0714 20.1328 68.131 20.1792C68.1926 20.2328 68.2315 20.3079 68.2398 20.3891C68.2604 20.5205 68.3103 20.6456 68.3859 20.7551C68.4615 20.8646 68.5607 20.9557 68.6763 21.0215C68.7314 21.0468 68.7911 21.0608 68.8517 21.0625C68.871 21.0615 68.8903 21.0651 68.9079 21.0732C68.9255 21.0812 68.9409 21.0933 68.9528 21.1086C68.964 21.1249 68.9811 21.1362 69.0005 21.14C69.0199 21.1438 69.04 21.1399 69.0565 21.1291C69.0949 21.1111 69.1346 21.0958 69.1743 21.0791C69.2296 21.0549 69.2884 21.0393 69.3484 21.0331C69.3932 21.0331 69.4444 21.0203 69.4764 21.0689C69.4883 21.09 69.4919 21.1147 69.4867 21.1383C69.4815 21.1619 69.4678 21.1827 69.4483 21.1969C69.4346 21.2107 69.4261 21.2289 69.4242 21.2482C69.4224 21.2676 69.4272 21.287 69.438 21.3032C69.4534 21.3352 69.4713 21.3659 69.4854 21.3979C69.4965 21.4183 69.503 21.4409 69.5046 21.4641C69.5061 21.4873 69.5026 21.5106 69.4944 21.5323C69.4778 21.5616 69.4716 21.5955 69.4768 21.6287C69.4819 21.6619 69.498 21.6925 69.5225 21.7154C69.5584 21.7538 69.5494 21.7935 69.5059 21.8242C69.473 21.8515 69.4345 21.8712 69.3931 21.8821C69.3518 21.8929 69.3086 21.8946 69.2665 21.8869L69.205 21.8703C69.173 21.8613 69.1436 21.8549 69.1193 21.8882C69.1114 21.9016 69.1072 21.9169 69.1072 21.9324C69.1072 21.9479 69.1114 21.9632 69.1193 21.9766C69.1385 22.0226 69.1538 22.07 69.1705 22.1161C69.1777 22.1324 69.1824 22.1496 69.1846 22.1673C69.1922 22.2454 69.1474 22.2787 69.0757 22.2531L69.045 22.2416C68.9298 22.1955 68.9298 22.1955 68.8722 22.3081C68.8664 22.325 68.8552 22.3394 68.8404 22.3494C68.8257 22.3593 68.808 22.3641 68.7903 22.3632H68.5675C68.5142 22.3628 68.462 22.3476 68.4168 22.3194C68.3716 22.2911 68.3352 22.2509 68.3115 22.2031C68.291 22.166 68.2743 22.1379 68.227 22.1353C68.1796 22.1327 68.1732 22.1046 68.1502 22.0815C68.0721 22.0047 67.994 21.9279 67.9146 21.8524C67.8596 21.8012 67.8583 21.7999 67.7866 21.8524C67.7555 21.8759 67.7185 21.8906 67.6797 21.8946C67.6409 21.8987 67.6017 21.892 67.5664 21.8754C67.5213 21.8538 67.4735 21.8383 67.4243 21.8293C67.3949 21.8293 67.3795 21.8293 67.3782 21.8665C67.3732 21.9651 67.3525 22.0624 67.3168 22.1545C67.2983 22.2303 67.2914 22.3084 67.2963 22.3862C67.2942 22.4496 67.2717 22.5106 67.2323 22.5603C67.1273 22.7063 67.0287 22.8573 66.9237 23.0045C66.8598 23.0975 66.7892 23.1856 66.7125 23.2683C66.6577 23.3338 66.5896 23.387 66.5128 23.4244C66.5027 23.4278 66.4934 23.4331 66.4854 23.44C66.4774 23.447 66.4708 23.4555 66.4662 23.4651C66.4615 23.4746 66.4588 23.485 66.4583 23.4956C66.4577 23.5063 66.4593 23.5169 66.4629 23.5269C66.4718 23.5819 66.4782 23.6382 66.4872 23.6946C66.4983 23.7382 66.4927 23.7843 66.4713 23.8239C66.45 23.8636 66.4145 23.8937 66.372 23.9084C66.3539 23.9151 66.3376 23.9259 66.3243 23.9399C66.311 23.9539 66.3011 23.9707 66.2952 23.989C66.2892 24.01 66.2753 24.0278 66.2565 24.0388C66.2376 24.0498 66.2152 24.053 66.194 24.0479C66.1595 24.0479 66.1236 24.0479 66.0891 24.0415C65.9508 24.0269 65.8113 24.0508 65.6858 24.1106C65.6663 24.1219 65.6443 24.1278 65.6218 24.1278C65.5993 24.1278 65.5772 24.1219 65.5578 24.1106C65.5143 24.0863 65.4643 24.0735 65.4208 24.0517C65.3541 24.0177 65.2785 24.0052 65.2045 24.0159C65.1371 24.027 65.068 24.0156 65.0078 23.9835C64.9476 23.9513 64.8997 23.9001 64.8716 23.838C64.7983 23.693 64.7126 23.5547 64.6156 23.4244C64.483 23.2582 64.3212 23.1176 64.1381 23.0097C64.0958 22.9828 64.0344 22.9597 64.0574 22.9021C64.0804 22.8445 64.0932 22.7741 64.1675 22.7588C64.2802 22.728 64.3902 22.6896 64.5042 22.6653C64.6324 22.6471 64.7629 22.6545 64.8882 22.6871C64.9086 22.6925 64.9275 22.7025 64.9433 22.7165C64.9963 22.7583 65.056 22.7908 65.12 22.8125C65.1991 22.8321 65.2738 22.8664 65.3402 22.9137C65.3594 22.9316 65.3875 22.9226 65.4118 22.9252C65.597 22.9542 65.7852 22.9576 65.9713 22.9354C66.0346 22.9271 66.0987 22.9271 66.162 22.9354C66.2657 22.9444 66.2837 22.9201 66.2504 22.8253C66.2286 22.7602 66.1934 22.7003 66.1471 22.6496C66.1008 22.5989 66.0444 22.5585 65.9815 22.5309C65.8691 22.4778 65.7433 22.4599 65.6205 22.4797C65.526 22.4986 65.428 22.4874 65.3402 22.4477C65.3296 22.4409 65.3179 22.4363 65.3056 22.4341C65.2933 22.4319 65.2807 22.4322 65.2685 22.4349C65.2201 22.4474 65.1691 22.4464 65.1213 22.4319C65.0734 22.4175 65.0304 22.3902 64.9971 22.3529C64.9458 22.3125 64.9033 22.262 64.8723 22.2045C64.8412 22.1471 64.8223 22.0839 64.8166 22.0188C64.8141 22.0075 64.814 21.9959 64.8162 21.9845C64.8184 21.9732 64.8229 21.9625 64.8293 21.9529C64.8358 21.9433 64.8441 21.9352 64.8538 21.9289C64.8635 21.9226 64.8743 21.9184 64.8857 21.9164C65.0431 21.8767 65.2019 21.8345 65.3606 21.7986C65.431 21.782 65.4733 21.8345 65.4566 21.9061C65.4566 21.9228 65.4426 21.9381 65.4387 21.9561C65.4371 21.9684 65.4393 21.9809 65.445 21.9919C65.4507 22.0029 65.4597 22.0118 65.4707 22.0175C65.4803 22.0229 65.4915 22.0248 65.5023 22.0227C65.5131 22.0205 65.5228 22.0146 65.5296 22.006C65.6046 21.927 65.6724 21.8413 65.7319 21.75C65.7378 21.741 65.7401 21.7301 65.7385 21.7194C65.7368 21.7088 65.7313 21.6991 65.7229 21.6924C65.6965 21.6583 65.6596 21.634 65.618 21.6232C65.5096 21.6056 65.4038 21.5747 65.303 21.531C65.2355 21.5099 65.1631 21.5099 65.0956 21.531C65.0777 21.531 65.0611 21.54 65.0444 21.5464C64.931 21.5851 64.8122 21.6063 64.6924 21.6091C64.4913 21.6288 64.2921 21.6652 64.0971 21.718C64.028 21.7333 63.9588 21.7487 63.891 21.7704C63.7118 21.8178 63.5235 21.8178 63.3443 21.7704C63.2264 21.75 63.1068 21.741 62.9872 21.7436C62.9693 21.7448 62.9513 21.7448 62.9334 21.7436C62.854 21.7308 62.8284 21.6719 62.8758 21.6066C62.8974 21.5737 62.9252 21.5454 62.9577 21.5234C62.9859 21.5081 63.0085 21.4842 63.0221 21.4552C63.0357 21.4261 63.0396 21.3935 63.0333 21.3621C63.0333 21.3198 63.0333 21.2763 63.0256 21.234C63.0158 21.1637 63.0269 21.092 63.0576 21.0279C63.0827 20.9614 63.0919 20.89 63.0845 20.8193C63.0801 20.7594 63.0862 20.6992 63.1024 20.6413C63.128 20.5786 63.1382 20.5747 63.201 20.5991C63.2637 20.6234 63.329 20.6106 63.3418 20.5287C63.3418 20.5043 63.3546 20.4813 63.361 20.457C63.3801 20.4068 63.383 20.3518 63.3693 20.2999C63.3555 20.248 63.3257 20.2017 63.2842 20.1676C63.2763 20.1634 63.2694 20.1576 63.2639 20.1506C63.2583 20.1436 63.2543 20.1355 63.252 20.1268C63.2497 20.1182 63.2493 20.1092 63.2506 20.1003C63.2519 20.0915 63.2551 20.083 63.2598 20.0755C63.3879 19.8386 63.3405 19.6082 63.2304 19.3842C63.2137 19.3499 63.2041 19.3127 63.2021 19.2746C63.2002 19.2366 63.2059 19.1985 63.2189 19.1627C63.2765 18.9694 63.3469 18.7786 63.393 18.5853C63.4401 18.4364 63.5232 18.3014 63.6349 18.1923C63.6916 18.1431 63.7624 18.1131 63.8372 18.1065C63.8853 18.0951 63.9324 18.0796 63.978 18.0605C63.978 18.0605 64.0152 18.0477 64.083 18.0323C64.1852 18.0196 64.2888 18.0279 64.3877 18.0566C64.6104 18.1219 65.1712 17.9145 65.2339 17.6418C65.3171 17.2744 64.5477 16.6522 64.1124 16.802Z" fill="#3D3D3D"/>
<path d="M77.2075 29.4912C77.2075 29.4912 77.2075 29.4912 77.1985 29.4912C77.1947 29.493 77.1906 29.494 77.1864 29.494C77.1822 29.494 77.178 29.493 77.1742 29.4912C77.165 29.4852 77.1574 29.4769 77.1521 29.4672C77.1469 29.4575 77.1441 29.4466 77.1441 29.4355C77.1441 29.4245 77.1469 29.4136 77.1521 29.4039C77.1574 29.3942 77.165 29.3859 77.1742 29.3799C77.1998 29.3602 77.2171 29.3317 77.2226 29.2999C77.228 29.2681 77.2213 29.2353 77.2037 29.2083C77.1677 29.1347 77.1472 29.0546 77.1435 28.9728C77.135 28.9076 77.1434 28.8414 77.1678 28.7805C77.1923 28.7195 77.2319 28.6658 77.283 28.6245C77.375 28.5537 77.4569 28.4706 77.5263 28.3775C77.5468 28.348 77.5532 28.3288 77.5263 28.2968C77.4733 28.2415 77.4358 28.1732 77.4174 28.0989C77.399 28.0246 77.4003 27.9467 77.4213 27.8731C77.4315 27.8167 77.4469 27.7617 77.461 27.7041C77.4616 27.701 77.4613 27.6977 77.4602 27.6948C77.4591 27.6918 77.4571 27.6892 77.4545 27.6873C77.452 27.6855 77.4489 27.6844 77.4458 27.6841C77.4426 27.6839 77.4394 27.6846 77.4367 27.6862C77.4284 27.6914 77.4199 27.6961 77.411 27.7002C77.408 27.701 77.4048 27.7009 77.4018 27.6999C77.3989 27.699 77.3962 27.6972 77.3942 27.6948C77.3922 27.6924 77.3909 27.6894 77.3905 27.6863C77.3901 27.6832 77.3905 27.6801 77.3918 27.6772C77.4559 27.5492 77.5199 27.4212 77.5724 27.2842C77.6248 27.1472 77.7004 27.0281 77.7503 26.8848C77.7512 26.882 77.7527 26.8794 77.7549 26.8774C77.757 26.8754 77.7597 26.8741 77.7625 26.8734C77.7654 26.8728 77.7684 26.8729 77.7712 26.8737C77.774 26.8746 77.7765 26.8762 77.7785 26.8784C77.8463 26.9526 77.8847 27.0422 77.9564 27.1088C77.958 27.1107 77.9599 27.1122 77.9621 27.1132C77.9644 27.1143 77.9668 27.1148 77.9692 27.1148C77.9717 27.1148 77.9741 27.1143 77.9763 27.1132C77.9785 27.1122 77.9805 27.1107 77.982 27.1088C78.151 26.863 78.3225 26.6249 78.4826 26.3791C78.4955 26.3623 78.5016 26.3412 78.4997 26.3201C78.4978 26.299 78.488 26.2794 78.4723 26.2652C78.3961 26.1716 78.2949 26.1014 78.1804 26.0629C78.0294 26.013 78.014 25.9349 77.9359 25.7979C77.9294 25.792 77.9245 25.7846 77.9216 25.7763C77.9187 25.7681 77.9179 25.7592 77.9193 25.7505C77.9207 25.7419 77.9242 25.7337 77.9296 25.7268C77.935 25.7198 77.942 25.7144 77.95 25.7108C78.1484 25.5739 78.2534 25.4548 78.4877 25.3818C78.5491 25.3639 78.6157 25.3511 78.6733 25.3345C78.7537 25.3168 78.8253 25.2715 78.8756 25.2064C78.9446 25.1259 78.9937 25.0303 79.019 24.9274C79.0229 24.9102 79.0303 24.8941 79.0407 24.88C79.2072 24.624 79.3518 24.3602 79.5221 24.1119C79.5594 24.0603 79.5904 24.0045 79.6143 23.9455C79.6975 23.7125 80.102 23.6369 80.3017 23.7957C80.3677 23.8438 80.4213 23.907 80.4579 23.98C80.5242 24.1103 80.6213 24.2223 80.7408 24.3065C80.8138 24.3628 80.8791 24.4345 80.9482 24.4883C80.9758 24.5103 80.9968 24.5395 81.0088 24.5727C81.0208 24.606 81.0233 24.6419 81.0161 24.6764C81.0084 24.7289 81.0033 24.7814 80.9917 24.8326C80.9642 25.0071 80.9591 25.1843 80.9764 25.3601C80.9869 25.5085 80.9735 25.6576 80.9367 25.8017C80.9232 25.8603 80.9232 25.9211 80.9367 25.9797C80.9601 26.1277 80.94 26.2793 80.8791 26.4162C80.8227 26.5442 80.7677 26.6723 80.7127 26.808C80.6963 26.8471 80.6714 26.8821 80.6397 26.9104C80.5063 27.0576 80.347 27.179 80.1699 27.2688C80.1494 27.2765 80.1289 27.2868 80.1263 27.3111C80.1123 27.4135 80.0559 27.5031 80.0406 27.6055C80.0342 27.6516 80.0303 27.6964 80.0265 27.7425C80.0277 27.7774 80.0184 27.8119 79.9996 27.8414C79.9809 27.8708 79.9536 27.8939 79.9215 27.9076C79.7287 27.994 79.5746 28.1485 79.4888 28.3416C79.3979 28.5221 79.3339 28.7154 79.2392 28.8921C79.1421 29.0989 79.0612 29.3129 78.9972 29.5322C78.9253 29.7352 78.8679 29.9432 78.8257 30.1544C78.7857 30.3234 78.721 30.4856 78.6336 30.6357C78.5658 30.7637 78.4954 30.8815 78.425 31.0031C78.3087 31.1856 78.1614 31.3464 77.9897 31.4781C77.8853 31.5634 77.7745 31.6404 77.6581 31.7085C77.5047 31.802 77.3246 31.8421 77.146 31.8225C77.0115 31.8167 76.8784 31.7926 76.7505 31.7508C76.7084 31.7326 76.6703 31.7062 76.6385 31.6731C76.6067 31.6401 76.5818 31.601 76.5652 31.5583C76.5486 31.5155 76.5408 31.4698 76.542 31.424C76.5433 31.3781 76.5536 31.333 76.5725 31.2912C76.6429 31.1632 76.6877 31.0249 76.7517 30.8943C76.8618 30.6728 76.9655 30.4475 77.0692 30.2235C77.1128 30.1275 77.1499 30.0289 77.1973 29.9329C77.2143 29.9029 77.2193 29.8676 77.2112 29.834C77.2031 29.8005 77.1826 29.7713 77.1537 29.7524C77.0782 29.7012 77.1076 29.6244 77.1012 29.5591C77.1002 29.5544 77.1002 29.5496 77.1012 29.545C77.1115 29.5245 77.1486 29.5232 77.1665 29.5232C77.1704 29.5066 77.2049 29.5002 77.2075 29.4912Z" fill="#3D3D3D"/>
<path d="M77.7887 25.8158C77.7759 25.8747 77.7644 25.9336 77.7465 25.9912C77.7216 26.0571 77.6899 26.1202 77.6517 26.1794C77.4955 26.4354 77.2677 26.6403 77.0744 26.8694C76.9947 26.9595 76.9223 27.0558 76.858 27.1575C76.8421 27.1812 76.8296 27.207 76.8209 27.2343C76.8205 27.2462 76.8175 27.258 76.8123 27.2688C76.807 27.2795 76.7996 27.2891 76.7904 27.2968C76.7813 27.3045 76.7706 27.3102 76.7591 27.3136C76.7476 27.3169 76.7355 27.3178 76.7236 27.3162C76.6742 27.3238 76.629 27.3482 76.5956 27.3853C76.5454 27.4307 76.4878 27.467 76.4253 27.4929C76.3575 27.5172 76.3408 27.5057 76.3459 27.4365C76.3483 27.384 76.3574 27.3319 76.3728 27.2816C76.4397 27.0531 76.5254 26.8304 76.6289 26.6159C76.721 26.4316 76.7838 26.2319 76.8772 26.0526C76.9886 25.8363 77.0756 25.6059 77.1921 25.3933C77.3602 25.0826 77.5633 24.7922 77.7977 24.5279C77.866 24.4464 77.9391 24.369 78.0166 24.2962C78.0314 24.2815 78.0473 24.2678 78.0639 24.2553C78.096 24.2348 78.1241 24.2476 78.1203 24.2834C78.1161 24.5826 78.0141 24.8722 77.8297 25.1079C77.7577 25.1796 77.7135 25.2745 77.7048 25.3757C77.6962 25.477 77.7236 25.578 77.7823 25.6609C77.789 25.6736 77.7945 25.6869 77.7989 25.7006C77.8207 25.7403 77.79 25.7774 77.7887 25.8158Z" fill="#3D3D3D"/>
<path d="M75.2834 30.0084C75.2697 30.0542 75.243 30.0951 75.2066 30.1262C75.099 30.2298 74.9928 30.3335 74.884 30.4334C74.7995 30.5043 74.7002 30.5555 74.5934 30.5832C74.4933 30.6071 74.3914 30.6221 74.2887 30.628C74.2354 30.6318 74.1825 30.6158 74.1402 30.5832C74.1224 30.5729 74.1071 30.5589 74.0952 30.5422C74.0833 30.5255 74.0752 30.5064 74.0713 30.4863C74.0674 30.4661 74.0679 30.4454 74.0727 30.4254C74.0775 30.4055 74.0866 30.3868 74.0992 30.3707C74.1517 30.2913 74.2272 30.2273 74.2695 30.1415C74.2865 30.1112 74.2986 30.0783 74.3053 30.0442C74.3386 29.8535 74.3745 29.6602 74.409 29.4707C74.4099 29.4358 74.418 29.4015 74.4326 29.3698C74.4473 29.3382 74.4683 29.3098 74.4943 29.2866C74.5203 29.2633 74.5508 29.2456 74.5839 29.2346C74.617 29.2235 74.652 29.2194 74.6868 29.2223C74.8315 29.2223 74.9761 29.2121 75.1208 29.2095C75.204 29.2095 75.2104 29.2095 75.204 29.2915C75.2018 29.4475 75.2305 29.6024 75.2885 29.7472C75.3112 29.7872 75.3227 29.8325 75.3218 29.8785C75.3209 29.9245 75.3076 29.9693 75.2834 30.0084Z" fill="#3D3D3D"/>
<path d="M62.9222 25.8965L62.9158 25.9029C62.8893 25.921 62.8604 25.9353 62.8299 25.9452C62.7875 25.9606 62.7209 25.958 62.7362 25.9118C62.7369 25.9076 62.7369 25.9033 62.7362 25.899H62.7465C62.8028 25.8767 62.8653 25.8758 62.9222 25.8965Z" fill="white"/>
<path d="M11.1945 15.3568V6.3634H9.63993V5.09719H11.1945V3.58259C11.1945 1.55837 12.2295 0.569092 14.3022 0.569092C14.6643 0.581134 15.0255 0.612586 15.3843 0.663309V1.88812C14.9132 1.84101 14.5363 1.7939 14.3022 1.7939C13.2187 1.7939 12.7005 2.36491 12.7005 3.44127V5.09719H15.3843V6.322H12.7005V15.3154H11.1945V15.3568Z" fill="#87959E"/>
<path d="M16.0038 5.09723H17.5027L17.36 6.27494L17.4071 6.32205C18.0195 5.33277 18.9616 4.86169 20.3264 4.86169C22.2107 4.86169 23.1514 5.85096 23.1514 7.78097V8.49474H21.6939L21.741 8.2592C21.741 7.9737 21.7881 7.78812 21.7881 7.68819C21.7881 6.65324 21.2171 6.08794 20.0937 6.08794C18.3978 6.08794 17.5969 7.12432 17.5969 9.19565V15.3654H16.0909V5.09723H16.0038Z" fill="#87959E"/>
<path d="M32.4289 5.09718V16.0234C32.4289 17.5295 32.0992 18.5187 31.4411 19.084C30.783 19.6493 29.6038 19.932 27.9094 19.932C26.3548 19.932 25.3198 19.6964 24.7545 19.2182C24.1892 18.74 23.9066 17.8521 23.9066 16.5802H25.367C25.367 17.4752 25.5097 18.0405 25.8366 18.2761C26.1664 18.5616 26.873 18.6529 27.9565 18.6529C29.0857 18.6529 29.8865 18.4645 30.2634 18.1347C30.6402 17.805 30.8758 17.0984 30.8758 16.1105V14.0378H30.8287C30.4518 14.9799 29.3212 15.451 27.4854 15.451C25.9779 15.451 24.943 15.0741 24.3306 14.3204C23.7653 13.5667 23.4826 12.201 23.4826 10.2234C23.4826 8.15065 23.7681 6.78594 24.3777 6.03221C24.943 5.27847 26.026 4.90161 27.6267 4.90161C29.3212 4.90161 30.4047 5.4198 30.9229 6.45618H30.97L30.8758 5.09005L32.4289 5.09718ZM27.9565 6.22778C26.7788 6.22778 26.025 6.46332 25.6496 6.98151C25.3198 7.49828 25.1314 8.58177 25.1314 10.2306C25.1314 11.925 25.3198 13.0085 25.6496 13.5267C25.9794 14.0449 26.7788 14.2804 27.9565 14.2804C29.1342 14.2804 29.9336 13.9949 30.3105 13.4325C30.6873 12.87 30.8815 11.738 30.8815 9.9479C30.8815 8.39333 30.693 7.40548 30.3105 6.88729C29.9336 6.45618 29.137 6.22064 27.9565 6.22064V6.22778Z" fill="#87959E"/>
<path d="M42.2702 7.77384H40.7628C40.7628 7.06865 40.62 6.59756 40.3345 6.45624C40.049 6.2678 39.2996 6.2207 38.0747 6.2207C36.946 6.2207 36.2399 6.31586 35.9563 6.5062C35.6708 6.69463 35.4852 7.11861 35.4852 7.8238C35.4852 8.86018 36.0034 9.42549 36.9927 9.4726L38.2161 9.5197L39.7706 9.61392C41.6535 9.70814 42.5486 10.6974 42.5486 12.5332C42.5486 13.6638 42.2188 14.4646 41.6064 14.8886C40.994 15.3126 39.8649 15.5481 38.2161 15.5481C36.5216 15.5481 35.391 15.3597 34.7315 14.9357C34.1205 14.5075 33.7908 13.758 33.7908 12.6745V12.1035H35.3439V12.5746C35.3439 13.2341 35.5323 13.7052 35.8621 13.9407C36.1918 14.1763 36.8985 14.2705 37.8863 14.2705C39.1111 14.2705 39.9591 14.1277 40.3345 13.8936C40.71 13.6595 40.9055 13.187 40.9055 12.4333C40.9055 11.3512 40.4344 10.833 39.4466 10.833C37.1873 10.833 35.6803 10.6427 34.9256 10.262C34.219 9.89371 33.8479 9.0943 33.8479 7.86805C33.8479 6.73888 34.1334 5.93805 34.6944 5.56118C35.2554 5.18432 36.3903 4.99017 38.0847 4.99017C40.8156 4.99017 42.1817 5.79101 42.1817 7.4398V7.76813L42.2702 7.77384Z" fill="#87959E"/>
<path d="M8.72346 4.90735C7.78415 5.2628 7.36874 6.05935 7.20743 6.95013C6.93335 8.46473 7.15318 10.0065 7.09037 11.5353C7.0815 11.913 7.04091 12.2893 6.96903 12.6602C6.91464 12.9715 6.75759 13.2556 6.52293 13.4672C6.28827 13.6789 5.9895 13.8059 5.67427 13.8279C5.24601 13.8693 4.80063 13.895 4.36238 13.8993C3.92413 13.9036 3.48302 13.8693 3.05048 13.8279C2.735 13.8062 2.43591 13.6793 2.20096 13.4677C1.96601 13.256 1.80875 12.9717 1.75429 12.6602C1.68242 12.2893 1.64183 11.913 1.63296 11.5353C1.57014 10.0065 1.79141 8.46473 1.51733 6.95013C1.35602 6.05935 0.946318 5.2628 0.0012978 4.90735V12.5118C0.0012978 12.6417 0.0012978 12.6859 0.0012978 12.7644C-0.0272526 13.6067 0.418134 14.1848 1.05338 14.703C1.59869 15.1455 2.23537 15.2069 2.87633 15.304H5.847C6.48796 15.2069 7.13177 15.1455 7.66995 14.703C8.30519 14.1848 8.75058 13.6067 8.72346 12.7644C8.72346 12.6859 8.72346 12.6417 8.72346 12.5118V4.90735Z" fill="#87959E"/>
<path d="M21.8752 32.641C21.406 31.8354 21.4221 31.6461 20.9407 30.8445C20.4711 30.1027 20.2353 29.2368 20.264 28.3592C20.3144 26.6413 20.2822 24.9153 20.1734 23.2014C20.1009 22.0594 19.7203 21.2901 18.5259 21.0001C17.1504 20.6677 15.7406 20.6254 14.4435 21.1712C14.0983 21.3092 13.7849 21.5163 13.5227 21.7799C13.2606 22.0435 13.0551 22.3579 12.9189 22.7039C12.6048 23.4289 12.5443 24.2567 12.5161 25.0402C12.4537 26.7178 12.494 28.3975 12.498 30.0752C12.498 31.4427 12.5121 32.8082 12.5202 34.1757H10.2745C10.2745 32.7156 10.3048 31.2554 10.2947 29.7952C10.2772 27.5946 10.2463 25.3939 10.202 23.1933C10.1839 22.2085 9.36018 21.2458 8.40151 20.994C7.55118 20.7726 6.66207 20.7444 5.79941 20.9114C4.43391 21.1612 3.45913 21.9003 2.94153 23.2195C2.57296 24.154 2.56289 25.1368 2.51456 26.1136C2.47629 26.889 2.50449 27.6664 2.51456 28.4438C2.51456 30.3558 2.52194 32.2664 2.53671 34.1757H0.293102V19.1693L1.59214 19.1915C2.17218 19.1915 2.50046 19.5258 2.5065 20.1058C2.5065 20.4663 2.5065 20.8248 2.5065 21.1853C2.93484 20.5692 3.49221 20.0538 4.13987 19.6748C4.69193 19.3654 5.29263 19.1523 5.91622 19.0444C6.77921 18.8725 7.66613 18.8575 8.53444 19.0001C9.30581 19.125 10.6874 19.3486 11.1829 20.0555C11.5129 20.3744 11.774 20.7576 11.9502 21.1813C11.9875 21.2463 12.0299 21.3083 12.0771 21.3666C12.3659 20.8903 12.7337 20.4667 13.1647 20.1139C13.8803 19.5575 14.7247 19.1904 15.6197 19.0465C16.4965 18.8638 17.3999 18.8488 18.2822 19.0022C18.8019 19.0344 20.1492 19.1915 21.1019 20.2106C21.7302 20.8812 21.5047 21.6868 21.6235 22.2105C21.7202 22.6133 21.8249 23.0161 21.9196 23.4189L21.8752 32.641Z" fill="#868E77"/>
<path d="M39.2924 19.0041C40.098 19.1693 40.8936 19.3324 41.53 20.0111C42.2067 20.7261 42.4041 21.6626 42.4806 22.2829C42.533 22.7099 42.4605 23.1087 42.4806 23.582C42.4806 26.9917 42.4806 30.4014 42.4907 33.8132C42.4907 34.1475 42.4021 34.1958 42.1 34.1837C41.4514 34.1555 40.8916 34.1575 40.243 34.1575V23.3826C40.2396 22.853 40.1141 22.3313 39.8765 21.858C39.5563 21.1954 38.9178 20.9819 38.2653 20.8852C37.0045 20.6959 35.7478 20.6737 34.5192 21.143C33.2282 21.6364 32.5455 22.6052 32.336 23.9123C32.0964 25.3966 32.2615 26.8991 32.2434 28.3955C32.2434 29.046 32.193 29.6341 31.7781 30.2081C31.1739 31.0338 30.9302 31.8837 30.3683 32.7477C30.3462 32.782 30.2938 32.7961 30.2556 32.8203V21.6566C30.294 21.4253 30.3895 21.2072 30.5335 21.0222C30.9262 20.5086 31.2404 19.9386 31.6291 19.421C31.7479 19.266 31.8849 19.0444 32.1004 19.1169C32.3159 19.1894 32.2434 19.4351 32.2474 19.6144C32.2602 19.9602 32.2548 20.3064 32.2313 20.6516C32.4099 20.3108 32.6753 20.0232 33.0007 19.8178C33.355 19.5542 33.7476 19.3464 34.1648 19.2015C34.5967 19.0659 35.0439 18.9847 35.496 18.9598C35.8988 18.9195 36.215 18.9155 36.362 18.9135C37.935 18.8934 38.7144 18.8934 39.2924 19.0041Z" fill="#868E77"/>
<path d="M32.3481 17.8622C31.035 18.4201 30.4549 19.6749 30.2294 21.0685C29.8447 23.4451 30.1528 25.8659 30.0662 28.2646C30.0535 28.8574 29.997 29.4485 29.8971 30.0329C29.6957 31.1185 28.9867 31.767 28.0845 31.8637C27.4802 31.9281 26.864 31.9704 26.2517 31.9764C25.6394 31.9825 25.0232 31.9281 24.4169 31.8637C23.5167 31.767 22.8057 31.1185 22.6043 30.0329C22.5061 29.4483 22.4502 28.8573 22.4372 28.2646C22.3485 25.8659 22.6567 23.4451 22.274 21.0685C22.0485 19.6708 21.4684 18.4201 20.1533 17.8622V29.7993C20.1533 30.0007 20.1533 30.0712 20.1533 30.2021C20.115 31.5253 20.7373 32.4336 21.6255 33.2453C22.3868 33.9401 23.277 34.0368 24.1732 34.1898H28.3201C29.2163 34.0368 30.1065 33.9401 30.8678 33.2453C31.756 32.4397 32.3783 31.5253 32.3401 30.2021C32.3401 30.0792 32.3401 30.0007 32.3401 29.7993L32.3481 17.8622Z" fill="#868E77"/>
<path d="M23.3043 38.9366C22.3668 39.6023 21.2228 40.1438 21.2228 40.8327H24.4968C24.6644 40.8327 24.8252 40.8993 24.9437 41.0178C25.0622 41.1364 25.1288 41.2971 25.1288 41.4648V41.7787H20.2241V41.4542C20.2241 40.2702 20.5781 39.832 21.1301 39.3853C22.3457 38.4057 23.9385 37.7399 23.9385 36.8571C23.9385 36.2104 23.3359 35.8037 22.6175 35.8037C22.1257 35.8177 21.6442 35.9476 21.2122 36.183C21.1414 36.2187 21.0625 36.2354 20.9832 36.2315C20.904 36.2276 20.8271 36.2033 20.76 36.1609C20.693 36.1184 20.6381 36.0593 20.6006 35.9894C20.5632 35.9194 20.5446 35.8409 20.5465 35.7616C20.5455 35.6741 20.5693 35.588 20.6151 35.5135C20.661 35.4389 20.727 35.3788 20.8056 35.3402C21.3834 35.0361 22.0257 34.875 22.6786 34.8704C24.0122 34.8704 24.9687 35.5888 24.9687 36.7223C24.9687 37.6683 24.303 38.2287 23.3043 38.9366Z" fill="#3D3D3D"/>
<path d="M28.5461 41.8821C26.829 41.8821 25.5818 40.4558 25.5818 38.3869C25.5818 36.2632 26.8712 34.879 28.5313 34.879C30.0609 34.879 31.3924 36.2632 31.3924 38.3658C31.3966 40.519 30.0124 41.8821 28.5461 41.8821ZM30.3664 38.3595C30.3664 36.9964 29.6184 35.7997 28.5145 35.7997C27.4105 35.7997 26.6183 36.9964 26.6183 38.3995C26.6183 39.8027 27.44 40.9698 28.4702 40.9698C29.5763 40.9656 30.3664 39.79 30.3664 38.3595Z" fill="#3D3D3D"/>
<path d="M34.9339 38.9368C33.9964 39.6026 32.8524 40.144 32.8524 40.833H36.198C36.3457 40.8335 36.4872 40.8926 36.5914 40.9972C36.6957 41.1019 36.7542 41.2436 36.7542 41.3913V41.7705H31.8538V41.446C31.8538 40.262 32.2077 39.8238 32.7597 39.3771C33.9753 38.3975 35.5681 37.7317 35.5681 36.849C35.5681 36.2022 34.9655 35.7956 34.2471 35.7956C33.7553 35.8093 33.2738 35.9392 32.8419 36.1748C32.771 36.2105 32.6921 36.2272 32.6128 36.2233C32.5336 36.2195 32.4567 36.1951 32.3896 36.1527C32.3226 36.1102 32.2677 36.0512 32.2303 35.9812C32.1928 35.9112 32.1742 35.8327 32.1761 35.7534C32.1751 35.6659 32.1989 35.5799 32.2448 35.5053C32.2906 35.4307 32.3567 35.3707 32.4352 35.3321C33.013 35.028 33.6553 34.8668 34.3082 34.8622C35.6418 34.8622 36.5983 35.5807 36.5983 36.7141C36.5983 37.6685 35.9326 38.2289 34.9339 38.9368Z" fill="#3D3D3D"/>
<path d="M40.9299 38.1362V38.1572C41.8864 38.2815 42.5016 38.8441 42.5016 39.7479C42.5016 40.894 41.4714 41.8821 39.8681 41.8821C39.2264 41.8714 38.5957 41.7136 38.0246 41.4207C37.945 41.3827 37.8776 41.323 37.8303 41.2485C37.7829 41.174 37.7576 41.0876 37.7571 40.9993C37.7564 40.9191 37.7764 40.8401 37.8151 40.7699C37.8538 40.6996 37.9099 40.6405 37.978 40.5982C38.0461 40.5559 38.124 40.5318 38.2041 40.5283C38.2842 40.5247 38.3639 40.5418 38.4355 40.578C38.8713 40.8203 39.3591 40.954 39.8576 40.9677C40.7635 40.9677 41.4714 40.4178 41.4714 39.731C41.4714 39.0442 40.8393 38.6481 39.9524 38.6481H38.4018V37.7949H39.5563C40.4096 37.7949 41.1385 37.4093 41.1385 36.7857C41.1385 36.2126 40.6076 35.8081 39.7754 35.8081C39.3006 35.8097 38.8342 35.933 38.4207 36.1663C38.3533 36.2045 38.2772 36.2244 38.1997 36.224C38.1223 36.2237 38.0463 36.2032 37.9792 36.1644C37.9122 36.1257 37.8564 36.0701 37.8174 36.0032C37.7785 35.9362 37.7577 35.8603 37.7571 35.7829C37.7575 35.6994 37.7812 35.6178 37.8255 35.547C37.8698 35.4763 37.9329 35.4194 38.0078 35.3826C38.5976 35.0697 39.2532 34.9014 39.9208 34.8917C41.2312 34.8917 42.1687 35.589 42.1687 36.5877C42.1582 37.3061 41.7516 37.8349 40.9299 38.1362Z" fill="#3D3D3D"/>
</svg>
